<svg width="28" height="26" viewBox="0 0 28 26" fill="none" xmlns="http://www.w3.org/2000/svg">
<path d="M28 14.2854V3.30859C28 1.95166 26.896 0.847656 25.5391 0.847656H2.46094C1.104 0.847656 0 1.95166 0 3.30859V14.2854H28ZM12.7441 9.27722H4.89453C4.44144 9.27722 4.07422 8.91 4.07422 8.45691C4.07422 8.00381 4.44144 7.6366 4.89453 7.6366H12.7441C13.1972 7.6366 13.5644 8.00381 13.5644 8.45691C13.5644 8.91 13.1972 9.27722 12.7441 9.27722ZM12.7441 6.66034H4.89453C4.44144 6.66034 4.07422 6.29291 4.07422 5.84003C4.07422 5.38693 4.44144 5.01971 4.89453 5.01971H12.7441C13.1972 5.01971 13.5644 5.38693 13.5644 5.84003C13.5644 6.29291 13.1972 6.66034 12.7441 6.66034ZM12.7441 11.8941H4.89453C4.44144 11.8941 4.07422 11.5269 4.07422 11.0738C4.07422 10.6209 4.44144 10.2535 4.89453 10.2535H12.7441C13.1972 10.2535 13.5644 10.6209 13.5644 11.0738C13.5644 11.5269 13.1972 11.8941 12.7441 11.8941ZM17.8869 12.7584C17.4338 12.7584 17.0666 12.3912 17.0666 11.9381C17.0666 11.4852 17.4338 11.1178 17.8869 11.1178C18.3398 11.1178 18.7072 11.4852 18.7072 11.9381C18.7072 12.3912 18.3398 12.7584 17.8869 12.7584ZM20.1568 12.7584C19.7037 12.7584 19.3365 12.3912 19.3365 11.9381C19.3365 11.4852 19.7037 11.1178 20.1568 11.1178C20.6097 11.1178 20.9771 11.4852 20.9771 11.9381C20.9771 12.3912 20.6099 12.7584 20.1568 12.7584ZM23.8188 7.01816L21.9639 10.281C21.818 10.5376 21.5458 10.6961 21.2508 10.6961H17.4577C17.24 10.6961 17.0311 10.6094 16.8773 10.4554C16.7235 10.3013 16.6372 10.0926 16.6374 9.87473L16.641 6.61185V5.81888H16.2142C15.7613 5.81888 15.3939 5.45145 15.3939 4.99857C15.3939 4.54547 15.7613 4.17825 16.2142 4.17825H17.4613C17.9142 4.17825 18.2816 4.54547 18.2816 4.99857V5.79239H23.1055C23.3977 5.79239 23.6677 5.94769 23.8145 6.2002C23.9615 6.4527 23.963 6.76416 23.8188 7.01816Z" fill="white"/>
<path d="M0 15.9258V18.1282C0 19.4852 1.104 20.5892 2.46094 20.5892H10.5397V23.5113H8.27341C7.82031 23.5113 7.45309 23.8785 7.45309 24.3316C7.45309 24.7847 7.82031 25.1519 8.27341 25.1519H19.7268C20.1797 25.1519 20.5471 24.7847 20.5471 24.3316C20.5471 23.8785 20.1797 23.5113 19.7268 23.5113H17.4603V20.5892H25.5391C26.896 20.5892 28 19.4852 28 18.1282V15.9258H0ZM13.6456 16.6918H14.3544C14.8073 16.6918 15.1747 17.0591 15.1747 17.5121C15.1747 17.9652 14.8073 18.3325 14.3544 18.3325H13.6456C13.1927 18.3325 12.8253 17.9652 12.8253 17.5121C12.8253 17.0591 13.1927 16.6918 13.6456 16.6918Z" fill="white"/>
</svg>
