<svg width="28" height="28" viewBox="0 0 28 28" fill="none" xmlns="http://www.w3.org/2000/svg">
<path d="M5.59994 21.9342C4.87387 21.9343 4.15614 21.7795 3.49466 21.4801C2.83318 21.1807 2.24316 20.7437 1.76398 20.1982C1.20835 20.7207 0.765288 21.3511 0.46196 22.0508C0.158632 22.7505 0.00143231 23.5049 0 24.2675V25.6675C0 26.2863 0.24583 26.8798 0.68341 27.3174C0.900077 27.5341 1.1573 27.7059 1.44039 27.8232C1.72348 27.9405 2.02689 28.0008 2.33331 28.0008H8.86657C9.4854 28.0008 10.0789 27.755 10.5165 27.3174C10.954 26.8798 11.1999 26.2863 11.1999 25.6675V24.2675C11.1984 23.5049 11.0412 22.7505 10.7379 22.0508C10.4346 21.3511 9.99152 20.7207 9.43589 20.1982C8.95671 20.7437 8.36669 21.1807 7.70521 21.4801C7.04373 21.7795 6.326 21.9343 5.59994 21.9342Z" fill="white"/>
<path d="M5.59988 20.0665C7.40399 20.0665 8.86651 18.6039 8.86651 16.7998C8.86651 14.9957 7.40399 13.5332 5.59988 13.5332C3.79577 13.5332 2.33325 14.9957 2.33325 16.7998C2.33325 18.6039 3.79577 20.0665 5.59988 20.0665Z" fill="white"/>
<path d="M21.2798 17.1091L24.0144 19.8531C24.4534 20.2896 25.0473 20.5347 25.6664 20.5347C26.2855 20.5347 26.8794 20.2896 27.3184 19.8531C27.755 19.4141 28 18.8202 28 18.2011C28 17.582 27.755 16.988 27.3184 16.5491L24.5744 13.8145C23.7432 15.1506 22.616 16.2779 21.2798 17.1091Z" fill="white"/>
<path d="M15.8665 16.7998C17.5278 16.7998 19.1518 16.3072 20.5332 15.3842C21.9146 14.4612 22.9912 13.1493 23.627 11.6144C24.2627 10.0795 24.4291 8.39059 24.105 6.76117C23.7808 5.13175 22.9808 3.63503 21.8061 2.46028C20.6313 1.28553 19.1346 0.485518 17.5052 0.161406C15.8758 -0.162707 14.1868 0.00363951 12.652 0.639408C11.1171 1.27518 9.80519 2.35181 8.88219 3.73317C7.9592 5.11453 7.46655 6.73856 7.46655 8.39991C7.46655 10.6277 8.35154 12.7642 9.92683 14.3395C11.5021 15.9148 13.6387 16.7998 15.8665 16.7998ZM13.0665 7.11192L14.9331 8.97857L18.6664 5.24528L19.9824 6.53326L15.5771 10.9292C15.4904 11.0167 15.3871 11.0861 15.2734 11.1335C15.1597 11.1809 15.0377 11.2053 14.9145 11.2053C14.7913 11.2053 14.6693 11.1809 14.5555 11.1335C14.4418 11.0861 14.3386 11.0167 14.2518 10.9292L11.7505 8.39991L13.0665 7.11192Z" fill="white"/>
<path d="M13.0665 26.1328H27.9997V27.9995H13.0665V26.1328Z" fill="white"/>
<path d="M13.0665 22.4004H21.4664V24.267H13.0665V22.4004Z" fill="white"/>
</svg>
