<svg width="28" height="30" viewBox="0 0 28 30" fill="none" xmlns="http://www.w3.org/2000/svg">
<path fill-rule="evenodd" clip-rule="evenodd" d="M7.01052 16.7696C6.77993 16.2965 6.48227 15.8545 6.12321 15.4583C5.16671 14.4224 4.58545 13.0374 4.58545 11.5179C4.58545 8.29236 7.20398 5.67383 10.4292 5.67383C13.6548 5.67383 16.2733 8.29236 16.2733 11.5179C16.2733 13.0374 15.692 14.4224 14.7397 15.4622C14.3819 15.8575 14.0851 16.298 13.8548 16.7696H7.01052ZM11.1884 9.12158C11.2001 9.0554 11.1653 8.98951 11.1042 8.96166C11.0428 8.93351 10.9704 8.95058 10.9281 9.00299C10.2543 9.83311 8.82678 11.5928 8.34255 12.1896C8.30901 12.2309 8.30032 12.2872 8.31979 12.3366C8.33925 12.3864 8.38387 12.4217 8.43658 12.4292C8.82109 12.4834 9.53203 12.584 9.84856 12.6286C9.88959 12.6346 9.92612 12.6574 9.94978 12.6915C9.97314 12.7254 9.98122 12.7679 9.97194 12.8083C9.88779 13.1745 9.67457 14.1023 9.53053 14.7297C9.51526 14.7968 9.5479 14.8656 9.60989 14.8956C9.67158 14.9258 9.74614 14.9094 9.78927 14.8561C10.5155 13.9609 12.0179 12.1093 12.5162 11.4951C12.5497 11.4538 12.5584 11.3975 12.539 11.3478C12.5195 11.2984 12.4749 11.2631 12.4222 11.2556C12.0344 11.2008 11.3147 11.099 11.0021 11.0549C10.9626 11.0492 10.9266 11.0277 10.9033 10.9953C10.8796 10.9627 10.8703 10.9223 10.8772 10.8827C10.9377 10.541 11.0875 9.69296 11.1884 9.12158Z" fill="white"/>
<g filter="url(#filter0_d_578_5861)">
<path fill-rule="evenodd" clip-rule="evenodd" d="M13.2795 20.6605C13.2786 21.116 13.278 21.5143 13.2777 21.7889C13.2777 22.0512 13.1615 22.2998 12.9609 22.4681C11.2716 23.8786 9.58503 23.8885 7.89843 22.4657C7.69959 22.298 7.58459 22.051 7.58459 21.7907C7.581 21.2511 7.581 20.2314 7.581 19.2393C7.581 18.7029 7.50464 18.1744 7.3573 17.668H13.5077C13.3604 18.1744 13.284 18.7032 13.284 19.2393C13.2831 19.4136 13.2825 19.5887 13.2819 19.7621H10.7832C10.5352 19.7621 10.334 19.9634 10.334 20.2113C10.334 20.4593 10.5352 20.6605 10.7832 20.6605H13.2795Z" fill="white"/>
</g>
<path fill-rule="evenodd" clip-rule="evenodd" d="M2.56223 10.3711H0.449199C0.201241 10.3711 0 10.5723 0 10.8203C0 11.0682 0.201241 11.2695 0.449199 11.2695H2.56223C2.80989 11.2695 3.01143 11.0682 3.01143 10.8203C3.01143 10.5723 2.80989 10.3711 2.56223 10.3711Z" fill="white"/>
<path fill-rule="evenodd" clip-rule="evenodd" d="M20.4095 10.3711H18.2965C18.0485 10.3711 17.8473 10.5723 17.8473 10.8203C17.8473 11.0682 18.0485 11.2695 18.2965 11.2695H20.4095C20.6575 11.2695 20.8587 11.0682 20.8587 10.8203C20.8587 10.5723 20.6575 10.3711 20.4095 10.3711Z" fill="white"/>
<path fill-rule="evenodd" clip-rule="evenodd" d="M9.97998 1.4033V3.51633C9.97998 3.76429 10.1815 3.96553 10.4292 3.96553C10.6771 3.96553 10.8784 3.76429 10.8784 3.51633V1.4033C10.8784 1.15564 10.6771 0.954102 10.4292 0.954102C10.1815 0.954102 9.97998 1.15564 9.97998 1.4033Z" fill="white"/>
<path fill-rule="evenodd" clip-rule="evenodd" d="M17.2249 3.26212L15.8693 5.24698C15.7294 5.45181 15.7821 5.73151 15.9869 5.87137C16.1918 6.01122 16.4715 5.95851 16.6113 5.75367L17.9667 3.76882C18.1066 3.56398 18.0539 3.28428 17.849 3.14443C17.6445 3.00488 17.3645 3.05758 17.2249 3.26212Z" fill="white"/>
<path fill-rule="evenodd" clip-rule="evenodd" d="M2.89197 3.76882L4.24735 5.75367C4.3872 5.95851 4.66691 6.01122 4.87174 5.87137C5.07627 5.73151 5.12898 5.45181 4.98913 5.24698L3.63375 3.26212C3.4939 3.05758 3.2142 3.00488 3.00936 3.14443C2.80483 3.28428 2.75212 3.56398 2.89197 3.76882Z" fill="white"/>
<path fill-rule="evenodd" clip-rule="evenodd" d="M20.2466 19.0952C21.1696 18.0073 22.5241 16.8912 24.6197 15.7894C24.8389 15.6741 24.9237 15.4022 24.8081 15.183C24.6928 14.9635 24.4209 14.8791 24.2017 14.9944C19.3174 17.562 18.2237 20.1925 17.4409 22.4214C17.3535 20.3482 17.7455 17.52 20.1191 15.8466C23.5887 13.4003 26.9097 13.1014 27.4994 11.239C28.089 9.37667 28.7721 18.9371 25.6059 21.2032C22.8214 23.1961 20.6129 22.7062 18.622 24.2526C18.56 24.4266 18.4968 24.597 18.4307 24.7641C17.9485 25.9791 16.4473 29.6269 12.6728 28.9656C11.3366 28.7314 10.6221 27.7735 10.2654 26.6876C10.0037 25.8904 9.94201 25.028 9.94141 24.3973C10.1043 24.4176 10.2672 24.4275 10.4298 24.4272C10.5652 24.4269 10.7009 24.42 10.8365 24.4057C10.8368 24.9585 10.8904 25.7113 11.1192 26.4073C11.3764 27.191 11.8637 27.9118 12.828 28.0807C16.0068 28.6377 17.1894 25.4562 17.5958 24.4326C18.2133 22.8763 18.5801 21.028 20.2466 19.0952Z" fill="white"/>
<defs>
<filter id="filter0_d_578_5861" x="1.3573" y="11.668" width="18.1504" height="17.8613" filterUnits="userSpaceOnUse" color-interpolation-filters="sRGB">
<feFlood flood-opacity="0" result="BackgroundImageFix"/>
<feColorMatrix in="SourceAlpha" type="matrix" values="0 0 0 0 0 0 0 0 0 0 0 0 0 0 0 0 0 0 127 0" result="hardAlpha"/>
<feOffset/>
<feGaussianBlur stdDeviation="3"/>
<feComposite in2="hardAlpha" operator="out"/>
<feColorMatrix type="matrix" values="0 0 0 0 1 0 0 0 0 1 0 0 0 0 1 0 0 0 0.25 0"/>
<feBlend mode="normal" in2="BackgroundImageFix" result="effect1_dropShadow_578_5861"/>
<feBlend mode="normal" in="SourceGraphic" in2="effect1_dropShadow_578_5861" result="shape"/>
</filter>
</defs>
</svg>
