<svg width="28" height="28" viewBox="0 0 28 28" fill="none" xmlns="http://www.w3.org/2000/svg">
<path d="M24.843 16.476V0H20.652V15.0915C21.4127 15.9697 22.0052 17.0113 22.3656 18.1163H28V16.476H24.843Z" fill="white"/>
<path d="M14 13.6875C10.0531 13.6875 6.84204 16.8979 6.84204 20.8441C6.84204 24.7902 10.0531 28.0007 14 28.0007C17.9469 28.0007 21.158 24.7902 21.158 20.8441C21.158 16.8979 17.9469 13.6875 14 13.6875ZM14 20.0239C15.527 20.0239 16.7693 21.2659 16.7693 22.7926C16.7693 24.0339 15.9481 25.087 14.8203 25.4374V26.6876H13.1797V25.4374C12.052 25.087 11.2308 24.034 11.2308 22.7927H12.8714C12.8714 23.4149 13.3777 23.9211 14 23.9211C14.6224 23.9211 15.1287 23.4149 15.1287 22.7927C15.1287 22.1705 14.6224 21.6642 14 21.6642C12.4731 21.6642 11.2308 20.4222 11.2308 18.8955C11.2308 17.6542 12.052 16.6012 13.1797 16.2508V15.0006H14.8203V16.2508C15.9481 16.6012 16.7693 17.6542 16.7693 18.8955H15.1287C15.1287 18.2733 14.6224 17.7671 14 17.7671C13.3777 17.7671 12.8714 18.2733 12.8714 18.8955C12.8714 19.5177 13.3777 20.0239 14 20.0239Z" fill="white"/>
<path d="M7.34809 15.0918V10.8701H3.15711V16.4763H0V18.1166H5.63445C5.9949 17.0113 6.58689 15.9705 7.34809 15.0918Z" fill="white"/>
<path d="M19.0113 3.62305H14.8203V12.0849C16.3676 12.2287 17.7999 12.7745 19.0113 13.6169V3.62305Z" fill="white"/>
<path d="M13.1797 7.24707H8.98865V13.6176C10.2001 12.7752 11.6324 12.2293 13.1797 12.0857V7.24707Z" fill="white"/>
</svg>
