<svg width="28" height="28" viewBox="0 0 28 28" fill="none" xmlns="http://www.w3.org/2000/svg">
<path d="M14.5 6.99902H0.5C0.223858 6.99902 0 7.22288 0 7.49902V7.99902C0 8.27517 0.223858 8.49902 0.5 8.49902H14.5C14.7761 8.49902 15 8.27517 15 7.99902V7.49902C15 7.22288 14.7761 6.99902 14.5 6.99902Z" fill="white"/>
<path d="M13.329 5.27553C13.2878 5.19227 13.2241 5.12222 13.1451 5.07335C13.0661 5.02448 12.9749 4.99873 12.882 4.99903H2.11802C2.02512 4.99873 1.93399 5.02448 1.85498 5.07335C1.77597 5.12222 1.71224 5.19227 1.67102 5.27553L1.30902 5.99903H13.691L13.329 5.27553Z" fill="white"/>
<path d="M3.38998 27.999H10.363C9.93515 27.625 9.59222 27.1638 9.35715 26.6464C9.12208 26.129 9.0003 25.5673 8.99998 24.999V24.499C9.00073 24.2806 9.04949 24.065 9.1428 23.8674C9.23612 23.6699 9.37171 23.4953 9.53998 23.356C9.19207 22.9879 8.99878 22.5002 8.99998 21.9937C9.00119 21.4872 9.19682 21.0005 9.54648 20.634C9.39372 20.5114 9.26712 20.3593 9.17419 20.1869C9.08126 20.0144 9.02389 19.8251 9.00548 19.63C8.98817 19.4254 9.0136 19.2194 9.08013 19.0252C9.14667 18.8309 9.25286 18.6526 9.39198 18.5015C9.14095 18.2279 9.00116 17.8704 8.99998 17.499C9.00245 16.0677 9.47693 14.6772 10.3499 13.5429C11.2228 12.4086 12.4455 11.5939 13.8285 11.225L13.9605 9.49902H1.03998L2.39348 27.0755C2.41376 27.3263 2.5274 27.5603 2.71192 27.7313C2.89644 27.9023 3.13841 27.9978 3.38998 27.999Z" fill="white"/>
<path d="M28 24.499C28 24.3664 27.9473 24.2392 27.8536 24.1455C27.7598 24.0517 27.6326 23.999 27.5 23.999H10.5C10.3674 23.999 10.2402 24.0517 10.1464 24.1455C10.0527 24.2392 10 24.3664 10 24.499V24.999C10.0008 25.7944 10.3171 26.557 10.8796 27.1195C11.442 27.6819 12.2046 27.9982 13 27.999H25C25.7954 27.9982 26.558 27.6819 27.1204 27.1195C27.6829 26.557 27.9992 25.7944 28 24.999V24.499Z" fill="white"/>
<path d="M7.99998 3.99911V1.29911C7.99993 1.19052 7.96453 1.0849 7.89913 0.998206C7.83373 0.911517 7.74189 0.848476 7.63748 0.818613L4.79998 0.00661298C4.75239 -0.00629953 4.70164 -0.000153499 4.65851 0.0237461C4.61538 0.0476457 4.58326 0.0874163 4.56898 0.134613L4.39698 0.737113C4.38355 0.784782 4.38952 0.835829 4.4136 0.879108C4.43768 0.922388 4.4779 0.954385 4.52548 0.968113L6.63998 1.57211C6.74392 1.60243 6.83521 1.66566 6.90013 1.75231C6.96505 1.83896 7.00009 1.94434 6.99998 2.05261V3.99911H7.99998Z" fill="white"/>
<path d="M27 20.999H25.459C25.2752 20.9993 25.0969 21.0617 24.953 21.176L23.627 22.235C23.4139 22.4063 23.1487 22.4997 22.8752 22.4997C22.6018 22.4997 22.3366 22.4063 22.1235 22.235L20.797 21.1755C20.653 21.0614 20.4747 20.9992 20.291 20.999H11C10.7348 20.999 10.4804 21.1044 10.2929 21.2919C10.1054 21.4795 10 21.7338 10 21.999C10 22.2642 10.1054 22.5186 10.2929 22.7061C10.4804 22.8937 10.7348 22.999 11 22.999H27C27.2652 22.999 27.5196 22.8937 27.7071 22.7061C27.8946 22.5186 28 22.2642 28 21.999C28 21.7338 27.8946 21.4795 27.7071 21.2919C27.5196 21.1044 27.2652 20.999 27 20.999Z" fill="white"/>
<path d="M22.5 11.999H15.5C14.0418 12.0007 12.6439 12.5808 11.6128 13.6118C10.5817 14.6429 10.0017 16.0409 10 17.499C10 17.6316 10.0527 17.7588 10.1464 17.8526C10.2402 17.9463 10.3674 17.999 10.5 17.999H27.5C27.6326 17.999 27.7598 17.9463 27.8536 17.8526C27.9473 17.7588 28 17.6316 28 17.499C27.9983 16.0409 27.4183 14.6429 26.3872 13.6118C25.3561 12.5808 23.9582 12.0007 22.5 11.999ZM15.5 15.999H15C14.8674 15.999 14.7402 15.9463 14.6464 15.8526C14.5527 15.7588 14.5 15.6316 14.5 15.499C14.5 15.3664 14.5527 15.2392 14.6464 15.1455C14.7402 15.0517 14.8674 14.999 15 14.999H15.5C15.6326 14.999 15.7598 15.0517 15.8536 15.1455C15.9473 15.2392 16 15.3664 16 15.499C16 15.6316 15.9473 15.7588 15.8536 15.8526C15.7598 15.9463 15.6326 15.999 15.5 15.999ZM17 13.999H16.5C16.3674 13.999 16.2402 13.9463 16.1464 13.8526C16.0527 13.7588 16 13.6316 16 13.499C16 13.3664 16.0527 13.2392 16.1464 13.1455C16.2402 13.0517 16.3674 12.999 16.5 12.999H17C17.1326 12.999 17.2598 13.0517 17.3536 13.1455C17.4473 13.2392 17.5 13.3664 17.5 13.499C17.5 13.6316 17.4473 13.7588 17.3536 13.8526C17.2598 13.9463 17.1326 13.999 17 13.999ZM20 15.499H19.5C19.3674 15.499 19.2402 15.4463 19.1464 15.3526C19.0527 15.2588 19 15.1316 19 14.999C19 14.8664 19.0527 14.7392 19.1464 14.6455C19.2402 14.5517 19.3674 14.499 19.5 14.499H20C20.1326 14.499 20.2598 14.5517 20.3536 14.6455C20.4473 14.7392 20.5 14.8664 20.5 14.999C20.5 15.1316 20.4473 15.2588 20.3536 15.3526C20.2598 15.4463 20.1326 15.499 20 15.499Z" fill="white"/>
<path d="M10.5 18.9993C10.4355 18.9988 10.3716 19.0113 10.312 19.0359C10.2524 19.0606 10.1983 19.0969 10.153 19.1428C10.099 19.1942 10.0574 19.2571 10.0314 19.327C10.0055 19.3968 9.99573 19.4717 10.003 19.5458C10.0242 19.6757 10.0921 19.7935 10.1939 19.877C10.2957 19.9605 10.4244 20.004 10.556 19.9993H20.291C20.7016 19.9999 21.0999 20.1395 21.421 20.3953L22.747 21.4538C22.7834 21.4829 22.8287 21.4987 22.8753 21.4987C22.9219 21.4987 22.9671 21.4829 23.0035 21.4538L24.329 20.3958C24.6501 20.1398 25.0484 20.0001 25.459 19.9993H27.5C27.5645 19.9999 27.6283 19.9875 27.6879 19.9628C27.7474 19.9382 27.8014 19.9018 27.8465 19.8558C27.9001 19.8048 27.9415 19.7423 27.9675 19.673C27.9934 19.6038 28.0034 19.5295 27.9965 19.4558C27.9759 19.3255 27.9083 19.2071 27.8066 19.1231C27.7049 19.039 27.5759 18.995 27.444 18.9993H10.5Z" fill="white"/>
</svg>
