<svg width="28" height="28" viewBox="0 0 28 28" fill="none" xmlns="http://www.w3.org/2000/svg">
<path fill-rule="evenodd" clip-rule="evenodd" d="M2.20285 13.5998C2.01307 13.8903 1.56345 13.9058 1.37224 13.5495L0.166564 11.4803C0.0344017 11.2521 0.112239 10.96 0.340427 10.8278C0.568615 10.6956 0.860761 10.7735 0.992923 11.0017L1.41915 11.7331C2.21643 5.08667 7.87518 0 14.6616 0C22.0281 0 28 5.97184 28 13.3384C28 16.9129 26.5776 20.2856 24.0933 22.77C23.9064 22.9569 23.6033 22.9569 23.4164 22.77C23.2295 22.5831 23.2295 22.28 23.4164 22.0931C28.2458 17.2638 28.2608 9.42792 23.4164 4.58356C18.5814 -0.251521 10.7419 -0.251521 5.9068 4.58356C3.99897 6.49139 2.71115 9.01911 2.37067 11.8386L2.92199 11.1345C3.08407 10.9269 3.38375 10.8901 3.59136 11.0522C3.79891 11.2143 3.8357 11.514 3.67362 11.7216L2.20285 13.5998ZM0 15.3182V26.394H2.20913C2.20913 25.2428 3.14258 24.3094 4.29375 24.3094C5.44498 24.3094 6.37838 25.2428 6.37838 26.394H12.5322V24.3398H10.0933C9.83003 24.3398 9.61656 24.1264 9.61656 23.8631C9.61656 23.5998 9.83003 23.3863 10.0933 23.3863H12.5322V22.9388H7.14598C6.88268 22.9388 6.6692 22.7254 6.6692 22.462C6.6692 22.1987 6.88268 21.9853 7.14598 21.9853H12.5322V15.3182H8.41903V19.0999C8.41903 19.5185 7.8975 19.7636 7.57448 19.4084L6.52041 18.3325L5.44074 19.4346C5.14165 19.7393 4.62323 19.5241 4.62323 19.0999H4.62179V15.3182H0ZM5.10043 15.3182V19.0999L6.52041 17.6504L7.94039 19.0999V15.3182H5.10043ZM14.1544 22.462H17.5895L16.2471 19.7758H14.1544V22.462ZM15.9882 24.788C15.1013 24.788 14.3822 25.507 14.3822 26.394C14.3822 27.281 15.1013 28 15.9882 28C16.8752 28 17.5942 27.281 17.5942 26.394C17.5942 25.507 16.8752 24.788 15.9882 24.788ZM15.9882 25.7354C16.352 25.7354 16.6469 26.0302 16.6469 26.394C16.6469 26.7578 16.352 27.0526 15.9882 27.0526C15.6245 27.0526 15.3296 26.7577 15.3296 26.394C15.3296 26.0302 15.6245 25.7354 15.9882 25.7354ZM4.29381 24.788C5.18078 24.788 5.8998 25.507 5.8998 26.394C5.8998 27.281 5.18078 28 4.29381 28C3.40685 28 2.68782 27.281 2.68782 26.394C2.68776 25.507 3.40679 24.788 4.29381 24.788ZM4.29375 25.7354C4.65751 25.7354 4.95241 26.0302 4.95241 26.394C4.95241 26.7578 4.65751 27.0526 4.29375 27.0526C3.92999 27.0526 3.63515 26.7577 3.63515 26.394C3.63515 26.0302 3.93005 25.7354 4.29375 25.7354ZM16.9707 18.5301H13.0408V26.394H13.9036C13.9036 25.2428 14.837 24.3094 15.9882 24.3094C17.1395 24.3094 18.0729 25.2428 18.0729 26.394H19.0031V22.597L16.9707 18.5301ZM17.5895 22.9407C17.9274 22.9407 18.2037 22.5804 17.996 22.2093L16.6733 19.5627C16.5899 19.3958 16.4218 19.2993 16.2471 19.2991V19.2971H14.1544C13.89 19.2971 13.6757 19.5115 13.6757 19.7758V22.462C13.6757 22.7263 13.89 22.9406 14.1544 22.9406H17.5895V22.9407ZM15.1403 3.94429V7.37591C16.2697 7.35245 17.3684 7.24721 18.4293 7.05385C17.6515 5.46132 16.5105 4.19186 15.1403 3.94429ZM12.4208 3.67273C10.649 4.07514 9.05453 4.94409 7.77347 6.14379C8.41071 6.4205 9.13745 6.65921 9.93408 6.85139C10.5359 5.54932 11.3678 4.39038 12.4208 3.67273ZM7.08532 6.85426C5.32018 8.86421 4.37961 11.5392 4.61767 14.3609H8.61377C8.60803 14.2349 8.60348 14.1084 8.60025 13.9812H7.40833C7.14401 13.9812 6.9297 13.7668 6.9297 13.5025C6.9297 13.2382 7.14401 13.0239 7.40833 13.0239H8.60019C8.64955 11.0808 8.99763 9.27249 9.56421 7.7435C8.69627 7.52566 7.90378 7.25344 7.21018 6.93706C7.16321 6.91558 7.12139 6.88746 7.08532 6.85426ZM19.8481 22.1467C22.6516 20.461 24.568 17.4506 24.7302 13.9812H20.7229C20.6736 15.9245 20.3254 17.7331 19.7587 19.2623C20.0512 19.3356 20.3349 19.4151 20.6091 19.5003C20.8611 19.5777 21.0026 19.8448 20.9251 20.0968C20.8477 20.3487 20.5806 20.4902 20.3287 20.4127C20.0277 20.3191 19.714 20.2329 19.3888 20.1544C19.3032 20.3395 19.2142 20.5193 19.1218 20.6934L19.8481 22.1467ZM24.7302 13.0239C24.5159 8.44056 21.2408 4.65763 16.9025 3.67279C17.9553 4.39032 18.7873 5.54932 19.389 6.85139C19.7142 6.77295 20.0278 6.68668 20.3287 6.5931C20.5806 6.51568 20.8476 6.65712 20.9251 6.90906C21.0025 7.161 20.8611 7.42802 20.6091 7.5055C20.3351 7.59069 20.0513 7.67015 19.759 7.74356C20.3256 9.27255 20.6737 11.0809 20.723 13.0239H24.7302V13.0239ZM14.183 17.5729V13.9812H9.55781C9.56116 14.1085 9.56595 14.2351 9.57193 14.3609H13.4895V17.5729H14.183ZM18.2516 18.9521C18.4431 18.9835 18.632 19.0173 18.8182 19.0535C19.3728 17.6048 19.7156 15.8653 19.7655 13.9811H15.1403V17.5729H17.5625L18.2516 18.9521ZM9.55769 13.0239H14.183V8.33329C12.8902 8.30703 11.6515 8.17498 10.5047 7.95236C9.95029 9.40076 9.60753 11.14 9.55769 13.0239ZM15.1403 13.0239H19.7655C19.7157 11.14 19.3729 9.4007 18.8185 7.9523C17.6339 8.18264 16.3869 8.3078 15.1403 8.33329V13.0239ZM10.894 7.05391C11.9112 7.23932 13.0187 7.35162 14.183 7.37585V3.94429C12.8128 4.19186 11.6713 5.46179 10.894 7.05391Z" fill="white"/>
</svg>
