<svg width="28" height="28" viewBox="0 0 28 28" fill="none" xmlns="http://www.w3.org/2000/svg">
<path d="M26.517 22.6301C26.2004 22.495 25.8597 22.4251 25.5155 22.4248H2.48028C-0.806042 22.5133 -0.847436 27.3214 2.48035 27.4324H25.5155C26.0878 27.4263 26.641 27.2249 27.0832 26.8614C27.5254 26.498 27.8302 25.9943 27.9471 25.434C28.064 24.8736 27.9859 24.2901 27.7258 23.7802C27.4657 23.2703 27.0392 22.8645 26.517 22.6301ZM4.34811 25.4294C4.21737 25.4269 4.09278 25.3734 4.00096 25.2803C3.90915 25.1872 3.85738 25.0618 3.85673 24.9311C3.85608 24.8003 3.9066 24.6745 3.99749 24.5804C4.08837 24.4864 4.21242 24.4317 4.34314 24.4279C4.47381 24.4305 4.59829 24.484 4.69002 24.5771C4.78175 24.6702 4.83346 24.7955 4.8341 24.9262C4.83475 25.0569 4.78429 25.1827 4.6935 25.2767C4.6027 25.3707 4.47875 25.4255 4.34811 25.4294ZM8.21403 25.4294C8.08161 25.4288 7.95482 25.3758 7.8614 25.2819C7.76798 25.1881 7.71553 25.061 7.71553 24.9286C7.71554 24.7962 7.76799 24.6692 7.86142 24.5753C7.95485 24.4815 8.08164 24.4285 8.21406 24.4279C8.3462 24.4289 8.47257 24.4821 8.56564 24.5759C8.65871 24.6697 8.71093 24.7965 8.71093 24.9286C8.71092 25.0608 8.65869 25.1876 8.56562 25.2814C8.47254 25.3752 8.34617 25.4284 8.21403 25.4294ZM12.0749 25.4294C11.9442 25.4269 11.8196 25.3734 11.7278 25.2803C11.636 25.1872 11.5842 25.0618 11.5836 24.9311C11.5829 24.8003 11.6334 24.6745 11.7243 24.5804C11.8152 24.4864 11.9393 24.4317 12.07 24.4279C12.2006 24.4305 12.3251 24.4841 12.4168 24.5772C12.5086 24.6703 12.5603 24.7955 12.5609 24.9262C12.5616 25.0569 12.5111 25.1827 12.4203 25.2767C12.3295 25.3707 12.2056 25.4255 12.0749 25.4294ZM15.9408 25.4294C15.8084 25.4288 15.6816 25.3758 15.5882 25.2819C15.4948 25.1881 15.4423 25.061 15.4423 24.9286C15.4423 24.7962 15.4948 24.6692 15.5882 24.5753C15.6817 24.4815 15.8084 24.4285 15.9409 24.4279C16.073 24.4289 16.1994 24.4821 16.2924 24.5759C16.3855 24.6697 16.4377 24.7965 16.4377 24.9286C16.4377 25.0608 16.3855 25.1876 16.2924 25.2814C16.1994 25.3751 16.073 25.4284 15.9408 25.4294ZM19.8018 25.4294C19.671 25.4269 19.5464 25.3734 19.4546 25.2803C19.3628 25.1872 19.311 25.0619 19.3104 24.9311C19.3097 24.8003 19.3602 24.6745 19.4511 24.5805C19.542 24.4864 19.666 24.4317 19.7968 24.4279C19.9274 24.4305 20.0519 24.484 20.1436 24.5771C20.2354 24.6702 20.2871 24.7955 20.2877 24.9262C20.2884 25.0569 20.2379 25.1827 20.1471 25.2767C20.0563 25.3707 19.9324 25.4255 19.8018 25.4294ZM23.6676 25.4294C23.536 25.4283 23.41 25.3754 23.3171 25.2822C23.2241 25.1889 23.1716 25.0628 23.171 24.9311C23.1703 24.7994 23.2215 24.6728 23.3136 24.5786C23.4056 24.4844 23.531 24.4303 23.6626 24.4279C23.7942 24.4292 23.9199 24.4821 24.0127 24.5754C24.1056 24.6686 24.1579 24.7946 24.1586 24.9262C24.1593 25.0577 24.1081 25.1842 24.0163 25.2784C23.9244 25.3726 23.7992 25.4268 23.6676 25.4294Z" fill="white"/>
<path d="M19.5064 16.9168V21.4237H25.5155C25.8546 21.4242 26.1918 21.4731 26.5171 21.5689V16.9168C26.5173 16.851 26.5045 16.7857 26.4794 16.7249C26.4543 16.664 26.4174 16.6087 26.3709 16.5622C26.3243 16.5156 26.269 16.4788 26.2082 16.4537C26.1473 16.4286 26.0821 16.4158 26.0163 16.416H20.0071C19.9413 16.4158 19.8761 16.4286 19.8152 16.4537C19.7543 16.4788 19.699 16.5156 19.6525 16.5622C19.606 16.6087 19.5691 16.664 19.544 16.7249C19.5189 16.7858 19.5061 16.851 19.5064 16.9168Z" fill="white"/>
<path d="M8.48922 21.4237V16.9168C8.48945 16.851 8.47665 16.7857 8.45157 16.7249C8.42648 16.664 8.3896 16.6087 8.34306 16.5622C8.29651 16.5156 8.24121 16.4788 8.18035 16.4537C8.11949 16.4286 8.05427 16.4158 7.98844 16.416H1.97927C1.91345 16.4158 1.84823 16.4286 1.78737 16.4537C1.72651 16.4788 1.67122 16.5156 1.62467 16.5622C1.57813 16.6087 1.54125 16.664 1.51617 16.7249C1.49109 16.7858 1.47829 16.851 1.47852 16.9168V21.5689C1.80382 21.4734 2.14102 21.4245 2.48005 21.4237H8.48922Z" fill="white"/>
<path d="M17.0026 16.416H10.9934C10.9276 16.4158 10.8624 16.4286 10.8015 16.4537C10.7407 16.4788 10.6854 16.5157 10.6388 16.5622C10.5923 16.6087 10.5554 16.664 10.5303 16.7249C10.5052 16.7858 10.4925 16.851 10.4927 16.9168V21.4237H17.5034V16.9168C17.5036 16.851 17.4908 16.7857 17.4657 16.7249C17.4406 16.664 17.4038 16.6087 17.3572 16.5622C17.3107 16.5156 17.2554 16.4788 17.1945 16.4537C17.1336 16.4286 17.0684 16.4158 17.0026 16.416Z" fill="white"/>
<path d="M7.23752 9.38488C7.81677 9.33992 8.40856 9.44476 8.64966 10.0409C8.90456 10.6319 8.55623 11.1328 8.1138 11.5031C8.01999 11.5976 7.96735 11.7254 7.96735 11.8586C7.96736 11.9919 8.02001 12.1197 8.11384 12.2142L9.61112 13.7115C9.70566 13.8053 9.83346 13.858 9.96667 13.858C10.0999 13.858 10.2277 13.8053 10.3222 13.7115L10.6227 13.406C10.7727 13.2605 10.9621 13.1619 11.1674 13.1226C11.3727 13.0833 11.585 13.1049 11.7782 13.1848C11.9714 13.2646 12.1371 13.3992 12.2547 13.572C12.3724 13.7448 12.4369 13.9482 12.4404 14.1572L12.4405 14.5878C12.4402 14.6537 12.453 14.7189 12.4781 14.7797C12.5032 14.8406 12.5401 14.8959 12.5866 14.9424C12.6332 14.989 12.6885 15.0259 12.7493 15.0509C12.8102 15.076 12.8754 15.0888 12.9412 15.0886H15.0544C15.1202 15.0888 15.1855 15.076 15.2463 15.0509C15.3072 15.0259 15.3625 14.989 15.409 14.9424C15.4556 14.8959 15.4925 14.8406 15.5175 14.7797C15.5426 14.7189 15.5554 14.6537 15.5552 14.5878V14.1572C15.5587 13.9482 15.6233 13.7447 15.7409 13.572C15.8586 13.3992 16.0242 13.2646 16.2174 13.1847C16.4106 13.1049 16.623 13.0833 16.8283 13.1226C17.0336 13.162 17.2229 13.2605 17.373 13.406L17.6735 13.7115C17.768 13.8053 17.8958 13.858 18.029 13.858C18.1622 13.858 18.29 13.8053 18.3845 13.7115L19.8818 12.2142C19.9756 12.1197 20.0283 11.9919 20.0283 11.8587C20.0283 11.7255 19.9756 11.5976 19.8818 11.5031L19.5764 11.2026C19.4308 11.0526 19.3323 10.8633 19.293 10.658C19.2536 10.4526 19.2752 10.2403 19.3551 10.0471C19.4349 9.85391 19.5695 9.68828 19.7423 9.57061C19.9151 9.45294 20.1185 9.38838 20.3275 9.38487H20.7581C20.8908 9.38449 21.018 9.33161 21.1118 9.23778C21.2056 9.14396 21.2585 9.01681 21.2589 8.88412V6.77091C21.2585 6.63822 21.2057 6.51107 21.1118 6.41724C21.018 6.32341 20.8908 6.27052 20.7581 6.27013C19.3109 6.46409 18.7239 5.02416 19.8819 4.15188C19.9736 4.05626 20.0249 3.92886 20.0249 3.79633C20.0249 3.6638 19.9736 3.53641 19.8818 3.44081L18.3846 1.94353C18.29 1.8497 18.1622 1.79704 18.029 1.79704C17.8958 1.79704 17.768 1.8497 17.6735 1.94353C16.7918 3.11003 15.3609 2.50187 15.5553 1.06713C15.5555 1.00131 15.5427 0.936096 15.5176 0.875246C15.4925 0.814397 15.4556 0.759112 15.4091 0.712573C15.3625 0.666034 15.3072 0.629161 15.2464 0.604076C15.1855 0.578991 15.1203 0.56619 15.0545 0.566409H12.9413C12.8754 0.566185 12.8102 0.578984 12.7494 0.604072C12.6885 0.629159 12.6332 0.666038 12.5867 0.712585C12.5401 0.759132 12.5033 0.814427 12.4782 0.875285C12.4531 0.936144 12.4403 1.00136 12.4405 1.06719C12.4855 1.64647 12.3806 2.23823 11.7845 2.47933C11.1938 2.73429 10.6924 2.38584 10.3223 1.94351C10.2277 1.84969 10.0999 1.79705 9.96672 1.79705C9.83352 1.79706 9.70572 1.84971 9.61117 1.94354L8.11389 3.44082C7.75785 3.82846 8.11703 4.18729 8.41942 4.45233C8.56498 4.60237 8.66348 4.79171 8.70278 4.99703C8.74209 5.20235 8.7205 5.41468 8.64065 5.60788C8.56081 5.80108 8.42621 5.96671 8.25342 6.08437C8.08063 6.20204 7.8772 6.2666 7.66818 6.27011L7.23757 6.27014C7.10487 6.27053 6.97773 6.32341 6.8839 6.41724C6.79007 6.51107 6.7372 6.63823 6.73682 6.77092V8.88413C6.7372 9.01681 6.79008 9.14394 6.88389 9.23777C6.97771 9.33159 7.10484 9.38448 7.23752 9.38488ZM13.9979 4.82293C17.9688 4.94806 17.9679 10.7075 13.9979 10.8321C10.0269 10.7069 10.0278 4.94748 13.9979 4.82293Z" fill="white"/>
</svg>
