<svg width="28" height="28" viewBox="0 0 28 28" fill="none" xmlns="http://www.w3.org/2000/svg">
<path fill-rule="evenodd" clip-rule="evenodd" d="M2.45446 19.8785L6.09704 26.3148C6.2732 26.626 6.16266 27.0247 5.85145 27.2008L4.61245 27.9021C4.30124 28.0782 3.90253 27.9677 3.72642 27.6565L0.0838433 21.2202C-0.0922655 20.909 0.0182182 20.5103 0.329427 20.3341L1.56843 19.6329C1.87964 19.4568 2.27835 19.5673 2.45446 19.8785ZM9.93684 18.7294C8.39398 18.1717 7.98039 18.0794 6.53232 18.9178L3.85913 20.4655L6.08741 24.4027L6.24415 24.3122C6.35499 24.2485 6.48116 24.2356 6.59561 24.2662L6.59596 24.2648L12.6678 25.8917C13.5476 26.1275 14.045 25.9722 14.8218 25.5757L23.16 20.4413C23.4171 20.2831 23.5433 19.915 23.506 19.5548C23.4906 19.4069 23.4459 19.2634 23.3693 19.14C23.2971 19.0237 23.1953 18.9246 23.0619 18.857C22.7266 18.6871 22.1985 18.6891 21.4342 19.0162C21.2393 19.0996 21.029 19.2041 20.8026 19.3324C20.7745 19.3483 20.7461 19.3647 20.7175 19.3813L19.7013 19.9732L16.1047 22.0681C15.1962 22.5971 14.1371 22.6255 13.1323 22.3825C12.0952 22.1693 11.0914 21.8455 10.0705 21.5719C9.8218 21.5055 9.6741 21.25 9.74055 21.0014C9.80699 20.7527 10.0625 20.605 10.3111 20.6714C11.2234 20.9159 12.1274 21.2047 13.0482 21.4127C13.5874 21.5345 14.1448 21.5281 14.319 20.8784C14.4724 20.3056 14.0482 19.9183 13.528 19.8145C12.2955 19.5684 11.1157 19.1556 9.93684 18.7294ZM11.9586 5.8954C12.9891 5.32198 13.7593 5.43538 14.7981 5.60431C15.7541 5.7176 16.9524 6.16583 17.9295 6.42758C18.1785 6.49413 18.3257 6.74987 18.2594 6.99814C18.193 7.24681 17.9375 7.39451 17.6888 7.32807C16.6929 7.06125 15.7089 6.74118 14.6985 6.53193C14.207 6.47191 13.8147 6.62229 13.681 7.12116C13.5598 7.57348 13.8476 7.99797 14.2715 8.14672C15.6512 8.39977 16.9586 8.87233 18.2728 9.34583C19.2448 9.69618 19.6947 9.89194 20.7111 9.46634C21.7943 9.01274 23.101 8.1361 24.1409 7.53404L21.9126 3.59683L21.7558 3.6873C21.645 3.751 21.5189 3.76389 21.4044 3.73333L15.3322 2.1078C14.4507 1.87155 13.9563 2.02783 13.1781 2.42386L4.83989 7.55819C4.44281 7.80267 4.39556 8.48091 4.63059 8.8595C4.82023 9.16505 5.156 9.26177 5.49929 9.25377C5.9337 9.24368 6.51931 9.06262 7.28243 8.61817C8.83224 7.71546 10.3945 6.76486 11.9586 5.8954ZM16.7656 12.6075C17.027 12.1958 17.2699 11.8132 17.1477 11.3569C17.1618 11.3374 17.1791 11.3156 17.1988 11.2925C17.2341 11.2513 17.2713 11.2142 17.3047 11.1897C17.6362 11.2814 18.1118 11.3393 18.5784 11.3707C19.2767 11.4176 19.9991 11.4015 20.1875 11.3499C20.4466 11.2789 20.7313 10.9559 20.8557 10.5869C20.8771 10.5236 20.8948 10.4578 20.9081 10.3906C21.2205 10.272 21.5258 10.119 21.8274 9.9487C22.3657 11.1167 22.666 12.4169 22.666 13.7873C22.666 15.2862 22.3068 16.7012 21.6698 17.9508C21.2483 18.0683 20.776 18.2699 20.251 18.5757L19.7448 18.8705C19.9185 18.0971 19.8866 17.6841 19.8537 17.2594C19.8399 17.0814 19.8259 16.901 19.8299 16.7131C19.8814 14.2737 19.0856 14.2601 17.9754 14.2411C17.6835 14.2362 17.359 14.2306 17.046 14.127C16.1772 13.5343 16.4904 13.041 16.7656 12.6075ZM10.2784 13.4699C10.2202 13.4432 9.48505 12.3006 9.48773 12.2989C9.58141 12.2404 9.81317 12.2066 10.0551 12.1713C10.728 12.073 11.4512 11.9674 11.6066 11.1715C11.7035 10.6752 12.0652 10.4902 12.3985 10.3197C12.9327 10.0464 13.0749 9.97518 13.7039 9.84487C13.9049 9.80322 14.1036 9.76203 14.2671 9.71805C14.6009 9.62822 14.7876 9.45071 14.8982 9.2333C15.9303 9.48868 16.9268 9.84895 17.7461 10.1451C18.042 10.2521 18.3153 10.3509 18.5654 10.4357C18.1445 10.4049 17.7376 10.3531 17.5013 10.2764C17.109 10.1491 16.7373 10.4003 16.4915 10.6873C16.3659 10.8339 16.2654 11.0031 16.2221 11.1368C16.1734 11.2866 16.1745 11.4347 16.2362 11.5676C16.2722 11.645 16.1313 11.867 15.9783 12.108C15.4684 12.911 14.887 13.8268 16.5805 14.937C16.6096 14.956 16.6412 14.972 16.6752 14.9845C17.1449 15.1568 17.5755 15.1642 17.9609 15.1708C18.5266 15.1805 18.9321 15.1874 18.9002 16.6949C18.8949 16.9515 18.9095 17.1414 18.924 17.3287C18.9538 17.7129 18.9826 18.0856 18.7969 18.8328C18.7446 19.0435 18.7616 19.2339 18.833 19.4016L15.6381 21.2624C15.4515 21.3711 15.2625 21.4525 15.0701 21.5084C15.1321 21.3888 15.1822 21.2588 15.2196 21.119C15.4595 20.2236 14.8252 19.069 13.9116 18.9412C13.9053 18.9401 13.899 18.9389 13.8926 18.9378C14.0248 18.7427 14.1787 18.5611 14.3346 18.3773C14.8563 17.7618 15.3959 17.1251 15.4858 15.9402C15.49 15.8847 15.4899 15.8301 15.4856 15.7765C15.3851 14.5128 12.6078 13.4583 11.5214 13.3759C11.4748 13.3724 11.4325 13.372 11.3951 13.375C11.2343 13.3878 10.3439 13.4999 10.2784 13.4699ZM8.20153 13.0064C7.59166 12.6531 6.42289 11.9761 5.70795 10.1672C6.26999 10.1143 6.94818 9.89037 7.74904 9.42393L12.1572 6.85638C12.336 6.8943 12.4378 6.97783 12.5472 7.06749C12.6042 7.11422 12.6624 7.16194 12.7251 7.20889C12.6757 7.91333 13.0681 8.5648 13.6814 8.89917C13.627 8.91077 13.5725 8.92209 13.5178 8.93341C12.8034 9.08146 12.5916 9.17689 11.9754 9.49213C11.4474 9.76221 10.8744 10.0553 10.6913 10.9929C10.6624 11.141 10.2797 11.197 9.92371 11.2489C9.58135 11.2989 9.25346 11.3468 8.99534 11.5077C8.52552 11.8007 8.37362 12.2582 8.90539 13.111L9.00239 13.2668C9.3871 13.8857 9.55995 14.1638 9.89181 14.3157C10.1769 14.4462 10.4219 14.4175 10.8668 14.3657C11.0246 14.3473 11.2146 14.3251 11.4542 14.3057C12.0563 14.3538 14.5053 15.2153 14.5557 15.8494C14.5563 15.8572 14.5564 15.8644 14.5559 15.8709C14.4888 16.7547 14.0488 17.2739 13.6235 17.7757C13.3698 18.0751 13.1202 18.3694 12.9273 18.7221C12.3339 18.5681 11.755 18.3823 11.218 18.1972C10.8877 17.2814 10.4695 16.9977 10.0993 16.7465C9.78995 16.5367 9.5341 16.3631 9.5201 15.1125C9.50867 14.0815 9.02135 13.4811 8.20153 13.0064ZM9.57803 17.5158C9.65812 17.5701 9.74142 17.6266 9.82554 17.7002C9.6195 17.6268 9.42654 17.5597 9.24687 17.5014C8.09735 17.1286 7.05884 17.537 6.06565 18.112L5.55086 18.4101C4.75805 17.0524 4.30381 15.4728 4.30381 13.7872C4.30381 12.6634 4.50576 11.5867 4.8753 10.5915C5.70702 12.6374 7.03708 13.4079 7.73492 13.8121C8.2531 14.1122 8.58315 14.4551 8.59056 15.1197C8.60998 16.8591 9.04819 17.1564 9.57803 17.5158ZM25.5455 8.12105L21.9029 1.68483C21.7267 1.37362 21.8373 0.974909 22.1485 0.798742L23.3875 0.0975152C23.6987 -0.0785936 24.0974 0.03189 24.2735 0.343099L27.9162 6.77933C28.0923 7.09053 27.9818 7.48924 27.6706 7.66541L26.4316 8.36664C26.1204 8.54275 25.7216 8.43226 25.5455 8.12105ZM26.3808 7.15628C26.6225 7.12093 26.7898 6.89634 26.7545 6.65455C26.7192 6.41282 26.4945 6.24552 26.2528 6.28081C26.011 6.31616 25.8437 6.5408 25.879 6.78253C25.9144 7.02427 26.139 7.19163 26.3808 7.15628ZM1.61924 20.8433C1.37751 20.8787 1.2102 21.1032 1.2455 21.345C1.28085 21.5868 1.50549 21.7541 1.74722 21.7188C1.98896 21.6834 2.15626 21.4588 2.12097 21.217C2.08556 20.9753 1.86097 20.8079 1.61924 20.8433Z" fill="white"/>
</svg>
