<svg width="31" height="24" viewBox="0 0 31 24" fill="none" xmlns="http://www.w3.org/2000/svg">
<path fill-rule="evenodd" clip-rule="evenodd" d="M4.12787 14.6027C4.35777 14.4549 4.58766 14.2907 4.80114 14.1265C7.39569 12.2873 9.85887 10.5467 13.5208 12.665C13.7343 12.665 13.997 12.665 14.2762 12.6486C16.0661 12.5829 18.7592 12.4844 19.9907 13.7324C20.2699 14.0116 20.4505 14.34 20.5491 14.7341C19.2846 15.7851 16.0497 16.1956 14.4896 16.3434C14.3747 16.3598 14.2762 16.4747 14.2926 16.5897C14.309 16.7046 14.4075 16.8032 14.5225 16.7867C16.2303 16.6061 19.9579 16.1135 21.1402 14.6356C21.2059 14.5699 21.2552 14.4878 21.3044 14.4057C22.9794 13.2069 25.1963 11.6962 26.7563 12.156C27.3146 12.3202 27.7251 12.7143 27.9714 13.3547C28.0371 13.5025 27.9879 13.6996 27.8401 13.7981C26.5756 14.6684 25.459 15.4895 24.4737 16.2284C19.6459 19.8247 17.1991 21.6474 9.13633 19.5127L7.54348 20.4487L4.12787 14.6027Z" fill="white"/>
<g filter="url(#filter0_d_578_5891)">
<path fill-rule="evenodd" clip-rule="evenodd" d="M19.9086 13.157C20.9596 12.4837 22.4211 11.5642 23.6034 11.8433C23.8497 11.909 24.0632 12.0075 24.2438 12.1553C23.0615 12.6808 21.8956 13.5183 21.0745 14.093L21.0089 14.1423L20.9596 14.2244C20.9267 14.2736 20.8939 14.3393 20.8446 14.3886C20.7297 14.0438 20.5326 13.7317 20.2699 13.469C20.1549 13.3541 20.04 13.2555 19.9086 13.157Z" fill="white"/>
</g>
<path fill-rule="evenodd" clip-rule="evenodd" d="M4.57125 23.487C4.43988 23.487 4.30851 23.4213 4.24283 23.3064L0.0554215 16.1303C0.00615795 16.0482 -0.0102632 15.9497 0.00615795 15.8512C0.0390003 15.7526 0.104685 15.6705 0.186791 15.6213L2.91271 14.0284C3.09334 13.9299 3.32324 13.9791 3.42177 14.1598L7.60917 21.3194C7.67485 21.4179 7.67485 21.5165 7.65843 21.615C7.62559 21.6971 7.57633 21.7792 7.4778 21.8285L4.75188 23.4377C4.6862 23.4706 4.63693 23.487 4.57125 23.487Z" fill="white"/>
<path fill-rule="evenodd" clip-rule="evenodd" d="M16.6244 11.9254C16.5259 11.9254 16.4438 11.8926 16.3617 11.8269C13.685 9.15024 10.9263 6.37506 10.9263 3.55062C10.9263 1.87565 12.2892 0.512695 13.9642 0.512695C15.2779 0.512695 16.0333 1.1367 16.6244 2.10555C17.232 1.1367 17.971 0.512695 19.3011 0.512695C20.976 0.512695 22.339 1.87565 22.339 3.55062C22.339 6.37506 19.5638 9.15024 16.8872 11.8269C16.8215 11.8926 16.723 11.9254 16.6244 11.9254Z" fill="white"/>
<defs>
<filter id="filter0_d_578_5891" x="13.9086" y="5.79199" width="16.3352" height="14.5967" filterUnits="userSpaceOnUse" color-interpolation-filters="sRGB">
<feFlood flood-opacity="0" result="BackgroundImageFix"/>
<feColorMatrix in="SourceAlpha" type="matrix" values="0 0 0 0 0 0 0 0 0 0 0 0 0 0 0 0 0 0 127 0" result="hardAlpha"/>
<feOffset/>
<feGaussianBlur stdDeviation="3"/>
<feComposite in2="hardAlpha" operator="out"/>
<feColorMatrix type="matrix" values="0 0 0 0 1 0 0 0 0 1 0 0 0 0 1 0 0 0 0.25 0"/>
<feBlend mode="normal" in2="BackgroundImageFix" result="effect1_dropShadow_578_5891"/>
<feBlend mode="normal" in="SourceGraphic" in2="effect1_dropShadow_578_5891" result="shape"/>
</filter>
</defs>
</svg>
