<svg width="28" height="24" viewBox="0 0 28 24" fill="none" xmlns="http://www.w3.org/2000/svg">
<path d="M16.7297 13.6822L17.3402 13.0717V5.21733C16.4054 4.50386 15.2431 4.1547 14.0699 4.23493C12.8966 4.31517 11.7926 4.81932 10.9637 5.65341L6.48657 10.1548L10.4695 14.1328C11.3605 13.4667 12.4239 13.0701 13.5336 12.9903C14.6432 12.9104 15.7524 13.1505 16.7297 13.6822Z" fill="white"/>
<path d="M8.21148 22.2061L8.84623 21.5665C8.2593 20.4863 8.02988 19.2478 8.19094 18.0289C8.352 16.8101 8.89524 15.6737 9.74262 14.783L5.80333 10.8389L1.32136 15.316C0.454436 16.239 -0.0192463 17.4632 0.000599341 18.7294C0.020445 19.9956 0.532261 21.2044 1.42769 22.0998C2.32312 22.9952 3.53188 23.507 4.79805 23.5269C6.06423 23.5467 7.28843 23.073 8.21148 22.2061Z" fill="white"/>
<path d="M18.3092 14.9478C19.0823 15.8257 19.5726 16.9163 19.7161 18.0773C19.8596 19.2382 19.6496 20.4154 19.1135 21.4551C19.688 22.3234 20.5268 22.9835 21.5057 23.3378C22.4847 23.6921 23.5517 23.7216 24.5487 23.4221C25.5458 23.1225 26.4199 22.5098 27.0415 21.6747C27.6631 20.8395 27.9992 19.8264 27.9999 18.7853V12.4863H18.3092V14.9478Z" fill="white"/>
<path d="M23.1546 0.373047C21.8695 0.373047 20.6371 0.88354 19.7284 1.79222C18.8197 2.70091 18.3092 3.93335 18.3092 5.21842V11.5174H27.9999V5.21842C27.9999 3.93335 27.4895 2.70091 26.5808 1.79222C25.6721 0.88354 24.4396 0.373047 23.1546 0.373047Z" fill="white"/>
<path d="M17.0155 15.0344C16.0854 14.2755 14.9067 13.8889 13.7077 13.9495C12.5088 14.0102 11.3751 14.5137 10.5262 15.3625C9.67739 16.2114 9.17387 17.3451 9.11324 18.544C9.05262 19.743 9.43921 20.9217 10.1981 21.8518L17.0155 15.0344Z" fill="white"/>
<path d="M10.8812 22.5362C11.8114 23.2951 12.9901 23.6817 14.189 23.621C15.3879 23.5604 16.5217 23.0569 17.3705 22.2081C18.2194 21.3592 18.7229 20.2255 18.7835 19.0266C18.8441 17.8276 18.4576 16.6489 17.6987 15.7188L10.8812 22.5362Z" fill="white"/>
</svg>
