<svg width="28" height="30" viewBox="0 0 28 30" fill="none" xmlns="http://www.w3.org/2000/svg">
<path d="M20.2063 6.28973H19.4745C19.354 5.86471 19.1843 5.45636 18.9669 5.06872L19.4853 4.55001C19.8871 4.16533 19.887 3.47211 19.4856 3.08706L18.7543 2.35572C18.3507 1.95166 17.6939 1.95217 17.2913 2.35572L16.7726 2.87443C16.385 2.65699 15.9764 2.48729 15.5516 2.36683V1.63498C15.5516 1.06449 15.0877 0.600586 14.5172 0.600586H13.4828C12.9123 0.600586 12.4484 1.06449 12.4484 1.63498V2.36683C12.0234 2.48729 11.615 2.65699 11.2274 2.87443L10.7087 2.35597C10.3183 1.96479 9.63667 1.96454 9.24575 2.35572L8.5144 3.08706C8.11306 3.4719 8.11297 4.16536 8.5144 4.54975L9.03311 5.06872C8.81568 5.45636 8.64597 5.86471 8.52551 6.28973H7.79366C7.22318 6.28973 6.75927 6.75364 6.75927 7.32412V8.35851C6.75927 8.92899 7.22318 9.3929 7.79366 9.3929H8.52551C8.64597 9.81792 8.81568 10.2263 9.03311 10.6139L8.51466 11.1326C8.1129 11.5173 8.113 12.2105 8.5144 12.5956L9.24575 13.3269C9.63667 13.7181 10.3185 13.7176 10.7084 13.3269L11.2274 12.8082C11.615 13.0256 12.0234 13.1953 12.4484 13.3158V14.0477C12.4484 14.6181 12.9123 15.082 13.4828 15.082H14.5172C15.0877 15.082 15.5516 14.6181 15.5516 14.0477V13.3158C15.9764 13.1953 16.385 13.0256 16.7726 12.8082L17.2913 13.3269C17.6944 13.7305 18.3512 13.731 18.7543 13.3269L19.4856 12.5956C19.8869 12.2107 19.887 11.5173 19.4856 11.1329L18.9669 10.6139C19.1843 10.2263 19.354 9.81792 19.4745 9.3929H20.2063C20.7768 9.3929 21.2407 8.92899 21.2407 8.35851V7.32412C21.2407 6.75364 20.7768 6.28973 20.2063 6.28973ZM14 10.9445C12.2888 10.9445 10.8968 9.5525 10.8968 7.84132C10.8968 6.13013 12.2888 4.73815 14 4.73815C15.7112 4.73815 17.1032 6.13013 17.1032 7.84132C17.1032 9.5525 15.7112 10.9445 14 10.9445ZM20.4579 13.0341C20.6938 12.6921 20.823 12.2887 20.823 11.8642C20.823 11.4922 20.7192 11.1385 20.5364 10.8259L24.1136 11.6036L20.4579 13.0341ZM7.54223 13.0341L3.88642 11.6036L7.46369 10.826C7.28086 11.1386 7.17697 11.4924 7.17697 11.8642C7.17697 12.2888 7.3063 12.6922 7.54223 13.0341ZM11.7901 20.805L13.4828 17.9838V29.3992L2.57348 25.1305C1.97421 24.8959 1.58732 24.3287 1.58732 23.6855V18.201L9.89426 21.4515C10.0804 21.5242 10.2723 21.5591 10.4617 21.5591C10.9928 21.5591 11.5019 21.2851 11.7901 20.805ZM0.329434 16.598C0.185235 16.5415 0.078413 16.4298 0.0284106 16.2831C-0.0215918 16.1366 -0.00517602 15.9828 0.0743737 15.8503L2.32321 12.1026L13.2416 16.375L10.9031 20.2727C10.7728 20.4899 10.5074 20.58 10.271 20.4883L0.329434 16.598ZM27.9716 16.2831C27.9216 16.4298 27.8145 16.5415 27.6703 16.598L17.729 20.4883C17.4931 20.5803 17.2269 20.4899 17.0969 20.2727L14.7584 16.375L25.6768 12.1026L27.9256 15.85C28.0052 15.9829 28.0216 16.1366 27.9716 16.2831ZM18.1057 21.4515L26.4127 18.2009V23.6855C26.4127 24.3287 26.0258 24.8959 25.4268 25.1305L14.5172 29.3992V17.9838L16.2099 20.805C16.4981 21.2851 17.007 21.5591 17.5383 21.5591C17.7277 21.5591 17.9199 21.5243 18.1057 21.4515Z" fill="white"/>
</svg>
