<svg width="28" height="28" viewBox="0 0 28 28" fill="none" xmlns="http://www.w3.org/2000/svg">
<path fill-rule="evenodd" clip-rule="evenodd" d="M5.95771 0.140625H21.9248C22.2472 0.140625 22.5102 0.403575 22.5102 0.726V2.14378H5.37234V0.726C5.37234 0.403575 5.63529 0.140625 5.95771 0.140625ZM1.23011 25.8747H26.7698C26.9285 25.8747 27.0579 26.0042 27.0579 26.1628V27.5719C27.0579 27.7305 26.9284 27.86 26.7698 27.86H1.23011C1.07153 27.86 0.942044 27.7306 0.942044 27.5719V26.1628C0.942044 26.0041 1.07147 25.8747 1.23011 25.8747ZM1.23011 24.9381V15.9034C1.23011 15.7099 1.38787 15.5521 1.58133 15.5521H1.8732V12.9386C2.17221 13.0219 2.48585 13.0759 2.8098 13.0968V15.5521H3.10173C3.29519 15.5521 3.45295 15.7099 3.45295 15.9034V24.9381H1.23011ZM24.547 24.9381V15.9034C24.547 15.7099 24.7048 15.5521 24.8983 15.5521H25.1902V13.0968C25.5141 13.0759 25.8278 13.0219 26.1268 12.9386V15.5521H26.4187C26.6121 15.5521 26.7699 15.7099 26.7699 15.9034V24.9381H24.547ZM19.7834 3.08038L21.6033 9.03856H27.6878L24.1169 3.12972C24.091 3.08699 24.0351 3.08038 23.9895 3.08038H19.7834ZM20.6279 9.0385H14.4683V3.08038H18.808L20.6279 9.0385ZM9.19197 3.08038L7.37204 9.03856H13.5317V3.08038H9.19197ZM6.39668 9.0385H0.312239L3.88314 3.12972C3.90896 3.08699 3.96492 3.08038 4.01046 3.08038H8.21661L6.39668 9.0385ZM28 9.9751H21.7759C22.0728 11.3812 23.5314 12.1699 24.888 12.1699C26.2445 12.17 27.703 11.3812 28 9.9751ZM20.7414 9.9751H14.5172C14.8142 11.3812 16.2728 12.1699 17.6293 12.1699C18.9858 12.17 20.4445 11.3812 20.7414 9.9751ZM13.4828 9.9751H7.25859C7.55555 11.3812 9.01419 12.1699 10.3707 12.1699C11.7272 12.17 13.1858 11.3812 13.4828 9.9751ZM6.22412 9.9751H0C0.296961 11.3812 1.75548 12.17 3.11203 12.17C4.46858 12.17 5.92715 11.3812 6.22412 9.9751ZM3.7464 13.7653V13.0634C4.95602 12.8978 6.10669 12.2395 6.74135 11.1797C7.49052 12.4307 8.93616 13.1065 10.3707 13.1065C11.8053 13.1065 13.2508 12.4307 14 11.1797C14.7492 12.4307 16.1947 13.1065 17.6293 13.1065C19.064 13.1065 20.5095 12.4307 21.2587 11.1797C21.8933 12.2395 23.044 12.8978 24.2537 13.0634V13.7653H3.7464ZM9.15895 14.2825C10.1678 14.2825 10.9856 15.1003 10.9856 16.1092C10.9856 17.118 10.1678 17.9358 9.15895 17.9358C8.15012 17.9358 7.33229 17.118 7.33229 16.1092C7.33235 15.1003 8.15012 14.2825 9.15895 14.2825ZM6.21112 21.7453H12.1068C12.4634 21.7453 12.7157 21.4031 12.61 21.0624C12.1534 19.5903 10.781 18.5212 9.15895 18.5212C7.53676 18.5212 6.16447 19.5903 5.70787 21.0624C5.60221 21.4031 5.85439 21.7453 6.21112 21.7453ZM16.2229 21.7453H21.2476V21.1494C21.2476 20.9363 21.0295 20.762 20.7628 20.762H19.4175L19.2547 19.6203H18.2156L18.0529 20.762H16.7077C16.441 20.762 16.2228 20.9364 16.2228 21.1494V21.7453H16.2229ZM15.6061 14.8268H21.8645C22.1772 14.8268 22.433 15.0692 22.433 15.3654V19.0709C22.433 19.3671 22.1772 19.6095 21.8645 19.6095H19.2533L19.1655 18.993C19.1489 18.8769 19.051 18.7919 18.9337 18.7919H18.5369C18.4196 18.7919 18.3217 18.8768 18.3051 18.993L18.2173 19.6095H15.606C15.2933 19.6095 15.0375 19.3671 15.0375 19.0709V15.3654C15.0375 15.0691 15.2934 14.8268 15.6061 14.8268ZM4.38955 22.3307H23.6105V24.9381H4.38955V22.3307Z" fill="white"/>
</svg>
