<svg width="521" height="323" viewBox="0 0 521 323" fill="none" xmlns="http://www.w3.org/2000/svg">
<g clip-path="url(#clip0_101_3070)">
<path d="M314.092 149.151L346.903 111.16L384.929 143.948L314.092 149.151Z" fill="#9C8C38"/>
<path d="M185.641 74.1019L136.913 61.9447L149.087 13.2582L185.641 74.1019Z" fill="#2C6AD8"/>
<path d="M143.211 174.275L123.16 220.294L77.1177 200.257L143.211 174.275Z" fill="#823DAE"/>
<path d="M255.321 234.152L301.472 253.949L281.653 300.067L255.321 234.152Z" fill="#3D8FA2"/>
<path d="M285.438 85.3918L280.876 35.4169L330.886 30.8497L285.438 85.3918Z" fill="#24584D"/>
<path d="M227.469 226.356C268.335 226.356 301.463 193.25 301.463 152.413C301.463 111.576 268.335 78.4708 227.469 78.4708C186.603 78.4708 153.475 111.576 153.475 152.413C153.475 193.25 186.603 226.356 227.469 226.356Z" fill="#225263"/>
<path d="M287.909 17.6932L267.066 61.763C254.933 56.4442 241.544 53.4958 227.469 53.4958C209.857 53.4958 193.295 58.1208 178.956 66.2145L154.318 24.1682C175.898 11.8293 200.874 4.76794 227.469 4.76794C248.991 4.76794 269.454 9.39296 287.909 17.6932Z" fill="#2C6AD8"/>
<path d="M375.226 152.413C375.226 198.911 353.605 240.462 319.885 267.543L286.545 231.74C310.761 213.695 326.464 184.854 326.464 152.413C326.464 148.465 326.233 144.567 325.778 140.743L374.201 134.995C374.879 140.71 375.226 146.525 375.226 152.413Z" fill="#9C8C38"/>
<path d="M320.1 117.519L366.49 102.381C357.49 77.4798 341.961 55.6679 321.993 39.0096L289.736 75.572C303.257 86.5317 313.836 100.968 320.1 117.519Z" fill="#24584D"/>
<path d="M155.822 84.2274L120.077 51.109C95.0683 77.5624 79.7124 113.233 79.7124 152.413C79.7124 168.048 82.1588 183.128 86.6878 197.284L132.507 180.395C129.879 171.525 128.474 162.126 128.474 152.413C128.474 126.009 138.88 101.984 155.822 84.2274Z" fill="#823DAE"/>
<path d="M281.306 289.925C264.619 296.466 246.453 300.067 227.469 300.067C213.684 300.067 200.328 298.176 187.658 294.616V242.973C199.84 248.358 213.312 251.339 227.469 251.339C241.627 251.339 255.495 248.267 267.818 242.741L281.306 289.925Z" fill="#3D8FA2"/>
<path d="M153.533 249.382H0.280273V298.935H153.533V249.382Z" fill="#2C6AD8"/>
<path d="M149.888 238.67L185.402 274.159L149.888 309.647V238.67Z" fill="#2C6AD8"/>
<path d="M488.403 249.382V298.935H276.405C304.72 289.495 329.39 272.094 347.746 249.382H488.403Z" fill="#994653"/>
<path d="M484.767 238.67L520.28 274.159L484.767 309.647V238.67Z" fill="#994653"/>
<path d="M112.186 157.709L102.041 156.84L102.335 153.412C102.403 152.619 102.594 151.981 102.909 151.495C103.22 151.01 103.62 150.665 104.11 150.46C104.6 150.256 105.144 150.18 105.742 150.231C106.339 150.282 106.859 150.45 107.3 150.734C107.742 151.018 108.073 151.424 108.293 151.952C108.511 152.479 108.586 153.136 108.519 153.922L108.281 156.696L107.171 156.601L107.406 153.866C107.452 153.325 107.41 152.882 107.28 152.538C107.15 152.191 106.946 151.931 106.668 151.757C106.388 151.58 106.044 151.474 105.638 151.44C105.232 151.405 104.87 151.45 104.553 151.576C104.237 151.702 103.981 151.925 103.787 152.244C103.59 152.563 103.468 152.997 103.421 153.545L103.236 155.705L112.291 156.48L112.186 157.709ZM108.038 152.543L112.809 150.437L112.687 151.864L107.919 153.93L108.038 152.543ZM113.363 145.85C113.3 146.584 113.084 147.202 112.714 147.706C112.342 148.206 111.852 148.575 111.242 148.812C110.63 149.046 109.934 149.129 109.155 149.063C108.376 148.996 107.701 148.795 107.131 148.46C106.558 148.122 106.127 147.682 105.837 147.142C105.544 146.598 105.427 145.982 105.486 145.295C105.52 144.899 105.62 144.513 105.785 144.138C105.95 143.763 106.195 143.43 106.52 143.139C106.841 142.847 107.252 142.627 107.754 142.481C108.255 142.334 108.861 142.291 109.571 142.352L110.066 142.395L109.563 148.259L108.553 148.173L108.954 143.497C108.525 143.46 108.134 143.513 107.783 143.656C107.431 143.795 107.145 144.014 106.923 144.311C106.702 144.604 106.573 144.963 106.537 145.385C106.497 145.851 106.578 146.264 106.78 146.624C106.979 146.98 107.253 147.265 107.604 147.478C107.955 147.691 108.341 147.815 108.76 147.851L109.434 147.909C110.008 147.958 110.504 147.901 110.92 147.737C111.334 147.569 111.66 147.316 111.899 146.977C112.134 146.638 112.272 146.233 112.313 145.76C112.339 145.453 112.32 145.172 112.255 144.917C112.187 144.659 112.074 144.431 111.915 144.234C111.752 144.037 111.543 143.878 111.287 143.756L111.701 142.654C112.074 142.806 112.393 143.035 112.66 143.34C112.923 143.646 113.118 144.011 113.244 144.438C113.367 144.864 113.407 145.335 113.363 145.85ZM106.532 134.266L113.899 137.732L113.797 138.921L105.948 141.082L106.056 139.814L112.3 138.233L112.306 138.154L106.424 135.535L106.532 134.266ZM114.273 133.375L106.665 132.723L106.765 131.554L114.374 132.206L114.273 133.375ZM105.448 132.02C105.428 132.248 105.334 132.438 105.164 132.59C104.995 132.738 104.802 132.803 104.584 132.785C104.366 132.766 104.186 132.669 104.045 132.494C103.904 132.316 103.843 132.113 103.863 131.885C103.882 131.657 103.976 131.469 104.145 131.32C104.315 131.168 104.509 131.102 104.726 131.12C104.944 131.139 105.124 131.238 105.265 131.416C105.406 131.591 105.467 131.793 105.448 132.02ZM114.989 126.889C114.926 127.622 114.71 128.24 114.341 128.744C113.969 129.245 113.478 129.614 112.869 129.851C112.257 130.084 111.561 130.168 110.782 130.101C110.002 130.034 109.328 129.833 108.758 129.499C108.185 129.16 107.753 128.721 107.464 128.18C107.171 127.636 107.054 127.021 107.113 126.334C107.147 125.938 107.247 125.552 107.412 125.177C107.577 124.802 107.822 124.468 108.146 124.177C108.468 123.885 108.879 123.666 109.38 123.519C109.882 123.373 110.488 123.33 111.198 123.39L111.693 123.433L111.19 129.298L110.18 129.211L110.581 124.535C110.151 124.498 109.761 124.551 109.409 124.694C109.058 124.834 108.772 125.052 108.55 125.349C108.328 125.643 108.199 126.001 108.163 126.424C108.123 126.889 108.204 127.302 108.406 127.662C108.605 128.018 108.88 128.303 109.231 128.516C109.582 128.729 109.967 128.854 110.387 128.89L111.06 128.947C111.635 128.997 112.131 128.939 112.547 128.775C112.961 128.608 113.287 128.355 113.525 128.016C113.761 127.677 113.899 127.271 113.939 126.799C113.966 126.492 113.946 126.211 113.882 125.956C113.814 125.697 113.701 125.469 113.541 125.273C113.378 125.076 113.169 124.917 112.914 124.795L113.328 123.693C113.7 123.844 114.02 124.073 114.287 124.379C114.55 124.684 114.745 125.05 114.871 125.477C114.994 125.903 115.034 126.374 114.989 126.889ZM115.402 120.223L107.594 121.889L107.7 120.661L113.666 119.515L113.673 119.436L107.987 117.312L108.094 116.064L114.037 114.956L114.044 114.877L108.38 112.735L108.485 111.507L115.895 114.477L115.796 115.626L109.808 116.79L109.798 116.909L115.5 119.074L115.402 120.223Z" fill="white"/>
<path d="M197.496 34.6251H194.354V24.4433H197.635C198.623 24.4433 199.468 24.6471 200.171 25.0548C200.873 25.4592 201.412 26.0408 201.787 26.7998C202.161 27.5555 202.348 28.4603 202.348 29.5143C202.348 30.5749 202.159 31.488 201.782 32.2537C201.404 33.016 200.854 33.6026 200.131 34.0136C199.408 34.4213 198.53 34.6251 197.496 34.6251ZM195.587 33.5314H197.417C198.258 33.5314 198.956 33.369 199.51 33.0442C200.063 32.7193 200.476 32.257 200.748 31.6571C201.019 31.0572 201.155 30.3429 201.155 29.5143C201.155 28.6924 201.021 27.9847 200.752 27.3915C200.484 26.7949 200.083 26.3375 199.549 26.0193C199.016 25.6978 198.351 25.5371 197.556 25.5371H195.587V33.5314ZM207.459 34.7842C206.723 34.7842 206.089 34.6218 205.555 34.297C205.025 33.9689 204.615 33.5115 204.327 32.9248C204.042 32.3349 203.9 31.6488 203.9 30.8666C203.9 30.0844 204.042 29.395 204.327 28.7984C204.615 28.1985 205.016 27.7312 205.53 27.3964C206.047 27.0584 206.65 26.8893 207.34 26.8893C207.738 26.8893 208.13 26.9556 208.518 27.0882C208.906 27.2208 209.259 27.4362 209.577 27.7345C209.895 28.0295 210.149 28.4206 210.338 28.9078C210.527 29.395 210.621 29.9949 210.621 30.7075V31.2047H204.735V30.1905H209.428C209.428 29.7596 209.342 29.3751 209.169 29.0371C209 28.699 208.758 28.4322 208.444 28.2366C208.132 28.0411 207.764 27.9433 207.34 27.9433C206.873 27.9433 206.468 28.0593 206.127 28.2913C205.789 28.52 205.529 28.8183 205.346 29.1862C205.164 29.5541 205.073 29.9485 205.073 30.3694V31.0456C205.073 31.6223 205.172 32.1112 205.371 32.5122C205.573 32.9099 205.853 33.2132 206.211 33.422C206.569 33.6275 206.985 33.7302 207.459 33.7302C207.767 33.7302 208.046 33.6871 208.294 33.601C208.546 33.5115 208.763 33.3789 208.946 33.2032C209.128 33.0243 209.269 32.8022 209.368 32.5371L210.502 32.8552C210.382 33.2397 210.182 33.5778 209.9 33.8694C209.618 34.1578 209.27 34.3832 208.856 34.5456C208.442 34.7047 207.976 34.7842 207.459 34.7842ZM212.406 37.4888V26.9888H213.539V28.2018H213.679C213.765 28.0693 213.884 27.9002 214.037 27.6947C214.192 27.4859 214.414 27.3003 214.703 27.1379C214.994 26.9722 215.389 26.8893 215.886 26.8893C216.529 26.8893 217.096 27.0501 217.586 27.3716C218.077 27.6931 218.46 28.1488 218.735 28.7388C219.01 29.3287 219.147 30.0247 219.147 30.8268C219.147 31.6355 219.01 32.3365 218.735 32.9298C218.46 33.5198 218.078 33.9772 217.591 34.302C217.104 34.6235 216.542 34.7842 215.906 34.7842C215.415 34.7842 215.023 34.703 214.728 34.5406C214.433 34.3749 214.206 34.1876 214.047 33.9788C213.887 33.7667 213.765 33.591 213.679 33.4518H213.579V37.4888H212.406ZM213.559 30.8069C213.559 31.3836 213.644 31.8924 213.813 32.3332C213.982 32.7707 214.229 33.1138 214.554 33.3623C214.878 33.6076 215.276 33.7302 215.747 33.7302C216.237 33.7302 216.647 33.601 216.975 33.3425C217.306 33.0806 217.555 32.7293 217.721 32.2885C217.89 31.8443 217.974 31.3505 217.974 30.8069C217.974 30.27 217.891 29.7861 217.725 29.3552C217.563 28.9211 217.316 28.578 216.985 28.3261C216.657 28.0709 216.244 27.9433 215.747 27.9433C215.27 27.9433 214.868 28.0643 214.544 28.3062C214.219 28.5449 213.974 28.8796 213.808 29.3105C213.642 29.738 213.559 30.2369 213.559 30.8069ZM222.11 24.4433V34.6251H220.937V24.4433H222.11ZM227.362 34.7842C226.672 34.7842 226.067 34.6202 225.547 34.292C225.03 33.9639 224.626 33.5049 224.334 32.9149C224.046 32.3249 223.901 31.6355 223.901 30.8467C223.901 30.0513 224.046 29.3569 224.334 28.7636C224.626 28.1703 225.03 27.7096 225.547 27.3815C226.067 27.0534 226.672 26.8893 227.362 26.8893C228.051 26.8893 228.654 27.0534 229.171 27.3815C229.692 27.7096 230.096 28.1703 230.384 28.7636C230.676 29.3569 230.822 30.0513 230.822 30.8467C230.822 31.6355 230.676 32.3249 230.384 32.9149C230.096 33.5049 229.692 33.9639 229.171 34.292C228.654 34.6202 228.051 34.7842 227.362 34.7842ZM227.362 33.7302C227.885 33.7302 228.316 33.596 228.654 33.3275C228.992 33.0591 229.243 32.7061 229.405 32.2686C229.567 31.8311 229.649 31.3571 229.649 30.8467C229.649 30.3363 229.567 29.8607 229.405 29.4199C229.243 28.9791 228.992 28.6228 228.654 28.351C228.316 28.0792 227.885 27.9433 227.362 27.9433C226.838 27.9433 226.407 28.0792 226.069 28.351C225.731 28.6228 225.481 28.9791 225.318 29.4199C225.156 29.8607 225.075 30.3363 225.075 30.8467C225.075 31.3571 225.156 31.8311 225.318 32.2686C225.481 32.7061 225.731 33.0591 226.069 33.3275C226.407 33.596 226.838 33.7302 227.362 33.7302ZM233.095 37.4888C232.896 37.4888 232.719 37.4722 232.563 37.439C232.407 37.4092 232.3 37.3794 232.24 37.3496L232.538 36.3155C232.823 36.3884 233.075 36.4149 233.294 36.395C233.513 36.3751 233.707 36.2773 233.876 36.1017C234.048 35.9293 234.205 35.6493 234.348 35.2615L234.567 34.6649L231.743 26.9888H233.016L235.124 33.074H235.203L237.311 26.9888H238.584L235.342 35.7388C235.196 36.1332 235.016 36.4596 234.8 36.7182C234.585 36.98 234.335 37.1739 234.05 37.2998C233.768 37.4258 233.45 37.4888 233.095 37.4888Z" fill="white"/>
<path d="M313.583 59.8583L314.377 59.1064L319.631 64.6484L318.837 65.4003L316.634 63.0767L310.034 69.3245L309.186 68.4297L315.786 62.1819L313.583 59.8583ZM314.762 74.5429C314.256 74.0089 313.937 73.4366 313.806 72.826C313.679 72.2156 313.73 71.6041 313.957 70.9915C314.19 70.3791 314.59 69.804 315.158 69.2663C315.726 68.7285 316.325 68.358 316.954 68.1547C317.588 67.9516 318.203 67.9214 318.8 68.0641C319.401 68.2069 319.939 68.5285 320.413 69.0288C320.687 69.3174 320.909 69.648 321.079 70.0206C321.25 70.3932 321.336 70.7975 321.338 71.2334C321.343 71.6671 321.234 72.12 321.01 72.5921C320.786 73.0641 320.415 73.5451 319.898 74.035L319.537 74.3768L315.487 70.1048L316.224 69.4076L319.452 72.8136C319.765 72.5174 319.985 72.1905 320.112 71.833C320.241 71.478 320.269 71.1189 320.194 70.756C320.122 70.3955 319.94 70.0612 319.648 69.7534C319.326 69.4142 318.964 69.2005 318.56 69.1122C318.162 69.0241 317.766 69.0404 317.374 69.161C316.981 69.2816 316.632 69.4866 316.326 69.776L315.835 70.2408C315.416 70.6373 315.13 71.0455 314.975 71.4655C314.825 71.8857 314.798 72.2974 314.893 72.7008C314.99 73.1018 315.201 73.4743 315.527 73.8183C315.739 74.042 315.962 74.2144 316.196 74.3356C316.434 74.4569 316.68 74.5233 316.933 74.5348C317.188 74.5441 317.446 74.4936 317.707 74.3835L318.256 75.4249C317.895 75.6026 317.511 75.6895 317.106 75.6855C316.702 75.6793 316.299 75.5817 315.896 75.3927C315.496 75.2014 315.118 74.9181 314.762 74.5429ZM326.306 77.875L325.364 77.3152C325.446 77.1463 325.502 76.958 325.534 76.7503C325.57 76.5427 325.552 76.3219 325.481 76.088C325.41 75.854 325.257 75.6132 325.023 75.3654C324.701 75.0262 324.355 74.8177 323.984 74.7397C323.618 74.6618 323.316 74.7356 323.077 74.9612C322.866 75.1617 322.771 75.3971 322.795 75.6672C322.818 75.9374 322.943 76.2747 323.172 76.6793L323.749 77.6934C324.099 78.3028 324.265 78.8463 324.247 79.324C324.232 79.7993 324.03 80.2204 323.643 80.5873C323.325 80.888 322.955 81.0655 322.531 81.1197C322.11 81.1762 321.673 81.1105 321.221 80.9225C320.768 80.7345 320.338 80.4252 319.93 79.9946C319.394 79.4294 319.073 78.8453 318.968 78.2425C318.862 77.6396 318.998 77.0656 319.377 76.5204L320.345 77.1372C320.119 77.4967 320.034 77.8541 320.087 78.2095C320.143 78.5672 320.337 78.9205 320.667 79.2693C321.043 79.6662 321.426 79.9015 321.816 79.9754C322.21 80.0493 322.527 79.9735 322.765 79.7479C322.958 79.5656 323.055 79.3456 323.057 79.0879C323.062 78.8279 322.965 78.5276 322.765 78.187L322.106 77.0583C321.745 76.4368 321.578 75.8874 321.605 75.41C321.637 74.9328 321.844 74.513 322.227 74.1507C322.54 73.8545 322.9 73.6803 323.307 73.628C323.716 73.5782 324.135 73.641 324.561 73.8167C324.99 73.9947 325.39 74.2785 325.759 74.6682C326.279 75.2166 326.567 75.7611 326.623 76.3016C326.681 76.8446 326.575 77.3691 326.306 77.875ZM331.143 80.4923L330.421 81.1758L327.698 78.3038L328.421 77.6203L331.143 80.4923ZM330.543 77.1996L331.35 78.0511L326.064 83.0548C325.824 83.2826 325.676 83.4884 325.622 83.6721C325.572 83.8559 325.58 84.0225 325.644 84.1719C325.712 84.3214 325.806 84.4587 325.924 84.5837C326.013 84.6775 326.091 84.75 326.158 84.801C326.227 84.8497 326.282 84.8887 326.323 84.918L325.722 85.8157C325.646 85.7785 325.548 85.7184 325.428 85.6355C325.306 85.5549 325.17 85.4352 325.019 85.2764C324.791 85.0359 324.619 84.7511 324.504 84.4223C324.391 84.0958 324.368 83.7565 324.437 83.4045C324.507 83.0548 324.703 82.7273 325.026 82.422L330.543 77.1996Z" fill="white"/>
<path d="M337.055 221.921L336.158 224.933L326.398 222.033L327.334 218.888C327.616 217.941 328.052 217.189 328.644 216.632C329.232 216.073 329.943 215.723 330.777 215.58C331.608 215.436 332.529 215.514 333.539 215.815C334.556 216.117 335.377 216.558 336.004 217.138C336.627 217.717 337.032 218.412 337.22 219.221C337.405 220.03 337.349 220.93 337.055 221.921ZM335.462 223.439L335.983 221.686C336.224 220.879 336.267 220.164 336.113 219.541C335.96 218.918 335.634 218.391 335.137 217.959C334.639 217.528 333.993 217.194 333.199 216.958C332.411 216.724 331.695 216.651 331.049 216.74C330.401 216.827 329.848 217.081 329.391 217.502C328.93 217.922 328.587 218.513 328.36 219.275L327.798 221.162L335.462 223.439ZM340.049 212.417C339.839 213.122 339.502 213.684 339.038 214.103C338.573 214.518 338.017 214.78 337.373 214.89C336.726 214.995 336.028 214.936 335.278 214.713C334.528 214.49 333.908 214.157 333.417 213.714C332.925 213.267 332.591 212.749 332.417 212.162C332.24 211.57 332.25 210.944 332.447 210.283C332.56 209.902 332.736 209.544 332.973 209.21C333.211 208.876 333.518 208.599 333.895 208.379C334.268 208.158 334.716 208.027 335.237 207.984C335.757 207.942 336.359 208.022 337.042 208.225L337.519 208.367L335.84 214.009L334.868 213.72L336.207 209.222C335.794 209.099 335.4 209.072 335.027 209.141C334.655 209.207 334.33 209.363 334.053 209.609C333.777 209.852 333.578 210.176 333.457 210.583C333.324 211.031 333.32 211.452 333.445 211.845C333.567 212.234 333.779 212.568 334.08 212.848C334.38 213.127 334.733 213.327 335.136 213.447L335.784 213.64C336.337 213.804 336.834 213.848 337.275 213.771C337.714 213.691 338.085 213.509 338.387 213.225C338.686 212.941 338.903 212.571 339.038 212.117C339.126 211.822 339.164 211.542 339.153 211.28C339.139 211.013 339.073 210.767 338.957 210.542C338.837 210.316 338.665 210.118 338.439 209.947L339.067 208.951C339.402 209.175 339.669 209.464 339.868 209.817C340.064 210.169 340.181 210.567 340.218 211.01C340.253 211.453 340.196 211.922 340.049 212.417ZM335.701 199.693L342.216 204.575L341.876 205.719L333.75 206.25L334.113 205.03L340.548 204.743L340.57 204.667L335.338 200.913L335.701 199.693ZM344.451 197.623C344.241 198.328 343.904 198.89 343.441 199.309C342.975 199.724 342.42 199.986 341.775 200.095C341.128 200.2 340.43 200.141 339.68 199.919C338.93 199.696 338.31 199.363 337.82 198.92C337.327 198.472 336.993 197.955 336.819 197.367C336.642 196.775 336.652 196.149 336.849 195.488C336.962 195.107 337.138 194.75 337.376 194.416C337.613 194.082 337.92 193.805 338.297 193.585C338.671 193.364 339.118 193.232 339.639 193.19C340.16 193.148 340.762 193.228 341.445 193.431L341.921 193.573L340.243 199.214L339.27 198.926L340.609 194.427C340.196 194.305 339.803 194.278 339.429 194.346C339.057 194.412 338.732 194.568 338.455 194.814C338.179 195.057 337.98 195.382 337.859 195.789C337.726 196.236 337.722 196.657 337.847 197.05C337.97 197.439 338.181 197.774 338.482 198.053C338.783 198.333 339.135 198.533 339.538 198.652L340.186 198.845C340.739 199.009 341.236 199.053 341.677 198.977C342.116 198.896 342.487 198.714 342.789 198.431C343.088 198.146 343.305 197.777 343.44 197.322C343.528 197.027 343.566 196.748 343.555 196.485C343.541 196.218 343.476 195.972 343.359 195.748C343.24 195.522 343.067 195.324 342.841 195.153L343.469 194.157C343.804 194.381 344.071 194.669 344.27 195.022C344.466 195.375 344.583 195.772 344.62 196.216C344.655 196.658 344.598 197.127 344.451 197.623ZM336.284 188.811L346.044 191.712L345.709 192.836L335.949 189.936L336.284 188.811ZM347.694 186.724C347.497 187.384 347.168 187.917 346.705 188.323C346.243 188.725 345.687 188.982 345.039 189.093C344.391 189.202 343.689 189.143 342.933 188.919C342.17 188.692 341.546 188.356 341.059 187.911C340.574 187.462 340.247 186.943 340.08 186.354C339.914 185.762 339.929 185.136 340.126 184.475C340.323 183.814 340.652 183.283 341.114 182.881C341.577 182.475 342.134 182.219 342.785 182.112C343.437 182.001 344.144 182.059 344.906 182.286C345.663 182.51 346.282 182.846 346.764 183.294C347.247 183.738 347.572 184.257 347.738 184.849C347.905 185.438 347.891 186.063 347.694 186.724ZM346.684 186.423C346.833 185.922 346.827 185.47 346.666 185.07C346.505 184.669 346.238 184.329 345.865 184.049C345.492 183.768 345.061 183.556 344.572 183.41C344.082 183.265 343.603 183.207 343.135 183.237C342.666 183.267 342.253 183.406 341.896 183.652C341.539 183.899 341.286 184.273 341.136 184.775C340.987 185.277 340.994 185.729 341.158 186.13C341.323 186.532 341.593 186.873 341.969 187.154C342.345 187.435 342.778 187.649 343.267 187.794C343.757 187.939 344.234 187.997 344.7 187.966C345.165 187.935 345.575 187.795 345.929 187.548C346.283 187.3 346.534 186.925 346.684 186.423ZM351.784 182.461L341.719 179.47L342.042 178.384L343.205 178.729L343.245 178.596C343.142 178.475 343.014 178.313 342.861 178.108C342.705 177.899 342.591 177.634 342.517 177.311C342.441 176.984 342.474 176.583 342.616 176.106C342.8 175.49 343.115 174.993 343.563 174.614C344.012 174.235 344.558 173.998 345.202 173.903C345.846 173.807 346.552 173.873 347.321 174.102C348.096 174.332 348.729 174.664 349.219 175.096C349.706 175.528 350.036 176.024 350.208 176.583C350.377 177.142 350.371 177.726 350.19 178.336C350.05 178.806 349.86 179.159 349.62 179.396C349.377 179.631 349.133 179.796 348.887 179.889C348.639 179.981 348.435 180.048 348.277 180.091L348.249 180.186L352.119 181.336L351.784 182.461ZM345.708 179.452C346.261 179.616 346.773 179.68 347.243 179.644C347.711 179.607 348.11 179.468 348.441 179.227C348.769 178.986 349 178.639 349.134 178.188C349.274 177.718 349.267 177.289 349.113 176.901C348.956 176.509 348.69 176.17 348.315 175.886C347.937 175.597 347.488 175.376 346.967 175.221C346.452 175.068 345.965 175.009 345.505 175.046C345.042 175.078 344.643 175.216 344.307 175.462C343.969 175.704 343.729 176.063 343.587 176.54C343.451 176.997 343.452 177.416 343.592 177.796C343.728 178.176 343.979 178.506 344.344 178.788C344.707 179.068 345.162 179.29 345.708 179.452ZM352.538 170.445C352.328 171.15 351.991 171.712 351.528 172.131C351.062 172.546 350.507 172.808 349.862 172.917C349.215 173.022 348.517 172.964 347.767 172.741C347.017 172.518 346.397 172.185 345.907 171.742C345.414 171.295 345.08 170.777 344.906 170.189C344.729 169.598 344.739 168.971 344.936 168.311C345.049 167.929 345.225 167.572 345.463 167.238C345.7 166.904 346.007 166.627 346.384 166.407C346.758 166.186 347.205 166.054 347.726 166.012C348.247 165.97 348.849 166.05 349.532 166.253L350.008 166.395L348.33 172.037L347.357 171.748L348.696 167.249C348.283 167.127 347.89 167.1 347.517 167.169C347.144 167.234 346.819 167.39 346.542 167.636C346.266 167.879 346.067 168.204 345.946 168.611C345.813 169.059 345.809 169.479 345.934 169.873C346.057 170.262 346.268 170.596 346.569 170.876C346.87 171.155 347.222 171.355 347.625 171.475L348.273 171.667C348.826 171.832 349.323 171.875 349.764 171.799C350.203 171.719 350.574 171.537 350.876 171.253C351.175 170.968 351.392 170.599 351.528 170.145C351.615 169.849 351.654 169.57 351.642 169.307C351.628 169.04 351.563 168.795 351.446 168.57C351.327 168.344 351.154 168.146 350.928 167.975L351.557 166.979C351.891 167.203 352.158 167.492 352.357 167.845C352.553 168.197 352.67 168.595 352.708 169.038C352.742 169.48 352.685 169.949 352.538 170.445Z" fill="white"/>
<path d="M63.1021 278.33V268.149H66.5424C67.3412 268.149 67.9941 268.293 68.5012 268.581C69.0117 268.866 69.3895 269.252 69.6348 269.739C69.88 270.227 70.0027 270.77 70.0027 271.37C70.0027 271.97 69.88 272.515 69.6348 273.006C69.3928 273.496 69.0183 273.887 68.5112 274.179C68.0041 274.467 67.3545 274.612 66.5623 274.612H64.0964V273.518H66.5225C67.0694 273.518 67.5086 273.423 67.84 273.234C68.1715 273.046 68.4118 272.79 68.5609 272.469C68.7134 272.144 68.7896 271.778 68.7896 271.37C68.7896 270.962 68.7134 270.598 68.5609 270.276C68.4118 269.955 68.1698 269.703 67.835 269.521C67.5003 269.335 67.0562 269.242 66.5027 269.242H64.335V278.33H63.1021ZM73.003 268.149V278.33H71.8297V268.149H73.003ZM77.3991 278.509C76.9152 278.509 76.4761 278.418 76.0817 278.236C75.6873 278.05 75.3741 277.783 75.142 277.435C74.91 277.084 74.794 276.66 74.794 276.163C74.794 275.725 74.8802 275.371 75.0526 275.099C75.2249 274.824 75.4553 274.608 75.7436 274.452C76.032 274.297 76.3501 274.181 76.6982 274.104C77.0495 274.025 77.4025 273.962 77.7571 273.916C78.2211 273.856 78.5973 273.811 78.8857 273.781C79.1773 273.748 79.3894 273.693 79.522 273.617C79.6579 273.541 79.7259 273.408 79.7259 273.22V273.18C79.7259 272.689 79.5916 272.308 79.3232 272.036C79.058 271.765 78.6553 271.629 78.1151 271.629C77.5549 271.629 77.1158 271.751 76.7976 271.997C76.4794 272.242 76.2557 272.504 76.1264 272.782L75.0128 272.384C75.2116 271.92 75.4768 271.559 75.8082 271.3C76.143 271.039 76.5076 270.856 76.902 270.754C77.2997 270.648 77.6908 270.595 78.0753 270.595C78.3205 270.595 78.6023 270.624 78.9205 270.684C79.242 270.74 79.5518 270.858 79.8501 271.037C80.1518 271.216 80.402 271.486 80.6009 271.847C80.7997 272.209 80.8991 272.693 80.8991 273.299V278.33H79.7259V277.296H79.6662C79.5866 277.462 79.4541 277.639 79.2685 277.828C79.0829 278.017 78.8359 278.178 78.5277 278.31C78.2195 278.443 77.8433 278.509 77.3991 278.509ZM77.5781 277.455C78.0421 277.455 78.4332 277.364 78.7514 277.182C79.0729 277 79.3149 276.764 79.4773 276.476C79.643 276.188 79.7259 275.884 79.7259 275.566V274.492C79.6761 274.552 79.5668 274.607 79.3977 274.656C79.232 274.703 79.0398 274.744 78.821 274.781C78.6056 274.814 78.3951 274.844 78.1896 274.87C77.9875 274.893 77.8234 274.913 77.6974 274.93C77.3925 274.97 77.1075 275.034 76.8423 275.124C76.5805 275.21 76.3684 275.341 76.206 275.516C76.0469 275.689 75.9673 275.924 75.9673 276.222C75.9673 276.63 76.1181 276.938 76.4197 277.147C76.7247 277.353 77.1108 277.455 77.5781 277.455ZM84.214 273.737V278.33H83.0407V270.694H84.1742V271.887H84.2736C84.4526 271.499 84.7244 271.188 85.089 270.952C85.4535 270.714 85.9242 270.595 86.5009 270.595C87.0179 270.595 87.4703 270.701 87.8581 270.913C88.2459 271.122 88.5475 271.44 88.763 271.867C88.9784 272.291 89.0861 272.828 89.0861 273.478V278.33H87.9128V273.558C87.9128 272.958 87.757 272.49 87.4455 272.156C87.1339 271.818 86.7064 271.649 86.1628 271.649C85.7883 271.649 85.4535 271.73 85.1586 271.892C84.8669 272.055 84.6365 272.291 84.4675 272.603C84.2985 272.915 84.214 273.292 84.214 273.737Z" fill="white"/>
<path d="M403.906 278.33V268.149H405.139V277.237H409.872V278.33H403.906ZM413.869 278.509C413.385 278.509 412.946 278.418 412.552 278.236C412.157 278.05 411.844 277.783 411.612 277.435C411.38 277.084 411.264 276.66 411.264 276.163C411.264 275.725 411.35 275.371 411.523 275.099C411.695 274.824 411.925 274.608 412.214 274.452C412.502 274.297 412.82 274.181 413.168 274.104C413.52 274.025 413.873 273.962 414.227 273.916C414.691 273.856 415.068 273.811 415.356 273.781C415.648 273.748 415.86 273.693 415.992 273.617C416.128 273.541 416.196 273.408 416.196 273.22V273.18C416.196 272.689 416.062 272.308 415.793 272.036C415.528 271.765 415.126 271.629 414.585 271.629C414.025 271.629 413.586 271.751 413.268 271.997C412.95 272.242 412.726 272.504 412.597 272.782L411.483 272.384C411.682 271.92 411.947 271.559 412.278 271.3C412.613 271.039 412.978 270.856 413.372 270.754C413.77 270.648 414.161 270.595 414.545 270.595C414.791 270.595 415.072 270.624 415.391 270.684C415.712 270.74 416.022 270.858 416.32 271.037C416.622 271.216 416.872 271.486 417.071 271.847C417.27 272.209 417.369 272.693 417.369 273.299V278.33H416.196V277.296H416.136C416.057 277.462 415.924 277.639 415.739 277.828C415.553 278.017 415.306 278.178 414.998 278.31C414.69 278.443 414.313 278.509 413.869 278.509ZM414.048 277.455C414.512 277.455 414.903 277.364 415.222 277.182C415.543 277 415.785 276.764 415.947 276.476C416.113 276.188 416.196 275.884 416.196 275.566V274.492C416.146 274.552 416.037 274.607 415.868 274.656C415.702 274.703 415.51 274.744 415.291 274.781C415.076 274.814 414.865 274.844 414.66 274.87C414.458 274.893 414.294 274.913 414.168 274.93C413.863 274.97 413.578 275.034 413.313 275.124C413.051 275.21 412.839 275.341 412.676 275.516C412.517 275.689 412.438 275.924 412.438 276.222C412.438 276.63 412.588 276.938 412.89 277.147C413.195 277.353 413.581 277.455 414.048 277.455ZM424.323 275.208V270.694H425.497V278.33H424.323V277.038H424.244C424.065 277.425 423.786 277.755 423.409 278.027C423.031 278.296 422.553 278.43 421.977 278.43C421.5 278.43 421.075 278.325 420.704 278.117C420.333 277.904 420.041 277.586 419.829 277.162C419.617 276.734 419.511 276.196 419.511 275.546V270.694H420.684V275.467C420.684 276.024 420.84 276.468 421.152 276.799C421.466 277.131 421.867 277.296 422.355 277.296C422.646 277.296 422.943 277.222 423.245 277.073C423.549 276.923 423.805 276.695 424.01 276.386C424.219 276.078 424.323 275.685 424.323 275.208ZM428.819 273.737V278.33H427.646V270.694H428.779V271.887H428.879C429.058 271.499 429.329 271.188 429.694 270.952C430.059 270.714 430.529 270.595 431.106 270.595C431.623 270.595 432.075 270.701 432.463 270.913C432.851 271.122 433.153 271.44 433.368 271.867C433.583 272.291 433.691 272.828 433.691 273.478V278.33H432.518V273.558C432.518 272.958 432.362 272.49 432.05 272.156C431.739 271.818 431.311 271.649 430.768 271.649C430.393 271.649 430.059 271.73 429.764 271.892C429.472 272.055 429.242 272.291 429.072 272.603C428.903 272.915 428.819 273.292 428.819 273.737ZM438.937 278.489C438.221 278.489 437.605 278.32 437.088 277.982C436.571 277.644 436.173 277.179 435.895 276.585C435.616 275.992 435.477 275.314 435.477 274.552C435.477 273.776 435.62 273.092 435.905 272.499C436.193 271.902 436.594 271.436 437.108 271.102C437.625 270.764 438.228 270.595 438.917 270.595C439.454 270.595 439.938 270.694 440.369 270.893C440.8 271.092 441.153 271.37 441.428 271.728C441.703 272.086 441.874 272.504 441.94 272.981H440.767C440.677 272.633 440.479 272.325 440.17 272.056C439.865 271.784 439.454 271.649 438.937 271.649C438.48 271.649 438.079 271.768 437.734 272.006C437.393 272.242 437.126 272.575 436.934 273.006C436.745 273.433 436.65 273.935 436.65 274.512C436.65 275.102 436.743 275.616 436.929 276.053C437.118 276.491 437.383 276.831 437.724 277.073C438.069 277.314 438.473 277.435 438.937 277.435C439.242 277.435 439.519 277.382 439.768 277.276C440.016 277.17 440.227 277.018 440.399 276.819C440.571 276.62 440.694 276.381 440.767 276.103H441.94C441.874 276.554 441.71 276.96 441.448 277.321C441.189 277.679 440.846 277.964 440.419 278.176C439.995 278.385 439.501 278.489 438.937 278.489ZM444.829 273.737V278.33H443.655V268.149H444.829V271.887H444.928C445.107 271.493 445.376 271.18 445.734 270.948C446.095 270.712 446.575 270.595 447.175 270.595C447.696 270.595 448.151 270.699 448.542 270.908C448.934 271.113 449.237 271.43 449.452 271.857C449.671 272.282 449.78 272.822 449.78 273.478V278.33H448.607V273.558C448.607 272.951 448.45 272.482 448.135 272.151C447.823 271.816 447.391 271.649 446.837 271.649C446.453 271.649 446.108 271.73 445.803 271.892C445.502 272.055 445.263 272.291 445.087 272.603C444.915 272.915 444.829 273.292 444.829 273.737Z" fill="white"/>
<path d="M216.075 278.33H212.933V268.149H216.214C217.202 268.149 218.047 268.352 218.75 268.76C219.453 269.164 219.991 269.746 220.366 270.505C220.74 271.261 220.927 272.166 220.927 273.22C220.927 274.28 220.739 275.193 220.361 275.959C219.983 276.721 219.433 277.308 218.71 277.719C217.988 278.126 217.109 278.33 216.075 278.33ZM214.166 277.237H215.996C216.838 277.237 217.535 277.074 218.089 276.749C218.642 276.425 219.055 275.962 219.327 275.362C219.598 274.762 219.734 274.048 219.734 273.22C219.734 272.398 219.6 271.69 219.332 271.097C219.063 270.5 218.662 270.043 218.128 269.724C217.595 269.403 216.93 269.242 216.135 269.242H214.166V277.237ZM226.038 278.489C225.302 278.489 224.668 278.327 224.134 278.002C223.604 277.674 223.195 277.217 222.906 276.63C222.621 276.04 222.479 275.354 222.479 274.572C222.479 273.79 222.621 273.1 222.906 272.504C223.195 271.904 223.596 271.436 224.109 271.102C224.626 270.764 225.23 270.595 225.919 270.595C226.317 270.595 226.709 270.661 227.097 270.793C227.485 270.926 227.838 271.141 228.156 271.44C228.474 271.735 228.728 272.126 228.917 272.613C229.106 273.1 229.2 273.7 229.2 274.413V274.91H223.314V273.896H228.007C228.007 273.465 227.921 273.08 227.748 272.742C227.579 272.404 227.338 272.137 227.023 271.942C226.711 271.746 226.343 271.649 225.919 271.649C225.452 271.649 225.047 271.765 224.706 271.997C224.368 272.225 224.108 272.524 223.925 272.891C223.743 273.259 223.652 273.654 223.652 274.075V274.751C223.652 275.327 223.751 275.816 223.95 276.217C224.152 276.615 224.432 276.918 224.79 277.127C225.148 277.333 225.564 277.435 226.038 277.435C226.347 277.435 226.625 277.392 226.873 277.306C227.125 277.217 227.342 277.084 227.525 276.908C227.707 276.729 227.848 276.507 227.947 276.242L229.081 276.56C228.962 276.945 228.761 277.283 228.479 277.575C228.198 277.863 227.85 278.088 227.435 278.251C227.021 278.41 226.555 278.489 226.038 278.489ZM236.394 272.404L235.34 272.702C235.274 272.527 235.176 272.356 235.047 272.19C234.921 272.021 234.748 271.882 234.53 271.773C234.311 271.663 234.031 271.609 233.69 271.609C233.222 271.609 232.833 271.716 232.521 271.932C232.213 272.144 232.059 272.414 232.059 272.742C232.059 273.034 232.165 273.264 232.377 273.433C232.589 273.602 232.921 273.743 233.371 273.856L234.505 274.134C235.188 274.3 235.696 274.554 236.031 274.895C236.366 275.233 236.533 275.669 236.533 276.202C236.533 276.64 236.407 277.031 236.155 277.376C235.907 277.72 235.559 277.992 235.111 278.191C234.664 278.39 234.144 278.489 233.55 278.489C232.771 278.489 232.127 278.32 231.616 277.982C231.106 277.644 230.783 277.15 230.647 276.501L231.761 276.222C231.867 276.633 232.067 276.942 232.362 277.147C232.66 277.353 233.05 277.455 233.53 277.455C234.077 277.455 234.512 277.339 234.833 277.107C235.158 276.872 235.32 276.59 235.32 276.262C235.32 275.997 235.227 275.775 235.042 275.596C234.856 275.414 234.571 275.278 234.187 275.188L232.914 274.89C232.215 274.724 231.701 274.467 231.373 274.119C231.048 273.768 230.886 273.329 230.886 272.802C230.886 272.371 231.007 271.99 231.248 271.658C231.494 271.327 231.827 271.067 232.248 270.878C232.672 270.689 233.153 270.595 233.69 270.595C234.445 270.595 235.039 270.76 235.469 271.092C235.904 271.423 236.212 271.861 236.394 272.404ZM238.299 278.33V270.694H239.473V278.33H238.299ZM238.896 269.421C238.667 269.421 238.47 269.343 238.304 269.188C238.142 269.032 238.061 268.845 238.061 268.626C238.061 268.407 238.142 268.22 238.304 268.064C238.47 267.908 238.667 267.83 238.896 267.83C239.125 267.83 239.32 267.908 239.483 268.064C239.648 268.22 239.731 268.407 239.731 268.626C239.731 268.845 239.648 269.032 239.483 269.188C239.32 269.343 239.125 269.421 238.896 269.421ZM244.704 281.353C244.137 281.353 243.65 281.28 243.242 281.134C242.835 280.992 242.495 280.803 242.223 280.568C241.955 280.336 241.741 280.087 241.582 279.822L242.517 279.166C242.623 279.305 242.757 279.464 242.919 279.643C243.082 279.825 243.304 279.983 243.585 280.115C243.871 280.251 244.243 280.319 244.704 280.319C245.321 280.319 245.829 280.17 246.23 279.872C246.631 279.573 246.832 279.106 246.832 278.47V276.918H246.733C246.646 277.058 246.524 277.23 246.365 277.435C246.209 277.638 245.983 277.818 245.688 277.977C245.397 278.133 245.002 278.211 244.505 278.211C243.889 278.211 243.335 278.065 242.845 277.774C242.358 277.482 241.971 277.058 241.686 276.501C241.405 275.944 241.264 275.268 241.264 274.472C241.264 273.69 241.401 273.009 241.676 272.429C241.951 271.846 242.334 271.395 242.825 271.077C243.315 270.755 243.882 270.595 244.525 270.595C245.022 270.595 245.417 270.677 245.708 270.843C246.003 271.006 246.229 271.191 246.384 271.4C246.544 271.605 246.666 271.774 246.752 271.907H246.872V270.694H248.005V278.549C248.005 279.205 247.856 279.739 247.558 280.15C247.263 280.564 246.865 280.867 246.365 281.06C245.867 281.255 245.314 281.353 244.704 281.353ZM244.664 277.157C245.135 277.157 245.533 277.049 245.858 276.834C246.182 276.618 246.429 276.309 246.598 275.904C246.767 275.5 246.852 275.016 246.852 274.452C246.852 273.902 246.769 273.417 246.603 272.996C246.438 272.575 246.192 272.245 245.867 272.006C245.543 271.768 245.142 271.649 244.664 271.649C244.167 271.649 243.753 271.774 243.421 272.026C243.093 272.278 242.846 272.616 242.681 273.041C242.518 273.465 242.437 273.935 242.437 274.452C242.437 274.983 242.52 275.452 242.686 275.859C242.855 276.264 243.103 276.582 243.431 276.814C243.763 277.043 244.174 277.157 244.664 277.157ZM251.326 273.737V278.33H250.153V270.694H251.286V271.887H251.386C251.565 271.499 251.837 271.188 252.201 270.952C252.566 270.714 253.036 270.595 253.613 270.595C254.13 270.595 254.583 270.701 254.97 270.913C255.358 271.122 255.66 271.44 255.875 271.867C256.091 272.291 256.198 272.828 256.198 273.478V278.33H255.025V273.558C255.025 272.958 254.869 272.49 254.558 272.156C254.246 271.818 253.819 271.649 253.275 271.649C252.901 271.649 252.566 271.73 252.271 271.892C251.979 272.055 251.749 272.291 251.58 272.603C251.411 272.915 251.326 273.292 251.326 273.737Z" fill="white"/>
<path d="M212.034 144.237H210.741L214.48 134.055H215.753L219.491 144.237H218.199L215.156 135.666H215.076L212.034 144.237ZM212.511 140.26H217.721V141.353H212.511V140.26ZM224 147.26C223.434 147.26 222.947 147.187 222.539 147.041C222.131 146.898 221.791 146.709 221.52 146.474C221.251 146.242 221.037 145.994 220.878 145.728L221.813 145.072C221.919 145.211 222.053 145.37 222.216 145.549C222.378 145.732 222.6 145.889 222.882 146.022C223.167 146.158 223.54 146.226 224 146.226C224.617 146.226 225.126 146.076 225.527 145.778C225.928 145.48 226.128 145.013 226.128 144.376V142.825H226.029C225.943 142.964 225.82 143.137 225.661 143.342C225.505 143.544 225.28 143.725 224.985 143.884C224.693 144.04 224.299 144.118 223.802 144.118C223.185 144.118 222.632 143.972 222.141 143.68C221.654 143.388 221.268 142.964 220.983 142.407C220.701 141.851 220.56 141.174 220.56 140.379C220.56 139.597 220.698 138.916 220.973 138.336C221.248 137.752 221.631 137.302 222.121 136.983C222.612 136.662 223.179 136.501 223.822 136.501C224.319 136.501 224.713 136.584 225.005 136.75C225.3 136.912 225.525 137.098 225.681 137.307C225.84 137.512 225.963 137.681 226.049 137.814H226.168V136.601H227.302V144.456C227.302 145.112 227.152 145.646 226.854 146.057C226.559 146.471 226.161 146.774 225.661 146.966C225.164 147.162 224.61 147.26 224 147.26ZM223.961 143.064C224.431 143.064 224.829 142.956 225.154 142.74C225.479 142.525 225.726 142.215 225.895 141.811C226.064 141.406 226.148 140.923 226.148 140.359C226.148 139.809 226.065 139.323 225.9 138.902C225.734 138.481 225.489 138.152 225.164 137.913C224.839 137.674 224.438 137.555 223.961 137.555C223.464 137.555 223.049 137.681 222.718 137.933C222.39 138.185 222.143 138.523 221.977 138.947C221.815 139.371 221.733 139.842 221.733 140.359C221.733 140.889 221.816 141.358 221.982 141.766C222.151 142.17 222.4 142.489 222.728 142.721C223.059 142.949 223.47 143.064 223.961 143.064ZM229.449 144.237V136.601H230.623V144.237H229.449ZM230.046 135.328C229.817 135.328 229.62 135.25 229.454 135.094C229.292 134.938 229.211 134.751 229.211 134.532C229.211 134.314 229.292 134.126 229.454 133.971C229.62 133.815 229.817 133.737 230.046 133.737C230.275 133.737 230.47 133.815 230.633 133.971C230.798 134.126 230.881 134.314 230.881 134.532C230.881 134.751 230.798 134.938 230.633 135.094C230.47 135.25 230.275 135.328 230.046 135.328ZM233.945 134.055V144.237H232.772V134.055H233.945ZM239.296 144.396C238.56 144.396 237.925 144.234 237.391 143.909C236.861 143.581 236.452 143.123 236.163 142.537C235.878 141.947 235.736 141.261 235.736 140.478C235.736 139.696 235.878 139.007 236.163 138.41C236.452 137.81 236.853 137.343 237.367 137.008C237.884 136.67 238.487 136.501 239.176 136.501C239.574 136.501 239.967 136.567 240.355 136.7C240.742 136.833 241.095 137.048 241.413 137.346C241.732 137.641 241.985 138.032 242.174 138.52C242.363 139.007 242.458 139.607 242.458 140.319V140.816H236.571V139.802H241.264C241.264 139.371 241.178 138.987 241.006 138.649C240.837 138.311 240.595 138.044 240.28 137.848C239.968 137.653 239.601 137.555 239.176 137.555C238.709 137.555 238.305 137.671 237.963 137.903C237.625 138.132 237.365 138.43 237.183 138.798C237 139.166 236.909 139.56 236.909 139.981V140.657C236.909 141.234 237.009 141.723 237.208 142.124C237.41 142.522 237.69 142.825 238.048 143.034C238.406 143.239 238.822 143.342 239.296 143.342C239.604 143.342 239.882 143.299 240.131 143.213C240.383 143.123 240.6 142.991 240.782 142.815C240.964 142.636 241.105 142.414 241.205 142.149L242.338 142.467C242.219 142.852 242.018 143.19 241.737 143.481C241.455 143.77 241.107 143.995 240.693 144.157C240.278 144.316 239.813 144.396 239.296 144.396Z" fill="white"/>
<path d="M184.44 153.877H185.912L189.372 162.328H189.491L192.951 153.877H194.423V164.058H193.27V156.323H193.17L189.988 164.058H188.875L185.693 156.323H185.593V164.058H184.44V153.877ZM199.938 164.218C199.202 164.218 198.567 164.055 198.034 163.73C197.503 163.402 197.094 162.945 196.806 162.358C196.521 161.768 196.378 161.082 196.378 160.3C196.378 159.518 196.521 158.828 196.806 158.232C197.094 157.632 197.495 157.165 198.009 156.83C198.526 156.492 199.129 156.323 199.818 156.323C200.216 156.323 200.609 156.389 200.997 156.522C201.384 156.654 201.737 156.87 202.056 157.168C202.374 157.463 202.627 157.854 202.816 158.341C203.005 158.828 203.1 159.428 203.1 160.141V160.638H197.213V159.624H201.906C201.906 159.193 201.82 158.808 201.648 158.47C201.479 158.132 201.237 157.866 200.922 157.67C200.61 157.474 200.243 157.377 199.818 157.377C199.351 157.377 198.947 157.493 198.605 157.725C198.267 157.953 198.007 158.252 197.825 158.62C197.642 158.987 197.551 159.382 197.551 159.803V160.479C197.551 161.056 197.651 161.545 197.85 161.946C198.052 162.343 198.332 162.647 198.69 162.855C199.048 163.061 199.464 163.164 199.938 163.164C200.246 163.164 200.524 163.12 200.773 163.034C201.025 162.945 201.242 162.812 201.424 162.637C201.606 162.458 201.747 162.236 201.847 161.97L202.98 162.289C202.861 162.673 202.66 163.011 202.379 163.303C202.097 163.591 201.749 163.817 201.335 163.979C200.92 164.138 200.455 164.218 199.938 164.218ZM208.205 156.422V157.416H204.248V156.422H208.205ZM205.401 154.593H206.575V161.871C206.575 162.202 206.623 162.451 206.719 162.617C206.818 162.779 206.944 162.888 207.097 162.945C207.253 162.998 207.417 163.024 207.589 163.024C207.718 163.024 207.824 163.018 207.907 163.004C207.99 162.988 208.056 162.975 208.106 162.965L208.345 164.019C208.265 164.049 208.154 164.078 208.012 164.108C207.869 164.141 207.688 164.158 207.47 164.158C207.138 164.158 206.813 164.087 206.495 163.944C206.18 163.802 205.919 163.585 205.71 163.293C205.504 163.001 205.401 162.633 205.401 162.189V154.593ZM211.308 159.465V164.058H210.134V153.877H211.308V157.615H211.407C211.586 157.221 211.855 156.908 212.213 156.676C212.574 156.44 213.054 156.323 213.654 156.323C214.175 156.323 214.63 156.427 215.021 156.636C215.413 156.841 215.716 157.158 215.931 157.585C216.15 158.01 216.259 158.55 216.259 159.206V164.058H215.086V159.286C215.086 158.679 214.929 158.21 214.614 157.879C214.302 157.544 213.87 157.377 213.316 157.377C212.932 157.377 212.587 157.458 212.282 157.62C211.981 157.783 211.742 158.02 211.566 158.331C211.394 158.643 211.308 159.021 211.308 159.465ZM221.508 164.218C220.819 164.218 220.214 164.054 219.694 163.725C219.176 163.397 218.772 162.938 218.48 162.348C218.192 161.758 218.048 161.069 218.048 160.28C218.048 159.485 218.192 158.79 218.48 158.197C218.772 157.604 219.176 157.143 219.694 156.815C220.214 156.487 220.819 156.323 221.508 156.323C222.198 156.323 222.801 156.487 223.318 156.815C223.838 157.143 224.243 157.604 224.531 158.197C224.823 158.79 224.968 159.485 224.968 160.28C224.968 161.069 224.823 161.758 224.531 162.348C224.243 162.938 223.838 163.397 223.318 163.725C222.801 164.054 222.198 164.218 221.508 164.218ZM221.508 163.164C222.032 163.164 222.463 163.029 222.801 162.761C223.139 162.492 223.389 162.139 223.551 161.702C223.714 161.264 223.795 160.79 223.795 160.28C223.795 159.77 223.714 159.294 223.551 158.853C223.389 158.412 223.139 158.056 222.801 157.784C222.463 157.513 222.032 157.377 221.508 157.377C220.984 157.377 220.554 157.513 220.216 157.784C219.877 158.056 219.627 158.412 219.465 158.853C219.302 159.294 219.221 159.77 219.221 160.28C219.221 160.79 219.302 161.264 219.465 161.702C219.627 162.139 219.877 162.492 220.216 162.761C220.554 163.029 220.984 163.164 221.508 163.164ZM229.643 164.218C229.007 164.218 228.445 164.057 227.958 163.735C227.47 163.411 227.089 162.953 226.814 162.363C226.539 161.77 226.401 161.069 226.401 160.26C226.401 159.458 226.539 158.762 226.814 158.172C227.089 157.582 227.472 157.126 227.963 156.805C228.453 156.483 229.02 156.323 229.663 156.323C230.16 156.323 230.553 156.406 230.841 156.571C231.133 156.734 231.355 156.919 231.507 157.128C231.663 157.334 231.784 157.503 231.87 157.635H231.97V153.877H233.143V164.058H232.009V162.885H231.87C231.784 163.024 231.661 163.2 231.502 163.412C231.343 163.621 231.116 163.808 230.821 163.974C230.526 164.136 230.133 164.218 229.643 164.218ZM229.802 163.164C230.273 163.164 230.67 163.041 230.995 162.796C231.32 162.547 231.567 162.204 231.736 161.767C231.905 161.326 231.99 160.817 231.99 160.24C231.99 159.67 231.907 159.171 231.741 158.744C231.575 158.313 231.33 157.978 231.005 157.74C230.68 157.498 230.279 157.377 229.802 157.377C229.305 157.377 228.891 157.504 228.559 157.759C228.231 158.011 227.984 158.354 227.818 158.789C227.656 159.219 227.575 159.703 227.575 160.24C227.575 160.784 227.658 161.278 227.823 161.722C227.992 162.163 228.241 162.514 228.569 162.776C228.901 163.034 229.311 163.164 229.802 163.164ZM238.557 164.218C237.868 164.218 237.263 164.054 236.742 163.725C236.225 163.397 235.821 162.938 235.529 162.348C235.241 161.758 235.097 161.069 235.097 160.28C235.097 159.485 235.241 158.79 235.529 158.197C235.821 157.604 236.225 157.143 236.742 156.815C237.263 156.487 237.868 156.323 238.557 156.323C239.246 156.323 239.85 156.487 240.367 156.815C240.887 157.143 241.291 157.604 241.58 158.197C241.871 158.79 242.017 159.485 242.017 160.28C242.017 161.069 241.871 161.758 241.58 162.348C241.291 162.938 240.887 163.397 240.367 163.725C239.85 164.054 239.246 164.218 238.557 164.218ZM238.557 163.164C239.081 163.164 239.512 163.029 239.85 162.761C240.188 162.492 240.438 162.139 240.6 161.702C240.763 161.264 240.844 160.79 240.844 160.28C240.844 159.77 240.763 159.294 240.6 158.853C240.438 158.412 240.188 158.056 239.85 157.784C239.512 157.513 239.081 157.377 238.557 157.377C238.033 157.377 237.602 157.513 237.264 157.784C236.926 158.056 236.676 158.412 236.514 158.853C236.351 159.294 236.27 159.77 236.27 160.28C236.27 160.79 236.351 161.264 236.514 161.702C236.676 162.139 236.926 162.492 237.264 162.761C237.602 163.029 238.033 163.164 238.557 163.164ZM244.982 153.877V164.058H243.808V153.877H244.982ZM250.233 164.218C249.543 164.218 248.939 164.054 248.418 163.725C247.901 163.397 247.497 162.938 247.205 162.348C246.917 161.758 246.773 161.069 246.773 160.28C246.773 159.485 246.917 158.79 247.205 158.197C247.497 157.604 247.901 157.143 248.418 156.815C248.939 156.487 249.543 156.323 250.233 156.323C250.922 156.323 251.525 156.487 252.042 156.815C252.563 157.143 252.967 157.604 253.256 158.197C253.547 158.79 253.693 159.485 253.693 160.28C253.693 161.069 253.547 161.758 253.256 162.348C252.967 162.938 252.563 163.397 252.042 163.725C251.525 164.054 250.922 164.218 250.233 164.218ZM250.233 163.164C250.756 163.164 251.187 163.029 251.525 162.761C251.863 162.492 252.114 162.139 252.276 161.702C252.439 161.264 252.52 160.79 252.52 160.28C252.52 159.77 252.439 159.294 252.276 158.853C252.114 158.412 251.863 158.056 251.525 157.784C251.187 157.513 250.756 157.377 250.233 157.377C249.709 157.377 249.278 157.513 248.94 157.784C248.602 158.056 248.352 158.412 248.189 158.853C248.027 159.294 247.946 159.77 247.946 160.28C247.946 160.79 248.027 161.264 248.189 161.702C248.352 162.139 248.602 162.492 248.94 162.761C249.278 163.029 249.709 163.164 250.233 163.164ZM258.566 167.081C258 167.081 257.512 167.008 257.105 166.862C256.697 166.72 256.357 166.531 256.086 166.296C255.817 166.064 255.603 165.815 255.444 165.55L256.379 164.894C256.485 165.033 256.619 165.192 256.782 165.371C256.944 165.553 257.166 165.711 257.448 165.843C257.733 165.979 258.106 166.047 258.566 166.047C259.183 166.047 259.692 165.898 260.093 165.6C260.494 165.301 260.694 164.834 260.694 164.198V162.647H260.595C260.509 162.786 260.386 162.958 260.227 163.164C260.071 163.366 259.846 163.546 259.551 163.705C259.259 163.861 258.865 163.939 258.368 163.939C257.751 163.939 257.198 163.793 256.707 163.502C256.22 163.21 255.834 162.786 255.549 162.229C255.267 161.672 255.126 160.996 255.126 160.201C255.126 159.418 255.264 158.737 255.539 158.157C255.814 157.574 256.197 157.123 256.687 156.805C257.178 156.483 257.744 156.323 258.387 156.323C258.885 156.323 259.279 156.406 259.571 156.571C259.866 156.734 260.091 156.919 260.247 157.128C260.406 157.334 260.529 157.503 260.615 157.635H260.734V156.422H261.868V164.277C261.868 164.933 261.718 165.467 261.42 165.878C261.125 166.292 260.727 166.596 260.227 166.788C259.73 166.983 259.176 167.081 258.566 167.081ZM258.527 162.885C258.997 162.885 259.395 162.777 259.72 162.562C260.045 162.347 260.292 162.037 260.461 161.632C260.63 161.228 260.714 160.744 260.714 160.181C260.714 159.63 260.631 159.145 260.466 158.724C260.3 158.303 260.055 157.973 259.73 157.735C259.405 157.496 259.004 157.377 258.527 157.377C258.029 157.377 257.615 157.503 257.284 157.754C256.956 158.006 256.709 158.344 256.543 158.769C256.381 159.193 256.299 159.664 256.299 160.181C256.299 160.711 256.382 161.18 256.548 161.588C256.717 161.992 256.966 162.31 257.294 162.542C257.625 162.771 258.036 162.885 258.527 162.885ZM264.771 166.922C264.572 166.922 264.395 166.906 264.239 166.872C264.083 166.843 263.975 166.813 263.916 166.783L264.214 165.749C264.499 165.822 264.751 165.848 264.97 165.828C265.189 165.808 265.382 165.711 265.551 165.535C265.724 165.363 265.881 165.083 266.024 164.695L266.243 164.098L263.419 156.422H264.691L266.799 162.507H266.879L268.987 156.422H270.26L267.018 165.172C266.872 165.567 266.692 165.893 266.476 166.152C266.261 166.413 266.011 166.607 265.725 166.733C265.444 166.859 265.126 166.922 264.771 166.922Z" fill="white"/>
</g>
<defs>
<clipPath id="clip0_101_3070">
<rect width="520" height="322" fill="white" transform="translate(0.280273 0.0273438)"/>
</clipPath>
</defs>
</svg>
