<svg width="241" height="47" viewBox="0 0 241 47" fill="none" xmlns="http://www.w3.org/2000/svg">
<path d="M67.6786 14.8984H72.3981V34.8279H67.8831V32.1764H67.8031C66.2832 34.1651 64.1057 35.1551 61.2704 35.1551C58.4352 35.1551 55.991 34.2167 54.1246 32.34C52.2581 30.4632 51.3249 28.0011 51.3249 24.9449C51.3249 21.8888 52.267 19.4783 54.1512 17.5327C56.0355 15.5871 58.3908 14.6143 61.2349 14.6143C64.079 14.6143 66.0521 15.5096 67.5986 17.3089H67.6786V14.8984ZM62.0259 30.9884C63.6524 30.9884 65.0389 30.4288 66.1766 29.3183C67.3142 28.1991 67.8831 26.7614 67.8831 24.988C67.8831 23.2146 67.332 21.7338 66.221 20.5372C65.11 19.3406 63.7146 18.7379 62.0259 18.7379C60.3372 18.7379 58.9329 19.3061 57.813 20.4511C56.6932 21.5961 56.1243 23.1026 56.1243 24.988C56.1243 26.7614 56.6754 28.1991 57.7686 29.3183C58.8618 30.4374 60.2839 30.9884 62.0259 30.9884Z" fill="white"/>
<path d="M91.6227 14.8984H96.3422V32.7876C96.3422 35.9988 95.4978 38.5384 93.8091 40.4065C92.1204 42.2746 89.4629 43.2044 85.8456 43.2044C82.637 43.2044 79.8462 42.5071 77.4554 41.121L78.593 37.1179C79.9173 37.798 81.0727 38.2973 82.0682 38.6072C83.0636 38.9172 84.2368 39.0807 85.5878 39.0807C87.5254 39.0807 89.0274 38.6072 90.1029 37.6689C91.1694 36.7305 91.7027 35.5683 91.7027 34.1737V32.0473H91.6583C90.0318 33.683 87.9342 34.5008 85.3745 34.5008C82.477 34.5008 80.0862 33.5883 78.1842 31.7632C76.291 29.9381 75.34 27.5707 75.34 24.6609C75.34 21.7511 76.2644 19.3406 78.1042 17.4294C79.944 15.5268 82.2815 14.5713 85.1256 14.5713C87.712 14.5713 89.8451 15.3891 91.5338 17.0248H91.6227V14.8984ZM86.0144 30.2911C87.7298 30.2911 89.1252 29.7401 90.2095 28.6382C91.2938 27.5362 91.836 26.1416 91.836 24.4543C91.836 22.7669 91.285 21.4325 90.174 20.3736C89.063 19.3148 87.6765 18.781 86.0233 18.781C84.2813 18.781 82.8681 19.3148 81.7838 20.3909C80.6994 21.467 80.1573 22.8444 80.1573 24.5317C80.1573 26.2191 80.7083 27.674 81.8193 28.7156C82.9303 29.7659 84.3257 30.2911 86.0144 30.2911Z" fill="white"/>
<path d="M105.479 11.0588C104.848 11.6614 104.092 11.9542 103.221 11.9542C102.35 11.9542 101.604 11.6528 100.991 11.0588C100.368 10.4562 100.066 9.74167 100.066 8.898C100.066 8.05433 100.377 7.37423 100.991 6.77161C101.613 6.16898 102.35 5.87628 103.221 5.87628C104.092 5.87628 104.848 6.17759 105.479 6.77161C106.11 7.37423 106.43 8.08015 106.43 8.898C106.43 9.71584 106.11 10.4648 105.479 11.0588ZM100.866 34.8279V14.8984H105.586V34.8279H100.866Z" fill="white"/>
<path d="M110.643 34.8279V4.77432H115.362V34.8279H110.643Z" fill="white"/>
<path d="M138.924 24.6178C138.924 25.1085 138.88 25.7197 138.8 26.4515H123.788C124.099 27.8633 124.775 28.9739 125.815 29.7831C126.854 30.5837 128.134 30.9883 129.654 30.9883C131.787 30.9883 133.503 30.2135 134.8 28.6639L138.089 31.4016C136.089 33.9068 133.2 35.155 129.405 35.155C126.366 35.155 123.859 34.2081 121.877 32.3141C119.895 30.4202 118.909 27.9408 118.909 24.8588C118.909 21.7768 119.86 19.375 121.753 17.4638C123.646 15.5612 126.046 14.6057 128.943 14.6057C131.841 14.6057 134.365 15.5354 136.196 17.4035C138.027 19.2717 138.933 21.6735 138.933 24.6092L138.924 24.6178ZM132.436 19.8226C131.592 19.0995 130.507 18.7379 129.192 18.7379C127.877 18.7379 126.739 19.0909 125.797 19.7968C124.855 20.5027 124.215 21.5014 123.877 22.7755H134.16C133.849 21.5272 133.272 20.5372 132.427 19.814L132.436 19.8226Z" fill="white"/>
<path d="M151.705 35.1551C148.497 35.1551 145.901 34.1909 143.901 32.2539C141.902 30.3169 140.906 27.872 140.906 24.9019C140.906 21.9318 141.902 19.4783 143.901 17.5327C145.901 15.5871 148.497 14.6143 151.705 14.6143C154.914 14.6143 157.473 15.5699 159.482 17.4724C161.491 19.375 162.495 21.8544 162.495 24.9019C162.495 27.9494 161.491 30.3858 159.482 32.2969C157.473 34.1995 154.878 35.1551 151.705 35.1551ZM151.705 30.9884C153.394 30.9884 154.807 30.4202 155.962 29.2752C157.118 28.1302 157.687 26.6753 157.687 24.9019C157.687 23.1285 157.118 21.5961 155.98 20.4511C154.843 19.3061 153.412 18.7379 151.705 18.7379C149.999 18.7379 148.497 19.3233 147.386 20.4942C146.275 21.665 145.724 23.1371 145.724 24.9019C145.724 26.6667 146.283 28.0614 147.412 29.2322C148.532 30.403 149.972 30.9884 151.714 30.9884H151.705Z" fill="white"/>
<path d="M166.415 34.8279V18.781H164.139V14.8984H166.415V11.2654C166.415 9.03574 166.948 7.33979 168.014 6.17759C169.081 5.024 170.627 4.4386 172.654 4.4386C174.68 4.4386 176.334 4.90348 177.8 5.82463L176.742 9.66419C175.249 8.98409 174.112 8.63973 173.329 8.63973C171.872 8.63973 171.134 9.6728 171.134 11.7389V14.8812H176.191V18.7638H171.134V34.8107H166.415V34.8279Z" fill="white"/>
<path d="M179.186 34.8279V18.781H176.911V14.8984H179.186V11.2654C179.186 9.03574 179.72 7.33979 180.786 6.17759C181.853 5.024 183.399 4.4386 185.426 4.4386C187.452 4.4386 189.105 4.90348 190.572 5.82463L189.514 9.66419C188.021 8.98409 186.883 8.63973 186.101 8.63973C184.644 8.63973 183.906 9.6728 183.906 11.7389V14.8812H188.963V18.7638H183.906V34.8107H179.186V34.8279Z" fill="white"/>
<path d="M196.118 11.0588C195.487 11.6614 194.731 11.9542 193.86 11.9542C192.989 11.9542 192.243 11.6528 191.63 11.0588C191.007 10.4562 190.705 9.74167 190.705 8.898C190.705 8.05433 191.016 7.37423 191.63 6.77161C192.243 6.16898 192.989 5.87628 193.86 5.87628C194.731 5.87628 195.487 6.17759 196.118 6.77161C196.749 7.37423 197.069 8.08015 197.069 8.898C197.069 9.71584 196.749 10.4648 196.118 11.0588ZM191.505 34.8279V14.8984H196.225V34.8279H191.505Z" fill="white"/>
<path d="M210.259 35.1551C207.192 35.1551 204.677 34.1995 202.713 32.2969C200.749 30.3944 199.762 27.9236 199.762 24.9019C199.762 21.8802 200.758 19.375 202.757 17.4724C204.757 15.5699 207.308 14.6143 210.428 14.6143C212.09 14.6143 213.689 14.9328 215.236 15.5699C216.782 16.2069 218.062 17.1281 219.076 18.3247L215.867 21.0193C214.516 19.4955 212.792 18.7293 210.685 18.7293C208.854 18.7293 207.379 19.2975 206.259 20.4253C205.139 21.553 204.57 23.0338 204.57 24.8589C204.57 26.6839 205.13 28.1561 206.259 29.2924C207.379 30.4202 208.854 30.9884 210.685 30.9884C212.818 30.9884 214.56 30.2824 215.911 28.862L219.156 31.6427C218.231 32.6757 216.987 33.5194 215.423 34.1737C213.867 34.8279 212.143 35.1551 210.259 35.1551Z" fill="white"/>
<path d="M240.531 24.6178C240.531 25.1085 240.486 25.7197 240.407 26.4515H225.395C225.706 27.8633 226.381 28.9739 227.421 29.7831C228.461 30.5837 229.741 30.9883 231.261 30.9883C233.394 30.9883 235.109 30.2135 236.407 28.6639L239.695 31.4016C237.696 33.9068 234.807 35.155 231.012 35.155C227.972 35.155 225.466 34.2081 223.484 32.3141C221.502 30.4202 220.515 27.9408 220.515 24.8588C220.515 21.7768 221.466 19.375 223.359 17.4638C225.253 15.5612 227.652 14.6057 230.55 14.6057C233.447 14.6057 235.971 15.5354 237.802 17.4035C239.633 19.2717 240.54 21.6735 240.54 24.6092L240.531 24.6178ZM234.043 19.8226C233.198 19.0995 232.114 18.7379 230.799 18.7379C229.483 18.7379 228.346 19.0909 227.403 19.7968C226.461 20.5027 225.821 21.5014 225.484 22.7755H235.767C235.456 21.5272 234.878 20.5372 234.034 19.814L234.043 19.8226Z" fill="white"/>
<path d="M0.710327 13.2318V33.5898C0.710327 34.5316 1.2304 35.4077 2.06705 35.8786L20.2698 46.0522C21.1177 46.5231 22.1466 46.5231 22.9945 46.0522L41.1973 35.8786C42.0452 35.4077 42.554 34.5316 42.554 33.5898V13.2318C42.554 12.29 42.0339 11.4139 41.1973 10.943L22.9945 0.758507C22.1466 0.28761 21.1177 0.28761 20.2698 0.758507L2.06705 10.943C1.2304 11.4139 0.710327 12.279 0.710327 13.2318Z" fill="#074772"/>
<path d="M27.9805 20.7333L26.0924 23.8105L22.0448 16.1886L10.8745 34.4221H7.23392L8.48889 32.3743L10.3431 29.3408L11.4172 27.5777L13.2826 24.5443L14.0402 23.2958L15.9057 20.2624L20.3489 13.0128L22.237 9.93552L23.9329 13.1113L27.9805 20.7333Z" fill="white"/>
<path d="M35.1937 34.3017C35.1937 34.3017 35.1485 34.3783 35.1259 34.4221H31.7341L28.8737 29.0451L30.7618 25.9679L35.1937 34.3017Z" fill="white"/>
<path d="M30.2191 24.9385L28.331 28.0157L26.6464 24.8399L27.3587 23.6682L28.5232 21.7627L30.2191 24.9385Z" fill="white"/>
<path d="M26.3072 31.3449L24.4191 34.4221L22.7232 31.2354L20.5524 27.1506L22.4405 24.0734L24.6113 28.1581L26.3072 31.3449Z" fill="white"/>
<path d="M35.3633 16.5609L35.352 16.5719V16.5609L30.2191 24.9385L28.331 28.0158L26.3863 31.2025L24.4982 34.2798L22.8023 31.093L23.6616 29.7132L24.6904 28.0158L24.7357 27.9501L26.5899 24.9166L26.6464 24.8399L27.3587 23.6682L28.5232 21.7627L29.2129 20.6347L33.6561 13.3851L33.6674 13.3632L35.3633 16.5609Z" fill="white"/>
<path d="M35.3633 16.5609L35.352 16.5719V16.5609L30.2191 24.9385L28.331 28.0158L26.3863 31.2025L24.4982 34.2798L22.8023 31.093L23.6616 29.7132L24.6904 28.0158L24.7357 27.9501L26.5899 24.9166L26.6464 24.8399L27.3587 23.6682L28.5232 21.7627L29.2129 20.6347L33.6561 13.3851L33.6674 13.3632L35.3633 16.5609Z" fill="white"/>
<path d="M13.8027 19.222L11.9485 22.2554H5.63977L7.49396 19.222H13.8027Z" fill="white"/>
<path d="M10.7953 19.222L8.92983 22.2554H5.63977L7.49396 19.222H10.7953Z" fill="white"/>
<path d="M16.7423 14.4364L14.8655 17.4808H10.2187L12.0729 14.4364H16.7423Z" fill="white"/>
<path d="M14.0627 14.4364L12.1972 17.4808H10.2187L12.0729 14.4364H14.0627Z" fill="white"/>
<path d="M18.8791 9.63983L17.0249 12.6842H15.0012L16.8553 9.63983H18.8791Z" fill="white"/>
<path d="M19.6366 9.63983L17.7824 12.6842H15.0012L16.8553 9.63983H19.6366Z" fill="white"/>
</svg>
