<svg width="51" height="51" viewBox="0 0 51 51" fill="none" xmlns="http://www.w3.org/2000/svg">
<path d="M7.07373 26.9731H3.94873V45.7231H7.07373C7.93671 45.7231 8.63623 45.0235 8.63623 44.1606V28.5356C8.63623 27.6727 7.93671 26.9731 7.07373 26.9731Z" fill="white"/>
<path d="M14.8862 26.9754V8.22314C14.8862 6.49966 16.2878 5.09814 18.0112 5.09814H33.6362C35.3597 5.09814 36.7612 6.49966 36.7612 8.22314V30.1643L38.3237 29.3242V8.22314C38.3237 5.63831 36.2211 3.53564 33.6362 3.53564H18.0112C15.4264 3.53564 13.3237 5.63831 13.3237 8.22314V26.9754H14.8862Z" fill="white"/>
<path d="M45.9081 29.063C44.7797 28.3887 43.4125 28.3597 42.2574 28.9837L32.0254 34.4841C31.7865 36.4109 30.1576 37.9119 28.1675 37.9119H21.8862C21.4544 37.9119 21.1049 37.5626 21.1049 37.1307C21.1049 36.699 21.4544 36.3496 21.8862 36.3496H28.1675C29.4599 36.3496 30.5112 35.2984 30.5112 34.0062C30.5112 32.7385 29.4978 31.7088 28.2392 31.67C27.7715 31.6646 20.2207 31.6628 20.2207 31.6628L17.5535 28.9959C17.2605 28.7029 16.863 28.5382 16.4487 28.5382H10.1987V44.1641H12.9575L18.0112 45.7233C20.1108 46.3985 22.3566 47.2857 24.8449 47.2857C27.0948 47.2857 29.3119 46.5396 31.2253 45.0734L46.1057 35.2252C47.1029 34.5417 47.6987 33.4127 47.6987 32.2074C47.6987 30.906 47.0296 29.7313 45.9081 29.063Z" fill="white"/>
<path d="M20.8684 30.1004C22.7094 30.1012 27.8722 30.1027 28.2567 30.1073C29.9779 30.1607 31.3856 31.2639 31.8822 32.7875L35.1987 31.0044V8.22314C35.1987 7.36016 34.4992 6.66064 33.6362 6.66064H28.9487C28.9487 8.38651 27.5496 9.78564 25.8237 9.78564C24.0979 9.78564 22.6987 8.38651 22.6987 6.66064H18.0112C17.1483 6.66064 16.4487 7.36016 16.4487 8.22314V26.9754C17.2834 26.9754 18.0677 27.3004 18.6582 27.891L20.8684 30.1004ZM29.1776 18.9327C28.8724 18.6275 28.8724 18.1332 29.1776 17.828C29.4828 17.5228 29.9772 17.5228 30.2823 17.828L33.4073 20.953C33.7125 21.2582 33.7125 21.7525 33.4073 22.0577L30.2823 25.1827C30.1298 25.3353 29.9299 25.4116 29.73 25.4116C29.5301 25.4116 29.3302 25.3353 29.1776 25.1827C28.8724 24.8775 28.8724 24.3832 29.1776 24.078L31.7502 21.5053L29.1776 18.9327ZM24.285 24.4421L25.8475 18.1921C25.9512 17.7725 26.3762 17.5131 26.7943 17.6237C27.2131 17.7282 27.468 18.1524 27.3627 18.5705L25.8002 24.8205C25.7117 25.176 25.3935 25.4126 25.0433 25.4126C24.9808 25.4126 24.9167 25.4049 24.8534 25.3889C24.4345 25.2844 24.1797 24.8602 24.285 24.4421ZM18.2401 20.953L21.3651 17.828C21.6703 17.5228 22.1647 17.5228 22.4698 17.828C22.775 18.1332 22.775 18.6275 22.4698 18.9327L19.8972 21.5053L22.4698 24.078C22.775 24.3832 22.775 24.8775 22.4698 25.1827C22.3173 25.3353 22.1174 25.4116 21.9175 25.4116C21.7176 25.4116 21.5177 25.3353 21.3651 25.1827L18.2401 22.0577C17.9349 21.7525 17.9349 21.2582 18.2401 20.953Z" fill="white"/>
</svg>
