<svg width="143" height="27" viewBox="0 0 143 27" fill="none" xmlns="http://www.w3.org/2000/svg">
<path d="M1.51243 19.5508H0.404474L3.60902 10.8235H4.69993L7.90447 19.5508H6.79652L4.18857 12.2042H4.12038L1.51243 19.5508ZM1.92152 16.1417H6.38743V17.0792H1.92152V16.1417ZM16.6275 16.8746V13.0053H17.6332V19.5508H16.6275V18.4428H16.5593C16.4059 18.7752 16.1673 19.0579 15.8434 19.2908C15.5195 19.521 15.1104 19.636 14.6161 19.636C14.207 19.636 13.8434 19.5465 13.5252 19.3675C13.207 19.1857 12.957 18.913 12.7752 18.5494C12.5934 18.1829 12.5025 17.7212 12.5025 17.1644V13.0053H13.5082V17.0962C13.5082 17.5735 13.6417 17.9542 13.9087 18.2383C14.1786 18.5224 14.5224 18.6644 14.94 18.6644C15.19 18.6644 15.4442 18.6005 15.7028 18.4727C15.9641 18.3448 16.1829 18.1488 16.359 17.8846C16.538 17.6204 16.6275 17.2837 16.6275 16.8746ZM20.4808 15.6133V19.5508H19.4751V13.0053H20.4467V14.0281H20.532C20.6854 13.6957 20.9183 13.4286 21.2308 13.2269C21.5433 13.0224 21.9467 12.9201 22.4411 12.9201C22.8842 12.9201 23.272 13.011 23.6044 13.1928C23.9368 13.3718 24.1953 13.6445 24.38 14.011C24.5646 14.3746 24.657 14.8349 24.657 15.3917V19.5508H23.6513V15.4599C23.6513 14.9457 23.5178 14.5451 23.2507 14.2582C22.9837 13.9684 22.6172 13.8235 22.1513 13.8235C21.8303 13.8235 21.5433 13.8931 21.2905 14.0323C21.0405 14.1715 20.843 14.3746 20.6982 14.6417C20.5533 14.9087 20.4808 15.2326 20.4808 15.6133ZM26.4947 19.5508V13.0053H27.5004V19.5508H26.4947ZM27.006 11.9144C26.81 11.9144 26.641 11.8477 26.4989 11.7141C26.3597 11.5806 26.2901 11.4201 26.2901 11.2326C26.2901 11.0451 26.3597 10.8846 26.4989 10.7511C26.641 10.6175 26.81 10.5508 27.006 10.5508C27.2021 10.5508 27.3697 10.6175 27.5089 10.7511C27.6509 10.8846 27.7219 11.0451 27.7219 11.2326C27.7219 11.4201 27.6509 11.5806 27.5089 11.7141C27.3697 11.8477 27.2021 11.9144 27.006 11.9144ZM32.1889 13.0053V13.8576H28.7969V13.0053H32.1889ZM29.7855 11.4371H30.7912V17.6758C30.7912 17.9599 30.8324 18.1729 30.9148 18.315C31 18.4542 31.108 18.5479 31.2386 18.5962C31.3722 18.6417 31.5128 18.6644 31.6605 18.6644C31.7713 18.6644 31.8622 18.6587 31.9332 18.6474C32.0043 18.6332 32.0611 18.6218 32.1037 18.6133L32.3082 19.5167C32.2401 19.5423 32.1449 19.5678 32.0227 19.5934C31.9006 19.6218 31.7457 19.636 31.5582 19.636C31.2741 19.636 30.9957 19.5749 30.723 19.4528C30.4531 19.3306 30.2287 19.1445 30.0497 18.8945C29.8736 18.6445 29.7855 18.3292 29.7855 17.9485V11.4371Z" fill="white"/>
<g clip-path="url(#clip0_156_509)">
<path d="M137.542 4.53519L136.437 5.78649L135.364 7.07071L131.103 12.043L130.282 12.965L129.462 13.9529L128.641 14.8749L125.737 18.2666L124.664 19.5179H119.739L120.844 18.2666L126.21 12.0101L126.999 11.088L127.82 10.1002L128.641 9.17817L130.44 7.07071H132.081L129.462 10.1331L128.641 11.088L127.82 12.0101L126.999 12.965L122.454 18.2666H124.127L127.82 13.9529L128.641 12.9979L129.462 12.0101L130.282 11.088L133.723 7.07071L134.796 5.78649H129.903L131.008 4.53519H137.542Z" fill="white"/>
<path d="M128.641 9.17816L127.82 10.1002L128.641 9.17816Z" fill="white"/>
<path d="M137.542 19.5179H132.618L131.545 18.2666L129.462 15.8298L129.682 15.5993L130.282 14.8749L133.155 18.2666H134.796L131.103 13.9199L131.924 12.965L136.437 18.2666L137.542 19.5179Z" fill="white"/>
<path d="M124.127 5.78649H122.486L126.179 10.1331L125.39 11.088L120.844 5.78649L119.739 4.53519H124.664L125.737 5.78649L127.82 8.22323L126.999 9.17817L124.127 5.78649Z" fill="white"/>
<path d="M126.999 11.088L126.21 12.0101H126.179L126.4 11.7796L126.999 11.088Z" fill="white"/>
<path d="M78.3258 4.53519L73.2754 18.069C72.9282 18.9581 72.1075 19.5508 71.1921 19.5508C70.2767 19.5508 69.456 18.9581 69.1088 18.069L64.0583 4.53519H66.8677L71.129 15.9286C71.1605 15.9945 71.1921 16.0274 71.2552 15.9945C71.2868 15.9945 71.3184 15.9615 71.3184 15.9286L75.5797 4.53519H78.3258Z" fill="white"/>
<path d="M57.0824 4.53519C53.3577 4.53519 50.3275 7.69636 50.3275 11.582V19.5508H52.9158V11.5491C52.9158 9.14524 54.7782 7.20243 57.0824 7.20243C59.3867 7.20243 61.249 9.14524 61.249 11.5491V19.5179H63.8374V11.5491C63.8374 7.66344 60.8071 4.53519 57.0824 4.53519Z" fill="white"/>
<path d="M91.0781 4.53519C87.3534 4.53519 84.3232 7.69636 84.3232 11.582V19.5508H86.9115V11.5491C86.9747 9.14524 88.9001 7.26829 91.2044 7.33415C93.414 7.4 95.1816 9.24403 95.2448 11.5491V19.5179H97.8331V11.5491C97.8015 7.66344 94.8028 4.53519 91.0781 4.53519Z" fill="white"/>
<path d="M106.671 16.8506C104.115 16.8506 102.063 14.7102 102.063 12.043C102.063 9.37573 104.115 7.23535 106.64 7.23535C108.155 7.23535 109.607 8.02564 110.459 9.3428H113.363C111.943 5.49011 107.776 3.54731 104.083 5.02911C100.39 6.51091 98.5276 10.8575 99.948 14.7102C101.368 18.5629 105.535 20.5057 109.228 19.0239C111.122 18.2665 112.637 16.686 113.363 14.7102H110.459C109.607 16.0274 108.187 16.8177 106.671 16.8506Z" fill="white"/>
<path d="M47.9916 4.53519H45.4033V19.5508H47.9916V4.53519Z" fill="white"/>
<path d="M46.6974 3.25095C47.4122 3.25095 47.9916 2.6465 47.9916 1.90087C47.9916 1.15524 47.4122 0.550781 46.6974 0.550781C45.9827 0.550781 45.4033 1.15524 45.4033 1.90087C45.4033 2.6465 45.9827 3.25095 46.6974 3.25095Z" fill="white"/>
<path d="M82.303 4.53519H79.7147V19.5508H82.303V4.53519Z" fill="white"/>
<path d="M81.0088 3.25095C81.7236 3.25095 82.303 2.6465 82.303 1.90087C82.303 1.15524 81.7236 0.550781 81.0088 0.550781C80.2941 0.550781 79.7147 1.15524 79.7147 1.90087C79.7147 2.6465 80.2941 3.25095 81.0088 3.25095Z" fill="white"/>
<path d="M117.814 4.53519H115.226V19.5508H117.814V4.53519Z" fill="white"/>
<path d="M116.52 3.25095C117.235 3.25095 117.814 2.6465 117.814 1.90087C117.814 1.15524 117.235 0.550781 116.52 0.550781C115.805 0.550781 115.226 1.15524 115.226 1.90087C115.226 2.6465 115.805 3.25095 116.52 3.25095Z" fill="white"/>
<path d="M140.509 4.53518C139.468 4.53518 138.615 3.6461 138.615 2.55945C138.615 1.47279 139.468 0.58371 140.509 0.58371C141.551 0.58371 142.403 1.47279 142.403 2.55945C142.403 3.6461 141.551 4.53518 140.509 4.53518ZM140.509 0.88007C139.626 0.88007 138.9 1.63744 138.9 2.55945C138.9 3.48146 139.626 4.23882 140.509 4.23882C141.393 4.23882 142.119 3.48146 142.119 2.55945C142.119 1.63744 141.393 0.88007 140.509 0.88007Z" fill="white"/>
<path d="M139.973 1.43985C140.131 1.40692 140.32 1.40692 140.509 1.40692C140.825 1.40692 141.014 1.47278 141.141 1.6045C141.267 1.70328 141.33 1.86793 141.33 2.03257C141.33 2.32893 141.141 2.52651 140.92 2.62529C141.078 2.69115 141.204 2.85579 141.235 3.0863C141.298 3.41559 141.362 3.64609 141.393 3.71195H141.109C141.078 3.64609 141.014 3.44852 140.951 3.15216C140.888 2.82287 140.762 2.72408 140.509 2.69115H140.225V3.67902H139.941V1.43985H139.973ZM140.257 2.49358H140.541C140.857 2.49358 141.046 2.32893 141.046 2.0655C141.046 1.76914 140.825 1.63742 140.541 1.63742C140.415 1.63742 140.32 1.63742 140.257 1.67035V2.49358Z" fill="white"/>
</g>
<defs>
<clipPath id="clip0_156_509">
<rect width="97" height="19" fill="white" transform="translate(45.4033 0.550781)"/>
</clipPath>
</defs>
</svg>
