<svg width="31" height="31" viewBox="0 0 31 31" fill="none" xmlns="http://www.w3.org/2000/svg">
<path d="M16.9462 11.29H14.5462C12.2835 11.29 11.1521 11.29 10.4492 11.9823C9.74622 12.6746 9.74622 13.7889 9.74622 16.0173V18.5628C9.74622 20.7912 9.74622 21.9055 10.4492 22.5977C11.1521 23.29 12.2835 23.29 14.5462 23.29H16.9462M14.5462 11.29H16.9462C19.209 11.29 20.3403 11.29 21.0433 11.9823C21.7462 12.6746 21.7462 13.7889 21.7462 16.0173V18.5628C21.7462 20.7912 21.7462 21.9055 21.0433 22.5977C20.3403 23.29 19.209 23.29 16.9462 23.29H14.5462" stroke="white" strokeWidth="1.5" stroke-linecap="round"/>
<path d="M15.7462 23.29V25.29" stroke="white" strokeWidth="1.5" stroke-linecap="round"/>
<path d="M15.7462 15.29L14.2462 17.29H17.2462L15.7462 19.29" stroke="white" strokeWidth="1.5" stroke-linecap="round" stroke-linejoin="round"/>
<path d="M14.7462 8.29004H16.7462" stroke="white" strokeWidth="1.5" stroke-linecap="round"/>
<path d="M19.2462 11.29V8.79004C19.2462 7.38558 19.2462 6.68335 18.9092 6.1789C18.7632 5.96052 18.5757 5.77302 18.3574 5.6271C17.8529 5.29004 17.1507 5.29004 15.7462 5.29004C14.3418 5.29004 13.6395 5.29004 13.1351 5.6271C12.9167 5.77302 12.7292 5.96052 12.5833 6.1789C12.2462 6.68335 12.2462 7.38558 12.2462 8.79004V11.29" stroke="white" strokeWidth="1.5"/>
</svg>
