<svg width="90" height="27" viewBox="0 0 90 27" fill="none" xmlns="http://www.w3.org/2000/svg">
<path d="M2.82449 25.6787C2.10116 25.6787 1.54116 25.4804 1.14449 25.0837C0.747826 24.6637 0.549492 24.092 0.549492 23.3687V3.17371C0.549492 2.42704 0.736159 1.86704 1.10949 1.49371C1.50616 1.09704 2.06616 0.898711 2.78949 0.898711C3.51283 0.898711 4.06116 1.09704 4.43449 1.49371C4.83116 1.86704 5.02949 2.42704 5.02949 3.17371V21.8637H15.1795C15.8095 21.8637 16.2878 22.027 16.6145 22.3537C16.9645 22.6804 17.1395 23.147 17.1395 23.7537C17.1395 24.3604 16.9645 24.8387 16.6145 25.1887C16.2878 25.5154 15.8095 25.6787 15.1795 25.6787H2.82449Z" fill="#1D85FF"/>
<path d="M28.1798 26.0287C25.7998 26.0287 23.7115 25.5037 21.9148 24.4537C20.1415 23.4037 18.7648 21.9337 17.7848 20.0437C16.8048 18.1304 16.3148 15.8904 16.3148 13.3237C16.3148 11.387 16.5948 9.64871 17.1548 8.10871C17.7148 6.54538 18.5081 5.21538 19.5348 4.11871C20.5848 2.99871 21.8331 2.14704 23.2798 1.56371C24.7498 0.957043 26.3831 0.65371 28.1798 0.65371C30.5831 0.65371 32.6715 1.17871 34.4448 2.22871C36.2181 3.25538 37.5948 4.71371 38.5748 6.60371C39.5548 8.49371 40.0448 10.722 40.0448 13.2887C40.0448 15.2254 39.7648 16.9754 39.2048 18.5387C38.6448 20.102 37.8398 21.4437 36.7898 22.5637C35.7631 23.6837 34.5148 24.547 33.0448 25.1537C31.5981 25.737 29.9765 26.0287 28.1798 26.0287ZM28.1798 22.1787C29.6965 22.1787 30.9798 21.8287 32.0298 21.1287C33.1031 20.4287 33.9198 19.4137 34.4798 18.0837C35.0631 16.7537 35.3548 15.167 35.3548 13.3237C35.3548 10.5237 34.7248 8.35371 33.4648 6.81371C32.2281 5.27371 30.4665 4.50371 28.1798 4.50371C26.6865 4.50371 25.4031 4.85371 24.3298 5.55371C23.2565 6.23038 22.4281 7.23371 21.8448 8.56371C21.2848 9.87038 21.0048 11.457 21.0048 13.3237C21.0048 16.1004 21.6348 18.2704 22.8948 19.8337C24.1548 21.397 25.9165 22.1787 28.1798 22.1787Z" fill="#FFCD1E"/>
<path d="M54.7153 26.0287C51.9853 26.0287 49.6753 25.5154 47.7853 24.4887C45.9186 23.462 44.4953 22.0037 43.5153 20.1137C42.5353 18.2237 42.0453 15.9837 42.0453 13.3937C42.0453 11.4337 42.3253 9.67204 42.8853 8.10871C43.4686 6.54538 44.2969 5.21538 45.3703 4.11871C46.4669 2.99871 47.7969 2.14704 49.3603 1.56371C50.9236 0.957043 52.6969 0.65371 54.6803 0.65371C55.9869 0.65371 57.2936 0.817043 58.6003 1.14371C59.9303 1.44704 61.1786 1.97204 62.3453 2.71871C62.7419 2.97538 62.9986 3.29038 63.1153 3.66371C63.2553 4.03704 63.2786 4.42204 63.1853 4.81871C63.0919 5.19204 62.9169 5.51871 62.6603 5.79871C62.4036 6.07871 62.0769 6.25371 61.6803 6.32371C61.3069 6.39371 60.8869 6.30038 60.4203 6.04371C59.5336 5.53038 58.6353 5.15704 57.7253 4.92371C56.8153 4.69038 55.8003 4.57371 54.6803 4.57371C52.9536 4.57371 51.4953 4.92371 50.3053 5.62371C49.1153 6.30038 48.2169 7.29204 47.6103 8.59871C47.0269 9.90538 46.7353 11.5037 46.7353 13.3937C46.7353 16.2637 47.4236 18.4454 48.8003 19.9387C50.1769 21.432 52.2186 22.1787 54.9253 22.1787C55.8586 22.1787 56.8036 22.0854 57.7603 21.8987C58.7169 21.712 59.6503 21.4554 60.5603 21.1287L59.6853 23.1237V15.6687H55.8353C55.2519 15.6687 54.7969 15.517 54.4703 15.2137C54.1669 14.9104 54.0153 14.502 54.0153 13.9887C54.0153 13.452 54.1669 13.0437 54.4703 12.7637C54.7969 12.4837 55.2519 12.3437 55.8353 12.3437H61.6103C62.1936 12.3437 62.6369 12.507 62.9403 12.8337C63.2669 13.137 63.4303 13.5804 63.4303 14.1637V22.6687C63.4303 23.182 63.3253 23.6137 63.1153 23.9637C62.9286 24.3137 62.6136 24.5704 62.1703 24.7337C61.1436 25.107 59.9653 25.422 58.6353 25.6787C57.3053 25.912 55.9986 26.0287 54.7153 26.0287Z" fill="#FF5E5E"/>
<path d="M77.9318 26.0287C75.5518 26.0287 73.4634 25.5037 71.6668 24.4537C69.8934 23.4037 68.5168 21.9337 67.5368 20.0437C66.5568 18.1304 66.0668 15.8904 66.0668 13.3237C66.0668 11.387 66.3468 9.64871 66.9068 8.10871C67.4668 6.54538 68.2601 5.21538 69.2868 4.11871C70.3368 2.99871 71.5851 2.14704 73.0318 1.56371C74.5018 0.957043 76.1351 0.65371 77.9318 0.65371C80.3351 0.65371 82.4234 1.17871 84.1968 2.22871C85.9701 3.25538 87.3468 4.71371 88.3268 6.60371C89.3068 8.49371 89.7968 10.722 89.7968 13.2887C89.7968 15.2254 89.5168 16.9754 88.9568 18.5387C88.3968 20.102 87.5918 21.4437 86.5418 22.5637C85.5151 23.6837 84.2668 24.547 82.7968 25.1537C81.3501 25.737 79.7284 26.0287 77.9318 26.0287ZM77.9318 22.1787C79.4484 22.1787 80.7318 21.8287 81.7818 21.1287C82.8551 20.4287 83.6718 19.4137 84.2318 18.0837C84.8151 16.7537 85.1068 15.167 85.1068 13.3237C85.1068 10.5237 84.4768 8.35371 83.2168 6.81371C81.9801 5.27371 80.2184 4.50371 77.9318 4.50371C76.4384 4.50371 75.1551 4.85371 74.0818 5.55371C73.0084 6.23038 72.1801 7.23371 71.5968 8.56371C71.0368 9.87038 70.7568 11.457 70.7568 13.3237C70.7568 16.1004 71.3868 18.2704 72.6468 19.8337C73.9068 21.397 75.6684 22.1787 77.9318 22.1787Z" fill="#25EFB2"/>
</svg>
