<svg width="53" height="35" viewBox="0 0 53 35" fill="none" xmlns="http://www.w3.org/2000/svg">
<g clip-path="url(#clip0_247_247)">
<path d="M13.6407 27.824C13.1638 26.4017 12.6913 24.9962 12.2221 23.5895C10.9999 19.934 9.7821 16.2773 8.54878 12.6262C8.49221 12.46 8.32474 12.2827 8.16392 12.2079C7.02376 11.678 6.42928 10.49 6.72985 9.28527C7.02043 8.11621 8.12399 7.29631 9.27857 7.39001C10.5285 7.49041 11.5012 8.44417 11.6121 9.70247C11.6642 10.2892 11.4879 10.8236 11.1751 11.3222C11.0997 11.4416 11.0476 11.649 11.0986 11.7651C12.1999 14.2315 13.7017 16.3833 15.9964 17.8803C17.1432 18.6288 18.3921 19.0773 19.7884 18.9958C21.3844 18.9021 22.5867 18.1201 23.4829 16.8328C24.4655 15.4228 24.8581 13.8176 24.9236 12.1231C24.9291 11.9759 24.7738 11.7874 24.6441 11.6747C23.6947 10.8459 23.3065 9.80175 23.5317 8.57357C23.7513 7.37662 24.4744 6.54891 25.619 6.13282C27.0298 5.61969 28.618 6.21091 29.3999 7.51272C30.1696 8.79333 29.96 10.4677 28.8631 11.4817C28.618 11.7093 28.5415 11.9246 28.567 12.2358C28.7145 13.9939 29.1171 15.666 30.2218 17.0883C31.6348 18.9088 33.8164 19.4867 36.0312 18.6322C37.9988 17.8736 39.4883 16.4993 40.6817 14.8037C41.2928 13.9347 41.7642 12.9676 42.3066 12.0484C42.4419 11.8186 42.4319 11.6546 42.2544 11.4282C41.5801 10.5715 41.5302 9.48829 42.0847 8.58361C42.6127 7.72243 43.622 7.24945 44.5647 7.42347C45.6716 7.62761 46.4424 8.38282 46.6487 9.4671C46.855 10.548 46.2516 11.6992 45.2057 12.16C44.9673 12.2648 44.842 12.3998 44.7599 12.6441C43.1328 17.5245 41.4925 22.4004 39.8776 27.2852C39.7334 27.7214 39.5427 27.8352 39.1012 27.8341C30.7841 27.8196 22.468 27.8229 14.1509 27.8229C13.9856 27.8229 13.8203 27.8229 13.6362 27.8229L13.6407 27.824Z" fill="#FFAA5C"/>
<path d="M6.64026 34.2533V29.6402H46.6889V34.2533H6.64026Z" fill="white"/>
<path d="M22.3749 16.1948C21.6351 17.3996 20.1622 17.9986 18.7015 17.6974C17.6212 17.4743 16.6996 16.9288 15.8422 16.2517C15.6138 16.071 15.7313 15.9193 15.8101 15.7464C16.3336 14.5952 16.6109 13.3882 16.6308 12.1198C16.6341 11.8934 16.5842 11.7539 16.3735 11.6167C15.2034 10.8537 14.9683 9.31431 15.8345 8.2356C16.6652 7.20152 18.2168 7.10782 19.1851 8.03146C20.1578 8.95957 20.1267 10.5202 19.0886 11.426C18.8546 11.6301 18.8734 11.7829 18.9766 12.0205C19.6199 13.4941 20.6824 14.6364 21.8358 15.7073C22.0078 15.8668 22.1841 16.023 22.3738 16.1948H22.3749Z" fill="#FFAA5C"/>
<path d="M37.7382 16.2003C36.4949 17.163 35.2139 17.8904 33.6112 17.7353C32.5021 17.6282 31.6925 17.0336 31.0514 16.1234C31.7169 15.4518 32.4211 14.8372 33.0045 14.1233C33.5169 13.4963 33.8929 12.759 34.3299 12.0696C34.5029 11.7963 34.4597 11.6067 34.1946 11.3769C33.4615 10.7399 33.2485 9.7114 33.609 8.82791C33.9683 7.94554 34.8678 7.3532 35.7972 7.38666C36.7688 7.42124 37.6062 8.05932 37.9057 8.99524C38.2229 9.98581 37.8602 11.0389 36.9673 11.6167C36.7588 11.7517 36.7023 11.8911 36.7056 12.1198C36.73 13.5477 37.0827 14.8918 37.7382 16.2015V16.2003Z" fill="#FFAA5C"/>
</g>
<defs>
<clipPath id="clip0_247_247">
<rect width="52.0858" height="34.7238" fill="white" transform="translate(0.629639 -0.47052)"/>
</clipPath>
</defs>
</svg>
