<svg width="61" height="61" viewBox="0 0 61 61" fill="none" xmlns="http://www.w3.org/2000/svg">
<path d="M9.31213 43.8108V40.5369C9.31213 38.9415 10.5901 37.6482 12.1666 37.6482C15.8217 37.6482 19.453 37.0518 22.9204 35.882C23.8127 35.581 24.3971 35.3371 25.3859 35.3371C28.2714 35.3371 30.6251 37.7029 30.6251 40.6393V45.3514" stroke="white" strokeWidth="1.5" stroke-miterlimit="10" stroke-linejoin="round"/>
<path d="M51.9381 43.8108V40.5369C51.9381 38.9415 50.6601 37.6482 49.0836 37.6482C45.4285 37.6482 41.7973 37.0518 38.3298 35.882C37.4376 35.581 36.8532 35.3371 35.8643 35.3371C32.9788 35.3371 30.6251 37.7029 30.6251 40.6393V46.1207" stroke="white" strokeWidth="1.5" stroke-miterlimit="10" stroke-linejoin="round"/>
<path d="M53.5557 43.8108V49.9734H35.2676C34.7812 49.9734 34.3623 50.3209 34.267 50.8035C33.9215 52.5516 32.4043 53.825 30.6251 53.825C28.8637 53.825 27.3322 52.5691 26.9833 50.8035C26.8879 50.321 26.4693 49.9733 25.9827 49.9733H7.69458V43.8107H25.1122C27.1272 43.8107 29.1261 44.6047 30.6251 46.1216C32.05 44.6796 34.0182 43.8107 36.1381 43.8107H53.5557V43.8108Z" stroke="white" strokeWidth="1.5" stroke-miterlimit="10" stroke-linecap="round" stroke-linejoin="round"/>
<path d="M23.7747 22.2414V28.404" stroke="#33CCCC" strokeWidth="1.5" stroke-miterlimit="10" stroke-linecap="round" stroke-linejoin="round"/>
<path d="M20.7297 25.3228H26.8192" stroke="#33CCCC" strokeWidth="1.5" stroke-miterlimit="10" stroke-linecap="round" stroke-linejoin="round"/>
<path d="M38.2372 23.0118L43.5654 28.4041" stroke="white" strokeWidth="1.5" stroke-miterlimit="10" stroke-linecap="round" stroke-linejoin="round"/>
<path d="M38.2372 28.4041L43.5654 23.0118" stroke="white" strokeWidth="1.5" stroke-miterlimit="10" stroke-linecap="round" stroke-linejoin="round"/>
<path d="M13.1182 16.0787L16.1629 20.7007" stroke="white" strokeWidth="1.5" stroke-miterlimit="10" stroke-linecap="round" stroke-linejoin="round"/>
<path d="M27.5802 15.3084L33.7648 9.04944" stroke="#33CCCC" strokeWidth="1.5" stroke-miterlimit="10" stroke-linecap="round" stroke-linejoin="round"/>
<path d="M10.0732 26.0931C11.5622 27.6 12.5772 29.5192 12.9901 31.6089L13.118 32.2557" stroke="white" strokeWidth="1.5" stroke-miterlimit="10" stroke-linecap="round" stroke-linejoin="round"/>
<path d="M51.1768 26.0931C49.6878 27.6 48.6729 29.5192 48.2599 31.6089L48.1321 32.2557" stroke="#33CCCC" strokeWidth="1.5" stroke-miterlimit="10" stroke-linecap="round" stroke-linejoin="round"/>
<path d="M44.3265 16.849L45.8489 15.3084" stroke="#33CCCC" strokeWidth="1.5" stroke-miterlimit="10" stroke-linecap="round" stroke-linejoin="round"/>
</svg>
