<svg width="330" height="276" viewBox="0 0 330 276" fill="none" xmlns="http://www.w3.org/2000/svg">
<rect x="9.38757" y="144.203" width="149.777" height="120.678" rx="14" fill="url(#paint0_linear_70_2156)" fill-opacity="0.16" stroke="url(#paint1_linear_70_2156)" strokeWidth="2"/>
<rect x="9.38757" y="11.5408" width="149.777" height="120.678" rx="14" fill="url(#paint2_linear_70_2156)" fill-opacity="0.16" stroke="url(#paint3_linear_70_2156)" strokeWidth="2"/>
<rect x="173.712" y="11.5408" width="149.777" height="120.678" rx="14" fill="url(#paint4_linear_70_2156)" fill-opacity="0.16" stroke="url(#paint5_linear_70_2156)" strokeWidth="2"/>
<rect x="173.712" y="144.203" width="149.777" height="120.678" rx="14" fill="url(#paint6_linear_70_2156)" fill-opacity="0.16" stroke="url(#paint7_linear_70_2156)" strokeWidth="2"/>
<g filter="url(#filter0_b_70_2156)">
<path d="M53.131 66.6733H43.831V52.2733H53.131V54.5333H46.241V58.0833H51.931V60.3433H46.241V64.4133H53.131V66.6733ZM58.1502 66.6733H55.7102V55.8733H57.8602V57.0733C58.6502 56.1433 59.8302 55.5633 61.3902 55.5633C65.3702 55.5633 65.6402 59.3633 65.6402 60.6433V66.6733H63.2002V61.4733C63.2002 60.1433 62.9802 57.8333 60.6802 57.8333C59.4502 57.8333 58.1502 58.5033 58.1502 61.1233V66.6733ZM72.7798 66.9733C69.7898 66.9733 67.8498 64.5133 67.8498 61.2733C67.8498 57.9933 69.8098 55.5733 72.8698 55.5733C74.0998 55.5733 75.0998 55.9633 75.8598 56.6533V55.8733H77.9698V67.1933C77.9698 67.7533 77.9298 68.2333 77.8198 68.7133C77.3298 70.8033 75.4298 71.7733 72.9898 71.7733C71.1898 71.7733 69.5398 70.8933 68.6998 69.4233L70.9198 68.3233C71.3198 69.1033 72.1498 69.4833 72.9998 69.4833C74.4998 69.4833 75.5898 68.6933 75.5598 67.1533V66.1233C74.8298 66.6633 73.8998 66.9733 72.7798 66.9733ZM73.1498 64.8133C75.0898 64.8133 75.8598 63.3633 75.8598 61.2733C75.8598 59.1633 75.0698 57.7333 73.2298 57.7333C71.2898 57.7333 70.3998 59.3133 70.3998 61.2733C70.3998 63.2533 71.2698 64.8133 73.1498 64.8133ZM83.994 66.9733C81.644 66.9733 80.374 65.4933 80.374 63.7133C80.374 62.1433 81.124 61.0733 82.834 60.4833C83.974 60.1133 85.644 59.8833 87.534 59.6033C87.444 58.3633 86.794 57.7833 85.324 57.7833C84.354 57.7833 83.324 58.1933 82.964 59.2933L80.764 58.6033C81.294 56.7833 82.784 55.5733 85.324 55.5733C87.244 55.5733 88.774 56.1533 89.484 57.5833C89.864 58.3433 89.894 59.1133 89.894 60.0433V66.6733H87.784V65.2233C86.864 66.4233 85.714 66.9733 83.994 66.9733ZM84.474 65.0533C86.114 65.0533 87.024 64.0133 87.264 63.2633C87.464 62.7733 87.494 62.0933 87.504 61.5833C85.784 61.8533 84.804 62.0033 84.044 62.2633C83.214 62.5733 82.734 62.9833 82.734 63.6833C82.734 64.4733 83.334 65.0533 84.474 65.0533ZM97.0274 66.9733C94.0374 66.9733 92.0974 64.5133 92.0974 61.2733C92.0974 57.9933 94.0574 55.5733 97.1174 55.5733C98.3474 55.5733 99.3474 55.9633 100.107 56.6533V55.8733H102.217V67.1933C102.217 67.7533 102.177 68.2333 102.067 68.7133C101.577 70.8033 99.6774 71.7733 97.2374 71.7733C95.4374 71.7733 93.7874 70.8933 92.9474 69.4233L95.1674 68.3233C95.5674 69.1033 96.3974 69.4833 97.2474 69.4833C98.7474 69.4833 99.8374 68.6933 99.8074 67.1533V66.1233C99.0774 66.6633 98.1474 66.9733 97.0274 66.9733ZM97.3974 64.8133C99.3374 64.8133 100.107 63.3633 100.107 61.2733C100.107 59.1633 99.3174 57.7333 97.4774 57.7333C95.5374 57.7333 94.6474 59.3133 94.6474 61.2733C94.6474 63.2533 95.5174 64.8133 97.3974 64.8133ZM110.132 66.9733C106.852 66.9733 104.622 64.6733 104.622 61.3933C104.622 57.8533 106.812 55.5733 109.992 55.5733C113.342 55.5733 115.302 58.0533 115.022 61.9433H107.202C107.392 63.7233 108.352 64.7133 109.992 64.7133C111.172 64.7133 112.052 64.1733 112.522 63.1733L114.902 63.8933C114.072 65.8533 112.212 66.9733 110.132 66.9733ZM110.092 57.6833C108.472 57.6833 107.542 58.5233 107.262 60.1233H112.582C112.372 58.4333 111.582 57.6833 110.092 57.6833Z" fill="white"/>
</g>
<g filter="url(#filter1_b_70_2156)">
<path d="M46.441 231.096H44.031V216.696H46.441V231.096ZM52.0565 231.096H49.6165V220.296H51.7665V221.496C52.5565 220.566 53.7365 219.986 55.2965 219.986C59.2765 219.986 59.5465 223.786 59.5465 225.066V231.096H57.1065V225.896C57.1065 224.566 56.8865 222.256 54.5865 222.256C53.3565 222.256 52.0565 222.926 52.0565 225.546V231.096ZM67.696 231.096H65.276L61.356 220.296H63.766L66.486 228.126L69.196 220.296H71.616L67.696 231.096ZM78.1301 231.396C74.8501 231.396 72.6201 229.096 72.6201 225.816C72.6201 222.276 74.8101 219.996 77.9901 219.996C81.3401 219.996 83.3001 222.476 83.0201 226.366H75.2001C75.3901 228.146 76.3501 229.136 77.9901 229.136C79.1701 229.136 80.0501 228.596 80.5201 227.596L82.9001 228.316C82.0701 230.276 80.2101 231.396 78.1301 231.396ZM78.0901 222.106C76.4701 222.106 75.5401 222.946 75.2601 224.546H80.5801C80.3701 222.856 79.5801 222.106 78.0901 222.106ZM87.5784 231.096H85.1384V220.296H87.2884V221.496C88.0784 220.566 89.2584 219.986 90.8184 219.986C94.7984 219.986 95.0684 223.786 95.0684 225.066V231.096H92.6284V225.896C92.6284 224.566 92.4084 222.256 90.1084 222.256C88.8784 222.256 87.5784 222.926 87.5784 225.546V231.096ZM104.208 229.076V231.096C102.068 231.506 99.8879 231.316 99.0479 229.766C98.5479 228.836 98.6379 227.926 98.6379 226.686V222.186H96.6779V220.296H98.6379V217.296H101.038V220.296H104.208V222.186H101.038V226.546C101.038 227.406 100.998 228.076 101.258 228.486C101.738 229.286 102.858 229.276 104.208 229.076Z" fill="white"/>
</g>
<g filter="url(#filter2_b_70_2156)">
<path d="M215.206 66.6733H212.796V52.2733H215.206V66.6733ZM220.821 66.6733H218.381V55.8733H220.531V57.0733C221.321 56.1433 222.501 55.5633 224.061 55.5633C228.041 55.5633 228.311 59.3633 228.311 60.6433V66.6733H225.871V61.4733C225.871 60.1433 225.651 57.8333 223.351 57.8333C222.121 57.8333 220.821 58.5033 220.821 61.1233V66.6733ZM233.541 66.6733H231.101V55.8733H233.251V57.0733C234.041 56.1433 235.221 55.5633 236.781 55.5633C240.761 55.5633 241.031 59.3633 241.031 60.6433V66.6733H238.591V61.4733C238.591 60.1433 238.371 57.8333 236.071 57.8333C234.841 57.8333 233.541 58.5033 233.541 61.1233V66.6733ZM248.434 66.9733C245.184 66.9733 243.064 64.6133 243.064 61.2733C243.064 57.8833 245.244 55.5733 248.434 55.5733C251.694 55.5733 253.824 57.9333 253.824 61.2733C253.824 64.6433 251.664 66.9733 248.434 66.9733ZM248.434 64.7133C250.344 64.7133 251.274 63.3033 251.274 61.2733C251.274 59.1833 250.324 57.8333 248.434 57.8333C246.494 57.8333 245.614 59.2333 245.614 61.2733C245.614 63.3733 246.574 64.7133 248.434 64.7133ZM261.177 66.6733H258.757L254.837 55.8733H257.247L259.967 63.7033L262.677 55.8733H265.097L261.177 66.6733ZM269.506 66.9733C267.156 66.9733 265.886 65.4933 265.886 63.7133C265.886 62.1433 266.636 61.0733 268.346 60.4833C269.486 60.1133 271.156 59.8833 273.046 59.6033C272.956 58.3633 272.306 57.7833 270.836 57.7833C269.866 57.7833 268.836 58.1933 268.476 59.2933L266.276 58.6033C266.806 56.7833 268.296 55.5733 270.836 55.5733C272.756 55.5733 274.286 56.1533 274.996 57.5833C275.376 58.3433 275.406 59.1133 275.406 60.0433V66.6733H273.296V65.2233C272.376 66.4233 271.226 66.9733 269.506 66.9733ZM269.986 65.0533C271.626 65.0533 272.536 64.0133 272.776 63.2633C272.976 62.7733 273.006 62.0933 273.016 61.5833C271.296 61.8533 270.316 62.0033 269.556 62.2633C268.726 62.5733 268.246 62.9833 268.246 63.6833C268.246 64.4733 268.846 65.0533 269.986 65.0533ZM284.54 64.6533V66.6733C282.4 67.0833 280.22 66.8933 279.38 65.3433C278.88 64.4133 278.97 63.5033 278.97 62.2633V57.7633H277.01V55.8733H278.97V52.8733H281.37V55.8733H284.54V57.7633H281.37V62.1233C281.37 62.9833 281.33 63.6533 281.59 64.0633C282.07 64.8633 283.19 64.8533 284.54 64.6533ZM291.425 66.9733C288.145 66.9733 285.915 64.6733 285.915 61.3933C285.915 57.8533 288.105 55.5733 291.285 55.5733C294.635 55.5733 296.595 58.0533 296.315 61.9433H288.495C288.685 63.7233 289.645 64.7133 291.285 64.7133C292.465 64.7133 293.345 64.1733 293.815 63.1733L296.195 63.8933C295.365 65.8533 293.505 66.9733 291.425 66.9733ZM291.385 57.6833C289.765 57.6833 288.835 58.5233 288.555 60.1233H293.875C293.665 58.4333 292.875 57.6833 291.385 57.6833Z" fill="white"/>
</g>
<g filter="url(#filter3_b_70_2156)">
<path d="M253.231 231.096H243.931V216.696H253.231V218.956H246.341V222.506H252.031V224.766H246.341V228.836H253.231V231.096ZM257.47 231.096H254.63L258.58 225.636L254.71 220.296H257.55L259.98 223.746L262.37 220.296H265.21L261.34 225.636L265.31 231.096H262.47L259.98 227.526L257.47 231.096ZM271.403 231.396C268.063 231.396 266.123 228.956 266.113 225.696C266.123 222.386 268.153 219.996 271.433 219.996C273.883 219.996 275.703 221.316 276.213 223.446L273.813 224.096C273.443 222.936 272.503 222.256 271.403 222.256C269.513 222.256 268.673 223.716 268.663 225.696C268.673 227.756 269.593 229.136 271.403 229.136C272.683 229.136 273.383 228.536 273.753 227.426L276.213 227.976C275.543 230.176 273.813 231.396 271.403 231.396ZM283.034 231.396C279.754 231.396 277.524 229.096 277.524 225.816C277.524 222.276 279.714 219.996 282.894 219.996C286.244 219.996 288.204 222.476 287.924 226.366H280.104C280.294 228.146 281.254 229.136 282.894 229.136C284.074 229.136 284.954 228.596 285.424 227.596L287.804 228.316C286.974 230.276 285.114 231.396 283.034 231.396ZM282.994 222.106C281.374 222.106 280.444 222.946 280.164 224.546H285.484C285.274 222.856 284.484 222.106 282.994 222.106ZM292.966 231.096H290.556V216.696H292.966V231.096Z" fill="white"/>
</g>
<g filter="url(#filter4_b_70_2156)">
<circle cx="161.3" cy="135.25" r="46.0621" fill="url(#paint8_linear_70_2156)" fill-opacity="0.11"/>
<circle cx="161.3" cy="135.25" r="45.0621" stroke="url(#paint9_linear_70_2156)" strokeWidth="2"/>
</g>
<path fill-rule="evenodd" clip-rule="evenodd" d="M158.646 74.7625C158.646 72.747 156.95 71.136 154.947 71.3621C122.87 74.9832 97.9427 102.205 97.9427 135.25C97.9427 168.294 122.87 195.516 154.947 199.137C156.95 199.363 158.646 197.752 158.646 195.737C158.646 193.881 157.199 192.358 155.357 192.137C126.958 188.737 104.943 164.564 104.943 135.25C104.943 105.935 126.958 81.762 155.357 78.3622C157.199 78.1417 158.646 76.6179 158.646 74.7625ZM165.833 195.737C165.833 193.881 167.28 192.358 169.122 192.137C197.521 188.737 219.536 164.564 219.536 135.25C219.536 105.935 197.521 81.7621 169.122 78.3623C167.28 78.1417 165.833 76.618 165.833 74.7626C165.833 72.747 167.529 71.136 169.532 71.3621C201.608 74.9834 226.536 102.205 226.536 135.25C226.536 168.294 201.608 195.516 169.532 199.137C167.529 199.363 165.833 197.752 165.833 195.737Z" fill="#183F55"/>
<g filter="url(#filter5_b_70_2156)">
<path d="M277.999 0.18689H307.924C320.074 0.18689 329.924 10.0366 329.924 22.1869V52.1117C301.246 52.1117 277.999 28.8642 277.999 0.18689Z" fill="#019289" fill-opacity="0.14"/>
<path d="M329.424 51.6094C301.419 51.3426 278.768 28.6913 278.501 0.68689H307.924C319.798 0.68689 329.424 10.3128 329.424 22.1869V51.6094Z" stroke="url(#paint10_linear_70_2156)"/>
</g>
<g clip-path="url(#clip0_70_2156)">
<path d="M322.091 13.5621C321.971 16.3963 321.54 19.2073 320.088 21.7449C319.57 22.6493 318.919 23.5011 318.208 24.2653C317.133 25.4205 315.948 26.4727 314.825 27.5843C314.703 27.7054 314.612 27.9363 314.626 28.1055C314.716 29.1414 314.832 30.1754 314.958 31.2082C315.026 31.7697 314.89 32.2586 314.495 32.6572C313.338 33.826 312.183 34.9975 311.004 36.1441C310.125 36.9986 308.784 36.7092 308.31 35.5722C307.802 34.3526 307.315 33.1239 306.841 31.8912C306.736 31.6182 306.613 31.5601 306.333 31.6096C304.753 31.8889 303.171 32.1529 301.588 32.4096C300.347 32.6105 299.433 31.6731 299.64 30.4204C299.894 28.8751 300.146 27.3299 300.417 25.7878C300.474 25.4631 300.431 25.2944 300.083 25.1647C298.918 24.7306 297.768 24.2544 296.615 23.7882C295.268 23.2439 294.996 21.9254 296.019 20.8986C297.098 19.8151 298.187 18.7425 299.259 17.6508C299.696 17.2045 300.199 17.0054 300.819 17.0761C301.853 17.1936 302.888 17.2897 303.92 17.424C304.177 17.4576 304.312 17.3718 304.477 17.2022C305.738 15.9024 306.962 14.5612 308.291 13.3335C310.075 11.6839 312.287 10.8639 314.634 10.3804C316.314 10.0344 318.015 9.89377 319.728 9.95001C321.243 9.9999 322.073 10.8771 322.092 12.4032C322.096 12.7756 322.092 13.1484 322.092 13.5625L322.091 13.5621ZM309.843 34.9753C309.964 34.8601 310.057 34.7767 310.145 34.6887C311.109 33.7263 312.064 32.7557 313.04 31.8059C313.268 31.5837 313.336 31.3669 313.298 31.0603C313.144 29.8244 313.006 28.5867 312.879 27.348C312.866 27.2229 312.935 27.0482 313.027 26.9598C314.35 25.6867 315.688 24.429 317.013 23.1586C317.743 22.4597 318.325 21.6461 318.781 20.7458C320.14 18.0608 320.496 15.1776 320.433 12.2173C320.423 11.7828 320.212 11.6109 319.764 11.5977C318.284 11.5547 316.811 11.6417 315.354 11.9143C313.102 12.3352 310.957 13.0486 309.266 14.6628C307.837 16.0271 306.512 17.5006 305.153 18.937C304.997 19.1026 304.863 19.186 304.631 19.1584C303.382 19.0082 302.131 18.8781 300.883 18.7239C300.641 18.6939 300.481 18.7488 300.309 18.923C299.319 19.9303 298.314 20.9249 297.316 21.925C297.239 22.0025 297.172 22.0905 297.084 22.193C297.274 22.2729 297.425 22.3395 297.578 22.4008C298.732 22.8638 299.89 23.3192 301.041 23.79C301.828 24.1115 302.234 24.8295 302.101 25.635C301.914 26.7616 301.719 27.8869 301.531 29.0135C301.435 29.5899 301.348 30.1682 301.252 30.7741C301.357 30.7641 301.406 30.7628 301.453 30.7551C303.112 30.4825 304.77 30.2049 306.429 29.9387C307.208 29.814 307.891 30.1918 308.21 30.9129C308.356 31.2408 308.478 31.5792 308.612 31.9125C309.018 32.9221 309.424 33.9313 309.843 34.9744V34.9753Z" fill="white"/>
<path d="M306.139 34.9182C306.068 35.0402 305.991 35.2683 305.838 35.4234C304.714 36.5677 303.579 37.7021 302.439 38.8296C302.058 39.206 301.575 39.2078 301.238 38.869C300.9 38.5298 300.906 38.0495 301.283 37.6685C302.412 36.5283 303.548 35.3962 304.684 34.2633C304.953 33.9961 305.269 33.8932 305.632 34.0542C305.958 34.1989 306.108 34.4665 306.139 34.9177L306.139 34.9182Z" fill="white"/>
<path d="M295.547 37.3741C295.068 37.3446 294.813 37.1891 294.674 36.8834C294.527 36.5618 294.575 36.2489 294.818 35.9912C295.144 35.6461 295.486 35.3155 295.821 34.9798C296.619 34.1811 297.416 33.3811 298.217 32.5847C298.637 32.1665 299.121 32.1243 299.474 32.4663C299.845 32.8259 299.811 33.3103 299.373 33.7503C298.286 34.8415 297.201 35.9346 296.102 37.0126C295.921 37.19 295.67 37.2961 295.547 37.3746L295.547 37.3741Z" fill="white"/>
<path d="M297.977 26.8033C297.92 26.9022 297.843 27.1294 297.692 27.2832C296.569 28.427 295.434 29.56 294.294 30.6875C293.919 31.0585 293.43 31.059 293.095 30.7229C292.766 30.3927 292.773 29.8956 293.142 29.5219C294.27 28.3821 295.408 27.2524 296.542 26.1189C296.815 25.8459 297.138 25.767 297.492 25.9148C297.819 26.0518 297.977 26.3194 297.977 26.8033Z" fill="white"/>
<path d="M314.199 21.1213C312.384 21.1236 310.915 19.6604 310.912 17.849C310.909 16.0216 312.395 14.5335 314.213 14.5435C316.02 14.5535 317.479 16.028 317.478 17.8435C317.476 19.6613 316.018 21.119 314.199 21.1213ZM314.203 19.4763C315.111 19.4731 315.848 18.7334 315.843 17.8294C315.838 16.9287 315.09 16.1894 314.188 16.194C313.286 16.1985 312.542 16.9482 312.547 17.8453C312.552 18.7497 313.293 19.4794 314.203 19.4763H314.203Z" fill="white"/>
<path d="M310.085 28.652C310.082 29.0497 309.925 29.2987 309.611 29.4339C309.269 29.5808 308.945 29.5232 308.693 29.2538C308.557 29.1087 308.461 28.9164 308.38 28.7309C307.363 26.3842 305.685 24.6975 303.343 23.6707C303.203 23.609 303.057 23.5518 302.928 23.4698C302.551 23.2276 302.422 22.7736 302.608 22.3917C302.797 22.0057 303.219 21.8433 303.654 22.0202C306.665 23.2425 308.787 25.3565 310.006 28.3717C310.049 28.4769 310.068 28.5916 310.084 28.6524L310.085 28.652Z" fill="white"/>
</g>
<g filter="url(#filter6_b_70_2156)">
<path d="M277.999 275.996H307.924C320.074 275.996 329.924 266.146 329.924 253.996V224.071C301.246 224.071 277.999 247.319 277.999 275.996Z" fill="#019289" fill-opacity="0.14"/>
<path d="M329.424 224.573C301.419 224.84 278.768 247.491 278.501 275.496H307.924C319.798 275.496 329.424 265.87 329.424 253.996V224.573Z" stroke="url(#paint11_linear_70_2156)"/>
</g>
<g clip-path="url(#clip1_70_2156)">
<path d="M291.886 268.618C291.886 268.598 291.886 268.579 291.886 268.56C291.943 268.511 292.007 268.469 292.054 268.413C293.717 266.399 295.38 264.385 297.034 262.365C297.123 262.257 297.182 262.091 297.183 261.951C297.193 260.164 297.19 258.378 297.189 256.591C297.189 256.507 297.179 256.423 297.172 256.304H294.463C296.558 253.79 298.617 251.32 300.687 248.837C301.274 249.54 301.829 250.204 302.416 250.907V245.758H299.369C301.879 243.402 304.343 241.09 306.806 238.779C306.825 238.779 306.845 238.779 306.864 238.779C306.929 238.858 306.987 238.945 307.061 239.015C309.368 241.183 311.677 243.348 313.986 245.514C314.059 245.583 314.138 245.646 314.214 245.712C314.2 245.735 314.187 245.757 314.174 245.78H311.198V250.907C311.79 250.197 312.348 249.53 312.926 248.837C315.004 251.331 317.062 253.801 319.165 256.325H316.421V256.673C316.421 258.402 316.425 260.13 316.416 261.859C316.415 262.087 316.476 262.259 316.622 262.435C318.264 264.415 319.899 266.402 321.535 268.388C321.586 268.451 321.63 268.52 321.701 268.618H291.886V268.618ZM304.195 244.035V261.602H309.443V244.036C309.571 244.025 309.671 244.017 309.822 244.005C308.799 243.046 307.812 242.12 306.807 241.178C305.799 242.123 304.812 243.048 303.787 244.01C303.947 244.02 304.05 244.026 304.195 244.035H304.195ZM298.945 261.607H302.414C302.423 261.564 302.433 261.536 302.433 261.509C302.434 258.945 302.435 256.382 302.433 253.819C302.433 253.746 302.42 253.656 302.378 253.603C301.825 252.929 301.267 252.262 300.688 251.567C299.852 252.57 299.037 253.548 298.176 254.582H298.945V261.607H298.945ZM315.424 254.564C314.573 253.544 313.758 252.566 312.926 251.568C312.386 252.215 311.863 252.826 311.362 253.455C311.259 253.584 311.186 253.779 311.185 253.944C311.174 256.4 311.177 258.857 311.177 261.314C311.177 261.408 311.177 261.502 311.177 261.607H314.683V254.564H315.424V254.564ZM311.47 266.858C311.46 266.802 311.461 266.772 311.449 266.749C310.913 265.672 310.379 264.595 309.83 263.525C309.789 263.445 309.636 263.379 309.536 263.379C307.72 263.37 305.904 263.376 304.088 263.368C303.904 263.367 303.815 263.426 303.736 263.587C303.235 264.606 302.724 265.618 302.218 266.634C302.185 266.699 302.166 266.771 302.133 266.859H311.47V266.858ZM295.595 266.869C297.11 266.869 298.553 266.873 299.997 266.86C300.084 266.859 300.204 266.741 300.251 266.648C300.766 265.639 301.27 264.625 301.775 263.61C301.808 263.545 301.829 263.473 301.855 263.405C301.82 263.389 301.803 263.376 301.787 263.376C301.06 263.374 300.332 263.371 299.605 263.373C299.229 263.374 298.803 263.28 298.49 263.424C298.187 263.565 297.997 263.953 297.763 264.237C297.054 265.095 296.347 265.955 295.595 266.869V266.869ZM317.979 266.869C317.95 266.808 317.943 266.78 317.926 266.76C317.033 265.675 316.142 264.587 315.24 263.508C315.174 263.429 315.028 263.379 314.918 263.378C313.939 263.368 312.959 263.372 311.98 263.373C311.908 263.373 311.836 263.384 311.728 263.392C312.303 264.542 312.858 265.659 313.423 266.77C313.451 266.825 313.562 266.865 313.635 266.865C315.07 266.871 316.505 266.869 317.979 266.869Z" fill="white"/>
</g>
<g filter="url(#filter7_b_70_2156)">
<path d="M52.0865 0.18689H22.1617C10.0115 0.18689 0.161697 10.0366 0.161697 22.1869V52.1117C28.839 52.1117 52.0865 28.8642 52.0865 0.18689Z" fill="#019289" fill-opacity="0.14"/>
<path d="M0.661697 51.6094C28.6661 51.3426 51.3174 28.6913 51.5842 0.68689H22.1617C10.2876 0.68689 0.661697 10.3128 0.661697 22.1869V51.6094Z" stroke="url(#paint12_linear_70_2156)"/>
</g>
<g clip-path="url(#clip2_70_2156)">
<path d="M36.7243 22.7105C36.0277 23.3319 35.3573 23.9859 34.6267 24.5646C33.9436 25.1057 33.4366 25.737 33.1 26.5457C32.7218 27.4541 32.2592 28.3272 31.8451 29.2207C31.8006 29.3164 31.7943 29.4679 31.8383 29.5604C32.5231 30.9913 31.66 32.4926 30.0704 32.6214C30.0518 32.6227 30.0336 32.6309 29.9801 32.6459C29.9515 33.2019 29.7706 33.7162 29.3578 34.1267C28.9519 34.5308 28.4521 34.7218 27.8888 34.7426C27.7523 36.1246 26.8738 36.7836 25.783 36.8648C25.6918 38.7896 23.4645 39.6645 22.0716 38.2748C21.4811 38.9647 20.7572 39.3534 19.8261 39.128C18.9 38.9035 18.3974 38.2708 18.2178 37.3237C18.0342 37.3237 17.8496 37.3419 17.67 37.3206C16.6799 37.2027 15.9587 36.4711 15.8458 35.4778C15.8299 35.3377 15.8308 35.2284 15.6317 35.2021C14.4103 35.0401 13.7091 34.2079 13.7386 32.9806C13.7395 32.9416 13.7386 32.903 13.7386 32.8468C13.6751 32.8282 13.6134 32.806 13.5495 32.7928C12.0591 32.4799 11.3911 30.7727 12.2859 29.5382C12.4056 29.3731 12.4093 29.2774 12.2859 29.1141C11.4976 28.0696 10.7293 27.0101 9.93745 25.9688C9.76284 25.7393 9.52654 25.5542 9.30611 25.3628C8.55368 24.7097 7.79535 24.0639 7.04065 23.413C6.62838 23.0579 6.60479 22.7908 6.9504 22.3626C8.7351 20.1507 10.5207 17.9396 12.3068 15.7286C12.6329 15.325 12.8655 15.2891 13.3136 15.5726C14.2289 16.1522 15.1374 16.7432 16.0603 17.3101C16.3297 17.4757 16.6277 17.6122 16.9307 17.7011C17.8378 17.9678 18.7526 18.21 19.6678 18.4481C19.8093 18.4848 19.9785 18.4812 20.1205 18.4426C20.9201 18.2254 21.7206 18.0077 22.5107 17.7578C23.0114 17.5995 23.5112 17.5346 24.0346 17.5428C25.1285 17.5596 26.2229 17.5528 27.3169 17.5423C27.4629 17.541 27.6267 17.4938 27.7505 17.4167C28.7192 16.8117 29.6794 16.1939 30.6432 15.5812C31.1167 15.2801 31.3457 15.3191 31.6882 15.7631C33.2914 17.8439 34.8938 19.9257 36.4962 22.0075C36.5719 22.1055 36.6486 22.203 36.7248 22.3005V22.7109L36.7243 22.7105ZM21.336 34.309C21.3505 34.3213 21.3636 34.3426 21.38 34.3453C22.6467 34.553 23.4558 35.95 22.9134 37.2267C22.8894 37.2834 22.9002 37.4063 22.937 37.4281C23.1492 37.5551 23.3638 37.7192 23.5974 37.761C23.977 37.8285 24.279 37.6353 24.465 37.2947C24.6455 36.9632 24.5961 36.555 24.3217 36.262C23.9484 35.8629 23.5561 35.481 23.1719 35.0914C23.1034 35.022 23.0331 34.954 22.966 34.8832C22.6839 34.5861 22.6626 34.2483 22.9084 33.9983C23.1492 33.7539 23.5098 33.7679 23.7919 34.0478C24.2291 34.4809 24.6596 34.9204 25.0913 35.359C25.3435 35.6157 25.6433 35.7268 25.9962 35.6393C26.6992 35.4642 26.906 34.6347 26.3744 34.0859C25.6338 33.3217 24.8777 32.5715 24.1294 31.8145C24.0196 31.7034 23.9039 31.5959 23.8101 31.4726C23.635 31.2421 23.6595 30.9229 23.8527 30.7215C24.0541 30.5115 24.3852 30.482 24.6264 30.6593C24.7045 30.7169 24.7716 30.7895 24.8405 30.8589C25.617 31.6431 26.3939 32.4268 27.1681 33.2137C27.4325 33.4827 27.736 33.6296 28.1165 33.5267C28.8208 33.3357 29.015 32.5143 28.4789 31.9696C27.3214 30.7931 26.1572 29.623 24.9965 28.4492C24.88 28.3313 24.7566 28.2175 24.6559 28.0868C24.4682 27.8424 24.4999 27.5244 24.7172 27.3163C24.9181 27.1235 25.2387 27.1004 25.4696 27.2723C25.5626 27.3417 25.6433 27.4292 25.7254 27.5126C26.9073 28.7068 28.0861 29.9033 29.2703 31.0947C29.7084 31.5356 30.2631 31.5633 30.6432 31.1782C31.0187 30.7977 30.9874 30.2566 30.5579 29.8262C28.3074 27.5739 26.0569 25.3216 23.7992 23.0765C23.7008 22.9785 23.5366 22.9101 23.3969 22.8974C22.6971 22.8339 21.9941 22.8026 21.2942 22.7395C21.0915 22.7214 20.9822 22.7617 20.8792 22.95C20.4443 23.7459 19.9971 24.536 19.5395 25.3193C19.0542 26.1497 18.128 26.5407 17.2364 26.3135C15.8812 25.9679 15.2494 24.4934 15.9397 23.247C16.6155 22.0265 17.3135 20.8183 18.001 19.6046C18.0577 19.5044 18.1108 19.4019 18.1811 19.2713C17.6287 19.1216 17.1062 18.9706 16.5774 18.8463C16.5003 18.8281 16.3669 18.9134 16.3052 18.9887C14.6149 21.0374 12.9304 23.091 11.2455 25.1442C11.1675 25.2395 11.094 25.3383 11.0164 25.4377C11.7825 26.469 12.5308 27.4764 13.2828 28.4887C13.935 27.9739 14.6258 27.8269 15.3768 28.0877C16.1433 28.354 16.5592 28.939 16.7361 29.7005C18.1593 29.5228 19.1934 30.3618 19.29 31.7678C20.8575 31.9057 21.5274 33.1112 21.3378 34.3118L21.336 34.309ZM30.8867 28.4796C31.4047 27.3925 31.8977 26.3429 32.4079 25.3016C32.4959 25.122 32.4097 25.0308 32.3204 24.917C30.7452 22.915 29.1683 20.9145 27.5976 18.9089C27.4897 18.7714 27.3813 18.7175 27.2076 18.7184C26.0361 18.7256 24.8646 18.7188 23.6931 18.7256C23.5107 18.7265 23.322 18.7492 23.147 18.7991C21.8816 19.1588 20.618 19.5243 19.3576 19.9003C19.2429 19.9348 19.1186 20.0328 19.0574 20.1362C18.7186 20.7063 18.3979 21.2868 18.0713 21.8637C17.7013 22.5173 17.3234 23.1663 16.9638 23.8253C16.6731 24.3582 16.8976 24.9578 17.4391 25.146C17.8663 25.2948 18.2986 25.1175 18.5507 24.6766C19.0737 23.7623 19.5948 22.847 20.1069 21.9268C20.2674 21.6379 20.4851 21.505 20.8198 21.5304C21.8027 21.6052 22.7864 21.6719 23.7702 21.7331C24.0495 21.7503 24.2622 21.8606 24.4604 22.0597C26.5127 24.1219 28.5718 26.1774 30.6291 28.2342C30.7035 28.3086 30.782 28.3798 30.8876 28.4796H30.8867ZM15.3637 18.2698C14.5577 17.7573 13.7803 17.263 12.9857 16.7577C11.3539 18.7792 9.73925 20.7793 8.11828 22.7876C8.81991 23.3904 9.49842 23.9736 10.1919 24.5691C11.9185 22.466 13.6257 20.3861 15.3632 18.2698H15.3637ZM33.257 24.2058C33.9618 23.5985 34.6394 23.0153 35.3297 22.4207C33.8693 20.5244 32.4252 18.6485 30.9752 16.765C30.1706 17.2775 29.3932 17.7732 28.5986 18.2794C30.1588 20.2641 31.6959 22.2193 33.2574 24.2054L33.257 24.2058ZM15.9034 34.0433C15.9914 34.0079 16.1991 33.982 16.322 33.8659C16.8622 33.3584 17.3974 32.8418 17.8958 32.2939C18.2083 31.9501 18.1403 31.4104 17.8142 31.097C17.4867 30.7823 16.9565 30.7519 16.6155 31.0712C16.103 31.5519 15.6054 32.0499 15.1233 32.5615C14.8666 32.8336 14.8376 33.1792 14.9913 33.5189C15.1469 33.8618 15.4313 34.0274 15.9029 34.0433H15.9034ZM19.1989 32.962C19.0936 33.0096 18.8741 33.0527 18.7349 33.1824C18.2138 33.6682 17.7067 34.1707 17.2191 34.6905C16.9062 35.0238 16.9461 35.5708 17.2609 35.8901C17.5879 36.2216 18.1117 36.2797 18.4546 35.964C18.9857 35.4751 19.4968 34.9621 19.9867 34.4319C20.2361 34.1621 20.2624 33.8128 20.0955 33.4722C19.9341 33.143 19.656 32.9901 19.1989 32.9625V32.962ZM21.9034 36.262C21.9006 36.0316 21.7451 35.7567 21.4194 35.5921C21.0824 35.4216 20.7441 35.4511 20.4633 35.6937C20.1549 35.9604 19.8633 36.2516 19.5975 36.56C19.3454 36.8525 19.3322 37.2067 19.5123 37.5442C19.6878 37.873 19.9826 38.0277 20.3577 38.0082C20.9024 37.98 21.8988 36.9364 21.9034 36.2615V36.262ZM15.5669 29.9541C15.5619 29.6742 15.4059 29.3935 15.0802 29.2352C14.7478 29.0737 14.4044 29.0919 14.1223 29.3386C13.8153 29.6071 13.5227 29.8965 13.256 30.2049C13.0125 30.4865 12.9934 30.8267 13.1585 31.1623C13.3205 31.4911 13.6039 31.649 13.9604 31.6553C14.5165 31.6649 15.5619 30.6017 15.5673 29.9536L15.5669 29.9541Z" fill="white"/>
<path d="M29.5815 11.7964C29.4554 12.0068 29.3928 12.1783 29.2762 12.2957C27.9782 13.606 26.6729 14.9095 25.3662 16.2117C25.0778 16.4992 24.734 16.5133 24.4854 16.2661C24.2314 16.0135 24.241 15.6778 24.5312 15.3862C25.8329 14.0791 27.1391 12.777 28.4422 11.4712C28.6485 11.2644 28.8993 11.1569 29.1529 11.3097C29.3243 11.4127 29.4332 11.6213 29.5815 11.7964Z" fill="white"/>
<path d="M14.4861 11.1705C14.6938 11.2898 14.8584 11.3447 14.9691 11.4544C16.2935 12.7665 17.6119 14.0845 18.9254 15.4066C19.2007 15.6837 19.1989 16.0207 18.9526 16.2652C18.7104 16.506 18.3644 16.5024 18.0927 16.2321C16.7715 14.9172 15.4544 13.5974 14.1378 12.2781C13.9409 12.0808 13.8452 11.8304 14.0017 11.5896C14.1115 11.4204 14.3151 11.3125 14.4856 11.17L14.4861 11.1705Z" fill="white"/>
<path d="M21.1319 14.1685C21.1319 13.6414 21.1283 13.1149 21.1333 12.5879C21.1369 12.201 21.3931 11.9275 21.7315 11.9361C22.0621 11.9447 22.3034 12.2082 22.3048 12.5838C22.3088 13.6569 22.3093 14.73 22.3048 15.8035C22.3029 16.1799 22.058 16.4362 21.721 16.4371C21.3832 16.4385 21.1382 16.1831 21.1342 15.8076C21.1283 15.2615 21.1328 14.715 21.1323 14.1685H21.1319Z" fill="white"/>
<path d="M21.717 9.58218C22.0449 9.58173 22.3102 9.85159 22.3039 10.1795C22.298 10.4924 22.0345 10.7505 21.7206 10.7519C21.4063 10.7532 21.1419 10.497 21.1337 10.1831C21.1251 9.85567 21.3905 9.58263 21.717 9.58173V9.58218Z" fill="white"/>
</g>
<g filter="url(#filter8_b_70_2156)">
<path d="M52.0865 275.996H22.1617C10.0115 275.996 0.161697 266.146 0.161697 253.996V224.071C28.839 224.071 52.0865 247.319 52.0865 275.996Z" fill="#019289" fill-opacity="0.14"/>
<path d="M0.661697 224.573C28.6661 224.84 51.3174 247.491 51.5842 275.496H22.1617C10.2876 275.496 0.661697 265.87 0.661697 253.996V224.573Z" stroke="url(#paint13_linear_70_2156)"/>
</g>
<g clip-path="url(#clip3_70_2156)">
<path d="M21.3205 268.18C20.9187 268.03 20.4869 267.931 20.1214 267.719C19.1952 267.18 18.7072 266.338 18.6165 265.272C18.6033 265.117 18.5616 265.026 18.4228 264.939C17.8015 264.55 17.4858 263.977 17.4763 263.242C17.4704 262.771 17.4686 262.299 17.4785 261.828C17.4822 261.664 17.4345 261.58 17.2763 261.513C16.0689 261.005 15.2671 260.12 14.8421 258.882C14.8058 258.776 14.6997 258.66 14.5976 258.617C12.4569 257.704 11.1733 255.709 11.2627 253.388C11.299 252.437 11.5824 251.554 12.1063 250.757C12.2151 250.592 12.2201 250.48 12.1095 250.309C10.298 247.506 11.4854 243.733 14.5668 242.458C14.6788 242.412 14.8031 242.297 14.8412 242.186C15.839 239.282 19.1934 238.291 21.5986 240.197C21.6344 240.225 21.6716 240.252 21.7206 240.289C22.2929 239.8 22.9374 239.47 23.6699 239.31C25.7422 238.859 27.8965 240.085 28.5541 242.107C28.6145 242.292 28.7015 242.401 28.8861 242.478C31.9589 243.758 33.1268 247.51 31.3235 250.308C31.2137 250.478 31.2174 250.589 31.3253 250.757C33.1209 253.54 31.9598 257.295 28.9093 258.575C28.7206 258.654 28.6204 258.759 28.5514 258.958C28.1396 260.154 27.3445 261.007 26.183 261.505C26.0061 261.581 25.9462 261.667 25.9526 261.857C25.9676 262.309 25.9603 262.761 25.9567 263.214C25.9508 263.971 25.6274 264.55 24.9906 264.963C24.9126 265.014 24.836 265.126 24.8278 265.216C24.6899 266.756 23.7153 267.848 22.2108 268.135C22.1759 268.141 22.1446 268.165 22.1111 268.18H21.3192H21.3205ZM28.7047 256.778C28.814 256.709 28.8943 256.664 28.9682 256.61C30.6949 255.367 30.9897 252.88 29.6018 251.266C29.1138 250.699 29.1115 250.365 29.5909 249.809C30.9498 248.231 30.7253 245.842 29.0948 244.547C28.9805 244.456 28.8535 244.381 28.7124 244.285C28.6748 244.42 28.6476 244.518 28.6199 244.615C28.4203 245.318 28.0657 245.933 27.5491 246.449C27.2624 246.736 26.8479 246.783 26.5096 246.584C26.1844 246.393 26.0129 246.001 26.139 245.634C26.2007 245.455 26.3286 245.289 26.4556 245.143C27.3631 244.098 27.2792 242.549 26.256 241.604C25.2369 240.662 23.7039 240.689 22.7442 241.68C22.6462 241.78 22.5741 241.953 22.5732 242.093C22.561 243.526 22.5655 244.959 22.5664 246.393C22.5664 246.474 22.5764 246.556 22.5773 246.568C23.122 246.799 23.6513 246.96 24.1144 247.233C25.2405 247.896 25.9122 248.876 25.9549 250.219C25.9703 250.703 25.6034 251.079 25.1417 251.096C24.6813 251.114 24.2999 250.76 24.2636 250.28C24.1919 249.338 23.5239 248.593 22.585 248.413V260.148C23.2059 260.148 23.8082 260.147 24.4101 260.148C25.5539 260.15 26.388 259.629 26.8583 258.599C27.3219 257.584 27.0992 256.653 26.369 255.829C26.0161 255.431 26.0138 254.917 26.3617 254.588C26.7159 254.252 27.2479 254.293 27.6185 254.683C28.1713 255.264 28.5201 255.952 28.7056 256.779L28.7047 256.778ZM14.7282 256.781C14.9174 255.917 15.2915 255.21 15.8762 254.619C16.1338 254.359 16.4472 254.294 16.7864 254.415C17.1325 254.54 17.3085 254.807 17.3307 255.17C17.3488 255.463 17.1946 255.683 17.0091 255.896C16.381 256.62 16.1642 257.453 16.4803 258.367C16.8059 259.308 17.4704 259.922 18.4659 260.093C18.9068 260.169 19.3667 260.137 19.8179 260.146C20.1626 260.153 20.5078 260.148 20.8679 260.148C20.8679 258.263 20.8702 256.416 20.8588 254.57C20.8588 254.504 20.7386 254.413 20.6556 254.377C20.1989 254.183 19.7032 254.057 19.2823 253.805C18.1797 253.144 17.5262 252.176 17.4776 250.857C17.4636 250.478 17.6758 250.164 18.0047 250.03C18.5625 249.804 19.1344 250.194 19.1707 250.826C19.2211 251.707 20.003 252.549 20.8556 252.638C20.8593 252.611 20.8665 252.583 20.8665 252.555C20.867 249.048 20.8683 245.541 20.862 242.034C20.862 241.926 20.8026 241.797 20.7291 241.716C19.9671 240.88 18.6913 240.677 17.7017 241.224C16.2018 242.054 15.902 243.913 17.0567 245.224C17.4187 245.635 17.4196 246.158 17.059 246.485C16.698 246.812 16.175 246.763 15.8031 246.367C15.3237 245.856 14.9899 245.263 14.8044 244.587C14.7786 244.493 14.7464 244.401 14.7124 244.294C14.6362 244.338 14.5863 244.364 14.54 244.396C12.7413 245.633 12.4161 248.157 13.842 249.809C14.3146 250.357 14.3037 250.694 13.8502 251.247C12.8701 252.443 12.6805 253.765 13.2946 255.185C13.5853 255.856 14.0656 256.375 14.7273 256.78L14.7282 256.781ZM19.1725 261.858C19.1725 262.332 19.1662 262.791 19.1753 263.249C19.1793 263.457 19.3163 263.542 19.5154 263.542C19.807 263.541 20.0987 263.542 20.3908 263.542C21.5482 263.542 22.7057 263.54 23.8636 263.543C24.0772 263.543 24.2513 263.492 24.2572 263.247C24.2681 262.789 24.2604 262.33 24.2604 261.858H19.173H19.1725ZM23.1025 265.253H20.3336C20.4225 265.962 20.9972 266.475 21.697 266.482C22.4104 266.491 22.9878 265.994 23.1025 265.253Z" fill="white"/>
<path d="M36.1946 258.394C36.1664 258.44 36.136 258.484 36.1111 258.531C35.8626 259.002 35.3369 259.162 34.8865 258.875C34.3069 258.506 33.7359 258.123 33.1717 257.731C32.7716 257.453 32.6877 256.946 32.9522 256.559C33.2089 256.183 33.7005 256.069 34.1014 256.324C34.6892 256.698 35.2693 257.085 35.8363 257.489C35.9868 257.597 36.0766 257.789 36.1946 257.942V258.395V258.394Z" fill="white"/>
<path d="M36.1946 243.121C35.976 243.343 35.7805 243.596 35.5338 243.781C35.1052 244.103 34.6471 244.385 34.1985 244.679C33.73 244.987 33.2338 244.915 32.9522 244.503C32.6651 244.084 32.7889 243.585 33.2638 243.265C33.7323 242.949 34.203 242.637 34.6734 242.324C35.3614 241.867 35.7773 241.961 36.1946 242.668V243.121Z" fill="white"/>
<path d="M36.1946 250.757C35.9696 251.246 35.5832 251.419 35.0575 251.386C34.6076 251.357 34.1545 251.383 33.7032 251.379C33.1807 251.374 32.8029 251.015 32.8025 250.531C32.8025 250.048 33.1812 249.689 33.7032 249.684C34.155 249.68 34.6081 249.706 35.0575 249.677C35.5836 249.644 35.9701 249.816 36.1946 250.305V250.758V250.757Z" fill="white"/>
<path d="M8.09823 242.011C8.26876 242.082 8.45426 242.129 8.60756 242.227C9.14637 242.571 9.67657 242.929 10.2045 243.289C10.6422 243.588 10.7551 244.087 10.4889 244.492C10.2235 244.895 9.71149 244.989 9.27246 244.702C8.71369 244.337 8.15719 243.968 7.60795 243.589C7.27459 243.358 7.16392 242.986 7.29001 242.619C7.40612 242.279 7.72632 242.049 8.09868 242.011H8.09823Z" fill="white"/>
<path d="M8.16635 259.013C7.73548 259.016 7.40893 258.786 7.29191 258.451C7.17127 258.106 7.2579 257.723 7.55724 257.513C8.15773 257.092 8.76594 256.681 9.38911 256.295C9.76283 256.064 10.244 256.206 10.484 256.563C10.7321 256.933 10.6704 257.436 10.3003 257.699C9.71022 258.118 9.10156 258.51 8.4929 258.902C8.37952 258.975 8.23075 258.992 8.16635 259.013V259.013Z" fill="white"/>
<path d="M8.93145 249.683C9.21355 249.683 9.49566 249.677 9.77731 249.684C10.2594 249.697 10.6245 250.059 10.63 250.521C10.6359 250.994 10.2662 251.37 9.76915 251.377C9.21491 251.385 8.66023 251.385 8.10599 251.377C7.608 251.37 7.237 250.999 7.23927 250.527C7.24108 250.055 7.6148 249.693 8.11416 249.683C8.38674 249.678 8.65932 249.683 8.9319 249.683L8.93145 249.683Z" fill="white"/>
</g>
<g filter="url(#filter9_b_70_2156)">
<path d="M99.9143 145.625C95.2268 145.625 91.4893 142.25 91.4893 136.25C91.4893 130.35 95.1018 126.875 99.9143 126.875C104.339 126.875 106.902 129.05 107.814 132.75L104.739 133.237C104.052 131.112 102.489 129.737 100.102 129.725C96.4768 129.675 94.6893 132.312 94.6768 136.25C94.6643 140.187 96.4768 142.737 100.102 142.787C102.814 142.825 104.577 141.275 105.039 138.175H101.864V135.812H108.239C108.264 136.075 108.289 136.762 108.289 136.862C108.289 141.962 105.139 145.625 99.9143 145.625ZM122.425 145.25H110.8V127.25H122.425V130.075H113.812V134.512H120.925V137.337H113.812V142.425H122.425V145.25ZM128.474 145.25H125.424V127.25H128.474L136.824 139.937V127.25H139.874V145.25H136.824L128.474 132.562V145.25ZM146.631 145.25H143.618V127.25H146.631V145.25ZM153.425 145.25H150.375V127.25H153.425L161.775 139.937V127.25H164.825V145.25H161.775L153.425 132.562V145.25ZM176.782 145.25H172.369L166.694 127.25H169.794L174.544 142.325L179.357 127.25H182.457L176.782 145.25ZM187.597 145.25H184.585V127.25H187.597V145.25ZM194.392 145.25H191.342V127.25H194.392L202.742 139.937V127.25H205.792V145.25H202.742L194.392 132.562V145.25ZM216.899 145.625C211.511 145.625 208.286 141.837 208.286 136.25C208.286 130.662 211.511 126.875 216.899 126.875C221.036 126.875 223.886 129.1 224.999 132.625L221.961 133.462C221.261 131.125 219.586 129.712 216.899 129.712C213.274 129.712 211.461 132.312 211.449 136.25C211.449 140.187 213.274 142.787 216.899 142.787C219.586 142.787 221.261 141.375 221.961 139.037L224.999 139.875C223.886 143.4 221.036 145.625 216.899 145.625ZM231.006 145.25H227.993V127.25H231.006V145.25Z" fill="white"/>
</g>
<defs>
<filter id="filter0_b_70_2156" x="37.8311" y="46.2733" width="83.4706" height="31.5" filterUnits="userSpaceOnUse" color-interpolation-filters="sRGB">
<feFlood flood-opacity="0" result="BackgroundImageFix"/>
<feGaussianBlur in="BackgroundImageFix" stdDeviation="3"/>
<feComposite in2="SourceAlpha" operator="in" result="effect1_backgroundBlur_70_2156"/>
<feBlend mode="normal" in="SourceGraphic" in2="effect1_backgroundBlur_70_2156" result="shape"/>
</filter>
<filter id="filter1_b_70_2156" x="38.031" y="210.696" width="72.1769" height="26.81" filterUnits="userSpaceOnUse" color-interpolation-filters="sRGB">
<feFlood flood-opacity="0" result="BackgroundImageFix"/>
<feGaussianBlur in="BackgroundImageFix" stdDeviation="3"/>
<feComposite in2="SourceAlpha" operator="in" result="effect1_backgroundBlur_70_2156"/>
<feBlend mode="normal" in="SourceGraphic" in2="effect1_backgroundBlur_70_2156" result="shape"/>
</filter>
<filter id="filter2_b_70_2156" x="206.796" y="46.2733" width="95.7996" height="26.81" filterUnits="userSpaceOnUse" color-interpolation-filters="sRGB">
<feFlood flood-opacity="0" result="BackgroundImageFix"/>
<feGaussianBlur in="BackgroundImageFix" stdDeviation="3"/>
<feComposite in2="SourceAlpha" operator="in" result="effect1_backgroundBlur_70_2156"/>
<feBlend mode="normal" in="SourceGraphic" in2="effect1_backgroundBlur_70_2156" result="shape"/>
</filter>
<filter id="filter3_b_70_2156" x="237.931" y="210.696" width="61.0349" height="26.7" filterUnits="userSpaceOnUse" color-interpolation-filters="sRGB">
<feFlood flood-opacity="0" result="BackgroundImageFix"/>
<feGaussianBlur in="BackgroundImageFix" stdDeviation="3"/>
<feComposite in2="SourceAlpha" operator="in" result="effect1_backgroundBlur_70_2156"/>
<feBlend mode="normal" in="SourceGraphic" in2="effect1_backgroundBlur_70_2156" result="shape"/>
</filter>
<filter id="filter4_b_70_2156" x="85.238" y="59.1876" width="152.124" height="152.124" filterUnits="userSpaceOnUse" color-interpolation-filters="sRGB">
<feFlood flood-opacity="0" result="BackgroundImageFix"/>
<feGaussianBlur in="BackgroundImageFix" stdDeviation="15"/>
<feComposite in2="SourceAlpha" operator="in" result="effect1_backgroundBlur_70_2156"/>
<feBlend mode="normal" in="SourceGraphic" in2="effect1_backgroundBlur_70_2156" result="shape"/>
</filter>
<filter id="filter5_b_70_2156" x="242.999" y="-34.8131" width="121.925" height="121.925" filterUnits="userSpaceOnUse" color-interpolation-filters="sRGB">
<feFlood flood-opacity="0" result="BackgroundImageFix"/>
<feGaussianBlur in="BackgroundImageFix" stdDeviation="17.5"/>
<feComposite in2="SourceAlpha" operator="in" result="effect1_backgroundBlur_70_2156"/>
<feBlend mode="normal" in="SourceGraphic" in2="effect1_backgroundBlur_70_2156" result="shape"/>
</filter>
<filter id="filter6_b_70_2156" x="242.999" y="189.071" width="121.925" height="121.925" filterUnits="userSpaceOnUse" color-interpolation-filters="sRGB">
<feFlood flood-opacity="0" result="BackgroundImageFix"/>
<feGaussianBlur in="BackgroundImageFix" stdDeviation="17.5"/>
<feComposite in2="SourceAlpha" operator="in" result="effect1_backgroundBlur_70_2156"/>
<feBlend mode="normal" in="SourceGraphic" in2="effect1_backgroundBlur_70_2156" result="shape"/>
</filter>
<filter id="filter7_b_70_2156" x="-34.8383" y="-34.8131" width="121.925" height="121.925" filterUnits="userSpaceOnUse" color-interpolation-filters="sRGB">
<feFlood flood-opacity="0" result="BackgroundImageFix"/>
<feGaussianBlur in="BackgroundImageFix" stdDeviation="17.5"/>
<feComposite in2="SourceAlpha" operator="in" result="effect1_backgroundBlur_70_2156"/>
<feBlend mode="normal" in="SourceGraphic" in2="effect1_backgroundBlur_70_2156" result="shape"/>
</filter>
<filter id="filter8_b_70_2156" x="-34.8383" y="189.071" width="121.925" height="121.925" filterUnits="userSpaceOnUse" color-interpolation-filters="sRGB">
<feFlood flood-opacity="0" result="BackgroundImageFix"/>
<feGaussianBlur in="BackgroundImageFix" stdDeviation="17.5"/>
<feComposite in2="SourceAlpha" operator="in" result="effect1_backgroundBlur_70_2156"/>
<feBlend mode="normal" in="SourceGraphic" in2="effect1_backgroundBlur_70_2156" result="shape"/>
</filter>
<filter id="filter9_b_70_2156" x="85.4893" y="120.875" width="151.516" height="30.75" filterUnits="userSpaceOnUse" color-interpolation-filters="sRGB">
<feFlood flood-opacity="0" result="BackgroundImageFix"/>
<feGaussianBlur in="BackgroundImageFix" stdDeviation="3"/>
<feComposite in2="SourceAlpha" operator="in" result="effect1_backgroundBlur_70_2156"/>
<feBlend mode="normal" in="SourceGraphic" in2="effect1_backgroundBlur_70_2156" result="shape"/>
</filter>
<linearGradient id="paint0_linear_70_2156" x1="-0.384246" y1="256.188" x2="124.776" y2="125.353" gradientUnits="userSpaceOnUse">
<stop stop-color="#00E0FF"/>
<stop offset="1" stop-color="#00E0FF" stop-opacity="0"/>
</linearGradient>
<linearGradient id="paint1_linear_70_2156" x1="3.29766" y1="265.88" x2="171.711" y2="230.938" gradientUnits="userSpaceOnUse">
<stop stop-color="#B2DAFF"/>
<stop offset="1" stop-color="#003C74" stop-opacity="0"/>
</linearGradient>
<linearGradient id="paint2_linear_70_2156" x1="0.433007" y1="21.6877" x2="120.654" y2="158.918" gradientUnits="userSpaceOnUse">
<stop stop-color="#00E0FF"/>
<stop offset="1" stop-color="#00E0FF" stop-opacity="0"/>
</linearGradient>
<linearGradient id="paint3_linear_70_2156" x1="8.38757" y1="14.2555" x2="123.055" y2="157.811" gradientUnits="userSpaceOnUse">
<stop stop-color="#B2DAFF"/>
<stop offset="1" stop-color="#003C74" stop-opacity="0"/>
</linearGradient>
<linearGradient id="paint4_linear_70_2156" x1="314.257" y1="10.5408" x2="214.026" y2="154.478" gradientUnits="userSpaceOnUse">
<stop stop-color="#00E0FF"/>
<stop offset="1" stop-color="#00E0FF" stop-opacity="0"/>
</linearGradient>
<linearGradient id="paint5_linear_70_2156" x1="308.233" y1="-4.66216" x2="144.648" y2="51.5523" gradientUnits="userSpaceOnUse">
<stop stop-color="#B2DAFF"/>
<stop offset="1" stop-color="#003C74" stop-opacity="0"/>
</linearGradient>
<linearGradient id="paint6_linear_70_2156" x1="330.602" y1="243.637" x2="199.351" y2="115.843" gradientUnits="userSpaceOnUse">
<stop stop-color="#00E0FF"/>
<stop offset="1" stop-color="#00E0FF" stop-opacity="0"/>
</linearGradient>
<linearGradient id="paint7_linear_70_2156" x1="329.373" y1="251.326" x2="219.078" y2="99.9715" gradientUnits="userSpaceOnUse">
<stop stop-color="#B2DAFF"/>
<stop offset="1" stop-color="#003C74" stop-opacity="0"/>
</linearGradient>
<linearGradient id="paint8_linear_70_2156" x1="161.3" y1="89.1876" x2="161.3" y2="181.312" gradientUnits="userSpaceOnUse">
<stop offset="0.190496" stop-color="#00FFE0"/>
<stop offset="1" stop-color="#13FFE3" stop-opacity="0"/>
</linearGradient>
<linearGradient id="paint9_linear_70_2156" x1="207.362" y1="89.1876" x2="121.924" y2="178.731" gradientUnits="userSpaceOnUse">
<stop stop-color="#4A659A"/>
<stop offset="1" stop-color="#1B894E" stop-opacity="0"/>
</linearGradient>
<linearGradient id="paint10_linear_70_2156" x1="326.261" y1="3.49929" x2="286.164" y2="38.8794" gradientUnits="userSpaceOnUse">
<stop stop-color="#00FFC2"/>
<stop offset="1" stop-color="#30ACE7"/>
</linearGradient>
<linearGradient id="paint11_linear_70_2156" x1="326.261" y1="272.683" x2="286.164" y2="237.303" gradientUnits="userSpaceOnUse">
<stop stop-color="#00FFC2"/>
<stop offset="1" stop-color="#30ACE7"/>
</linearGradient>
<linearGradient id="paint12_linear_70_2156" x1="3.82435" y1="3.49929" x2="43.9218" y2="38.8794" gradientUnits="userSpaceOnUse">
<stop stop-color="#00FFC2"/>
<stop offset="1" stop-color="#30ACE7"/>
</linearGradient>
<linearGradient id="paint13_linear_70_2156" x1="3.82435" y1="272.683" x2="43.9218" y2="237.303" gradientUnits="userSpaceOnUse">
<stop stop-color="#00FFC2"/>
<stop offset="1" stop-color="#30ACE7"/>
</linearGradient>
<clipPath id="clip0_70_2156">
<rect width="35.3884" height="35.3884" fill="white" transform="translate(289.1 6.69312)"/>
</clipPath>
<clipPath id="clip1_70_2156">
<rect width="35.3884" height="35.3884" fill="white" transform="translate(289.1 236.004)"/>
</clipPath>
<clipPath id="clip2_70_2156">
<rect width="35.3884" height="35.3884" fill="white" transform="translate(4.02271 6.69312)"/>
</clipPath>
<clipPath id="clip3_70_2156">
<rect width="35.3884" height="35.3884" fill="white" transform="translate(4.02271 236.004)"/>
</clipPath>
</defs>
</svg>
