<svg width="100" height="98" viewBox="0 0 100 98" fill="none" xmlns="http://www.w3.org/2000/svg">
<g clip-path="url(#clip0_1021_5759)">
<path d="M0 83.9921C0.281956 83.664 0.645818 83.4156 1.05497 83.2719C1.46413 83.1281 1.90415 83.094 2.33075 83.1731C2.87432 83.1731 3.41789 83.1731 4.06852 83.1731V81.7972C4.06852 64.9484 4.08499 48.0859 4.11794 31.2098C4.11794 27.6309 6.05337 24.9692 9.30654 24.1175C10.0335 23.9517 10.7762 23.8639 11.522 23.8554C12.4609 23.8145 13.3998 23.8554 14.3057 23.8554C14.1165 22.8696 14.0118 21.8696 13.9928 20.8662C14.0525 19.8223 14.3957 18.8141 14.986 17.9488C15.5763 17.0835 16.3914 16.3936 17.3448 15.9524C22.5416 13.2253 27.7384 10.4736 32.9353 7.76279C36.9873 5.62529 41.0476 3.50417 45.0914 1.35848C46.5773 0.50256 48.2618 0.0463791 49.9789 0.0348905C51.696 0.0234018 53.3866 0.457002 54.8839 1.29296C56.0945 1.92357 57.3052 2.55417 58.4994 3.20934C58.7051 3.27545 58.8936 3.38571 59.0516 3.53233C59.2097 3.67894 59.3334 3.85831 59.4139 4.05774C59.4945 4.25717 59.53 4.47178 59.5179 4.68637C59.5058 4.90095 59.4464 5.11026 59.3438 5.29948C59.2413 5.48869 59.0983 5.65317 58.9247 5.78128C58.7512 5.90939 58.5514 5.99799 58.3396 6.0408C58.1278 6.0836 57.9091 6.07958 57.6991 6.029C57.489 5.97843 57.2927 5.88254 57.124 5.74813C55.8557 5.10115 54.6039 4.41322 53.3273 3.76624C52.3109 3.20401 51.1671 2.90894 50.0041 2.90894C48.8411 2.90894 47.6973 3.20401 46.6809 3.76624L18.5884 18.5731C18.0697 18.8161 17.6313 19.2008 17.3242 19.6822C17.0171 20.1636 16.854 20.722 16.854 21.2921C16.854 21.8622 17.0171 22.4206 17.3242 22.902C17.6313 23.3834 18.0697 23.7681 18.5884 24.0111C27.9773 28.9576 37.3717 33.9041 46.7715 38.8507C47.74 39.3969 48.8319 39.6901 49.9451 39.703C51.0584 39.7159 52.1569 39.448 53.1379 38.9244C55.518 37.7287 57.857 36.4675 60.3113 35.1817C59.1665 33.8714 58.0876 32.6348 57.017 31.4063C54.4803 28.5345 51.9464 25.6626 49.4152 22.7908L49.0941 22.4223C48.9394 22.2781 48.8169 22.1034 48.7345 21.9093C48.652 21.7151 48.6114 21.506 48.6153 21.2953C48.6192 21.0846 48.6675 20.877 48.757 20.6861C48.8466 20.4951 48.9754 20.3249 49.1352 20.1865C49.2941 20.0594 49.4775 19.9662 49.6742 19.9128C49.8709 19.8595 50.0765 19.847 50.2782 19.8762C50.48 19.9054 50.6735 19.9757 50.8467 20.0826C51.0199 20.1895 51.169 20.3308 51.2848 20.4977C52.8002 22.193 54.2909 23.9046 55.798 25.608L62.988 33.7977C64.3139 33.1098 65.5987 32.4464 66.8835 31.7667C71.6274 29.3098 76.3548 26.7464 81.1069 24.2813C82.3587 23.6261 83.2318 22.758 83.2153 21.2921C83.1988 19.8261 82.3176 19.0317 81.1069 18.4011C74.9739 15.1908 68.8656 11.9723 62.7821 8.74555C61.7691 8.20503 61.382 7.38606 61.8267 6.5671C62.2715 5.74813 63.1115 5.64167 64.1328 6.174C70.3097 9.44985 76.4866 12.6602 82.6635 15.9361C85.6119 17.5003 86.6826 20.1783 85.719 23.3805C85.719 23.5033 85.6613 23.6261 85.6037 23.8554H88.3709C93.0407 23.8554 95.9315 26.7218 95.9315 31.3572C95.9315 48.1569 95.9315 64.9538 95.9315 81.7481V83.1649H97.7104C99.6459 83.1649 100.049 83.5089 99.9835 85.4007C100.025 87.0471 99.8978 88.6935 99.6047 90.3145C99.1203 92.2467 98.0156 93.9693 96.4581 95.2211C94.9005 96.4728 92.975 97.1855 90.9735 97.2511C90.6193 97.2511 90.257 97.2511 89.9028 97.2511C63.3064 97.2511 36.7128 97.2511 10.1219 97.2511C6.08631 97.2511 3.00609 95.6623 1.06243 92.1162C0.62761 91.1218 0.272365 90.095 0 89.0451L0 83.9921ZM7.00049 83.083H92.9666C92.9666 82.7554 93.0077 82.5015 93.0077 82.264C93.0077 65.2023 93.0077 48.1432 93.0077 31.0869C93.0077 28.4498 91.3606 26.8119 88.6674 26.7873C86.8473 26.7873 85.0189 26.7873 83.1988 26.7873C82.9406 26.7541 82.6781 26.7821 82.4329 26.8692C80.1351 28.0404 77.8537 29.2442 75.5641 30.4399L75.6136 30.6692H86.9873C88.7086 30.6692 89.1039 31.0705 89.1039 32.7904C89.1039 47.5863 89.1039 62.3796 89.1039 77.1701C89.1039 78.8899 88.7086 79.2912 86.9791 79.2912H26.6183C26.2957 79.3023 25.9728 79.2803 25.6547 79.2257C25.3084 79.1767 24.9949 78.9953 24.7811 78.7199C24.5673 78.4446 24.47 78.0971 24.51 77.7515C24.5033 77.4032 24.6356 77.0664 24.8779 76.8148C25.1202 76.5631 25.4527 76.417 25.803 76.4084C26.1901 76.4084 26.5772 76.4084 26.9725 76.4084H86.0896V33.5929H73.0604C73.0604 35.2309 73.0604 36.7378 73.0604 38.2856C73.0604 44.5097 70.3508 48.9977 64.6351 51.6347C64.421 51.7248 64.0998 51.9378 64.108 52.0934C64.108 53.1662 63.828 54.2636 64.4869 55.2955C65.4093 56.7451 66.2494 58.2438 67.073 59.7507C67.5361 60.5591 67.7267 61.4938 67.6171 62.4178C67.5074 63.3417 67.1031 64.2066 66.4635 64.8856C65.9303 65.4175 65.2826 65.8221 64.5693 66.0689C63.856 66.3157 63.0957 66.3984 62.3456 66.3106C58.3676 66.2615 56.3499 62.7972 58.3265 59.3494C59.0759 58.0309 59.9078 56.7451 60.5831 55.3856C60.9006 54.5682 61.1431 53.724 61.3079 52.8632C60.7231 52.9942 60.4843 53.0434 60.2207 53.1089C52.683 55.1569 44.7019 54.9202 37.3003 52.4291C29.888 50.0378 26.6348 44.133 26.9395 38.0645C27.0137 36.6231 26.9395 35.1654 26.9395 33.6585H13.9022V76.3593C14.3057 76.3593 14.6599 76.3593 15.014 76.3593C16.7024 76.3593 18.3989 76.3593 20.0873 76.3593C20.276 76.3464 20.4653 76.3733 20.6429 76.4383C20.8204 76.5032 20.9821 76.6048 21.1174 76.7362C21.2527 76.8677 21.3586 77.0261 21.428 77.2011C21.4974 77.376 21.5289 77.5636 21.5203 77.7515C21.5303 77.9386 21.5027 78.1257 21.439 78.3019C21.3754 78.4782 21.277 78.6401 21.1497 78.7781C21.0224 78.9162 20.8687 79.0276 20.6976 79.1058C20.5265 79.1841 20.3414 79.2276 20.1532 79.2339C19.9585 79.2463 19.7632 79.2463 19.5684 79.2339C17.353 79.2339 15.1375 79.2339 12.9303 79.2339C11.3408 79.2339 10.9125 78.7916 10.9125 77.2028C10.9125 62.3468 10.9125 47.488 10.9125 32.6266C10.9125 31.0378 11.3326 30.6201 12.9386 30.6119H24.4029C23.8095 30.1439 23.1788 29.7249 22.5169 29.3589C19.2884 27.1313 15.747 26.4598 11.8102 26.6563C8.90298 26.7955 6.92637 28.4335 6.94284 31.521C7.01697 48.2852 6.94284 65.0576 6.94284 81.8218L7.00049 83.083ZM97.1833 86.1295C96.7139 86.1295 96.4915 86.0722 96.2691 86.0722C85.1342 86.0722 74.0021 86.0722 62.8727 86.0722C62.222 86.0722 62.0491 86.3179 61.8267 86.8912C61.4283 88.2219 60.6189 89.3943 59.5133 90.2424C58.4077 91.0905 57.0619 91.5712 55.6663 91.6166C51.8613 91.7149 48.0481 91.7476 44.2514 91.6166C42.8844 91.5956 41.5599 91.141 40.4709 90.3189C39.382 89.4969 38.5857 88.3505 38.198 87.0468C38.1434 86.7421 37.9722 86.4703 37.7203 86.2886C37.4685 86.1068 37.1555 86.0293 36.8473 86.0722C25.9101 86.0722 14.9728 86.0722 4.03558 86.0722H3.03904C2.33075 90.9205 5.20507 94.3438 9.88305 94.3438C36.6332 94.3438 63.3833 94.3438 90.1334 94.3438C93.4278 94.3438 95.8985 92.6239 96.7221 89.7494C96.9667 88.5559 97.1209 87.3459 97.1833 86.1295ZM29.8798 33.2817C29.8798 35.3537 29.8798 37.2537 29.8798 39.1619C29.8893 41.3113 30.553 43.4076 31.7834 45.1748C33.0138 46.9421 34.7533 48.2977 36.7732 49.0632C42.3802 51.3247 48.4821 52.098 54.4803 51.3072C56.7205 51.0287 58.9194 50.4309 61.069 49.9968V38.0645C58.8618 39.2274 56.7781 40.3494 54.678 41.4222C53.2737 42.193 51.6978 42.602 50.0938 42.612C48.4898 42.6221 46.9089 42.2327 45.495 41.4796C43.7243 40.5869 41.9865 39.6451 40.2322 38.7279L29.8798 33.2817ZM64.0669 48.6865C66.4537 47.5603 68.3287 45.5848 69.3214 43.1503C70.6473 39.9891 69.9473 36.6886 70.1449 33.2735C68.1107 34.3464 66.2741 35.2964 64.454 36.2873C64.345 36.3666 64.2547 36.4684 64.1893 36.5857C64.1239 36.7031 64.0849 36.8332 64.0751 36.9671C64.0586 40.8162 64.0669 44.6572 64.0669 48.6865ZM59.01 86.1459H40.9899C41.6653 87.6528 42.703 88.6028 44.2843 88.6683C48.1277 88.7502 51.9711 88.7502 55.8145 88.6683C57.3134 88.6356 58.3512 87.6446 59.01 86.1459ZM62.5926 57.8753C61.942 58.9809 61.3408 59.9718 60.7808 60.9791C60.0642 62.2731 60.7808 63.3787 62.2303 63.436C62.5568 63.4524 62.8839 63.4524 63.2103 63.436C63.4635 63.4352 63.7122 63.3695 63.9325 63.2454C64.1527 63.1212 64.3371 62.9427 64.4679 62.7271C64.5986 62.5115 64.6713 62.2661 64.679 62.0144C64.6867 61.7628 64.629 61.5134 64.5116 61.2903C63.9763 60.1356 63.3009 59.0709 62.5926 57.8753Z" fill="white"/>
<path d="M34.3765 69.5537H48.2457C48.6036 69.5358 48.9625 69.555 49.3164 69.611C49.9917 69.7584 50.5024 70.2416 50.3706 70.905C50.2101 71.4655 49.8757 71.9613 49.4152 72.3218C49.1846 72.5347 48.674 72.4692 48.2869 72.4692H20.2849C19.8978 72.4692 19.3872 72.5265 19.1566 72.3136C18.7448 71.9369 18.2342 71.3554 18.2671 70.8968C18.3001 70.4382 18.9425 69.9632 19.3625 69.6274C19.6014 69.4472 20.0543 69.5537 20.4085 69.5537H34.3765Z" fill="white"/>
<path d="M29.402 66.3514H20.0461C18.8931 66.3514 18.2177 65.8273 18.193 64.9428C18.1683 64.0583 18.8684 63.4441 20.0543 63.4441C26.3246 63.4441 32.5948 63.4441 38.8651 63.4441C40.0263 63.4441 40.677 63.96 40.7017 64.8527C40.7264 65.7454 40.0675 66.3514 38.8568 66.3514H29.402Z" fill="white"/>
</g>
<defs>
<clipPath id="clip0_1021_5759">
<rect width="100" height="97.2603" fill="white" transform="translate(0 0.0153809)"/>
</clipPath>
</defs>
</svg>
