<svg width="51" height="51" viewBox="0 0 51 51" fill="none" xmlns="http://www.w3.org/2000/svg">
<g clip-path="url(#clip0_121_5859)">
<path d="M24.2324 35.5669H27.3574C28.6496 35.5669 29.7012 34.5153 29.7012 33.2231V28.5021C29.7012 27.6591 29.0152 26.9731 28.1723 26.9731H23.4168C22.5746 26.9731 21.8887 27.6591 21.8887 28.5021V33.2231C21.8887 34.5153 22.9402 35.5669 24.2324 35.5669Z" fill="white"/>
<path d="M43.7637 36.3481V32.4419C41.4566 32.4419 39.4418 31.1817 38.359 29.3169H38.2949C37.0027 29.3169 35.9512 30.3685 35.9512 31.6606V36.3481C35.9512 37.6403 37.0027 38.6919 38.2949 38.6919H41.4199C42.7121 38.6919 43.7637 37.6403 43.7637 36.3481Z" fill="white"/>
<path d="M38.2947 40.2544C38.1361 40.2544 37.9854 40.2263 37.8314 40.2075L37.626 40.8247L37.7424 40.9411C38.8721 42.0708 40.8424 42.0708 41.9721 40.9411L42.0885 40.8247L41.883 40.2075C41.7291 40.2263 41.5783 40.2544 41.4197 40.2544H38.2947Z" fill="white"/>
<path d="M21.7465 23.6208L20.0801 24.4544C19.2684 24.8599 18.7637 25.6763 18.7637 26.5833C18.7637 26.7786 18.7879 26.9724 18.8348 27.1599L19.0527 28.0317C19.4426 27.8567 19.8715 27.7544 20.3262 27.7544H20.4277C20.7645 26.4122 21.9715 25.4106 23.4168 25.4106H28.1723C29.6176 25.4106 30.8254 26.4122 31.1613 27.7544H31.2637C31.7184 27.7544 32.1473 27.8567 32.5371 28.0317L32.6832 27.4481C32.7777 27.07 32.8262 26.6794 32.8262 26.288C32.8262 23.6505 30.6801 21.5044 28.0426 21.5044H24.359C23.2184 21.5044 22.2098 22.2317 21.8488 23.3138L21.7465 23.6208Z" fill="white"/>
<path d="M11.7322 47.8263C12.6104 47.0364 13.276 46.0427 13.6674 44.9419H9.79785C10.1885 46.0427 10.8541 47.0364 11.7322 47.8263Z" fill="white"/>
<path d="M17.3191 27.5403C17.3043 27.481 17.2973 27.4192 17.2855 27.3591C15.9418 25.6255 13.9301 24.6294 11.7324 24.6294C7.85586 24.6294 4.70117 27.7841 4.70117 31.6606V36.9396C4.70117 38.4677 5.18555 39.9497 6.07539 41.1778C6.69414 40.8333 7.36055 40.5575 8.06836 40.3669L8.61523 39.2731C7.1957 38.2841 6.26367 36.6427 6.26367 34.7856V31.7872C6.26367 29.9731 7.41992 28.3685 9.1418 27.7942L9.7082 27.6052L10.0395 28.1021C10.9098 29.4075 12.2973 30.2825 13.848 30.5036C15.7598 30.7771 17.2012 32.4396 17.2012 34.3708V34.7856C17.2012 36.6427 16.2691 38.2841 14.8496 39.2731L15.3965 40.3669C16.0941 40.5552 16.759 40.8286 17.3848 41.1786C17.4848 41.0278 17.5926 40.8825 17.7004 40.7372L17.6895 40.7302C18.3926 39.5903 18.7637 38.2794 18.7637 36.9396V33.5692C17.834 33.0271 17.2012 32.0302 17.2012 30.8786C17.2012 30.2419 17.3949 29.6505 17.723 29.156L17.3191 27.5403Z" fill="white"/>
<path d="M7.82598 42.1021C5.27598 43.0583 3.47207 45.356 3.18066 48.0669H9.79707C8.5416 46.5411 7.82598 44.6036 7.82598 42.5981V42.1021Z" fill="white"/>
<path d="M15.6387 34.7856V34.3708C15.6387 33.2122 14.7738 32.2146 13.6262 32.0505C11.8559 31.7974 10.2504 30.881 9.1332 29.5044C8.33398 29.9724 7.82617 30.8333 7.82617 31.7872V34.7856C7.82617 36.9395 9.57852 38.6919 11.7324 38.6919C13.8863 38.6919 15.6387 36.9395 15.6387 34.7856Z" fill="white"/>
<path d="M31.2551 40.188L30.0645 42.9458L25.7949 40.3841L21.5254 42.9458L20.3348 40.188C18.3941 41.8427 17.2012 44.2966 17.2012 46.9294V48.0669H34.3887V46.9294C34.3887 44.2966 33.1957 41.8427 31.2551 40.188Z" fill="white"/>
<path d="M24.1724 39.5356L22.6411 38.77C22.2942 38.9153 21.9583 39.0778 21.6372 39.2638L22.2521 40.688L24.1724 39.5356Z" fill="white"/>
<path d="M15.6386 42.5982C15.6386 44.6037 14.9229 46.5412 13.6675 48.0669H15.6386V46.9294C15.6386 45.3841 15.9886 43.8912 16.6214 42.5396C16.3058 42.3638 15.9769 42.2162 15.6386 42.0896V42.5982Z" fill="white"/>
<path d="M10.0121 39.9731L9.38867 41.22V42.5981C9.38867 42.8606 9.40586 43.1208 9.43477 43.3794H14.0293C14.059 43.1208 14.0762 42.8606 14.0762 42.5981V41.22L13.4527 39.9731C12.9105 40.1528 12.334 40.2544 11.7324 40.2544C11.1309 40.2544 10.5543 40.1528 10.0121 39.9731Z" fill="white"/>
<path d="M43.2065 41.916L43.0769 42.0457C42.2175 42.9059 41.0737 43.3793 39.8573 43.3793C38.6409 43.3793 37.4972 42.9059 36.6378 42.0457L36.5081 41.916C35.9714 42.0691 35.4612 42.2863 34.9761 42.5566C35.6034 43.9035 35.9511 45.3902 35.9511 46.9293V48.0668H48.4089C48.0964 45.1621 46.0511 42.7277 43.2065 41.916Z" fill="white"/>
<path d="M46.8887 34.0044C46.8887 33.1427 46.1879 32.4419 45.3262 32.4419V35.5669C46.1879 35.5669 46.8887 34.8661 46.8887 34.0044Z" fill="white"/>
<path d="M45.3261 23.0669C44.4644 23.0669 43.7636 23.7677 43.7636 24.6294C43.7636 25.4911 44.4644 26.1919 45.3261 26.1919V27.7544C43.6026 27.7544 42.2011 26.3528 42.2011 24.6294C42.2011 24.2317 42.2831 23.8536 42.419 23.5036C41.7245 23.2169 40.9769 23.0669 40.2214 23.0669C38.6839 23.0669 37.2386 23.6661 36.1511 24.7528L35.569 25.3349L35.3589 25.3872C34.9979 25.4771 34.6722 25.6411 34.3651 25.8396C34.3761 25.9888 34.3886 26.1364 34.3886 26.288C34.3886 26.8075 34.3245 27.3255 34.1987 27.8278L33.8667 29.1567C34.1948 29.6513 34.3886 30.2427 34.3886 30.8794H34.4675C34.7933 29.2802 36.1042 28.0489 37.7339 27.8114C37.5948 27.2935 37.5136 26.7528 37.5136 26.1919H39.0761C39.0761 28.7771 41.1784 30.8794 43.7636 30.8794C46.3487 30.8794 48.4511 28.7771 48.4511 26.1919C48.4511 24.4685 47.0495 23.0669 45.3261 23.0669Z" fill="white"/>
<path d="M27.9646 37.5146L27.8208 37.0825C27.6669 37.1013 27.5161 37.1294 27.3575 37.1294H24.2325C24.0739 37.1294 23.9231 37.1013 23.7692 37.0825L23.6255 37.5146L25.795 38.5997L27.9646 37.5146Z" fill="white"/>
<path d="M32.8262 30.8794C32.8262 30.0177 32.1254 29.3169 31.2637 29.3169V32.4419C32.1254 32.4419 32.8262 31.7411 32.8262 30.8794Z" fill="white"/>
<path d="M32.9113 33.5231C32.8605 33.6786 32.8262 33.838 32.8262 34.0044C32.8262 34.8661 33.527 35.5669 34.3887 35.5669V32.4419C34.2223 32.4419 34.0629 32.4763 33.9074 32.5271C33.6551 32.931 33.3152 33.2708 32.9113 33.5231Z" fill="white"/>
<path d="M20.3262 32.4419V29.3169C19.4645 29.3169 18.7637 30.0177 18.7637 30.8794C18.7637 31.7411 19.4645 32.4419 20.3262 32.4419Z" fill="white"/>
<path d="M29.9526 39.263C29.6315 39.0779 29.2956 38.9146 28.9487 38.7693L27.4175 39.5349L29.3378 40.6873L29.9526 39.263Z" fill="white"/>
<path d="M43.802 17.1786L41.6488 15.0255L42.7535 13.9208L43.7254 14.8927L48.9676 9.00439H43.4613C39.9145 6.13721 35.7168 4.17939 31.2637 3.29971V2.36846L25.052 9.36611L22.8988 7.21299L24.0035 6.1083L24.9754 7.08018L30.2176 1.19189H20.3262V3.30361C15.0645 4.34033 10.2551 6.83564 6.35742 10.5669H1.57617V21.5044H12.5137V11.7435L6.30195 18.7411L4.14883 16.588L5.25352 15.4833L6.22539 16.4552L11.4676 10.5669H8.67773C12.0395 7.72705 16.0215 5.79971 20.3262 4.89971V12.1294H31.2637V4.89502C34.6934 5.61377 37.9535 7.01377 40.8441 9.00439H39.0762V19.9419H50.0137V10.181L43.802 17.1786Z" fill="white"/>
<path d="M25.0137 15.2544H26.5762V16.8169H25.0137V15.2544Z" fill="white"/>
<path d="M28.1387 15.2544H29.7012V16.8169H28.1387V15.2544Z" fill="white"/>
<path d="M21.8887 15.2544H23.4512V16.8169H21.8887V15.2544Z" fill="white"/>
</g>
<defs>
<clipPath id="clip0_121_5859">
<rect width="50" height="50" fill="white" transform="translate(0.794922 0.410645)"/>
</clipPath>
</defs>
</svg>
