<svg width="52" height="52" viewBox="0 0 52 52" fill="none" xmlns="http://www.w3.org/2000/svg">
<g clip-path="url(#clip0_0_13678)">
<path d="M16.9855 16.5815C11.9458 21.6818 11.9458 29.9511 16.9855 35.0514C22.0252 40.1517 30.1962 40.1517 35.2359 35.0514C40.2756 29.9511 40.2756 21.6818 35.2359 16.5815C30.1962 11.4812 22.0252 11.4812 16.9855 16.5815Z" stroke="white" strokeWidth="1.5" stroke-miterlimit="22.9256" stroke-linecap="round" stroke-linejoin="round"/>
<path fill-rule="evenodd" clip-rule="evenodd" d="M26.1104 50.5143L23.2873 46.4371C21.6934 44.1353 18.8779 43.2278 16.2622 44.1729L11.766 45.7974L11.85 40.8196C11.8975 38.0092 10.1467 35.6002 7.48177 34.8089L2.90063 33.4485L5.85973 29.4715C7.53038 27.2261 7.51314 24.2356 5.8167 22.0101L2.90063 18.1845L7.60448 16.7271C10.2602 15.9043 11.9831 13.4748 11.9032 10.6652L11.766 5.83555L16.4179 7.45462C19.0443 8.36874 21.8492 7.42811 23.4165 5.10763L26.1104 1.11868L28.9335 5.19583C30.5274 7.49767 33.3429 8.40514 35.9586 7.46007L40.4549 5.83555L40.3708 10.8133C40.3234 13.6237 42.0741 16.0327 44.7391 16.8241L49.3202 18.1845L46.3611 22.1616C44.6904 24.407 44.7077 27.3974 46.4041 29.623L49.3202 33.4485L44.6163 34.9059C41.9607 35.7287 40.2377 38.1581 40.3176 40.9677L40.4549 45.7974L35.8029 44.1783C33.1765 43.2642 30.3716 44.205 28.8044 46.5254L26.1104 50.5143Z" stroke="#33CCCC" strokeWidth="1.5" stroke-miterlimit="10" stroke-linecap="round" stroke-linejoin="round"/>
<path d="M26.5957 20.7953L23.6837 25.8165H28.5371H23.6837H28.5371L25.625 30.8377" stroke="white" strokeWidth="1.5" stroke-miterlimit="10" stroke-linecap="round" stroke-linejoin="round"/>
</g>
<defs>
<clipPath id="clip0_0_13678">
<rect width="51" height="51.6134" fill="white" transform="matrix(-1 0 0 -1 51.6104 51.6232)"/>
</clipPath>
</defs>
</svg>
