<svg width="43" height="43" viewBox="0 0 43 43" fill="none" xmlns="http://www.w3.org/2000/svg">
<g clip-path="url(#clip0_4_1495)">
<path d="M29.0135 22.6811V20.0144C29.0135 19.4759 28.9308 19.3734 28.3936 19.1682V16.4118C28.3936 15.9888 28.1457 15.7195 27.7738 15.7195C27.4019 15.7195 27.1402 15.9759 27.1402 16.399V16.9888C26.9279 16.9023 26.7288 16.7902 26.5479 16.6554C26.1347 16.2323 25.749 15.7836 25.3633 15.3734C24.8519 14.9494 24.4232 14.4462 24.0961 13.8862C23.9638 13.2441 23.936 12.5872 24.0135 11.9375C24.0135 11.3477 24.0135 11.2452 23.3385 11.0529C23.1457 9.3862 22.9529 7.70671 22.7876 6.04004C22.7876 5.62979 22.6085 5.34773 22.1402 5.27081V4.16825C22.1264 3.77081 21.8785 3.52722 21.5066 3.52722C21.4233 3.53211 21.3419 3.55226 21.267 3.58651C21.1921 3.62076 21.1253 3.66844 21.0702 3.72681C21.0152 3.78518 20.9731 3.85309 20.9463 3.92664C20.9196 4.0002 20.9087 4.07794 20.9143 4.15543V5.24517C20.756 5.26169 20.6085 5.32778 20.4958 5.43261C20.3832 5.53743 20.3122 5.67477 20.2945 5.82209C20.2945 6.30927 20.1843 6.78363 20.1429 7.27081L19.7297 11.04C19.165 11.1811 19.041 11.3221 19.041 11.8349C19.041 12.3477 19.041 13.0016 19.041 13.5785C19.0274 13.7546 18.9605 13.9235 18.8482 14.0657C18.0906 14.9375 17.3055 15.7965 16.5341 16.6298C16.4734 16.7262 16.3762 16.798 16.2615 16.8312C16.1469 16.8644 16.0231 16.8566 15.9143 16.8093C15.949 16.6183 15.949 16.4233 15.9143 16.2323C15.8655 16.1299 15.7953 16.0374 15.7079 15.9604C15.6204 15.8834 15.5173 15.8233 15.4047 15.7836C15.2966 15.7629 15.1849 15.7647 15.0777 15.7891C14.9705 15.8135 14.8704 15.8598 14.7848 15.9247C14.6635 16.0756 14.6048 16.2623 14.6195 16.4503C14.6195 17.3606 14.6195 18.2708 14.6195 19.1682C14.0686 19.3862 13.9997 19.4759 13.9997 20.0529C14.0272 22.758 14.0272 25.5529 14.0272 28.3221V28.6939V30.1811C14.0339 30.2193 14.0339 30.2582 14.0272 30.2964C14.0272 30.4247 14.0272 30.5529 14.0272 30.6811V32.3349C14.0272 32.9759 14.2201 33.1426 14.9088 33.1426H15.2669V37.2067V38.8093C15.2669 39.2708 15.5011 39.5272 15.8867 39.5272C16.2724 39.5272 16.5204 39.258 16.5204 38.7964V34.9503H26.5204V38.9247C26.5204 39.2195 26.6305 39.4759 26.9474 39.5272C27.0577 39.5465 27.1711 39.5438 27.2803 39.5195C27.3895 39.4952 27.4919 39.4498 27.581 39.3862C27.707 39.2222 27.7701 39.0235 27.76 38.8221C27.76 37.0785 27.76 35.3349 27.76 33.5913V33.1426H28.0493C28.8757 33.1426 29.0135 33.0016 29.0135 32.2195V30.2323V22.758V22.6811ZM21.4653 6.4503H21.5755C21.7407 7.97594 21.906 9.5144 22.0851 11.0529H20.9143C21.1347 9.50158 21.3 7.97594 21.4653 6.4503ZM20.2945 12.258H22.76V13.3734H20.2945V12.258ZM19.9088 14.6939C19.9972 14.6132 20.1156 14.5673 20.2394 14.5657H22.8013C22.9251 14.5673 23.0435 14.6132 23.1319 14.6939L25.0465 16.7452C25.0517 16.7835 25.0517 16.8222 25.0465 16.8606H17.9529L19.9088 14.6939ZM15.9281 18.0657H27.1264V19.1811H15.9281V18.0657ZM26.4928 33.6939H16.5479V33.1554H26.4928V33.6939ZM27.8013 31.9503H15.4047V20.4118H27.8013V31.9503Z" fill="#6E7A82"/>
<path d="M19.6609 37.7835V38.9117C19.6647 38.9913 19.651 39.0707 19.6209 39.1453C19.5907 39.2198 19.5446 39.2879 19.4854 39.3454C19.4262 39.4029 19.3551 39.4487 19.2763 39.4799C19.1976 39.5111 19.1129 39.5272 19.0273 39.5271C18.9423 39.5273 18.8582 39.5112 18.7802 39.4798C18.7022 39.4484 18.6319 39.4025 18.5738 39.3448C18.5156 39.287 18.4709 39.2188 18.4423 39.1443C18.4137 39.0698 18.4018 38.9906 18.4075 38.9117C18.4075 38.1681 18.4075 37.4117 18.4075 36.6681C18.3997 36.5888 18.41 36.5088 18.4378 36.4334C18.4657 36.358 18.5103 36.289 18.5689 36.2308C18.6274 36.1727 18.6986 36.1267 18.7776 36.0961C18.8566 36.0654 18.9417 36.0506 19.0273 36.0527C19.1117 36.0544 19.195 36.0717 19.2721 36.1037C19.3492 36.1357 19.4187 36.1817 19.4764 36.239C19.5341 36.2963 19.579 36.3638 19.6083 36.4375C19.6377 36.5112 19.6509 36.5896 19.6472 36.6681C19.6609 37.0399 19.6609 37.4117 19.6609 37.7835Z" fill="#6E7A82"/>
<path d="M22.1402 37.8091C22.1402 38.1681 22.1402 38.5399 22.1402 38.8989C22.1402 39.0519 22.0749 39.1986 21.9587 39.3068C21.8424 39.415 21.6848 39.4758 21.5204 39.4758C21.356 39.4758 21.1983 39.415 21.0821 39.3068C20.9658 39.1986 20.9005 39.0519 20.9005 38.8989V36.6809C20.893 36.602 20.9029 36.5225 20.9298 36.4474C20.9567 36.3722 20.9999 36.303 21.0567 36.2441C21.1136 36.1851 21.1829 36.1377 21.2603 36.1048C21.3377 36.0719 21.4215 36.0541 21.5066 36.0527C21.5945 36.0507 21.682 36.0659 21.7633 36.0971C21.8446 36.1283 21.9181 36.1749 21.979 36.234C22.0399 36.2931 22.0869 36.3634 22.117 36.4403C22.1472 36.5173 22.1597 36.5992 22.154 36.6809C22.154 37.0655 22.1402 37.4373 22.1402 37.8091Z" fill="#6E7A82"/>
<path d="M23.3936 37.758V36.6683C23.3802 36.5844 23.3864 36.4988 23.4117 36.4174C23.4371 36.336 23.481 36.2606 23.5405 36.1964C23.6 36.1322 23.6736 36.0807 23.7564 36.0454C23.8392 36.0101 23.9292 35.9918 24.0203 35.9918C24.1114 35.9918 24.2014 36.0101 24.2842 36.0454C24.367 36.0807 24.4407 36.1322 24.5002 36.1964C24.5596 36.2606 24.6036 36.336 24.6289 36.4174C24.6543 36.4988 24.6604 36.5844 24.647 36.6683V38.9118C24.6527 38.9908 24.6409 39.07 24.6123 39.1444C24.5837 39.2189 24.5389 39.2872 24.4808 39.3449C24.4227 39.4026 24.3524 39.4486 24.2744 39.4799C24.1963 39.5113 24.1122 39.5274 24.0272 39.5272C23.9416 39.5273 23.8569 39.5112 23.7782 39.48C23.6995 39.4488 23.6284 39.403 23.5692 39.3455C23.5099 39.288 23.4639 39.2199 23.4337 39.1454C23.4035 39.0709 23.3899 38.9914 23.3936 38.9118V37.758Z" fill="#6E7A82"/>
<path d="M21.5617 20.9503C20.4512 20.9452 19.3641 21.2473 18.4382 21.8181C17.5124 22.3889 16.7896 23.2028 16.3615 24.1566C15.9333 25.1103 15.8192 26.1609 16.0335 27.1751C16.2478 28.1894 16.7809 29.1215 17.5652 29.8533C18.3495 30.5851 19.3496 31.0836 20.4388 31.2856C21.5279 31.4875 22.6569 31.3839 23.6826 30.9877C24.7084 30.5916 25.5846 29.9208 26.2002 29.0605C26.8157 28.2002 27.1429 27.1891 27.1402 26.1554C27.133 24.7792 26.5434 23.4611 25.4992 22.4868C24.4549 21.5125 23.0402 20.9604 21.5617 20.9503ZM21.5617 30.2324C20.6993 30.2323 19.8562 29.9946 19.1387 29.5492C18.4213 29.1037 17.8617 28.4705 17.5304 27.7294C17.1991 26.9883 17.111 26.1724 17.2773 25.3848C17.4436 24.5971 17.8567 23.8729 18.4646 23.3035C19.0725 22.7342 19.8479 22.3451 20.6931 22.1854C21.5383 22.0257 22.4153 22.1025 23.2136 22.4062C24.012 22.7099 24.6958 23.2268 25.1789 23.8917C25.6619 24.5567 25.9226 25.3399 25.9281 26.1426C25.9317 26.6785 25.8215 27.2097 25.6037 27.7058C25.3858 28.2018 25.0648 28.6528 24.659 29.033C24.2532 29.4131 23.7706 29.7147 23.239 29.9206C22.7075 30.1264 22.1374 30.2324 21.5617 30.2324Z" fill="#6E7A82"/>
<path d="M22.1402 25.5913H23.3247C23.4125 25.5842 23.5008 25.5942 23.5842 25.6206C23.6675 25.647 23.744 25.6893 23.8088 25.7448C23.8736 25.8003 23.9253 25.8678 23.9605 25.9429C23.9958 26.018 24.0138 26.0991 24.0135 26.1811C24.0121 26.2631 23.9923 26.344 23.9554 26.4186C23.9185 26.4931 23.8653 26.5597 23.7991 26.614C23.733 26.6683 23.6554 26.7091 23.5714 26.7339C23.4873 26.7587 23.3986 26.7669 23.311 26.758H21.603C21.5092 26.7662 21.4145 26.7548 21.326 26.7246C21.2375 26.6945 21.1574 26.6463 21.0914 26.5837C21.0254 26.521 20.9753 26.4455 20.9446 26.3625C20.914 26.2796 20.9036 26.1913 20.9143 26.1041V23.3477C20.9143 23.1947 20.9796 23.048 21.0958 22.9398C21.2121 22.8316 21.3697 22.7708 21.5341 22.7708C21.6985 22.7708 21.8562 22.8316 21.9724 22.9398C22.0886 23.048 22.1539 23.1947 22.1539 23.3477C22.1539 24.04 22.1402 24.8093 22.1402 25.5913Z" fill="#6E7A82"/>
</g>
<defs>
<clipPath id="clip0_4_1495">
<rect width="15" height="36" fill="white" transform="translate(14.0272 3.52722)"/>
</clipPath>
</defs>
</svg>
