<svg width="30" height="30" viewBox="0 0 30 30" fill="none" xmlns="http://www.w3.org/2000/svg">
<path d="M23 18.0002C23 22.2547 20.3819 24.1216 18.3588 24.7512C17.9274 24.8854 17.6438 24.3825 17.9019 24.0116C18.7823 22.7464 19.8 20.8161 19.8 19.0002C19.8 17.0496 18.1559 14.7467 16.8721 13.3263C16.5786 13.0016 16.0667 13.2164 16.0507 13.6539C15.9976 15.1031 15.7689 17.042 14.7828 18.5616C14.6241 18.8062 14.2872 18.8264 14.1063 18.5977C13.7982 18.208 13.4901 17.7267 13.182 17.3464C13.016 17.1416 12.716 17.1388 12.5246 17.32C11.7783 18.0267 10.7333 19.1288 10.7333 20.5002C10.7333 21.4301 11.0936 22.405 11.5001 23.1893C11.7237 23.6208 11.3261 24.1402 10.8957 23.9144C9.11307 22.9789 7 21.0838 7 18.0002C7 14.8538 11.3103 10.495 12.9561 6.37712C13.2157 5.72733 14.0161 5.42199 14.5727 5.84603C17.9439 8.41409 23 13.3783 23 18.0002Z" fill="#DEFA8E"/>
</svg>
