<svg width="46" height="46" viewBox="0 0 46 46" fill="none" xmlns="http://www.w3.org/2000/svg">
<g clip-path="url(#clip0_0_13540)">
<path fill-rule="evenodd" clip-rule="evenodd" d="M43.8866 34.8498H19.5409C19.1893 34.8498 18.9257 34.5829 18.9257 34.2271C18.9257 33.8713 19.1893 33.6045 19.5409 33.6045H43.8866C44.2382 33.6045 44.5018 33.8713 44.5018 34.2271C44.5018 34.5829 44.2382 34.8498 43.8866 34.8498Z" fill="#1BE3B3"/>
<path fill-rule="evenodd" clip-rule="evenodd" d="M44.6776 31.4698H19.7167C19.3651 31.4698 19.1014 31.2029 19.1014 30.8471C19.1014 30.4913 19.3651 30.2245 19.7167 30.2245H43.9745C43.535 26.2218 38.1737 23.1087 31.6698 23.1087C26.7479 23.1087 22.3534 24.8876 20.4198 27.645C20.1561 27.9118 19.8046 28.0008 19.5409 27.8229C19.2772 27.5561 19.1893 27.2003 19.3651 26.9334C20.5077 25.4213 22.1776 24.176 24.287 23.1976C26.4843 22.3081 29.0331 21.8634 31.6698 21.8634C35.2733 21.8634 38.6132 22.7529 41.162 24.4429C43.7987 26.1329 45.2928 28.3566 45.2928 30.8471C45.2928 31.2029 45.0292 31.4698 44.6776 31.4698Z" fill="#1BE3B3"/>
<path fill-rule="evenodd" clip-rule="evenodd" d="M42.1288 43.2109H21.1229C20.244 43.2109 19.453 42.8551 18.7499 42.1435C18.4862 41.8766 18.4862 41.5208 18.7499 41.254C19.0135 40.9872 19.3651 40.9872 19.6288 41.254C20.0682 41.6987 20.5956 41.9656 21.1229 41.9656H42.1288C43.1835 41.9656 44.0624 41.0761 44.0624 40.0087V38.1408H19.3651C19.0135 38.1408 18.7499 37.874 18.7499 37.5182C18.7499 37.1624 19.0135 36.8956 19.3651 36.8956H44.6776C45.0292 36.8956 45.2928 37.1624 45.2928 37.5182V40.0087C45.2928 41.7877 43.8866 43.2109 42.1288 43.2109Z" fill="#1BE3B3"/>
<path fill-rule="evenodd" clip-rule="evenodd" d="M18.2225 43.2108H3.72058C2.84167 43.2108 2.13855 42.4993 2.13855 41.6098L1.17175 20.5292C1.17175 20.3513 1.25964 20.1734 1.34753 20.0845C1.43542 19.9955 1.61121 19.9066 1.78699 19.9066H20.1561C20.3319 19.9066 20.5077 19.9955 20.5956 20.0845C20.6835 20.1734 20.7714 20.3513 20.7714 20.5292L19.8046 41.6098C19.8046 42.4993 19.1014 43.2108 18.2225 43.2108ZM2.40222 21.1518L3.36902 41.6098C3.36902 41.7877 3.5448 41.9656 3.72058 41.9656H18.2225C18.3983 41.9656 18.5741 41.7877 18.5741 41.6098L19.5409 21.1518H2.40222Z" fill="white"/>
<path fill-rule="evenodd" clip-rule="evenodd" d="M19.7167 17.505H2.31433C1.96277 17.505 1.6991 17.2381 1.6991 16.8823C1.6991 12.7907 4.95105 9.49966 8.90613 9.49966H13.037C17.08 9.49966 20.3319 12.7907 20.3319 16.8823C20.3319 17.2381 20.0682 17.505 19.7167 17.505ZM2.92957 16.2597H19.1014C18.7499 13.1465 16.201 10.7449 13.037 10.7449H8.90613C5.82996 10.7449 3.28113 13.1465 2.92957 16.2597Z" fill="white"/>
<path fill-rule="evenodd" clip-rule="evenodd" d="M13.1248 26.1329C12.8612 26.1329 12.5975 25.955 12.5096 25.5992L11.5428 20.6181C11.4549 20.2623 11.7186 19.9955 12.0701 19.9065C12.3338 19.8176 12.6854 20.0844 12.7733 20.4402L13.7401 25.4213C13.8279 25.6881 13.5643 26.0439 13.2127 26.1329H13.1248ZM11.4549 17.505C11.1912 17.505 10.9276 17.3271 10.8397 16.9713L8.29084 3.89597C8.20295 3.62912 8.46662 3.27333 8.81818 3.18438C9.08185 3.09544 9.43342 3.36228 9.52131 3.71807L12.0701 16.7934C12.158 17.0602 11.8944 17.416 11.5428 17.505H11.4549Z" fill="white"/>
<path fill-rule="evenodd" clip-rule="evenodd" d="M19.8925 26.1329H2.05066C1.6991 26.1329 1.43542 25.866 1.43542 25.5102C1.43542 25.1544 1.6991 24.8876 2.05066 24.8876H19.8925C20.244 24.8876 20.5077 25.1544 20.5077 25.5102C20.5077 25.866 20.244 26.1329 19.8925 26.1329Z" fill="white"/>
<path fill-rule="evenodd" clip-rule="evenodd" d="M20.244 21.1518H1.6991C0.908081 21.1518 0.292847 20.5292 0.292847 19.7287V17.6829C0.292847 16.8823 0.908081 16.2597 1.6991 16.2597H20.244C21.035 16.2597 21.6503 16.8823 21.6503 17.6829V19.7287C21.6503 20.5292 21.035 21.1518 20.244 21.1518ZM1.6991 17.505C1.61121 17.505 1.52332 17.5939 1.52332 17.6829V19.7287C1.52332 19.8176 1.61121 19.9066 1.6991 19.9066H20.244C20.3319 19.9066 20.4198 19.8176 20.4198 19.7287V17.6829C20.4198 17.5939 20.3319 17.505 20.244 17.505H1.6991Z" fill="white"/>
</g>
<defs>
<clipPath id="clip0_0_13540">
<rect width="45" height="45.5412" fill="white" transform="translate(0.292847 0.427002)"/>
</clipPath>
</defs>
</svg>
