<svg width="201" height="39" viewBox="0 0 201 39" fill="none" xmlns="http://www.w3.org/2000/svg">
<g clip-path="url(#clip0_0_2129)">
<path d="M22.1274 5.27392H13.0491C11.7971 5.27392 10.7827 4.47681 10.7827 3.49282C10.7827 2.50883 11.7971 1.71173 13.0491 1.71173H22.1274C23.3794 1.71173 24.3937 2.50883 24.3937 3.49282C24.3937 4.47681 23.3794 5.27392 22.1274 5.27392Z" fill="white"/>
<path d="M12.1983 25.9859C5.46177 25.9859 0 20.552 0 13.8495C0 7.14564 5.45893 1.71033 12.1954 1.71033C18.932 1.71033 24.3923 7.1428 24.3937 13.8467V13.8495C24.3852 20.5491 18.9305 25.9774 12.1983 25.9859ZM12.1983 5.27393C7.43933 5.27393 3.58095 9.1122 3.57953 13.8481C3.57953 18.584 7.43649 22.4237 12.1954 22.4251C16.9544 22.4251 20.8128 18.5868 20.8142 13.8509C20.8085 9.11645 16.9544 5.27959 12.1983 5.27393Z" fill="white"/>
<path d="M12.1983 39C6.2727 38.9929 1.20787 34.7554 0.182097 28.9477C0.012795 27.9793 0.664395 27.0562 1.63753 26.8877C1.73996 26.8708 1.8424 26.8608 1.94625 26.8608C2.81837 26.8608 3.56245 27.4866 3.71041 28.3418C4.53273 33.0069 8.99861 36.1259 13.6864 35.3076C17.2603 34.6846 20.0602 31.8983 20.6861 28.3418C20.8341 27.4866 21.5782 26.8608 22.4503 26.8608C23.4391 26.8608 24.2415 27.6594 24.2401 28.6448C24.2401 28.7467 24.2315 28.8486 24.2145 28.9477C23.1887 34.7554 18.1238 38.9929 12.1983 39Z" fill="white"/>
<path d="M39.3236 32.0894C36.9477 32.0894 34.9104 31.6335 33.2131 30.7203C31.5144 29.8085 30.1984 28.506 29.2665 26.8155C28.3346 25.125 27.868 23.1287 27.868 20.8238C27.868 18.5188 28.3261 16.5607 29.2437 14.8547C30.16 13.1486 31.4233 11.8178 33.0324 10.8607C34.6401 9.90359 36.4825 9.42505 38.5568 9.42505C40.0293 9.42505 41.3595 9.6714 42.5475 10.1655C43.7354 10.6596 44.7498 11.3704 45.5921 12.2977C46.4329 13.2251 47.0731 14.3549 47.5084 15.6858C47.9438 17.0181 48.1629 18.5217 48.1629 20.1966C48.1629 20.6751 48.0206 21.0418 47.7347 21.2966C47.4487 21.5515 47.0361 21.6775 46.4941 21.6775H31.0705V19.0738H45.4569L44.6901 19.7024C44.6901 18.1465 44.4567 16.8227 43.9915 15.7311C43.5249 14.6395 42.8477 13.8084 41.9613 13.2407C41.0735 12.6729 39.9695 12.3883 38.6464 12.3883C37.2038 12.3883 35.9703 12.7253 34.9488 13.3978C33.9259 14.0703 33.1448 15.0133 32.6042 16.2252C32.0635 17.4371 31.7932 18.836 31.7932 20.4217V20.6907C31.7932 23.3836 32.4391 25.4181 33.7324 26.7943C35.0242 28.1704 36.8894 28.8585 39.325 28.8585C40.2868 28.8585 41.2713 28.7396 42.2786 28.4989C43.2859 28.2596 44.2547 27.825 45.188 27.1978C45.639 26.9288 46.0516 26.8013 46.4286 26.8169C46.8042 26.8325 47.1129 26.9514 47.3534 27.1765C47.5938 27.4016 47.7432 27.6706 47.8044 27.9849C47.8641 28.2993 47.8186 28.6362 47.6692 28.9944C47.5184 29.354 47.2324 29.6684 46.8127 29.9374C45.8211 30.6254 44.6403 31.1564 43.273 31.5301C41.9044 31.9039 40.5898 32.0908 39.3265 32.0908L39.3236 32.0894Z" fill="white"/>
<path d="M55.2878 31.9988C54.6561 31.9988 54.161 31.819 53.7997 31.4608C53.4397 31.1012 53.259 30.5787 53.259 29.8906V11.5785C53.259 10.8904 53.4397 10.3751 53.7997 10.0296C54.161 9.68557 54.6561 9.51426 55.2878 9.51426C55.9195 9.51426 56.4075 9.68699 56.7532 10.0296C57.0989 10.3737 57.2725 10.8904 57.2725 11.5785V15.2582L56.776 14.5843C57.4076 12.8782 58.4363 11.5927 59.8647 10.7248C61.2931 9.85688 62.9235 9.42365 64.7573 9.42365C66.5912 9.42365 67.9883 9.73796 69.1322 10.3666C70.2746 10.9952 71.1311 11.9523 71.703 13.2393C72.2735 14.5262 72.5595 16.1558 72.5595 18.1309V29.8892C72.5595 30.5773 72.3859 31.1012 72.0416 31.4594C71.6959 31.819 71.1922 31.9974 70.5307 31.9974C69.8691 31.9974 69.3584 31.8176 68.997 31.4594C68.6371 31.0998 68.4564 30.5773 68.4564 29.8892V18.3546C68.4564 16.4107 68.0808 14.9892 67.3282 14.0916C66.577 13.194 65.3734 12.7451 63.7202 12.7451C61.7953 12.7451 60.2545 13.337 59.0978 14.5177C57.9397 15.6999 57.3621 17.2927 57.3621 19.2975V29.8892C57.3621 31.2965 56.6707 31.9988 55.2878 31.9988Z" fill="white"/>
<path d="M81.0843 4.75713C80.2734 4.75713 79.6331 4.54051 79.1679 4.10586C78.7013 3.67262 78.4694 3.09638 78.4694 2.37857C78.4694 1.60129 78.7013 1.00948 79.1679 0.605968C79.6331 0.202461 80.2734 0 81.0843 0C81.9564 0 82.6094 0.202461 83.0462 0.605968C83.4816 1.00948 83.7007 1.60129 83.7007 2.37857C83.7007 3.09638 83.4816 3.67262 83.0462 4.10586C82.6109 4.5391 81.9564 4.75713 81.0843 4.75713ZM81.0843 31.9096C80.4526 31.9096 79.9575 31.7142 79.5961 31.3263C79.2362 30.9384 79.0555 30.3989 79.0555 29.7109V11.8036C79.0555 11.0858 79.2362 10.5407 79.5961 10.1655C79.9575 9.79177 80.4526 9.60488 81.0843 9.60488C81.716 9.60488 82.2566 9.79177 82.618 10.1655C82.9779 10.5407 83.1586 11.0858 83.1586 11.8036V29.7109C83.1586 30.3989 82.985 30.9384 82.6407 31.3263C82.295 31.7142 81.7757 31.9096 81.0843 31.9096Z" fill="white"/>
<path d="M91.7717 31.9988C91.14 31.9988 90.6449 31.819 90.2836 31.4608C89.9236 31.1012 89.7429 30.5787 89.7429 29.8906V11.5785C89.7429 10.8904 89.9236 10.3751 90.2836 10.0296C90.6449 9.68557 91.14 9.51426 91.7717 9.51426C92.4034 9.51426 92.8914 9.68699 93.2371 10.0296C93.5828 10.3737 93.7564 10.8904 93.7564 11.5785V15.2582L93.2599 14.5843C93.8915 12.8782 94.9201 11.5927 96.3485 10.7248C97.7769 9.85688 99.4074 9.42365 101.241 9.42365C103.075 9.42365 104.472 9.73796 105.616 10.3666C106.758 10.9952 107.615 11.9523 108.187 13.2393C108.757 14.5262 109.043 16.1558 109.043 18.1309V29.8892C109.043 30.5773 108.87 31.1012 108.525 31.4594C108.18 31.819 107.676 31.9974 107.015 31.9974C106.353 31.9974 105.842 31.8176 105.481 31.4594C105.121 31.0998 104.94 30.5773 104.94 29.8892V18.3546C104.94 16.4107 104.565 14.9892 103.812 14.0916C103.061 13.194 101.857 12.7451 100.204 12.7451C98.2792 12.7451 96.7384 13.337 95.5817 14.5177C94.4236 15.6999 93.846 17.2927 93.846 19.2975V29.8892C93.846 31.2965 93.1546 31.9988 91.7717 31.9988Z" fill="white"/>
<path d="M123.882 31.9988C123.31 31.9988 122.815 31.8487 122.394 31.55C121.973 31.2513 121.612 30.7727 121.311 30.1144L113.644 12.3417C113.434 11.8334 113.358 11.3704 113.418 10.9499C113.478 10.5308 113.681 10.1868 114.027 9.91779C114.373 9.64879 114.845 9.51428 115.448 9.51428C115.959 9.51428 116.365 9.63463 116.666 9.8739C116.966 10.1132 117.252 10.5323 117.523 11.1311L124.604 28.4989H123.342L130.603 11.1311C130.843 10.5323 131.121 10.1146 131.437 9.8739C131.753 9.63463 132.195 9.51428 132.767 9.51428C133.278 9.51428 133.676 9.64879 133.962 9.91779C134.248 10.1868 134.42 10.5308 134.481 10.9499C134.541 11.369 134.451 11.8178 134.211 12.2964L126.499 30.1144C126.228 30.7727 125.874 31.2513 125.439 31.55C125.002 31.8487 124.484 31.9988 123.882 31.9988Z" fill="white"/>
<path d="M140.929 4.75713C140.118 4.75713 139.478 4.54051 139.013 4.10586C138.546 3.67262 138.314 3.09638 138.314 2.37857C138.314 1.60129 138.546 1.00948 139.013 0.605968C139.478 0.202461 140.118 0 140.929 0C141.801 0 142.454 0.202461 142.891 0.605968C143.326 1.00948 143.545 1.60129 143.545 2.37857C143.545 3.09638 143.326 3.67262 142.891 4.10586C142.456 4.5391 141.801 4.75713 140.929 4.75713ZM140.929 31.9096C140.297 31.9096 139.802 31.7142 139.441 31.3263C139.081 30.9384 138.9 30.3989 138.9 29.7109V11.8036C138.9 11.0858 139.081 10.5407 139.441 10.1655C139.802 9.79177 140.297 9.60488 140.929 9.60488C141.561 9.60488 142.101 9.79177 142.463 10.1655C142.823 10.5407 143.003 11.0858 143.003 11.8036V29.7109C143.003 30.3989 142.83 30.9384 142.486 31.3263C142.14 31.7142 141.621 31.9096 140.929 31.9096Z" fill="white"/>
<path d="M151.616 31.9988C150.985 31.9988 150.49 31.819 150.128 31.4608C149.768 31.1012 149.588 30.5787 149.588 29.8906V11.5785C149.588 10.8904 149.768 10.3751 150.128 10.0296C150.49 9.68557 150.985 9.51426 151.616 9.51426C152.248 9.51426 152.736 9.68699 153.082 10.0296C153.428 10.3737 153.601 10.8904 153.601 11.5785V15.2582L153.105 14.5843C153.736 12.8782 154.765 11.5927 156.193 10.7248C157.622 9.85688 159.252 9.42365 161.086 9.42365C162.92 9.42365 164.317 9.73796 165.461 10.3666C166.603 10.9952 167.46 11.9523 168.032 13.2393C168.602 14.5262 168.888 16.1558 168.888 18.1309V29.8892C168.888 30.5773 168.715 31.1012 168.37 31.4594C168.024 31.819 167.521 31.9974 166.859 31.9974C166.198 31.9974 165.687 31.8176 165.326 31.4594C164.966 31.0998 164.785 30.5773 164.785 29.8892V18.3546C164.785 16.4107 164.409 14.9892 163.657 14.0916C162.906 13.194 161.702 12.7451 160.049 12.7451C158.124 12.7451 156.583 13.337 155.426 14.5177C154.268 15.6999 153.691 17.2927 153.691 19.2975V29.8892C153.691 31.2965 152.999 31.9988 151.616 31.9988Z" fill="white"/>
<path d="M184.899 32.0894C182.674 32.0894 180.751 31.6179 179.127 30.675C177.504 29.7321 176.256 28.4012 175.384 26.681C174.512 24.9608 174.077 22.9333 174.077 20.6001C174.077 18.8657 174.324 17.3097 174.821 15.9321C175.317 14.556 176.03 13.3822 176.963 12.4096C177.895 11.4383 179.029 10.6979 180.368 10.1882C181.705 9.6799 183.216 9.42505 184.901 9.42505C185.952 9.42505 187.066 9.58928 188.238 9.91917C189.411 10.2491 190.493 10.7871 191.485 11.5346C191.815 11.7739 192.026 12.05 192.117 12.3643C192.206 12.6786 192.213 13 192.139 13.3299C192.064 13.6597 191.913 13.9358 191.688 14.1595C191.464 14.3832 191.176 14.5121 190.832 14.5404C190.486 14.5701 190.118 14.4668 189.726 14.2261C189.005 13.6881 188.245 13.2987 187.449 13.0594C186.652 12.8202 185.892 12.6998 185.171 12.6998C184.058 12.6998 183.074 12.8796 182.217 13.2378C181.361 13.5975 180.64 14.1128 180.052 14.7867C179.466 15.4592 179.022 16.2833 178.722 17.2545C178.42 18.2272 178.271 19.357 178.271 20.6425C178.271 23.1868 178.871 25.1831 180.075 26.6343C181.277 28.0855 182.976 28.8104 185.171 28.8104C185.892 28.8104 186.643 28.6985 187.426 28.4734C188.207 28.2483 188.974 27.8674 189.725 27.3294C190.115 27.0902 190.476 26.9925 190.808 27.0378C191.138 27.0831 191.417 27.2176 191.641 27.4413C191.866 27.665 192.009 27.9354 192.07 28.2497C192.129 28.564 192.107 28.8854 192.003 29.2153C191.896 29.5452 191.678 29.8142 191.348 30.0237C190.387 30.7415 189.334 31.2654 188.191 31.5939C187.049 31.9223 185.951 32.088 184.899 32.088V32.0894Z" fill="white"/>
<path d="M198.384 4.75713C197.573 4.75713 196.932 4.54051 196.467 4.10586C196.001 3.67262 195.769 3.09638 195.769 2.37857C195.769 1.60129 196.001 1.00948 196.467 0.605968C196.932 0.202461 197.573 0 198.384 0C199.256 0 199.909 0.202461 200.346 0.605968C200.781 1.00948 201 1.60129 201 2.37857C201 3.09638 200.781 3.67262 200.346 4.10586C199.91 4.5391 199.256 4.75713 198.384 4.75713ZM198.384 31.9096C197.752 31.9096 197.257 31.7142 196.895 31.3263C196.536 30.9384 196.355 30.3989 196.355 29.7109V11.8036C196.355 11.0858 196.536 10.5407 196.895 10.1655C197.257 9.79177 197.752 9.60488 198.384 9.60488C199.015 9.60488 199.556 9.79177 199.917 10.1655C200.277 10.5407 200.458 11.0858 200.458 11.8036V29.7109C200.458 30.3989 200.284 30.9384 199.94 31.3263C199.594 31.7142 199.075 31.9096 198.384 31.9096Z" fill="white"/>
</g>
<defs>
<clipPath id="clip0_0_2129">
<rect width="201" height="39" fill="white"/>
</clipPath>
</defs>
</svg>
