<svg width="61" height="62" viewBox="0 0 61 62" fill="none" xmlns="http://www.w3.org/2000/svg">
<path d="M14.5217 46.9856H10.9752C10.7419 46.9856 10.5182 46.8918 10.3533 46.7249C10.1884 46.558 10.0957 46.3316 10.0957 46.0955V27.7251C10.0957 27.4891 10.1884 27.2627 10.3533 27.0958C10.5182 26.9289 10.7419 26.8351 10.9752 26.8351H14.5217C14.755 26.8351 14.9787 26.9289 15.1436 27.0958C15.3086 27.2627 15.4012 27.4891 15.4012 27.7251V46.0955C15.4012 46.3316 15.3086 46.558 15.1436 46.7249C14.9787 46.8918 14.755 46.9856 14.5217 46.9856ZM11.8547 45.2055H13.6422V28.6152H11.8547V45.2055Z" fill="#14FFD5"/>
<path d="M23.3614 46.9856H19.8143C19.581 46.9856 19.3573 46.8918 19.1924 46.7249C19.0275 46.558 18.9348 46.3316 18.9348 46.0955V27.7251C18.9348 27.4891 19.0275 27.2627 19.1924 27.0958C19.3573 26.9289 19.581 26.8351 19.8143 26.8351H23.3614C23.5946 26.8351 23.8183 26.9289 23.9833 27.0958C24.1482 27.2627 24.2409 27.4891 24.2409 27.7251V46.0955C24.2409 46.3316 24.1482 46.558 23.9833 46.7249C23.8183 46.8918 23.5946 46.9856 23.3614 46.9856ZM20.6938 45.2055H22.4819V28.6152H20.6938V45.2055Z" fill="#14FFD5"/>
<path d="M32.2018 46.9856H28.6552C28.422 46.9856 28.1983 46.8918 28.0334 46.7249C27.8684 46.558 27.7758 46.3316 27.7758 46.0955V27.7251C27.7758 27.4891 27.8684 27.2627 28.0334 27.0958C28.1983 26.9289 28.422 26.8351 28.6552 26.8351H32.2018C32.435 26.8351 32.6587 26.9289 32.8237 27.0958C32.9886 27.2627 33.0813 27.4891 33.0813 27.7251V46.0955C33.0813 46.3316 32.9886 46.558 32.8237 46.7249C32.6587 46.8918 32.435 46.9856 32.2018 46.9856ZM29.5347 45.2055H31.3223V28.6152H29.5347V45.2055Z" fill="#14FFD5"/>
<path d="M41.0414 46.9856H37.4944C37.2611 46.9856 37.0374 46.8918 36.8725 46.7249C36.7075 46.558 36.6149 46.3316 36.6149 46.0955V27.7251C36.6149 27.4891 36.7075 27.2627 36.8725 27.0958C37.0374 26.9289 37.2611 26.8351 37.4944 26.8351H41.0414C41.2747 26.8351 41.4984 26.9289 41.6633 27.0958C41.8283 27.2627 41.9209 27.4891 41.9209 27.7251V46.0955C41.9209 46.3316 41.8283 46.558 41.6633 46.7249C41.4984 46.8918 41.2747 46.9856 41.0414 46.9856ZM38.3738 45.2055H40.162V28.6152H38.3738V45.2055Z" fill="#14FFD5"/>
<path d="M49.8809 46.9856H46.3343C46.1011 46.9856 45.8774 46.8918 45.7124 46.7249C45.5475 46.558 45.4548 46.3316 45.4548 46.0955V27.7251C45.4548 27.4891 45.5475 27.2627 45.7124 27.0958C45.8774 26.9289 46.1011 26.8351 46.3343 26.8351H49.8809C50.1141 26.8351 50.3378 26.9289 50.5028 27.0958C50.6677 27.2627 50.7603 27.4891 50.7603 27.7251V46.0955C50.7603 46.3316 50.6677 46.558 50.5028 46.7249C50.3378 46.8918 50.1141 46.9856 49.8809 46.9856ZM47.2138 45.2055H49.0014V28.6152H47.2138V45.2055Z" fill="#14FFD5"/>
<path d="M52.3148 53.9577H8.5416C8.30834 53.9577 8.08464 53.8639 7.91971 53.697C7.75477 53.5301 7.66211 53.3037 7.66211 53.0676V49.6119C7.66211 49.3759 7.75477 49.1495 7.91971 48.9826C8.08464 48.8156 8.30834 48.7219 8.5416 48.7219H52.3148C52.5481 48.7219 52.7718 48.8156 52.9367 48.9826C53.1017 49.1495 53.1943 49.3759 53.1943 49.6119V53.0676C53.1943 53.3037 53.1017 53.5301 52.9367 53.697C52.7718 53.8639 52.5481 53.9577 52.3148 53.9577ZM9.42109 52.1775H51.4353V50.502H9.42109V52.1775Z" fill="white"/>
<path d="M52.3148 25.0928H8.5416C8.30834 25.0928 8.08464 24.999 7.91971 24.8321C7.75477 24.6652 7.66211 24.4388 7.66211 24.2027V20.747C7.6623 20.5878 7.70468 20.4316 7.78483 20.2946C7.86498 20.1577 7.97996 20.0449 8.11779 19.9682L30.0044 7.78545C30.1343 7.71318 30.28 7.67529 30.4282 7.67529C30.5764 7.67529 30.7222 7.71318 30.852 7.78545L52.7386 19.9682C52.8765 20.0449 52.9915 20.1577 53.0716 20.2946C53.1517 20.4316 53.1941 20.5878 53.1943 20.747V24.2033C53.1942 24.4392 53.1015 24.6655 52.9365 24.8323C52.7716 24.9991 52.548 25.0928 52.3148 25.0928ZM9.42109 23.3126H51.4353V21.2727L30.4282 9.58004L9.42109 21.2727V23.3126Z" fill="white"/>
<path d="M50.6993 50.5019H10.1593C9.92602 50.5019 9.70232 50.4081 9.53738 50.2412C9.37245 50.0743 9.27979 49.8479 9.27979 49.6118V46.0955C9.27979 45.8594 9.37245 45.6331 9.53738 45.4661C9.70232 45.2992 9.92602 45.2054 10.1593 45.2054H50.6993C50.9326 45.2054 51.1563 45.2992 51.3212 45.4661C51.4861 45.6331 51.5788 45.8594 51.5788 46.0955V49.6118C51.5788 49.8479 51.4861 50.0743 51.3212 50.2412C51.1563 50.4081 50.9326 50.5019 50.6993 50.5019ZM11.0388 48.7218H49.8198V46.9856H11.0388V48.7218Z" fill="white"/>
<path d="M50.6993 28.6086H10.1593C9.92602 28.6086 9.70232 28.5149 9.53738 28.3479C9.37245 28.181 9.27979 27.9546 9.27979 27.7186V24.2028C9.27979 23.9667 9.37245 23.7404 9.53738 23.5734C9.70232 23.4065 9.92602 23.3127 10.1593 23.3127H50.6993C50.9326 23.3127 51.1563 23.4065 51.3212 23.5734C51.4861 23.7404 51.5788 23.9667 51.5788 24.2028V27.7186C51.5788 27.9546 51.4861 28.181 51.3212 28.3479C51.1563 28.5149 50.9326 28.6086 50.6993 28.6086ZM11.0388 26.8285H49.8198V25.0929H11.0388V26.8285Z" fill="white"/>
<path d="M30.4293 21.8323C29.4808 21.8324 28.5536 21.5479 27.7649 21.0147C26.9762 20.4814 26.3615 19.7235 25.9984 18.8367C25.6354 17.9499 25.5404 16.9741 25.7254 16.0326C25.9104 15.0911 26.3672 14.2263 27.0378 13.5476C27.7085 12.8688 28.563 12.4066 29.4933 12.2194C30.4236 12.0321 31.3878 12.1283 32.2641 12.4957C33.1404 12.8631 33.8893 13.4852 34.4162 14.2834C34.9431 15.0815 35.2242 16.0199 35.2241 16.9798C35.2227 18.2663 34.717 19.4997 33.8181 20.4094C32.9192 21.3191 31.7005 21.8309 30.4293 21.8323ZM30.4293 13.9046C29.8287 13.9045 29.2416 14.0846 28.7422 14.4222C28.2428 14.7598 27.8535 15.2397 27.6236 15.8012C27.3937 16.3627 27.3335 16.9806 27.4506 17.5767C27.5677 18.1729 27.8568 18.7205 28.2814 19.1503C28.7061 19.5801 29.2471 19.8728 29.8361 19.9914C30.4252 20.1101 31.0357 20.0492 31.5906 19.8167C32.1454 19.5841 32.6197 19.1902 32.9534 18.6849C33.287 18.1795 33.4651 17.5854 33.4651 16.9776C33.4644 16.1629 33.1444 15.3818 32.5752 14.8057C32.006 14.2296 31.2343 13.9055 30.4293 13.9046Z" fill="white"/>
</svg>
