<svg width="31" height="31" viewBox="0 0 31 31" fill="none" xmlns="http://www.w3.org/2000/svg">
<path d="M25.2996 18.9437L22.7462 8.58005C22.2462 6.99181 21.3508 6.4624 20.2462 6.4624H11.2462C10.1416 6.4624 9.24622 6.99181 8.74622 8.58005L6.19286 18.9437M25.2996 18.9437C24.7 17.8139 23.5573 17.0506 22.2462 17.0506H9.24622C7.93515 17.0506 6.79245 17.8139 6.19286 18.9437M25.2996 18.9437C25.584 19.4796 25.7462 20.098 25.7462 20.7565C25.7462 22.8032 24.1792 24.4624 22.2462 24.4624H9.24622C7.31322 24.4624 5.74622 22.8032 5.74622 20.7565C5.74622 20.098 5.90843 19.4796 6.19286 18.9437" stroke="white" strokeWidth="1.5"/>
<path d="M21.7462 20.4624V21.4624" stroke="white" strokeWidth="1.5" stroke-linecap="round"/>
<path d="M19.2462 20.4624V21.4624" stroke="white" strokeWidth="1.5" stroke-linecap="round"/>
<path d="M16.7462 20.4624V21.4624" stroke="white" strokeWidth="1.5" stroke-linecap="round"/>
<path d="M14.2462 20.4624V21.4624" stroke="white" strokeWidth="1.5" stroke-linecap="round"/>
</svg>
