<svg width="53" height="52" viewBox="0 0 53 52" fill="none" xmlns="http://www.w3.org/2000/svg">
<g clip-path="url(#clip0_0_13532)">
<path d="M40.001 31.4529C37.4698 33.9269 34.5804 36.0317 30.5875 38.753" stroke="#14FFD5" strokeWidth="1.5" stroke-miterlimit="10" stroke-linecap="round" stroke-linejoin="round"/>
<path d="M46.0168 23.829C47.3488 21.0169 48.1706 18.711 48.1706 16.4217C48.1706 9.63511 42.6278 4.13354 35.7903 4.13354C32.0751 4.13354 28.7447 5.76007 26.4755 8.33217C24.2063 5.75997 20.8758 4.13354 17.1607 4.13354C10.3233 4.13354 4.78052 9.63511 4.78052 16.4217C4.78052 17.2036 4.85781 18.0066 5.01899 18.8306" stroke="#14FFD5" strokeWidth="1.5" stroke-miterlimit="10" stroke-linecap="round" stroke-linejoin="round"/>
<path d="M11.028 27.1717L23.4587 34.6677C23.4587 34.6677 25.2601 33.6105 27.421 33.2515C29.3645 32.9287 30.8133 34.9891 29.8282 36.6828L29.1149 37.909L31.4169 39.2282C32.6868 39.9559 33.0337 41.6198 32.1592 42.788L29.3678 46.5169C28.6252 47.5089 27.2514 47.7911 26.1731 47.1731L23.1772 45.4564C21.5903 44.547 20.288 43.2192 19.4147 41.6203L7.0871 34.9159C3.69908 33.0733 1.59278 29.5438 1.59278 25.7093C1.58221 23.0898 2.86769 20.4437 5.0195 18.8301C5.7671 22.2451 7.97435 25.3449 11.028 27.1717Z" stroke="white" strokeWidth="1.5" stroke-miterlimit="10" stroke-linecap="round" stroke-linejoin="round"/>
<path d="M47.7017 19.8128C50.0215 21.7714 51.3583 24.6419 51.3583 27.6648C51.3583 33.1649 46.5499 34.9185 42.7924 32.6527L25.0331 22.0126C23.2013 22.0613 21.3916 21.6058 19.8047 20.6964L16.8088 18.9796C15.7306 18.3616 15.2899 17.0397 15.7841 15.9053L17.6419 11.6414C18.2239 10.3055 19.8491 9.77182 21.119 10.4995L23.421 11.8187L24.1342 10.5925C25.1195 8.89873 27.6416 9.11395 28.3316 10.9459C29.0989 12.9829 29.0772 15.06 29.0772 15.06L46.0169 23.8289L47.7017 19.8128Z" stroke="white" strokeWidth="1.5" stroke-miterlimit="10" stroke-linecap="round" stroke-linejoin="round"/>
</g>
<defs>
<clipPath id="clip0_0_13532">
<rect width="52" height="51.6134" fill="white" transform="translate(0.475464 0.00982666)"/>
</clipPath>
</defs>
</svg>
