<svg width="48" height="49" viewBox="0 0 48 49" fill="none" xmlns="http://www.w3.org/2000/svg">
<path d="M37.6465 21.9059C37.3544 21.9058 37.0742 21.7883 36.8677 21.5792C36.6611 21.3702 36.545 21.0867 36.5449 20.791C36.6356 17.442 35.4114 14.1931 33.1404 11.7555C30.8694 9.31788 27.7365 7.89017 24.4277 7.78492C22.3054 7.81226 20.228 8.4084 18.4074 9.51262C16.5868 10.6168 15.0878 12.1897 14.0633 14.071C13.9195 14.3285 13.6805 14.5177 13.3989 14.5969C13.1172 14.6761 12.816 14.6389 12.5616 14.4934C12.3071 14.3479 12.1201 14.106 12.0418 13.821C11.9636 13.5359 12.0004 13.2311 12.1442 12.9736C13.3613 10.7489 15.1393 8.89038 17.297 7.58729C19.4548 6.2842 21.9152 5.58307 24.4277 5.5553C28.3208 5.66077 32.0139 7.32346 34.698 10.1792C37.3822 13.0349 38.8385 16.8508 38.748 20.791C38.748 21.0867 38.6319 21.3702 38.4253 21.5792C38.2188 21.7883 37.9386 21.9058 37.6465 21.9059Z" fill="white"/>
<path d="M24.4277 25.6219C23.6877 25.6126 22.9594 25.4336 22.2976 25.0985C21.6358 24.7633 21.0577 24.2807 20.6067 23.6869C20.5196 23.5696 20.4563 23.436 20.4204 23.2938C20.3845 23.1516 20.3767 23.0036 20.3974 22.8584C20.4181 22.7131 20.467 22.5734 20.5411 22.4473C20.6153 22.3212 20.7133 22.2111 20.8296 22.1235C20.9459 22.0358 21.0781 21.9722 21.2187 21.9363C21.3594 21.9005 21.5056 21.8931 21.6491 21.9145C21.7925 21.936 21.9304 21.9859 22.0547 22.0614C22.1791 22.1368 22.2875 22.2364 22.3737 22.3544C22.6209 22.6682 22.9327 22.9237 23.2875 23.1029C23.6422 23.2822 24.0313 23.3809 24.4277 23.3923C24.8252 23.3833 25.2158 23.2853 25.5714 23.1053C25.9271 22.9254 26.2389 22.6679 26.4845 22.3515C26.5712 22.2341 26.68 22.1351 26.8045 22.0603C26.929 21.9855 27.0669 21.9363 27.2103 21.9154C27.3537 21.8946 27.4997 21.9026 27.64 21.939C27.7803 21.9754 27.9121 22.0394 28.0279 22.1274C28.1437 22.2154 28.2413 22.3257 28.3149 22.4519C28.3886 22.5781 28.4369 22.7177 28.4572 22.8629C28.4774 23.008 28.4692 23.1558 28.4329 23.2977C28.3967 23.4396 28.3331 23.5728 28.2459 23.6899C27.7942 24.282 27.2163 24.7633 26.5551 25.0978C25.894 25.4324 25.1668 25.6115 24.4277 25.6219Z" fill="#14FFD5"/>
<path d="M33.5271 43.4588H15.3284C14.1388 43.4574 12.9983 42.9785 12.1572 42.1271C11.3161 41.2757 10.843 40.1215 10.8418 38.9176C10.8474 36.5501 11.5128 34.2322 12.7616 32.2303C14.0104 30.2284 15.792 28.6236 17.9015 27.6004C16.383 26.2564 15.3056 24.4757 14.8134 22.4958C14.3211 20.5159 14.4374 18.4312 15.1466 16.52C15.8559 14.6087 17.1244 12.9619 18.7827 11.7995C20.4411 10.637 22.4104 10.0142 24.4277 10.0142C26.4451 10.0142 28.4144 10.637 30.0727 11.7995C31.7311 12.9619 32.9996 14.6087 33.7088 16.52C34.4181 18.4312 34.5344 20.5159 34.0421 22.4958C33.5499 24.4757 32.4725 26.2564 30.9539 27.6004C33.0635 28.6235 34.8451 30.2283 36.094 32.2302C37.3428 34.2322 38.0082 36.5501 38.0137 38.9176C38.0125 40.1215 37.5394 41.2757 36.6983 42.1271C35.8572 42.9785 34.7167 43.4574 33.5271 43.4588ZM24.4277 12.2441C22.7108 12.2441 21.0429 12.824 19.6885 13.8919C18.3341 14.9599 17.3706 16.4547 16.9508 18.1396C16.531 19.8245 16.6789 21.603 17.371 23.1932C18.0632 24.7834 19.2599 26.0943 20.7716 26.9181C20.9651 27.0239 21.1228 27.1859 21.2245 27.3832C21.3263 27.5805 21.3674 27.804 21.3426 28.0251C21.3177 28.2463 21.2281 28.4548 21.0852 28.6239C20.9423 28.7931 20.7527 28.9151 20.5407 28.9743C18.3899 29.5761 16.4929 30.8738 15.1393 32.6693C13.7858 34.4647 13.0502 36.6592 13.0449 38.9176C13.0455 39.5303 13.2862 40.1179 13.7143 40.5512C14.1424 40.9846 14.7229 41.2284 15.3284 41.2292H33.5271C34.1326 41.2284 34.7131 40.9846 35.1411 40.5512C35.5692 40.1179 35.81 39.5303 35.8105 38.9176C35.8052 36.6592 35.0696 34.4647 33.7161 32.6693C32.3626 30.8738 30.4656 29.5761 28.3148 28.9743C28.1028 28.9151 27.9132 28.7931 27.7703 28.6239C27.6274 28.4548 27.5377 28.2463 27.5129 28.0251C27.4881 27.804 27.5292 27.5805 27.6309 27.3832C27.7327 27.1859 27.8904 27.0239 28.0838 26.9181C29.5955 26.0943 30.7923 24.7834 31.4844 23.1932C32.1765 21.603 32.3244 19.8245 31.9046 18.1396C31.4848 16.4547 30.5214 14.9599 29.167 13.8919C27.8126 12.824 26.1447 12.2441 24.4277 12.2441Z" fill="white"/>
<path d="M26.6309 36.0268H23.6934C23.0117 36.0268 22.3579 35.7527 21.8759 35.2649C21.3938 34.7771 21.123 34.1155 21.123 33.4256C21.123 32.7357 21.3938 32.074 21.8759 31.5862C22.3579 31.0984 23.0117 30.8243 23.6934 30.8243H26.6309C27.3125 30.8243 27.9663 31.0984 28.4483 31.5862C28.9304 32.074 29.2012 32.7357 29.2012 33.4256C29.2012 34.1155 28.9304 34.7771 28.4483 35.2649C27.9663 35.7527 27.3125 36.0268 26.6309 36.0268ZM23.6934 33.054C23.596 33.054 23.5026 33.0931 23.4337 33.1628C23.3649 33.2325 23.3262 33.327 23.3262 33.4256C23.3262 33.5241 23.3649 33.6186 23.4337 33.6883C23.5026 33.758 23.596 33.7972 23.6934 33.7972H26.6309C26.7282 33.7972 26.8216 33.758 26.8905 33.6883C26.9594 33.6186 26.998 33.5241 26.998 33.4256C26.998 33.327 26.9594 33.2325 26.8905 33.1628C26.8216 33.0931 26.7282 33.054 26.6309 33.054H23.6934Z" fill="#14FFD5"/>
<path d="M38.3808 29.6645C37.2778 29.6596 36.202 29.3178 35.2941 28.684C35.0688 28.5288 34.9083 28.2946 34.8437 28.0266C34.7791 27.7586 34.8148 27.4759 34.9442 27.2331C35.8016 25.6167 36.3275 23.8418 36.4904 22.0146C36.6533 20.1875 36.4499 18.3459 35.8922 16.6003C35.804 16.3239 35.8259 16.0235 35.9531 15.7632C36.0804 15.5028 36.3029 15.3029 36.5735 15.2061C37.1538 14.9973 37.765 14.8903 38.3808 14.8896C41.8232 14.8896 44.623 18.2036 44.623 22.2774C44.623 26.3506 41.8232 29.6645 38.3808 29.6645ZM37.3811 27.2701C37.7033 27.3797 38.0409 27.4353 38.3808 27.4349C40.6083 27.4349 42.4199 25.1211 42.4199 22.2774C42.4199 19.4098 40.5222 17.0837 38.3234 17.12C39.1204 20.5162 38.7892 24.0836 37.3811 27.2701Z" fill="white"/>
<path d="M23.3277 35.9825C23.2947 35.9825 23.2617 35.981 23.2287 35.9781C19.5354 35.6283 16.1281 33.8167 13.7478 30.9375C13.061 30.1228 12.4615 29.2368 11.9592 28.2942C11.81 28.009 11.668 27.7187 11.5404 27.4284C11.4806 27.2946 11.4475 27.1502 11.443 27.0034C11.4386 26.8567 11.4628 26.7105 11.5144 26.5732C11.5659 26.436 11.6438 26.3104 11.7434 26.2037C11.8431 26.097 11.9626 26.0113 12.0951 25.9516C12.2276 25.8918 12.3705 25.8591 12.5155 25.8554C12.6606 25.8517 12.8049 25.877 12.9402 25.93C13.0755 25.9829 13.1992 26.0624 13.3041 26.1638C13.4089 26.2653 13.4929 26.3867 13.5513 26.5211C13.6588 26.765 13.7808 27.0103 13.9012 27.2411C14.3286 28.0422 14.8382 28.7953 15.4216 29.4882C17.4285 31.9233 20.3045 33.4577 23.4237 33.7572C23.7063 33.7826 23.9682 33.9172 24.1551 34.1332C24.342 34.3491 24.4394 34.6296 24.427 34.9164C24.4146 35.2031 24.2934 35.474 24.0886 35.6726C23.8838 35.8712 23.6113 35.9822 23.3277 35.9825Z" fill="#14FFD5"/>
<path d="M10.4746 29.6645C7.03223 29.6645 4.23242 26.3506 4.23242 22.2774C4.23242 18.2036 7.03223 14.8896 10.4746 14.8896C11.0904 14.8903 11.7016 14.9973 12.2819 15.2061C12.5525 15.3029 12.7751 15.5028 12.9023 15.7632C13.0295 16.0236 13.0514 16.3239 12.9632 16.6003C12.4056 18.3459 12.2021 20.1875 12.365 22.0147C12.5279 23.8418 13.0539 25.6168 13.9113 27.2331C14.0406 27.476 14.0764 27.7587 14.0117 28.0266C13.9471 28.2946 13.7866 28.5288 13.5613 28.684C12.6534 29.3178 11.5776 29.6596 10.4746 29.6645ZM10.4746 17.1193C8.2471 17.1193 6.43555 19.4331 6.43555 22.2774C6.43555 25.1211 8.2471 27.4349 10.4746 27.4349C10.8145 27.4353 11.1522 27.3797 11.4743 27.2701C10.0662 24.0836 9.73496 20.5162 10.532 17.12L10.4746 17.1193Z" fill="#14FFD5"/>
</svg>
