<svg width="43" height="43" viewBox="0 0 43 43" fill="none" xmlns="http://www.w3.org/2000/svg">
<g clip-path="url(#clip0_4_1492)">
<path d="M21.0197 22.4556V23.1578H21.3097V22.4556H21.0197ZM20.1498 22.4556V23.1578H20.4398V22.4556H20.1498ZM19.7149 23.2983V22.4556C18.41 22.4556 17.2502 22.7365 15.9454 23.0174C15.2204 23.1578 14.6405 23.4387 14.0606 23.8601C14.0606 24.0005 14.0606 24.2814 14.2056 24.4219V24.7027C14.2056 24.7027 13.1907 24.8432 13.0457 25.405C13.0457 24.2814 13.1907 22.4556 13.1907 22.4556C13.1907 22.0342 13.1907 21.6129 13.1907 21.1915C13.1907 21.0511 12.9007 20.4893 12.3208 20.7702C12.3208 20.9106 12.3208 21.1915 12.3208 21.332L12.1758 25.5454H11.016H12.6108C12.9007 25.2645 13.9156 24.2814 18.845 23.8601V23.5792H18.555V23.1578H19.7149V23.2983ZM18.845 25.2645V24.4219C17.2502 24.5623 15.5104 24.8432 14.0606 25.2645C13.1907 25.5454 12.9007 25.8263 12.9007 25.9668V26.1072H11.016L11.306 26.5286V27.3713H10.726V27.5117H12.6108C13.0457 27.2308 13.6257 26.9499 14.2056 26.8095L14.7855 26.669V26.5286C14.7855 26.3881 14.7855 26.3881 14.7855 26.2477V25.9668C14.7855 25.9668 14.7855 25.8263 14.7855 25.6859C14.7855 25.5454 14.7855 25.5454 14.9305 25.5454C15.0755 25.5454 15.0755 25.5454 15.0755 25.6859C15.2204 25.6859 15.5104 25.6859 15.5104 25.6859L15.6554 25.8263C15.6554 25.8263 15.8004 26.2477 15.6554 26.3881C15.6554 26.3881 15.8004 26.5286 15.8004 26.669C16.0903 26.669 16.3803 26.5286 16.6703 26.5286C17.3952 26.3881 18.2651 26.3881 18.99 26.3881H18.845V26.1072H18.7V25.8263H18.555V25.2645H18.845ZM14.2056 34.3938V34.1129H14.3506V33.832H14.4955V33.5511H14.7855V30.4612V30.0398H14.6405V29.7589V29.478H14.7855C14.6405 29.1971 14.7855 28.9162 14.9305 28.7758H14.6405V28.4949H14.4955V28.214H14.6405V28.0735H14.7855V27.9331L14.9305 27.7926V27.0904L14.4955 27.2308C13.9156 27.3713 13.4807 27.6522 13.0457 27.9331H10.871L11.161 28.3544C11.161 28.3544 11.016 28.6353 11.161 28.7758V29.0567H11.306V29.478C11.306 29.478 7.68141 29.6185 6.95651 30.7421H6.52156C6.52156 30.7421 6.2316 29.8994 5.65167 30.1803C5.07175 30.4612 5.36171 30.6016 5.36171 30.6016L5.50669 30.7421H4.34684C4.34684 30.7421 4.34684 30.6016 4.49182 30.6016C4.49182 30.4612 4.78179 30.4612 4.78179 30.3207C4.6368 30.1803 4.49182 30.1803 4.34684 30.0398C4.34684 30.0398 4.20186 30.0398 4.20186 29.8994C4.20186 29.7589 4.05688 29.7589 4.05688 29.6185L3.9119 29.478C3.76691 29.1971 3.47695 28.9162 3.04201 29.0567C2.75204 29.3376 2.75204 29.478 2.75204 29.6185C2.89703 29.6185 2.89703 29.7589 3.04201 29.7589L2.89703 30.6016C2.89703 30.7421 2.75204 30.8825 2.75204 30.8825C2.75204 30.8825 2.60706 30.8825 2.60706 31.023L2.46208 31.1634H2.17212V31.3039H3.18699V31.023H6.95651C7.10149 30.8825 8.26134 30.0398 13.1907 29.7589V29.8994C11.4509 29.8994 9.85614 30.1803 8.11636 30.6016C7.68141 30.7421 7.39145 30.8825 6.95651 31.1634H3.18699V31.4443H2.3171H2.17212V31.5848H3.04201V31.3039H6.81153C6.95651 31.1634 8.11636 30.3207 13.0457 30.0398C11.306 30.0398 9.71115 30.3207 8.11636 30.7421C7.68141 30.8825 7.39145 31.023 6.95651 31.3039H3.18699V31.4443H2.3171L2.46208 31.5848V32.0061H2.17212V32.287H2.46208V33.2702C2.46208 33.9724 3.04201 34.5342 3.76692 34.5342H16.0903L14.2056 34.3938Z" fill="#6E7A82"/>
<path d="M27.3989 30.4613V30.0399H27.2539V29.759H27.1089V29.4781H27.2539C27.1089 29.1972 27.2539 28.9163 27.3989 28.7759H27.1089V28.495H26.9639V28.2141H27.1089V28.0736H27.2539C27.2539 27.6523 27.2539 27.3714 27.3989 26.95V26.8096C26.384 26.6691 25.3692 26.5287 24.2093 26.5287V26.6691C24.2093 26.8096 24.2093 26.95 24.0643 26.95H24.2093V27.2309H24.0643V30.7422H23.3394V27.2309H23.0494V26.95H23.3394C23.1944 26.8096 23.1944 26.6691 23.1944 26.5287C23.1944 26.5287 23.1944 26.5287 23.1944 26.3882H23.0494V26.1073H22.9045V25.8264H20.0048V25.9669V26.2478H19.8599V26.5287H19.7149V26.6691C19.7149 26.8096 19.7149 26.95 19.5699 27.0905H19.8599V27.2309H19.7149V30.7422H18.99V27.2309H18.845V26.95H18.99C18.845 26.8096 18.845 26.8096 18.845 26.6691V26.5287C17.8301 26.5287 16.6703 26.6691 15.6554 26.8096V26.95C15.6554 27.2309 15.8004 27.6523 15.8004 28.0736H15.9454V28.2141H16.0903V28.495V28.7759H15.6554C15.8004 28.9163 15.9454 29.1972 15.8004 29.4781H15.9454V29.759V30.0399H15.8004V30.4613H15.6554V33.5512H15.9454V33.8321H16.0903V33.9725H26.9639V33.8321H27.1089V33.5512H27.3989V30.4613ZM24.3543 28.7759L26.819 28.9163V29.1972L24.3543 29.0568V28.7759ZM24.3543 29.3377L26.819 29.4781V29.759L24.3543 29.6186V29.3377ZM26.384 31.4444V31.5849H16.5253V31.4444H26.384ZM16.6703 31.1635V31.0231H26.239V31.1635H16.6703ZM26.529 31.7253V31.8658H16.5253V31.7253H26.529ZM26.674 32.1467V32.2871H16.5253V32.1467H26.674ZM26.674 32.4276V32.568H16.3803V32.4276H26.674ZM26.239 30.7422V31.0231H16.8152L16.9602 30.7422H26.239ZM18.7 28.7759V29.0568L16.2353 29.1972V28.9163L18.7 28.7759ZM18.7 29.3377V29.6186L16.2353 29.759V29.4781L18.7 29.3377ZM16.3803 32.8489H26.819V32.9894H16.2353L16.3803 32.8489ZM16.2353 33.2703H26.9639V33.4107H16.2353V33.2703ZM16.0903 33.6916V33.5512H26.9639V33.6916H16.0903Z" fill="#6E7A82"/>
<path d="M21.7447 22.4559V23.1582H22.0347V22.4559H21.7447ZM22.6146 22.4559V23.1582H22.9045V22.4559H22.6146ZM31.1685 25.6863L31.0235 21.4728C31.0235 21.3323 31.0235 21.0514 31.0235 20.911C30.4436 20.6301 30.2986 21.0514 30.1536 21.3323C30.1536 21.7537 30.1536 22.175 30.1536 22.5964C30.1536 22.5964 30.1536 24.4222 30.2986 25.5458C30.1536 25.1245 28.9938 24.8436 28.9938 24.8436V24.4222C28.9938 24.2818 29.1387 24.0009 29.1387 23.8604C28.5588 23.4391 27.8339 23.1582 27.254 23.0177C26.0941 22.5964 24.7893 22.4559 23.4845 22.4559V23.1582H24.6443V23.72H24.3544V24.0009C29.2837 24.4222 30.2986 25.4054 30.5886 25.6863H32.1833H31.1685ZM31.7484 27.3717V26.529L32.0384 26.1076H30.1536V25.9672C30.1536 25.9672 30.0086 25.6863 28.9938 25.2649C27.399 24.8436 25.8042 24.4222 24.2094 24.4222V25.2649H24.4993V25.8267H24.3544V25.9672V26.2481H24.2094C24.9343 26.2481 25.8042 26.2481 26.5291 26.3885L27.254 26.529C27.254 26.3885 27.399 26.3885 27.399 26.2481C27.254 26.1076 27.399 25.8267 27.399 25.6863C27.399 25.5458 27.399 25.5458 27.5439 25.5458C27.6889 25.5458 27.9789 25.5458 27.9789 25.5458H28.1239C28.1239 25.5458 28.1239 25.6863 28.1239 25.8267C28.1239 25.9672 28.1239 26.1076 28.1239 26.1076C28.1239 26.2481 28.1239 26.2481 28.1239 26.3885V26.529L28.7038 26.6694C29.2837 26.8099 29.7187 27.0908 30.1536 27.3717H32.0384V27.2312L31.7484 27.3717ZM40.7373 30.8829L40.5923 30.7425L40.4473 30.602C40.4473 30.4616 40.3023 30.3211 40.3023 30.3211L40.1573 29.4784C40.3023 29.4784 40.3023 29.4784 40.4473 29.338C40.5923 29.338 40.5923 29.0571 40.1573 28.7762C39.8674 28.6357 39.4324 28.7762 39.2874 29.1975L39.1425 29.338C38.9975 29.4784 38.9975 29.4784 38.9975 29.6189C38.9975 29.7593 38.8525 29.7593 38.8525 29.7593L38.4176 30.0402C38.4176 30.1807 38.5625 30.1807 38.7075 30.3211V30.4616H37.5477L37.6926 30.3211C37.6926 30.3211 37.8376 30.0402 37.2577 29.8998C36.6778 29.7593 36.3878 30.4616 36.3878 30.4616H36.0978C35.3729 29.338 31.7484 29.1975 31.7484 29.1975V28.7762H31.8934V28.6357H31.7484C31.8934 28.4953 31.7484 28.2144 31.7484 28.2144L32.1833 27.793H30.1536C29.7187 27.5121 29.2837 27.2312 28.7038 27.0908L28.2689 26.9503V27.6526L28.4138 27.793V27.9335H28.5588V28.0739H28.7038V28.6357H28.5588V28.9166H28.2689C28.4138 29.0571 28.5588 29.338 28.4138 29.6189H28.5588V29.8998H28.4138V30.0402H28.2689V30.3211H28.1239V33.411H28.4138V33.6919H28.5588V33.9728H28.7038V34.2537H27.109H39.4324C40.1573 34.2537 40.5923 33.8323 40.7373 33.1301V32.4278H40.8822V32.1469H40.5923V31.7256L40.7373 31.5852H39.7224V31.4447H35.9529C35.6629 31.1638 35.228 31.0234 34.938 30.8829C33.3432 30.4616 31.6034 30.1807 29.8636 30.1807V30.0402C34.648 30.1807 35.8079 31.0234 36.0978 31.3043H39.8674V31.4447H40.7373V31.3043H40.4473H39.5774V31.0234H35.8079C35.5179 30.7425 35.083 30.4616 34.648 30.3211C33.0532 29.8998 31.3135 29.6189 29.5737 29.6189V29.4784C34.3581 29.6189 35.5179 30.4616 35.8079 30.7425H39.5774V31.0234H40.5923V30.8829H40.7373Z" fill="#6E7A82"/>
<path d="M28.7037 23.4389C28.8487 22.0344 28.4137 20.7704 27.6888 19.6468C26.674 18.3828 25.3691 17.3996 23.7743 16.9783V16.4165H23.3394V15.2929H23.6294L24.3543 15.012L24.4992 13.1861C24.7892 13.0457 24.9342 12.9052 24.9342 12.6243C24.9342 12.203 24.4992 11.9221 23.9193 11.7816L24.0643 10.658C24.6442 10.658 25.2242 10.5176 25.2242 10.2367C25.2242 9.95579 24.7892 9.67489 24.0643 9.67489C23.7743 9.67489 23.4844 9.67489 23.1944 9.67489C22.7595 9.39399 22.3245 9.25354 21.7446 9.25354H21.4546C20.8747 9.25354 20.4398 9.39399 20.0048 9.67489C19.7149 9.67489 19.4249 9.67489 19.1349 9.67489C18.41 9.67489 17.9751 10.0962 17.9751 10.3771C17.9751 10.658 18.555 10.7985 19.1349 10.7985L19.2799 11.7816C18.7 11.7816 18.265 12.203 18.265 12.6243C18.265 12.9052 18.41 13.1861 18.7 13.1861L18.845 15.012L19.4249 15.2929H19.7149V16.4165H19.2799V16.9783C17.6851 17.3996 16.3803 18.2423 15.3654 19.5063C14.4955 20.6299 14.2056 22.0344 14.3505 23.2985C14.2056 23.2985 14.2056 23.4389 14.2056 23.4389C14.7855 23.158 15.3654 22.8771 15.8004 22.7367C16.8152 22.4558 17.8301 22.3153 18.845 22.1749C19.1349 22.1749 19.4249 22.1749 19.5699 22.1749V18.6637C19.5699 18.6637 19.4249 18.6637 19.4249 18.5232C19.4249 18.5232 19.4249 18.3828 19.5699 18.3828C19.5699 18.3828 19.5699 18.3828 19.5699 18.2423C19.5699 18.1019 19.4249 18.1019 19.4249 17.9614C19.4249 17.6805 19.7149 17.3996 19.7149 17.3996C19.7149 17.3996 20.0048 17.6805 20.0048 17.9614C20.0048 18.1019 20.0048 18.1019 19.8598 18.2423V18.3828C19.8598 18.3828 20.0048 18.3828 20.0048 18.5232C20.0048 18.5232 20.0048 18.5232 20.0048 18.6637C20.0048 18.6637 20.0048 18.8041 19.8598 18.8041V22.1749H20.1498V18.6637V18.5232C20.1498 18.5232 20.0048 18.5232 20.0048 18.3828C20.0048 18.3828 20.0048 18.2423 20.1498 18.2423C20.1498 18.2423 20.1498 18.2423 20.1498 18.1019C20.1498 17.9614 20.0048 17.9614 20.0048 17.821C20.0048 17.5401 20.2948 17.2592 20.2948 17.2592C20.2948 17.2592 20.5847 17.5401 20.5847 17.821C20.5847 17.9614 20.5847 17.9614 20.4398 18.1019V18.2423C20.4398 18.2423 20.5847 18.2423 20.5847 18.3828C20.5847 18.3828 20.5847 18.3828 20.5847 18.5232C20.5847 18.5232 20.5847 18.6637 20.4398 18.6637V18.8041V22.1749H20.7297V18.6637C20.7297 18.6637 20.7297 18.6637 20.7297 18.5232C20.7297 18.5232 20.5847 18.5232 20.5847 18.3828C20.5847 18.3828 20.5847 18.2423 20.7297 18.2423C20.7297 18.2423 20.7297 18.2423 20.7297 18.1019C20.7297 17.9614 20.5847 17.9614 20.5847 17.821C20.5847 17.6805 20.8747 17.3996 20.8747 17.2592C20.8747 17.1187 21.1647 17.5401 21.1647 17.821C21.1647 17.9614 21.1647 17.9614 21.0197 18.1019C21.0197 18.1019 21.0197 18.1019 21.0197 18.2423V18.3828C21.0197 18.3828 21.0197 18.3828 20.8747 18.3828V18.5232V22.0344H21.1647V18.6637C21.1647 18.6637 21.1647 18.6637 21.1647 18.5232C21.1647 18.5232 21.0197 18.5232 21.0197 18.3828C21.0197 18.3828 21.0197 18.3828 21.0197 18.2423C21.0197 18.2423 21.0197 18.1019 21.1647 18.1019V17.9614C21.1647 17.821 21.0197 17.821 21.0197 17.6805C21.0197 17.3996 21.3097 17.1187 21.3097 17.1187C21.3097 17.1187 21.5996 17.3996 21.5996 17.6805C21.5996 17.821 21.5996 17.821 21.4546 17.9614C21.4546 17.9614 21.4546 17.9614 21.4546 18.1019C21.4546 18.1019 21.5996 18.2423 21.4546 18.2423V18.3828V21.894H21.7446V18.6637C21.7446 18.6637 21.7446 18.6637 21.7446 18.5232C21.7446 18.5232 21.5996 18.5232 21.5996 18.3828C21.5996 18.3828 21.5996 18.3828 21.5996 18.2423C21.5996 18.2423 21.5996 18.1019 21.7446 18.1019V17.9614C21.7446 17.821 21.5996 17.821 21.5996 17.6805C21.5996 17.3996 21.8896 17.1187 21.8896 17.1187C21.8896 17.1187 22.1795 17.3996 22.1795 17.6805C22.1795 17.821 22.1795 17.821 22.0346 17.9614C22.0346 17.9614 22.0346 17.9614 22.0346 18.1019L22.1795 18.2423H22.0346V18.3828V22.0344H22.7595C23.7743 22.1749 24.7892 22.3153 25.8041 22.5962C27.6888 22.8771 28.2688 23.158 28.7037 23.4389ZM20.4398 16.4165H20.0048V15.2929H20.4398V16.4165ZM21.3097 16.4165H20.8747V15.2929H21.4546L21.3097 16.4165ZM21.3097 11.6412C21.0197 11.6412 20.8747 11.9221 20.8747 12.0625C20.8747 12.203 20.8747 12.203 20.8747 12.3434H20.4398C20.2948 12.0625 19.8598 11.7816 19.5699 11.7816V10.658H19.8598C20.2948 11.0794 20.8747 11.3603 21.4546 11.3603L21.3097 11.6412ZM22.3245 16.4165H21.8896V15.2929H22.3245V16.4165ZM23.1944 16.4165H22.7595V15.2929H23.1944V16.4165ZM22.6145 12.3434H22.1795C22.1795 12.203 22.1795 12.203 22.1795 12.0625C22.1795 11.7816 22.0346 11.6412 21.7446 11.6412V11.3603C22.3245 11.3603 22.9045 11.0794 23.3394 10.658H23.6294L23.4844 11.7816C23.0494 11.7816 22.7595 12.0625 22.6145 12.3434Z" fill="#6E7A82"/>
<path d="M23.1944 23.7198H19.8599V25.2648H23.1944V23.7198Z" fill="#6E7A82"/>
</g>
<defs>
<clipPath id="clip0_4_1492">
<rect width="39" height="25" fill="white" transform="translate(2.02722 8.97278)"/>
</clipPath>
</defs>
</svg>
