<svg width="92" height="93" viewBox="0 0 92 93" fill="none" xmlns="http://www.w3.org/2000/svg">
<g clip-path="url(#clip0_1021_5765)">
<path d="M0 28.8024C0.479954 27.6382 0.796724 26.3669 1.46146 25.3294C2.40833 23.8727 3.79239 22.7644 5.40855 22.1687C7.0247 21.573 8.78696 21.5215 10.4342 22.0219C13.9187 23.0741 16.3184 26.1818 16.3352 29.8497C16.376 35.0763 16.3472 40.3004 16.3496 45.5246V46.3137C17.8471 46.2869 19.2774 46.1384 20.6812 46.2723C22.4307 46.4379 23.9017 47.3464 25.1472 48.5982C30.8442 54.3282 36.5405 60.0589 42.236 65.7905C42.585 66.1221 42.861 66.5248 43.0459 66.9722C43.2307 67.4197 43.3203 67.9017 43.3087 68.3868C43.2919 75.5861 43.3087 82.7855 43.2967 89.9873C43.2967 91.8724 42.1952 92.9927 40.3377 92.9952C32.4377 92.9952 24.5369 92.9952 16.6352 92.9952C14.7322 92.9952 13.6595 91.8797 13.6571 89.9191C13.6571 86.9965 13.6355 84.0861 13.6691 81.1683C13.684 80.8864 13.6365 80.6048 13.5302 80.3439C13.4239 80.083 13.2615 79.8496 13.0548 79.6607C9.27111 75.9003 5.50027 72.1245 1.74223 68.3332C1.09909 67.6829 0.578345 66.906 0 66.1899V28.8024ZM37.8684 87.4982C37.8876 87.2961 37.9068 87.1767 37.9068 87.0598C37.9068 81.2852 37.9068 75.5131 37.8876 69.7409C37.8498 69.3359 37.6742 68.957 37.3908 68.6693C35.675 66.8889 33.9208 65.1427 32.1785 63.3891C28.6077 59.7894 25.0376 56.1954 21.4683 52.6071C20.6116 51.74 19.6181 51.3698 18.447 51.7011C16.2872 52.3124 15.6225 54.9768 17.2472 56.6525C19.8701 59.3583 22.5266 62.0228 25.1664 64.7189C26.3807 65.961 26.4311 67.6805 25.3296 68.7813C24.2281 69.8822 22.577 69.814 21.3916 68.6206C18.7358 65.9464 16.0905 63.2608 13.4555 60.5639C12.6294 59.7437 11.9799 58.7586 11.5478 57.6708C11.1158 56.583 10.9107 55.4161 10.9454 54.2437C10.9813 51.024 10.9454 47.8018 10.9454 44.5821C10.9454 39.8109 10.9454 35.0422 10.9454 30.271C10.9454 28.951 10.4318 27.9646 9.26551 27.4142C7.38169 26.5325 5.38749 27.9889 5.38509 30.2467C5.38509 41.3055 5.37869 52.3652 5.36589 63.4256C5.356 63.7221 5.41166 64.0171 5.52876 64.2889C5.64586 64.5608 5.82144 64.8025 6.04262 64.9965C9.46629 68.3965 12.878 71.8062 16.2776 75.2257C19.4741 78.4381 19.0062 77.4956 19.035 81.9282C19.047 83.7719 19.035 85.6156 19.035 87.4933L37.8684 87.4982Z" fill="white"/>
<path d="M75.6386 46.5719V40.186C75.6386 36.7519 75.6098 33.3179 75.6506 29.8838C75.6986 25.6679 78.7703 22.2558 82.9243 21.7248C86.8599 21.2207 90.7068 23.9168 91.7075 27.9208C91.8945 28.7185 91.9847 29.5364 91.9762 30.3563C91.993 41.9055 91.9762 53.4571 92.0002 65.0063C92.0118 65.521 91.9151 66.0323 91.7164 66.5061C91.5178 66.9798 91.2219 67.4051 90.8484 67.7536C86.8743 71.7113 82.9291 75.6958 78.9431 79.651C78.7351 79.8388 78.5711 80.0715 78.4632 80.3319C78.3552 80.5923 78.306 80.874 78.3191 81.1562C78.3527 84.0788 78.3384 87.0014 78.3312 89.9094C78.3312 91.9041 77.2489 92.9903 75.2642 92.9903C67.425 92.9903 59.5793 92.9903 51.7273 92.9903C49.7571 92.9903 48.6916 91.8943 48.6916 89.8777C48.6916 82.7344 48.6916 75.591 48.6796 68.4452C48.6635 67.946 48.7521 67.449 48.9395 66.9872C49.1269 66.5253 49.4089 66.1091 49.7667 65.7662C55.4541 60.0598 61.1152 54.3315 66.8051 48.6348C69.1256 46.3113 71.907 45.5953 75.0675 46.4428C75.2138 46.4842 75.353 46.5183 75.6386 46.5719ZM72.9533 87.4885C72.9533 84.8314 72.9845 82.2522 72.9389 79.6754C72.92 79.1308 73.0189 78.5887 73.2287 78.0871C73.4385 77.5855 73.754 77.1367 74.1531 76.7723C78.1128 72.8413 82.0388 68.8788 85.9936 64.9454C86.201 64.7579 86.365 64.5262 86.4737 64.2668C86.5824 64.0074 86.6332 63.7268 86.6224 63.4451C86.6 54.45 86.5952 45.4565 86.608 36.4645C86.608 34.3359 86.608 32.2097 86.608 30.0835C86.634 29.5002 86.4774 28.9234 86.1605 28.436C85.8436 27.9486 85.3828 27.5755 84.8441 27.3703C82.9723 26.5642 81.0453 28.0182 81.0429 30.2321C81.0429 38.1621 81.0213 46.0921 81.0597 54.0221C81.0741 56.7012 80.191 58.9346 78.3168 60.8026C76.5217 62.5903 74.7555 64.4072 72.9773 66.2094C72.1085 67.0911 71.2638 67.9971 70.3591 68.8374C69.9356 69.2348 69.3963 69.482 68.8225 69.5417C68.2487 69.6014 67.6712 69.4705 67.177 69.1686C66.6732 68.8871 66.2787 68.4402 66.0581 67.9012C65.8374 67.3622 65.8038 66.7631 65.9627 66.2021C66.1601 65.6024 66.4929 65.0577 66.9346 64.6118C69.4688 61.9863 72.0366 59.3949 74.6139 56.8035C75.4658 55.9438 75.8714 54.9549 75.5498 53.7542C74.9379 51.4649 72.2957 50.8316 70.5559 52.5852C65.2108 57.9433 59.8801 63.3177 54.5638 68.7083C54.2781 69.0336 54.1156 69.4514 54.1055 69.8871C54.0767 75.4473 54.0863 81.0076 54.0863 86.5679V87.4885H72.9533Z" fill="white"/>
<path d="M45.977 52.1198C35.2212 51.9396 26.5749 42.7236 27.1604 31.8686C27.3788 27.7866 28.9434 24.1236 31.1008 20.7626C33.7598 16.6198 36.6539 12.6256 39.356 8.52419C40.8487 6.25429 42.1878 3.87967 43.5628 1.53183C44.1172 0.579549 44.8755 0.0169459 45.9506 -0.000102705C46.4506 -0.0278182 46.9473 0.0964176 47.3774 0.356723C47.8074 0.617028 48.1512 1.00157 48.3648 1.4612C50.7645 6.21532 53.9682 10.4288 57.004 14.7542C59.2285 17.9204 61.3715 21.1328 62.9914 24.6814C68.3525 36.4181 61.3667 48.5494 50.8221 51.3064C49.2455 51.7082 47.5969 51.8544 45.977 52.1198ZM46.0226 8.31717C44.9763 9.87346 44.0044 11.3226 43.0301 12.7668C40.5271 16.4713 37.9498 20.127 35.5452 23.8947C33.9134 26.4544 32.6463 29.2358 32.5383 32.3654C32.2239 41.4012 40.5343 48.2279 49.2095 46.0968C52.455 45.2906 55.2871 43.284 57.1513 40.4698C59.0156 37.6557 59.7777 34.2367 59.2885 30.8822C58.8974 28.32 57.8487 25.9746 56.4664 23.8484C53.0707 18.6705 49.5647 13.5681 46.0226 8.3196V8.31717Z" fill="white"/>
<path d="M43.2988 30.0785C43.2988 29.0848 43.2844 28.2324 43.2988 27.3848C43.3348 25.8188 44.4747 24.6351 45.9386 24.6108C47.4432 24.584 48.6335 25.7774 48.6743 27.3824C48.6959 28.2324 48.6743 29.0873 48.6743 30.0785H50.9013C52.8211 30.0785 54.0474 31.1307 54.0618 32.7844C54.0762 34.4381 52.8451 35.5584 50.8749 35.5584H48.6911C48.6911 36.4084 48.6911 37.2146 48.6911 38.0232C48.6911 39.7913 47.568 41.0237 45.9986 41.0237C44.4291 41.0237 43.318 39.7889 43.3036 38.0232C43.3036 37.2365 43.3036 36.4522 43.3036 35.5584H41.1198C39.1496 35.5584 37.9017 34.4771 37.9161 32.7965C37.9305 31.116 39.164 30.0907 41.0766 30.0883L43.2988 30.0785Z" fill="white"/>
</g>
<defs>
<clipPath id="clip0_1021_5765">
<rect width="92" height="93" fill="white"/>
</clipPath>
</defs>
</svg>
