<svg width="139" height="27" viewBox="0 0 139 27" fill="none" xmlns="http://www.w3.org/2000/svg">
<g clip-path="url(#clip0_516_939)">
<path d="M132.034 5.66205L130.451 7.44021L128.913 9.26517L122.807 16.331L121.631 17.6413L120.455 19.0451L119.279 20.3553L115.117 25.175L113.579 26.9532H106.523L108.106 25.175L115.796 16.2842L116.926 14.974L118.103 13.5702L119.279 12.26L121.857 9.26517H124.209L120.455 13.617L119.279 14.974L118.103 16.2842L116.926 17.6413L110.413 25.175H112.81L118.103 19.0451L119.279 17.688L120.455 16.2842L121.631 14.974L126.561 9.26517L128.099 7.44021H121.088L122.671 5.66205H132.034Z" fill="white"/>
<path d="M119.279 12.26L118.103 13.5702L119.279 12.26Z" fill="white"/>
<path d="M132.034 26.9532H124.978L123.44 25.175L120.455 21.7123L120.771 21.3847L121.631 20.3553L125.747 25.175H128.099L122.807 18.9983L123.983 17.6412L130.451 25.175L132.034 26.9532Z" fill="white"/>
<path d="M112.81 7.44021H110.458L115.75 13.617L114.62 14.974L108.106 7.44021L106.523 5.66205H113.579L115.117 7.44021L118.103 10.9029L116.926 12.26L112.81 7.44021Z" fill="white"/>
<path d="M116.927 14.974L115.796 16.2842H115.75L116.067 15.9567L116.927 14.974Z" fill="white"/>
<path d="M47.1776 5.66205L39.9404 24.8943C39.4428 26.1577 38.2668 27 36.955 27C35.6433 27 34.4672 26.1577 33.9696 24.8943L26.7324 5.66205H30.7581L36.8645 21.8527C36.9098 21.9463 36.955 21.9931 37.0455 21.9463C37.0907 21.9463 37.1359 21.8995 37.1359 21.8527L43.2423 5.66205H47.1776Z" fill="white"/>
<path d="M16.7359 5.66205C11.3985 5.66205 7.05615 10.1542 7.05615 15.6759V27H10.7652V15.6291C10.7652 12.2132 13.434 9.45234 16.7359 9.45234C20.0379 9.45234 22.7067 12.2132 22.7067 15.6291V26.9532H26.4157V15.6291C26.4157 10.1075 22.0734 5.66205 16.7359 5.66205Z" fill="white"/>
<path d="M65.4518 5.66205C60.1143 5.66205 55.772 10.1542 55.772 15.6759V27H59.4811V15.6291C59.5715 12.2132 62.3307 9.54593 65.6327 9.63952C68.799 9.73311 71.332 12.3536 71.4225 15.6291V26.9532H75.1316V15.6291C75.0863 10.1075 70.7892 5.66205 65.4518 5.66205Z" fill="white"/>
<path d="M87.7969 23.1629C84.133 23.1629 81.1929 20.1213 81.1929 16.331C81.1929 12.5407 84.133 9.49913 87.7516 9.49913C89.9228 9.49913 92.0035 10.6222 93.2248 12.4939H97.3862C95.3507 7.01906 89.38 4.25823 84.0878 6.36395C78.7956 8.46967 76.1268 14.6464 78.1623 20.1213C80.1978 25.5962 86.1685 28.357 91.4607 26.2513C94.1747 25.175 96.3458 22.9289 97.3862 20.1213H93.2248C92.0035 21.9931 89.968 23.1161 87.7969 23.1629Z" fill="white"/>
<path d="M3.70908 5.66205H0V27H3.70908V5.66205Z" fill="white"/>
<path d="M1.85454 3.83709C2.87877 3.83709 3.70908 2.97813 3.70908 1.91854C3.70908 0.858961 2.87877 0 1.85454 0C0.830306 0 0 0.858961 0 1.91854C0 2.97813 0.830306 3.83709 1.85454 3.83709Z" fill="white"/>
<path d="M52.877 5.66205H49.168V27H52.877V5.66205Z" fill="white"/>
<path d="M51.0225 3.83709C52.0467 3.83709 52.877 2.97813 52.877 1.91854C52.877 0.858961 52.0467 0 51.0225 0C49.9983 0 49.168 0.858961 49.168 1.91854C49.168 2.97813 49.9983 3.83709 51.0225 3.83709Z" fill="white"/>
<path d="M103.764 5.66205H100.055V27H103.764V5.66205Z" fill="white"/>
<path d="M101.909 3.83709C102.933 3.83709 103.764 2.97813 103.764 1.91854C103.764 0.858961 102.933 0 101.909 0C100.885 0 100.055 0.858961 100.055 1.91854C100.055 2.97813 100.885 3.83709 101.909 3.83709Z" fill="white"/>
<path d="M136.286 5.66203C134.794 5.66203 133.572 4.3986 133.572 2.85441C133.572 1.31021 134.794 0.0467834 136.286 0.0467834C137.779 0.0467834 139 1.31021 139 2.85441C139 4.3986 137.779 5.66203 136.286 5.66203ZM136.286 0.467927C135.02 0.467927 133.979 1.54418 133.979 2.85441C133.979 4.16463 135.02 5.24089 136.286 5.24089C137.553 5.24089 138.593 4.16463 138.593 2.85441C138.593 1.54418 137.553 0.467927 136.286 0.467927Z" fill="white"/>
<path d="M135.517 1.26344C135.743 1.21664 136.014 1.21664 136.286 1.21664C136.738 1.21664 137.01 1.31023 137.191 1.49741C137.371 1.63779 137.462 1.87176 137.462 2.10573C137.462 2.52687 137.191 2.80763 136.874 2.94801C137.1 3.0416 137.281 3.27557 137.326 3.60313C137.417 4.07106 137.507 4.39862 137.552 4.49221H137.145C137.1 4.39862 137.01 4.11786 136.919 3.69671C136.829 3.22878 136.648 3.08839 136.286 3.0416H135.879V4.44541H135.472V1.26344H135.517ZM135.924 2.76084H136.331C136.783 2.76084 137.055 2.52687 137.055 2.15252C137.055 1.73138 136.738 1.5442 136.331 1.5442C136.15 1.5442 136.014 1.5442 135.924 1.59099V2.76084Z" fill="white"/>
</g>
<defs>
<clipPath id="clip0_516_939">
<rect width="139" height="27" fill="white"/>
</clipPath>
</defs>
</svg>
