<svg width="31" height="31" viewBox="0 0 31 31" fill="none" xmlns="http://www.w3.org/2000/svg">
<path d="M23.3933 18.6534H8.09916M23.3933 18.6534V11.1177C23.3933 9.23206 23.3933 8.28925 22.8075 7.70346C22.2217 7.11768 21.2789 7.11768 19.3933 7.11768H12.0992C10.2135 7.11768 9.27073 7.11768 8.68494 7.70346C8.09916 8.28925 8.09916 9.23206 8.09916 11.1177V18.6534M23.3933 18.6534L25.1373 20.4535C25.1818 20.4994 25.2041 20.5225 25.2249 20.5453C25.546 20.8979 25.7305 21.3535 25.7453 21.8301C25.7462 21.861 25.7462 21.893 25.7462 21.957C25.7462 22.1062 25.7462 22.1808 25.7422 22.2438C25.6787 23.249 24.8776 24.0502 23.8723 24.1137C23.8093 24.1177 23.7347 24.1177 23.5855 24.1177H7.9069C7.7577 24.1177 7.68309 24.1177 7.6201 24.1137C6.61486 24.0502 5.81371 23.249 5.7502 22.2438C5.74622 22.1808 5.74622 22.1062 5.74622 21.957C5.74622 21.893 5.74622 21.861 5.74717 21.8301C5.76191 21.3535 5.94644 20.8979 6.26748 20.5453C6.28829 20.5225 6.3106 20.4994 6.35509 20.4535L8.09916 18.6534" stroke="white" strokeWidth="1.5" stroke-linecap="round"/>
<path d="M13.2462 21.6177H18.2462" stroke="white" strokeWidth="1.5" stroke-linecap="round"/>
<path d="M16.4962 9.86768C16.4962 10.2819 16.1604 10.6177 15.7462 10.6177C15.332 10.6177 14.9962 10.2819 14.9962 9.86768C14.9962 9.45346 15.332 9.11768 15.7462 9.11768C16.1604 9.11768 16.4962 9.45346 16.4962 9.86768Z" fill="white"/>
</svg>
