<svg width="31" height="31" viewBox="0 0 31 31" fill="none" xmlns="http://www.w3.org/2000/svg">
<path d="M6.74622 14.5462C6.74622 14.4532 6.74622 14.4067 6.74679 14.3653C6.78471 11.6152 8.6876 9.24304 11.364 8.60944C11.4042 8.59991 11.4497 8.58982 11.5405 8.56964C11.6241 8.55106 11.6659 8.54176 11.7073 8.53276C14.3688 7.95376 17.1236 7.95376 19.7851 8.53276C19.8265 8.54176 19.8683 8.55106 19.952 8.56964C20.0428 8.58982 20.0882 8.59991 20.1284 8.60944C22.8048 9.24304 24.7077 11.6152 24.7456 14.3653C24.7462 14.4067 24.7462 14.4532 24.7462 14.5462V20.0102C24.7462 22.1281 23.2752 23.9619 21.2077 24.4214C17.6106 25.2207 13.8819 25.2207 10.2847 24.4214C8.21723 23.9619 6.74622 22.1281 6.74622 20.0102V14.5462Z" stroke="white" strokeWidth="1.5"/>
<path d="M21.2462 19.135V20.635" stroke="white" strokeWidth="1.5" stroke-linecap="round"/>
<path d="M19.7047 8.13501C19.4667 6.71615 18.2327 5.63501 16.7462 5.63501H14.7462C13.2597 5.63501 12.0257 6.71615 11.7877 8.13501" stroke="white" strokeWidth="1.5" stroke-linecap="round"/>
<path d="M6.74622 17.635C12.476 20.1816 19.0164 20.1816 24.7462 17.635" stroke="white" strokeWidth="1.5" stroke-linecap="round"/>
<path d="M13.7462 16.635H17.7462" stroke="white" strokeWidth="1.5" stroke-linecap="round"/>
</svg>
