<svg width="198" height="245" viewBox="0 0 198 245" fill="none" xmlns="http://www.w3.org/2000/svg">
<path d="M32.6004 209.708C44.2248 223.533 53.4289 206.434 62.8735 207.041C70.1281 207.507 76.4823 212.823 76.4823 212.823C76.4823 212.823 76.3148 214.161 76.3993 207.73C76.4823 201.3 87.8954 197.199 91.8221 195.406C95.7474 193.613 97.4769 190.845 97.6605 188.513C97.8441 186.18 97.2321 183.664 95.9441 183.54C94.6561 183.417 94.165 183.97 93.7367 180.594C93.3083 177.218 95.5755 177.342 95.5755 177.342C95.5755 177.342 104.822 176.693 112.158 177.52C119.494 178.347 114.326 168.995 110.193 159.076C106.059 149.158 95.7124 150.681 84.1347 150.105C72.5585 149.527 63.1241 142.314 57.4445 132.013C51.765 121.711 46.2034 111.04 46.2034 111.04C46.2034 111.04 49.8664 114.898 61.1134 115.658C72.3603 116.419 84.7409 124.851 84.7409 124.851C84.7409 124.851 74.0665 113.557 57.2901 108.653C40.5137 103.749 37.2499 94.5576 36.8157 84.931C36.38 75.303 26.9791 57.5396 35.159 60.4226C43.3389 63.307 54.1385 62.7876 45.9994 60.4984C37.8618 58.2063 27.6071 52.0697 26.7766 47.0011C25.9446 41.9311 22.4637 31.3255 13.7797 22.0973C5.09429 12.8705 -3.546 -2.55998 4.21715 1.18822C11.9818 4.93496 15.043 3.58683 25.407 7.03301C35.7695 10.4807 40.129 12.3803 44.4593 18.9327C48.7868 25.4851 57.4664 35.4881 54.4416 31.4087C51.4167 27.3264 49.1248 15.8629 53.5163 19.9059C57.9093 23.9502 61.7297 24.9336 71.0213 31.7953C80.3129 38.6556 78.5557 35.6778 80.1876 43.6717C81.8195 51.667 89.7589 69.8303 87.4422 62.2419C85.1255 54.6536 86.4165 39.0627 90.4117 47.665C94.4084 56.2673 94.4754 52.9831 100.39 60.9157C106.304 68.8469 104.917 65.1892 104.801 75.4518C104.685 85.716 110.364 101.354 109.607 92.2246C108.848 83.097 112.036 69.9353 114.862 83.0912C117.688 96.2486 124.373 98.1642 124.744 117.096C125.117 136.03 118.708 140.594 115.885 147.051C113.063 153.51 120.347 174.222 120.347 174.222C120.347 174.222 114.213 145.261 100.914 104.161C87.6185 63.0619 24.3827 17.0622 27.1933 18.9517C30.004 20.8411 43.6987 30.1948 77.8053 72.5761C111.912 114.957 112.973 176.624 112.973 176.624C112.973 176.624 114.572 177.138 120.392 177.072C126.211 177.008 134.908 175.344 134.908 178.481C134.908 181.618 134.141 181.811 130.112 181.043C126.083 180.276 97.6241 180.53 98.6469 181.684C99.6712 182.836 125.121 182.771 129.023 182.771C132.925 182.771 130.69 185.181 131.342 189.198C131.991 193.214 133.835 193.433 141.315 197.775C148.797 202.119 150.206 200.272 150.64 205.699C151.074 211.127 147.713 211.236 142.183 215.795C136.654 220.355 120.723 228.587 112.808 225.113C104.893 221.639 103.863 221.258 89.2271 217.567C74.5911 213.877 86.89 210.693 95.998 212.539C105.105 214.385 117.908 213.668 128.642 209.561C147.76 202.247 148.243 214.529 143.917 219.596C136.402 228.398 113.979 235.921 105.754 227.625C98.8786 220.689 76.9165 216.665 76.8087 218.511C76.7023 220.355 76.4852 228.172 76.8087 237.399C77.1351 246.627 84.1828 244.131 91.012 244.131C97.8412 244.131 121.477 243.588 138.499 244.021C155.52 244.456 151.943 234.793 151.943 234.793C151.943 234.793 149.6 207.86 152.119 211.528C154.638 215.199 162.004 221.687 171.134 212.253C182.516 200.49 196.901 215.61 196.901 215.61" stroke="white" stroke-linejoin="round"/>
</svg>
