<svg width="30" height="30" viewBox="0 0 30 30" fill="none" xmlns="http://www.w3.org/2000/svg">
<path fill-rule="evenodd" clip-rule="evenodd" d="M14.5 5C10.3579 5 7 8.43595 7 12.6744C7 14.9468 7.96602 16.9892 9.49859 18.3934C10.0094 18.8614 10.3878 19.2082 10.656 19.4598C10.7901 19.5855 10.8926 19.6838 10.9683 19.7592C11.006 19.7968 11.0349 19.8266 11.0564 19.8496C11.067 19.861 11.075 19.8699 11.0808 19.8766C11.0865 19.8831 11.0892 19.8864 11.0892 19.8864C11.3257 20.1851 11.3769 20.2622 11.4074 20.332C11.4379 20.4018 11.4598 20.4922 11.5195 20.8717C11.543 21.0216 11.5455 21.2782 11.5455 21.9767L11.5455 22.0067C11.5454 22.4158 11.5454 22.7687 11.5711 23.0583C11.5982 23.3645 11.6582 23.6677 11.8195 23.9535C11.999 24.2717 12.2572 24.5359 12.5682 24.7196C12.8475 24.8846 13.1438 24.946 13.443 24.9738C13.726 25 14.0709 25 14.4707 25H14.5293C14.9291 25 15.274 25 15.557 24.9738C15.8562 24.946 16.1525 24.8846 16.4318 24.7196C16.7428 24.5359 17.001 24.2717 17.1805 23.9535C17.3418 23.6677 17.4018 23.3645 17.4289 23.0583C17.4546 22.7687 17.4546 22.4158 17.4545 22.0067V21.9767C17.4545 21.2782 17.457 21.0216 17.4805 20.8717C17.5402 20.4922 17.5621 20.4018 17.5926 20.332C17.6231 20.2622 17.6743 20.1851 17.9108 19.8864C17.9108 19.8864 17.9133 19.8834 17.9192 19.8766C17.925 19.8699 17.933 19.861 17.9436 19.8496C17.9651 19.8266 17.994 19.7968 18.0317 19.7592C18.1074 19.6838 18.2099 19.5855 18.344 19.4598C18.6122 19.2082 18.9906 18.8614 19.5014 18.3934C21.034 16.9892 22 14.9468 22 12.6744C22 8.43595 18.6421 5 14.5 5ZM16.0851 22.6744H12.9149C12.9179 22.7714 12.9224 22.8561 12.9291 22.9323C12.9477 23.1418 12.979 23.2178 13.0004 23.2558C13.0603 23.3619 13.1463 23.4499 13.25 23.5112C13.2871 23.5331 13.3615 23.5651 13.5661 23.5841C13.7802 23.604 14.0626 23.6047 14.5 23.6047C14.9374 23.6047 15.2198 23.604 15.4339 23.5841C15.6385 23.5651 15.7129 23.5331 15.75 23.5112C15.8537 23.4499 15.9397 23.3619 15.9996 23.2558C16.021 23.2178 16.0523 23.1418 16.0709 22.9323C16.0776 22.8561 16.0821 22.7714 16.0851 22.6744ZM15.6105 11.1765C15.9169 11.4004 15.9879 11.8362 15.769 12.1497L14.591 13.8372H15.9934C16.2488 13.8372 16.4828 13.9833 16.5996 14.2156C16.7165 14.448 16.6966 14.7277 16.5482 14.9404L14.6001 17.7311C14.3813 18.0446 13.9555 18.1173 13.649 17.8933C13.3426 17.6693 13.2716 17.2336 13.4905 16.9201L14.6685 15.2326H13.2661C13.0107 15.2326 12.7767 15.0865 12.6599 14.8541C12.543 14.6218 12.5628 14.342 12.7113 14.1294L14.6593 11.3387C14.8782 11.0251 15.304 10.9525 15.6105 11.1765Z" fill="#DEFA8E"/>
</svg>
