<svg width="44" height="46" viewBox="0 0 44 46" fill="none" xmlns="http://www.w3.org/2000/svg">
<g clip-path="url(#clip0_0_13497)">
<path d="M11.3787 11.9244C10.524 11.9244 9.79803 11.1982 9.79803 10.2698C9.79803 9.34139 10.524 8.61514 11.3787 8.61514C12.2333 8.61514 12.9593 9.34139 12.9593 10.2698C12.9593 11.1982 12.2333 11.9244 11.3787 11.9244Z" stroke="#14FFD5"/>
<path d="M39.1206 30.5979C38.266 30.5979 37.54 29.8717 37.54 28.9433C37.54 28.0149 38.266 27.2887 39.1206 27.2887C39.9753 27.2887 40.7013 28.0149 40.7013 28.9433C40.7013 29.8717 39.9753 30.5979 39.1206 30.5979Z" stroke="#14FFD5"/>
<path d="M30.1045 14.7973C27.3377 14.7973 25.0561 12.4601 25.0561 9.55158C25.0561 6.64307 27.3377 4.30588 30.1045 4.30588C32.8713 4.30588 35.1529 6.64307 35.1529 9.55158C35.1529 12.4601 32.8713 14.7973 30.1045 14.7973Z" stroke="#14FFD5"/>
<path d="M26.6368 44.9622C24.2522 44.9622 22.2819 42.9468 22.2819 40.4347C22.2819 37.9226 24.2522 35.9072 26.6368 35.9072C29.0213 35.9072 30.9916 37.9226 30.9916 40.4347C30.9916 42.9468 29.0213 44.9622 26.6368 44.9622ZM26.6368 38.4983C25.5793 38.4983 24.7497 39.383 24.7497 40.4347C24.7497 41.4864 25.5793 42.3711 26.6368 42.3711C27.6942 42.3711 28.5239 41.4864 28.5239 40.4347C28.5239 39.383 27.6942 38.4983 26.6368 38.4983Z" stroke="#14FFD5"/>
<path d="M9.99162 44.9622C7.60703 44.9622 5.63678 42.9468 5.63678 40.4347C5.63678 37.9226 7.60703 35.9072 9.99162 35.9072C12.3762 35.9072 14.3465 37.9226 14.3465 40.4347C14.3465 42.9468 12.3762 44.9622 9.99162 44.9622ZM9.99162 38.4983C8.93417 38.4983 8.10452 39.383 8.10452 40.4347C8.10452 41.4864 8.93417 42.3711 9.99162 42.3711C11.0491 42.3711 11.8787 41.4864 11.8787 40.4347C11.8787 39.383 11.0491 38.4983 9.99162 38.4983Z" stroke="#14FFD5"/>
<path d="M14.7909 41.1529C14.7202 41.66 14.5773 42.1426 14.3713 42.5893H22.257C22.051 42.1426 21.9081 41.66 21.8374 41.1529H14.7909Z" fill="white"/>
<path d="M39.7837 23.9682C39.7941 23.7111 39.8142 23.454 39.8142 23.1976C39.8142 19.924 38.9514 16.7416 37.3313 13.9542C38.0408 12.6614 38.4271 11.1869 38.4271 9.69233V9.55156C38.4271 4.79915 34.6937 0.933014 30.1045 0.933014C27.0265 0.933014 24.339 2.67683 22.8992 5.25665C20.2103 5.19273 17.4805 5.78669 15.0434 6.98252C14.1522 5.91885 12.8414 5.24229 11.3787 5.24229C8.70159 5.24229 6.52385 7.49819 6.52385 10.2698C6.52385 11.3514 6.86924 12.4223 7.49482 13.2856L7.78195 13.682C6.17916 16.3315 5.28171 19.3473 5.16242 22.4794H3.74966C2.98467 22.4794 2.36256 23.1236 2.36256 23.9158V38.2801C1.59758 38.2801 0.975464 38.9243 0.975464 39.7165V41.1529C0.975464 41.9451 1.59758 42.5893 2.36256 42.5893H5.61183C5.40585 42.1426 5.26298 41.66 5.19224 41.1529H2.36256V39.7165H5.19224C5.26298 39.2094 5.40585 38.7268 5.61183 38.2801H3.74966V23.9158H9.29804V29.3872L12.7658 27.5916L16.2335 29.3872V23.9158H21.7819V38.2801H14.3714C14.5773 38.7268 14.7202 39.2094 14.7909 39.7165H21.8374C21.9061 39.2209 22.0469 38.7512 22.2445 38.3131C22.4775 37.7974 22.7883 37.3256 23.169 36.9226V28.2251H29.7147C30.0331 28.2251 30.3105 28.4492 30.3875 28.7688L30.6032 29.6615H27.3303C26.5653 29.6615 25.9432 30.3057 25.9432 31.0979V32.5344C25.9432 33.3266 26.5653 33.9708 27.3303 33.9708H31.6435L32.6838 38.2801H31.0165C31.2225 38.7268 31.3654 39.2094 31.4361 39.7165H32.8787V41.1529H31.4361C31.3654 41.66 31.2225 42.1426 31.0165 42.5893H32.8787C33.6437 42.5893 34.2658 41.9451 34.2658 41.1529V39.175C34.2658 38.9997 34.245 38.8245 34.2041 38.6521L33.7602 36.8135C34.7936 35.8949 35.7153 34.8592 36.5122 33.7201L39.1206 37.3227L43.0045 31.9598C43.6308 31.0958 43.9755 30.0242 43.9755 28.9433C43.9755 26.4051 42.1473 24.3051 39.7837 23.9682ZM30.1045 2.36944C33.9287 2.36944 37.04 5.59134 37.04 9.55156V9.69162C37.04 11.2932 36.5136 12.8697 35.5579 14.1287L30.1045 21.3173L24.6511 14.1287C23.6954 12.8697 23.169 11.2939 23.169 9.69162V9.55156C23.169 5.59134 26.2803 2.36944 30.1045 2.36944ZM11.3787 6.67871C13.2908 6.67871 14.8464 8.28966 14.8464 10.2698C14.8464 11.0419 14.6002 11.8075 14.1529 12.4237L11.3787 16.2546L8.6045 12.4237C8.15716 11.8075 7.91095 11.0419 7.91095 10.2698C7.91095 8.28966 9.46658 6.67871 11.3787 6.67871ZM14.8464 27.063L12.7658 25.9857L10.6851 27.063V23.9158H14.8464V27.063ZM27.3303 32.5344V31.0979H30.9499L31.2967 32.5344H27.3303ZM33.3815 35.2456L31.7336 28.4204C31.5013 27.4602 30.6711 26.7887 29.7147 26.7887H23.169V23.9158C23.169 23.1236 22.5469 22.4794 21.7819 22.4794H6.54882C6.65979 19.8033 7.38385 17.2206 8.67593 14.9173L11.3787 18.6492L15.2626 13.2863C15.8888 12.4223 16.2335 11.3507 16.2335 10.2698C16.2335 9.53074 16.0747 8.83048 15.7966 8.19773C17.8287 7.22312 19.9995 6.71462 22.2646 6.68518C21.9581 7.58366 21.7819 8.54535 21.7819 9.55156V9.69162C21.7819 11.6143 22.4137 13.506 23.5602 15.0164L30.1045 23.6415L36.4643 15.2592C37.7495 17.6839 38.4271 20.4059 38.4271 23.1976C38.4271 23.4569 38.4077 23.7176 38.3966 23.9783C36.0628 24.3424 34.2658 26.4267 34.2658 28.9433C34.2658 30.0249 34.6112 31.0958 35.2368 31.9591L35.6369 32.5121C34.9801 33.5054 34.229 34.4233 33.3815 35.2456ZM41.8948 31.0972L39.1206 34.9282L36.3464 31.0972C35.8991 30.481 35.6529 29.7154 35.6529 28.9433C35.6529 26.9632 37.2085 25.3522 39.1206 25.3522C41.0327 25.3522 42.5884 26.9632 42.5884 28.9433C42.5884 29.7154 42.3422 30.481 41.8948 31.0972Z" fill="white"/>
<path d="M17.6206 19.6065H19.0077V21.043H17.6206V19.6065Z" fill="white"/>
<path d="M20.3948 19.6065H21.7819V21.043H20.3948V19.6065Z" fill="white"/>
<path d="M23.169 19.6065H24.5561V21.043H23.169V19.6065Z" fill="white"/>
</g>
<defs>
<clipPath id="clip0_0_13497">
<rect width="43" height="44.5292" fill="white" transform="translate(0.975464 0.933014)"/>
</clipPath>
</defs>
</svg>
