<svg width="1464" height="190" viewBox="0 0 1464 190" fill="none" xmlns="http://www.w3.org/2000/svg">
<path d="M550.98 187.385C556.562 187.166 562.145 186.817 567.729 186.754C578.228 186.635 588.504 184.403 598.923 183.563C610.633 182.618 622.339 181.594 634.062 180.809C642.711 180.23 651.379 179.888 660.045 179.605C670.573 179.26 681.104 179.056 691.637 178.855C700.163 178.692 708.691 178.563 717.219 178.528C727.394 178.484 737.571 178.528 747.746 178.583C757.205 178.635 766.667 178.703 776.124 178.857C787.088 179.032 798.05 179.315 809.015 179.532C817.327 179.697 825.639 179.844 833.953 179.98C843.483 180.135 853.014 180.32 862.547 180.401C870.716 180.469 878.886 180.46 887.056 180.394C901.102 180.282 915.145 180.16 929.188 179.931C939.721 179.76 950.25 179.442 960.781 179.149C972.099 178.833 983.414 178.51 994.73 178.111C1005.04 177.747 1015.35 177.265 1025.66 176.861C1034.9 176.499 1044.13 176.186 1053.37 175.828C1062.32 175.482 1071.27 175.107 1080.22 174.743C1083.59 174.605 1086.95 174.471 1090.31 174.313C1091.1 174.276 1463.22 174.142 1464 174.052C1463.95 174.78 1463.91 175.508 1463.86 176.234C1461.58 176.256 1087.94 176.221 1085.66 176.307C1073.13 176.778 1060.61 177.263 1048.08 177.771C1036.55 178.241 1025.03 178.774 1013.5 179.225C1004.12 179.594 994.741 179.892 985.359 180.203C975.549 180.528 965.738 180.861 955.927 181.133C948.406 181.341 940.883 181.462 933.36 181.616C925.553 181.774 917.743 181.964 909.935 182.063C902.626 182.155 895.316 182.157 888.009 182.179C879.984 182.203 871.958 182.263 863.933 182.197C854.4 182.12 844.87 181.947 835.34 181.778C825.665 181.607 815.992 181.388 806.317 181.195C796.787 181.006 787.256 180.789 777.724 180.649C767.046 180.491 756.369 180.337 745.691 180.302C732.722 180.26 719.75 180.267 706.78 180.396C694.671 180.517 682.56 180.664 670.459 181.094C654.708 181.653 638.959 182.352 623.225 183.271C609.135 184.096 595.083 185.541 581.111 187.563C574.769 188.48 568.421 188.648 562.056 188.815C556.185 188.969 550.309 189.17 544.438 189.102C535.789 189.001 527.277 187.828 519.159 184.637C516.774 183.699 514.46 182.449 512.313 181.028C507.373 177.763 504.063 173.21 502.694 167.311C502.282 165.539 501.907 163.759 501.581 161.969C501.447 161.23 501.066 160.256 502.099 159.899C502.97 159.596 503.302 160.458 503.694 161.055C504.811 162.75 505.928 164.445 507.036 166.144C507.235 166.447 507.386 166.783 507.748 167.454C507.907 166.728 508.017 166.53 507.974 166.379C505.115 156.43 507.446 147.496 513.292 139.36C514.883 137.145 517 135.325 518.85 133.301C519.372 132.728 519.974 132.143 520.25 131.446C521.733 127.698 523.62 124.207 526.162 121.091C526.319 120.898 526.412 120.652 526.242 120.132C525.651 120.588 525.034 121.016 524.471 121.507C516.78 128.218 510.35 135.965 505.536 145.077C503.571 148.794 501.428 152.412 499.343 156.061C498.368 157.767 496.762 158.542 494.947 158.895C494.037 159.072 493.094 159.171 492.169 159.153C486.009 159.037 479.847 158.976 473.691 158.717C461.87 158.221 450.061 157.474 438.238 157.085C427.423 156.73 416.599 156.664 405.777 156.55C395.386 156.441 384.995 156.357 374.605 156.401C362.137 156.454 349.67 156.697 337.203 156.774C329.033 156.824 320.859 156.914 312.696 156.647C303.53 156.346 294.364 155.8 285.219 155.09C280.732 154.741 276.288 153.803 271.831 153.083C271.141 152.971 270.426 152.719 269.833 152.349C268.953 151.798 268.994 150.732 269.923 150.257C270.607 149.906 271.411 149.669 272.176 149.627C276.254 149.406 280.333 149.129 284.413 149.118C293.659 149.092 302.904 149.189 312.15 149.27C323.69 149.373 335.23 149.474 346.768 149.651C358.522 149.833 370.277 150.057 382.028 150.362C389.267 150.548 396.501 150.925 403.737 151.206C412.907 151.564 422.078 151.901 431.248 152.263C438.984 152.57 446.719 152.98 454.46 153.2C464.059 153.471 473.663 153.656 483.266 153.741C486.488 153.77 489.692 153.294 492.78 152.204C495.044 151.406 496.518 149.969 497.208 147.57C498.657 142.529 500.49 137.628 502.864 132.948C512.114 114.707 527.044 105.26 546.961 103.738C553.602 103.229 560.116 104.251 566.392 106.628C574.51 109.703 580.826 115.012 584.94 122.744C587.113 126.827 588.724 131.224 590.544 135.498C591.596 137.97 592.489 140.516 593.591 142.963C594.151 144.206 594.936 145.373 595.764 146.461C597.146 148.274 599.024 149.336 601.29 149.454C608.693 149.842 614.829 147.439 618.958 140.875C619.84 139.472 620.53 137.932 621.218 136.415C621.841 135.038 622.339 133.601 622.934 132.086C621.14 131.582 619.454 131.259 617.887 130.628C615.97 129.854 614.023 129.018 612.322 127.856C609.741 126.09 609.846 124.134 612.373 122.33C612.958 121.913 613.572 121.512 614.225 121.227C618.402 119.402 621.656 116.365 624.849 113.181C626.6 111.433 627.745 109.543 628.303 107.095C629.144 103.413 630.334 99.8125 631.242 96.1437C631.57 94.8192 631.645 93.3916 631.598 92.021C631.443 87.475 629.532 83.9313 625.617 81.5563C622.007 79.3656 618.072 78.041 614.053 76.9468C605.866 74.7209 597.528 73.3986 589.104 72.4622C573.838 70.7649 558.516 69.8701 543.187 69.2868C523.615 68.5412 504.106 67.0062 484.59 65.4733C481.878 65.2606 479.15 65.2321 476.429 65.1268C476.071 65.1137 475.711 65.1356 475.353 65.1553C471.118 65.3878 469.751 67.0193 470.254 71.335C470.995 77.7011 471.957 84.0453 472.494 90.4267C473.428 101.477 473.682 112.551 472.339 123.597C471.864 127.509 471.112 131.373 469.439 134.976C467.61 138.917 464.673 141.288 460.277 141.511C459.205 141.566 458.127 141.603 457.056 141.575C445.949 141.272 434.847 140.796 423.738 140.68C411.057 140.546 398.372 140.741 385.69 140.761C380.53 140.77 375.357 140.842 370.262 139.82C368.651 139.498 367.036 139.09 365.505 138.498C361.141 136.812 358.127 133.689 356.963 129.075C356.238 126.202 355.69 123.209 355.617 120.255C355.376 110.79 355.369 101.319 355.332 91.8499C355.328 90.4794 355.574 89.089 355.852 87.7382C356.465 84.7492 358.245 82.8172 361.199 82.1155C362.73 81.7515 364.307 81.5673 365.825 81.155C367.612 80.6704 369.473 80.2515 371.099 79.4028C373.992 77.8941 374.137 75.1178 371.517 73.1354C368.781 71.0631 365.745 70.5741 362.61 72.0872C361.266 72.7363 360.078 73.7188 358.841 74.5828C358.133 75.0762 357.508 75.7012 356.777 76.1507C355.516 76.9248 354.61 76.6748 353.976 75.3064C353.491 74.2582 353.209 73.1135 352.829 72.0148C352.266 70.3833 351.697 68.7539 350.74 67.1443C350.617 67.5807 350.447 68.0083 350.38 68.4513C349.77 72.5389 350.362 76.6003 350.701 80.6594C351.689 92.4903 352.816 104.31 353.711 116.15C354.028 120.352 353.953 124.597 353.825 128.814C353.771 130.597 353.284 132.421 352.7 134.123C351.669 137.125 349.58 139.255 346.516 139.987C343.954 140.599 341.302 141.02 338.676 141.127C331.804 141.408 324.924 141.529 318.045 141.608C310.522 141.693 302.997 141.772 295.474 141.643C290.817 141.562 286.181 141.007 281.741 139.377C277.198 137.709 273.865 134.671 271.825 130.233C271.008 128.457 270.322 126.606 269.708 124.744C267.336 117.56 263.457 111.33 258.224 105.972C255.597 103.284 252.837 100.727 250.2 98.0494C248.579 96.4047 247.02 94.6854 245.534 92.9135C244.752 91.9793 244.09 90.907 243.538 89.8127C241.254 85.2843 242.636 81.0453 247.193 78.916C248.594 78.2603 250.194 77.859 251.733 77.7406C254.153 77.552 256.6 77.7472 259.034 77.6902C261.607 77.6288 264.198 77.62 266.738 77.2713C267.935 77.1068 269.171 76.3788 270.145 75.5937C271.379 74.5981 271.323 73.1749 269.992 72.2933C268.828 71.5236 267.444 70.9513 266.081 70.6771C263.293 70.1158 260.514 70.585 257.786 71.2934C252.016 72.7911 246.682 75.1793 242.194 79.2713C242.089 79.3678 241.992 79.4796 241.878 79.5673C240.547 80.598 239.532 80.2296 239.366 78.5629C238.568 70.5456 239.064 62.6883 242.361 55.2126C247.975 42.4826 256.173 31.7525 266.719 22.8645C267.873 21.8931 269.153 21.0641 270.434 20.2681C271.094 19.858 271.862 19.5576 272.618 19.4019C274.736 18.9633 275.98 20.233 275.51 22.4018C275.281 23.4523 274.908 24.5312 274.348 25.4347C273.089 27.4631 271.793 29.4916 270.292 31.3359C266.911 35.4915 263.353 39.5002 259.957 43.6426C258.495 45.4255 257.085 47.3004 255.953 49.307C254.233 52.353 255.069 54.3858 258.299 55.627C261.178 56.7323 264.216 56.8331 267.215 56.6972C270.283 56.559 273.334 56.059 276.392 55.695C276.886 55.6358 277.371 55.4823 277.852 55.3397C282.535 53.9494 284.236 51.6227 283.837 46.6755C283.436 41.669 282.748 36.6844 282.328 31.678C282.091 28.8556 281.991 26.0026 282.086 23.1737C282.246 18.3778 284.706 15.1651 289.07 13.3669C292.367 12.0095 295.811 11.2815 299.323 11.1411C307.913 10.7968 316.51 10.4876 325.107 10.4569C328.369 10.4459 331.683 11.0161 334.887 11.7222C340.192 12.8889 343.497 16.3647 344.237 21.8492C344.741 25.5838 344.799 29.3951 344.832 33.1757C344.875 38.419 344.416 43.6799 345.244 48.8859C345.558 50.8705 346.216 52.842 346.997 54.6972C347.969 57.0152 349.813 58.5809 352.202 59.2695C354.123 59.8221 356.096 60.3221 358.077 60.5063C369.149 61.5348 380.247 62.1642 391.369 61.7979C396.167 61.6401 400.953 61.2278 405.745 60.9142C406.23 60.8835 406.708 60.7388 407.2 60.241C404.994 60.0041 402.79 59.5809 400.583 59.5655C394.78 59.5261 388.976 59.6774 383.173 59.73C378.932 59.7673 374.719 59.5217 370.611 58.3243C365.439 56.8178 361.948 53.5437 360.66 48.171C358.981 41.1602 357.547 34.0946 357.098 26.871C356.935 24.2198 357.4 21.6299 358.343 19.1585C359.77 15.4129 362.388 12.8757 366.079 11.4437C369.986 9.9306 374.068 9.68719 378.154 9.91745C388.322 10.4898 398.465 11.3845 408.466 13.4459C410.279 13.8209 412.047 14.459 413.811 15.0511C415.048 15.4678 415.782 16.3998 416.165 17.687C418.056 24.04 419.898 30.4236 420.256 37.0857C420.445 40.6339 420.226 44.2128 420.038 47.7697C419.842 51.4648 419.13 55.1424 419.725 59.0502C420.312 58.7234 420.79 58.4515 421.271 58.1862C424.087 56.6292 427.143 56.2608 430.245 56.6402C433.085 56.9888 435.873 57.752 438.711 58.1314C445.313 59.0151 451.93 59.8024 458.548 60.5611C459.509 60.6708 460.512 60.4098 461.922 60.2826C461.387 59.2629 461.12 58.4515 460.613 57.8463C459.455 56.4603 458.246 55.1029 456.941 53.8617C448.929 46.2434 440.824 38.7261 432.878 31.0354C429.353 27.6232 426.084 23.9303 422.8 20.2725C421.651 18.9918 420.777 17.448 419.822 15.9963C419.51 15.5182 419.197 14.9612 419.139 14.413C419.085 13.9086 419.236 13.231 419.559 12.8867C419.794 12.6389 420.543 12.6411 420.918 12.8297C421.677 13.2112 422.416 13.7134 423.022 14.3121C424.973 16.2419 426.903 18.2002 428.766 20.2177C436.667 28.7855 444.823 37.0857 453.433 44.9189C459.175 50.1425 465.598 54.4012 472.237 58.3309C473.449 59.048 474.799 59.5217 476.086 60.1094C476.185 59.9625 476.282 59.8177 476.382 59.6708C475.84 59.184 475.312 58.684 474.76 58.2125C456.534 42.6273 438.834 26.4478 421.899 9.42184C419.432 6.94163 416.978 5.78815 413.522 5.66315C400.481 5.19825 387.456 4.34739 374.417 3.82328C362.025 3.32548 349.627 3.01408 337.231 2.70269C328.348 2.47901 319.458 2.22024 310.574 2.28822C299.041 2.37594 287.505 2.65005 275.98 3.08426C268.966 3.34741 261.995 4.24651 255.117 5.79473C244.842 8.10828 235.534 12.4985 227.616 19.5335C221.631 24.8513 215.988 30.5727 210.272 36.1954C208.892 37.5528 207.773 39.1975 206.637 40.7852C206.011 41.6602 205.492 42.6492 205.114 43.6624C204.237 46.0132 204.774 47.4605 207.042 48.4517C208.674 49.1644 210.403 49.7785 212.15 50.0657C217.523 50.9561 222.925 51.66 228.311 52.4604C229.585 52.649 230.864 52.8617 232.106 53.1951C233.205 53.4889 234.484 53.8178 234.607 55.2367C234.73 56.6796 233.527 57.1994 232.446 57.5963C230.969 58.1379 229.464 58.6511 227.931 58.9888C221.124 60.4953 214.196 61.0743 207.266 61.6181C201.675 62.0567 196.106 61.6181 190.523 61.4164C184.51 61.1993 178.485 61.2738 172.467 61.2212C169.099 61.1927 165.725 61.2892 162.365 61.1116C155.836 60.7695 149.323 61.0984 142.813 61.4208C136.661 61.7256 130.514 62.1861 124.382 62.7563C118.871 63.2672 113.463 64.4163 108.316 66.5391C106.401 67.3285 104.545 68.3219 102.787 69.4294C99.4712 71.5192 98.1408 74.6771 98.5871 78.5805C98.8179 80.6046 99.2189 82.6067 99.5143 84.6242C99.9154 87.361 100.23 90.111 100.705 92.8346C100.886 93.874 101.25 94.9464 101.787 95.8477C104.34 100.124 106.412 104.573 107.003 109.608C107.096 110.402 107.19 111.207 107.162 112.003C107.124 113.117 107.294 114.106 107.835 115.128C108.846 117.038 108.553 119.119 108.033 121.106C107.594 122.79 106.966 124.426 106.36 126.06C104.094 132.154 105.573 136.084 111.332 139.018C114.981 140.875 118.929 141.735 122.946 141.941C129.313 142.27 135.695 142.329 142.071 142.467C148.232 142.601 154.394 142.5 160.515 143.535C167.077 144.645 172.881 147.255 177.567 152.09C180.076 154.682 182.371 157.493 184.695 160.265C187.254 163.316 189.725 166.44 192.259 169.511C192.897 170.285 193.63 170.978 194.458 171.607C194.426 170.783 193.803 170.322 193.346 169.789C188.292 163.919 185.174 157.147 184.288 149.384C181.584 125.713 199.047 111.615 215.085 110.016C220.447 109.481 225.7 110.157 230.745 112.029C234.305 113.352 237.891 114.714 241.235 116.501C253.359 122.985 259.974 133.211 260.99 147.182C261.288 151.263 261.624 155.314 261.014 159.388C260.546 162.511 259.692 165.508 258.258 168.313C254.274 176.1 247.835 179.975 239.314 180.074C236.205 180.111 233.199 180.532 230.159 180.993C221.749 182.269 213.291 182.113 204.843 181.554C195.614 180.942 186.401 180.07 177.17 179.482C163.931 178.642 150.69 177.828 137.438 177.252C128.347 176.855 119.237 176.771 110.136 176.743C99.0292 176.708 87.9226 176.866 76.8181 176.967C68.4348 177.043 60.0472 177.041 51.6682 177.289C39.8544 177.64 14.2089 177.192 2.39727 177.649C1.91213 177.668 1.42482 177.592 0.907336 177.556C0.599 176.703 0.598999 176.07 1.61457 175.896C1.96819 175.835 2.32612 175.796 2.68405 175.78C11.4188 175.425 33.9895 176.024 42.7286 175.743C50.1071 175.506 57.4878 175.366 64.8685 175.26C73.8986 175.133 82.9288 175.063 91.959 175.013C99.9865 174.969 108.016 174.894 116.042 175.004C124.714 175.122 133.393 175.263 142.052 175.706C157.018 176.473 171.973 177.453 186.929 178.403C192.796 178.776 198.65 179.396 204.517 179.741C212.105 180.186 219.701 180.403 227.282 179.532C227.908 179.46 228.526 179.337 229.177 178.964C228.628 178.76 228.084 178.537 227.528 178.357C219.565 175.8 212.726 171.454 207.044 165.208C206.393 164.493 205.477 163.969 204.597 163.539C198.186 160.399 193.229 155.735 189.995 149.252C187.972 145.2 186.985 140.928 187.487 136.36C187.535 135.932 187.546 135.5 187.216 134.972C187.017 135.678 186.771 136.373 186.631 137.09C184.341 148.689 186.862 159.068 194.361 168.138C196.114 170.256 198.035 172.23 199.851 174.296C200.517 175.054 201.132 175.866 201.712 176.697C202.145 177.32 202.445 178.14 201.725 178.638C201.309 178.925 200.437 178.934 199.985 178.679C198.741 177.978 197.451 177.23 196.464 176.214C193.141 172.798 189.881 169.313 186.72 165.743C184.852 163.634 183.27 161.265 181.456 159.103C179.738 157.053 177.959 155.042 176.072 153.151C171.633 148.7 166.193 146.312 160.084 145.294C153.109 144.132 146.08 144.417 139.061 144.294C133.688 144.2 128.315 144.024 122.946 143.752C119.136 143.559 115.414 142.761 111.869 141.272C109.661 140.347 107.647 139.108 106.024 137.29C103.848 134.853 102.99 132.018 103.751 128.803C104.152 127.112 104.775 125.474 105.323 123.821C105.907 122.051 106.636 120.319 106.619 117.981C106.028 118.9 105.67 119.503 105.269 120.075C102.852 123.538 98.5376 124.643 94.9841 122.72C91.4674 120.816 91.0275 116.887 94.0764 114.286C95.9717 112.67 98.2616 112.075 100.674 112.04C102.16 112.018 103.65 112.214 105.355 112.325C105.394 107.165 103.549 102.65 100.905 97.9156C100.569 99.0757 100.454 99.8564 100.122 100.527C99.5812 101.617 99.0529 102.782 98.2422 103.648C96.7005 105.297 94.6478 105.394 92.7525 104.168C89.0352 101.762 87.3253 95.2446 89.3716 91.2776C90.8938 88.3237 93.6667 87.5606 96.4094 89.3676C97.0584 89.7952 97.6535 90.3061 98.516 90.964C98.4966 90.1658 98.544 89.6241 98.4599 89.1022C97.9683 86.0102 97.4314 82.9269 96.9377 79.8349C96.0234 74.1201 98.0912 69.8877 103.044 67.0434C108.24 64.0567 113.883 62.3791 119.729 61.6072C126.115 60.7651 132.554 60.287 138.979 59.798C143.192 59.4778 147.425 59.3462 151.651 59.2717C156.093 59.1927 160.537 59.2717 164.979 59.3024C172.146 59.3528 179.313 59.4076 186.48 59.4932C187.981 59.5107 189.482 59.673 190.983 59.7607C202.837 60.4471 214.604 59.6489 226.28 57.4954C227.895 57.1972 229.469 56.6665 231.047 56.1928C231.48 56.0634 231.862 55.7498 232.511 55.3836C230.954 54.6073 229.559 54.4253 228.162 54.2257C222.56 53.4231 216.948 52.6819 211.365 51.7499C209.552 51.4473 207.745 50.8004 206.069 50.0197C203.269 48.7149 202.374 46.5461 203.292 43.5352C203.67 42.3027 204.271 41.0944 204.983 40.0221C206.022 38.4563 207.158 36.9344 208.415 35.5463C214.401 28.9434 220.786 22.7615 227.64 17.0971C237.3 9.11483 248.48 4.75966 260.684 2.84523C270.057 1.37377 279.499 0.911056 288.962 0.757551C297.633 0.61501 306.307 0.450539 314.977 0.511942C323.936 0.575537 332.895 0.880355 341.852 1.11281C351.527 1.3628 361.202 1.59525 370.874 1.94174C381.049 2.30576 391.22 2.77286 401.391 3.23557C406.549 3.47021 411.7 3.81889 416.858 4.05353C418.222 4.11494 419.275 4.54037 420.284 5.52938C439.325 24.2176 458.824 42.3927 479.189 59.5919C479.409 59.7783 479.685 59.9296 479.834 60.1642C480.125 60.6203 480.619 61.1773 480.537 61.5962C480.392 62.3484 479.646 61.9251 479.12 62.0019C476.226 62.4185 473.801 61.1357 471.438 59.8221C466.148 56.8836 461.098 53.5547 456.351 49.7653C455.803 49.3289 455.238 48.9166 454.46 48.7258C454.839 49.1469 455.203 49.5855 455.6 49.989C457.476 51.8946 459.404 53.7521 461.224 55.7125C462 56.5481 462.681 57.5349 463.179 58.5634C464.018 60.2958 463.41 61.5743 461.605 62.0808C460.857 62.2914 460.042 62.4251 459.274 62.3637C455.633 62.0765 451.98 61.8528 448.366 61.3396C442.482 60.5041 436.63 59.434 430.756 58.5239C428.098 58.1116 425.45 58.2739 422.955 59.4033C421.864 59.8967 420.534 60.4054 420.672 61.9449C420.799 63.3703 422.015 64.083 423.195 64.3089C424.562 64.572 426.043 64.5983 427.412 64.3549C428.725 64.1225 429.95 63.3922 431.226 62.9185C432.098 62.5962 432.975 62.2409 433.883 62.083C434.903 61.9054 435.916 62.0962 436.548 63.0808C437.178 64.0632 436.943 65.0545 436.38 65.9601C436.039 66.5062 435.621 67.0325 435.138 67.4513C433.51 68.8702 431.638 69.675 429.454 69.6881C423.792 69.721 419.191 65.9865 418.121 60.3331C417.826 58.7717 417.711 57.1489 417.737 55.5568C417.776 53.2279 417.867 50.8793 418.203 48.5789C419.508 39.6493 418.1 31.0091 415.695 22.461C415.361 21.2703 414.915 20.1058 414.667 18.8975C414.384 17.5116 413.587 16.7002 412.31 16.3581C410.096 15.7638 407.894 15.0599 405.641 14.6871C395.513 13.0139 385.323 11.8911 375.055 11.7288C373.21 11.7003 371.325 11.9393 369.512 12.3253C362.918 13.7266 359.347 17.9173 358.972 24.8141C358.847 27.1232 359.017 29.4894 359.369 31.7788C360.063 36.3116 360.969 40.8093 361.81 45.318C361.969 46.1755 362.226 47.0132 362.446 47.8574C363.636 52.4407 366.581 55.3441 371.006 56.4867C373.764 57.1994 376.642 57.7015 379.48 57.7629C386.211 57.9099 392.952 57.6489 399.686 57.7388C402.467 57.7761 405.249 58.2366 408.015 58.6116C408.916 58.7344 409.839 59.0721 410.633 59.5283C411.73 60.1598 411.646 61.3703 410.473 61.8594C409.628 62.2124 408.683 62.3878 407.767 62.4821C400.136 63.265 392.484 63.89 384.812 63.6225C375.86 63.3111 366.913 62.7935 357.97 62.287C356.264 62.1905 354.556 61.8286 352.892 61.4186C348.737 60.3967 345.99 57.7476 344.536 53.6687C343.396 50.4692 343.055 47.1382 343.023 43.7786C342.975 38.8247 343.15 33.8665 343.04 28.9149C342.98 26.2373 342.712 23.529 342.193 20.9041C341.507 17.4305 339.318 14.9875 335.985 13.9788C333.466 13.2156 330.819 12.5841 328.21 12.492C322.058 12.2727 315.889 12.277 309.733 12.4437C305.015 12.5709 300.291 12.9415 295.601 13.4897C293.432 13.7419 291.28 14.5182 289.228 15.3362C285.83 16.6936 284.156 19.4151 283.848 23.0926C283.486 27.4171 284.137 31.6714 284.594 35.9432C284.973 39.4914 285.346 43.0396 285.653 46.5943C285.745 47.6732 285.698 48.7873 285.545 49.8618C285.094 53.0284 283.33 55.3112 280.398 56.3024C277.839 57.1665 275.146 57.6928 272.472 58.1138C268.56 58.7278 264.597 58.7739 260.693 58.0721C259.032 57.7739 257.348 57.1818 255.871 56.3573C253.53 55.0525 252.693 52.7104 253.681 50.1973C254.388 48.3969 255.334 46.614 256.525 45.1075C259.619 41.1865 262.946 37.4563 266.102 33.5858C268.203 31.0069 270.223 28.3557 272.17 25.6562C273.041 24.4478 273.804 23.0992 273.746 21.1124C272.897 21.3514 272.123 21.4084 271.527 21.7681C270.178 22.586 268.832 23.4544 267.631 24.4764C257.525 33.0727 249.616 43.3948 244.167 55.6248C241.159 62.3769 240.375 69.4667 241.032 76.7779C241.056 77.0454 241.2 77.2998 241.349 77.7362C242.069 77.1726 242.675 76.6836 243.294 76.2143C249.319 71.6618 256.052 68.9952 263.569 68.6947C265.445 68.6202 267.375 69.2013 269.231 69.6706C270.018 69.8701 270.764 70.471 271.392 71.0434C273.248 72.7385 273.296 74.9556 271.575 76.8152C270.346 78.1441 268.765 78.9204 267.034 79.0936C264.405 79.3546 261.755 79.4182 259.112 79.484C256.893 79.5388 254.67 79.4182 252.452 79.4774C250.418 79.5322 248.475 80.0191 246.785 81.2559C244.336 83.0475 243.581 85.3413 244.819 88.1307C245.515 89.7009 246.459 91.2315 247.585 92.5188C249.676 94.9113 251.945 97.1503 254.204 99.3849C257.855 102.992 261.594 106.508 264.597 110.733C267.347 114.602 269.55 118.748 271.103 123.253C271.601 124.696 272.103 126.139 272.627 127.573C274.9 133.799 279.367 137.413 285.694 138.621C288.715 139.198 291.794 139.713 294.853 139.766C302.948 139.906 311.048 139.818 319.145 139.744C325.165 139.689 331.185 139.57 337.203 139.36C339.771 139.27 342.352 139.007 344.886 138.575C348.625 137.937 350.729 135.461 351.62 131.792C352.545 127.979 352.413 124.091 352.135 120.257C351.186 107.255 350.046 94.2666 348.998 81.2712C348.64 76.8481 347.956 72.4249 348.67 67.9798C348.819 67.0588 349.052 66.1027 349.474 65.2869C350.089 64.1027 351.277 64.072 352.077 65.1509C352.458 65.6663 352.739 66.2803 352.961 66.8899C353.631 68.7342 354.246 70.5982 354.89 72.4534C355.121 73.1201 355.371 73.7823 355.714 74.7231C356.516 74.0981 357.101 73.6047 357.724 73.1661C359.017 72.2561 360.249 71.1991 361.655 70.5215C365.574 68.629 369.374 69.1289 372.774 71.7955C376.261 74.5301 375.993 78.791 372.138 80.9138C370.348 81.8984 368.261 82.3523 366.275 82.9269C365.042 83.2821 363.744 83.4159 362.474 83.6396C359.468 84.1703 357.728 85.9992 357.443 89.054C357.152 92.1701 356.924 95.306 356.928 98.431C356.937 104.694 357.075 110.961 357.264 117.222C357.346 119.911 357.525 122.617 357.946 125.268C359.181 133.062 363.05 136.831 370.76 138.092C375.668 138.895 380.616 138.963 385.56 138.956C395.451 138.945 405.341 138.709 415.232 138.79C427.274 138.888 439.312 139.215 451.355 139.454C454.218 139.511 457.084 139.709 459.945 139.684C463.718 139.654 466.243 137.617 467.817 134.228C469.432 130.755 470.133 127.036 470.61 123.27C471.664 114.926 471.543 106.551 471.261 98.1634C470.967 89.4772 469.672 80.9072 468.624 72.3043C468.483 71.153 468.414 69.9754 468.479 68.8197C468.628 66.1553 469.945 64.4251 472.485 63.8023C474.001 63.4317 475.603 63.3045 477.169 63.2869C479.243 63.2628 481.326 63.4076 483.398 63.5589C497.844 64.6137 512.282 65.811 526.738 66.7211C537.9 67.4228 549.095 67.5873 560.254 68.3241C571.697 69.0807 583.131 70.0851 594.537 71.2824C603.102 72.1815 611.543 73.9359 619.7 76.8218C622.119 77.677 624.482 78.8064 626.699 80.1134C631.576 82.9905 633.56 87.5343 633.403 93.1504C633.304 96.6876 632.348 100.047 631.3 103.385C630.873 104.744 630.479 106.113 629.964 107.83C631.126 107.152 631.896 106.622 632.728 106.236C634.918 105.222 636.697 105.955 637.635 108.185C639.371 112.319 637.637 118.575 634.028 121.2C631.294 123.189 628.911 122.466 627.853 119.176C627.324 117.538 627.143 115.784 626.768 113.891C626.199 114.428 625.668 114.885 625.185 115.387C622.311 118.389 619.146 120.968 615.351 122.7C614.204 123.222 613.003 123.779 612.192 125.246C615.478 128.498 619.564 129.452 623.614 130.143C624.884 128.579 625.839 127.088 627.1 125.944C628.189 124.955 629.55 124.152 630.923 123.645C632.57 123.04 634.149 123.784 634.843 125.073C635.529 126.349 635.294 128.106 633.946 129.222C632.864 130.119 631.531 130.744 630.24 131.325C629.474 131.669 628.573 131.731 627.725 131.858C626.878 131.985 626.022 132.036 624.974 132.139C624.48 133.332 624.023 134.628 623.419 135.849C622.199 138.316 621.164 140.934 619.584 143.145C614.993 149.564 608.44 151.761 600.907 151.248C597.972 151.048 595.527 149.524 593.953 146.998C592.581 144.796 591.421 142.434 590.386 140.046C589.205 137.316 588.304 134.461 587.204 131.691C586.428 129.733 585.582 127.799 584.666 125.904C579.776 115.768 571.875 109.185 561.084 106.896C541.104 102.657 524.044 108.198 510.616 124.051C505.546 130.036 502.521 137.246 500.022 144.667C499.604 145.908 499.207 147.156 498.843 148.412C498.075 151.059 496.391 152.761 493.862 153.735C490.524 155.017 487.046 155.564 483.534 155.526C473.503 155.419 463.472 155.206 453.444 154.919C444.558 154.664 435.677 154.272 426.795 153.914C418.128 153.566 409.462 153.132 400.792 152.827C389.258 152.419 377.723 152.046 366.185 151.757C356.154 151.504 346.121 151.338 336.086 151.23C324.548 151.107 313.011 151.083 301.473 151.029C294.021 150.993 286.567 150.967 279.115 150.969C277.55 150.969 275.986 151.116 273.914 151.224C274.604 151.621 274.852 151.868 275.133 151.912C285.845 153.612 296.626 154.577 307.463 154.768C316.564 154.925 325.667 154.965 334.771 154.974C340.72 154.98 346.667 154.814 352.616 154.765C360.499 154.702 368.384 154.662 376.267 154.645C384.652 154.627 393.04 154.557 401.426 154.673C414.971 154.862 428.52 155.053 442.059 155.487C454.311 155.879 466.552 156.667 478.801 157.147C484.092 157.353 489.399 157.524 494.688 156.807C496.322 156.585 497.558 155.899 498.371 154.498C499.753 152.114 501.202 149.759 502.392 147.279C506.653 138.397 512.395 130.639 519.327 123.753C523.991 119.119 529.148 115.257 535.36 113.012C535.964 112.793 536.537 112.479 537.113 112.183C545.606 107.795 554.3 107.486 563.111 111.021C573.702 115.271 581.537 122.43 585.347 133.579C589.528 145.807 587.325 163.627 577.359 174.131C570.849 180.993 562.908 184.966 553.712 186.541C552.819 186.694 551.663 186.258 551.029 187.372C550.216 187.265 549.41 187.159 548.604 187.054C548.597 187.153 548.591 187.251 548.584 187.35C549.393 187.357 550.203 187.363 551.012 187.37L550.98 187.385ZM518.887 136.011C515.355 138.805 512.17 143.551 510.398 148.399C505.721 161.202 509.712 172.471 521.433 179.105C530.573 184.278 540.408 185.997 550.721 184.339C560.001 182.848 568.311 179.12 575.015 172.245C581.593 165.5 584.246 157.327 583.131 147.906C581.904 137.54 576.871 129.255 569.307 122.49C561.556 115.556 552.431 112.54 542.131 113.407C539.638 113.617 537.163 114.062 534.985 115.521C530.024 118.841 526.203 123.189 523.493 128.551C523.296 128.939 523.229 129.393 523.074 129.904C523.342 129.849 523.419 129.851 523.479 129.818C523.859 129.615 524.236 129.406 524.609 129.189C530.039 126.031 535.845 124.084 542.103 123.676C553.119 122.957 561.858 127.86 566.834 137.32C568.665 140.801 569.905 144.548 570.584 148.441C572.505 159.434 567.382 169.699 557.414 174.381C546.471 179.521 536.3 177.73 527.145 170.022C520.78 164.662 518.259 157.362 517.781 149.173C517.528 144.858 518.005 140.608 518.883 136.011H518.887ZM210.155 165.636C210.265 165.818 210.341 166.03 210.485 166.169C216.769 172.109 224.039 176.12 232.517 177.712C233.695 177.934 235.01 178.146 236.123 177.839C243.68 175.752 250.185 171.901 254.528 165.094C259.181 157.8 260.526 149.939 257.594 141.538C254.284 132.06 248.271 124.748 240.28 119.012C237.757 117.2 235.114 115.582 232.121 114.694C226.195 112.935 220.165 112.336 214.056 113.402C204.237 115.115 196.651 120.213 191.683 129.09C189.208 133.514 188.425 138.246 189.684 143.217C191.567 150.658 196.03 156.151 202.316 160.228C202.525 160.364 202.794 160.401 203.353 160.594C203.1 159.965 202.986 159.656 202.857 159.353C202.031 157.419 200.998 155.548 200.403 153.544C194.631 134.053 211.777 118.882 227.131 121.604C242.652 124.356 249.355 140.579 244.806 152.803C241.438 161.853 231.651 167.649 221.797 166.142C220.318 165.916 218.815 165.826 217.318 165.772C214.97 165.684 212.618 165.677 210.155 165.636ZM547.711 168.166C548.627 168.175 549.636 168.263 550.63 168.173C551.84 168.063 553.056 167.888 554.231 167.594C564.337 165.066 571.33 154.232 566.923 143.002C562.384 131.437 548.923 126.183 538.288 130.338C525.955 135.158 521.664 149.329 531.248 160C535.634 164.881 541.096 167.647 547.711 168.169V168.166ZM224.056 124.88C215.281 124.264 207.695 129.496 205.127 137.193C201.054 149.404 210.356 160.669 218.243 163.392C218.826 163.594 219.528 163.662 220.128 163.546C224.783 162.638 229.027 160.791 232.632 157.601C238.964 151.993 240.879 143.531 237.423 135.759C234.622 129.463 229.906 125.61 224.056 124.88ZM568.234 158.16C567.871 158.776 567.518 159.399 567.145 160.009C563.76 165.528 558.932 168.965 552.573 169.741C542.463 170.975 534.243 167.258 528.189 159.02C521.496 149.91 523.391 138.031 532.516 131.47C540.365 125.825 548.685 125.998 557.157 130.005C557.845 130.329 558.513 130.691 559.191 131.036C555.926 127.812 551.969 126.086 547.538 125.632C538.355 124.691 530.136 127.47 522.63 132.687C521.987 133.132 521.412 133.957 521.198 134.717C519.051 142.377 518.766 150.072 521.138 157.748C525.687 172.462 545.499 181.934 560.991 170.008C564.829 167.055 567.304 163.14 568.232 158.16H568.234ZM228.856 123.922C228.802 124.027 228.748 124.13 228.697 124.235C229.374 124.619 230.055 124.994 230.726 125.387C241.06 131.424 245.142 147.265 235.124 157.719C232.688 160.261 229.801 162.118 226.594 163.491C226.07 163.715 225.564 163.984 224.613 164.445C225.428 164.498 225.708 164.541 225.991 164.533C233.662 164.287 240.937 158.8 243.404 151.404C247.072 140.41 240.767 127.687 229.88 124.119C229.553 124.012 229.197 123.985 228.854 123.922H228.856ZM545.906 111.178C556.131 111.714 564.971 115.466 572.307 122.79C579.582 130.055 584.149 138.711 585.227 149.149C586.419 136.961 581.798 126.13 573.518 119.349C565.478 112.764 556.472 109.126 545.904 111.178H545.906ZM99.1628 97.1941C98.9602 96.1832 98.9947 95.1459 98.5483 94.4135C97.8454 93.26 96.9247 92.1833 95.9048 91.3039C93.7767 89.4706 91.711 90.0824 90.6825 92.714C89.613 95.4508 90.6351 99.7116 92.9034 101.959C94.6629 103.705 96.6724 103.499 97.8217 101.271C98.4685 100.016 98.7316 98.5581 99.1672 97.1963L99.1628 97.1941ZM504.315 166.059C504.337 166.267 504.335 166.482 504.38 166.686C505.799 172.888 509.499 177.317 514.786 180.508C519.476 183.339 524.629 184.82 529.942 185.795C531.88 186.151 533.836 186.401 535.785 186.699C522.656 183.907 512.28 176.96 504.315 166.061V166.059ZM636.518 112.181C636.404 111.501 636.326 110.251 635.966 109.091C635.501 107.589 634.718 107.336 633.314 107.972C629.698 109.611 628.495 111.692 628.914 115.7C629.011 116.635 629.166 117.584 629.455 118.47C630.194 120.729 631.283 121.055 633.114 119.591C635.285 117.854 636.132 115.422 636.518 112.178V112.181ZM105.136 114.843C103.372 113.849 101.655 113.589 99.4992 113.953C97.8648 114.229 96.2865 114.665 95.038 115.856C93.2613 117.551 93.3885 119.718 95.5146 120.878C96.584 121.461 97.9511 121.819 99.1521 121.744C102.503 121.536 104.752 118.845 105.133 114.841L105.136 114.843ZM214.362 163.791C205.448 157.221 200.839 149.129 202.721 137.974C202.32 138.601 202.029 139.228 201.858 139.888C199.778 148.04 201.815 155.27 206.662 161.857C206.913 162.199 207.229 162.592 207.598 162.726C209.666 163.476 211.773 164.044 214.362 163.791ZM242.522 177.668C249.618 177.491 257.93 169.572 258.006 162.748C254.47 169.73 249.148 174.381 242.522 177.668ZM441.423 36.1691C435.058 29.485 428.909 23.029 422.761 16.5708C424.741 20.5466 437.943 34.2437 441.423 36.1691ZM626.132 130.156C628.37 130.071 630.27 129.689 631.96 128.553C632.415 128.246 632.833 127.792 633.105 127.312C633.674 126.303 633.17 125.404 632.027 125.36C631.548 125.343 631.024 125.455 630.587 125.654C628.648 126.538 627.257 128.003 626.13 130.156H626.132ZM425.521 66.811C427.807 68.129 430.161 68.311 432.481 67.0742C433.637 66.4579 434.888 65.8 434.983 63.8703C431.513 64.0896 428.885 66.6136 425.521 66.811ZM442.027 36.7195C441.947 36.8248 441.867 36.93 441.788 37.0353C442.171 37.3423 442.553 37.6515 442.937 37.9585C442.995 37.8796 443.055 37.8006 443.114 37.7239C442.751 37.3884 442.389 37.055 442.027 36.7195Z" fill="#9C9C9C"/>
</svg>
