<svg width="117" height="74" viewBox="0 0 117 74" fill="none" xmlns="http://www.w3.org/2000/svg">
<path d="M1.45093 57.4069C1.45093 57.4069 5.62607 45.2895 15.6834 52.0107C26.8368 59.4625 33.3956 52.8252 33.3956 52.8252L33.4773 68.4752C33.4773 68.4752 32.116 72.825 40.1434 72.8969C48.1707 72.9676 85.9802 72.9089 85.9802 72.9089C85.9802 72.9089 89.3393 72.8116 89.3902 68.6818C89.4384 64.5534 89.5389 56.0472 89.5389 56.0472C89.5389 56.0472 86.9811 54.4049 87.2088 58.8146C87.4366 63.2243 86.9342 68.9071 81.726 69.0444C76.5164 69.1804 42.7964 69.3617 42.7964 69.3617C42.7964 69.3617 36.673 69.8629 36.9463 63.7709C37.221 57.6802 47.6843 54.9061 54.7657 55.5873C61.8485 56.2698 70.0138 51.6068 67.7695 47.2104C65.5238 42.8153 63.4858 40.6611 60.5153 41.3597C57.546 42.0608 56.7475 44.8336 56.7702 45.4881C56.7943 46.1426 56.9216 48.2515 58.626 49.5712V59.6678C58.626 59.6678 59.0079 62.4418 61.4398 62.4085C63.8717 62.3765 64.2643 59.8184 64.2643 59.8184L64.2938 49.6819C64.2938 49.6819 66.5716 47.477 65.765 45.4388C64.9611 43.4006 62.7864 41.2024 60.4268 42.0475C58.0673 42.8927 57.6921 45.7814 57.6921 45.7814C57.6921 45.7814 57.6345 47.7876 59.2986 48.9354L59.3281 59.0426C59.3281 59.0426 59.2678 61.2021 61.338 61.4181C61.338 61.4181 57.0074 61.3701 56.3723 57.0283C55.7398 52.6866 48.2471 51.8987 44.076 54.7755C39.9022 57.6522 36.9571 53.8703 35.8851 52.1853C34.8119 50.5004 33.4103 48.6861 33.4103 48.6861L33.4398 35.9101C33.4398 35.9101 33.677 31.9137 37.3148 31.8377C40.9527 31.7617 43.9701 31.8457 43.9701 31.8457L44.2796 16.161C44.2796 16.161 45.9425 2.2453 61.1169 1.96802C76.294 1.69208 78.7112 16.1997 78.7112 16.1997L78.8318 27.8012C78.8318 27.8012 79.6679 30.8752 75.7674 30.7992C71.8683 30.7232 72.6535 28.2811 72.6535 28.2811L72.6803 18.0286C72.6803 18.0286 71.4891 8.20536 61.1571 8.30401C50.8278 8.40532 50.3963 18.1046 50.3963 18.1046L50.2208 31.683C50.2208 31.683 50.3025 33.8346 47.6709 32.9174C45.0394 31.9976 45.3033 31.7257 45.3033 31.7257L85.8515 31.835C85.8515 31.835 89.756 31.6804 89.6113 36.1714C89.4666 40.6598 89.6113 53.7024 89.6113 53.7024C89.6113 53.7024 93.3161 48.9234 100.478 53.1558C107.641 57.3869 113.608 54.1956 116.072 51.7454" stroke="white" strokeWidth="2" stroke-linejoin="round"/>
</svg>
