<svg width="422" height="344" viewBox="0 0 422 344" fill="none" xmlns="http://www.w3.org/2000/svg">
<g clip-path="url(#clip0_111_303)">
<path d="M288.002 256.344V248.813L282.627 248.327C282.443 247.793 282.225 247.271 281.976 246.764L285.425 242.632L280.092 237.305L275.966 240.738C275.458 240.489 274.936 240.272 274.401 240.088L273.914 234.719H266.375L265.888 240.088C265.353 240.271 264.829 240.489 264.321 240.738L260.182 237.293L254.849 242.62L258.301 246.752C258.05 247.258 257.832 247.78 257.65 248.315L252.276 248.801V256.333L257.65 256.819C257.831 257.354 258.049 257.876 258.301 258.382L254.849 262.516L260.182 267.843L264.321 264.407C264.827 264.656 265.349 264.872 265.882 265.054L266.372 270.423H273.911L274.398 265.054C274.933 264.873 275.456 264.656 275.963 264.407L280.098 267.855L285.431 262.528L281.982 258.394C282.232 257.887 282.45 257.365 282.633 256.831L288.002 256.344ZM270.146 261.29C268.421 261.29 266.735 260.779 265.3 259.821C263.866 258.864 262.748 257.503 262.088 255.911C261.428 254.318 261.255 252.566 261.592 250.876C261.929 249.186 262.76 247.634 263.98 246.415C265.2 245.197 266.754 244.367 268.447 244.031C270.139 243.696 271.892 243.868 273.486 244.528C275.08 245.188 276.442 246.306 277.4 247.739C278.358 249.172 278.869 250.857 278.868 252.58C278.868 253.724 278.642 254.857 278.204 255.914C277.766 256.971 277.123 257.931 276.313 258.74C275.503 259.549 274.542 260.19 273.484 260.628C272.426 261.065 271.291 261.29 270.146 261.29Z" stroke="#F0F0F0" stroke-miterlimit="10"/>
<path d="M104.088 87.4538C104.088 87.2361 104.062 87.0243 104.056 86.8095L107.489 85.5329L105.862 78.4129L102.228 78.7499C102.052 78.3532 101.864 77.9625 101.664 77.5807L104.193 74.9498L99.6334 69.2407L96.5132 71.1199C96.1847 70.8395 95.8414 70.5829 95.495 70.3234L96.6296 66.8395L90.0397 63.6687L88.0332 66.7261C87.6152 66.6188 87.1972 66.5054 86.7702 66.4279L86.2924 62.8216H78.98L78.4992 66.4279C78.0723 66.5114 77.6572 66.6247 77.2392 66.7261L75.2297 63.6687L68.6428 66.8395L69.7834 70.3175C69.44 70.577 69.0937 70.8335 68.7652 71.1139L65.636 69.2347L61.0765 74.9438L63.6056 77.5747C63.4085 77.9565 63.2204 78.3472 63.0442 78.744L59.4104 78.4069L57.7831 85.5269L61.2139 86.8244C61.2139 87.0392 61.181 87.251 61.181 87.4687C61.181 87.6865 61.2079 87.8983 61.2139 88.113L57.7831 89.3897L59.4104 96.5097L63.0442 96.1726C63.2204 96.5693 63.4085 96.9601 63.6056 97.3419L61.0765 99.9489L65.636 105.658L68.7652 103.779C69.0937 104.059 69.44 104.319 69.7834 104.575L68.6428 108.053L75.2297 111.224L77.2392 108.167C77.6572 108.274 78.0723 108.387 78.4992 108.465L78.98 112.071H86.2924L86.7702 108.465C87.1972 108.381 87.6152 108.268 88.0332 108.167L90.0397 111.224L96.6296 108.053L95.486 104.575C95.8324 104.319 96.1758 104.059 96.5042 103.779L99.6334 105.658L104.193 99.9489L101.664 97.318C101.864 96.9362 102.052 96.5455 102.228 96.1487L105.862 96.4858L107.489 89.3658L104.056 88.0892C104.062 87.8833 104.088 87.6716 104.088 87.4538ZM82.6347 103.994C79.3605 103.992 76.1603 103.02 73.4387 101.202C70.7171 99.3833 68.5964 96.7995 67.3446 93.7771C66.0928 90.7547 65.7662 87.4294 66.4061 84.2216C67.046 81.0138 68.6236 78.0675 70.9394 75.7553C73.2553 73.443 76.2054 71.8687 79.4169 71.2312C82.6284 70.5937 85.9569 70.9218 88.9818 72.1739C92.0066 73.426 94.5919 75.546 96.4108 78.2657C98.2297 80.9855 99.2005 84.1829 99.2005 87.4538C99.2001 89.6265 98.7713 91.7778 97.9385 93.7849C97.1058 95.792 95.8854 97.6156 94.3471 99.1515C92.8088 100.687 90.9826 101.906 88.973 102.736C86.9634 103.567 84.8096 103.994 82.6347 103.994Z" stroke="#F0F0F0" stroke-miterlimit="10"/>
<path d="M300.283 193.78C300.283 193.628 300.262 193.481 300.259 193.332L307.306 190.242L303.657 179.018L296.144 180.655C295.971 180.411 295.786 180.175 295.607 179.936L299.489 173.294L289.934 166.356L284.816 172.098C284.517 171.996 284.252 171.889 283.959 171.799L283.198 164.166H271.385L270.624 171.799C270.325 171.886 270.051 171.993 269.767 172.098L264.649 166.356L255.094 173.294L258.976 179.936C258.797 180.175 258.612 180.411 258.439 180.655L250.926 179.018L247.277 190.242L254.324 193.332C254.324 193.481 254.3 193.631 254.3 193.78C254.3 193.929 254.321 194.078 254.324 194.23L247.277 197.317L250.926 208.542L258.439 206.904C258.612 207.152 258.797 207.384 258.976 207.623L255.094 214.266L264.649 221.204L269.767 215.465C270.066 215.563 270.331 215.671 270.624 215.763L271.385 223.396H283.198L283.959 215.763C284.258 215.677 284.532 215.569 284.816 215.465L289.934 221.204L299.489 214.266L295.607 207.623C295.786 207.384 295.971 207.152 296.144 206.904L303.657 208.542L307.318 197.317L300.271 194.23C300.262 194.078 300.283 193.932 300.283 193.78ZM277.291 211.184C273.846 211.184 270.477 210.164 267.612 208.251C264.747 206.339 262.514 203.621 261.195 200.44C259.876 197.26 259.531 193.76 260.204 190.384C260.876 187.008 262.535 183.907 264.972 181.473C267.408 179.039 270.513 177.381 273.892 176.709C277.272 176.038 280.775 176.382 283.959 177.7C287.142 179.017 289.863 181.248 291.778 184.11C293.692 186.972 294.714 190.337 294.714 193.78C294.715 196.065 294.264 198.329 293.389 200.441C292.513 202.552 291.23 204.471 289.612 206.088C287.994 207.704 286.073 208.986 283.959 209.86C281.845 210.735 279.58 211.185 277.291 211.184Z" stroke="#F0F0F0" stroke-miterlimit="10"/>
<path d="M145.82 243.225C145.814 242.137 145.743 241.051 145.608 239.971L152.195 237.194L149.325 228.38L142.374 229.996C141.307 228.099 140.016 226.337 138.528 224.747L142.228 218.62L134.724 213.173L130.039 218.575C128.065 217.654 125.987 216.973 123.85 216.55L123.252 209.445H113.963L113.366 216.55C111.229 216.973 109.15 217.654 107.176 218.575L102.491 213.173L94.9848 218.62L98.6844 224.747C97.1986 226.337 95.9085 228.1 94.8415 229.996L87.8665 228.38L85 237.194L91.5869 239.971C91.3002 242.13 91.3002 244.318 91.5869 246.477L85 249.257L87.8665 258.071L94.8206 256.454C95.8884 258.35 97.1784 260.113 98.6635 261.704L94.9729 267.828L102.479 273.274L107.164 267.872C109.138 268.796 111.216 269.478 113.354 269.901L113.951 277.003H123.228L123.826 269.901C125.963 269.478 128.042 268.796 130.015 267.872L134.7 273.274L142.204 267.828L138.504 261.704C139.991 260.113 141.282 258.351 142.35 256.454L149.301 258.071L152.171 249.257L145.608 246.471C145.743 245.394 145.814 244.31 145.82 243.225ZM118.6 263.509C114.585 263.509 110.659 262.319 107.32 260.09C103.981 257.861 101.379 254.694 99.8418 250.987C98.305 247.281 97.9029 243.203 98.6863 239.268C99.4698 235.334 101.404 231.72 104.243 228.883C107.083 226.046 110.701 224.114 114.639 223.332C118.578 222.549 122.66 222.951 126.37 224.486C130.08 226.021 133.252 228.621 135.483 231.957C137.714 235.292 138.904 239.214 138.904 243.225C138.902 248.603 136.762 253.76 132.954 257.562C129.147 261.364 123.984 263.5 118.6 263.5V263.509Z" stroke="#F0F0F0" stroke-miterlimit="10"/>
<path d="M234.121 200.989L237.474 200.5V197.115" stroke="#F0F0F0" stroke-miterlimit="10"/>
<path d="M237.474 192.312V188.927L234.121 188.437" stroke="#F0F0F0" stroke-miterlimit="10"/>
<path d="M233.267 188.312L229.914 187.82C229.555 185.862 229.041 183.936 228.376 182.06L231.034 179.972" stroke="#F0F0F0" stroke-miterlimit="10"/>
<path d="M231.706 179.426L234.363 177.326L232.67 174.397" stroke="#F0F0F0" stroke-miterlimit="10"/>
<path d="M230.266 170.236L228.57 167.307L225.423 168.557" stroke="#F0F0F0" stroke-miterlimit="10"/>
<path d="M224.608 168.879L221.461 170.132C220.168 168.62 218.759 167.212 217.245 165.92L218.499 162.773" stroke="#F0F0F0" stroke-miterlimit="10"/>
<path d="M218.819 161.959L220.07 158.815L217.137 157.121" stroke="#F0F0F0" stroke-miterlimit="10"/>
<path d="M212.972 154.723L210.04 153.028L207.938 155.683" stroke="#F0F0F0" stroke-miterlimit="10"/>
<path d="M207.4 156.363L205.31 159.018C203.432 158.354 201.504 157.84 199.545 157.482L199.052 154.132" stroke="#F0F0F0" stroke-miterlimit="10"/>
<path d="M198.918 153.27L198.428 149.92H195.039" stroke="#F0F0F0" stroke-miterlimit="10"/>
<path d="M190.232 149.92H186.843L186.353 153.27" stroke="#F0F0F0" stroke-miterlimit="10"/>
<path d="M186.228 154.132L185.738 157.482C183.778 157.84 181.85 158.354 179.972 159.018L177.882 156.363" stroke="#F0F0F0" stroke-miterlimit="10"/>
<path d="M177.333 155.683L175.233 153.028L172.298 154.723" stroke="#F0F0F0" stroke-miterlimit="10"/>
<path d="M168.136 157.121L165.201 158.815L166.452 161.959" stroke="#F0F0F0" stroke-miterlimit="10"/>
<path d="M166.777 162.773L168.028 165.92C166.515 167.212 165.105 168.62 163.812 170.132L160.665 168.879" stroke="#F0F0F0" stroke-miterlimit="10"/>
<path d="M159.85 168.557L156.7 167.307L155.007 170.236" stroke="#F0F0F0" stroke-miterlimit="10"/>
<path d="M152.603 174.397L150.907 177.326L153.568 179.426" stroke="#F0F0F0" stroke-miterlimit="10"/>
<path d="M154.246 179.963L156.903 182.051C156.24 183.928 155.726 185.854 155.365 187.811L152.015 188.3" stroke="#F0F0F0" stroke-miterlimit="10"/>
<path d="M151.149 188.437L147.796 188.927V192.312" stroke="#F0F0F0" stroke-miterlimit="10"/>
<path d="M147.796 197.115V200.5L151.149 200.989" stroke="#F0F0F0" stroke-miterlimit="10"/>
<path d="M152.015 201.115L155.365 201.604C155.725 203.561 156.239 205.487 156.903 207.364L154.246 209.452" stroke="#F0F0F0" stroke-miterlimit="10"/>
<path d="M153.568 210L150.907 212.1L152.603 215.029" stroke="#F0F0F0" stroke-miterlimit="10"/>
<path d="M155.007 219.19L156.7 222.119L159.85 220.87" stroke="#F0F0F0" stroke-miterlimit="10"/>
<path d="M160.665 220.545L163.812 219.295C165.105 220.807 166.515 222.215 168.028 223.507L166.777 226.65" stroke="#F0F0F0" stroke-miterlimit="10"/>
<path d="M166.452 227.468L165.201 230.612L168.136 232.306" stroke="#F0F0F0" stroke-miterlimit="10"/>
<path d="M172.298 234.707L175.233 236.398L177.333 233.744" stroke="#F0F0F0" stroke-miterlimit="10"/>
<path d="M177.87 233.064L179.96 230.409C181.839 231.072 183.766 231.585 185.726 231.945L186.216 235.292" stroke="#F0F0F0" stroke-miterlimit="10"/>
<path d="M186.353 236.157L186.843 239.506H190.232" stroke="#F0F0F0" stroke-miterlimit="10"/>
<path d="M195.039 239.506H198.428L198.918 236.157" stroke="#F0F0F0" stroke-miterlimit="10"/>
<path d="M199.043 235.292L199.536 231.945C201.495 231.585 203.423 231.071 205.301 230.409L207.392 233.064" stroke="#F0F0F0" stroke-miterlimit="10"/>
<path d="M207.938 233.744L210.04 236.398L212.972 234.707" stroke="#F0F0F0" stroke-miterlimit="10"/>
<path d="M217.137 232.306L220.07 230.612L218.819 227.468" stroke="#F0F0F0" stroke-miterlimit="10"/>
<path d="M218.496 226.65L217.242 223.507C218.756 222.215 220.165 220.807 221.458 219.295L224.608 220.545" stroke="#F0F0F0" stroke-miterlimit="10"/>
<path d="M225.423 220.87L228.57 222.119L230.266 219.19" stroke="#F0F0F0" stroke-miterlimit="10"/>
<path d="M232.67 215.029L234.363 212.1L231.706 210" stroke="#F0F0F0" stroke-miterlimit="10"/>
<path d="M231.025 209.463L228.367 207.375C229.032 205.499 229.547 203.573 229.905 201.616L233.258 201.126" stroke="#F0F0F0" stroke-miterlimit="10"/>
<path d="M214.731 216.788C226.933 204.598 226.933 184.833 214.731 172.643C202.528 160.453 182.743 160.453 170.54 172.643C158.337 184.833 158.337 204.598 170.54 216.788C182.743 228.978 202.528 228.978 214.731 216.788Z" stroke="#F0F0F0" stroke-miterlimit="10" stroke-dasharray="5.44 5.44"/>
<path d="M217.663 197.941V191.483L213.438 190.866C213.238 189.773 212.951 188.698 212.581 187.65L215.928 185.007L212.695 179.414L208.723 180.992C208.003 180.147 207.216 179.362 206.37 178.642L207.95 174.675L202.351 171.444L199.706 174.788C198.657 174.418 197.581 174.132 196.487 173.932L195.869 169.711H189.402L188.777 173.923C187.683 174.122 186.607 174.409 185.559 174.779L182.913 171.435L177.315 174.666L178.891 178.633C178.046 179.353 177.259 180.139 176.538 180.983L172.567 179.406L169.336 184.998L172.683 187.641C172.311 188.688 172.023 189.763 171.824 190.857L167.599 191.474V197.932L171.824 198.549C172.023 199.643 172.31 200.718 172.683 201.765L169.336 204.408L172.576 210.015L176.547 208.44C177.269 209.284 178.056 210.07 178.9 210.791L177.324 214.758L182.922 217.985L185.568 214.642C186.616 215.014 187.692 215.302 188.786 215.501L189.402 219.721H195.869L196.487 215.501C197.581 215.301 198.658 215.014 199.706 214.642L202.351 217.985L207.95 214.758L206.37 210.791C207.215 210.07 208.002 209.284 208.723 208.44L212.695 210.015L215.928 204.422L212.581 201.78C212.952 200.732 213.238 199.657 213.438 198.564L217.663 197.941ZM192.635 212.136C189.186 212.136 185.814 211.114 182.946 209.2C180.078 207.285 177.842 204.564 176.522 201.381C175.202 198.197 174.857 194.694 175.53 191.314C176.203 187.935 177.864 184.83 180.303 182.394C182.742 179.957 185.85 178.298 189.233 177.625C192.616 176.953 196.123 177.298 199.31 178.617C202.496 179.936 205.22 182.169 207.137 185.034C209.053 187.899 210.076 191.267 210.076 194.713C210.076 199.334 208.238 203.766 204.968 207.033C201.697 210.3 197.261 212.136 192.635 212.136Z" stroke="#F0F0F0" stroke-miterlimit="10"/>
<path d="M341.673 80.5785C334.876 80.5785 328.231 82.5921 322.58 86.3645C316.928 90.137 312.523 95.499 309.922 101.772C307.321 108.046 306.64 114.949 307.966 121.609C309.292 128.269 312.565 134.386 317.372 139.187C322.178 143.989 328.302 147.259 334.969 148.583C341.635 149.908 348.545 149.228 354.825 146.63C361.105 144.031 366.473 139.631 370.249 133.985C374.025 128.339 376.041 121.701 376.041 114.911C376.03 105.809 372.406 97.0826 365.963 90.6464C359.52 84.2102 350.785 80.5895 341.673 80.5785ZM346.209 91.4002V84.5576C353.905 85.7047 360.879 89.7269 365.722 95.8118L359.792 99.2331C358.173 100.164 356.64 101.237 355.211 102.44L349.09 107.594C347.775 106.265 346.124 105.314 344.313 104.844L345.716 96.9661C346.045 95.129 346.21 93.2664 346.209 91.4002ZM337.138 85.0348V91.4181C337.139 93.2783 337.304 95.1348 337.63 96.9661L339.04 104.844C337.229 105.316 335.579 106.265 334.262 107.594L328.159 102.455C326.726 101.247 325.188 100.169 323.564 99.2331L317.631 95.8118C322.369 89.8596 329.15 85.8767 336.66 84.6351C336.718 84.6272 336.777 84.6315 336.834 84.6477C336.89 84.6639 336.942 84.6918 336.987 84.7294C337.032 84.767 337.069 84.8136 337.095 84.8662C337.121 84.9188 337.135 84.9763 337.138 85.0348ZM310.916 114.899C310.92 111.043 311.655 107.224 313.083 103.642L319.022 107.066C320.641 108.001 322.34 108.79 324.098 109.425L331.632 112.146C331.123 113.947 331.123 115.854 331.632 117.655L324.098 120.375C322.341 121.011 320.642 121.799 319.022 122.732L313.083 126.159C311.657 122.58 310.921 118.763 310.916 114.911V114.899ZM337.138 138.427V145.27C329.441 144.123 322.468 140.101 317.625 134.016L323.558 130.595C325.176 129.663 326.708 128.591 328.138 127.391L334.256 122.24C335.574 123.567 337.224 124.517 339.034 124.99L337.624 132.867C337.3 134.703 337.137 136.563 337.138 138.427ZM346.209 145.27V138.427C346.21 136.561 346.045 134.699 345.716 132.861L344.31 124.984C346.121 124.512 347.771 123.562 349.087 122.234L355.211 127.391C356.64 128.594 358.173 129.668 359.792 130.601L365.722 134.022C360.878 140.103 353.904 144.122 346.209 145.267V145.27ZM364.324 122.747C362.705 121.814 361.006 121.026 359.248 120.39L351.715 117.67C352.224 115.869 352.224 113.962 351.715 112.161L359.248 109.44C361.007 108.805 362.706 108.016 364.324 107.081L370.263 103.657C373.154 110.885 373.154 118.946 370.263 126.174L364.324 122.747Z" stroke="#F0F0F0" stroke-miterlimit="10"/>
<path d="M341.673 167.003C312.922 167.003 289.531 143.635 289.531 114.911C289.531 86.1861 312.922 62.8216 341.673 62.8216C370.425 62.8216 393.819 86.1891 393.819 114.911C393.819 143.632 370.428 167.003 341.673 167.003ZM341.673 75.5046C319.924 75.5046 302.227 93.1838 302.227 114.911C302.227 136.638 319.924 154.32 341.673 154.32C363.423 154.32 381.123 136.638 381.123 114.911C381.123 93.1838 363.426 75.5046 341.673 75.5046Z" stroke="#F0F0F0" stroke-miterlimit="10"/>
<path d="M345.553 118.788C347.696 116.647 347.696 113.176 345.553 111.035C343.41 108.894 339.935 108.894 337.792 111.035C335.648 113.176 335.648 116.647 337.792 118.788C339.935 120.929 343.41 120.929 345.553 118.788Z" stroke="#F0F0F0" stroke-miterlimit="10"/>
<path d="M343.549 116.787C344.586 115.751 344.586 114.072 343.549 113.037C342.513 112.001 340.832 112.001 339.795 113.037C338.759 114.072 338.759 115.751 339.795 116.787C340.832 117.822 342.513 117.822 343.549 116.787Z" stroke="#F0F0F0" stroke-miterlimit="10"/>
<path d="M413.491 225.18V181.694C416.058 180.4 418.169 178.354 419.54 175.829C420.911 173.304 421.477 170.42 421.162 167.565C420.847 164.71 419.666 162.019 417.777 159.853C415.888 157.686 413.382 156.148 410.594 155.445L415.13 168.456L400.43 173.58L395.898 160.569C394.46 162.448 393.52 164.657 393.162 166.994C392.804 169.331 393.041 171.72 393.851 173.942C394.661 176.163 396.017 178.145 397.795 179.705C399.573 181.266 401.716 182.353 404.025 182.869V225.18C401.35 226.276 399.138 228.265 397.767 230.809C396.397 233.352 395.953 236.293 396.512 239.127C397.071 241.961 398.597 244.513 400.831 246.348C403.064 248.183 405.866 249.186 408.758 249.186C411.65 249.186 414.451 248.183 416.685 246.348C418.918 244.513 420.445 241.961 421.004 239.127C421.563 236.293 421.119 233.352 419.749 230.809C418.378 228.265 416.166 226.276 413.491 225.18ZM408.758 244.915C407.124 244.915 405.526 244.431 404.168 243.524C402.809 242.617 401.75 241.328 401.125 239.82C400.5 238.312 400.336 236.652 400.655 235.051C400.974 233.45 401.76 231.979 402.916 230.825C404.071 229.671 405.543 228.885 407.146 228.566C408.749 228.248 410.41 228.411 411.92 229.036C413.429 229.661 414.72 230.719 415.628 232.076C416.535 233.433 417.02 235.029 417.02 236.661C417.02 238.85 416.149 240.949 414.6 242.497C413.051 244.045 410.949 244.915 408.758 244.915Z" stroke="#F0F0F0" stroke-miterlimit="10"/>
<path d="M261.663 88.6857V131.292C258.901 132.688 256.63 134.892 255.156 137.612C253.681 140.331 253.073 143.435 253.412 146.509C253.751 149.583 255.022 152.48 257.054 154.813C259.086 157.146 261.783 158.803 264.784 159.564L259.896 145.544L275.721 140.035L280.606 154.054C282.155 152.03 283.169 149.649 283.554 147.131C283.94 144.612 283.685 142.037 282.812 139.643C281.94 137.249 280.478 135.113 278.562 133.432C276.646 131.75 274.337 130.577 271.848 130.022V88.6857C274.732 87.5054 277.116 85.3613 278.593 82.6199C280.07 79.8784 280.548 76.7097 279.946 73.6551C279.344 70.6004 277.699 67.8494 275.292 65.8721C272.885 63.8947 269.865 62.8137 266.748 62.8137C263.632 62.8137 260.612 63.8947 258.205 65.8721C255.798 67.8494 254.152 70.6004 253.55 73.6551C252.948 76.7097 253.426 79.8784 254.903 82.6199C256.38 85.3613 258.765 87.5054 261.648 88.6857H261.663ZM266.763 67.4182C268.524 67.4182 270.246 67.9398 271.71 68.9172C273.174 69.8946 274.315 71.2838 274.989 72.9091C275.663 74.5344 275.84 76.3228 275.496 78.0482C275.152 79.7737 274.304 81.3586 273.059 82.6025C271.814 83.8465 270.227 84.6936 268.5 85.0368C266.773 85.38 264.983 85.2039 263.356 84.5307C261.729 83.8575 260.338 82.7174 259.36 81.2546C258.381 79.7919 257.859 78.0722 257.859 76.313C257.859 75.1449 258.09 73.9882 258.537 72.9091C258.984 71.8299 259.64 70.8494 260.467 70.0234C261.294 69.1974 262.276 68.5423 263.356 68.0952C264.436 67.6482 265.594 67.4182 266.763 67.4182Z" stroke="#F0F0F0" stroke-miterlimit="10"/>
<path d="M385.282 183.346C385.211 183.264 385.123 183.198 385.025 183.15C384.927 183.103 384.821 183.075 384.712 183.069C384.603 183.063 384.494 183.079 384.392 183.116C384.289 183.153 384.195 183.21 384.115 183.283L383.996 183.394C380.672 179.745 376.622 176.83 372.106 174.836C367.589 172.842 362.705 171.811 357.767 171.811C352.829 171.811 347.946 172.842 343.429 174.836C338.913 176.83 334.863 179.745 331.539 183.394L331.42 183.283C331.34 183.21 331.245 183.153 331.143 183.116C331.04 183.079 330.932 183.063 330.823 183.069C330.714 183.075 330.608 183.103 330.51 183.15C330.412 183.198 330.324 183.264 330.252 183.346C324.931 189.446 321.793 197.14 321.33 205.218C320.868 213.295 323.109 221.297 327.699 227.963C327.762 228.053 327.841 228.129 327.933 228.187C328.026 228.246 328.129 228.285 328.236 228.303C328.344 228.321 328.454 228.318 328.56 228.293C328.667 228.267 328.767 228.221 328.855 228.157L328.989 228.061C332.275 232.617 336.598 236.328 341.602 238.887C346.605 241.447 352.146 242.781 357.767 242.781C363.389 242.781 368.929 241.447 373.933 238.887C378.937 236.328 383.259 232.617 386.545 228.061L386.68 228.157C386.768 228.221 386.868 228.267 386.974 228.293C387.081 228.318 387.191 228.321 387.299 228.303C387.406 228.285 387.509 228.246 387.601 228.187C387.694 228.129 387.773 228.053 387.835 227.963C392.426 221.297 394.666 213.295 394.204 205.218C393.742 197.14 390.603 189.446 385.282 183.346ZM357.779 177.159C361.971 177.16 366.115 178.036 369.948 179.731C373.78 181.426 377.216 183.903 380.033 187.003L379.848 187.17C379.69 187.315 379.596 187.515 379.585 187.729C379.574 187.942 379.647 188.152 379.788 188.312C382.599 191.562 384.652 195.396 385.796 199.537C384.372 200.543 382.749 201.234 381.035 201.563C379.322 201.891 377.558 201.85 375.862 201.443L366.307 199.122C365.206 197.967 363.882 197.048 362.415 196.42C360.948 195.792 359.368 195.469 357.772 195.469C356.176 195.469 354.596 195.792 353.129 196.42C351.662 197.048 350.338 197.967 349.237 199.122L339.682 201.443C337.986 201.85 336.223 201.891 334.51 201.562C332.797 201.233 331.175 200.543 329.751 199.537C330.893 195.396 332.944 191.562 335.755 188.312C335.898 188.152 335.971 187.943 335.96 187.729C335.949 187.515 335.854 187.314 335.696 187.17L335.51 187.003C338.33 183.901 341.767 181.423 345.603 179.728C349.438 178.033 353.586 177.158 357.779 177.159ZM333.343 224.929L333.549 224.78C333.721 224.654 333.838 224.466 333.873 224.255C333.908 224.044 333.859 223.828 333.737 223.653C331.873 220.919 330.495 217.885 329.664 214.683C332.528 211.593 337.831 209.404 347.815 213.675C348.826 215.233 350.187 216.533 351.79 217.472C354.955 223.665 355.892 236.043 346.872 235.369C341.453 233.258 336.756 229.634 333.343 224.929ZM368.663 235.369C359.642 236.046 360.58 223.668 363.745 217.472C365.35 216.528 366.711 215.222 367.719 213.657C377.704 209.386 383.007 211.569 385.874 214.665C385.041 217.867 383.662 220.901 381.798 223.635C381.675 223.81 381.627 224.026 381.662 224.237C381.697 224.448 381.813 224.636 381.986 224.762L382.192 224.911C378.782 229.624 374.085 233.254 368.663 235.369Z" stroke="#F0F0F0" stroke-miterlimit="10"/>
<path d="M357.767 215.08C362.07 215.08 365.558 211.596 365.558 207.298C365.558 203 362.07 199.516 357.767 199.516C353.465 199.516 349.977 203 349.977 207.298C349.977 211.596 353.465 215.08 357.767 215.08Z" stroke="#F0F0F0" stroke-miterlimit="10"/>
<path d="M357.779 211.703C356.906 211.704 356.053 211.446 355.327 210.962C354.6 210.478 354.034 209.79 353.7 208.984C353.365 208.179 353.278 207.292 353.448 206.437C353.617 205.581 354.038 204.795 354.655 204.179C355.272 203.562 356.058 203.142 356.914 202.971C357.77 202.801 358.658 202.888 359.464 203.222C360.271 203.555 360.96 204.12 361.445 204.845C361.931 205.57 362.189 206.423 362.189 207.295C362.189 208.463 361.724 209.584 360.897 210.41C360.07 211.237 358.949 211.702 357.779 211.703Z" stroke="#F0F0F0" stroke-miterlimit="10"/>
<path d="M115.886 84.0892H128.671C128.754 84.0892 128.834 84.1222 128.893 84.181C128.952 84.2397 128.985 84.3194 128.985 84.4024V88.3785C128.985 88.4616 128.952 88.5413 128.893 88.6C128.834 88.6587 128.754 88.6917 128.671 88.6917H115.886C115.803 88.6917 115.723 88.6587 115.664 88.6C115.605 88.5413 115.572 88.4616 115.572 88.3785V84.4054C115.572 84.3221 115.605 84.2421 115.664 84.1829C115.722 84.1237 115.802 84.09 115.886 84.0892Z" stroke="#F0F0F0" stroke-miterlimit="10"/>
<path d="M161.167 113.727L140.961 94.392C139.223 92.7295 136.909 91.801 134.503 91.7999H116.125C114.595 91.8007 113.129 92.4082 112.047 93.4888C110.966 94.5695 110.359 96.0348 110.359 97.5627V104.289C110.359 104.736 110.447 105.179 110.618 105.592C110.789 106.005 111.04 106.38 111.356 106.696L112.004 107.343C112.175 107.515 112.311 107.718 112.404 107.941C112.497 108.165 112.544 108.405 112.544 108.647V109.84C112.267 109.891 112.016 110.04 111.838 110.258C111.659 110.476 111.563 110.751 111.568 111.033V112.76C111.563 113.042 111.659 113.317 111.838 113.535C112.016 113.754 112.267 113.902 112.544 113.953V114.741C112.269 114.796 112.021 114.945 111.842 115.163C111.664 115.38 111.567 115.653 111.568 115.934V117.661C111.567 117.942 111.664 118.215 111.842 118.432C112.021 118.65 112.269 118.799 112.544 118.854V119.642C112.267 119.693 112.016 119.841 111.838 120.06C111.659 120.278 111.563 120.553 111.568 120.835V122.562C111.563 122.844 111.659 123.119 111.838 123.337C112.016 123.555 112.267 123.703 112.544 123.755V124.542C112.269 124.598 112.021 124.747 111.842 124.964C111.664 125.182 111.567 125.454 111.568 125.736V127.463C111.567 127.744 111.664 128.016 111.842 128.234C112.021 128.451 112.269 128.6 112.544 128.656V129.44C112.269 129.495 112.021 129.645 111.842 129.862C111.664 130.08 111.567 130.352 111.568 130.633V132.36C111.567 132.641 111.664 132.914 111.842 133.132C112.021 133.349 112.269 133.498 112.544 133.553V135.621C112.543 135.887 112.436 136.143 112.246 136.331L110.89 137.688C110.573 138.004 110.322 138.379 110.15 138.792C109.979 139.205 109.89 139.648 109.89 140.095V143.003C109.891 144.531 110.499 145.996 111.581 147.076C112.662 148.156 114.129 148.763 115.659 148.763H158.279C159.037 148.763 159.786 148.614 160.486 148.324C161.185 148.035 161.821 147.611 162.356 147.076C162.892 146.541 163.317 145.906 163.606 145.207C163.896 144.508 164.045 143.759 164.045 143.003V120.462C164.045 119.203 163.791 117.958 163.296 116.8C162.801 115.642 162.077 114.597 161.167 113.727ZM149.594 116.778H133.171C132.788 116.777 132.421 116.625 132.151 116.354C131.881 116.084 131.729 115.717 131.729 115.334V98.9288C131.729 98.5524 131.876 98.1908 132.14 97.9215C132.403 97.6523 132.761 97.4967 133.138 97.4881C133.333 97.4835 133.527 97.5185 133.708 97.5907C133.889 97.663 134.054 97.7712 134.192 97.9087L150.615 114.314C150.818 114.516 150.957 114.773 151.013 115.053C151.07 115.334 151.041 115.624 150.932 115.889C150.822 116.153 150.637 116.378 150.398 116.537C150.16 116.695 149.88 116.779 149.594 116.778Z" stroke="#F0F0F0" stroke-miterlimit="10"/>
<path d="M151.69 121.798H122.249C119.396 121.798 117.083 124.108 117.083 126.958V134.818C117.083 137.668 119.396 139.978 122.249 139.978H151.69C154.542 139.978 156.855 137.668 156.855 134.818V126.958C156.855 124.108 154.542 121.798 151.69 121.798Z" stroke="#F0F0F0" stroke-miterlimit="10"/>
<path d="M126.489 97.4911H119.893C118.512 97.4911 117.394 98.6089 117.394 99.9877V114.759C117.394 116.138 118.512 117.255 119.893 117.255H126.489C127.869 117.255 128.988 116.138 128.988 114.759V99.9877C128.988 98.6089 127.869 97.4911 126.489 97.4911Z" stroke="#F0F0F0" stroke-miterlimit="10"/>
<path d="M162.531 62.8216H147.005L139.241 76.2443L147.005 89.6671H162.531L170.295 76.2443L162.531 62.8216ZM154.768 84.0623C153.221 84.0623 151.71 83.6042 150.424 82.7458C149.138 81.8874 148.135 80.6673 147.543 79.2398C146.951 77.8124 146.797 76.2416 147.098 74.7263C147.4 73.2109 148.145 71.8189 149.239 70.7264C150.332 69.6338 151.726 68.8898 153.243 68.5884C154.759 68.287 156.332 68.4417 157.761 69.0329C159.19 69.6242 160.411 70.6255 161.27 71.9102C162.13 73.1949 162.588 74.7052 162.588 76.2503C162.588 77.2762 162.386 78.292 161.993 79.2398C161.6 80.1876 161.024 81.0488 160.298 81.7742C159.572 82.4997 158.71 83.0751 157.761 83.4677C156.812 83.8603 155.795 84.0623 154.768 84.0623Z" stroke="#F0F0F0" stroke-miterlimit="10"/>
<path d="M404.315 113.631V127.859C404.326 128.165 404.458 128.453 404.682 128.662C404.906 128.871 405.203 128.982 405.509 128.972H407.898V131.441C407.904 131.617 407.98 131.784 408.109 131.904C408.237 132.024 408.409 132.088 408.585 132.083H409.385V132.357C409.385 132.398 409.393 132.439 409.41 132.477C409.426 132.515 409.45 132.549 409.481 132.577C409.511 132.605 409.547 132.626 409.586 132.64C409.625 132.653 409.666 132.659 409.707 132.655H411.735C411.776 132.659 411.817 132.653 411.857 132.64C411.896 132.626 411.931 132.605 411.962 132.577C411.992 132.549 412.016 132.515 412.033 132.477C412.049 132.439 412.057 132.398 412.057 132.357V132.083H412.855C412.942 132.086 413.029 132.072 413.111 132.041C413.193 132.011 413.268 131.964 413.333 131.905C413.397 131.845 413.448 131.774 413.485 131.694C413.521 131.615 413.541 131.529 413.544 131.441V128.972H415.933C416.239 128.982 416.537 128.871 416.761 128.662C416.985 128.453 417.117 128.165 417.127 127.859V113.631" stroke="#F0F0F0" stroke-miterlimit="10"/>
<path d="M401.744 109.947H419.701C419.978 109.947 420.244 110.057 420.44 110.253C420.636 110.448 420.746 110.714 420.746 110.991V112.59C420.746 112.866 420.637 113.131 420.441 113.326C420.246 113.521 419.981 113.631 419.704 113.631H401.747C401.471 113.631 401.206 113.521 401.01 113.326C400.815 113.131 400.705 112.866 400.705 112.59V110.988C400.706 110.713 400.815 110.449 401.01 110.254C401.205 110.059 401.468 109.948 401.744 109.947Z" stroke="#F0F0F0" stroke-miterlimit="10"/>
<path d="M413.855 55.4448H407.584C407.315 55.4448 407.057 55.5516 406.867 55.7418C406.676 55.932 406.569 56.19 406.569 56.459V62.0726H414.867V56.459C414.867 56.1905 414.76 55.933 414.571 55.7429C414.381 55.5528 414.123 55.4456 413.855 55.4448Z" stroke="#F0F0F0" stroke-miterlimit="10"/>
<path d="M415.399 95.9516H406.041V107.006H415.399V95.9516Z" stroke="#F0F0F0" stroke-miterlimit="10"/>
<path d="M400.583 95.9516L399 96.8435V106.111L400.583 107.006H406.041V95.9516H400.583Z" stroke="#F0F0F0" stroke-miterlimit="10"/>
<path d="M420.86 95.9516H418.122H416.581H415.402V107.006H416.581H418.122H420.86L422.442 106.111V96.8435L420.86 95.9516Z" stroke="#F0F0F0" stroke-miterlimit="10"/>
<path d="M417.492 67.1434V65.9264C417.492 65.4517 417.303 64.9965 416.967 64.6609C416.631 64.3253 416.175 64.1367 415.7 64.1367H405.763C405.288 64.1367 404.832 64.3253 404.496 64.6609C404.16 64.9965 403.971 65.4517 403.971 65.9264V67.1434H404.867V68.2411H404.849C404.612 68.2411 404.384 68.3353 404.216 68.5032C404.048 68.671 403.954 68.8986 403.954 69.1359C403.954 69.3733 404.048 69.6009 404.216 69.7687C404.384 69.9365 404.612 70.0308 404.849 70.0308H404.867V70.5736H404.849C404.612 70.5736 404.384 70.6679 404.216 70.8357C404.048 71.0036 403.954 71.2312 403.954 71.4685C403.954 71.7058 404.048 71.9334 404.216 72.1013C404.384 72.2691 404.612 72.3633 404.849 72.3633H404.867V72.9062H404.849C404.612 72.9062 404.384 73.0005 404.216 73.1683C404.048 73.3361 403.954 73.5637 403.954 73.8011C403.954 74.0384 404.048 74.266 404.216 74.4338C404.384 74.6016 404.612 74.6959 404.849 74.6959H404.867V75.2418H404.849C404.612 75.2418 404.384 75.3361 404.216 75.5039C404.048 75.6717 403.954 75.8993 403.954 76.1366C403.954 76.374 404.048 76.6016 404.216 76.7694C404.384 76.9372 404.612 77.0315 404.849 77.0315H404.867V77.5743H404.849C404.612 77.5743 404.384 77.6686 404.216 77.8364C404.048 78.0043 403.954 78.2319 403.954 78.4692C403.954 78.7065 404.048 78.9341 404.216 79.1019C404.384 79.2698 404.612 79.364 404.849 79.364H404.867V81.0851C404.598 81.2219 404.372 81.4301 404.214 81.687C404.056 81.9438 403.972 82.2393 403.971 82.5407V90.5198H404.867V93.4788H416.587V90.5198H417.483V82.505C417.482 82.2035 417.398 81.908 417.24 81.6512C417.082 81.3943 416.856 81.1861 416.587 81.0493V79.3282H416.605C416.842 79.3282 417.07 79.234 417.238 79.0661C417.406 78.8983 417.501 78.6707 417.501 78.4334C417.501 78.1961 417.406 77.9685 417.238 77.8006C417.07 77.6328 416.842 77.5385 416.605 77.5385H416.587V76.9957H416.605C416.842 76.9957 417.07 76.9014 417.238 76.7336C417.406 76.5658 417.501 76.3382 417.501 76.1008C417.501 75.8635 417.406 75.6359 417.238 75.4681C417.07 75.3003 416.842 75.206 416.605 75.206H416.587V74.6601H416.605C416.842 74.6601 417.07 74.5659 417.238 74.398C417.406 74.2302 417.501 74.0026 417.501 73.7653C417.501 73.5279 417.406 73.3003 417.238 73.1325C417.07 72.9647 416.842 72.8704 416.605 72.8704H416.587V72.3276H416.605C416.842 72.3276 417.07 72.2333 417.238 72.0655C417.406 71.8976 417.501 71.67 417.501 71.4327C417.501 71.1954 417.406 70.9678 417.238 70.7999C417.07 70.6321 416.842 70.5379 416.605 70.5379H416.587V69.995H416.605C416.842 69.995 417.07 69.9007 417.238 69.7329C417.406 69.5651 417.501 69.3375 417.501 69.1001C417.501 68.8628 417.406 68.6352 417.238 68.4674C417.07 68.2996 416.842 68.2053 416.605 68.2053H416.587V67.1434H417.492Z" stroke="#F0F0F0" stroke-miterlimit="10"/>
<path d="M415.366 128.7V132.551C415.368 132.906 415.299 133.258 415.164 133.586C415.029 133.915 414.83 134.213 414.579 134.464C414.327 134.715 414.029 134.914 413.7 135.049C413.371 135.184 413.019 135.252 412.663 135.25H410.299" stroke="#F0F0F0" stroke-miterlimit="10"/>
<path d="M249.779 110.168V96.4471L241.658 95.5523C240.945 92.7913 239.848 90.1437 238.4 87.6866L243.512 81.3212L233.802 71.6211L227.433 76.7306C224.973 75.2841 222.323 74.1878 219.559 73.4734L218.663 65.3601H204.928L204.032 73.4734C201.268 74.1867 198.618 75.2831 196.159 76.7306L189.79 71.6211L180.077 81.3212L185.194 87.6955C183.745 90.1525 182.648 92.8001 181.934 95.5612L173.812 96.4561V110.177L181.934 111.072C182.65 113.828 183.747 116.47 185.194 118.923L180.08 125.285L189.793 134.985L196.162 129.879C198.622 131.324 201.272 132.419 204.035 133.133L204.931 141.246H218.666L219.562 133.133C222.325 132.418 224.975 131.323 227.436 129.879L233.805 134.985L243.515 125.285L238.403 118.923C239.851 116.464 240.947 113.816 241.661 111.054L249.779 110.168ZM211.802 128.026C206.908 128.025 202.125 126.574 198.056 123.858C193.988 121.141 190.817 117.28 188.945 112.763C187.073 108.246 186.584 103.276 187.54 98.4816C188.495 93.687 190.852 89.2831 194.313 85.8268C197.774 82.3704 202.183 80.0168 206.983 79.0635C211.782 78.1102 216.757 78.6 221.278 80.4711C225.799 82.3422 229.663 85.5104 232.382 89.5753C235.101 93.6401 236.552 98.419 236.552 103.308C236.552 106.554 235.912 109.769 234.668 112.768C233.424 115.768 231.601 118.493 229.302 120.788C227.004 123.084 224.275 124.905 221.273 126.146C218.27 127.388 215.052 128.027 211.802 128.026Z" stroke="#F0F0F0" stroke-miterlimit="10" stroke-dasharray="3 3"/>
<path d="M243.39 144.751H233.59L228.687 153.231L233.59 161.711H243.39L248.289 153.231L243.39 144.751ZM238.49 158.174C237.514 158.175 236.559 157.887 235.747 157.346C234.935 156.806 234.301 156.037 233.927 155.137C233.552 154.237 233.452 153.246 233.641 152.289C233.83 151.333 234.299 150.454 234.987 149.763C235.676 149.072 236.555 148.601 237.511 148.409C238.468 148.217 239.46 148.313 240.363 148.684C241.265 149.055 242.037 149.685 242.581 150.494C243.125 151.304 243.417 152.256 243.419 153.231C243.419 154.538 242.9 155.791 241.976 156.716C241.052 157.64 239.798 158.16 238.49 158.162V158.174Z" stroke="#F0F0F0" stroke-miterlimit="10"/>
<path d="M283.263 101.458H279.444L277.536 104.76L279.444 108.065H283.263L285.174 104.76L283.263 101.458Z" stroke="#F0F0F0" stroke-miterlimit="10"/>
<path d="M104.035 113.95H100.216L98.3047 117.249L100.213 120.551H104.032L105.943 117.249L104.035 113.95Z" stroke="#F0F0F0" stroke-miterlimit="10"/>
<path d="M382.661 245.92H378.842L376.934 249.222L378.842 252.527H382.661L384.569 249.222L382.661 245.92Z" stroke="#F0F0F0" stroke-miterlimit="10"/>
<path d="M49.3062 45.0142H45.4872L43.5792 48.3161L45.4872 51.6271H49.3062L51.2142 48.3221L49.3062 45.0142Z" stroke="#F0F0F0" stroke-miterlimit="10"/>
<path d="M403.703 136.445H393.9L389 144.925L393.9 153.405H403.703L408.602 144.925L403.703 136.445ZM398.8 149.868C397.824 149.867 396.87 149.577 396.058 149.035C395.247 148.493 394.615 147.723 394.242 146.822C393.869 145.921 393.771 144.929 393.962 143.973C394.153 143.017 394.623 142.139 395.314 141.449C396.004 140.76 396.884 140.291 397.841 140.101C398.798 139.911 399.791 140.009 400.692 140.382C401.594 140.755 402.365 141.387 402.907 142.198C403.449 143.009 403.738 143.962 403.738 144.937C403.735 146.243 403.213 147.495 402.288 148.417C401.362 149.339 400.107 149.856 398.8 149.856V149.868Z" stroke="#F0F0F0" stroke-miterlimit="10"/>
<path d="M325.385 176.906V174.221L323.316 173.923C323.209 173.577 323.07 173.241 322.901 172.921L324.149 171.247L322.253 169.353L320.575 170.6C320.256 170.428 319.92 170.289 319.572 170.186L319.273 168.118H316.586L316.287 170.186C315.941 170.29 315.605 170.428 315.287 170.6L313.609 169.353L311.713 171.247L312.961 172.921C312.792 173.241 312.653 173.577 312.546 173.923L310.477 174.221V176.906L312.546 177.204C312.653 177.55 312.792 177.886 312.961 178.206L311.713 179.883L313.609 181.777L315.287 180.527C315.606 180.698 315.941 180.838 316.287 180.945L316.586 183.012H319.273L319.572 180.945C319.919 180.839 320.255 180.699 320.575 180.527L322.253 181.777L324.149 179.883L322.901 178.206C323.07 177.886 323.209 177.55 323.316 177.204L325.385 176.906ZM317.921 179.325C317.176 179.325 316.447 179.105 315.828 178.692C315.208 178.279 314.725 177.692 314.44 177.004C314.154 176.317 314.079 175.56 314.225 174.83C314.37 174.101 314.728 173.43 315.255 172.904C315.782 172.378 316.453 172.019 317.184 171.874C317.914 171.729 318.672 171.804 319.36 172.089C320.048 172.374 320.636 172.857 321.049 173.476C321.463 174.095 321.683 174.822 321.683 175.567C321.68 176.56 321.284 177.513 320.581 178.215C319.877 178.918 318.924 179.314 317.93 179.316L317.921 179.325Z" stroke="#F0F0F0" stroke-miterlimit="10"/>
<path d="M69.867 29.9896V27.3051L67.7978 27.0068C67.6936 26.6606 67.5545 26.3258 67.3827 26.0076L68.6308 24.3312L66.7348 22.4371L65.0597 23.6839C64.7399 23.5128 64.4038 23.3739 64.0564 23.2693L63.7578 21.2022H61.0705L60.7719 23.2693C60.4244 23.3733 60.0882 23.5122 59.7687 23.6839L58.0906 22.4371L56.2035 24.3312L57.4546 26.0076C57.2831 26.3263 57.1431 26.6609 57.0366 27.0068L54.9703 27.3051V29.9896L57.0366 30.2879C57.143 30.6347 57.2831 30.9704 57.4546 31.2901L56.2035 32.9695L58.0996 34.8636L59.7776 33.6167C60.0946 33.7842 60.4265 33.922 60.7689 34.0284L61.0675 36.0955H63.7548L64.0534 34.0284C64.3999 33.9212 64.7357 33.7824 65.0567 33.6138L66.7318 34.8606L68.6278 32.9665L67.3797 31.2901C67.5516 30.9709 67.6906 30.6351 67.7948 30.2879L69.867 29.9896ZM62.4022 32.4087C61.6574 32.4069 60.9299 32.1845 60.3116 31.7696C59.6933 31.3547 59.2121 30.7659 58.9289 30.0778C58.6456 29.3897 58.5731 28.633 58.7203 27.9037C58.8676 27.1743 59.2281 26.505 59.7562 25.9803C60.2843 25.4557 60.9564 25.0993 61.6873 24.9562C62.4182 24.8131 63.1752 24.8899 63.8624 25.1766C64.5497 25.4634 65.1364 25.9474 65.5483 26.5673C65.9602 27.1872 66.1788 27.9152 66.1764 28.6593C66.174 29.655 65.7762 30.6091 65.0703 31.3121C64.3643 32.0151 63.408 32.4095 62.4112 32.4087H62.4022Z" stroke="#F0F0F0" stroke-miterlimit="10"/>
<path d="M178.963 142.499C178.963 143.617 178.518 144.689 177.727 145.479C176.936 146.27 175.863 146.714 174.744 146.714C173.625 146.714 172.552 146.27 171.76 145.479C170.969 144.689 170.525 143.617 170.525 142.499C170.525 138.785 174.744 135.782 174.744 135.782C174.744 135.782 178.963 138.785 178.963 142.499Z" stroke="#F0F0F0" stroke-miterlimit="10"/>
<path d="M242.709 235.996C242.709 237.113 242.264 238.185 241.473 238.976C240.682 239.766 239.609 240.21 238.49 240.21C237.371 240.21 236.298 239.766 235.506 238.976C234.715 238.185 234.271 237.113 234.271 235.996C234.271 232.282 238.49 229.278 238.49 229.278C238.49 229.278 242.709 232.282 242.709 235.996Z" stroke="#F0F0F0" stroke-miterlimit="10"/>
<path d="M137.875 184.295C140.635 172.987 133.696 161.586 122.376 158.83C111.057 156.073 99.6443 163.005 96.885 174.313C94.1257 185.62 101.065 197.022 112.384 199.778C123.703 202.535 135.116 195.603 137.875 184.295Z" stroke="#F0F0F0" stroke-miterlimit="10" stroke-dasharray="3 3"/>
<path d="M134.002 183.332C136.225 174.164 130.589 164.932 121.412 162.71C112.235 160.489 102.993 166.12 100.769 175.288C98.5455 184.455 104.182 193.688 113.359 195.909C122.536 198.13 131.778 192.499 134.002 183.332Z" stroke="#F0F0F0" stroke-miterlimit="10"/>
<path d="M225.432 116.923C232.958 109.404 232.959 97.2129 225.432 89.6936C217.905 82.1744 205.701 82.1744 198.174 89.6937C190.647 97.2129 190.647 109.404 198.174 116.923C205.701 124.442 217.905 124.442 225.432 116.923Z" stroke="#F0F0F0" stroke-miterlimit="10" stroke-dasharray="2.74 2.74"/>
<path d="M211.802 118.911C220.428 118.911 227.421 111.925 227.421 103.308C227.421 94.6902 220.428 87.7044 211.802 87.7044C203.175 87.7044 196.182 94.6902 196.182 103.308C196.182 111.925 203.175 118.911 211.802 118.911Z" stroke="#F0F0F0" stroke-miterlimit="10"/>
<path d="M21.7373 43.2335C33.388 43.2335 42.8327 33.7985 42.8327 22.1598C42.8327 10.5211 33.388 1.08612 21.7373 1.08612C10.0867 1.08612 0.641968 10.5211 0.641968 22.1598C0.641968 33.7985 10.0867 43.2335 21.7373 43.2335Z" stroke="#F0F0F0" stroke-miterlimit="10" stroke-dasharray="3 3"/>
<path d="M21.7373 39.2395C31.1798 39.2395 38.8345 31.5926 38.8345 22.1598C38.8345 12.727 31.1798 5.08012 21.7373 5.08012C12.2947 5.08012 4.64001 12.727 4.64001 22.1598C4.64001 31.5926 12.2947 39.2395 21.7373 39.2395Z" stroke="#F0F0F0" stroke-miterlimit="10"/>
</g>
<defs>
<clipPath id="clip0_111_303">
<rect width="422" height="343.141" fill="white" transform="translate(0 0.444809)"/>
</clipPath>
</defs>
</svg>
