<svg width="1075" height="400" viewBox="0 0 1075 400" fill="none" xmlns="http://www.w3.org/2000/svg">
<path d="M316.711 78.4194H316.716L380.227 79.0022L411.903 110.678V301.639H316.716H221.528V110.668L252.624 78.4194H316.711Z" stroke="white" strokeWidth="2"/>
<path d="M316.716 400L260.411 399.786L220.528 357.788L220.528 317.889L316.716 317.889L412.904 317.889L412.904 357.788L371.262 399.786L316.716 400Z" fill="#FB8569"/>
<path d="M339.119 22.9168L370.582 54.9343L370.191 99.8221L338.173 131.286L293.285 130.894L261.822 98.8764L262.214 53.9886L294.231 22.5251L339.119 22.9168Z" fill="#FB8569" fill-opacity="0.5"/>
<path d="M335.713 31.2095L362.457 58.4244L362.124 96.579L334.909 123.323L296.754 122.99L270.011 95.7752L270.343 57.6205L297.558 30.8765L335.713 31.2095Z" fill="#FB8569"/>
<rect x="220.528" y="302.639" width="192.375" height="15.2493" fill="#FDB8A7"/>
<path d="M537.239 78.4194H537.244L600.755 79.0022L632.432 110.678V301.639H537.244H442.056V110.668L473.153 78.4194H537.239Z" stroke="white" strokeWidth="2"/>
<path d="M537.244 400L480.939 399.786L441.056 357.788L441.056 317.889L537.244 317.889L633.432 317.889L633.432 357.788L591.789 399.786L537.244 400Z" fill="#FB569C"/>
<path d="M554.688 348.624C556.704 346.608 556.704 343.328 554.688 341.312C552.672 339.304 549.392 339.296 547.376 341.312L545.632 343.064L552.936 350.376L554.688 348.624Z" fill="white"/>
<path d="M517.856 377.112C517.736 377.408 517.808 377.744 518.032 377.968C518.184 378.12 518.392 378.2 518.6 378.2C518.696 378.2 518.792 378.184 518.888 378.144L528.44 374.472L521.528 367.56L517.856 377.112Z" fill="white"/>
<path d="M538.347 350.356L544.512 344.182L551.83 351.49L545.665 357.664L538.347 350.356Z" fill="white"/>
<path d="M522.456 366.232L529.768 373.536L535.664 367.632L528.36 360.32L522.456 366.232Z" fill="white"/>
<path d="M555.968 371.392L549.392 377.968C549.248 378.112 549.04 378.2 548.832 378.2C548.616 378.2 548.416 378.112 548.264 377.968L545.544 375.248L547.984 372.8C548.296 372.488 548.296 371.984 547.984 371.672C547.672 371.36 547.168 371.36 546.856 371.672L544.408 374.112L542.912 372.616L544.416 371.112C544.728 370.8 544.728 370.296 544.416 369.984C544.104 369.672 543.6 369.672 543.288 369.984L541.784 371.488L540.288 369.992L542.728 367.544C543.04 367.232 543.04 366.728 542.728 366.416C542.416 366.104 541.912 366.104 541.6 366.416L539.152 368.856L537.656 367.36L539.16 365.856C539.472 365.544 539.472 365.04 539.16 364.728C538.848 364.408 538.344 364.408 538.032 364.728L536.528 366.232L535.024 364.728L537.472 362.288C537.784 361.976 537.784 361.472 537.472 361.16C537.16 360.848 536.656 360.848 536.344 361.16L533.896 363.6L532.4 362.104L533.904 360.6C534.216 360.288 534.216 359.776 533.904 359.464C533.592 359.152 533.088 359.152 532.776 359.464L531.272 360.976L529.768 359.472L532.216 357.032C532.528 356.72 532.528 356.216 532.216 355.896C531.904 355.584 531.4 355.584 531.08 355.896L528.64 358.344L527.144 356.848L528.648 355.344C528.96 355.032 528.96 354.52 528.648 354.208C528.336 353.896 527.832 353.896 527.512 354.208L526.008 355.712L524.512 354.216L526.96 351.776C527.272 351.464 527.272 350.952 526.96 350.64C526.648 350.328 526.136 350.328 525.824 350.64L523.384 353.088L521.888 351.592L523.392 350.08C523.704 349.768 523.704 349.264 523.392 348.952C523.08 348.64 522.568 348.64 522.256 348.952L520.752 350.456L518.032 347.736C517.72 347.424 517.72 346.92 518.032 346.608L524.608 340.032C524.904 339.736 525.44 339.736 525.736 340.032L555.968 370.264C556.28 370.576 556.28 371.08 555.968 371.392Z" fill="white"/>
<path d="M559.647 22.9168L591.11 54.9343L590.719 99.8221L558.701 131.286L513.813 130.894L482.35 98.8764L482.741 53.9886L514.759 22.5251L559.647 22.9168Z" fill="#FB569C" fill-opacity="0.5"/>
<path d="M556.241 31.2095L582.985 58.4244L582.652 96.579L555.437 123.323L517.282 122.99L490.538 95.7752L490.871 57.6205L518.086 30.8765L556.241 31.2095Z" fill="#FB569C"/>
<rect x="441.056" y="302.639" width="192.375" height="15.2493" fill="#FD9CC5"/>
<path d="M757.767 78.4194H757.771L821.283 79.0022L852.959 110.678V301.639H757.771H662.583V110.668L693.68 78.4194H757.767Z" stroke="white" strokeWidth="2"/>
<path d="M757.771 400L701.466 399.786L661.584 357.788L661.584 317.889L757.771 317.889L853.959 317.889L853.959 357.788L812.317 399.786L757.771 400Z" fill="#9C27B0"/>
<g clip-path="url(#clip0_173_216)">
<path d="M759.265 357.866C759.406 357.978 759.575 358.044 759.753 358.044C759.79 358.044 759.837 358.044 759.875 358.034L780.453 354.706C780.865 354.641 781.137 354.256 781.072 353.844C780.265 348.837 777.697 344.244 773.825 340.916C769.906 337.559 764.909 335.712 759.753 335.712C759.34 335.712 759.003 336.05 759.003 336.462V357.303C759.003 357.519 759.097 357.725 759.265 357.866Z" fill="white"/>
<path d="M756.341 360.462V339.865C756.341 339.453 756.003 339.115 755.591 339.115C749.825 339.115 744.406 341.365 740.328 345.434C736.25 349.512 734 354.931 734 360.706C734 366.481 736.25 371.89 740.328 375.969C744.406 380.047 749.825 382.287 755.591 382.287C760.091 382.287 764.412 380.909 768.069 378.312C768.406 378.069 768.481 377.609 768.247 377.272L756.341 360.462Z" fill="white"/>
<path d="M781.728 357.472C781.7 357.275 781.587 357.097 781.428 356.984C781.269 356.872 781.062 356.815 780.865 356.853L760.287 360.181C760.034 360.219 759.819 360.397 759.715 360.631C759.612 360.865 759.65 361.147 759.8 361.353L771.847 378.359C771.959 378.519 772.137 378.631 772.334 378.669C772.372 378.678 772.419 378.678 772.456 378.678C772.606 378.678 772.765 378.631 772.887 378.537C775.644 376.578 777.931 373.972 779.506 370.99C781.137 367.906 781.99 364.428 781.99 360.922C782 359.778 781.906 358.615 781.728 357.472Z" fill="white"/>
</g>
<path d="M780.174 22.9168L811.638 54.9343L811.246 99.8221L779.228 131.286L734.341 130.894L702.877 98.8764L703.269 53.9886L735.286 22.5251L780.174 22.9168Z" fill="#9C27B0" fill-opacity="0.5"/>
<path d="M776.768 31.2095L803.512 58.4244L803.179 96.579L775.964 123.323L737.809 122.99L711.065 95.7752L711.398 57.6205L738.613 30.8765L776.768 31.2095Z" fill="#9C27B0"/>
<rect x="661.583" y="302.639" width="192.375" height="15.2493" fill="#C581D1"/>
<path d="M978.295 78.4194H978.299L1041.81 79.0022L1073.49 110.678V301.639H978.299H883.112V110.668L914.208 78.4194H978.295Z" stroke="white" strokeWidth="2"/>
<path d="M978.3 400L921.995 399.786L882.112 357.788L882.112 317.889L978.3 317.889L1074.49 317.889L1074.49 357.788L1032.85 399.786L978.3 400Z" fill="#93C47D"/>
<g clip-path="url(#clip1_173_216)">
<path d="M978 335C964.735 335 954 345.734 954 359C954 372.265 964.734 383 978 383C991.265 383 1002 372.266 1002 359C1002 345.735 991.266 335 978 335ZM977.29 370.233C975.931 370.233 974.889 369.096 974.889 367.8C974.889 366.474 975.963 365.368 977.29 365.368C978.617 365.368 979.722 366.474 979.722 367.8C979.722 369.096 978.648 370.233 977.29 370.233ZM980.891 357.944C979.154 359.302 979.122 360.25 979.122 361.893C979.122 362.493 978.806 363.188 977.258 363.188C975.963 363.188 975.521 362.714 975.521 361.072C975.521 358.355 976.721 357.059 977.637 356.27C978.68 355.385 980.449 354.406 980.449 352.7C980.449 351.247 979.185 350.552 977.606 350.552C974.383 350.552 975.078 352.984 973.372 352.984C972.519 352.984 971.477 352.416 971.477 351.184C971.477 349.478 973.436 346.95 977.7 346.95C981.744 346.95 984.429 349.193 984.429 352.163C984.429 355.132 981.744 357.281 980.891 357.944Z" fill="white"/>
</g>
<path d="M1000.7 22.9168L1032.17 54.9343L1031.77 99.8221L999.757 131.286L954.869 130.894L923.406 98.8764L923.798 53.9886L955.815 22.5251L1000.7 22.9168Z" fill="#93C47D" fill-opacity="0.5"/>
<path d="M997.297 31.2095L1024.04 58.4244L1023.71 96.579L996.493 123.323L958.338 122.99L931.594 95.7752L931.927 57.6205L959.142 30.8765L997.297 31.2095Z" fill="#93C47D"/>
<rect x="882.112" y="302.639" width="192.375" height="15.2493" fill="#B6D7A8"/>
<path d="M96.1831 78H96.1877L159.699 78.5827L191.375 110.259V301.22H96.1877H1V110.248L32.0965 78H96.1831Z" stroke="white" strokeWidth="2"/>
<path d="M96.1878 400L39.8828 399.786L0.000113 357.788L0.000104427 317.889L96.1878 317.889L192.375 317.889L192.375 357.788L150.733 399.786L96.1878 400Z" fill="#FBB831"/>
<path d="M118.591 22.9168L150.055 54.9343L149.663 99.8221L117.645 131.286L72.7575 130.894L41.294 98.8764L41.6858 53.9886L73.7033 22.5251L118.591 22.9168Z" fill="#FBB831" fill-opacity="0.5"/>
<path d="M115.185 31.2095L141.929 58.4244L141.596 96.579L114.381 123.323L76.2262 122.99L49.4822 95.7752L49.8152 57.6205L77.03 30.8765L115.185 31.2095Z" fill="#FBB831"/>
<rect y="302.639" width="192.375" height="15.2493" fill="#FDD586"/>
<path d="M90.2333 85.3324C88.8299 85.3324 87.6254 84.9773 86.6197 84.267C85.6197 83.5511 84.8498 82.5199 84.31 81.1733C83.7759 79.821 83.5089 78.1932 83.5089 76.2898C83.5146 74.3864 83.7844 72.767 84.3185 71.4318C84.8583 70.0909 85.6282 69.0682 86.6282 68.3636C87.6339 67.6591 88.8356 67.3068 90.2333 67.3068C91.631 67.3068 92.8327 67.6591 93.8384 68.3636C94.8441 69.0682 95.614 70.0909 96.1481 71.4318C96.6879 72.7727 96.9577 74.392 96.9577 76.2898C96.9577 78.1989 96.6879 79.8295 96.1481 81.1818C95.614 82.5284 94.8441 83.5568 93.8384 84.267C92.8384 84.9773 91.6367 85.3324 90.2333 85.3324ZM90.2333 82.6648C91.3242 82.6648 92.185 82.1278 92.8157 81.054C93.4521 79.9744 93.7702 78.3864 93.7702 76.2898C93.7702 74.9034 93.6254 73.7386 93.3356 72.7955C93.0458 71.8523 92.6367 71.142 92.1083 70.6648C91.5799 70.1818 90.9549 69.9403 90.2333 69.9403C89.1481 69.9403 88.2901 70.4801 87.6594 71.5597C87.0288 72.6335 86.7106 74.2102 86.7049 76.2898C86.6992 77.6818 86.8384 78.8523 87.1225 79.8011C87.4123 80.75 87.8214 81.4659 88.3498 81.9489C88.8782 82.4261 89.506 82.6648 90.2333 82.6648ZM106.889 67.5455V85H103.727V70.6222H103.625L99.5423 73.2301V70.3324L103.88 67.5455H106.889Z" fill="white"/>
<path d="M49.2619 212.362H46.6056C46.5299 211.927 46.3902 211.541 46.1866 211.205C45.983 210.864 45.7297 210.575 45.4267 210.338C45.1236 210.101 44.778 209.924 44.3897 209.805C44.0062 209.682 43.5919 209.621 43.1468 209.621C42.3561 209.621 41.6554 209.82 41.0446 210.217C40.4338 210.61 39.9556 211.188 39.6099 211.95C39.2643 212.708 39.0914 213.634 39.0914 214.727C39.0914 215.84 39.2643 216.777 39.6099 217.54C39.9603 218.297 40.4385 218.87 41.0446 219.259C41.6554 219.642 42.3538 219.834 43.1397 219.834C43.5753 219.834 43.9825 219.777 44.3613 219.663C44.7449 219.545 45.0881 219.372 45.3912 219.145C45.6989 218.918 45.957 218.638 46.1653 218.307C46.3784 217.975 46.5252 217.597 46.6056 217.17L49.2619 217.185C49.1625 217.876 48.947 218.525 48.6156 219.131C48.2889 219.737 47.8604 220.272 47.3301 220.736C46.7998 221.195 46.1795 221.555 45.4693 221.815C44.7591 222.071 43.9707 222.199 43.1042 222.199C41.8258 222.199 40.6847 221.903 39.6809 221.311C38.6771 220.719 37.8864 219.865 37.3088 218.747C36.7311 217.63 36.4423 216.29 36.4423 214.727C36.4423 213.16 36.7335 211.82 37.3159 210.707C37.8983 209.59 38.6913 208.735 39.6951 208.143C40.6989 207.552 41.8353 207.256 43.1042 207.256C43.9139 207.256 44.6667 207.369 45.3627 207.597C46.0588 207.824 46.679 208.158 47.2235 208.598C47.7681 209.034 48.2155 209.569 48.5659 210.203C48.921 210.833 49.153 211.553 49.2619 212.362ZM56.3198 222.213C55.2544 222.213 54.3311 221.979 53.5499 221.51C52.7686 221.041 52.1626 220.385 51.7317 219.543C51.3056 218.7 51.0925 217.715 51.0925 216.588C51.0925 215.461 51.3056 214.474 51.7317 213.626C52.1626 212.779 52.7686 212.121 53.5499 211.652C54.3311 211.183 55.2544 210.949 56.3198 210.949C57.3851 210.949 58.3084 211.183 59.0897 211.652C59.8709 212.121 60.4746 212.779 60.9007 213.626C61.3316 214.474 61.5471 215.461 61.5471 216.588C61.5471 217.715 61.3316 218.7 60.9007 219.543C60.4746 220.385 59.8709 221.041 59.0897 221.51C58.3084 221.979 57.3851 222.213 56.3198 222.213ZM56.334 220.153C56.9116 220.153 57.3946 219.995 57.7828 219.678C58.1711 219.356 58.4599 218.925 58.6493 218.385C58.8435 217.845 58.9405 217.244 58.9405 216.581C58.9405 215.913 58.8435 215.31 58.6493 214.77C58.4599 214.225 58.1711 213.792 57.7828 213.47C57.3946 213.148 56.9116 212.987 56.334 212.987C55.7421 212.987 55.2497 213.148 54.8567 213.47C54.4685 213.792 54.1773 214.225 53.9831 214.77C53.7937 215.31 53.699 215.913 53.699 216.581C53.699 217.244 53.7937 217.845 53.9831 218.385C54.1773 218.925 54.4685 219.356 54.8567 219.678C55.2497 219.995 55.7421 220.153 56.334 220.153ZM72.3514 213.974L70.0076 214.23C69.9413 213.993 69.8253 213.771 69.6596 213.562C69.4986 213.354 69.2808 213.186 69.0062 213.058C68.7316 212.93 68.3954 212.866 67.9977 212.866C67.4627 212.866 67.0128 212.982 66.6483 213.214C66.2884 213.446 66.1109 213.747 66.1156 214.116C66.1109 214.434 66.2269 214.692 66.4636 214.891C66.7051 215.089 67.1028 215.253 67.6568 215.381L69.5176 215.778C70.5498 216.001 71.3168 216.354 71.8187 216.837C72.3253 217.32 72.581 217.952 72.5858 218.733C72.581 219.42 72.3798 220.026 71.9821 220.551C71.5891 221.072 71.0422 221.479 70.3414 221.773C69.6407 222.066 68.8358 222.213 67.9267 222.213C66.5914 222.213 65.5166 221.934 64.7022 221.375C63.8878 220.812 63.4025 220.028 63.2463 219.024L65.7534 218.783C65.867 219.275 66.1085 219.647 66.4778 219.898C66.8471 220.149 67.3277 220.274 67.9196 220.274C68.5304 220.274 69.0204 220.149 69.3897 219.898C69.7638 219.647 69.9508 219.337 69.9508 218.967C69.9508 218.655 69.8301 218.397 69.5886 218.193C69.3519 217.99 68.9825 217.833 68.4806 217.724L66.6199 217.334C65.5734 217.116 64.7993 216.749 64.2974 216.233C63.7955 215.712 63.5469 215.054 63.5517 214.259C63.5469 213.586 63.7292 213.004 64.0985 212.511C64.4726 212.014 64.9911 211.631 65.6539 211.361C66.3216 211.086 67.091 210.949 67.9622 210.949C69.2406 210.949 70.2467 211.221 70.9806 211.766C71.7193 212.31 72.1762 213.046 72.3514 213.974ZM80.1532 211.091V213.08H73.8819V211.091H80.1532ZM75.4302 208.477H78.0012V218.719C78.0012 219.064 78.0533 219.33 78.1575 219.514C78.2664 219.694 78.4084 219.817 78.5836 219.884C78.7588 219.95 78.9529 219.983 79.166 219.983C79.327 219.983 79.4738 219.971 79.6064 219.947C79.7437 219.924 79.8478 219.902 79.9189 219.884L80.3521 221.893C80.2148 221.941 80.0183 221.993 79.7626 222.05C79.5117 222.107 79.2039 222.14 78.8393 222.149C78.1954 222.168 77.6154 222.071 77.0993 221.858C76.5832 221.64 76.1736 221.304 75.8706 220.849C75.5723 220.395 75.4255 219.827 75.4302 219.145V208.477ZM99.8283 212.362H97.1721C97.0963 211.927 96.9566 211.541 96.753 211.205C96.5494 210.864 96.2961 210.575 95.9931 210.338C95.69 210.101 95.3444 209.924 94.9561 209.805C94.5726 209.682 94.1583 209.621 93.7132 209.621C92.9225 209.621 92.2218 209.82 91.611 210.217C91.0002 210.61 90.522 211.188 90.1763 211.95C89.8307 212.708 89.6578 213.634 89.6578 214.727C89.6578 215.84 89.8307 216.777 90.1763 217.54C90.5267 218.297 91.0049 218.87 91.611 219.259C92.2218 219.642 92.9202 219.834 93.7061 219.834C94.1417 219.834 94.5489 219.777 94.9277 219.663C95.3113 219.545 95.6545 219.372 95.9576 219.145C96.2653 218.918 96.5234 218.638 96.7317 218.307C96.9448 217.975 97.0916 217.597 97.1721 217.17L99.8283 217.185C99.7289 217.876 99.5134 218.525 99.182 219.131C98.8553 219.737 98.4268 220.272 97.8965 220.736C97.3662 221.195 96.7459 221.555 96.0357 221.815C95.3255 222.071 94.5371 222.199 93.6706 222.199C92.3922 222.199 91.2511 221.903 90.2473 221.311C89.2435 220.719 88.4528 219.865 87.8752 218.747C87.2975 217.63 87.0087 216.29 87.0087 214.727C87.0087 213.16 87.2999 211.82 87.8823 210.707C88.4647 209.59 89.2578 208.735 90.2615 208.143C91.2653 207.552 92.4017 207.256 93.6706 207.256C94.4803 207.256 95.2331 207.369 95.9292 207.597C96.6252 207.824 97.2454 208.158 97.79 208.598C98.3345 209.034 98.7819 209.569 99.1323 210.203C99.4874 210.833 99.7194 211.553 99.8283 212.362ZM106.886 222.213C105.821 222.213 104.898 221.979 104.116 221.51C103.335 221.041 102.729 220.385 102.298 219.543C101.872 218.7 101.659 217.715 101.659 216.588C101.659 215.461 101.872 214.474 102.298 213.626C102.729 212.779 103.335 212.121 104.116 211.652C104.898 211.183 105.821 210.949 106.886 210.949C107.952 210.949 108.875 211.183 109.656 211.652C110.437 212.121 111.041 212.779 111.467 213.626C111.898 214.474 112.113 215.461 112.113 216.588C112.113 217.715 111.898 218.7 111.467 219.543C111.041 220.385 110.437 221.041 109.656 221.51C108.875 221.979 107.952 222.213 106.886 222.213ZM106.9 220.153C107.478 220.153 107.961 219.995 108.349 219.678C108.738 219.356 109.026 218.925 109.216 218.385C109.41 217.845 109.507 217.244 109.507 216.581C109.507 215.913 109.41 215.31 109.216 214.77C109.026 214.225 108.738 213.792 108.349 213.47C107.961 213.148 107.478 212.987 106.9 212.987C106.309 212.987 105.816 213.148 105.423 213.47C105.035 213.792 104.744 214.225 104.55 214.77C104.36 215.31 104.265 215.913 104.265 216.581C104.265 217.244 104.36 217.845 104.55 218.385C104.744 218.925 105.035 219.356 105.423 219.678C105.816 219.995 106.309 220.153 106.9 220.153ZM116.867 215.608V222H114.296V211.091H116.753V212.945H116.881C117.132 212.334 117.532 211.848 118.081 211.489C118.635 211.129 119.319 210.949 120.134 210.949C120.887 210.949 121.542 211.11 122.101 211.432C122.664 211.754 123.1 212.22 123.408 212.831C123.72 213.442 123.874 214.183 123.869 215.054V222H121.298V215.452C121.298 214.723 121.109 214.152 120.73 213.74C120.356 213.328 119.838 213.122 119.175 213.122C118.725 213.122 118.325 213.222 117.975 213.42C117.629 213.615 117.357 213.896 117.158 214.266C116.964 214.635 116.867 215.082 116.867 215.608ZM131.931 211.091V213.08H125.659V211.091H131.931ZM127.208 208.477H129.779V218.719C129.779 219.064 129.831 219.33 129.935 219.514C130.044 219.694 130.186 219.817 130.361 219.884C130.536 219.95 130.73 219.983 130.943 219.983C131.104 219.983 131.251 219.971 131.384 219.947C131.521 219.924 131.625 219.902 131.696 219.884L132.129 221.893C131.992 221.941 131.796 221.993 131.54 222.05C131.289 222.107 130.981 222.14 130.617 222.149C129.973 222.168 129.393 222.071 128.877 221.858C128.36 221.64 127.951 221.304 127.648 220.849C127.35 220.395 127.203 219.827 127.208 219.145V208.477ZM134.081 222V211.091H136.574V212.909H136.687C136.886 212.279 137.227 211.794 137.71 211.453C138.198 211.107 138.754 210.935 139.379 210.935C139.521 210.935 139.68 210.942 139.855 210.956C140.035 210.965 140.184 210.982 140.302 211.006V213.371C140.193 213.333 140.021 213.3 139.784 213.271C139.552 213.238 139.327 213.222 139.109 213.222C138.64 213.222 138.219 213.323 137.845 213.527C137.476 213.726 137.184 214.003 136.971 214.358C136.758 214.713 136.652 215.123 136.652 215.587V222H134.081ZM146.32 222.213C145.254 222.213 144.331 221.979 143.55 221.51C142.769 221.041 142.163 220.385 141.732 219.543C141.306 218.7 141.093 217.715 141.093 216.588C141.093 215.461 141.306 214.474 141.732 213.626C142.163 212.779 142.769 212.121 143.55 211.652C144.331 211.183 145.254 210.949 146.32 210.949C147.385 210.949 148.308 211.183 149.09 211.652C149.871 212.121 150.475 212.779 150.901 213.626C151.332 214.474 151.547 215.461 151.547 216.588C151.547 217.715 151.332 218.7 150.901 219.543C150.475 220.385 149.871 221.041 149.09 221.51C148.308 221.979 147.385 222.213 146.32 222.213ZM146.334 220.153C146.912 220.153 147.395 219.995 147.783 219.678C148.171 219.356 148.46 218.925 148.649 218.385C148.843 217.845 148.941 217.244 148.941 216.581C148.941 215.913 148.843 215.31 148.649 214.77C148.46 214.225 148.171 213.792 147.783 213.47C147.395 213.148 146.912 212.987 146.334 212.987C145.742 212.987 145.25 213.148 144.857 213.47C144.468 213.792 144.177 214.225 143.983 214.77C143.794 215.31 143.699 215.913 143.699 216.581C143.699 217.244 143.794 217.845 143.983 218.385C144.177 218.925 144.468 219.356 144.857 219.678C145.25 219.995 145.742 220.153 146.334 220.153ZM156.3 207.455V222H153.729V207.455H156.3Z" fill="white"/>
<path d="M287.288 195.455V210H284.653V195.455H287.288ZM290.028 210V199.091H292.485V200.945H292.613C292.841 200.32 293.217 199.832 293.743 199.482C294.268 199.126 294.895 198.949 295.625 198.949C296.363 198.949 296.986 199.129 297.493 199.489C298.004 199.844 298.364 200.329 298.572 200.945H298.686C298.927 200.339 299.334 199.856 299.907 199.496C300.485 199.131 301.169 198.949 301.96 198.949C302.964 198.949 303.783 199.266 304.417 199.901C305.052 200.535 305.369 201.461 305.369 202.678V210H302.791V203.075C302.791 202.398 302.611 201.903 302.251 201.591C301.891 201.274 301.451 201.115 300.93 201.115C300.31 201.115 299.824 201.309 299.474 201.697C299.128 202.081 298.956 202.58 298.956 203.196V210H296.434V202.969C296.434 202.405 296.264 201.955 295.923 201.619C295.587 201.283 295.146 201.115 294.602 201.115C294.233 201.115 293.896 201.21 293.593 201.399C293.29 201.584 293.049 201.847 292.869 202.188C292.689 202.524 292.599 202.917 292.599 203.366V210H290.028ZM307.977 214.091V199.091H310.506V200.895H310.655C310.787 200.63 310.974 200.348 311.216 200.05C311.457 199.747 311.784 199.489 312.196 199.276C312.608 199.058 313.134 198.949 313.773 198.949C314.616 198.949 315.375 199.164 316.053 199.595C316.734 200.021 317.274 200.653 317.672 201.491C318.074 202.325 318.276 203.348 318.276 204.56C318.276 205.758 318.079 206.776 317.686 207.614C317.293 208.452 316.758 209.091 316.081 209.531C315.404 209.972 314.637 210.192 313.78 210.192C313.155 210.192 312.636 210.088 312.224 209.879C311.813 209.671 311.481 209.42 311.23 209.126C310.984 208.828 310.792 208.546 310.655 208.281H310.548V214.091H307.977ZM310.499 204.545C310.499 205.251 310.598 205.869 310.797 206.399C311 206.929 311.292 207.344 311.67 207.642C312.054 207.936 312.518 208.082 313.062 208.082C313.631 208.082 314.107 207.931 314.49 207.628C314.874 207.32 315.162 206.901 315.357 206.371C315.555 205.836 315.655 205.227 315.655 204.545C315.655 203.868 315.558 203.267 315.364 202.741C315.17 202.216 314.881 201.804 314.497 201.506C314.114 201.207 313.635 201.058 313.062 201.058C312.513 201.058 312.047 201.203 311.663 201.491C311.28 201.78 310.989 202.185 310.79 202.706C310.596 203.227 310.499 203.84 310.499 204.545ZM323.616 210.22C322.925 210.22 322.303 210.097 321.749 209.851C321.199 209.6 320.764 209.231 320.442 208.743C320.125 208.255 319.966 207.654 319.966 206.939C319.966 206.323 320.08 205.814 320.307 205.412C320.534 205.009 320.844 204.688 321.237 204.446C321.63 204.205 322.073 204.022 322.565 203.899C323.063 203.771 323.576 203.679 324.107 203.622C324.746 203.556 325.264 203.497 325.662 203.445C326.06 203.388 326.348 203.303 326.528 203.189C326.713 203.071 326.805 202.888 326.805 202.642V202.599C326.805 202.064 326.647 201.65 326.33 201.357C326.012 201.063 325.555 200.916 324.959 200.916C324.329 200.916 323.83 201.054 323.46 201.328C323.096 201.603 322.849 201.927 322.722 202.301L320.321 201.96C320.51 201.297 320.823 200.743 321.259 200.298C321.694 199.848 322.227 199.512 322.857 199.29C323.486 199.062 324.182 198.949 324.945 198.949C325.47 198.949 325.993 199.01 326.514 199.134C327.035 199.257 327.511 199.46 327.942 199.744C328.373 200.024 328.718 200.405 328.979 200.888C329.244 201.371 329.376 201.974 329.376 202.699V210H326.905V208.501H326.82C326.663 208.804 326.443 209.089 326.159 209.354C325.88 209.614 325.527 209.825 325.101 209.986C324.679 210.142 324.185 210.22 323.616 210.22ZM324.284 208.331C324.8 208.331 325.248 208.229 325.626 208.026C326.005 207.817 326.296 207.543 326.5 207.202C326.708 206.861 326.812 206.489 326.812 206.087V204.801C326.732 204.867 326.595 204.929 326.401 204.986C326.211 205.043 325.998 205.092 325.761 205.135C325.525 205.178 325.29 205.215 325.058 205.249C324.826 205.282 324.625 205.31 324.455 205.334C324.071 205.386 323.728 205.471 323.425 205.589C323.122 205.708 322.883 205.874 322.707 206.087C322.532 206.295 322.445 206.565 322.445 206.896C322.445 207.37 322.617 207.727 322.963 207.969C323.309 208.21 323.749 208.331 324.284 208.331ZM336.72 210.213C335.631 210.213 334.696 209.974 333.915 209.496C333.138 209.018 332.539 208.357 332.118 207.514C331.701 206.667 331.493 205.691 331.493 204.588C331.493 203.48 331.706 202.502 332.132 201.655C332.558 200.803 333.16 200.14 333.936 199.666C334.717 199.188 335.641 198.949 336.706 198.949C337.591 198.949 338.375 199.112 339.057 199.439C339.743 199.761 340.29 200.218 340.697 200.81C341.105 201.397 341.337 202.083 341.393 202.869H338.936C338.837 202.344 338.6 201.906 338.226 201.555C337.857 201.2 337.362 201.023 336.741 201.023C336.216 201.023 335.754 201.165 335.357 201.449C334.959 201.728 334.649 202.131 334.426 202.656C334.208 203.182 334.099 203.812 334.099 204.545C334.099 205.289 334.208 205.928 334.426 206.463C334.644 206.993 334.949 207.403 335.342 207.692C335.74 207.976 336.206 208.118 336.741 208.118C337.12 208.118 337.459 208.047 337.757 207.905C338.06 207.758 338.313 207.547 338.517 207.273C338.721 206.998 338.86 206.664 338.936 206.271H341.393C341.332 207.043 341.105 207.727 340.712 208.324C340.319 208.916 339.784 209.38 339.107 209.716C338.429 210.047 337.634 210.213 336.72 210.213ZM348.952 199.091V201.08H342.681V199.091H348.952ZM344.229 196.477H346.8V206.719C346.8 207.064 346.852 207.33 346.956 207.514C347.065 207.694 347.207 207.817 347.382 207.884C347.558 207.95 347.752 207.983 347.965 207.983C348.126 207.983 348.273 207.971 348.405 207.947C348.542 207.924 348.647 207.902 348.718 207.884L349.151 209.893C349.014 209.941 348.817 209.993 348.561 210.05C348.31 210.107 348.003 210.14 347.638 210.149C346.994 210.168 346.414 210.071 345.898 209.858C345.382 209.64 344.972 209.304 344.669 208.849C344.371 208.395 344.224 207.827 344.229 207.145V196.477ZM278.777 234H275.965L281.085 219.455H284.338L289.466 234H286.654L282.769 222.438H282.655L278.777 234ZM278.869 228.297H286.54V230.413H278.869V228.297ZM293.839 227.608V234H291.268V223.091H293.726V224.945H293.854C294.104 224.334 294.505 223.848 295.054 223.489C295.608 223.129 296.292 222.949 297.106 222.949C297.859 222.949 298.515 223.11 299.074 223.432C299.637 223.754 300.073 224.22 300.381 224.831C300.693 225.442 300.847 226.183 300.842 227.054V234H298.271V227.452C298.271 226.723 298.082 226.152 297.703 225.74C297.329 225.328 296.81 225.122 296.148 225.122C295.698 225.122 295.298 225.222 294.947 225.42C294.602 225.615 294.329 225.896 294.131 226.266C293.936 226.635 293.839 227.082 293.839 227.608ZM306.595 234.22C305.904 234.22 305.281 234.097 304.727 233.851C304.178 233.6 303.742 233.231 303.42 232.743C303.103 232.255 302.944 231.654 302.944 230.939C302.944 230.323 303.058 229.814 303.285 229.412C303.513 229.009 303.823 228.688 304.216 228.446C304.609 228.205 305.051 228.022 305.544 227.899C306.041 227.771 306.555 227.679 307.085 227.622C307.724 227.556 308.243 227.497 308.64 227.445C309.038 227.388 309.327 227.303 309.507 227.189C309.692 227.071 309.784 226.888 309.784 226.642V226.599C309.784 226.064 309.625 225.65 309.308 225.357C308.991 225.063 308.534 224.916 307.937 224.916C307.308 224.916 306.808 225.054 306.439 225.328C306.074 225.603 305.828 225.927 305.7 226.301L303.3 225.96C303.489 225.297 303.801 224.743 304.237 224.298C304.673 223.848 305.205 223.512 305.835 223.29C306.465 223.062 307.161 222.949 307.923 222.949C308.449 222.949 308.972 223.01 309.493 223.134C310.014 223.257 310.489 223.46 310.92 223.744C311.351 224.024 311.697 224.405 311.957 224.888C312.222 225.371 312.355 225.974 312.355 226.699V234H309.883V232.501H309.798C309.642 232.804 309.422 233.089 309.138 233.354C308.858 233.614 308.506 233.825 308.079 233.986C307.658 234.142 307.163 234.22 306.595 234.22ZM307.263 232.331C307.779 232.331 308.226 232.229 308.605 232.026C308.984 231.817 309.275 231.543 309.479 231.202C309.687 230.861 309.791 230.489 309.791 230.087V228.801C309.711 228.867 309.573 228.929 309.379 228.986C309.19 229.043 308.977 229.092 308.74 229.135C308.503 229.178 308.269 229.215 308.037 229.249C307.805 229.282 307.604 229.31 307.433 229.334C307.05 229.386 306.706 229.471 306.403 229.589C306.1 229.708 305.861 229.874 305.686 230.087C305.511 230.295 305.423 230.565 305.423 230.896C305.423 231.37 305.596 231.727 305.942 231.969C306.287 232.21 306.728 232.331 307.263 232.331ZM317.511 219.455V234H314.94V219.455H317.511ZM321.753 238.091C321.403 238.091 321.078 238.063 320.78 238.006C320.486 237.954 320.252 237.892 320.077 237.821L320.673 235.818C321.048 235.927 321.381 235.979 321.675 235.974C321.968 235.97 322.227 235.877 322.449 235.697C322.676 235.522 322.868 235.229 323.024 234.817L323.244 234.227L319.289 223.091H322.016L324.53 231.33H324.644L327.165 223.091H329.899L325.531 235.321C325.328 235.899 325.058 236.393 324.722 236.805C324.386 237.222 323.974 237.539 323.486 237.757C323.003 237.98 322.425 238.091 321.753 238.091ZM340.301 225.974L337.957 226.23C337.891 225.993 337.775 225.771 337.609 225.562C337.448 225.354 337.23 225.186 336.955 225.058C336.681 224.93 336.345 224.866 335.947 224.866C335.412 224.866 334.962 224.982 334.597 225.214C334.238 225.446 334.06 225.747 334.065 226.116C334.06 226.434 334.176 226.692 334.413 226.891C334.654 227.089 335.052 227.253 335.606 227.381L337.467 227.778C338.499 228.001 339.266 228.354 339.768 228.837C340.275 229.32 340.53 229.952 340.535 230.733C340.53 231.42 340.329 232.026 339.931 232.551C339.538 233.072 338.991 233.479 338.291 233.773C337.59 234.066 336.785 234.213 335.876 234.213C334.541 234.213 333.466 233.934 332.651 233.375C331.837 232.812 331.352 232.028 331.195 231.024L333.703 230.783C333.816 231.275 334.058 231.647 334.427 231.898C334.796 232.149 335.277 232.274 335.869 232.274C336.48 232.274 336.97 232.149 337.339 231.898C337.713 231.647 337.9 231.337 337.9 230.967C337.9 230.655 337.779 230.397 337.538 230.193C337.301 229.99 336.932 229.833 336.43 229.724L334.569 229.334C333.523 229.116 332.749 228.749 332.247 228.233C331.745 227.712 331.496 227.054 331.501 226.259C331.496 225.586 331.678 225.004 332.048 224.511C332.422 224.014 332.94 223.631 333.603 223.361C334.271 223.086 335.04 222.949 335.911 222.949C337.19 222.949 338.196 223.221 338.93 223.766C339.669 224.31 340.125 225.046 340.301 225.974ZM342.655 234V223.091H345.226V234H342.655ZM343.948 221.543C343.54 221.543 343.19 221.408 342.896 221.138C342.603 220.863 342.456 220.534 342.456 220.151C342.456 219.762 342.603 219.433 342.896 219.163C343.19 218.889 343.54 218.751 343.948 218.751C344.36 218.751 344.71 218.889 344.999 219.163C345.292 219.433 345.439 219.762 345.439 220.151C345.439 220.534 345.292 220.863 344.999 221.138C344.71 221.408 344.36 221.543 343.948 221.543ZM356.492 225.974L354.148 226.23C354.082 225.993 353.966 225.771 353.8 225.562C353.639 225.354 353.421 225.186 353.147 225.058C352.872 224.93 352.536 224.866 352.138 224.866C351.603 224.866 351.153 224.982 350.789 225.214C350.429 225.446 350.251 225.747 350.256 226.116C350.251 226.434 350.367 226.692 350.604 226.891C350.846 227.089 351.243 227.253 351.797 227.381L353.658 227.778C354.69 228.001 355.457 228.354 355.959 228.837C356.466 229.32 356.722 229.952 356.726 230.733C356.722 231.42 356.52 232.026 356.123 232.551C355.73 233.072 355.183 233.479 354.482 233.773C353.781 234.066 352.976 234.213 352.067 234.213C350.732 234.213 349.657 233.934 348.843 233.375C348.028 232.812 347.543 232.028 347.387 231.024L349.894 230.783C350.008 231.275 350.249 231.647 350.618 231.898C350.988 232.149 351.468 232.274 352.06 232.274C352.671 232.274 353.161 232.149 353.53 231.898C353.904 231.647 354.091 231.337 354.091 230.967C354.091 230.655 353.971 230.397 353.729 230.193C353.492 229.99 353.123 229.833 352.621 229.724L350.76 229.334C349.714 229.116 348.94 228.749 348.438 228.233C347.936 227.712 347.688 227.054 347.692 226.259C347.688 225.586 347.87 225.004 348.239 224.511C348.613 224.014 349.132 223.631 349.795 223.361C350.462 223.086 351.232 222.949 352.103 222.949C353.381 222.949 354.387 223.221 355.121 223.766C355.86 224.31 356.317 225.046 356.492 225.974Z" fill="white"/>
<path d="M499.055 200.362H496.399C496.323 199.927 496.183 199.541 495.98 199.205C495.776 198.864 495.523 198.575 495.22 198.338C494.917 198.101 494.571 197.924 494.183 197.805C493.799 197.682 493.385 197.621 492.94 197.621C492.149 197.621 491.448 197.82 490.838 198.217C490.227 198.61 489.749 199.188 489.403 199.95C489.057 200.708 488.884 201.634 488.884 202.727C488.884 203.84 489.057 204.777 489.403 205.54C489.753 206.297 490.231 206.87 490.838 207.259C491.448 207.642 492.147 207.834 492.933 207.834C493.368 207.834 493.776 207.777 494.154 207.663C494.538 207.545 494.881 207.372 495.184 207.145C495.492 206.918 495.75 206.638 495.958 206.307C496.171 205.975 496.318 205.597 496.399 205.17L499.055 205.185C498.955 205.876 498.74 206.525 498.409 207.131C498.082 207.737 497.653 208.272 497.123 208.736C496.593 209.195 495.972 209.555 495.262 209.815C494.552 210.071 493.764 210.199 492.897 210.199C491.619 210.199 490.478 209.903 489.474 209.311C488.47 208.719 487.679 207.865 487.102 206.747C486.524 205.63 486.235 204.29 486.235 202.727C486.235 201.16 486.526 199.82 487.109 198.707C487.691 197.59 488.484 196.735 489.488 196.143C490.492 195.552 491.628 195.256 492.897 195.256C493.707 195.256 494.46 195.369 495.156 195.597C495.852 195.824 496.472 196.158 497.017 196.598C497.561 197.034 498.008 197.569 498.359 198.203C498.714 198.833 498.946 199.553 499.055 200.362ZM506.113 210.213C505.047 210.213 504.124 209.979 503.343 209.51C502.562 209.041 501.956 208.385 501.525 207.543C501.099 206.7 500.885 205.715 500.885 204.588C500.885 203.461 501.099 202.474 501.525 201.626C501.956 200.779 502.562 200.121 503.343 199.652C504.124 199.183 505.047 198.949 506.113 198.949C507.178 198.949 508.101 199.183 508.883 199.652C509.664 200.121 510.268 200.779 510.694 201.626C511.125 202.474 511.34 203.461 511.34 204.588C511.34 205.715 511.125 206.7 510.694 207.543C510.268 208.385 509.664 209.041 508.883 209.51C508.101 209.979 507.178 210.213 506.113 210.213ZM506.127 208.153C506.705 208.153 507.188 207.995 507.576 207.678C507.964 207.356 508.253 206.925 508.442 206.385C508.636 205.845 508.733 205.244 508.733 204.581C508.733 203.913 508.636 203.31 508.442 202.77C508.253 202.225 507.964 201.792 507.576 201.47C507.188 201.148 506.705 200.987 506.127 200.987C505.535 200.987 505.043 201.148 504.65 201.47C504.261 201.792 503.97 202.225 503.776 202.77C503.587 203.31 503.492 203.913 503.492 204.581C503.492 205.244 503.587 205.845 503.776 206.385C503.97 206.925 504.261 207.356 504.65 207.678C505.043 207.995 505.535 208.153 506.127 208.153ZM513.522 210V199.091H516.015V200.909H516.129C516.328 200.279 516.669 199.794 517.151 199.453C517.639 199.107 518.195 198.935 518.82 198.935C518.963 198.935 519.121 198.942 519.296 198.956C519.476 198.965 519.625 198.982 519.744 199.006V201.371C519.635 201.333 519.462 201.3 519.225 201.271C518.993 201.238 518.768 201.222 518.551 201.222C518.082 201.222 517.66 201.323 517.286 201.527C516.917 201.726 516.626 202.003 516.413 202.358C516.2 202.713 516.093 203.123 516.093 203.587V210H513.522ZM521.452 210V199.091H523.945V200.909H524.058C524.257 200.279 524.598 199.794 525.081 199.453C525.569 199.107 526.125 198.935 526.75 198.935C526.892 198.935 527.051 198.942 527.226 198.956C527.406 198.965 527.555 198.982 527.673 199.006V201.371C527.565 201.333 527.392 201.3 527.155 201.271C526.923 201.238 526.698 201.222 526.48 201.222C526.012 201.222 525.59 201.323 525.216 201.527C524.847 201.726 524.556 202.003 524.343 202.358C524.129 202.713 524.023 203.123 524.023 203.587V210H521.452ZM533.762 210.213C532.668 210.213 531.724 209.986 530.928 209.531C530.137 209.072 529.529 208.423 529.103 207.585C528.677 206.742 528.464 205.75 528.464 204.609C528.464 203.487 528.677 202.502 529.103 201.655C529.534 200.803 530.135 200.14 530.907 199.666C531.679 199.188 532.585 198.949 533.627 198.949C534.299 198.949 534.934 199.058 535.53 199.276C536.132 199.489 536.662 199.82 537.121 200.27C537.585 200.72 537.95 201.293 538.215 201.989C538.48 202.68 538.613 203.504 538.613 204.46V205.249H529.671V203.516H536.148C536.144 203.023 536.037 202.585 535.829 202.202C535.62 201.813 535.329 201.508 534.955 201.286C534.586 201.063 534.155 200.952 533.662 200.952C533.137 200.952 532.675 201.08 532.278 201.335C531.88 201.586 531.57 201.918 531.347 202.33C531.129 202.737 531.018 203.184 531.013 203.672V205.185C531.013 205.819 531.129 206.364 531.361 206.818C531.593 207.268 531.918 207.614 532.334 207.855C532.751 208.092 533.239 208.21 533.797 208.21C534.171 208.21 534.51 208.158 534.813 208.054C535.116 207.945 535.379 207.786 535.601 207.578C535.824 207.37 535.992 207.112 536.106 206.804L538.506 207.074C538.355 207.708 538.066 208.262 537.64 208.736C537.218 209.205 536.679 209.569 536.02 209.83C535.362 210.085 534.609 210.213 533.762 210.213ZM545.546 210.213C544.457 210.213 543.522 209.974 542.741 209.496C541.964 209.018 541.365 208.357 540.944 207.514C540.527 206.667 540.319 205.691 540.319 204.588C540.319 203.48 540.532 202.502 540.958 201.655C541.384 200.803 541.986 200.14 542.762 199.666C543.544 199.188 544.467 198.949 545.532 198.949C546.418 198.949 547.201 199.112 547.883 199.439C548.57 199.761 549.116 200.218 549.524 200.81C549.931 201.397 550.163 202.083 550.22 202.869H547.762C547.663 202.344 547.426 201.906 547.052 201.555C546.683 201.2 546.188 201.023 545.568 201.023C545.042 201.023 544.58 201.165 544.183 201.449C543.785 201.728 543.475 202.131 543.252 202.656C543.035 203.182 542.926 203.812 542.926 204.545C542.926 205.289 543.035 205.928 543.252 206.463C543.47 206.993 543.776 207.403 544.169 207.692C544.566 207.976 545.033 208.118 545.568 208.118C545.946 208.118 546.285 208.047 546.583 207.905C546.886 207.758 547.14 207.547 547.343 207.273C547.547 206.998 547.686 206.664 547.762 206.271H550.22C550.158 207.043 549.931 207.727 549.538 208.324C549.145 208.916 548.61 209.38 547.933 209.716C547.256 210.047 546.46 210.213 545.546 210.213ZM557.778 199.091V201.08H551.507V199.091H557.778ZM553.055 196.477H555.626V206.719C555.626 207.064 555.678 207.33 555.782 207.514C555.891 207.694 556.033 207.817 556.209 207.884C556.384 207.95 556.578 207.983 556.791 207.983C556.952 207.983 557.099 207.971 557.231 207.947C557.369 207.924 557.473 207.902 557.544 207.884L557.977 209.893C557.84 209.941 557.643 209.993 557.388 210.05C557.137 210.107 556.829 210.14 556.464 210.149C555.82 210.168 555.24 210.071 554.724 209.858C554.208 209.64 553.799 209.304 553.496 208.849C553.197 208.395 553.05 207.827 553.055 207.145V196.477ZM559.928 210V199.091H562.499V210H559.928ZM561.221 197.543C560.814 197.543 560.463 197.408 560.17 197.138C559.876 196.863 559.73 196.534 559.73 196.151C559.73 195.762 559.876 195.433 560.17 195.163C560.463 194.889 560.814 194.751 561.221 194.751C561.633 194.751 561.983 194.889 562.272 195.163C562.566 195.433 562.713 195.762 562.713 196.151C562.713 196.534 562.566 196.863 562.272 197.138C561.983 197.408 561.633 197.543 561.221 197.543ZM574.888 199.091L571.003 210H568.162L564.277 199.091H567.018L569.525 207.195H569.639L572.153 199.091H574.888ZM581.125 210.213C580.031 210.213 579.087 209.986 578.291 209.531C577.501 209.072 576.892 208.423 576.466 207.585C576.04 206.742 575.827 205.75 575.827 204.609C575.827 203.487 576.04 202.502 576.466 201.655C576.897 200.803 577.498 200.14 578.27 199.666C579.042 199.188 579.949 198.949 580.99 198.949C581.663 198.949 582.297 199.058 582.894 199.276C583.495 199.489 584.025 199.82 584.485 200.27C584.949 200.72 585.313 201.293 585.578 201.989C585.843 202.68 585.976 203.504 585.976 204.46V205.249H577.034V203.516H583.512C583.507 203.023 583.4 202.585 583.192 202.202C582.984 201.813 582.692 201.508 582.318 201.286C581.949 201.063 581.518 200.952 581.026 200.952C580.5 200.952 580.039 201.08 579.641 201.335C579.243 201.586 578.933 201.918 578.71 202.33C578.493 202.737 578.381 203.184 578.377 203.672V205.185C578.377 205.819 578.493 206.364 578.725 206.818C578.957 207.268 579.281 207.614 579.698 207.855C580.114 208.092 580.602 208.21 581.161 208.21C581.535 208.21 581.873 208.158 582.176 208.054C582.479 207.945 582.742 207.786 582.965 207.578C583.187 207.37 583.355 207.112 583.469 206.804L585.869 207.074C585.718 207.708 585.429 208.262 585.003 208.736C584.582 209.205 584.042 209.569 583.384 209.83C582.726 210.085 581.973 210.213 581.125 210.213ZM506.819 224.362H504.162C504.087 223.927 503.947 223.541 503.743 223.205C503.54 222.864 503.286 222.575 502.983 222.338C502.68 222.101 502.335 221.924 501.946 221.805C501.563 221.682 501.149 221.621 500.703 221.621C499.913 221.621 499.212 221.82 498.601 222.217C497.99 222.61 497.512 223.188 497.167 223.95C496.821 224.708 496.648 225.634 496.648 226.727C496.648 227.84 496.821 228.777 497.167 229.54C497.517 230.297 497.995 230.87 498.601 231.259C499.212 231.642 499.91 231.834 500.696 231.834C501.132 231.834 501.539 231.777 501.918 231.663C502.301 231.545 502.645 231.372 502.948 231.145C503.256 230.918 503.514 230.638 503.722 230.307C503.935 229.975 504.082 229.597 504.162 229.17L506.819 229.185C506.719 229.876 506.504 230.525 506.172 231.131C505.846 231.737 505.417 232.272 504.887 232.736C504.356 233.195 503.736 233.555 503.026 233.815C502.316 234.071 501.527 234.199 500.661 234.199C499.382 234.199 498.241 233.903 497.238 233.311C496.234 232.719 495.443 231.865 494.865 230.747C494.288 229.63 493.999 228.29 493.999 226.727C493.999 225.16 494.29 223.82 494.873 222.707C495.455 221.59 496.248 220.735 497.252 220.143C498.256 219.552 499.392 219.256 500.661 219.256C501.471 219.256 502.223 219.369 502.919 219.597C503.615 219.824 504.236 220.158 504.78 220.598C505.325 221.034 505.772 221.569 506.123 222.203C506.478 222.833 506.71 223.553 506.819 224.362ZM511.689 227.608V234H509.118V219.455H511.632V224.945H511.76C512.016 224.329 512.411 223.844 512.946 223.489C513.486 223.129 514.172 222.949 515.006 222.949C515.763 222.949 516.424 223.107 516.987 223.425C517.551 223.742 517.986 224.206 518.294 224.817C518.607 225.428 518.763 226.173 518.763 227.054V234H516.192V227.452C516.192 226.718 516.002 226.147 515.624 225.74C515.25 225.328 514.724 225.122 514.047 225.122C513.592 225.122 513.185 225.222 512.825 225.42C512.47 225.615 512.191 225.896 511.987 226.266C511.788 226.635 511.689 227.082 511.689 227.608ZM524.523 234.22C523.831 234.22 523.209 234.097 522.655 233.851C522.106 233.6 521.67 233.231 521.348 232.743C521.031 232.255 520.872 231.654 520.872 230.939C520.872 230.323 520.986 229.814 521.213 229.412C521.44 229.009 521.75 228.688 522.143 228.446C522.536 228.205 522.979 228.022 523.472 227.899C523.969 227.771 524.482 227.679 525.013 227.622C525.652 227.556 526.17 227.497 526.568 227.445C526.966 227.388 527.255 227.303 527.435 227.189C527.619 227.071 527.712 226.888 527.712 226.642V226.599C527.712 226.064 527.553 225.65 527.236 225.357C526.919 225.063 526.462 224.916 525.865 224.916C525.235 224.916 524.736 225.054 524.366 225.328C524.002 225.603 523.756 225.927 523.628 226.301L521.227 225.96C521.417 225.297 521.729 224.743 522.165 224.298C522.6 223.848 523.133 223.512 523.763 223.29C524.393 223.062 525.089 222.949 525.851 222.949C526.376 222.949 526.9 223.01 527.42 223.134C527.941 223.257 528.417 223.46 528.848 223.744C529.279 224.024 529.625 224.405 529.885 224.888C530.15 225.371 530.283 225.974 530.283 226.699V234H527.811V232.501H527.726C527.57 232.804 527.349 233.089 527.065 233.354C526.786 233.614 526.433 233.825 526.007 233.986C525.586 234.142 525.091 234.22 524.523 234.22ZM525.19 232.331C525.706 232.331 526.154 232.229 526.533 232.026C526.911 231.817 527.203 231.543 527.406 231.202C527.615 230.861 527.719 230.489 527.719 230.087V228.801C527.638 228.867 527.501 228.929 527.307 228.986C527.117 229.043 526.904 229.092 526.668 229.135C526.431 229.178 526.196 229.215 525.964 229.249C525.732 229.282 525.531 229.31 525.361 229.334C524.977 229.386 524.634 229.471 524.331 229.589C524.028 229.708 523.789 229.874 523.614 230.087C523.438 230.295 523.351 230.565 523.351 230.896C523.351 231.37 523.524 231.727 523.869 231.969C524.215 232.21 524.655 232.331 525.19 232.331ZM535.439 227.608V234H532.868V223.091H535.325V224.945H535.453C535.704 224.334 536.104 223.848 536.653 223.489C537.207 223.129 537.892 222.949 538.706 222.949C539.459 222.949 540.115 223.11 540.673 223.432C541.237 223.754 541.672 224.22 541.98 224.831C542.293 225.442 542.446 226.183 542.442 227.054V234H539.871V227.452C539.871 226.723 539.681 226.152 539.303 225.74C538.929 225.328 538.41 225.122 537.747 225.122C537.297 225.122 536.897 225.222 536.547 225.42C536.201 225.615 535.929 225.896 535.73 226.266C535.536 226.635 535.439 227.082 535.439 227.608ZM549.8 238.318C548.876 238.318 548.083 238.193 547.42 237.942C546.758 237.696 546.225 237.364 545.822 236.947C545.42 236.531 545.141 236.069 544.984 235.562L547.3 235.001C547.404 235.214 547.555 235.425 547.754 235.634C547.953 235.847 548.221 236.022 548.557 236.159C548.898 236.301 549.326 236.372 549.842 236.372C550.571 236.372 551.175 236.195 551.653 235.839C552.132 235.489 552.371 234.911 552.371 234.107V232.04H552.243C552.11 232.305 551.916 232.577 551.661 232.857C551.41 233.136 551.076 233.37 550.659 233.56C550.247 233.749 549.729 233.844 549.104 233.844C548.266 233.844 547.506 233.647 546.824 233.254C546.147 232.857 545.607 232.265 545.205 231.479C544.807 230.688 544.608 229.698 544.608 228.51C544.608 227.312 544.807 226.301 545.205 225.477C545.607 224.649 546.149 224.021 546.831 223.595C547.513 223.164 548.273 222.949 549.111 222.949C549.75 222.949 550.276 223.058 550.688 223.276C551.104 223.489 551.436 223.747 551.682 224.05C551.928 224.348 552.115 224.63 552.243 224.895H552.385V223.091H554.92V234.178C554.92 235.11 554.698 235.882 554.253 236.493C553.808 237.104 553.199 237.561 552.428 237.864C551.656 238.167 550.78 238.318 549.8 238.318ZM549.821 231.827C550.366 231.827 550.83 231.694 551.213 231.429C551.597 231.164 551.888 230.783 552.087 230.286C552.286 229.788 552.385 229.192 552.385 228.496C552.385 227.809 552.286 227.208 552.087 226.692C551.893 226.176 551.604 225.776 551.22 225.491C550.841 225.203 550.375 225.058 549.821 225.058C549.248 225.058 548.77 225.207 548.386 225.506C548.003 225.804 547.714 226.214 547.52 226.734C547.326 227.25 547.229 227.838 547.229 228.496C547.229 229.163 547.326 229.748 547.52 230.25C547.719 230.747 548.01 231.135 548.393 231.415C548.782 231.689 549.258 231.827 549.821 231.827ZM562.385 234.213C561.291 234.213 560.347 233.986 559.551 233.531C558.76 233.072 558.152 232.423 557.726 231.585C557.3 230.742 557.087 229.75 557.087 228.609C557.087 227.487 557.3 226.502 557.726 225.655C558.157 224.803 558.758 224.14 559.53 223.666C560.302 223.188 561.208 222.949 562.25 222.949C562.922 222.949 563.557 223.058 564.153 223.276C564.755 223.489 565.285 223.82 565.744 224.27C566.208 224.72 566.573 225.293 566.838 225.989C567.103 226.68 567.236 227.504 567.236 228.46V229.249H558.294V227.516H564.771C564.767 227.023 564.66 226.585 564.452 226.202C564.243 225.813 563.952 225.508 563.578 225.286C563.209 225.063 562.778 224.952 562.286 224.952C561.76 224.952 561.298 225.08 560.901 225.335C560.503 225.586 560.193 225.918 559.97 226.33C559.752 226.737 559.641 227.184 559.636 227.672V229.185C559.636 229.819 559.752 230.364 559.984 230.818C560.216 231.268 560.541 231.614 560.957 231.855C561.374 232.092 561.862 232.21 562.42 232.21C562.795 232.21 563.133 232.158 563.436 232.054C563.739 231.945 564.002 231.786 564.224 231.578C564.447 231.37 564.615 231.112 564.729 230.804L567.129 231.074C566.978 231.708 566.689 232.262 566.263 232.736C565.841 233.205 565.302 233.569 564.643 233.83C563.985 234.085 563.232 234.213 562.385 234.213ZM578.033 225.974L575.689 226.23C575.623 225.993 575.507 225.771 575.341 225.562C575.18 225.354 574.962 225.186 574.688 225.058C574.413 224.93 574.077 224.866 573.679 224.866C573.144 224.866 572.694 224.982 572.33 225.214C571.97 225.446 571.792 225.747 571.797 226.116C571.792 226.434 571.908 226.692 572.145 226.891C572.387 227.089 572.784 227.253 573.338 227.381L575.199 227.778C576.231 228.001 576.998 228.354 577.5 228.837C578.007 229.32 578.263 229.952 578.267 230.733C578.263 231.42 578.061 232.026 577.664 232.551C577.271 233.072 576.724 233.479 576.023 233.773C575.322 234.066 574.517 234.213 573.608 234.213C572.273 234.213 571.198 233.934 570.384 233.375C569.569 232.812 569.084 232.028 568.928 231.024L571.435 230.783C571.549 231.275 571.79 231.647 572.159 231.898C572.529 232.149 573.009 232.274 573.601 232.274C574.212 232.274 574.702 232.149 575.071 231.898C575.445 231.647 575.632 231.337 575.632 230.967C575.632 230.655 575.512 230.397 575.27 230.193C575.033 229.99 574.664 229.833 574.162 229.724L572.301 229.334C571.255 229.116 570.481 228.749 569.979 228.233C569.477 227.712 569.229 227.054 569.233 226.259C569.229 225.586 569.411 225.004 569.78 224.511C570.154 224.014 570.673 223.631 571.336 223.361C572.003 223.086 572.773 222.949 573.644 222.949C574.922 222.949 575.928 223.221 576.662 223.766C577.401 224.31 577.858 225.046 578.033 225.974Z" fill="white"/>
<path d="M718.531 210H715.719L720.839 195.455H724.092L729.22 210H726.407L722.523 198.438H722.409L718.531 210ZM718.623 204.297H726.294V206.413H718.623V204.297ZM734.738 210.192C733.881 210.192 733.114 209.972 732.437 209.531C731.76 209.091 731.225 208.452 730.832 207.614C730.439 206.776 730.243 205.758 730.243 204.56C730.243 203.348 730.442 202.325 730.839 201.491C731.242 200.653 731.784 200.021 732.466 199.595C733.148 199.164 733.907 198.949 734.746 198.949C735.385 198.949 735.91 199.058 736.322 199.276C736.734 199.489 737.061 199.747 737.302 200.05C737.544 200.348 737.731 200.63 737.863 200.895H737.97V195.455H740.548V210H738.02V208.281H737.863C737.731 208.546 737.539 208.828 737.288 209.126C737.037 209.42 736.706 209.671 736.294 209.879C735.882 210.088 735.363 210.192 734.738 210.192ZM735.456 208.082C736 208.082 736.464 207.936 736.848 207.642C737.231 207.344 737.523 206.929 737.721 206.399C737.92 205.869 738.02 205.251 738.02 204.545C738.02 203.84 737.92 203.227 737.721 202.706C737.527 202.185 737.238 201.78 736.855 201.491C736.476 201.203 736.01 201.058 735.456 201.058C734.883 201.058 734.405 201.207 734.021 201.506C733.638 201.804 733.349 202.216 733.155 202.741C732.961 203.267 732.863 203.868 732.863 204.545C732.863 205.227 732.961 205.836 733.155 206.371C733.354 206.901 733.645 207.32 734.028 207.628C734.416 207.931 734.892 208.082 735.456 208.082ZM746.427 210.22C745.736 210.22 745.113 210.097 744.559 209.851C744.01 209.6 743.574 209.231 743.252 208.743C742.935 208.255 742.776 207.654 742.776 206.939C742.776 206.323 742.89 205.814 743.117 205.412C743.345 205.009 743.655 204.688 744.048 204.446C744.441 204.205 744.883 204.022 745.376 203.899C745.873 203.771 746.387 203.679 746.917 203.622C747.556 203.556 748.075 203.497 748.472 203.445C748.87 203.388 749.159 203.303 749.339 203.189C749.524 203.071 749.616 202.888 749.616 202.642V202.599C749.616 202.064 749.457 201.65 749.14 201.357C748.823 201.063 748.366 200.916 747.769 200.916C747.14 200.916 746.64 201.054 746.271 201.328C745.906 201.603 745.66 201.927 745.532 202.301L743.132 201.96C743.321 201.297 743.633 200.743 744.069 200.298C744.505 199.848 745.037 199.512 745.667 199.29C746.297 199.062 746.993 198.949 747.755 198.949C748.281 198.949 748.804 199.01 749.325 199.134C749.846 199.257 750.321 199.46 750.752 199.744C751.183 200.024 751.529 200.405 751.789 200.888C752.054 201.371 752.187 201.974 752.187 202.699V210H749.715V208.501H749.63C749.474 208.804 749.254 209.089 748.97 209.354C748.69 209.614 748.338 209.825 747.911 209.986C747.49 210.142 746.995 210.22 746.427 210.22ZM747.095 208.331C747.611 208.331 748.058 208.229 748.437 208.026C748.816 207.817 749.107 207.543 749.311 207.202C749.519 206.861 749.623 206.489 749.623 206.087V204.801C749.543 204.867 749.405 204.929 749.211 204.986C749.022 205.043 748.809 205.092 748.572 205.135C748.335 205.178 748.101 205.215 747.869 205.249C747.637 205.282 747.436 205.31 747.265 205.334C746.882 205.386 746.538 205.471 746.235 205.589C745.932 205.708 745.693 205.874 745.518 206.087C745.343 206.295 745.255 206.565 745.255 206.896C745.255 207.37 745.428 207.727 745.774 207.969C746.119 208.21 746.56 208.331 747.095 208.331ZM754.772 214.091V199.091H757.301V200.895H757.45C757.582 200.63 757.769 200.348 758.011 200.05C758.252 199.747 758.579 199.489 758.991 199.276C759.403 199.058 759.928 198.949 760.568 198.949C761.41 198.949 762.17 199.164 762.847 199.595C763.529 200.021 764.069 200.653 764.467 201.491C764.869 202.325 765.07 203.348 765.07 204.56C765.07 205.758 764.874 206.776 764.481 207.614C764.088 208.452 763.553 209.091 762.876 209.531C762.199 209.972 761.432 210.192 760.575 210.192C759.95 210.192 759.431 210.088 759.019 209.879C758.607 209.671 758.276 209.42 758.025 209.126C757.779 208.828 757.587 208.546 757.45 208.281H757.343V214.091H754.772ZM757.294 204.545C757.294 205.251 757.393 205.869 757.592 206.399C757.795 206.929 758.087 207.344 758.465 207.642C758.849 207.936 759.313 208.082 759.857 208.082C760.426 208.082 760.901 207.931 761.285 207.628C761.669 207.32 761.957 206.901 762.151 206.371C762.35 205.836 762.45 205.227 762.45 204.545C762.45 203.868 762.353 203.267 762.159 202.741C761.964 202.216 761.676 201.804 761.292 201.506C760.909 201.207 760.43 201.058 759.857 201.058C759.308 201.058 758.842 201.203 758.458 201.491C758.075 201.78 757.784 202.185 757.585 202.706C757.391 203.227 757.294 203.84 757.294 204.545ZM772.72 199.091V201.08H766.448V199.091H772.72ZM767.997 196.477H770.568V206.719C770.568 207.064 770.62 207.33 770.724 207.514C770.833 207.694 770.975 207.817 771.15 207.884C771.325 207.95 771.519 207.983 771.732 207.983C771.893 207.983 772.04 207.971 772.173 207.947C772.31 207.924 772.414 207.902 772.485 207.884L772.919 209.893C772.781 209.941 772.585 209.993 772.329 210.05C772.078 210.107 771.77 210.14 771.406 210.149C770.762 210.168 770.182 210.071 769.666 209.858C769.15 209.64 768.74 209.304 768.437 208.849C768.139 208.395 767.992 207.827 767.997 207.145V196.477ZM774.87 210V199.091H777.441V210H774.87ZM776.162 197.543C775.755 197.543 775.405 197.408 775.111 197.138C774.818 196.863 774.671 196.534 774.671 196.151C774.671 195.762 774.818 195.433 775.111 195.163C775.405 194.889 775.755 194.751 776.162 194.751C776.574 194.751 776.925 194.889 777.214 195.163C777.507 195.433 777.654 195.762 777.654 196.151C777.654 196.534 777.507 196.863 777.214 197.138C776.925 197.408 776.574 197.543 776.162 197.543ZM789.829 199.091L785.944 210H783.103L779.218 199.091H781.96L784.467 207.195H784.58L787.095 199.091H789.829ZM796.067 210.213C794.973 210.213 794.028 209.986 793.233 209.531C792.442 209.072 791.834 208.423 791.407 207.585C790.981 206.742 790.768 205.75 790.768 204.609C790.768 203.487 790.981 202.502 791.407 201.655C791.838 200.803 792.44 200.14 793.211 199.666C793.983 199.188 794.89 198.949 795.932 198.949C796.604 198.949 797.238 199.058 797.835 199.276C798.436 199.489 798.967 199.82 799.426 200.27C799.89 200.72 800.255 201.293 800.52 201.989C800.785 202.68 800.917 203.504 800.917 204.46V205.249H791.976V203.516H798.453C798.448 203.023 798.342 202.585 798.133 202.202C797.925 201.813 797.634 201.508 797.26 201.286C796.89 201.063 796.46 200.952 795.967 200.952C795.442 200.952 794.98 201.08 794.582 201.335C794.184 201.586 793.874 201.918 793.652 202.33C793.434 202.737 793.323 203.184 793.318 203.672V205.185C793.318 205.819 793.434 206.364 793.666 206.818C793.898 207.268 794.222 207.614 794.639 207.855C795.056 208.092 795.543 208.21 796.102 208.21C796.476 208.21 796.815 208.158 797.118 208.054C797.421 207.945 797.684 207.786 797.906 207.578C798.129 207.37 798.297 207.112 798.41 206.804L800.811 207.074C800.659 207.708 800.371 208.262 799.944 208.736C799.523 209.205 798.983 209.569 798.325 209.83C797.667 210.085 796.914 210.213 796.067 210.213ZM693.919 219.455H697.143L701.462 229.994H701.632L705.95 219.455H709.175V234H706.646V224.007H706.511L702.491 233.957H700.602L696.582 223.986H696.447V234H693.919V219.455ZM716.689 234.213C715.624 234.213 714.7 233.979 713.919 233.51C713.138 233.041 712.532 232.385 712.101 231.543C711.675 230.7 711.462 229.715 711.462 228.588C711.462 227.461 711.675 226.474 712.101 225.626C712.532 224.779 713.138 224.121 713.919 223.652C714.7 223.183 715.624 222.949 716.689 222.949C717.754 222.949 718.678 223.183 719.459 223.652C720.24 224.121 720.844 224.779 721.27 225.626C721.701 226.474 721.916 227.461 721.916 228.588C721.916 229.715 721.701 230.7 721.27 231.543C720.844 232.385 720.24 233.041 719.459 233.51C718.678 233.979 717.754 234.213 716.689 234.213ZM716.703 232.153C717.281 232.153 717.764 231.995 718.152 231.678C718.54 231.356 718.829 230.925 719.018 230.385C719.213 229.845 719.31 229.244 719.31 228.581C719.31 227.913 719.213 227.31 719.018 226.77C718.829 226.225 718.54 225.792 718.152 225.47C717.764 225.148 717.281 224.987 716.703 224.987C716.111 224.987 715.619 225.148 715.226 225.47C714.838 225.792 714.546 226.225 714.352 226.77C714.163 227.31 714.068 227.913 714.068 228.581C714.068 229.244 714.163 229.845 714.352 230.385C714.546 230.925 714.838 231.356 715.226 231.678C715.619 231.995 716.111 232.153 716.703 232.153ZM728.147 234.192C727.29 234.192 726.523 233.972 725.846 233.531C725.168 233.091 724.633 232.452 724.24 231.614C723.847 230.776 723.651 229.758 723.651 228.56C723.651 227.348 723.85 226.325 724.248 225.491C724.65 224.653 725.192 224.021 725.874 223.595C726.556 223.164 727.316 222.949 728.154 222.949C728.793 222.949 729.319 223.058 729.73 223.276C730.142 223.489 730.469 223.747 730.711 224.05C730.952 224.348 731.139 224.63 731.272 224.895H731.378V219.455H733.956V234H731.428V232.281H731.272C731.139 232.546 730.947 232.828 730.696 233.126C730.445 233.42 730.114 233.671 729.702 233.879C729.29 234.088 728.772 234.192 728.147 234.192ZM728.864 232.082C729.408 232.082 729.873 231.936 730.256 231.642C730.64 231.344 730.931 230.929 731.13 230.399C731.328 229.869 731.428 229.251 731.428 228.545C731.428 227.84 731.328 227.227 731.13 226.706C730.935 226.185 730.647 225.78 730.263 225.491C729.884 225.203 729.418 225.058 728.864 225.058C728.291 225.058 727.813 225.207 727.429 225.506C727.046 225.804 726.757 226.216 726.563 226.741C726.369 227.267 726.272 227.868 726.272 228.545C726.272 229.227 726.369 229.836 726.563 230.371C726.762 230.901 727.053 231.32 727.436 231.628C727.825 231.931 728.301 232.082 728.864 232.082ZM736.696 234V223.091H739.267V234H736.696ZM737.989 221.543C737.581 221.543 737.231 221.408 736.938 221.138C736.644 220.863 736.497 220.534 736.497 220.151C736.497 219.762 736.644 219.433 736.938 219.163C737.231 218.889 737.581 218.751 737.989 218.751C738.401 218.751 738.751 218.889 739.04 219.163C739.333 219.433 739.48 219.762 739.48 220.151C739.48 220.534 739.333 220.863 739.04 221.138C738.751 221.408 738.401 221.543 737.989 221.543ZM747.436 223.091V225.08H740.988V223.091H747.436ZM742.6 234V222.061C742.6 221.327 742.751 220.716 743.054 220.229C743.362 219.741 743.774 219.376 744.29 219.135C744.806 218.893 745.379 218.773 746.009 218.773C746.454 218.773 746.849 218.808 747.195 218.879C747.541 218.95 747.796 219.014 747.962 219.071L747.451 221.06C747.342 221.027 747.204 220.993 747.039 220.96C746.873 220.922 746.688 220.903 746.485 220.903C746.007 220.903 745.668 221.019 745.469 221.251C745.275 221.479 745.178 221.805 745.178 222.232V234H742.6ZM749.45 234V223.091H752.021V234H749.45ZM750.743 221.543C750.335 221.543 749.985 221.408 749.691 221.138C749.398 220.863 749.251 220.534 749.251 220.151C749.251 219.762 749.398 219.433 749.691 219.163C749.985 218.889 750.335 218.751 750.743 218.751C751.154 218.751 751.505 218.889 751.794 219.163C752.087 219.433 752.234 219.762 752.234 220.151C752.234 220.534 752.087 220.863 751.794 221.138C751.505 221.408 751.154 221.543 750.743 221.543ZM759.423 234.213C758.334 234.213 757.399 233.974 756.618 233.496C755.841 233.018 755.242 232.357 754.821 231.514C754.404 230.667 754.196 229.691 754.196 228.588C754.196 227.48 754.409 226.502 754.835 225.655C755.261 224.803 755.863 224.14 756.639 223.666C757.42 223.188 758.344 222.949 759.409 222.949C760.295 222.949 761.078 223.112 761.76 223.439C762.446 223.761 762.993 224.218 763.401 224.81C763.808 225.397 764.04 226.083 764.097 226.869H761.639C761.54 226.344 761.303 225.906 760.929 225.555C760.56 225.2 760.065 225.023 759.445 225.023C758.919 225.023 758.457 225.165 758.06 225.449C757.662 225.728 757.352 226.131 757.129 226.656C756.911 227.182 756.803 227.812 756.803 228.545C756.803 229.289 756.911 229.928 757.129 230.463C757.347 230.993 757.652 231.403 758.045 231.692C758.443 231.976 758.91 232.118 759.445 232.118C759.823 232.118 760.162 232.047 760.46 231.905C760.763 231.758 761.017 231.547 761.22 231.273C761.424 230.998 761.563 230.664 761.639 230.271H764.097C764.035 231.043 763.808 231.727 763.415 232.324C763.022 232.916 762.487 233.38 761.81 233.716C761.133 234.047 760.337 234.213 759.423 234.213ZM769.347 234.22C768.656 234.22 768.033 234.097 767.479 233.851C766.93 233.6 766.494 233.231 766.172 232.743C765.855 232.255 765.696 231.654 765.696 230.939C765.696 230.323 765.81 229.814 766.037 229.412C766.265 229.009 766.575 228.688 766.968 228.446C767.361 228.205 767.803 228.022 768.296 227.899C768.793 227.771 769.307 227.679 769.837 227.622C770.476 227.556 770.995 227.497 771.392 227.445C771.79 227.388 772.079 227.303 772.259 227.189C772.444 227.071 772.536 226.888 772.536 226.642V226.599C772.536 226.064 772.377 225.65 772.06 225.357C771.743 225.063 771.286 224.916 770.689 224.916C770.06 224.916 769.56 225.054 769.191 225.328C768.826 225.603 768.58 225.927 768.452 226.301L766.051 225.96C766.241 225.297 766.553 224.743 766.989 224.298C767.425 223.848 767.957 223.512 768.587 223.29C769.217 223.062 769.913 222.949 770.675 222.949C771.201 222.949 771.724 223.01 772.245 223.134C772.766 223.257 773.241 223.46 773.672 223.744C774.103 224.024 774.449 224.405 774.709 224.888C774.974 225.371 775.107 225.974 775.107 226.699V234H772.635V232.501H772.55C772.394 232.804 772.174 233.089 771.89 233.354C771.61 233.614 771.257 233.825 770.831 233.986C770.41 234.142 769.915 234.22 769.347 234.22ZM770.015 232.331C770.531 232.331 770.978 232.229 771.357 232.026C771.736 231.817 772.027 231.543 772.23 231.202C772.439 230.861 772.543 230.489 772.543 230.087V228.801C772.462 228.867 772.325 228.929 772.131 228.986C771.942 229.043 771.729 229.092 771.492 229.135C771.255 229.178 771.021 229.215 770.789 229.249C770.557 229.282 770.355 229.31 770.185 229.334C769.801 229.386 769.458 229.471 769.155 229.589C768.852 229.708 768.613 229.874 768.438 230.087C768.263 230.295 768.175 230.565 768.175 230.896C768.175 231.37 768.348 231.727 768.694 231.969C769.039 232.21 769.48 232.331 770.015 232.331ZM783.14 223.091V225.08H776.868V223.091H783.14ZM778.417 220.477H780.988V230.719C780.988 231.064 781.04 231.33 781.144 231.514C781.253 231.694 781.395 231.817 781.57 231.884C781.745 231.95 781.939 231.983 782.152 231.983C782.313 231.983 782.46 231.971 782.593 231.947C782.73 231.924 782.834 231.902 782.905 231.884L783.338 233.893C783.201 233.941 783.005 233.993 782.749 234.05C782.498 234.107 782.19 234.14 781.826 234.149C781.182 234.168 780.602 234.071 780.086 233.858C779.569 233.64 779.16 233.304 778.857 232.849C778.559 232.395 778.412 231.827 778.417 231.145V220.477ZM785.29 234V223.091H787.861V234H785.29ZM786.582 221.543C786.175 221.543 785.825 221.408 785.531 221.138C785.238 220.863 785.091 220.534 785.091 220.151C785.091 219.762 785.238 219.433 785.531 219.163C785.825 218.889 786.175 218.751 786.582 218.751C786.994 218.751 787.345 218.889 787.634 219.163C787.927 219.433 788.074 219.762 788.074 220.151C788.074 220.534 787.927 220.863 787.634 221.138C787.345 221.408 786.994 221.543 786.582 221.543ZM795.263 234.213C794.198 234.213 793.275 233.979 792.493 233.51C791.712 233.041 791.106 232.385 790.675 231.543C790.249 230.7 790.036 229.715 790.036 228.588C790.036 227.461 790.249 226.474 790.675 225.626C791.106 224.779 791.712 224.121 792.493 223.652C793.275 223.183 794.198 222.949 795.263 222.949C796.328 222.949 797.252 223.183 798.033 223.652C798.814 224.121 799.418 224.779 799.844 225.626C800.275 226.474 800.49 227.461 800.49 228.588C800.49 229.715 800.275 230.7 799.844 231.543C799.418 232.385 798.814 233.041 798.033 233.51C797.252 233.979 796.328 234.213 795.263 234.213ZM795.277 232.153C795.855 232.153 796.338 231.995 796.726 231.678C797.114 231.356 797.403 230.925 797.593 230.385C797.787 229.845 797.884 229.244 797.884 228.581C797.884 227.913 797.787 227.31 797.593 226.77C797.403 226.225 797.114 225.792 796.726 225.47C796.338 225.148 795.855 224.987 795.277 224.987C794.685 224.987 794.193 225.148 793.8 225.47C793.412 225.792 793.121 226.225 792.926 226.77C792.737 227.31 792.642 227.913 792.642 228.581C792.642 229.244 792.737 229.845 792.926 230.385C793.121 230.925 793.412 231.356 793.8 231.678C794.193 231.995 794.685 232.153 795.277 232.153ZM805.244 227.608V234H802.673V223.091H805.13V224.945H805.258C805.509 224.334 805.909 223.848 806.458 223.489C807.012 223.129 807.696 222.949 808.511 222.949C809.263 222.949 809.919 223.11 810.478 223.432C811.041 223.754 811.477 224.22 811.785 224.831C812.097 225.442 812.251 226.183 812.246 227.054V234H809.675V227.452C809.675 226.723 809.486 226.152 809.107 225.74C808.733 225.328 808.215 225.122 807.552 225.122C807.102 225.122 806.702 225.222 806.352 225.42C806.006 225.615 805.734 225.896 805.535 226.266C805.341 226.635 805.244 227.082 805.244 227.608ZM823.482 225.974L821.138 226.23C821.072 225.993 820.956 225.771 820.79 225.562C820.629 225.354 820.412 225.186 820.137 225.058C819.862 224.93 819.526 224.866 819.129 224.866C818.594 224.866 818.144 224.982 817.779 225.214C817.419 225.446 817.242 225.747 817.246 226.116C817.242 226.434 817.358 226.692 817.594 226.891C817.836 227.089 818.234 227.253 818.788 227.381L820.648 227.778C821.681 228.001 822.448 228.354 822.95 228.837C823.456 229.32 823.712 229.952 823.717 230.733C823.712 231.42 823.511 232.026 823.113 232.551C822.72 233.072 822.173 233.479 821.472 233.773C820.772 234.066 819.967 234.213 819.058 234.213C817.722 234.213 816.647 233.934 815.833 233.375C815.019 232.812 814.533 232.028 814.377 231.024L816.884 230.783C816.998 231.275 817.239 231.647 817.609 231.898C817.978 232.149 818.459 232.274 819.05 232.274C819.661 232.274 820.151 232.149 820.521 231.898C820.895 231.647 821.082 231.337 821.082 230.967C821.082 230.655 820.961 230.397 820.719 230.193C820.483 229.99 820.113 229.833 819.612 229.724L817.751 229.334C816.704 229.116 815.93 228.749 815.428 228.233C814.926 227.712 814.678 227.054 814.683 226.259C814.678 225.586 814.86 225.004 815.229 224.511C815.603 224.014 816.122 223.631 816.785 223.361C817.452 223.086 818.222 222.949 819.093 222.949C820.371 222.949 821.378 223.221 822.112 223.766C822.85 224.31 823.307 225.046 823.482 225.974Z" fill="white"/>
<path d="M937.341 210V195.455H942.795C943.913 195.455 944.85 195.663 945.608 196.08C946.37 196.496 946.946 197.069 947.334 197.798C947.727 198.523 947.923 199.347 947.923 200.27C947.923 201.203 947.727 202.031 947.334 202.756C946.941 203.48 946.361 204.051 945.594 204.467C944.827 204.879 943.882 205.085 942.76 205.085H939.145V202.919H942.405C943.058 202.919 943.593 202.805 944.01 202.578C944.427 202.351 944.734 202.038 944.933 201.641C945.137 201.243 945.239 200.786 945.239 200.27C945.239 199.754 945.137 199.299 944.933 198.906C944.734 198.513 944.424 198.208 944.003 197.99C943.586 197.768 943.049 197.656 942.391 197.656H939.976V210H937.341ZM950.098 210V199.091H952.591V200.909H952.705C952.904 200.279 953.245 199.794 953.728 199.453C954.215 199.107 954.772 198.935 955.397 198.935C955.539 198.935 955.697 198.942 955.873 198.956C956.052 198.965 956.202 198.982 956.32 199.006V201.371C956.211 201.333 956.038 201.3 955.801 201.271C955.569 201.238 955.345 201.222 955.127 201.222C954.658 201.222 954.237 201.323 953.863 201.527C953.493 201.726 953.202 202.003 952.989 202.358C952.776 202.713 952.669 203.123 952.669 203.587V210H950.098ZM962.337 210.213C961.272 210.213 960.349 209.979 959.567 209.51C958.786 209.041 958.18 208.385 957.749 207.543C957.323 206.7 957.11 205.715 957.11 204.588C957.11 203.461 957.323 202.474 957.749 201.626C958.18 200.779 958.786 200.121 959.567 199.652C960.349 199.183 961.272 198.949 962.337 198.949C963.403 198.949 964.326 199.183 965.107 199.652C965.888 200.121 966.492 200.779 966.918 201.626C967.349 202.474 967.565 203.461 967.565 204.588C967.565 205.715 967.349 206.7 966.918 207.543C966.492 208.385 965.888 209.041 965.107 209.51C964.326 209.979 963.403 210.213 962.337 210.213ZM962.352 208.153C962.929 208.153 963.412 207.995 963.8 207.678C964.189 207.356 964.478 206.925 964.667 206.385C964.861 205.845 964.958 205.244 964.958 204.581C964.958 203.913 964.861 203.31 964.667 202.77C964.478 202.225 964.189 201.792 963.8 201.47C963.412 201.148 962.929 200.987 962.352 200.987C961.76 200.987 961.267 201.148 960.874 201.47C960.486 201.792 960.195 202.225 960.001 202.77C959.811 203.31 959.717 203.913 959.717 204.581C959.717 205.244 959.811 205.845 960.001 206.385C960.195 206.925 960.486 207.356 960.874 207.678C961.267 207.995 961.76 208.153 962.352 208.153ZM974.491 214.318C973.568 214.318 972.775 214.193 972.112 213.942C971.449 213.696 970.916 213.364 970.514 212.947C970.111 212.531 969.832 212.069 969.676 211.562L971.991 211.001C972.095 211.214 972.247 211.425 972.446 211.634C972.645 211.847 972.912 212.022 973.248 212.159C973.589 212.301 974.018 212.372 974.534 212.372C975.263 212.372 975.867 212.195 976.345 211.839C976.823 211.489 977.062 210.911 977.062 210.107V208.04H976.934C976.802 208.305 976.608 208.577 976.352 208.857C976.101 209.136 975.767 209.37 975.35 209.56C974.939 209.749 974.42 209.844 973.795 209.844C972.957 209.844 972.197 209.647 971.515 209.254C970.838 208.857 970.298 208.265 969.896 207.479C969.498 206.688 969.299 205.698 969.299 204.51C969.299 203.312 969.498 202.301 969.896 201.477C970.298 200.649 970.841 200.021 971.522 199.595C972.204 199.164 972.964 198.949 973.802 198.949C974.441 198.949 974.967 199.058 975.379 199.276C975.796 199.489 976.127 199.747 976.373 200.05C976.619 200.348 976.806 200.63 976.934 200.895H977.076V199.091H979.612V210.178C979.612 211.11 979.389 211.882 978.944 212.493C978.499 213.104 977.891 213.561 977.119 213.864C976.347 214.167 975.471 214.318 974.491 214.318ZM974.512 207.827C975.057 207.827 975.521 207.694 975.904 207.429C976.288 207.164 976.579 206.783 976.778 206.286C976.977 205.788 977.076 205.192 977.076 204.496C977.076 203.809 976.977 203.208 976.778 202.692C976.584 202.176 976.295 201.776 975.912 201.491C975.533 201.203 975.066 201.058 974.512 201.058C973.94 201.058 973.461 201.207 973.078 201.506C972.694 201.804 972.405 202.214 972.211 202.734C972.017 203.25 971.92 203.838 971.92 204.496C971.92 205.163 972.017 205.748 972.211 206.25C972.41 206.747 972.701 207.135 973.085 207.415C973.473 207.689 973.949 207.827 974.512 207.827ZM982.247 210V199.091H984.74V200.909H984.853C985.052 200.279 985.393 199.794 985.876 199.453C986.364 199.107 986.92 198.935 987.545 198.935C987.687 198.935 987.846 198.942 988.021 198.956C988.201 198.965 988.35 198.982 988.468 199.006V201.371C988.359 201.333 988.187 201.3 987.95 201.271C987.718 201.238 987.493 201.222 987.275 201.222C986.806 201.222 986.385 201.323 986.011 201.527C985.642 201.726 985.35 202.003 985.137 202.358C984.924 202.713 984.818 203.123 984.818 203.587V210H982.247ZM993.12 210.22C992.429 210.22 991.806 210.097 991.252 209.851C990.703 209.6 990.268 209.231 989.946 208.743C989.628 208.255 989.47 207.654 989.47 206.939C989.47 206.323 989.583 205.814 989.811 205.412C990.038 205.009 990.348 204.688 990.741 204.446C991.134 204.205 991.577 204.022 992.069 203.899C992.566 203.771 993.08 203.679 993.61 203.622C994.25 203.556 994.768 203.497 995.166 203.445C995.564 203.388 995.852 203.303 996.032 203.189C996.217 203.071 996.309 202.888 996.309 202.642V202.599C996.309 202.064 996.151 201.65 995.833 201.357C995.516 201.063 995.059 200.916 994.463 200.916C993.833 200.916 993.333 201.054 992.964 201.328C992.6 201.603 992.353 201.927 992.225 202.301L989.825 201.96C990.014 201.297 990.327 200.743 990.762 200.298C991.198 199.848 991.731 199.512 992.36 199.29C992.99 199.062 993.686 198.949 994.449 198.949C994.974 198.949 995.497 199.01 996.018 199.134C996.539 199.257 997.015 199.46 997.446 199.744C997.877 200.024 998.222 200.405 998.483 200.888C998.748 201.371 998.88 201.974 998.88 202.699V210H996.409V208.501H996.324C996.167 208.804 995.947 209.089 995.663 209.354C995.384 209.614 995.031 209.825 994.605 209.986C994.183 210.142 993.689 210.22 993.12 210.22ZM993.788 208.331C994.304 208.331 994.752 208.229 995.13 208.026C995.509 207.817 995.8 207.543 996.004 207.202C996.212 206.861 996.316 206.489 996.316 206.087V204.801C996.236 204.867 996.099 204.929 995.904 204.986C995.715 205.043 995.502 205.092 995.265 205.135C995.029 205.178 994.794 205.215 994.562 205.249C994.33 205.282 994.129 205.31 993.958 205.334C993.575 205.386 993.232 205.471 992.929 205.589C992.626 205.708 992.386 205.874 992.211 206.087C992.036 206.295 991.949 206.565 991.949 206.896C991.949 207.37 992.121 207.727 992.467 207.969C992.813 208.21 993.253 208.331 993.788 208.331ZM1001.47 210V199.091H1003.92V200.945H1004.05C1004.28 200.32 1004.65 199.832 1005.18 199.482C1005.71 199.126 1006.33 198.949 1007.06 198.949C1007.8 198.949 1008.42 199.129 1008.93 199.489C1009.44 199.844 1009.8 200.329 1010.01 200.945H1010.12C1010.36 200.339 1010.77 199.856 1011.34 199.496C1011.92 199.131 1012.61 198.949 1013.4 198.949C1014.4 198.949 1015.22 199.266 1015.85 199.901C1016.49 200.535 1016.81 201.461 1016.81 202.678V210H1014.23V203.075C1014.23 202.398 1014.05 201.903 1013.69 201.591C1013.33 201.274 1012.89 201.115 1012.37 201.115C1011.75 201.115 1011.26 201.309 1010.91 201.697C1010.57 202.081 1010.39 202.58 1010.39 203.196V210H1007.87V202.969C1007.87 202.405 1007.7 201.955 1007.36 201.619C1007.02 201.283 1006.58 201.115 1006.04 201.115C1005.67 201.115 1005.33 201.21 1005.03 201.399C1004.73 201.584 1004.49 201.847 1004.31 202.188C1004.13 202.524 1004.04 202.917 1004.04 203.366V210H1001.47ZM915.612 219.455H918.246V228.957C918.246 229.999 918 230.915 917.508 231.706C917.02 232.497 916.334 233.115 915.448 233.56C914.563 234 913.528 234.22 912.344 234.22C911.156 234.22 910.119 234 909.234 233.56C908.348 233.115 907.662 232.497 907.174 231.706C906.686 230.915 906.442 229.999 906.442 228.957V219.455H909.077V228.737C909.077 229.343 909.21 229.883 909.475 230.357C909.745 230.83 910.124 231.202 910.612 231.472C911.099 231.737 911.677 231.869 912.344 231.869C913.012 231.869 913.59 231.737 914.077 231.472C914.57 231.202 914.949 230.83 915.214 230.357C915.479 229.883 915.612 229.343 915.612 228.737V219.455ZM923.568 227.608V234H920.997V223.091H923.454V224.945H923.582C923.833 224.334 924.233 223.848 924.782 223.489C925.336 223.129 926.02 222.949 926.835 222.949C927.588 222.949 928.243 223.11 928.802 223.432C929.366 223.754 929.801 224.22 930.109 224.831C930.422 225.442 930.575 226.183 930.571 227.054V234H928V227.452C928 226.723 927.81 226.152 927.431 225.74C927.057 225.328 926.539 225.122 925.876 225.122C925.426 225.122 925.026 225.222 924.676 225.42C924.33 225.615 924.058 225.896 923.859 226.266C923.665 226.635 923.568 227.082 923.568 227.608ZM937.233 234.192C936.376 234.192 935.609 233.972 934.931 233.531C934.254 233.091 933.719 232.452 933.326 231.614C932.933 230.776 932.737 229.758 932.737 228.56C932.737 227.348 932.936 226.325 933.333 225.491C933.736 224.653 934.278 224.021 934.96 223.595C935.642 223.164 936.402 222.949 937.24 222.949C937.879 222.949 938.404 223.058 938.816 223.276C939.228 223.489 939.555 223.747 939.797 224.05C940.038 224.348 940.225 224.63 940.358 224.895H940.464V219.455H943.042V234H940.514V232.281H940.358C940.225 232.546 940.033 232.828 939.782 233.126C939.531 233.42 939.2 233.671 938.788 233.879C938.376 234.088 937.858 234.192 937.233 234.192ZM937.95 232.082C938.494 232.082 938.958 231.936 939.342 231.642C939.725 231.344 940.017 230.929 940.216 230.399C940.414 229.869 940.514 229.251 940.514 228.545C940.514 227.84 940.414 227.227 940.216 226.706C940.021 226.185 939.733 225.78 939.349 225.491C938.97 225.203 938.504 225.058 937.95 225.058C937.377 225.058 936.899 225.207 936.515 225.506C936.132 225.804 935.843 226.216 935.649 226.741C935.455 227.267 935.358 227.868 935.358 228.545C935.358 229.227 935.455 229.836 935.649 230.371C935.848 230.901 936.139 231.32 936.522 231.628C936.911 231.931 937.386 232.082 937.95 232.082ZM950.612 234.213C949.518 234.213 948.573 233.986 947.778 233.531C946.987 233.072 946.379 232.423 945.952 231.585C945.526 230.742 945.313 229.75 945.313 228.609C945.313 227.487 945.526 226.502 945.952 225.655C946.383 224.803 946.985 224.14 947.756 223.666C948.528 223.188 949.435 222.949 950.477 222.949C951.149 222.949 951.783 223.058 952.38 223.276C952.981 223.489 953.512 223.82 953.971 224.27C954.435 224.72 954.799 225.293 955.065 225.989C955.33 226.68 955.462 227.504 955.462 228.46V229.249H946.521V227.516H952.998C952.993 227.023 952.887 226.585 952.678 226.202C952.47 225.813 952.179 225.508 951.805 225.286C951.435 225.063 951.004 224.952 950.512 224.952C949.987 224.952 949.525 225.08 949.127 225.335C948.729 225.586 948.419 225.918 948.197 226.33C947.979 226.737 947.868 227.184 947.863 227.672V229.185C947.863 229.819 947.979 230.364 948.211 230.818C948.443 231.268 948.767 231.614 949.184 231.855C949.601 232.092 950.088 232.21 950.647 232.21C951.021 232.21 951.36 232.158 951.663 232.054C951.966 231.945 952.228 231.786 952.451 231.578C952.674 231.37 952.842 231.112 952.955 230.804L955.356 231.074C955.204 231.708 954.915 232.262 954.489 232.736C954.068 233.205 953.528 233.569 952.87 233.83C952.212 234.085 951.459 234.213 950.612 234.213ZM957.637 234V223.091H960.13V224.909H960.244C960.443 224.279 960.784 223.794 961.267 223.453C961.754 223.107 962.311 222.935 962.936 222.935C963.078 222.935 963.236 222.942 963.412 222.956C963.592 222.965 963.741 222.982 963.859 223.006V225.371C963.75 225.333 963.577 225.3 963.341 225.271C963.109 225.238 962.884 225.222 962.666 225.222C962.197 225.222 961.776 225.323 961.402 225.527C961.032 225.726 960.741 226.003 960.528 226.358C960.315 226.713 960.208 227.123 960.208 227.587V234H957.637ZM974.189 225.974L971.846 226.23C971.779 225.993 971.663 225.771 971.498 225.562C971.337 225.354 971.119 225.186 970.844 225.058C970.569 224.93 970.233 224.866 969.836 224.866C969.301 224.866 968.851 224.982 968.486 225.214C968.126 225.446 967.949 225.747 967.953 226.116C967.949 226.434 968.065 226.692 968.301 226.891C968.543 227.089 968.941 227.253 969.495 227.381L971.355 227.778C972.388 228.001 973.155 228.354 973.657 228.837C974.163 229.32 974.419 229.952 974.424 230.733C974.419 231.42 974.218 232.026 973.82 232.551C973.427 233.072 972.88 233.479 972.179 233.773C971.479 234.066 970.674 234.213 969.765 234.213C968.429 234.213 967.355 233.934 966.54 233.375C965.726 232.812 965.24 232.028 965.084 231.024L967.591 230.783C967.705 231.275 967.946 231.647 968.316 231.898C968.685 232.149 969.166 232.274 969.757 232.274C970.368 232.274 970.858 232.149 971.228 231.898C971.602 231.647 971.789 231.337 971.789 230.967C971.789 230.655 971.668 230.397 971.426 230.193C971.19 229.99 970.82 229.833 970.319 229.724L968.458 229.334C967.411 229.116 966.637 228.749 966.135 228.233C965.633 227.712 965.385 227.054 965.39 226.259C965.385 225.586 965.567 225.004 965.936 224.511C966.31 224.014 966.829 223.631 967.492 223.361C968.159 223.086 968.929 222.949 969.8 222.949C971.078 222.949 972.085 223.221 972.819 223.766C973.557 224.31 974.014 225.046 974.189 225.974ZM981.991 223.091V225.08H975.72V223.091H981.991ZM977.268 220.477H979.839V230.719C979.839 231.064 979.891 231.33 979.995 231.514C980.104 231.694 980.246 231.817 980.422 231.884C980.597 231.95 980.791 231.983 981.004 231.983C981.165 231.983 981.312 231.971 981.444 231.947C981.582 231.924 981.686 231.902 981.757 231.884L982.19 233.893C982.053 233.941 981.856 233.993 981.6 234.05C981.35 234.107 981.042 234.14 980.677 234.149C980.033 234.168 979.453 234.071 978.937 233.858C978.421 233.64 978.011 233.304 977.708 232.849C977.41 232.395 977.263 231.827 977.268 231.145V220.477ZM987.281 234.22C986.589 234.22 985.967 234.097 985.413 233.851C984.863 233.6 984.428 233.231 984.106 232.743C983.789 232.255 983.63 231.654 983.63 230.939C983.63 230.323 983.744 229.814 983.971 229.412C984.198 229.009 984.508 228.688 984.901 228.446C985.294 228.205 985.737 228.022 986.229 227.899C986.727 227.771 987.24 227.679 987.771 227.622C988.41 227.556 988.928 227.497 989.326 227.445C989.724 227.388 990.013 227.303 990.192 227.189C990.377 227.071 990.469 226.888 990.469 226.642V226.599C990.469 226.064 990.311 225.65 989.994 225.357C989.676 225.063 989.219 224.916 988.623 224.916C987.993 224.916 987.494 225.054 987.124 225.328C986.76 225.603 986.513 225.927 986.386 226.301L983.985 225.96C984.174 225.297 984.487 224.743 984.923 224.298C985.358 223.848 985.891 223.512 986.521 223.29C987.15 223.062 987.846 222.949 988.609 222.949C989.134 222.949 989.657 223.01 990.178 223.134C990.699 223.257 991.175 223.46 991.606 223.744C992.037 224.024 992.382 224.405 992.643 224.888C992.908 225.371 993.04 225.974 993.04 226.699V234H990.569V232.501H990.484C990.327 232.804 990.107 233.089 989.823 233.354C989.544 233.614 989.191 233.825 988.765 233.986C988.344 234.142 987.849 234.22 987.281 234.22ZM987.948 232.331C988.464 232.331 988.912 232.229 989.29 232.026C989.669 231.817 989.96 231.543 990.164 231.202C990.372 230.861 990.477 230.489 990.477 230.087V228.801C990.396 228.867 990.259 228.929 990.065 228.986C989.875 229.043 989.662 229.092 989.425 229.135C989.189 229.178 988.954 229.215 988.722 229.249C988.49 229.282 988.289 229.31 988.119 229.334C987.735 229.386 987.392 229.471 987.089 229.589C986.786 229.708 986.547 229.874 986.371 230.087C986.196 230.295 986.109 230.565 986.109 230.896C986.109 231.37 986.281 231.727 986.627 231.969C986.973 232.21 987.413 232.331 987.948 232.331ZM998.197 227.608V234H995.626V223.091H998.083V224.945H998.211C998.462 224.334 998.862 223.848 999.411 223.489C999.965 223.129 1000.65 222.949 1001.46 222.949C1002.22 222.949 1002.87 223.11 1003.43 223.432C1003.99 223.754 1004.43 224.22 1004.74 224.831C1005.05 225.442 1005.2 226.183 1005.2 227.054V234H1002.63V227.452C1002.63 226.723 1002.44 226.152 1002.06 225.74C1001.69 225.328 1001.17 225.122 1000.5 225.122C1000.06 225.122 999.655 225.222 999.305 225.42C998.959 225.615 998.687 225.896 998.488 226.266C998.294 226.635 998.197 227.082 998.197 227.608ZM1011.86 234.192C1011 234.192 1010.24 233.972 1009.56 233.531C1008.88 233.091 1008.35 232.452 1007.96 231.614C1007.56 230.776 1007.37 229.758 1007.37 228.56C1007.37 227.348 1007.56 226.325 1007.96 225.491C1008.36 224.653 1008.91 224.021 1009.59 223.595C1010.27 223.164 1011.03 222.949 1011.87 222.949C1012.51 222.949 1013.03 223.058 1013.45 223.276C1013.86 223.489 1014.18 223.747 1014.43 224.05C1014.67 224.348 1014.85 224.63 1014.99 224.895H1015.09V219.455H1017.67V234H1015.14V232.281H1014.99C1014.85 232.546 1014.66 232.828 1014.41 233.126C1014.16 233.42 1013.83 233.671 1013.42 233.879C1013 234.088 1012.49 234.192 1011.86 234.192ZM1012.58 232.082C1013.12 232.082 1013.59 231.936 1013.97 231.642C1014.35 231.344 1014.65 230.929 1014.84 230.399C1015.04 229.869 1015.14 229.251 1015.14 228.545C1015.14 227.84 1015.04 227.227 1014.84 226.706C1014.65 226.185 1014.36 225.78 1013.98 225.491C1013.6 225.203 1013.13 225.058 1012.58 225.058C1012.01 225.058 1011.53 225.207 1011.14 225.506C1010.76 225.804 1010.47 226.216 1010.28 226.741C1010.08 227.267 1009.99 227.868 1009.99 228.545C1009.99 229.227 1010.08 229.836 1010.28 230.371C1010.48 230.901 1010.77 231.32 1011.15 231.628C1011.54 231.931 1012.02 232.082 1012.58 232.082ZM1020.41 234V223.091H1022.98V234H1020.41ZM1021.7 221.543C1021.3 221.543 1020.95 221.408 1020.65 221.138C1020.36 220.863 1020.21 220.534 1020.21 220.151C1020.21 219.762 1020.36 219.433 1020.65 219.163C1020.95 218.889 1021.3 218.751 1021.7 218.751C1022.12 218.751 1022.47 218.889 1022.75 219.163C1023.05 219.433 1023.19 219.762 1023.19 220.151C1023.19 220.534 1023.05 220.863 1022.75 221.138C1022.47 221.408 1022.12 221.543 1021.7 221.543ZM1028.2 227.608V234H1025.63V223.091H1028.08V224.945H1028.21C1028.46 224.334 1028.86 223.848 1029.41 223.489C1029.97 223.129 1030.65 222.949 1031.46 222.949C1032.22 222.949 1032.87 223.11 1033.43 223.432C1033.99 223.754 1034.43 224.22 1034.74 224.831C1035.05 225.442 1035.2 226.183 1035.2 227.054V234H1032.63V227.452C1032.63 226.723 1032.44 226.152 1032.06 225.74C1031.69 225.328 1031.17 225.122 1030.5 225.122C1030.06 225.122 1029.66 225.222 1029.3 225.42C1028.96 225.615 1028.69 225.896 1028.49 226.266C1028.29 226.635 1028.2 227.082 1028.2 227.608ZM1042.56 238.318C1041.63 238.318 1040.84 238.193 1040.18 237.942C1039.52 237.696 1038.98 237.364 1038.58 236.947C1038.18 236.531 1037.9 236.069 1037.74 235.562L1040.06 235.001C1040.16 235.214 1040.31 235.425 1040.51 235.634C1040.71 235.847 1040.98 236.022 1041.31 236.159C1041.66 236.301 1042.08 236.372 1042.6 236.372C1043.33 236.372 1043.93 236.195 1044.41 235.839C1044.89 235.489 1045.13 234.911 1045.13 234.107V232.04H1045C1044.87 232.305 1044.67 232.577 1044.42 232.857C1044.17 233.136 1043.83 233.37 1043.42 233.56C1043 233.749 1042.49 233.844 1041.86 233.844C1041.02 233.844 1040.26 233.647 1039.58 233.254C1038.9 232.857 1038.36 232.265 1037.96 231.479C1037.56 230.688 1037.37 229.698 1037.37 228.51C1037.37 227.312 1037.56 226.301 1037.96 225.477C1038.36 224.649 1038.91 224.021 1039.59 223.595C1040.27 223.164 1041.03 222.949 1041.87 222.949C1042.51 222.949 1043.03 223.058 1043.45 223.276C1043.86 223.489 1044.19 223.747 1044.44 224.05C1044.69 224.348 1044.87 224.63 1045 224.895H1045.14V223.091H1047.68V234.178C1047.68 235.11 1047.46 235.882 1047.01 236.493C1046.57 237.104 1045.96 237.561 1045.19 237.864C1044.41 238.167 1043.54 238.318 1042.56 238.318ZM1042.58 231.827C1043.12 231.827 1043.59 231.694 1043.97 231.429C1044.35 231.164 1044.65 230.783 1044.84 230.286C1045.04 229.788 1045.14 229.192 1045.14 228.496C1045.14 227.809 1045.04 227.208 1044.84 226.692C1044.65 226.176 1044.36 225.776 1043.98 225.491C1043.6 225.203 1043.13 225.058 1042.58 225.058C1042.01 225.058 1041.53 225.207 1041.14 225.506C1040.76 225.804 1040.47 226.214 1040.28 226.734C1040.08 227.25 1039.99 227.838 1039.99 228.496C1039.99 229.163 1040.08 229.748 1040.28 230.25C1040.48 230.747 1040.77 231.135 1041.15 231.415C1041.54 231.689 1042.02 231.827 1042.58 231.827Z" fill="white"/>
<path d="M309.046 85.3324C307.642 85.3324 306.438 84.9773 305.432 84.267C304.432 83.5511 303.662 82.5199 303.123 81.1733C302.588 79.821 302.321 78.1932 302.321 76.2898C302.327 74.3864 302.597 72.767 303.131 71.4318C303.671 70.0909 304.441 69.0682 305.441 68.3636C306.446 67.6591 307.648 67.3068 309.046 67.3068C310.444 67.3068 311.645 67.6591 312.651 68.3636C313.657 69.0682 314.426 70.0909 314.961 71.4318C315.5 72.7727 315.77 74.392 315.77 76.2898C315.77 78.1989 315.5 79.8295 314.961 81.1818C314.426 82.5284 313.657 83.5568 312.651 84.267C311.651 84.9773 310.449 85.3324 309.046 85.3324ZM309.046 82.6648C310.137 82.6648 310.998 82.1278 311.628 81.054C312.265 79.9744 312.583 78.3864 312.583 76.2898C312.583 74.9034 312.438 73.7386 312.148 72.7955C311.858 71.8523 311.449 71.142 310.921 70.6648C310.392 70.1818 309.767 69.9403 309.046 69.9403C307.961 69.9403 307.103 70.4801 306.472 71.5597C305.841 72.6335 305.523 74.2102 305.517 76.2898C305.512 77.6818 305.651 78.8523 305.935 79.8011C306.225 80.75 306.634 81.4659 307.162 81.9489C307.691 82.4261 308.319 82.6648 309.046 82.6648ZM318.602 85V82.7159L324.662 76.7756C325.241 76.1903 325.724 75.6705 326.11 75.2159C326.497 74.7614 326.787 74.321 326.98 73.8949C327.173 73.4687 327.27 73.0142 327.27 72.5312C327.27 71.9801 327.145 71.5085 326.895 71.1165C326.645 70.7188 326.301 70.4119 325.863 70.196C325.426 69.9801 324.929 69.8722 324.372 69.8722C323.798 69.8722 323.295 69.9915 322.863 70.2301C322.431 70.4631 322.096 70.7955 321.858 71.2273C321.625 71.6591 321.508 72.1733 321.508 72.7699H318.5C318.5 71.6619 318.752 70.6989 319.258 69.8807C319.764 69.0625 320.46 68.429 321.346 67.9801C322.238 67.5312 323.261 67.3068 324.414 67.3068C325.585 67.3068 326.613 67.5256 327.5 67.9631C328.386 68.4006 329.074 69 329.562 69.7614C330.056 70.5227 330.304 71.392 330.304 72.3693C330.304 73.0227 330.179 73.6648 329.929 74.2955C329.679 74.9261 329.238 75.625 328.608 76.392C327.983 77.1591 327.105 78.0881 325.974 79.179L322.966 82.2386V82.358H330.568V85H318.602Z" fill="white"/>
<path d="M528.183 85.3324C526.779 85.3324 525.575 84.9773 524.569 84.267C523.569 83.5511 522.799 82.5199 522.259 81.1733C521.725 79.821 521.458 78.1932 521.458 76.2898C521.464 74.3864 521.734 72.767 522.268 71.4318C522.808 70.0909 523.577 69.0682 524.577 68.3636C525.583 67.6591 526.785 67.3068 528.183 67.3068C529.58 67.3068 530.782 67.6591 531.788 68.3636C532.793 69.0682 533.563 70.0909 534.097 71.4318C534.637 72.7727 534.907 74.392 534.907 76.2898C534.907 78.1989 534.637 79.8295 534.097 81.1818C533.563 82.5284 532.793 83.5568 531.788 84.267C530.788 84.9773 529.586 85.3324 528.183 85.3324ZM528.183 82.6648C529.273 82.6648 530.134 82.1278 530.765 81.054C531.401 79.9744 531.719 78.3864 531.719 76.2898C531.719 74.9034 531.575 73.7386 531.285 72.7955C530.995 71.8523 530.586 71.142 530.058 70.6648C529.529 70.1818 528.904 69.9403 528.183 69.9403C527.097 69.9403 526.239 70.4801 525.609 71.5597C524.978 72.6335 524.66 74.2102 524.654 76.2898C524.648 77.6818 524.788 78.8523 525.072 79.8011C525.362 80.75 525.771 81.4659 526.299 81.9489C526.827 82.4261 527.455 82.6648 528.183 82.6648ZM544.003 85.2386C542.776 85.2386 541.685 85.0284 540.73 84.608C539.781 84.1875 539.031 83.6023 538.48 82.8523C537.929 82.1023 537.636 81.2358 537.602 80.2528H540.807C540.835 80.7244 540.991 81.1364 541.276 81.4886C541.56 81.8352 541.938 82.1051 542.409 82.2983C542.881 82.4915 543.409 82.5881 543.994 82.5881C544.619 82.5881 545.173 82.4801 545.656 82.2642C546.139 82.0426 546.517 81.7358 546.79 81.3438C547.063 80.9517 547.196 80.5 547.19 79.9886C547.196 79.4602 547.06 78.9943 546.781 78.5909C546.503 78.1875 546.099 77.8722 545.571 77.6449C545.048 77.4176 544.418 77.304 543.679 77.304H542.136V74.8665H543.679C544.287 74.8665 544.818 74.7614 545.273 74.5511C545.733 74.3409 546.094 74.0455 546.355 73.6648C546.616 73.2784 546.744 72.8324 546.739 72.3267C546.744 71.8324 546.634 71.4034 546.406 71.0398C546.185 70.6705 545.869 70.3835 545.46 70.179C545.057 69.9744 544.582 69.8722 544.037 69.8722C543.503 69.8722 543.009 69.9687 542.554 70.1619C542.099 70.3551 541.733 70.6307 541.455 70.9886C541.176 71.3409 541.028 71.7614 541.011 72.25H537.969C537.991 71.2727 538.273 70.4148 538.812 69.6761C539.358 68.9318 540.085 68.3523 540.994 67.9375C541.903 67.517 542.923 67.3068 544.054 67.3068C545.219 67.3068 546.23 67.5256 547.088 67.9631C547.952 68.3949 548.619 68.9773 549.091 69.7102C549.563 70.4432 549.798 71.2528 549.798 72.1392C549.804 73.1222 549.514 73.946 548.929 74.6108C548.349 75.2756 547.588 75.7102 546.645 75.9148V76.0511C547.872 76.2216 548.813 76.6761 549.466 77.4148C550.125 78.1477 550.452 79.0597 550.446 80.1506C550.446 81.1278 550.168 82.0028 549.611 82.7756C549.06 83.5426 548.298 84.1449 547.327 84.5824C546.361 85.0199 545.253 85.2386 544.003 85.2386Z" fill="white"/>
<path d="M749.007 85.3324C747.603 85.3324 746.399 84.9773 745.393 84.267C744.393 83.5511 743.623 82.5199 743.083 81.1733C742.549 79.821 742.282 78.1932 742.282 76.2898C742.288 74.3864 742.558 72.767 743.092 71.4318C743.632 70.0909 744.402 69.0682 745.402 68.3636C746.407 67.6591 747.609 67.3068 749.007 67.3068C750.404 67.3068 751.606 67.6591 752.612 68.3636C753.618 69.0682 754.387 70.0909 754.922 71.4318C755.461 72.7727 755.731 74.392 755.731 76.2898C755.731 78.1989 755.461 79.8295 754.922 81.1818C754.387 82.5284 753.618 83.5568 752.612 84.267C751.612 84.9773 750.41 85.3324 749.007 85.3324ZM749.007 82.6648C750.098 82.6648 750.958 82.1278 751.589 81.054C752.225 79.9744 752.544 78.3864 752.544 76.2898C752.544 74.9034 752.399 73.7386 752.109 72.7955C751.819 71.8523 751.41 71.142 750.882 70.6648C750.353 70.1818 749.728 69.9403 749.007 69.9403C747.922 69.9403 747.064 70.4801 746.433 71.5597C745.802 72.6335 745.484 74.2102 745.478 76.2898C745.473 77.6818 745.612 78.8523 745.896 79.8011C746.186 80.75 746.595 81.4659 747.123 81.9489C747.652 82.4261 748.279 82.6648 749.007 82.6648ZM758.248 81.7614V79.2472L765.654 67.5455H767.75V71.125H766.472L761.486 79.0256V79.1619H771.824V81.7614H758.248ZM766.574 85V80.9943L766.608 79.8693V67.5455H769.591V85H766.574Z" fill="white"/>
<path d="M969.405 85.3324C968.002 85.3324 966.797 84.9773 965.792 84.267C964.792 83.5511 964.022 82.5199 963.482 81.1733C962.948 79.821 962.681 78.1932 962.681 76.2898C962.686 74.3864 962.956 72.767 963.49 71.4318C964.03 70.0909 964.8 69.0682 965.8 68.3636C966.806 67.6591 968.007 67.3068 969.405 67.3068C970.803 67.3068 972.005 67.6591 973.01 68.3636C974.016 69.0682 974.786 70.0909 975.32 71.4318C975.86 72.7727 976.13 74.392 976.13 76.2898C976.13 78.1989 975.86 79.8295 975.32 81.1818C974.786 82.5284 974.016 83.5568 973.01 84.267C972.01 84.9773 970.809 85.3324 969.405 85.3324ZM969.405 82.6648C970.496 82.6648 971.357 82.1278 971.988 81.054C972.624 79.9744 972.942 78.3864 972.942 76.2898C972.942 74.9034 972.797 73.7386 972.507 72.7955C972.218 71.8523 971.809 71.142 971.28 70.6648C970.752 70.1818 970.127 69.9403 969.405 69.9403C968.32 69.9403 967.462 70.4801 966.831 71.5597C966.201 72.6335 965.882 74.2102 965.877 76.2898C965.871 77.6818 966.01 78.8523 966.294 79.8011C966.584 80.75 966.993 81.4659 967.522 81.9489C968.05 82.4261 968.678 82.6648 969.405 82.6648ZM985.029 85.2386C983.893 85.2386 982.876 85.0256 981.978 84.5994C981.081 84.1676 980.368 83.5767 979.839 82.8267C979.316 82.0767 979.038 81.2187 979.004 80.2528H982.072C982.129 80.9687 982.439 81.554 983.001 82.0085C983.564 82.4574 984.24 82.6818 985.029 82.6818C985.649 82.6818 986.2 82.5398 986.683 82.2557C987.166 81.9716 987.547 81.5767 987.825 81.071C988.103 80.5653 988.24 79.9886 988.234 79.3409C988.24 78.6818 988.1 78.0966 987.816 77.5852C987.532 77.0739 987.143 76.6733 986.649 76.3835C986.154 76.0881 985.586 75.9403 984.944 75.9403C984.422 75.9347 983.907 76.0312 983.402 76.2301C982.896 76.429 982.495 76.6903 982.2 77.0142L979.345 76.5455L980.257 67.5455H990.382V70.1875H982.873L982.37 74.8153H982.473C982.797 74.4347 983.254 74.1193 983.845 73.8693C984.436 73.6136 985.083 73.4858 985.788 73.4858C986.845 73.4858 987.788 73.7358 988.618 74.2358C989.447 74.7301 990.1 75.4119 990.578 76.2812C991.055 77.1506 991.294 78.1449 991.294 79.2642C991.294 80.4176 991.027 81.446 990.493 82.3494C989.964 83.2472 989.228 83.9545 988.285 84.4716C987.348 84.983 986.262 85.2386 985.029 85.2386Z" fill="white"/>
<g clip-path="url(#clip2_173_216)">
<path d="M112.971 342.029C108.438 337.496 102.411 335 96 335C89.5895 335 83.5624 337.496 79.0294 342.029C74.4965 346.562 72 352.589 72 359C72 365.411 74.4965 371.438 79.0294 375.971C83.5624 380.504 89.5895 383 96 383C102.411 383 108.438 380.504 112.971 375.971C117.504 371.438 120 365.411 120 359C120 352.589 117.504 346.562 112.971 342.029ZM96 377.938C85.5579 377.938 77.0625 369.442 77.0625 359C77.0625 348.558 85.5579 340.062 96 340.062C106.442 340.062 114.938 348.558 114.938 359C114.938 369.442 106.442 377.938 96 377.938Z" fill="white"/>
<path d="M96 342.875C87.1088 342.875 79.875 350.109 79.875 359C79.875 367.891 87.1088 375.125 96 375.125C104.891 375.125 112.125 367.891 112.125 359C112.125 350.109 104.891 342.875 96 342.875ZM102.05 364.754C101.708 365.396 101.248 365.917 100.668 366.313C100.089 366.71 99.4222 367 98.6682 367.182C98.2555 367.282 97.8318 367.354 97.3975 367.399V370.677H94.585V367.337C93.8976 367.243 93.2146 367.093 92.5367 366.885C91.2982 366.504 90.1868 365.964 89.2028 365.266L90.6555 362.432C90.7983 362.575 91.0562 362.761 91.4293 362.991C91.8021 363.222 92.2427 363.452 92.751 363.682C93.2589 363.912 93.8225 364.107 94.4418 364.265C95.0607 364.424 95.6953 364.503 96.3464 364.503C98.1562 364.503 99.0612 363.924 99.0612 362.765C99.0612 362.4 98.9575 362.09 98.7517 361.836C98.5452 361.583 98.2515 361.36 97.8706 361.17C97.4897 360.979 97.0291 360.805 96.4896 360.646C95.9495 360.487 95.3463 360.312 94.6798 360.122C93.8701 359.9 93.1677 359.658 92.5723 359.396C91.9772 359.134 91.4806 358.824 91.084 358.467C90.687 358.11 90.3893 357.697 90.1912 357.229C89.9927 356.761 89.8934 356.201 89.8934 355.55C89.8934 354.693 90.052 353.931 90.3699 353.264C90.687 352.597 91.1276 352.042 91.6912 351.597C92.2548 351.153 92.9095 350.815 93.6559 350.585C93.9565 350.493 94.2664 350.419 94.585 350.364V347.299H97.3975V350.324C98.083 350.412 98.733 350.571 99.3468 350.799C100.347 351.173 101.22 351.613 101.966 352.121L100.514 354.788C100.403 354.677 100.2 354.526 99.9064 354.335C99.6127 354.145 99.2552 353.958 98.8348 353.776C98.4141 353.593 97.9578 353.439 97.4659 353.311C96.9734 353.185 96.4735 353.121 95.9656 353.121C95.0607 353.121 94.3857 353.287 93.9415 353.621C93.4969 353.954 93.2747 354.423 93.2747 355.026C93.2747 355.375 93.3582 355.665 93.5248 355.895C93.6914 356.126 93.9331 356.328 94.251 356.502C94.5685 356.677 94.9691 356.836 95.4536 356.979C95.9377 357.121 96.4973 357.273 97.1323 357.431C97.9578 357.653 98.7078 357.891 99.3827 358.145C100.057 358.399 100.629 358.717 101.097 359.098C101.565 359.479 101.926 359.935 102.181 360.467C102.434 360.999 102.561 361.654 102.561 362.431C102.562 363.337 102.391 364.11 102.05 364.754Z" fill="white"/>
</g>
<g clip-path="url(#clip3_173_216)">
<path fill-rule="evenodd" clip-rule="evenodd" d="M310.518 370.149C305.851 370.149 301.436 368.322 298.146 365.004C294.828 361.685 293 357.299 293 352.631C293 347.935 294.828 343.548 298.146 340.23C301.436 336.912 305.851 335.113 310.518 335.113C315.186 335.113 319.601 336.912 322.919 340.23C326.209 343.548 328.037 347.935 328.037 352.631C328.037 357.299 326.209 361.685 322.919 365.004C319.601 368.322 315.186 370.149 310.518 370.149ZM310.518 366.213C306.891 366.213 303.46 364.807 300.902 362.248C298.343 359.661 296.909 356.258 296.909 352.631C296.909 348.975 298.343 345.573 300.902 342.986C303.46 340.427 306.891 339.021 310.518 339.021C314.146 339.021 317.576 340.427 320.135 342.986C325.45 348.301 325.45 356.933 320.135 362.248C317.576 364.807 314.146 366.213 310.518 366.213Z" fill="white"/>
<path fill-rule="evenodd" clip-rule="evenodd" d="M326.687 371.808C326.462 371.808 326.237 371.724 326.068 371.555L322.3 367.787C322.947 367.281 323.538 366.775 324.1 366.184C324.747 365.566 325.309 364.891 325.843 364.188L329.639 367.984C329.977 368.322 329.977 368.856 329.639 369.193C329.471 369.334 329.274 369.418 329.049 369.418C328.852 369.418 328.683 369.362 328.543 369.25L327.446 370.599C327.587 370.909 327.531 371.274 327.277 371.555C327.109 371.724 326.884 371.808 326.687 371.808Z" fill="white"/>
<path fill-rule="evenodd" clip-rule="evenodd" d="M337.344 382.888C336.388 382.888 335.46 382.522 334.786 381.819L326.856 373.918C326.181 373.243 325.815 372.315 325.815 371.359C325.815 370.374 326.181 369.447 326.856 368.772C327.559 368.097 328.459 367.703 329.443 367.703C330.427 367.703 331.327 368.097 332.03 368.772L339.931 376.673C341.337 378.107 341.337 380.413 339.931 381.819C339.228 382.522 338.329 382.888 337.344 382.888Z" fill="white"/>
<path fill-rule="evenodd" clip-rule="evenodd" d="M304.838 358.311C301.689 355.162 301.689 350.072 304.838 346.923C305.148 346.585 305.148 346.051 304.838 345.742C304.501 345.404 303.967 345.404 303.629 345.742C299.833 349.538 299.833 355.696 303.629 359.492C303.798 359.661 304.023 359.745 304.22 359.745C304.445 359.745 304.67 359.661 304.838 359.492C305.148 359.183 305.148 358.649 304.838 358.311Z" fill="white"/>
</g>
<defs>
<clipPath id="clip0_173_216">
<rect width="48" height="48" fill="white" transform="translate(734 335)"/>
</clipPath>
<clipPath id="clip1_173_216">
<rect width="48" height="48" fill="white" transform="translate(954 335)"/>
</clipPath>
<clipPath id="clip2_173_216">
<rect width="48" height="48" fill="white" transform="translate(72 335)"/>
</clipPath>
<clipPath id="clip3_173_216">
<rect width="48" height="48" fill="white" transform="translate(293 335)"/>
</clipPath>
</defs>
</svg>
