<svg width="31" height="31" viewBox="0 0 31 31" fill="none" xmlns="http://www.w3.org/2000/svg">
<path d="M8.74622 12.7725C8.74622 8.90647 11.8802 5.77246 15.7462 5.77246C19.6122 5.77246 22.7462 8.90647 22.7462 12.7725V18.7725C22.7462 22.6385 19.6122 25.7725 15.7462 25.7725C11.8802 25.7725 8.74622 22.6385 8.74622 18.7725V12.7725Z" stroke="white" strokeWidth="1.5"/>
<path d="M14.2462 12.2725C14.2462 11.444 14.9178 10.7725 15.7462 10.7725C16.5746 10.7725 17.2462 11.444 17.2462 12.2725V14.2725C17.2462 15.1009 16.5746 15.7725 15.7462 15.7725C14.9178 15.7725 14.2462 15.1009 14.2462 14.2725V12.2725Z" stroke="white" strokeWidth="1.5"/>
<path d="M15.7462 5.77246V10.7725" stroke="white" strokeWidth="1.5" stroke-linecap="round"/>
</svg>
