<svg width="53" height="53" viewBox="0 0 53 53" fill="none" xmlns="http://www.w3.org/2000/svg">
<g clip-path="url(#clip0_0_13522)">
<path d="M33.1786 24.811C33.1786 23.5673 32.1732 22.5498 30.9443 22.5498C29.7154 22.5498 28.71 23.5673 28.71 24.811V40.9482C28.71 44.0447 30.9955 46.6268 33.9436 47.053M42.3669 47.053C45.3149 46.6268 47.6005 44.0447 47.6005 40.9482V39.9203L49.034 31.6975C46.6502 31.0511 44.1998 32.4828 43.561 34.8954L43.2543 36.0538C41.3964 36.0538 39.2566 37.5174 38.6555 39.3462M37.6474 21.4191C37.6474 20.1754 36.6419 19.158 35.413 19.158C34.1842 19.158 33.1786 20.1754 33.1786 21.4192V29.7215M37.6474 29.7214V19.1578C37.6474 17.9141 38.6528 16.8966 39.8817 16.8966C41.1106 16.8966 42.1161 17.9141 42.1161 19.1578V29.7213M42.1161 21.4191C42.1161 20.1754 43.1216 19.158 44.3505 19.158C45.5794 19.158 46.5849 20.1761 46.5849 21.4191V31.2222" stroke="white" strokeWidth="1.5" stroke-miterlimit="22.9256" stroke-linecap="round" stroke-linejoin="round"/>
<path d="M45.2645 46.3078V51.6891M31.0458 51.6891V46.3078" stroke="white" strokeWidth="1.5" stroke-miterlimit="22.9256" stroke-linecap="round" stroke-linejoin="round"/>
<path d="M19.7725 24.811C19.7725 23.5673 20.7778 22.5498 22.0067 22.5498C23.2356 22.5498 24.2411 23.5673 24.2411 24.811V40.9482C24.2411 44.0447 21.9555 46.6268 19.0075 47.053M10.5841 47.053C7.63605 46.6268 5.35049 44.0447 5.35049 40.9482V39.9203L3.91693 31.6975C6.30081 31.0511 8.75121 32.4828 9.38993 34.8954L9.69665 36.0538C11.5545 36.0538 13.6944 37.5174 14.2955 39.3462M15.3036 21.4191C15.3036 20.1754 16.3091 19.158 17.538 19.158C18.7668 19.158 19.7724 20.1754 19.7724 21.4192V29.7215M15.3036 29.7214V19.1578C15.3036 17.9141 14.2981 16.8966 13.0692 16.8966C11.8403 16.8966 10.8349 17.9141 10.8349 19.1578V29.7213M10.8349 21.4191C10.8349 20.1754 9.82939 19.158 8.60049 19.158C7.37158 19.158 6.36611 20.1761 6.36611 21.4191V31.2993" stroke="white" strokeWidth="1.5" stroke-miterlimit="22.9256" stroke-linecap="round" stroke-linejoin="round"/>
<path d="M7.6864 46.3078V51.6891M21.9052 51.6891V46.3078" stroke="white" strokeWidth="1.5" stroke-miterlimit="22.9256" stroke-linecap="round" stroke-linejoin="round"/>
<path fill-rule="evenodd" clip-rule="evenodd" d="M34.5832 11.2497C38.9479 3.59905 30.9216 -1.48526 26.4755 3.01442C22.0293 -1.48526 14.0031 3.59905 18.3677 11.2497C20.3765 14.7707 24.4278 17.999 26.4755 18.5542C28.5232 17.999 32.5745 14.7707 34.5832 11.2497Z" stroke="#33CCCC" strokeWidth="1.5" stroke-miterlimit="22.9256" stroke-linecap="round" stroke-linejoin="round"/>
</g>
<defs>
<clipPath id="clip0_0_13522">
<rect width="52" height="52.6254" fill="white" transform="translate(0.475464 0.194336)"/>
</clipPath>
</defs>
</svg>
