<svg width="51" height="51" viewBox="0 0 51 51" fill="none" xmlns="http://www.w3.org/2000/svg">
<g clip-path="url(#clip0_121_5887)">
<path fill-rule="evenodd" clip-rule="evenodd" d="M18.4423 5.24531C18.6658 5.24514 18.8844 5.31127 19.0704 5.43535C19.2564 5.55943 19.4014 5.73588 19.4871 5.94238C19.5727 6.14888 19.5952 6.37614 19.5517 6.59544C19.5082 6.81473 19.4007 7.01619 19.2426 7.17433C19.0846 7.33248 18.8832 7.4402 18.664 7.48388C18.4447 7.52756 18.2174 7.50523 18.0109 7.41972C17.8043 7.3342 17.6277 7.18935 17.5035 7.00347C17.3793 6.8176 17.313 6.59905 17.313 6.37549C17.3137 6.07611 17.4329 5.78919 17.6445 5.57741C17.8561 5.36564 18.1429 5.24624 18.4423 5.24531ZM18.4423 9.13809C18.9888 9.13845 19.5231 8.97673 19.9777 8.67338C20.4322 8.37003 20.7866 7.93868 20.996 7.43389C21.2054 6.9291 21.2604 6.37355 21.154 5.83752C21.0476 5.30148 20.7846 4.80904 20.3983 4.42249C20.012 4.03594 19.5197 3.77264 18.9837 3.6659C18.4478 3.55917 17.8922 3.61378 17.3873 3.82284C16.8823 4.03191 16.4508 4.38602 16.1471 4.8404C15.8435 5.29477 15.6814 5.829 15.6814 6.37549C15.6824 7.10759 15.9735 7.80946 16.491 8.32729C17.0085 8.84513 17.7102 9.13669 18.4423 9.13809ZM13.0896 8.01504L13.9466 8.23125L13.4923 8.99873C13.3999 9.15419 13.3619 9.33604 13.3845 9.51548C13.4072 9.69492 13.489 9.86168 13.6171 9.98936L14.8214 11.1963C14.9495 11.3245 15.1167 11.4064 15.2965 11.4291C15.4763 11.4518 15.6586 11.4141 15.8146 11.3219L16.5753 10.8684L16.7949 11.7334C16.8399 11.9085 16.9422 12.0634 17.0856 12.1735C17.229 12.2835 17.4052 12.3423 17.5859 12.3404H19.289C19.4696 12.3423 19.6456 12.2834 19.7889 12.1734C19.9322 12.0633 20.0344 11.9084 20.0792 11.7334L20.2978 10.8684L21.0628 11.3288C21.2188 11.4209 21.401 11.4586 21.5807 11.4358C21.7604 11.4131 21.9275 11.3312 22.0556 11.2031L23.2599 9.99629C23.3879 9.86854 23.4696 9.70169 23.4921 9.52221C23.5145 9.34273 23.4764 9.1609 23.3837 9.00557L22.9323 8.24512L23.7943 8.02188C23.9707 7.97925 24.1275 7.8781 24.239 7.73494C24.3505 7.59178 24.4102 7.41506 24.4084 7.23359V5.53135C24.4073 5.34983 24.3466 5.17371 24.2356 5.03003C24.1247 4.88635 23.9697 4.78306 23.7943 4.73604L22.9373 4.51973L23.3916 3.75234C23.484 3.59687 23.5219 3.41502 23.4993 3.23558C23.4766 3.05614 23.3948 2.88939 23.2667 2.76172L22.0626 1.56172C21.9344 1.43355 21.7673 1.35165 21.5874 1.32889C21.4076 1.30614 21.2253 1.34383 21.0692 1.43604L20.3087 1.88945L20.0891 1.02441C20.0433 0.849399 19.941 0.694387 19.7981 0.583415C19.6552 0.472444 19.4797 0.411715 19.2988 0.410645H17.5956C17.4146 0.411672 17.2391 0.472407 17.0962 0.583423C16.9533 0.694439 16.851 0.849525 16.8053 1.02461L16.5868 1.88271L15.8219 1.4292C15.6659 1.33697 15.4837 1.29926 15.3039 1.32199C15.1242 1.34473 14.9571 1.42663 14.829 1.55479L13.6242 2.75439C13.4961 2.88209 13.4143 3.04889 13.3917 3.22836C13.3692 3.40783 13.4072 3.58969 13.4997 3.74512L13.9512 4.5125L13.0893 4.72871C12.9134 4.77483 12.7578 4.87786 12.6467 5.02174C12.5355 5.16562 12.4752 5.34223 12.475 5.52402V7.21934C12.473 7.40167 12.5325 7.57936 12.644 7.72367C12.7555 7.86799 12.9123 7.9705 13.0893 8.01465L13.0896 8.01504ZM13.6466 18.731C13.2694 18.7314 12.9009 18.8436 12.5874 19.0533C12.274 19.2631 12.0298 19.5611 11.8856 19.9096C11.7414 20.2581 11.7037 20.6415 11.7773 21.0114C11.8509 21.3813 12.0325 21.7211 12.2991 21.9878C12.5656 22.2546 12.9053 22.4364 13.2752 22.5102C13.645 22.5841 14.0285 22.5467 14.3771 22.4027C14.7257 22.2587 15.0238 22.0147 15.2338 21.7014C15.4437 21.3881 15.5562 21.0196 15.5568 20.6425C15.5571 20.3915 15.508 20.1429 15.4121 19.9109C15.3162 19.6789 15.1755 19.4681 14.9981 19.2906C14.8207 19.113 14.61 18.9722 14.3781 18.8762C14.1462 18.7802 13.8976 18.7308 13.6466 18.731ZM13.6466 24.1795C12.9462 24.1792 12.2617 23.9713 11.6796 23.5819C11.0974 23.1925 10.6439 22.6393 10.3762 21.9921C10.1085 21.3449 10.0388 20.6329 10.1759 19.9461C10.3129 19.2593 10.6506 18.6286 11.1461 18.1337C11.6417 17.6388 12.2729 17.302 12.9599 17.1659C13.6469 17.0298 14.3588 17.1005 15.0056 17.3691C15.6524 17.6376 16.205 18.092 16.5936 18.6747C16.9822 19.2573 17.1892 19.9421 17.1885 20.6425C17.1861 21.5807 16.812 22.4797 16.1481 23.1426C15.4843 23.8055 14.5848 24.1784 13.6466 24.1795ZM6.22354 22.617C6.04816 22.5725 5.8926 22.4708 5.78141 22.3281C5.67022 22.1853 5.60972 22.0096 5.60947 21.8287V19.4361C5.6089 19.2558 5.66922 19.0805 5.78067 18.9387C5.89211 18.797 6.04816 18.6969 6.22354 18.6549L7.61309 18.2915C7.64932 18.2008 7.6877 18.1031 7.72832 18.0193L6.9999 16.7843C6.90744 16.6288 6.8695 16.447 6.89211 16.2675C6.91472 16.0881 6.99657 15.9213 7.12471 15.7937L8.81338 14.1054C8.94152 13.9772 9.10868 13.8952 9.28851 13.8725C9.46834 13.8498 9.65062 13.8875 9.80664 13.9798L11.0321 14.7122C11.1253 14.6665 11.2213 14.6269 11.3196 14.5936L11.6701 13.2192C11.7135 13.0429 11.8151 12.8863 11.9585 12.7749C12.1019 12.6634 12.2787 12.6037 12.4604 12.6053H14.8482C15.0299 12.6036 15.2068 12.6634 15.3503 12.7748C15.4937 12.8862 15.5954 13.0428 15.6388 13.2192L15.989 14.5936C16.0899 14.6268 16.1885 14.6664 16.2844 14.7122L17.4979 13.9866C17.6542 13.8938 17.8373 13.8564 18.0175 13.8804C18.1978 13.9045 18.3647 13.9886 18.4912 14.1191L20.1794 15.8005C20.3075 15.9297 20.3891 16.0976 20.4117 16.2781C20.4342 16.4586 20.3963 16.6415 20.3039 16.7981L19.5807 18.0188C19.624 18.1096 19.6649 18.2142 19.7033 18.3118L21.0697 18.6676C21.2451 18.7096 21.4012 18.8097 21.5127 18.9514C21.6243 19.0932 21.6847 19.2684 21.6843 19.4488V21.8414C21.6839 22.0224 21.6233 22.1981 21.512 22.3408C21.4007 22.4835 21.2451 22.5852 21.0697 22.6297L19.6921 22.9855C19.6537 23.0762 19.6134 23.1738 19.5709 23.2715L20.2936 24.4922C20.3859 24.6477 20.4238 24.8295 20.4012 25.0089C20.3787 25.1883 20.2969 25.3551 20.1689 25.4828L18.4804 27.1721C18.3522 27.3003 18.185 27.3822 18.0051 27.4049C17.8252 27.4277 17.6429 27.3899 17.4868 27.2977L16.2563 26.5722C16.1635 26.607 16.0694 26.6419 15.9749 26.6768L15.6233 28.065C15.5785 28.24 15.4763 28.3949 15.333 28.505C15.1897 28.615 15.0137 28.6738 14.8331 28.6721H12.4453C12.2647 28.6739 12.0886 28.6151 11.9453 28.5051C11.802 28.395 11.6998 28.2401 11.655 28.065L11.2994 26.6698C11.2059 26.6365 11.1147 26.5968 11.0266 26.5512L9.79541 27.2836C9.63999 27.3776 9.45739 27.4164 9.27717 27.3937C9.09695 27.3711 8.92965 27.2883 8.80234 27.1587L7.11416 25.4769C6.98604 25.3477 6.90432 25.1798 6.88179 24.9993C6.85926 24.8187 6.89719 24.6359 6.98965 24.4792L7.72402 23.2374C7.68496 23.1537 7.64697 23.0561 7.61152 22.9724L6.22354 22.6165V22.617ZM34.661 12.3617C34.0052 12.3611 33.3639 12.5551 32.8184 12.9191C32.2729 13.2831 31.8477 13.8009 31.5966 14.4067C31.3455 15.0126 31.2798 15.6793 31.4078 16.3225C31.5359 16.9658 31.8519 17.5565 32.3159 18.02C32.7799 18.4835 33.371 18.7989 34.0144 18.9262C34.6578 19.0535 35.3244 18.9871 35.93 18.7353C36.5356 18.4835 37.0528 18.0577 37.4163 17.5118C37.7797 16.9659 37.973 16.3244 37.9716 15.6686C37.9697 14.7915 37.6201 13.9509 36.9996 13.3311C36.3791 12.7112 35.5381 12.3626 34.661 12.3617ZM34.661 20.6147C33.6845 20.6143 32.7301 20.3245 31.9182 19.7818C31.1064 19.2391 30.4737 18.4679 30.1 17.5658C29.7262 16.6636 29.6283 15.6709 29.8186 14.7131C30.0089 13.7553 30.4788 12.8754 31.1689 12.1846C31.8591 11.4938 32.7385 11.023 33.6961 10.8318C34.6537 10.6406 35.6465 10.7376 36.5491 11.1104C37.4516 11.4833 38.2233 12.1153 38.7668 12.9266C39.3103 13.7379 39.6011 14.692 39.6024 15.6686C39.6016 16.9793 39.0809 18.2362 38.1545 19.1634C37.2281 20.0907 35.9718 20.6127 34.661 20.6147ZM26.1757 11.6775L24.9611 9.6335C24.8686 9.47685 24.8306 9.29395 24.8532 9.11342C24.8757 8.9329 24.9575 8.76494 25.0856 8.63584L27.6415 6.08242C27.7687 5.95277 27.936 5.86984 28.1162 5.84707C28.2964 5.82429 28.4791 5.863 28.6346 5.95693L30.6784 7.1708C30.942 7.04265 31.2132 6.93082 31.4905 6.83594L32.0753 4.54102C32.1198 4.36528 32.2217 4.20943 32.3648 4.09821C32.508 3.987 32.6842 3.92679 32.8654 3.92715H36.4787C36.6601 3.92673 36.8364 3.9869 36.9797 4.09811C37.123 4.20932 37.2251 4.3652 37.2697 4.54102L37.854 6.83594C38.1333 6.94062 38.4084 7.04521 38.6775 7.17773L40.7034 5.97783C40.8587 5.88447 41.0406 5.84545 41.2205 5.86692C41.4005 5.88838 41.5681 5.96912 41.6971 6.09639L44.2519 8.64981C44.38 8.77897 44.4616 8.94688 44.4842 9.12733C44.5068 9.30779 44.469 9.49064 44.3768 9.64736L43.1698 11.6775C43.2968 11.9496 43.4104 12.2287 43.5109 12.5008L45.792 13.0867C45.9689 13.1309 46.1257 13.2334 46.2372 13.3777C46.3486 13.522 46.4081 13.6996 46.4062 13.8819V17.4952C46.4067 17.6756 46.3464 17.8508 46.2349 17.9926C46.1235 18.1344 45.9674 18.2344 45.792 18.2765L43.4952 18.8694C43.3943 19.1484 43.2804 19.4136 43.154 19.6856L44.3603 21.7166C44.4529 21.872 44.491 22.0539 44.4684 22.2334C44.4458 22.4129 44.3638 22.5797 44.2355 22.7072L41.6804 25.2676C41.5515 25.3948 41.3839 25.4756 41.2041 25.4971C41.0242 25.5185 40.8423 25.4795 40.6871 25.3861L38.6376 24.1723C38.3753 24.2952 38.1068 24.4047 37.8333 24.5002L37.2467 26.8023C37.2024 26.9789 37.1007 27.1358 36.9575 27.2482C36.8143 27.3606 36.6377 27.4222 36.4557 27.4232H32.8424C32.6603 27.4222 32.4838 27.3606 32.3406 27.2482C32.1974 27.1358 32.0956 26.9789 32.0514 26.8023L31.4598 24.4862C31.1925 24.3815 30.9284 24.2769 30.6697 24.1514L28.6175 25.3721C28.4618 25.4637 28.2803 25.5018 28.1009 25.4804C27.9215 25.4589 27.7541 25.3793 27.6243 25.2535L25.0692 22.6932C24.941 22.5641 24.8592 22.3961 24.8367 22.2156C24.8142 22.0351 24.8522 21.8521 24.9447 21.6955L26.1681 19.6447C26.0474 19.3796 25.9385 19.1145 25.8416 18.8493L23.5287 18.2563C23.3523 18.2137 23.1956 18.1125 23.0841 17.9694C22.9726 17.8262 22.9129 17.6495 22.9147 17.4681V13.8548C22.914 13.6736 22.9741 13.4974 23.0854 13.3544C23.1967 13.2115 23.3528 13.11 23.5287 13.0664L25.844 12.4734C25.9417 12.2014 26.052 11.9363 26.1751 11.6781L26.1757 11.6775ZM49.6161 28.6235C49.9064 28.3385 50.0737 27.9512 50.0822 27.5445C50.0907 27.1377 49.9397 26.7438 49.6616 26.4469L49.5532 26.3283C49.2904 26.0401 48.929 25.8609 48.5405 25.826C48.152 25.7911 47.7646 25.9032 47.4546 26.1399L37.4998 33.6116C37.9113 34.2965 38.0414 35.1141 37.8628 35.8929L37.8465 35.9557C37.6638 36.749 37.1778 37.4392 36.4926 37.8786C35.8073 38.3181 34.9772 38.4717 34.1801 38.3067L24.3017 36.2135C24.0909 36.1676 23.9068 36.0401 23.7897 35.8589C23.6725 35.6778 23.6319 35.4576 23.6766 35.2465C23.7213 35.0355 23.8477 34.8507 24.0282 34.7325C24.2087 34.6143 24.4286 34.5724 24.6399 34.6159L34.5184 36.7088C34.8954 36.7872 35.2881 36.715 35.6126 36.5078C35.9372 36.3005 36.1678 35.9746 36.2553 35.5996L36.2717 35.5298C36.3143 35.3414 36.3194 35.1465 36.2867 34.9562C36.254 34.7659 36.184 34.5839 36.0809 34.4206C35.9795 34.2566 35.8462 34.1146 35.6888 34.0031C35.5315 33.8917 35.3533 33.813 35.1649 33.7718L21.2978 30.6185C19.4463 30.1929 17.7191 30.5348 16.1639 31.623L9.41025 36.3601L14.6864 44.2995L18.2274 41.6062C18.3116 41.5382 18.4092 41.4887 18.5138 41.461C18.6185 41.4334 18.7278 41.4282 18.8346 41.4458L33.139 43.4341C33.5696 43.5002 34.0099 43.4625 34.4231 43.3242C34.8362 43.1859 35.2104 42.9509 35.5145 42.6388L49.6161 28.6235ZM8.66113 50.4106L1.45068 39.5482L7.08789 35.8089L14.2984 46.6642L8.66113 50.4106Z" fill="white"/>
</g>
<defs>
<clipPath id="clip0_121_5887">
<rect width="50" height="50" fill="white" transform="translate(0.766602 0.410645)"/>
</clipPath>
</defs>
</svg>
