<svg width="61" height="62" viewBox="0 0 61 62" fill="none" xmlns="http://www.w3.org/2000/svg">
<path d="M22.9349 33.5989C22.2271 33.5989 21.5293 33.3538 20.9734 32.8537L20.7709 32.6944C19.7956 31.8155 18.3416 31.938 17.4423 32.9595C17.3113 33.1088 17.0856 33.121 16.9392 32.9885C16.7917 32.8559 16.7796 32.6275 16.9106 32.4794C18.0752 31.156 19.9717 31.0078 21.2288 32.1407L21.4313 32.3C22.4043 33.1756 23.9233 33.0341 24.8347 31.9981C24.9657 31.8489 25.1913 31.8366 25.3377 31.9692C25.4852 32.1017 25.4973 32.3301 25.3664 32.4783C24.7147 33.2168 23.8176 33.5989 22.9349 33.5989Z" fill="white"/>
<path d="M12.4799 51.9313C11.683 51.9313 10.9587 51.5225 10.5404 50.8363C10.12 50.1467 10.0858 49.3024 10.4491 48.5805L16.82 35.897V25.1807C16.82 24.9813 16.9796 24.8198 17.1767 24.8198C17.3737 24.8198 17.5333 24.9813 17.5333 25.1807V35.9827C17.5333 36.0396 17.5201 36.0953 17.4948 36.1465L11.0842 48.9058C10.8343 49.4026 10.8585 49.9819 11.1469 50.4553C11.4353 50.9287 11.9394 51.2095 12.4876 51.2083L30.1333 51.1192C30.688 51.117 31.1878 50.8274 31.4717 50.345C31.7546 49.8627 31.7678 49.2801 31.5059 48.7855L24.7871 36.122C24.7595 36.0696 24.7441 36.0106 24.7441 35.9516V25.1807C24.7441 24.9813 24.9037 24.8198 25.1008 24.8198C25.2978 24.8198 25.4574 24.9813 25.4574 25.1807V35.8602L32.1344 48.4435C32.5163 49.1631 32.4976 50.0119 32.0848 50.7137C31.6721 51.4155 30.9445 51.8377 30.1377 51.8411L12.492 51.9302C12.4876 51.9313 12.4832 51.9313 12.4799 51.9313Z" fill="white"/>
<path d="M25.9983 25.5416H16.6246C15.9036 25.5416 15.3169 24.9479 15.3169 24.2182V23.043C15.3169 22.3133 15.9036 21.7196 16.6246 21.7196H25.9983C26.7193 21.7196 27.3059 22.3133 27.3059 23.043V24.2182C27.3059 24.9479 26.7193 25.5416 25.9983 25.5416ZM16.6246 22.4414C16.2965 22.4414 16.0302 22.711 16.0302 23.043V24.2182C16.0302 24.5502 16.2965 24.8198 16.6246 24.8198H25.9983C26.3263 24.8198 26.5927 24.5502 26.5927 24.2182V23.043C26.5927 22.711 26.3263 22.4414 25.9983 22.4414H16.6246Z" fill="white"/>
<path d="M17.0013 49.5764C18.0232 49.5764 18.8516 48.738 18.8516 47.7038C18.8516 46.6696 18.0232 45.8313 17.0013 45.8313C15.9794 45.8313 15.151 46.6696 15.151 47.7038C15.151 48.738 15.9794 49.5764 17.0013 49.5764Z" fill="#B3EB8D"/>
<path d="M17.0009 49.9373C15.789 49.9373 14.8006 48.9426 14.794 47.715C14.7885 46.4829 15.7736 45.4759 16.9899 45.4704C18.1952 45.4648 19.2024 46.4618 19.2079 47.6927C19.2134 48.9247 18.2282 49.9318 17.0119 49.9373C17.0075 49.9373 17.0042 49.9373 17.0009 49.9373ZM17.0009 46.1922C16.9987 46.1922 16.9954 46.1922 16.9932 46.1922C16.1699 46.1967 15.5028 46.8784 15.5072 47.7116C15.5116 48.5427 16.1809 49.2155 17.0009 49.2155H17.0086C17.832 49.211 18.499 48.5293 18.4946 47.6961C18.4902 46.8662 17.821 46.1922 17.0009 46.1922Z" fill="white"/>
<path d="M26.7464 48.9835C27.4689 48.2524 27.4689 47.0669 26.7464 46.3357C26.0239 45.6046 24.8526 45.6046 24.1301 46.3357C23.4076 47.0669 23.4076 48.2524 24.1301 48.9835C24.8526 49.7147 26.0239 49.7147 26.7464 48.9835Z" fill="#B3EB8D"/>
<path d="M25.4456 49.895C24.86 49.895 24.3097 49.6655 23.8936 49.2489C23.4742 48.829 23.242 48.2697 23.2398 47.6727C23.2365 47.0756 23.4632 46.5141 23.8782 46.0897C24.2932 45.6653 24.8457 45.4303 25.4357 45.428C26.6586 45.4191 27.6482 46.4195 27.6537 47.6504C27.6592 48.8824 26.674 49.8894 25.4577 49.895C25.4533 49.895 25.45 49.895 25.4456 49.895ZM25.4467 46.1499C25.4445 46.1499 25.4412 46.1499 25.439 46.1499C25.0395 46.1521 24.6652 46.3114 24.3845 46.5977C24.1038 46.8851 23.9508 47.265 23.9519 47.6693C23.9542 48.0737 24.1116 48.4524 24.3944 48.7365C24.6784 49.0206 25.0516 49.1765 25.4533 49.1743C26.2767 49.1698 26.9437 48.4881 26.9393 47.6548C26.936 46.8238 26.2668 46.1499 25.4467 46.1499Z" fill="white"/>
<path d="M18.5889 47.1056C18.4678 47.1056 18.349 47.0432 18.2829 46.9296C18.1816 46.7581 18.2367 46.5364 18.4062 46.435L21.0226 44.8521C21.1921 44.7496 21.4112 44.8053 21.5113 44.9769C21.6126 45.1484 21.5576 45.3701 21.388 45.4715L18.7716 47.0544C18.7144 47.0889 18.6516 47.1056 18.5889 47.1056Z" fill="white"/>
<path d="M23.8466 47.0789C23.7861 47.0789 23.7234 47.0633 23.6672 47.0299L21.0244 45.4703C20.9143 45.4057 20.8472 45.2865 20.8472 45.1584V41.9658C20.8472 41.7664 21.0068 41.6049 21.2038 41.6049C21.4008 41.6049 21.5604 41.7664 21.5604 41.9658V44.9512L24.026 46.4061C24.1967 46.5063 24.2539 46.7269 24.1548 46.8995C24.0888 47.0154 23.9688 47.0789 23.8466 47.0789Z" fill="white"/>
<path d="M21.2061 41.9669C22.2462 41.9669 23.0894 41.1136 23.0894 40.0609C23.0894 39.0083 22.2462 38.1549 21.2061 38.1549C20.166 38.1549 19.3228 39.0083 19.3228 40.0609C19.3228 41.1136 20.166 41.9669 21.2061 41.9669Z" fill="#FF8AA7"/>
<path d="M21.2057 42.3278C19.9707 42.3278 18.9657 41.3108 18.9657 40.0609C18.9657 38.8111 19.9707 37.794 21.2057 37.794C22.4407 37.794 23.4456 38.8111 23.4456 40.0609C23.4445 41.3108 22.4407 42.3278 21.2057 42.3278ZM21.2057 38.5159C20.3636 38.5159 19.679 39.2087 19.679 40.0609C19.679 40.9131 20.3636 41.606 21.2057 41.606C22.0477 41.606 22.7324 40.9131 22.7324 40.0609C22.7324 39.2087 22.0466 38.5159 21.2057 38.5159Z" fill="white"/>
<path d="M21.2062 38.5159C21.0092 38.5159 20.8496 38.3544 20.8496 38.155V36.7971C20.8496 36.5977 21.0092 36.4361 21.2062 36.4361C21.4033 36.4361 21.5629 36.5977 21.5629 36.7971V38.155C21.5629 38.3544 21.4022 38.5159 21.2062 38.5159Z" fill="white"/>
<path d="M19.3223 40.4219H17.9805C17.7835 40.4219 17.6239 40.2604 17.6239 40.061C17.6239 39.8616 17.7835 39.7 17.9805 39.7H19.3223C19.5193 39.7 19.6789 39.8616 19.6789 40.061C19.6789 40.2604 19.5193 40.4219 19.3223 40.4219Z" fill="white"/>
<path d="M24.4303 40.4219H23.0886C22.8915 40.4219 22.7319 40.2604 22.7319 40.061C22.7319 39.8616 22.8915 39.7 23.0886 39.7H24.4303C24.6274 39.7 24.787 39.8616 24.787 40.061C24.787 40.2604 24.6274 40.4219 24.4303 40.4219Z" fill="white"/>
<path d="M22.5218 39.0584C22.4305 39.0584 22.3391 39.0227 22.2698 38.9526C22.13 38.8111 22.13 38.5827 22.2698 38.4424L23.2032 37.4977C23.343 37.3563 23.5686 37.3563 23.7073 37.4977C23.8471 37.6392 23.8471 37.8676 23.7073 38.0079L22.7739 38.9526C22.7045 39.0239 22.6132 39.0584 22.5218 39.0584Z" fill="white"/>
<path d="M18.9092 42.8002C18.8178 42.8002 18.7264 42.7645 18.6571 42.6943C18.5173 42.5529 18.5173 42.3245 18.6571 42.1841L19.5905 41.2395C19.7303 41.098 19.9559 41.0991 20.0946 41.2395C20.2344 41.381 20.2344 41.6093 20.0946 41.7497L19.1612 42.6943C19.0919 42.7645 19.0005 42.8002 18.9092 42.8002Z" fill="white"/>
<path d="M19.8584 39.0896C19.767 39.0896 19.6757 39.0539 19.6063 38.9838L18.6421 38.0079C18.5023 37.8665 18.5023 37.6381 18.6421 37.4977C18.7819 37.3563 19.0075 37.3563 19.1462 37.4977L20.1104 38.4736C20.2502 38.615 20.2502 38.8434 20.1104 38.9838C20.0411 39.0551 19.9497 39.0896 19.8584 39.0896Z" fill="white"/>
<path d="M23.4552 42.73C23.3639 42.73 23.2725 42.6944 23.2032 42.6242L22.2698 41.6796C22.13 41.5381 22.13 41.3097 22.2698 41.1694C22.4085 41.0279 22.6352 41.0279 22.7739 41.1694L23.7073 42.114C23.8471 42.2555 23.8471 42.4838 23.7073 42.6242C23.6369 42.6944 23.5455 42.73 23.4552 42.73Z" fill="white"/>
<path d="M48.8022 51.4869C48.8518 51.4512 48.8947 51.4078 48.931 51.3565C48.8969 51.4078 48.8518 51.4535 48.8022 51.4869Z" fill="#DAE5F5"/>
<path d="M48.5354 51.9313H35.3807C34.9217 51.9313 34.5485 51.5536 34.5485 51.0891V50.5232C33.8683 50.3595 33.3619 49.739 33.3619 49.0016V30.7215C33.3619 29.0628 34.6949 27.7138 36.3339 27.7138H47.5833C49.2222 27.7138 50.5552 29.0628 50.5552 30.7215V49.0016C50.5552 49.739 50.0478 50.3584 49.3686 50.5232V51.0891C49.3675 51.5525 48.9944 51.9313 48.5354 51.9313ZM36.3328 28.4357C35.0868 28.4357 34.0741 29.4616 34.0741 30.7215V49.0016C34.0741 49.465 34.4473 49.8426 34.9052 49.8437C35.1022 49.8437 35.2618 50.0052 35.2618 50.2046V51.0891C35.2618 51.156 35.3146 51.2094 35.3807 51.2094H48.5354C48.6014 51.2094 48.6543 51.156 48.6543 51.0891V50.2046C48.6543 50.0052 48.8139 49.8437 49.0109 49.8437C49.4688 49.8426 49.8419 49.465 49.8419 49.0016V30.7215C49.8419 29.4605 48.8282 28.4357 47.5833 28.4357H36.3328Z" fill="#14FFD5"/>
<path d="M48.2561 25.731H35.6606C34.9396 25.731 34.3529 25.1373 34.3529 24.4076V23.043C34.3529 22.3134 34.9396 21.7196 35.6606 21.7196H48.2561C48.9771 21.7196 49.5638 22.3134 49.5638 23.043V24.4076C49.5638 25.1373 48.9771 25.731 48.2561 25.731ZM35.6606 22.4415C35.3325 22.4415 35.0662 22.7111 35.0662 23.043V24.4076C35.0662 24.7396 35.3325 25.0092 35.6606 25.0092H48.2561C48.5841 25.0092 48.8505 24.7396 48.8505 24.4076V23.043C48.8505 22.7111 48.5841 22.4415 48.2561 22.4415H35.6606Z" fill="#14FFD5"/>
<path d="M47.1888 28.4357C46.9918 28.4357 46.8322 28.2742 46.8322 28.0748V25.3701C46.8322 25.1707 46.9918 25.0092 47.1888 25.0092C47.3858 25.0092 47.5454 25.1707 47.5454 25.3701V28.0737C47.5454 28.2731 47.3858 28.4357 47.1888 28.4357Z" fill="#14FFD5"/>
<path d="M36.7269 28.4357C36.5298 28.4357 36.3702 28.2742 36.3702 28.0748V25.3701C36.3702 25.1707 36.5298 25.0092 36.7269 25.0092C36.9239 25.0092 37.0835 25.1707 37.0835 25.3701V28.0737C37.0835 28.2731 36.9239 28.4357 36.7269 28.4357Z" fill="#14FFD5"/>
<path d="M45.868 42.8492C44.8025 43.9253 43.0645 43.9253 42.0001 42.8492L40.0243 40.8496L43.8922 36.9352L45.868 38.9347C46.9313 40.0097 46.9313 41.7709 45.868 42.8492Z" fill="#FF8AA7"/>
<path d="M45.8678 42.8492C45.2833 43.4407 44.493 43.7058 43.7236 43.6479C43.6784 43.6434 43.6311 43.6379 43.586 43.6312C43.3978 43.61 43.2106 43.5666 43.0301 43.5009C42.9773 43.4841 42.9277 43.4652 42.8782 43.4429C42.7659 43.395 42.6548 43.3393 42.5502 43.277C42.3532 43.1611 42.1694 43.0196 42.0009 42.8492L40.0251 40.8496L43.8931 36.9352L45.8689 38.9347C46.9311 40.0097 46.9311 41.7709 45.8678 42.8492Z" fill="#FF8AA7"/>
<path d="M40.0251 41.2106C39.9338 41.2106 39.8424 41.1749 39.7731 41.1048C39.6333 40.9633 39.6333 40.7349 39.7731 40.5946L43.641 36.6801C43.7797 36.5386 44.0064 36.5386 44.1451 36.6801C44.2849 36.8216 44.2849 37.0499 44.1451 37.1903L40.2772 41.1048C40.2067 41.1749 40.1154 41.2106 40.0251 41.2106Z" fill="white"/>
<path d="M43.9338 44.0178C43.1423 44.0178 42.3509 43.7125 41.7477 43.1032L37.7972 39.1052C37.215 38.5159 36.8947 37.7306 36.8947 36.8929C36.8947 36.0552 37.215 35.2698 37.7972 34.6806C39.0025 33.4608 40.964 33.4608 42.1693 34.6806L46.1198 38.6786C47.3251 39.8983 47.3251 41.8834 46.1198 43.1032C45.5166 43.7136 44.7252 44.0178 43.9338 44.0178ZM39.9833 34.4878C39.3746 34.4878 38.7648 34.7229 38.3014 35.1919C37.8545 35.6441 37.6079 36.249 37.6079 36.894C37.6079 37.539 37.8545 38.1439 38.3014 38.5961L42.2519 42.5941C42.6988 43.0464 43.2964 43.2959 43.9338 43.2959C44.5711 43.2959 45.1688 43.0464 45.6157 42.5941C46.5425 41.6562 46.5425 40.1289 45.6157 39.191L41.6652 35.193C41.2007 34.7229 40.592 34.4878 39.9833 34.4878Z" fill="white"/>
<path d="M50.1978 32.4115H33.7574C33.5604 32.4115 33.4008 32.2499 33.4008 32.0505C33.4008 31.8511 33.5604 31.6896 33.7574 31.6896H50.1989C50.3959 31.6896 50.5555 31.8511 50.5555 32.0505C50.5544 32.2499 50.3948 32.4115 50.1978 32.4115Z" fill="#14FFD5"/>
<path d="M50.1978 46.3137H33.7574C33.5604 46.3137 33.4008 46.1521 33.4008 45.9527C33.4008 45.7534 33.5604 45.5918 33.7574 45.5918H50.1989C50.3959 45.5918 50.5555 45.7534 50.5555 45.9527C50.5555 46.1521 50.3948 46.3137 50.1978 46.3137Z" fill="#14FFD5"/>
<path d="M21.3031 19.5697C21.2415 19.5697 21.1798 19.5541 21.1248 19.5218L17.3647 17.324C17.2546 17.2594 17.1864 17.1402 17.1864 17.011V12.6186C17.1864 12.4894 17.2546 12.3702 17.3647 12.3056L21.1248 10.1089C21.2349 10.0443 21.3713 10.0443 21.4814 10.1089L25.2415 12.3056C25.3516 12.3702 25.4198 12.4894 25.4198 12.6186V17.0121C25.4198 17.1413 25.3516 17.2605 25.2415 17.3251L21.4814 19.5207C21.4264 19.553 21.3647 19.5697 21.3031 19.5697ZM17.8997 16.8038L21.3031 18.7922L24.7065 16.8038V12.8269L21.3031 10.8385L17.8997 12.8269V16.8038Z" fill="white"/>
<path d="M28.8219 19.5697C28.7603 19.5697 28.6986 19.5541 28.6436 19.5218L24.8835 17.3251C24.7734 17.2605 24.7052 17.1413 24.7052 17.0121V12.6186C24.7052 12.4894 24.7734 12.3702 24.8835 12.3056L28.6436 10.1089C28.7537 10.0443 28.8901 10.0443 29.0002 10.1089L32.7603 12.3056C32.8703 12.3702 32.9386 12.4894 32.9386 12.6186V17.0121C32.9386 17.1413 32.8703 17.2605 32.7603 17.3251L29.0002 19.5218C28.9452 19.553 28.8835 19.5697 28.8219 19.5697ZM25.4185 16.8038L28.8219 18.7922L32.2253 16.8038V12.8269L28.8219 10.8385L25.4185 12.8269V16.8038Z" fill="white"/>
<path d="M13.7837 19.5697C13.722 19.5697 13.6604 19.5541 13.6054 19.5218L9.84531 17.3251C9.73524 17.2605 9.66699 17.1413 9.66699 17.0121V12.6186C9.66699 12.4894 9.73524 12.3702 9.84531 12.3056L13.6054 10.1089C13.7154 10.0443 13.8519 10.0443 13.962 10.1089L17.7221 12.3056C17.8321 12.3702 17.9004 12.4894 17.9004 12.6186V17.0121C17.9004 17.1413 17.8321 17.2605 17.7221 17.3251L13.962 19.5218C13.907 19.553 13.8453 19.5697 13.7837 19.5697ZM10.3814 16.8038L13.7848 18.7922L17.1882 16.8038V12.8269L13.7848 10.8385L10.3814 12.8269V16.8038Z" fill="white"/>
<path d="M21.3038 22.4415C21.1067 22.4415 20.9471 22.2799 20.9471 22.0805V19.2088C20.9471 19.0094 21.1067 18.8478 21.3038 18.8478C21.5008 18.8478 21.6604 19.0094 21.6604 19.2088V22.0805C21.6604 22.2799 21.5008 22.4415 21.3038 22.4415Z" fill="white"/>
<path d="M42.0948 22.4015C41.8978 22.4015 41.7382 22.2399 41.7382 22.0405V16.9843C41.7382 16.7849 41.8978 16.6234 42.0948 16.6234C42.2918 16.6234 42.4514 16.7849 42.4514 16.9843V22.0405C42.4514 22.2399 42.2918 22.4015 42.0948 22.4015Z" fill="white"/>
<path d="M39.9217 15.1685H32.5821C32.3851 15.1685 32.2255 15.0069 32.2255 14.8075C32.2255 14.6081 32.3851 14.4466 32.5821 14.4466H39.9217C40.1187 14.4466 40.2783 14.6081 40.2783 14.8075C40.2783 15.0069 40.1187 15.1685 39.9217 15.1685Z" fill="white"/>
<path d="M41.98 17.3463C40.6482 17.3463 39.564 16.249 39.564 14.9011C39.564 13.5532 40.6482 12.456 41.98 12.456C43.3119 12.456 44.3961 13.5532 44.3961 14.9011C44.3961 16.249 43.3119 17.3463 41.98 17.3463ZM41.98 13.1778C41.0411 13.1778 40.2772 13.9509 40.2772 14.9011C40.2772 15.8513 41.0411 16.6244 41.98 16.6244C42.919 16.6244 43.6829 15.8513 43.6829 14.9011C43.6829 13.9509 42.919 13.1778 41.98 13.1778Z" fill="white"/>
</svg>
