<svg width="30" height="31" viewBox="0 0 30 31" fill="none" xmlns="http://www.w3.org/2000/svg">
<path d="M12.9627 9.28716L13.241 9.98362H13.241L12.9627 9.28716ZM14.0504 8.1554L14.7543 8.41429L14.7543 8.41429L14.0504 8.1554ZM12.1147 12.8272L12.5989 12.2544L12.1147 12.8272ZM12.6097 9.42822L12.3314 8.73176L12.3314 8.73176L12.6097 9.42822ZM13.1247 14.5121L12.3761 14.5581V14.5581L13.1247 14.5121ZM12.4107 13.0774L11.9266 13.6502L12.4107 13.0774ZM12.9917 13.6769L12.3202 14.011L12.9917 13.6769ZM16.1191 16.481L16.5352 17.105L16.1191 16.481ZM13.1488 14.9054L13.8974 14.8594L13.1488 14.9054ZM17.9658 16.0241L18.1661 15.3013L18.1661 15.3013L17.9658 16.0241ZM16.4369 16.2691L16.0208 15.6451L16.4369 16.2691ZM20.6644 13.7008L21.39 13.5111L21.39 13.5111L20.6644 13.7008ZM18.3337 16.126L18.1333 16.8488L18.1333 16.8488L18.3337 16.126ZM20.7958 11.7335L20.1571 11.3404L20.1571 11.3404L20.7958 11.7335ZM20.5648 13.3197L19.8392 13.5094L19.8392 13.5094L20.5648 13.3197ZM19.4692 8.32882L19.4225 9.07736L19.4692 8.32882ZM20.999 11.4033L21.6377 11.7964L21.6377 11.7964L20.999 11.4033ZM17.7037 7.56986L18.2917 7.10432V7.10432L17.7037 7.56986ZM19.0898 8.30514L19.1366 7.55659L19.0898 8.30514ZM17.4614 7.26379L16.8734 7.72933L16.8734 7.72933L17.4614 7.26379ZM14.1852 7.78888L13.4813 7.53L13.4813 7.53L14.1852 7.78888ZM10.8892 11.4142C11.2236 11.1696 11.2963 10.7004 11.0518 10.3661C10.8073 10.0317 10.338 9.95895 10.0037 10.2035L10.8892 11.4142ZM7.24844 21.5681L6.50784 21.6864C6.56226 22.0269 6.84172 22.2863 7.18523 22.3154C7.52874 22.3444 7.84781 22.1356 7.95863 21.8091L7.24844 21.5681ZM13.5305 17.0066C13.923 16.8742 14.1339 16.4488 14.0015 16.0563C13.8691 15.6638 13.4436 15.4529 13.0511 15.5853L13.5305 17.0066ZM16.8734 7.72933L17.1157 8.03541L18.2917 7.10432L18.0494 6.79825L16.8734 7.72933ZM19.0431 9.05368L19.4225 9.07736L19.5159 7.58028L19.1366 7.55659L19.0431 9.05368ZM20.3603 11.0102L20.1571 11.3404L21.4345 12.1266L21.6377 11.7964L20.3603 11.0102ZM19.8392 13.5094L19.9388 13.8905L21.39 13.5111L21.2904 13.13L19.8392 13.5094ZM18.534 15.4033L18.1661 15.3013L17.7654 16.7468L18.1333 16.8488L18.534 15.4033ZM16.0208 15.6451L15.703 15.857L16.5352 17.105L16.853 16.8931L16.0208 15.6451ZM13.8974 14.8594L13.8732 14.4662L12.3761 14.5581L12.4002 14.9514L13.8974 14.8594ZM12.8949 12.5046L12.5989 12.2544L11.6306 13.4L11.9266 13.6502L12.8949 12.5046ZM12.888 10.1247L13.241 9.98362L12.6844 8.59071L12.3314 8.73176L12.888 10.1247ZM14.7543 8.41429L14.8891 8.04777L13.4813 7.53L13.3465 7.89652L14.7543 8.41429ZM13.241 9.98362C13.5675 9.85317 13.947 9.71816 14.227 9.42671L13.1455 8.38733C13.1536 8.3789 13.15 8.3893 13.0819 8.42325C13.0013 8.46345 12.8894 8.5088 12.6844 8.59071L13.241 9.98362ZM13.3465 7.89652C13.2685 8.10857 13.2242 8.2273 13.1846 8.31348C13.1502 8.38836 13.1382 8.39491 13.1455 8.38733L14.227 9.42671C14.5036 9.13896 14.6292 8.75425 14.7543 8.41429L13.3465 7.89652ZM12.5989 12.2544C12.0078 11.7548 11.6307 11.4335 11.4001 11.1723C11.2902 11.0478 11.2464 10.9721 11.2298 10.9334C11.2227 10.9168 11.2223 10.9108 11.2227 10.9133C11.2231 10.9164 11.2229 10.9196 11.2229 10.9194L9.73856 10.7032C9.64963 11.3139 9.94834 11.7942 10.2755 12.1649C10.5964 12.5285 11.0775 12.9325 11.6306 13.4L12.5989 12.2544ZM12.3314 8.73176C11.6733 8.99472 11.0965 9.22291 10.6838 9.46599C10.2589 9.71626 9.82855 10.0852 9.73856 10.7032L11.2229 10.9194C11.2229 10.9192 11.2221 10.9236 11.2196 10.9289C11.2174 10.9336 11.2177 10.9309 11.2269 10.9201C11.2492 10.8939 11.3076 10.8395 11.445 10.7585C11.7351 10.5876 12.1816 10.4069 12.888 10.1247L12.3314 8.73176ZM13.8732 14.4662C13.8506 14.0973 13.84 13.6982 13.6631 13.3428L12.3202 14.011C12.3203 14.0112 12.3221 14.0145 12.3252 14.0258C12.3288 14.0388 12.3343 14.063 12.3403 14.1062C12.3537 14.2024 12.3621 14.331 12.3761 14.5581L13.8732 14.4662ZM11.9266 13.6502C12.0979 13.795 12.1932 13.8763 12.2602 13.9427C12.29 13.9722 12.3051 13.9901 12.3125 13.9998C12.3189 14.0081 12.3201 14.0109 12.3202 14.011L13.6631 13.3428C13.485 12.9848 13.1721 12.7389 12.8949 12.5046L11.9266 13.6502ZM15.703 15.857C15.0671 16.281 14.663 16.5479 14.3586 16.6899C14.0629 16.8278 14.0671 16.7492 14.1343 16.7849L13.4314 18.11C13.9926 18.4077 14.5508 18.2554 14.9926 18.0493C15.4258 17.8473 15.9429 17.4999 16.5352 17.105L15.703 15.857ZM12.4002 14.9514C12.4454 15.6871 12.4826 16.3218 12.5811 16.7996C12.68 17.2794 12.8819 17.8185 13.4314 18.11L14.1343 16.7849C14.1899 16.8144 14.1214 16.8425 14.0502 16.4968C13.9785 16.1491 13.9456 15.6437 13.8974 14.8594L12.4002 14.9514ZM18.1661 15.3013C17.8282 15.2076 17.4402 15.0835 17.0413 15.1475L17.2787 16.6286C17.2632 16.631 17.2702 16.6244 17.3458 16.6388C17.4345 16.6557 17.5518 16.6876 17.7654 16.7468L18.1661 15.3013ZM16.853 16.8931C17.0374 16.7701 17.1389 16.7031 17.218 16.6593C17.2854 16.6219 17.2941 16.6261 17.2787 16.6286L17.0413 15.1475C16.6425 15.2114 16.3126 15.4505 16.0208 15.6451L16.853 16.8931ZM19.9388 13.8905C20.1375 14.6507 20.2638 15.1411 20.3041 15.4938C20.3441 15.8445 20.2705 15.8394 20.3138 15.7944L21.3953 16.8338C21.8262 16.3854 21.85 15.8104 21.7944 15.3236C21.739 14.8388 21.5764 14.2242 21.39 13.5111L19.9388 13.8905ZM18.1333 16.8488C18.8192 17.0389 19.4187 17.2073 19.8933 17.2639C20.3776 17.3216 20.9552 17.2917 21.3953 16.8338L20.3138 15.7944C20.3663 15.7397 20.3945 15.813 20.0708 15.7744C19.7374 15.7347 19.2704 15.6074 18.534 15.4033L18.1333 16.8488ZM20.1571 11.3404C19.9667 11.6497 19.7462 11.9809 19.6886 12.3765L21.1729 12.5927C21.173 12.5925 21.1733 12.5894 21.1767 12.5795C21.1808 12.5679 21.1896 12.5462 21.2087 12.5088C21.2516 12.4247 21.3169 12.3177 21.4345 12.1266L20.1571 11.3404ZM21.2904 13.13C21.2329 12.9099 21.2008 12.7851 21.1835 12.6894C21.1757 12.6465 21.1734 12.6219 21.1728 12.6084C21.1722 12.5966 21.1729 12.5929 21.1729 12.5927L19.6886 12.3765C19.6314 12.7693 19.7457 13.1518 19.8392 13.5094L21.2904 13.13ZM19.4225 9.07736C20.1815 9.12475 20.6621 9.15688 20.9908 9.22851C21.1467 9.26246 21.219 9.29595 21.2482 9.31374C21.2603 9.32108 21.2613 9.32358 21.2577 9.3197C21.2536 9.31539 21.2514 9.31136 21.2515 9.31152L22.5944 8.64328C22.3161 8.08401 21.7919 7.86786 21.3102 7.76289C20.8422 7.66094 20.2231 7.62442 19.5159 7.58028L19.4225 9.07736ZM21.6377 11.7964C22.0175 11.1793 22.3485 10.6452 22.54 10.1995C22.7352 9.74535 22.8693 9.19575 22.5944 8.64328L21.2515 9.31152C21.2515 9.31166 21.2503 9.30871 21.2498 9.30558C21.2493 9.30313 21.2508 9.30892 21.2493 9.32703C21.2456 9.36905 21.2275 9.4547 21.1619 9.60731C21.0242 9.92765 20.7661 10.3508 20.3603 11.0102L21.6377 11.7964ZM17.1157 8.03541C17.3404 8.31923 17.5798 8.64564 17.9325 8.83269L18.6354 7.50758C18.6448 7.51257 18.6315 7.51016 18.5754 7.44982C18.511 7.38036 18.4319 7.28142 18.2917 7.10432L17.1157 8.03541ZM19.1366 7.55659C18.9163 7.54284 18.7959 7.53474 18.7068 7.52174C18.6316 7.51076 18.6249 7.50205 18.6354 7.50758L17.9325 8.83269C18.2896 9.02214 18.6924 9.03179 19.0431 9.05368L19.1366 7.55659ZM18.0494 6.79825C17.5967 6.22642 17.2058 5.72948 16.8539 5.39793C16.5009 5.06527 16.0186 4.73567 15.3929 4.83595L15.6303 6.31705C15.5494 6.33001 15.5736 6.25252 15.8252 6.48957C16.0779 6.72772 16.3894 7.11809 16.8734 7.72933L18.0494 6.79825ZM14.8891 8.04777C15.1583 7.31585 15.3326 6.84755 15.4985 6.54224C15.6636 6.23827 15.711 6.30412 15.6303 6.31705L15.3929 4.83595C14.7674 4.93621 14.412 5.39989 14.1805 5.82611C13.9496 6.25099 13.7331 6.84521 13.4813 7.53L14.8891 8.04777ZM10.0037 10.2035C7.39707 12.1101 5.54807 15.6826 6.50784 21.6864L7.98903 21.4497C7.09936 15.8843 8.82582 12.9235 10.8892 11.4142L10.0037 10.2035ZM7.95863 21.8091C8.67516 19.6985 10.9019 17.8931 13.5305 17.0066L13.0511 15.5853C10.1671 16.5579 7.45886 18.6151 6.53824 21.327L7.95863 21.8091Z" fill="#FFAA5C"/>
<path d="M13.2808 19.5681C13.2808 19.5681 13.9135 20.9589 14.6935 21.4372C15.4735 21.9155 17 21.8489 17 21.8489C17 21.8489 15.6092 22.4816 15.1308 23.2615C14.6525 24.0415 14.7192 25.5681 14.7192 25.5681C14.7192 25.5681 14.0865 24.1772 13.3065 23.6989C12.5265 23.2206 11 23.2872 11 23.2872C11 23.2872 12.3908 22.6546 12.8692 21.8746C13.3475 21.0946 13.2808 19.5681 13.2808 19.5681Z" stroke="#FFAA5C" stroke-linejoin="round"/>
<path d="M21.4795 18.5681C21.4795 18.5681 21.0577 19.4953 20.5377 19.8142C20.0177 20.133 19 20.0886 19 20.0886C19 20.0886 19.9272 20.5104 20.2461 21.0304C20.565 21.5504 20.5205 22.5681 20.5205 22.5681C20.5205 22.5681 20.9423 21.6408 21.4623 21.3219C21.9823 21.0031 23 21.0475 23 21.0475C23 21.0475 22.0728 20.6257 21.7539 20.1057C21.435 19.5857 21.4795 18.5681 21.4795 18.5681Z" stroke="#FFAA5C" stroke-linejoin="round"/>
</svg>
