<svg width="52" height="53" viewBox="0 0 52 53" fill="none" xmlns="http://www.w3.org/2000/svg">
<path fill-rule="evenodd" clip-rule="evenodd" d="M32.2864 46.2331C31.2336 46.2331 30.3777 47.099 30.3777 48.1643C30.3777 49.2301 31.2336 50.096 32.2864 50.096C33.3392 50.096 34.1946 49.2302 34.1946 48.1643C34.1947 47.099 33.3392 46.2331 32.2864 46.2331ZM19.1635 9.85861L18.1604 9.20145L21.1491 4.52207C21.2587 4.34949 21.448 4.24566 21.6508 4.24566H29.2405C29.5199 2.80129 30.7794 1.70844 32.2865 1.70844C33.9975 1.70844 35.3899 3.11762 35.3899 4.8506C35.3899 6.58267 33.9975 7.99186 32.2865 7.99186C30.7795 7.99186 29.5201 6.89921 29.2406 5.45565H21.9755L19.1635 9.85861ZM40.0037 15.7569C40.2061 15.7569 40.3954 15.6531 40.5051 15.4796L41.8405 13.3897C42.1968 13.5342 42.5855 13.6138 42.9923 13.6138C44.7033 13.6138 46.0962 12.2046 46.0962 10.4725C46.0962 8.73955 44.7033 7.33036 42.9923 7.33036C41.2799 7.33036 39.8875 8.73955 39.8875 10.4725C39.8875 11.3588 40.2522 12.1604 40.8377 12.7321L39.6785 14.5474H30.9128V15.7569H40.0037ZM44.1461 27.1119H35.438V25.9023H44.1462C44.4257 24.4587 45.6852 23.3661 47.193 23.3661C48.904 23.3661 50.2969 24.7753 50.2969 26.5073C50.2969 28.2398 48.904 29.649 47.193 29.649C45.685 29.649 44.4254 28.5561 44.1461 27.1119ZM40.8377 40.2831L39.6786 38.468H30.9128V37.258H40.0037C40.2061 37.258 40.3954 37.3633 40.5051 37.5354L41.8406 39.6253C42.1969 39.4807 42.5856 39.4011 42.9924 39.4011C44.7034 39.4011 46.0963 40.8108 46.0963 42.5424C46.0963 44.2753 44.7034 45.6845 42.9924 45.6845C41.28 45.6845 39.8876 44.2754 39.8876 42.5424C39.8876 41.6564 40.2522 40.8548 40.8377 40.2831ZM29.2405 48.7693H23.6433C23.4915 48.7693 23.3463 48.712 23.2366 48.6082L18.2554 43.9284L19.0692 43.0417L23.8771 47.5598H29.2404C29.5198 46.1163 30.7793 45.023 32.2864 45.023C33.9974 45.023 35.3898 46.4327 35.3898 48.1643C35.3898 49.8964 33.9974 51.3055 32.2864 51.3055C30.7794 51.3055 29.52 50.2129 29.2405 48.7693ZM32.2864 2.91812C31.2336 2.91812 30.3777 3.78537 30.3777 4.8507C30.3777 5.91603 31.2336 6.78187 32.2864 6.78187C33.3392 6.78187 34.1946 5.91603 34.1946 4.8507C34.1946 3.78537 33.3392 2.91812 32.2864 2.91812ZM42.9923 8.54005C44.0441 8.54005 44.9005 9.40729 44.9005 10.4726C44.9005 11.5371 44.0441 12.4043 42.9923 12.4043C41.9395 12.4043 41.0827 11.5371 41.0827 10.4726C41.0827 9.40719 41.9396 8.54005 42.9923 8.54005ZM47.193 24.5757C46.1398 24.5757 45.2833 25.4429 45.2833 26.5073C45.2833 27.5728 46.1398 28.4394 47.193 28.4394C48.2448 28.4394 49.1013 27.5727 49.1013 26.5073C49.1013 25.4428 48.2448 24.5757 47.193 24.5757ZM42.9923 40.6112C41.9395 40.6112 41.0827 41.4779 41.0827 42.5424C41.0827 43.6082 41.9396 44.4749 42.9923 44.4749C44.0441 44.4749 44.9005 43.6082 44.9005 42.5424C44.9006 41.4779 44.0442 40.6112 42.9923 40.6112Z" fill="#14FFD5"/>
<path fill-rule="evenodd" clip-rule="evenodd" d="M18.0652 10.1789C16.1616 10.4582 14.3661 12.0685 12.9552 14.7841C12.6903 15.2938 12.445 15.8316 12.2199 16.3937C14.1038 16.7908 16.0664 17.0126 18.0652 17.0495V10.1789ZM11.7994 17.5403C10.9702 20.0201 10.5016 22.8889 10.4462 25.9023H18.0651V18.26C15.9223 18.2216 13.8175 17.9782 11.7994 17.5403ZM10.4463 27.1119C10.5016 30.126 10.9702 32.9952 11.7994 35.4749C13.8175 35.037 15.9223 34.7935 18.0652 34.7551V27.1119H10.4463ZM12.2199 36.6216C12.4451 37.1836 12.6904 37.7213 12.9552 38.231C14.3661 40.9466 16.1616 42.5572 18.0652 42.8366V35.966C16.0664 36.0027 14.1037 36.2243 12.2199 36.6216ZM19.2603 42.8365C21.1634 42.5569 22.9581 40.9463 24.369 38.231C24.6338 37.7216 24.8791 37.1842 25.1042 36.6225C23.2186 36.2249 21.2552 36.0028 19.2604 35.966L19.2603 42.8365ZM25.5248 35.4759C26.3542 32.9959 26.8227 30.1264 26.878 27.1119H19.2604V34.7551C21.3996 34.7936 23.5052 35.0376 25.5248 35.4759ZM26.878 25.9023C26.8226 22.8886 26.3542 20.0195 25.5248 17.5396C23.5057 17.9777 21.4002 18.2215 19.2604 18.2601V25.9024L26.878 25.9023ZM25.1043 16.3931C24.8791 15.8312 24.6339 15.2937 24.369 14.7841C22.9581 12.0688 21.1634 10.4586 19.2603 10.179V17.0495C21.2563 17.0125 23.2194 16.7905 25.1043 16.3931ZM11.0413 36.8955C11.3005 37.5604 11.5861 38.1947 11.8972 38.7933C12.6638 40.2697 13.5481 41.459 14.514 42.3339C11.7467 41.5905 9.26872 40.1211 7.29088 38.1411C8.48799 37.6423 9.74296 37.2261 11.0413 36.8955ZM6.42049 37.1988C4.09053 34.4706 2.63434 30.9586 2.49559 27.1119H9.25099C9.30598 30.2112 9.78351 33.1729 10.6315 35.7526C9.16872 36.1311 7.75855 36.6147 6.42049 37.1988ZM2.49559 25.9023C2.63444 22.0556 4.09113 18.5439 6.42099 15.8158C7.75894 16.4002 9.16901 16.8838 10.6315 17.2626C9.7837 19.8422 9.30608 22.8035 9.25099 25.9023H2.49559ZM7.29038 14.8748C9.26813 12.8945 11.7464 11.4252 14.514 10.6816C13.548 11.5565 12.6638 12.7457 11.8972 14.2218C11.586 14.8205 11.3005 15.4549 11.0412 16.1199C9.74276 15.7893 8.48759 15.3733 7.29038 14.8748ZM26.2829 16.1192C26.0238 15.4545 25.7383 14.8203 25.4274 14.2217C24.6605 12.7455 23.7762 11.5563 22.8104 10.6814C25.5778 11.4249 28.0558 12.8943 30.0338 14.8746C28.8372 15.3728 27.5816 15.7887 26.2829 16.1192ZM30.9035 15.8161C33.2333 18.544 34.6896 22.0557 34.8285 25.9023H28.0731C28.018 22.8032 27.5404 19.8417 26.6925 17.2619C28.1557 16.8833 29.5663 16.4 30.9035 15.8161ZM34.8286 27.1119C34.6899 30.959 33.2331 34.471 30.9033 37.1994C29.5662 36.6156 28.1556 36.1322 26.6926 35.7535C27.5405 33.1735 28.0182 30.2116 28.0732 27.1119H34.8286ZM30.0333 38.1411C28.0557 40.1213 25.5776 41.5905 22.8104 42.334C23.7763 41.4591 24.6606 40.2697 25.4275 38.7933C25.7384 38.1949 26.0238 37.5609 26.2829 36.8964C27.5816 37.2269 28.8372 37.6429 30.0333 38.1411ZM18.5327 44.0884C9.01183 44.0174 1.28882 36.1587 1.28882 26.5073C1.28882 16.8565 9.01183 8.99822 18.5327 8.92725C18.5759 8.92614 18.6192 8.92554 18.6625 8.92554C18.7058 8.92554 18.749 8.92614 18.7923 8.92725C28.3122 8.99822 36.0353 16.8565 36.0353 26.5073C36.0353 36.1587 28.3122 44.0174 18.7923 44.0885C18.749 44.0895 18.7058 44.0902 18.6625 44.0902C18.6192 44.0901 18.5759 44.0895 18.5327 44.0884Z" fill="white"/>
</svg>
