<svg width="51" height="51" viewBox="0 0 51 51" fill="none" xmlns="http://www.w3.org/2000/svg">
<path fill-rule="evenodd" clip-rule="evenodd" d="M26.421 7.15028C22.8676 7.03194 19.2776 8.00139 16.1782 10.0703C12.6971 12.3964 10.2643 15.8314 9.14374 19.6714C8.8343 19.6336 8.46374 19.6503 8.02374 19.7747C6.38097 20.2408 5.14541 21.5869 4.58985 22.7725C3.8693 24.3175 3.56541 26.3608 3.88597 28.4703C4.2043 30.5731 5.09263 32.3064 6.20374 33.3825C7.31819 34.4592 8.57652 34.8092 9.82652 34.5464C11.6876 34.1492 12.6104 33.8519 12.3499 32.1181L11.0882 23.7131C11.3426 19.1642 13.6976 14.8819 17.6365 12.2486C22.9087 8.72694 29.821 8.9525 34.8499 12.8131C38.3482 15.4953 40.3793 19.5142 40.6137 23.7331L39.7315 29.6125C37.7637 34.9975 32.8854 38.7275 27.2404 39.257H23.4815C22.5115 39.257 21.7304 40.0381 21.7304 41.007V41.9303C21.7304 42.8997 22.5115 43.6808 23.4815 43.6808H28.221C29.1904 43.6808 29.9682 42.8997 29.9682 41.9303V41.4475C34.2249 40.4086 37.9404 37.7925 40.3599 34.1442L41.8782 34.5469C43.1137 34.8675 44.3871 34.4592 45.501 33.3831C46.6121 32.3064 47.4999 30.5736 47.8187 28.4708C48.1404 26.3614 47.8276 24.3214 47.1154 22.7731C46.4004 21.2247 45.3354 20.2414 44.106 19.8886C43.591 19.7403 43.0321 19.6858 42.5526 19.6714C41.5393 16.1992 39.4532 13.0414 36.4465 10.7358C33.4904 8.4675 29.9743 7.26694 26.421 7.15028Z" fill="white"/>
<path fill-rule="evenodd" clip-rule="evenodd" d="M31.9683 22.2713C33.2211 22.2713 34.2366 23.2869 34.2394 24.543C34.2366 25.7958 33.2211 26.8141 31.9683 26.8141C30.7122 26.8141 29.6939 25.7958 29.6939 24.543C29.6939 23.2874 30.7128 22.2713 31.9683 22.2713ZM25.8516 22.2713C27.1072 22.2713 28.1228 23.2869 28.1228 24.543C28.1228 25.7958 27.1072 26.8141 25.8516 26.8141C24.595 26.8141 23.5794 25.7958 23.5794 24.543C23.5794 23.2874 24.595 22.2713 25.8516 22.2713ZM19.7372 22.2713C20.99 22.2713 22.0083 23.2869 22.0083 24.543C22.0083 25.7958 20.99 26.8141 19.7372 26.8141C18.4816 26.8141 17.4655 25.7958 17.4655 24.543C17.4655 23.2874 18.4816 22.2713 19.7372 22.2713ZM25.8516 12.5146C19.1905 12.5146 13.8228 17.7058 13.8228 24.543C13.8228 27.8269 15.0644 30.7291 17.0872 32.8585L16.3694 36.0763C16.1328 37.1352 16.8672 37.8474 17.8189 37.3174L20.9611 35.5646C22.4544 36.213 24.1061 36.5713 25.8516 36.5713C32.515 36.5713 37.8794 31.3835 37.8794 24.543C37.8794 17.7058 32.515 12.5146 25.8516 12.5146Z" fill="white"/>
</svg>
