<svg width="43" height="43" viewBox="0 0 43 43" fill="none" xmlns="http://www.w3.org/2000/svg">
<g clip-path="url(#clip0_4_1494)">
<path d="M17.2127 22.8983L8.64434 28.6862H6.19824L17.0713 22.2585L17.2127 22.8983Z" fill="#6E7A82"/>
<path d="M20.8043 20.3825C22.2668 19.6263 23.7677 18.9515 25.3006 18.3611C24.226 18.8701 20.9457 20.6588 20.9457 20.6588L20.8043 20.3825Z" fill="#6E7A82"/>
<path d="M7.18815 25.4866C7.18815 25.4866 5.80251 23.1889 5.50558 22.3891C5.15643 21.6575 4.86333 20.899 4.62895 20.1205C4.36568 19.1663 4.16725 18.1945 4.0351 17.212C3.95026 16.354 4.0351 15.9904 4.57239 15.7578C4.81792 15.6462 5.08924 15.6089 5.35465 15.6501C5.62005 15.6913 5.86857 15.8093 6.07115 15.9904C6.47235 16.3811 6.80692 16.8383 7.0609 17.3429C7.27299 17.8228 7.75373 19.1025 7.95168 19.7424C8.24753 20.4733 8.61718 21.1703 9.05454 21.8219C9.28077 22.1855 10.214 23.3634 10.214 23.3634C9.64326 22.5937 9.25586 21.6972 9.08282 20.7458C8.87763 19.6342 8.79228 18.5028 8.82831 17.372C8.79493 16.4514 8.91447 15.5318 9.18179 14.6525C9.29534 14.5464 9.43046 14.4677 9.57732 14.4221C9.72418 14.3764 9.87909 14.365 10.0308 14.3887C10.1825 14.4124 10.3271 14.4705 10.4542 14.5589C10.5812 14.6474 10.6876 14.7638 10.7654 14.8998C11.1232 15.4762 11.3324 16.1368 11.3734 16.8194C11.3076 17.6531 11.3696 18.4922 11.5572 19.3061C11.8211 20.1983 12.1618 21.0646 12.5752 21.8946C12.759 22.0982 12.4762 21.0657 12.5752 19.8296C12.5985 18.6726 12.7168 17.5197 12.9287 16.3831C13.1549 15.4815 13.3529 15.2197 13.9326 15.2197C14.5123 15.2197 14.7809 15.5833 14.8234 16.2231C14.8658 16.863 14.8234 19.5969 14.8234 20.1205C14.813 20.5453 14.851 20.9699 14.9365 21.3857C14.9978 21.4761 15.069 21.559 15.1486 21.6329L15.8838 21.2693C15.5984 19.991 15.5505 18.6686 15.7424 17.372C16.0959 15.7868 17.1563 16.4413 17.2977 17.1538C17.3667 17.494 17.4093 17.8392 17.425 18.1863C17.425 18.1863 16.2797 18.5354 16.1949 19.0152C16.208 19.6507 16.3031 20.2815 16.4777 20.8912L7.18815 25.4866Z" fill="#6E7A82"/>
<path d="M18.5702 27.5516C18.5702 27.5516 18.4147 26.7372 18.2733 26.2137C18.2733 26.0101 18.1319 25.792 18.0471 25.5738C17.9622 25.3557 18.0471 25.5738 18.0471 25.5011C18.0532 25.4724 18.0532 25.4426 18.0471 25.4139C17.9381 25.1645 17.8483 24.9068 17.7784 24.6431C17.7718 24.5998 17.7718 24.5556 17.7784 24.5122C17.5466 23.5246 17.2538 22.5531 16.9018 21.6038C16.6614 21.0075 16.2514 19.6405 16.5342 19.1461C16.7449 18.9362 16.9946 18.7722 17.2685 18.664C17.5423 18.5558 17.8346 18.5056 18.1277 18.5165C18.4209 18.5273 18.7089 18.599 18.9745 18.7272C19.24 18.8554 19.4777 19.0374 19.6731 19.2624C20.7536 20.395 21.4693 21.8419 21.7233 23.407C22.0256 24.265 22.3846 25.1007 22.7979 25.9083C23.7753 26.4497 24.7197 27.0519 25.6257 27.7115C26.3751 28.2642 26.7003 28.6423 26.771 28.5695C27.0969 28.3686 27.4372 28.1936 27.789 28.046L28.2698 28.8168H16.0393L17.326 27.3625L17.4957 27.6388C17.8371 27.4991 18.2117 27.4687 18.5702 27.5516Z" fill="#6E7A82"/>
<path d="M26.46 27.0426C25.9574 26.9243 25.4354 26.9243 24.9329 27.0426C25.5206 27.3967 26.0787 27.8004 26.6014 28.2496L26.8417 28.1333C26.657 27.7938 26.528 27.4253 26.46 27.0426Z" fill="#6E7A82"/>
<path d="M30.4049 28.6861H28.3972L27.7609 27.7118L26.9408 28.1044C26.6925 27.4611 26.5308 26.7859 26.4601 26.0976C26.3656 25.3683 26.4582 24.6264 26.7287 23.9453C27.0257 23.5672 27.3791 23.0873 27.464 23.16C27.7286 23.4443 27.9698 23.7508 28.1851 24.0762L29.0193 25.6758C29.1183 25.8358 29.3304 26.3157 29.4152 26.5048C29.5854 26.8146 29.7365 27.1352 29.8676 27.4646C29.9541 27.7588 30.0628 28.0457 30.1928 28.3226C30.2511 28.451 30.3222 28.5728 30.4049 28.6861Z" fill="#6E7A82"/>
<path d="M27.478 23.1016C27.6232 23.1655 27.757 23.254 27.8739 23.3634C28.0125 23.4472 28.1594 23.5154 28.3122 23.567C28.3122 23.567 28.4253 23.567 28.4253 23.7124C28.4253 23.8578 28.4253 23.5234 28.4253 23.916C28.4874 24.1787 28.6085 24.4227 28.7788 24.6286C28.7788 24.7595 28.9626 24.9194 29.0333 25.0939C29.0903 25.2787 29.1711 25.4548 29.2737 25.6175C29.4168 25.7559 29.5363 25.9182 29.6271 26.0974C29.6271 26.1992 29.4575 26.3155 29.6271 26.3446C29.7968 26.3737 29.9806 26.3446 29.9806 26.1846C29.983 26.0404 29.9437 25.8986 29.8675 25.7774C29.7795 25.5872 29.6803 25.4027 29.5706 25.2248C29.4433 25.0358 29.4433 24.8903 29.3019 24.7304C29.1651 24.5433 29.0377 24.3492 28.9202 24.1487C28.9202 24.0033 28.8212 23.6688 28.7222 23.6106C28.6232 23.5525 28.496 23.1598 28.4253 23.1016L28.1708 22.8399H27.987C27.987 22.8399 27.7749 22.709 27.6476 22.8399C27.5759 22.9156 27.5184 23.0044 27.478 23.1016Z" fill="#6E7A82"/>
<path d="M31.9743 28.6859C31.9418 28.6945 31.9078 28.6945 31.8753 28.6859L31.7056 28.5114C31.6162 28.3894 31.493 28.2981 31.3521 28.2496C31.239 28.2496 30.9563 28.2496 30.9563 28.1478C30.9633 28.1048 30.9592 28.0606 30.9443 28.0197C30.9294 27.9789 30.9043 27.9428 30.8714 27.9151C30.7636 27.8447 30.668 27.7562 30.5886 27.6534C30.5038 27.5516 30.5886 27.2171 30.5886 26.9408C30.5838 26.8303 30.5576 26.7219 30.5115 26.622C30.4653 26.5221 30.4002 26.4327 30.32 26.3591C30.3113 26.3072 30.319 26.2539 30.3419 26.2068C30.3648 26.1597 30.4017 26.1214 30.4472 26.0974C30.5886 26.0974 30.5179 26.0974 30.5886 26.1846C30.6593 26.2719 30.8997 26.6209 31.0976 26.8826C31.2015 27.0313 31.296 27.1868 31.3804 27.348C31.4623 27.4914 31.5675 27.6193 31.6915 27.7261C31.872 27.9089 32.0077 28.1332 32.0874 28.3805C32.104 28.4073 32.1143 28.4377 32.1174 28.4693C32.1205 28.5009 32.1165 28.5328 32.1055 28.5624C32.0945 28.5921 32.0769 28.6187 32.0541 28.6402C32.0313 28.6616 32.004 28.6773 31.9743 28.6859Z" fill="#6E7A82"/>
<path d="M28.6657 22.6363C28.7052 22.8339 28.782 23.0217 28.8919 23.1889C29.039 23.3063 29.1596 23.4552 29.2454 23.6252L29.5564 24.2505C29.6554 24.425 29.8675 24.5413 29.9806 24.7304C30.0937 24.9194 30.3624 25.1521 30.4472 25.2975C30.5321 25.443 30.6452 25.4284 30.6593 25.6611C30.6734 25.8938 30.8007 26.0392 30.6593 26.0537C30.5179 26.0683 30.5038 26.2137 30.2775 26.0537C30.0945 25.9019 29.9491 25.7075 29.8534 25.4866C29.7147 25.1959 29.5589 24.9142 29.3868 24.6431C29.2818 24.498 29.1918 24.342 29.1181 24.1778C29.0333 24.0033 29.0192 23.6543 28.9343 23.5961C28.8109 23.4738 28.7018 23.3372 28.6091 23.1889C28.5448 23.0419 28.448 22.9124 28.3263 22.8108C28.2415 22.8108 28.0718 22.6799 28.1142 22.6363C28.1567 22.5927 28.1142 22.6363 28.2274 22.6363C28.3405 22.6363 28.6091 22.4327 28.6657 22.6363Z" fill="#6E7A82"/>
<path d="M33.6286 28.6859H32.8933C32.7133 28.505 32.5522 28.3051 32.4126 28.0897C32.3001 27.9234 32.2408 27.7251 32.2429 27.5225C32.2681 27.4861 32.3025 27.4574 32.3423 27.4395C32.3822 27.4215 32.426 27.4151 32.4691 27.4207C32.5398 27.4207 32.5964 27.4207 32.7095 27.5952C32.797 27.7557 32.912 27.8986 33.0489 28.017C33.1661 28.0974 33.2709 28.1955 33.3599 28.3078C33.424 28.4136 33.4999 28.5112 33.5861 28.5987C33.6088 28.6225 33.6236 28.653 33.6286 28.6859Z" fill="#6E7A82"/>
<path d="M28.892 22.6215C28.9965 22.7784 29.1098 22.9289 29.2313 23.0723C29.4152 23.2468 29.8111 23.4068 29.8535 23.5667C29.8959 23.7267 29.8535 23.9157 29.9807 24.0612C30.151 24.1723 30.3077 24.3042 30.4473 24.4538C30.6029 24.6574 30.7867 24.8174 30.8715 24.9337C30.9726 25.0525 31.0812 25.1642 31.1967 25.2682C31.3522 25.4572 31.4795 25.6463 31.6067 25.7772C31.734 25.908 31.9178 25.9226 31.932 26.1407C31.9461 26.3589 31.932 26.4752 31.932 26.5188C31.8508 26.5512 31.7623 26.5588 31.677 26.5408C31.5917 26.5227 31.5133 26.4798 31.4512 26.417L30.9846 25.7772C30.8456 25.5877 30.6944 25.4079 30.5322 25.2391C30.3484 25.021 30.1645 24.6719 30.0656 24.5847C29.9412 24.4646 29.8276 24.3332 29.7262 24.192C29.5991 24.0604 29.494 23.9081 29.4152 23.7412C29.3762 23.5728 29.304 23.4144 29.2031 23.2759C29.1324 23.2759 28.9061 23.1305 28.892 23.0287C28.8694 22.9253 28.8411 22.8233 28.8072 22.7233C28.8072 22.7233 28.7082 22.447 28.8072 22.5342C28.8583 22.5876 28.897 22.6522 28.9203 22.7233L28.892 22.6215Z" fill="#6E7A82"/>
<path d="M30.9987 26.0974L31.3522 26.4318C31.437 26.5482 31.536 26.6209 31.6491 26.7518C31.7622 26.8826 32.0733 27.1153 32.1015 27.2171C32.1423 27.4283 32.1423 27.6457 32.1015 27.857C32.1015 27.857 31.8188 27.9442 31.5925 27.5661C31.3663 27.188 31.1966 27.0281 31.0835 26.8099C30.9704 26.5918 30.73 26.4318 30.7442 26.33C30.7375 26.2526 30.7375 26.1748 30.7442 26.0974H30.9987Z" fill="#6E7A82"/>
<path d="M31.2813 28.6275H31.0127H30.4188C30.1951 28.1615 30.0152 27.6745 29.8815 27.1733C29.8561 26.9886 29.8086 26.8079 29.7401 26.6352C29.7401 26.4607 29.5988 26.4025 29.7401 26.3589C29.8815 26.3153 29.7401 26.3589 29.8674 26.3589C29.9947 26.3589 30.1926 26.1698 30.1785 26.3589C30.164 26.5282 30.164 26.6985 30.1785 26.8679C30.1785 27.0133 30.3199 27.0424 30.334 27.246C30.3657 27.4049 30.4231 27.5573 30.5037 27.6968C30.5414 27.8146 30.5937 27.9271 30.6592 28.0313C30.6592 28.0313 30.6592 28.1476 30.843 28.2494C31.0268 28.3512 31.0834 28.2494 31.1824 28.4384L31.2813 28.6275Z" fill="#6E7A82"/>
<path d="M36.3574 28.5984V28.6857H33.8124L33.5296 28.1476C33.3439 27.8559 33.1203 27.5917 32.865 27.3623C32.7602 27.2921 32.6458 27.2382 32.5257 27.2024C32.3419 27.2024 32.2146 27.2024 32.1439 27.0133C32.0732 26.8243 32.0308 26.6788 32.1439 26.5479C32.257 26.4171 32.0308 26.8097 32.1439 26.2862C32.257 25.7627 31.3945 25.4427 31.3238 25.2682C31.2532 25.0937 30.4896 24.323 30.3907 24.1194C30.307 23.924 30.2027 23.7387 30.0796 23.5668C29.9523 23.4068 29.9099 23.2905 29.7544 23.1887C29.5989 23.0869 29.5989 22.9414 29.4575 22.8833L29.1747 22.7233L29.005 22.4615L29.2171 22.3743C29.2905 22.3309 29.3729 22.306 29.4575 22.3016C29.613 22.3016 29.5847 22.3016 29.7827 22.3016C29.9806 22.3016 29.9241 22.3016 30.0796 22.3016C30.181 22.27 30.2892 22.27 30.3907 22.3016C30.6027 22.3016 30.6027 22.3016 30.7724 22.3016C30.9421 22.3016 31.0269 22.3016 31.1966 22.3016C31.3015 22.2615 31.4169 22.2615 31.5218 22.3016C31.7339 22.3016 31.8611 22.3016 31.9884 22.3016C32.1156 22.3016 32.1156 21.7344 32.1156 21.8653C32.1156 21.9962 32.1156 22.098 32.2712 22.2143C32.4267 22.3307 32.3419 22.3888 32.5115 22.3743C32.6336 22.3578 32.7571 22.3578 32.8792 22.3743C32.9781 22.3743 32.9499 22.3743 33.0771 22.3743C33.2044 22.3743 33.1761 22.4906 33.5154 22.4761C33.8548 22.4615 33.9396 22.3888 34.081 22.4761C34.2224 22.5633 34.5193 22.6361 34.5617 22.6797C34.6042 22.7233 34.8021 22.6797 34.8445 22.6797C34.8869 22.6797 35.0849 22.6797 35.099 22.7669C35.1201 22.8045 35.1312 22.8472 35.1312 22.8905C35.1312 22.9339 35.1201 22.9766 35.099 23.0142C35.0241 23.1393 34.9714 23.2772 34.9435 23.4213C34.9146 23.6385 34.9146 23.8586 34.9435 24.0757C34.9435 24.2939 35.0283 24.3666 35.0708 24.5847C35.0661 24.6574 35.0661 24.7302 35.0708 24.8029C35.1129 25.0009 35.1696 25.1954 35.2404 25.3846C35.4191 25.6715 35.5527 25.9856 35.6363 26.3153C35.7494 26.8243 35.806 27.0715 35.8767 27.3332C35.9474 27.595 36.3574 28.5693 36.3574 28.5984Z" fill="#6E7A82"/>
<path d="M33.6286 21.4147C33.7275 21.4147 33.8124 21.5165 33.8548 21.6329C33.8972 21.7492 34.0103 21.7783 33.9962 21.851C34.0102 21.883 34.0175 21.9177 34.0175 21.9528C34.0175 21.9879 34.0102 22.0226 33.9962 22.0546C33.951 22.1275 33.8936 22.1915 33.8265 22.2436C33.7133 22.2874 33.5939 22.3119 33.473 22.3163C33.3867 22.3512 33.2907 22.3512 33.2044 22.3163C33.0913 22.3163 33.063 22.3163 32.9782 22.3163C32.8851 22.3636 32.7845 22.3931 32.6812 22.4036C32.6105 22.4036 32.5116 22.4036 32.4692 22.2873C32.4267 22.1709 32.2995 21.9819 32.2853 21.9382C32.2778 21.8803 32.2778 21.8216 32.2853 21.7637C32.3345 21.6186 32.4114 21.4851 32.5116 21.3711C32.6247 21.2693 32.7237 21.2257 32.8509 21.1093C32.9782 20.993 33.0347 20.9784 33.1337 20.8912C33.2327 20.8039 33.2751 20.7458 33.3316 20.7312C33.3882 20.7167 33.4589 20.7312 33.473 20.7312C33.4587 20.7885 33.4587 20.8485 33.473 20.9057C33.5029 20.9559 33.5412 21.0003 33.5862 21.0366C33.638 21.0689 33.6856 21.108 33.7275 21.153C33.7275 21.153 33.6427 21.2693 33.6427 21.3129C33.6335 21.346 33.6288 21.3803 33.6286 21.4147Z" fill="#6E7A82"/>
<path d="M33.9962 21.7347L33.8831 21.5456C33.8831 21.5456 33.7841 21.4729 33.77 21.3711C33.7623 21.2889 33.7623 21.2061 33.77 21.1239C33.77 21.1239 33.9396 20.9058 34.081 20.7603C34.2224 20.6149 34.279 20.5858 34.3638 20.6004C34.464 20.6025 34.5618 20.6326 34.6466 20.6876C34.6466 20.6876 34.7173 20.6876 34.7173 20.833C34.7173 20.9785 34.7173 20.9494 34.7173 21.0366C34.664 21.1561 34.6306 21.2839 34.6183 21.4147V21.8801C34.6127 21.9065 34.6007 21.931 34.5834 21.9514C34.5661 21.9717 34.5441 21.9872 34.5194 21.9964C34.4406 22.018 34.3577 22.018 34.279 21.9964C34.279 21.9964 34.1235 21.8801 34.081 21.8801C34.0386 21.8801 33.9962 21.7347 33.9962 21.7347Z" fill="#6E7A82"/>
<path d="M34.7032 21.7347C34.6881 21.6677 34.6881 21.598 34.7032 21.5311C34.7032 21.4438 34.7032 21.2984 34.7032 21.2111C34.7032 21.1239 34.7032 21.0657 34.7032 21.0075L34.9435 20.8621C34.938 20.8187 34.938 20.7747 34.9435 20.7312C34.9853 20.7202 35.029 20.7202 35.0708 20.7312C35.0708 20.7312 35.1839 20.7312 35.2122 20.7312C35.2715 20.709 35.3366 20.709 35.396 20.7312L35.5798 20.804C35.6646 20.804 35.8343 20.9348 35.9191 20.9785L36.1171 21.0948C36.1878 21.1675 36.2161 21.0948 36.2443 21.2111C36.2726 21.3275 36.315 21.2984 36.315 21.4002C36.3227 21.4873 36.3227 21.5749 36.315 21.662L36.2161 21.8946C36.1652 21.9096 36.1114 21.9096 36.0605 21.8946C35.9757 21.8946 35.9333 21.8946 35.8767 21.8946C35.8243 21.9136 35.7762 21.9433 35.7353 21.9819C35.7353 21.9819 35.7353 21.9819 35.6363 21.9819C35.577 22.0041 35.5119 22.0041 35.4525 21.9819L35.2829 21.8655H35.1698H34.8587H34.7597L34.7032 21.7347Z" fill="#6E7A82"/>
<path d="M35.5092 20.0189C35.6363 20.0116 35.7638 20.0116 35.8909 20.0189C36.0606 20.0189 36.1596 20.0189 36.2303 19.9462C36.301 19.8734 36.2303 19.7862 36.3717 19.8007C36.513 19.8153 36.612 19.9025 36.6969 19.9171C36.8358 19.9235 36.9714 19.9634 37.0928 20.0334C37.1917 20.1352 37.2483 20.0334 37.319 20.2806C37.3767 20.4371 37.4239 20.5974 37.4604 20.7605C37.4747 20.8178 37.4747 20.8778 37.4604 20.935C37.4604 20.935 37.4604 21.0659 37.3473 21.0659H37.0079C36.8807 21.0659 36.7676 21.0659 36.6969 21.0659C36.6262 21.0659 36.5979 21.2113 36.5413 21.1823C36.4848 21.1532 36.2727 21.1823 36.2303 21.0514C36.1838 20.9621 36.1268 20.8791 36.0606 20.8042C36.0143 20.7701 35.9716 20.7311 35.9333 20.6878C35.9333 20.6878 35.9333 20.6878 35.8061 20.5279C35.6788 20.3679 35.6788 20.3679 35.6647 20.3097C35.6505 20.2515 35.594 20.1788 35.5799 20.1498C35.5521 20.1087 35.5284 20.0648 35.5092 20.0189Z" fill="#6E7A82"/>
<path d="M37.5027 21.0368C37.512 21.1627 37.512 21.2891 37.5027 21.4149C37.5027 21.5022 37.5027 21.633 37.5734 21.7203V21.8803C37.4678 21.9014 37.3638 21.9306 37.2623 21.9675L37.0503 22.0548C36.9513 22.0548 36.923 22.0548 36.8523 22.0548C36.7816 22.0548 36.6968 22.0548 36.6544 22.0548C36.6133 21.9509 36.5802 21.844 36.5554 21.7348C36.5554 21.7348 36.3999 21.444 36.414 21.4004C36.414 21.4004 36.4988 21.4004 36.5695 21.4004C36.6402 21.4004 36.6685 21.4004 36.6968 21.3131C36.7271 21.2751 36.7659 21.2451 36.8099 21.2259H37.3189L37.5027 21.0368Z" fill="#6E7A82"/>
<path d="M36.3575 21.5602L36.4423 21.8074C36.4423 21.8074 36.4423 21.9237 36.4423 21.9383C36.4824 21.984 36.5114 22.0388 36.5271 22.0982C36.5271 22.1855 36.612 22.2 36.5271 22.2291L36.3575 22.3309C36.3575 22.3309 36.2161 22.3309 36.1595 22.3309C36.1127 22.339 36.0649 22.339 36.0181 22.3309H35.8626H35.6929H35.5091C35.5091 22.3309 35.5091 22.1855 35.5091 22.1128C35.5091 22.04 35.5939 21.9673 35.6505 21.9528C35.6969 21.9405 35.7455 21.9405 35.7919 21.9528H35.9898C35.9898 21.9528 36.1595 21.9528 36.1878 21.8655C36.2489 21.8286 36.3058 21.7847 36.3575 21.7347V21.6038V21.5602Z" fill="#6E7A82"/>
<path d="M34.0809 21.8508C34.1146 21.885 34.1526 21.9144 34.194 21.9381C34.2561 21.9835 34.3299 22.0089 34.4061 22.0108C34.4673 22.0071 34.5287 22.0071 34.5899 22.0108C34.5899 22.0108 34.5899 22.0108 34.6606 22.0108H34.7737C34.7894 22.0176 34.8062 22.0211 34.8232 22.0211C34.8402 22.0211 34.857 22.0176 34.8727 22.0108C34.8727 22.0108 34.9434 22.0108 35 22.0108C35.0565 22.0108 35.1131 22.0108 35.1414 22.0835L35.2686 22.1708H35.3817C35.3817 22.1708 35.4666 22.1708 35.4807 22.1708C35.4737 22.219 35.4737 22.268 35.4807 22.3162C35.4807 22.3162 35.4807 22.418 35.4807 22.4471C35.4807 22.4762 35.4807 22.4471 35.4807 22.5634C35.4598 22.6198 35.4195 22.6663 35.3676 22.6943L35.212 22.7815H35.1414C35.1414 22.7815 35.0424 22.7815 35 22.6943H34.8303H34.5899H34.4768C34.4768 22.6943 34.3496 22.6943 34.3213 22.6216H34.2223C34.2223 22.6216 34.1092 22.6216 34.0809 22.6216C34.0526 22.6216 33.9819 22.418 33.9961 22.3744C33.99 22.3358 33.99 22.2965 33.9961 22.258C33.9961 22.1708 33.9961 22.1562 33.9961 22.1417L34.0809 21.8508Z" fill="#6E7A82"/>
<path d="M33.9397 22.0984C33.9104 22.1359 33.8772 22.17 33.8407 22.2002C33.8329 22.2198 33.8214 22.2376 33.8068 22.2526C33.7923 22.2675 33.775 22.2794 33.7559 22.2874H33.6145C33.5297 22.2874 33.4166 22.2874 33.4024 22.2874C33.3317 22.2874 33.3883 22.2874 33.4024 22.2874C33.4397 22.2953 33.4782 22.2953 33.5155 22.2874H33.8832C33.8832 22.2874 33.9821 22.2874 34.0104 22.2874C34.0104 22.2874 34.0104 22.2874 34.0104 22.2002C33.9996 22.1672 33.9996 22.1314 34.0104 22.0984C34.0065 22.0694 34.0065 22.0401 34.0104 22.0111L33.9397 22.0984Z" fill="#6E7A82"/>
<path d="M40.9669 20.6294C40.8396 21.6474 40.9669 24.2796 40.9669 25.2684C40.9764 26.4294 40.7996 27.5841 40.4437 28.6859H35.9192C35.8717 28.5239 35.7896 28.3748 35.6788 28.2496C35.2687 27.7988 35.3536 27.5807 35.2546 26.9408C35.1786 26.2457 35.1503 25.5459 35.1698 24.8467C35.1698 24.6722 35.1698 24.4977 35.1698 24.3232C35.1698 23.4216 35.5233 23.2471 35.6646 22.549C35.6836 22.3843 35.7367 22.2256 35.8202 22.0837V21.9673C35.9485 21.8042 36.0957 21.6577 36.2585 21.5311C36.2878 21.4936 36.321 21.4594 36.3575 21.4293H36.4282L36.6403 21.1966C36.8778 20.9131 37.0431 20.5733 37.121 20.2077C37.1631 20.0032 37.2247 19.8035 37.3048 19.6115C37.4473 18.8104 37.3689 17.9842 37.0786 17.2265C36.8099 16.514 37.63 15.7723 37.63 14.4199C37.63 13.0674 38.3228 13.2565 38.7329 13.1256C39.1429 12.9947 39.0864 13.5909 39.5812 14.4199C39.9428 15.1402 40.0716 15.9604 39.9488 16.7612C39.9488 17.6919 40.3165 17.7791 40.5993 18.6953C40.9087 19.2871 41.0369 19.9613 40.9669 20.6294Z" fill="#6E7A82"/>
<path d="M32.5257 21.1387C32.5257 21.1387 31.3098 19.9899 30.7018 19.3355C30.3901 19.0213 30.1362 18.6518 29.9524 18.2448C30.827 17.9162 31.7252 17.6585 32.6389 17.474C32.8085 17.474 33.3882 17.8521 33.3882 17.8521C33.3882 17.8521 33.7841 17.474 33.8124 17.2995C33.8066 16.8899 33.7099 16.487 33.5296 16.1216C33.3175 15.5981 33.8266 14.8564 34.1235 14.871C34.4204 14.8855 34.5194 15.4381 34.6466 15.8308C34.7739 16.2234 35.1132 17.0669 35.2122 17.285C35.4196 17.7456 35.5579 18.2359 35.6222 18.7392C35.612 19.1239 35.5789 19.5076 35.5233 19.8881C35.5233 19.8881 35.3253 19.8881 35.4526 20.1208C35.5271 20.2891 35.617 20.4498 35.7212 20.6007C35.7212 20.6007 35.1981 20.4116 35.0284 20.4843C34.8587 20.557 34.8446 20.6297 34.8446 20.6297C34.7846 20.5483 34.7043 20.485 34.6122 20.4466C34.5201 20.4082 34.4196 20.3961 34.3214 20.4116C33.9962 20.4116 33.77 20.9206 33.77 20.9206C33.77 20.9206 33.5013 20.9206 33.4731 20.717C33.4448 20.5134 33.4731 20.4552 33.3317 20.4698C33.1653 20.5384 33.0121 20.6369 32.8792 20.7606C32.775 20.8994 32.6565 21.0262 32.5257 21.1387Z" fill="#6E7A82"/>
<path d="M29.4292 16.3976C29.4292 16.3976 29.4292 14.9434 29.7685 14.9434C30.1079 14.9434 30.1927 14.9434 30.1786 15.3797V16.354L29.4292 16.3976Z" fill="#6E7A82"/>
<path d="M29.9524 14.7541C29.9524 14.7541 30.0372 14.187 30.3483 14.2887C30.6594 14.3905 30.6594 14.5941 30.5462 15.2776C30.479 15.5827 30.4551 15.8962 30.4755 16.2083H30.2352C30.2352 16.2083 30.2352 15.1758 30.2352 15.0159C30.2253 14.9451 30.1916 14.8801 30.1399 14.8323C30.0882 14.7845 30.0219 14.7568 29.9524 14.7541Z" fill="#6E7A82"/>
<path d="M30.3342 14.1728C30.3482 14.0854 30.3939 14.0068 30.4622 13.9527C30.5305 13.8987 30.6161 13.8735 30.7018 13.882C31.0412 13.882 30.9705 14.4201 30.9422 14.6527C30.9213 15.0791 30.9213 15.5062 30.9422 15.9325C30.9422 16.1361 30.9422 16.107 30.9422 16.107L30.5322 16.1942C30.5371 15.9214 30.5608 15.6493 30.6029 15.3799C30.6889 15.083 30.7224 14.7727 30.7018 14.4637C30.6746 14.3837 30.6254 14.3137 30.5601 14.262C30.4948 14.2104 30.4163 14.1794 30.3342 14.1728Z" fill="#6E7A82"/>
<path d="M31.0269 14.4637C31.1471 14.4709 31.2602 14.5243 31.344 14.6131C31.4277 14.702 31.476 14.8199 31.4794 14.9436C31.4961 15.2893 31.5728 15.6291 31.7056 15.947L31.8046 16.1361H31.0269C30.9924 15.8658 30.9924 15.592 31.0269 15.3217C30.9986 14.8273 31.0411 14.4637 31.0269 14.4637Z" fill="#6E7A82"/>
<path d="M24.2824 26.6207V25.1665C24.2824 25.1665 24.141 25.0356 24.1552 24.9193C24.1828 24.807 24.2256 24.6993 24.2824 24.5993L24.3673 22.4471V22.1417L23.8724 21.5891L24.1269 21.3855L24.4379 21.9235L24.6218 21.7345V20.891L25.0459 20.6584V21.8654L26.0498 20.0621L26.3609 19.9022L25.1732 22.0835C25.1732 22.0835 25.2722 22.3307 25.1732 22.4471C25.0742 22.5634 25.1732 22.7379 25.1732 22.767C25.1732 22.7961 24.9611 26.9407 24.9611 26.9407L24.2824 26.6207Z" fill="#6E7A82"/>
<path d="M28.0153 19.0152L28.1708 18.8989L28.595 19.6406L28.6798 18.6517L28.9626 18.5499V19.5969L29.7827 18.2299H29.9948L29.005 19.975L28.9343 20.1059V20.295C28.9428 20.3479 28.9428 20.402 28.9343 20.4549L28.8495 20.5422L28.7222 22.5199C28.7222 22.5199 28.397 22.3891 28.2132 22.5199C28.2132 21.9819 28.3122 20.3677 28.3405 19.8878C28.3553 19.8012 28.3553 19.7126 28.3405 19.626L28.0153 19.0152Z" fill="#6E7A82"/>
<path d="M31.2533 22.0548C31.2533 22.0548 31.2533 21.1677 31.3381 20.9786C31.3402 20.7442 31.3639 20.5104 31.4088 20.2806C31.4447 20.2396 31.4692 20.1893 31.4795 20.1352L31.8613 20.5133C31.8613 20.5133 31.8613 21.1822 31.7765 21.284C31.6916 21.3858 31.7765 21.9966 31.7765 21.9966C31.6002 21.9892 31.4239 22.0088 31.2533 22.0548Z" fill="#6E7A82"/>
<path d="M36.3575 19.6987L36.4423 18.9571C36.4329 18.8361 36.4329 18.7145 36.4423 18.5935C36.4508 18.4919 36.4508 18.3897 36.4423 18.2881V18.1427L35.6364 17.2265H35.8767L36.5271 17.9973L36.3575 17.2265H36.4988L36.8382 18.0264L37.2341 17.5028V17.6773L36.9513 18.0409L37.2624 17.7937V17.9682C37.1224 18.0566 37.021 18.1973 36.9796 18.3608L36.7109 19.8151L36.3575 19.6987Z" fill="#6E7A82"/>
<path d="M16.5625 20.9492V21.0801L16.4352 21.1528L16.4069 21.1674L16.3787 21.1819L16.0393 21.3419L16.0252 21.3564L15.9828 21.3709L15.6576 21.5455L15.6293 21.56L15.601 21.5745L15.2475 21.749L15.2192 21.7636L15.191 21.7781L14.7951 21.9817L14.7668 21.9963L14.7385 22.0108L14.3143 22.2289L14.2861 22.2435L14.2578 22.258L13.8477 22.4616L13.8053 22.4907L13.7629 22.5052L13.3387 22.7234L13.3104 22.7379L13.2539 22.767L12.8156 22.9851L12.7731 23.0142L12.7307 23.0288L12.2783 23.2615L12.25 23.2905L12.2076 23.3051L11.6844 23.5668L11.642 23.5959L11.5996 23.6105L11.0906 23.8722L11.0482 23.8868L11.0057 23.9159L10.4402 24.2067L10.3978 24.2212L10.3553 24.2503L9.74735 24.5412L9.70493 24.5703L9.66251 24.5848L9.0121 24.9338L8.96969 24.9484L8.91313 24.9774L8.2203 25.3265L8.12133 25.3846L7.37195 25.7627L7.31539 25.7918L7.25883 25.8209L6.4529 26.2281L6.39634 26.2572L6.35392 26.2863L5.43487 26.7516L5.39245 26.7662L5.33589 26.7952L4.41684 27.2606L4.36028 27.2897L4.30373 27.3188L3.24328 27.8568L3.18672 27.8859L3.13017 27.915L1.63141 28.6857H1.00928L16.5625 20.9492Z" fill="#6E7A82"/>
<path d="M17.0149 22.1855L6.04287 28.6859H5.68939L6.05701 28.4678L6.11357 28.4387L6.15599 28.4096L7.04676 27.8861L7.08918 27.8715L7.1316 27.8424L7.93754 27.3771L7.97995 27.348L8.03651 27.3189L8.77175 26.8826L8.87073 26.8245L9.54941 26.4318L9.59183 26.4027L9.63425 26.3737L10.2705 26.0101L10.3129 25.981L10.3554 25.9519L10.9492 25.6175L10.9775 25.5884L11.0199 25.5593L11.5713 25.2394L11.6137 25.2248L11.6562 25.1957L12.151 24.9049L12.1935 24.8758L12.2359 24.8613L12.7449 24.5559L12.7873 24.5413L12.8297 24.5122L13.268 24.265L13.3105 24.2359L13.3529 24.2068L13.7771 23.9596L13.8195 23.9305L13.8619 23.916L14.3426 23.6252H14.3568L14.7527 23.3925L14.7809 23.3779L14.8092 23.3634L15.2051 23.1162L15.2334 23.1016L15.2617 23.0871L16.3928 22.4327L16.4211 22.4036L16.4635 22.3891L16.7746 22.2L16.817 22.1855L16.8453 22.1709L16.9725 22.0982L17.0149 22.1855Z" fill="#6E7A82"/>
<path d="M16.443 21.1822L16.3773 21.2091L16.8059 22.3171L16.8716 22.2902L16.443 21.1822Z" fill="#6E7A82"/>
<path d="M20.3756 19.3632L20.3101 19.3904L20.6751 20.321L20.7406 20.2938L20.3756 19.3632Z" fill="#6E7A82"/>
<path d="M20.5394 19.2671L20.4738 19.2943L20.8388 20.2249L20.9044 20.1977L20.5394 19.2671Z" fill="#6E7A82"/>
<path d="M20.7731 19.1811L20.7075 19.2083L21.0725 20.1389L21.1381 20.1117L20.7731 19.1811Z" fill="#6E7A82"/>
<path d="M20.9945 19.0912L20.9289 19.1184L21.2674 19.9815L21.333 19.9543L20.9945 19.0912Z" fill="#6E7A82"/>
<path d="M21.2212 19.0151L21.1556 19.0423L21.473 19.8515L21.5386 19.8243L21.2212 19.0151Z" fill="#6E7A82"/>
<path d="M21.4418 18.9344L21.3762 18.9616L21.6936 19.7708L21.7592 19.7436L21.4418 18.9344Z" fill="#6E7A82"/>
<path d="M21.6555 18.8634L21.59 18.8906L21.9074 19.6998L21.9729 19.6726L21.6555 18.8634Z" fill="#6E7A82"/>
<path d="M21.8759 18.7678L21.8103 18.795L22.1277 19.6042L22.1933 19.577L21.8759 18.7678Z" fill="#6E7A82"/>
<path d="M22.0737 18.6566L22.0082 18.6838L22.3256 19.493L22.3911 19.4658L22.0737 18.6566Z" fill="#6E7A82"/>
<path d="M22.2286 18.5743L22.163 18.6015L22.4804 19.4107L22.546 19.3835L22.2286 18.5743Z" fill="#6E7A82"/>
<path d="M22.4324 18.5113L22.3668 18.5385L22.6842 19.3477L22.7498 19.3205L22.4324 18.5113Z" fill="#6E7A82"/>
<path d="M22.6409 18.4266L22.5754 18.4538L22.8928 19.263L22.9583 19.2358L22.6409 18.4266Z" fill="#6E7A82"/>
<path d="M22.8272 18.347L22.7616 18.3742L23.0684 19.1564L23.134 19.1292L22.8272 18.347Z" fill="#6E7A82"/>
<path d="M23.0398 18.2703L22.9742 18.2975L23.2705 19.0528L23.336 19.0256L23.0398 18.2703Z" fill="#6E7A82"/>
<path d="M23.2043 18.2096L23.1387 18.2368L23.435 18.9921L23.5005 18.9649L23.2043 18.2096Z" fill="#6E7A82"/>
<path d="M23.3752 18.1673L23.3096 18.1945L23.5953 18.9228L23.6608 18.8956L23.3752 18.1673Z" fill="#6E7A82"/>
<path d="M23.5581 18.1288L23.4925 18.156L23.7676 18.8573L23.8331 18.8301L23.5581 18.1288Z" fill="#6E7A82"/>
<path d="M23.7498 18.0625L23.6842 18.0897L23.9487 18.764L24.0143 18.7368L23.7498 18.0625Z" fill="#6E7A82"/>
<path d="M23.8986 18.0391L23.833 18.0663L24.0975 18.7406L24.1631 18.7134L23.8986 18.0391Z" fill="#6E7A82"/>
<path d="M24.0499 17.9835L23.9844 18.0107L24.2489 18.685L24.3144 18.6578L24.0499 17.9835Z" fill="#6E7A82"/>
<path d="M24.2155 17.9279L24.1499 17.9551L24.4038 18.6024L24.4694 18.5752L24.2155 17.9279Z" fill="#6E7A82"/>
<path d="M24.3799 17.8668L24.3143 17.894L24.5682 18.5414L24.6338 18.5142L24.3799 17.8668Z" fill="#6E7A82"/>
<path d="M24.5313 17.7969L24.4658 17.8241L24.7197 18.4714L24.7852 18.4442L24.5313 17.7969Z" fill="#6E7A82"/>
<path d="M24.6564 17.7374L24.5908 17.7646L24.8447 18.4119L24.9103 18.3847L24.6564 17.7374Z" fill="#6E7A82"/>
<path d="M24.7815 17.6926L24.7159 17.7198L24.9699 18.3672L25.0354 18.34L24.7815 17.6926Z" fill="#6E7A82"/>
<path d="M24.9304 17.6549L24.8648 17.6821L25.1187 18.3294L25.1843 18.3022L24.9304 17.6549Z" fill="#6E7A82"/>
<path d="M25.0686 17.6047L25.0031 17.6319L25.257 18.2792L25.3225 18.252L25.0686 17.6047Z" fill="#6E7A82"/>
<path d="M25.2512 17.5709L25.184 17.5934L25.3857 18.2294L25.4529 18.2069L25.2512 17.5709Z" fill="#6E7A82"/>
<path d="M25.3962 17.5291L25.329 17.5516L25.5306 18.1876L25.5978 18.1651L25.3962 17.5291Z" fill="#6E7A82"/>
<path d="M25.5227 17.4897L25.4554 17.5122L25.6571 18.1482L25.7243 18.1257L25.5227 17.4897Z" fill="#6E7A82"/>
<path d="M25.6668 17.4315L25.5991 17.4526L25.7878 18.0928L25.8554 18.0717L25.6668 17.4315Z" fill="#6E7A82"/>
<path d="M25.8303 17.3888L25.762 17.4073L25.9209 18.026L25.9892 18.0074L25.8303 17.3888Z" fill="#6E7A82"/>
<path d="M25.9462 17.3567L25.8778 17.3753L26.0367 17.9939L26.1051 17.9754L25.9462 17.3567Z" fill="#6E7A82"/>
<path d="M26.113 17.3236L26.0442 17.3404L26.1814 17.9346L26.2502 17.9178L26.113 17.3236Z" fill="#6E7A82"/>
<path d="M26.2452 17.2899L26.1757 17.3031L26.2812 17.8894L26.3507 17.8762L26.2452 17.2899Z" fill="#6E7A82"/>
<path d="M26.4045 17.247L26.335 17.2602L26.4406 17.8465L26.5101 17.8332L26.4045 17.247Z" fill="#6E7A82"/>
<path d="M26.5587 17.1754L26.4892 17.1887L26.5947 17.7749L26.6643 17.7617L26.5587 17.1754Z" fill="#6E7A82"/>
<path d="M26.7485 17.1558L26.6929 17.1664L26.7984 17.7526L26.854 17.742L26.7485 17.1558Z" fill="#6E7A82"/>
<path d="M26.9191 17.0962L26.8635 17.1068L26.9691 17.693L27.0247 17.6824L26.9191 17.0962Z" fill="#6E7A82"/>
<path d="M27.053 17.0702L27.0113 17.0781L27.1168 17.6644L27.1585 17.6564L27.053 17.0702Z" fill="#6E7A82"/>
<path d="M27.1959 17.001L27.1542 17.009L27.2597 17.5952L27.3014 17.5873L27.1959 17.001Z" fill="#6E7A82"/>
<path d="M27.3464 16.9895L27.3047 16.9975L27.4102 17.5837L27.4519 17.5758L27.3464 16.9895Z" fill="#6E7A82"/>
<path d="M27.4844 16.9672L27.4425 16.974L27.5332 17.5629L27.5751 17.5561L27.4844 16.9672Z" fill="#6E7A82"/>
<path d="M27.6176 16.9184L27.5757 16.9252L27.6664 17.5141L27.7083 17.5073L27.6176 16.9184Z" fill="#6E7A82"/>
<path d="M27.7669 16.8939L27.725 16.9007L27.8157 17.4896L27.8576 17.4828L27.7669 16.8939Z" fill="#6E7A82"/>
<path d="M27.8882 16.8613L27.8463 16.8681L27.937 17.457L27.9789 17.4502L27.8882 16.8613Z" fill="#6E7A82"/>
<path d="M27.9911 16.8L27.9492 16.8068L28.0399 17.3957L28.0818 17.3889L27.9911 16.8Z" fill="#6E7A82"/>
<path d="M28.1125 16.7824L28.0706 16.7892L28.1613 17.3781L28.2032 17.3713L28.1125 16.7824Z" fill="#6E7A82"/>
<path d="M28.2456 16.7313L28.2037 16.7381L28.2944 17.327L28.3363 17.3202L28.2456 16.7313Z" fill="#6E7A82"/>
<path d="M28.3853 16.7399L28.3434 16.7467L28.4296 17.3069L28.4715 17.3001L28.3853 16.7399Z" fill="#6E7A82"/>
<path d="M28.4927 16.7073L28.4508 16.7141L28.5371 17.2743L28.579 17.2675L28.4927 16.7073Z" fill="#6E7A82"/>
<path d="M28.6789 16.5966L28.6369 16.6036L28.7251 17.1651L28.7671 17.1581L28.6789 16.5966Z" fill="#6E7A82"/>
<path d="M28.7332 16.6259L28.6913 16.6327L28.7775 17.1929L28.8194 17.1861L28.7332 16.6259Z" fill="#6E7A82"/>
<path d="M28.8664 16.5916L28.8245 16.5984L28.9108 17.1586L28.9527 17.1518L28.8664 16.5916Z" fill="#6E7A82"/>
<path d="M28.9759 16.5734L28.934 16.5802L29.018 17.126L29.0599 17.1192L28.9759 16.5734Z" fill="#6E7A82"/>
<path d="M29.1133 16.5653L29.0714 16.5722L29.1555 17.118L29.1974 17.1112L29.1133 16.5653Z" fill="#6E7A82"/>
<path d="M29.2466 16.5161L29.2047 16.5229L29.2888 17.0687L29.3307 17.0619L29.2466 16.5161Z" fill="#6E7A82"/>
<path d="M29.3538 16.484L29.3119 16.4908L29.3959 17.0366L29.4378 17.0298L29.3538 16.484Z" fill="#6E7A82"/>
<path d="M29.4892 16.4638L29.4473 16.4707L29.527 16.9878L29.5689 16.9809L29.4892 16.4638Z" fill="#6E7A82"/>
<path d="M29.615 16.4577L29.5731 16.4645L29.6505 16.9672L29.6924 16.9604L29.615 16.4577Z" fill="#6E7A82"/>
<path d="M29.7444 16.4193L29.7023 16.425L29.7664 16.9297L29.8085 16.924L29.7444 16.4193Z" fill="#6E7A82"/>
<path d="M29.8862 16.4159L29.8441 16.4211L29.9013 16.912L29.9434 16.9069L29.8862 16.4159Z" fill="#6E7A82"/>
<path d="M29.9952 16.3878L29.9531 16.3929L30.0102 16.8839L30.0524 16.8787L29.9952 16.3878Z" fill="#6E7A82"/>
<path d="M30.0918 16.3758L30.0497 16.381L30.1069 16.8719L30.149 16.8667L30.0918 16.3758Z" fill="#6E7A82"/>
<path d="M30.2164 16.3603L30.1743 16.3655L30.2315 16.8564L30.2736 16.8512L30.2164 16.3603Z" fill="#6E7A82"/>
<path d="M30.3412 16.3466L30.2991 16.3517L30.3529 16.8138L30.395 16.8086L30.3412 16.3466Z" fill="#6E7A82"/>
<path d="M30.436 16.3053L30.3939 16.3105L30.4477 16.7725L30.4898 16.7673L30.436 16.3053Z" fill="#6E7A82"/>
<path d="M30.5345 16.3082L30.4924 16.3134L30.5462 16.7754L30.5883 16.7702L30.5345 16.3082Z" fill="#6E7A82"/>
<path d="M30.6277 16.267L30.5856 16.2722L30.6394 16.7342L30.6816 16.729L30.6277 16.267Z" fill="#6E7A82"/>
<path d="M30.7119 16.2715L30.6698 16.2767L30.7236 16.7388L30.7657 16.7336L30.7119 16.2715Z" fill="#6E7A82"/>
<path d="M30.8085 16.2465L30.7664 16.2517L30.8185 16.6993L30.8607 16.6941L30.8085 16.2465Z" fill="#6E7A82"/>
<path d="M30.8877 16.221L30.8456 16.2263L30.9009 16.6882L30.943 16.6829L30.8877 16.221Z" fill="#6E7A82"/>
<path d="M30.9714 16.2116L30.9439 16.215L30.996 16.6624L31.0235 16.6591L30.9714 16.2116Z" fill="#6E7A82"/>
<path d="M31.0415 16.2172L31.014 16.2206L31.0644 16.6537L31.0919 16.6503L31.0415 16.2172Z" fill="#6E7A82"/>
<path d="M31.1259 16.2069L31.0984 16.2103L31.1471 16.6289L31.1746 16.6255L31.1259 16.2069Z" fill="#6E7A82"/>
<path d="M31.2084 16.1966L31.1809 16.2L31.2313 16.6331L31.2588 16.6297L31.2084 16.1966Z" fill="#6E7A82"/>
<path d="M31.2769 16.1881L31.2495 16.1914L31.2999 16.6245L31.3274 16.6211L31.2769 16.1881Z" fill="#6E7A82"/>
<path d="M31.4156 16.1726L31.3881 16.176L31.4385 16.609L31.466 16.6056L31.4156 16.1726Z" fill="#6E7A82"/>
<path d="M31.5123 16.1463L31.4848 16.1497L31.5352 16.5827L31.5627 16.5793L31.5123 16.1463Z" fill="#6E7A82"/>
<path d="M31.6219 16.1508L31.5944 16.1543L31.6448 16.5727L31.6723 16.5692L31.6219 16.1508Z" fill="#6E7A82"/>
<path d="M31.7039 16.1381L31.6765 16.1416L31.7253 16.5455L31.7528 16.542L31.7039 16.1381Z" fill="#6E7A82"/>
<path d="M31.8145 16.1238L31.787 16.1273L31.8358 16.5313L31.8633 16.5277L31.8145 16.1238Z" fill="#6E7A82"/>
<path d="M31.9266 16.1255L31.8992 16.129L31.948 16.533L31.9755 16.5295L31.9266 16.1255Z" fill="#6E7A82"/>
<path d="M32.0216 16.0992L31.9941 16.1027L32.0429 16.5066L32.0704 16.5031L32.0216 16.0992Z" fill="#6E7A82"/>
<path d="M32.1074 16.1026L32.08 16.1061L32.1253 16.4812L32.1528 16.4776L32.1074 16.1026Z" fill="#6E7A82"/>
<path d="M32.218 16.0883L32.1905 16.0918L32.2359 16.4669L32.2633 16.4634L32.218 16.0883Z" fill="#6E7A82"/>
<path d="M32.3021 16.0923L32.2747 16.0958L32.32 16.4709L32.3475 16.4674L32.3021 16.0923Z" fill="#6E7A82"/>
<path d="M32.4127 16.078L32.3853 16.0815L32.4306 16.4566L32.4581 16.4531L32.4127 16.078Z" fill="#6E7A82"/>
<path d="M32.5109 16.0798L32.4834 16.0833L32.5288 16.4584L32.5562 16.4549L32.5109 16.0798Z" fill="#6E7A82"/>
<path d="M32.6372 16.0803L32.6097 16.0838L32.6534 16.4445L32.6808 16.4409L32.6372 16.0803Z" fill="#6E7A82"/>
<path d="M32.7495 16.0802L32.722 16.0837L32.7639 16.4299L32.7914 16.4264L32.7495 16.0802Z" fill="#6E7A82"/>
<path d="M32.8758 16.0786L32.8483 16.0821L32.8885 16.4139L32.9159 16.4104L32.8758 16.0786Z" fill="#6E7A82"/>
<path d="M33.0003 16.0722L32.9728 16.0753L33.0058 16.3933L33.0333 16.3903L33.0003 16.0722Z" fill="#6E7A82"/>
<path d="M33.1424 16.0735L33.1149 16.0771L33.1516 16.38L33.179 16.3765L33.1424 16.0735Z" fill="#6E7A82"/>
<path d="M33.2266 16.0773L33.1991 16.0808L33.2357 16.3838L33.2632 16.3803L33.2266 16.0773Z" fill="#6E7A82"/>
<path d="M33.3247 16.0792L33.2972 16.0827L33.3338 16.3856L33.3613 16.3821L33.3247 16.0792Z" fill="#6E7A82"/>
<path d="M33.4089 16.0831L33.3815 16.0866L33.4181 16.3895L33.4456 16.386L33.4089 16.0831Z" fill="#6E7A82"/>
<path d="M33.4932 16.0723L33.4657 16.0758L33.5023 16.3788L33.5298 16.3753L33.4932 16.0723Z" fill="#6E7A82"/>
<path d="M16.052 21.3267L15.9865 21.3539L16.4202 22.4598L16.4858 22.4326L16.052 21.3267Z" fill="#6E7A82"/>
<path d="M15.6493 21.495L15.5837 21.5222L16.0175 22.6281L16.0831 22.6009L15.6493 21.495Z" fill="#6E7A82"/>
<path d="M15.2352 21.7246L15.1697 21.7518L15.6034 22.8577L15.669 22.8305L15.2352 21.7246Z" fill="#6E7A82"/>
<path d="M14.7793 21.9473L14.7147 21.9768L15.2302 23.1734L15.2949 23.1439L14.7793 21.9473Z" fill="#6E7A82"/>
<path d="M14.3087 22.1935L14.244 22.223L14.7596 23.4195L14.8242 23.3901L14.3087 22.1935Z" fill="#6E7A82"/>
<path d="M13.8325 22.4261L13.742 22.4674L14.2576 23.664L14.3481 23.6227L13.8325 22.4261Z" fill="#6E7A82"/>
<path d="M13.3302 22.6558L13.2397 22.697L13.7954 23.9867L13.8859 23.9454L13.3302 22.6558Z" fill="#6E7A82"/>
<path d="M12.8052 22.9373L12.7147 22.9786L13.2704 24.2682L13.3609 24.227L12.8052 22.9373Z" fill="#6E7A82"/>
<path d="M12.2534 23.0915L12.1633 23.1332L12.7662 24.5095L12.8563 24.4678L12.2534 23.0915Z" fill="#6E7A82"/>
<path d="M11.6596 23.5276L11.5691 23.5688L12.1648 24.9515L12.2553 24.9103L11.6596 23.5276Z" fill="#6E7A82"/>
<path d="M11.0662 23.8299L10.9757 23.8711L11.5944 25.307L11.6849 25.2658L11.0662 23.8299Z" fill="#6E7A82"/>
<path d="M10.4195 24.1739L10.329 24.2151L10.9476 25.6511L11.0381 25.6098L10.4195 24.1739Z" fill="#6E7A82"/>
<path d="M9.7183 24.4344L9.62781 24.4756L10.3095 26.0578L10.4 26.0165L9.7183 24.4344Z" fill="#6E7A82"/>
<path d="M9.00503 24.7525L8.9021 24.8002L9.59195 26.375L9.69489 26.3273L9.00503 24.7525Z" fill="#6E7A82"/>
<path d="M8.20058 25.2837L8.09717 25.3309L8.77885 26.913L8.88226 26.8659L8.20058 25.2837Z" fill="#6E7A82"/>
<path d="M7.32528 25.676L7.22186 25.7231L7.9551 27.425L8.05851 27.3778L7.32528 25.676Z" fill="#6E7A82"/>
<path d="M6.39547 26.1042L6.29205 26.1513L7.07684 27.9728L7.18026 27.9256L6.39547 26.1042Z" fill="#6E7A82"/>
<path d="M5.42159 26.679L5.31818 26.7261L6.10297 28.5476L6.20638 28.5004L5.42159 26.679Z" fill="#6E7A82"/>
<path d="M4.96816 28.686L4.68537 28.0462L4.62881 27.9153L4.45914 27.5081L4.41672 27.4209L4.36017 27.29L4.31775 27.1736" fill="#6E7A82"/>
<path d="M5.02481 28.6859H4.89756L4.62891 28.0751L4.58649 27.9442L4.40268 27.5371L4.37441 27.4498L4.30371 27.3189L4.26129 27.188L4.31785 27.1735L4.36027 27.1444L4.41682 27.2607L4.47338 27.3916L4.5158 27.4789L4.68547 27.8861L4.74203 28.0169L5.02481 28.6859Z" fill="#6E7A82"/>
<path d="M3.52599 28.6858V28.6712L3.46943 28.5549L3.28562 28.1041L3.2432 28.0314L3.18664 27.8859L3.14423 27.7696" fill="#6E7A82"/>
<path d="M3.59684 28.6856H3.51201L3.46959 28.7002V28.6856L3.42717 28.5838L3.22922 28.133L3.20094 28.0603L3.13025 27.9149L3.08783 27.7986L3.14439 27.7695L3.20094 27.7404L3.24336 27.8567L3.29992 28.0021L3.34234 28.0749L3.52615 28.5111L3.5827 28.642L3.59684 28.6856Z" fill="#6E7A82"/>
<path d="M17.326 23.1307L16.5907 23.6397L16.5342 23.6688L16.4918 23.7124L16.0817 23.9887L16.0393 24.0178L15.9827 24.0614L15.5868 24.3377L15.5303 24.3814L15.4879 24.4105L14.9789 24.7595L14.9364 24.7886L14.8799 24.8176L14.3991 25.1667L14.3426 25.1957L14.3002 25.2248L13.7487 25.6175L13.6922 25.6466L13.6356 25.6902L13.0418 26.0974L12.9852 26.141L12.9287 26.1846L12.3207 26.6063L12.2641 26.65L12.1934 26.6936L11.5289 27.1444L11.4582 27.2026L11.3875 27.2462L10.6664 27.7552L10.5815 27.8134L10.5108 27.857L9.32315 28.6859H9.01208L17.2553 22.9998L17.326 23.1307Z" fill="#6E7A82"/>
<path d="M17.5805 23.9742L17.5098 24.0324L17.4533 24.0614L17.4109 24.1051L17.2129 24.2505L17.1988 24.265L17.1705 24.2796L17.0715 24.3668L17.0432 24.3814L17.0291 24.3959H17.015L17.0008 24.4105L16.9725 24.4395L16.9018 24.4832L16.8877 24.4977L16.8594 24.5268L16.7746 24.585L16.7463 24.5995L16.7322 24.6141L16.6049 24.7158L16.5908 24.7304L16.5625 24.7449L16.5484 24.7595L16.4918 24.8031L16.4635 24.8322L16.4352 24.8467L16.4211 24.8613L16.3504 24.9194L16.3221 24.934L16.2939 24.9485L16.2373 24.9922L16.209 25.0212L16.1949 25.0358L16.1383 25.0794H16.1242L16.11 25.0939L16.0818 25.1085V25.123L16.0252 25.1521L15.9969 25.1812L15.9828 25.1957L15.9545 25.2103L15.9121 25.2394L15.898 25.2539L15.8697 25.2685L15.8131 25.3121L15.799 25.3266L15.7707 25.3557L15.7283 25.3848L15.7 25.3993L15.6859 25.4139L15.6293 25.472L15.601 25.4866L15.5869 25.5011L15.5303 25.5448L15.4879 25.5593V25.5738L15.4738 25.5884L15.4455 25.6029H15.4314L15.3465 25.6756L15.3324 25.6902L15.3041 25.7047L15.2475 25.7629L15.2193 25.7774L15.2051 25.792L15.1344 25.8356L15.1203 25.8502L15.092 25.8647L15.0213 25.9229L14.993 25.9374L14.9789 25.9519L14.9506 25.981L14.9223 25.9956L14.9082 26.0101L14.8941 26.0247L14.8799 26.0392L14.8516 26.0537L14.8092 26.0974L14.7809 26.1119L14.7668 26.1265L14.6678 26.1992L14.6396 26.2137L14.6254 26.2283L14.5689 26.2719L14.5406 26.2864L14.5123 26.3155L14.3992 26.4028H14.385L14.3709 26.4318L14.2861 26.49L14.2578 26.5046L14.2437 26.5191L14.1871 26.5627H14.173L14.1588 26.5918L14.1305 26.6064L14.0457 26.6645L14.0174 26.6936L14.0033 26.7081L13.9185 26.7663L13.9043 26.7809L13.876 26.7954L13.7771 26.8681L13.7629 26.8827L13.7346 26.9117L13.6498 26.9699L13.6074 27.0135H13.5932L13.5791 27.0281L13.565 27.0426L13.5367 27.0572L13.4801 27.1008L13.4519 27.1299H13.4377L13.3387 27.2171L13.3105 27.2317L13.2963 27.2462L13.1832 27.3335L13.1549 27.348L13.1408 27.3626L13.0277 27.4498L13.0135 27.4644L12.9853 27.4789L12.9287 27.5225L12.8863 27.5661H12.8721L12.858 27.5807L12.8439 27.5952L12.8015 27.6243L12.7025 27.697L12.6742 27.7261L12.6601 27.7407L12.5611 27.7988L12.5469 27.8279L12.5187 27.8425L12.4197 27.9152L12.4056 27.9297L12.3773 27.9442L12.2642 28.0315L12.25 28.046L12.2217 28.0606L12.1793 28.0897L12.1086 28.1478L12.0945 28.1624L12.0662 28.1769L12.0521 28.1915L12.0379 28.206L11.8965 28.3078L11.8824 28.3223L11.8541 28.3369L11.7551 28.4241L11.7269 28.4387L11.7127 28.4532L11.5713 28.5696L11.5572 28.5841L11.5289 28.5987L11.4158 28.6859H11.4017H11.1472L11.2037 28.6423L11.9531 28.0751L12.0238 28.017L12.0945 27.9733L12.7166 27.4934L12.7873 27.4498L12.8439 27.3916L13.4519 26.9408L13.5084 26.8972L13.565 26.8536L14.1023 26.4464L14.1588 26.4028L14.2154 26.3591L14.7809 25.9374L14.8234 25.8938L14.8799 25.8647L15.3607 25.5011L15.4031 25.4575L15.4596 25.4284L15.9545 25.0503L15.9969 25.0067L16.0393 24.9776L16.11 24.9194L16.1383 24.9049L16.1525 24.8904L16.4211 24.7013L16.4777 24.6577L16.5201 24.6141L16.6615 24.5123L16.6756 24.4977L16.7039 24.4832L16.7887 24.4105L16.817 24.3959L16.8311 24.3814L16.9018 24.3232L16.9301 24.3087L16.9584 24.2941L16.9725 24.2796L17.0008 24.265L17.0998 24.1778L17.1139 24.1632L17.1422 24.1487L17.3402 23.9887L17.3967 23.9596L17.4391 23.916L17.5381 23.8578L17.5805 23.9742Z" fill="#6E7A82"/>
<path d="M17.9906 25.4866L17.8916 25.5593L17.8774 25.5884L17.8492 25.6029L17.7643 25.6902L17.736 25.7047L17.7219 25.7193L17.6371 25.792L17.6088 25.8065L17.5947 25.8356L17.4815 25.9374L17.4533 25.9519L17.4391 25.9665L17.3967 26.0101L17.3401 26.0537L17.326 26.0828L17.2977 26.0974L17.227 26.1555L17.2129 26.1701L17.1846 26.1992L17.1281 26.2428L17.0998 26.2719L17.0856 26.2864L17.0291 26.33L17.0149 26.3591L16.9867 26.3737L16.9018 26.4464L16.8311 26.5191L16.8029 26.5336L16.7887 26.5482L16.7322 26.6063L14.3992 28.6859H14.1588L14.2578 28.5986L14.2719 28.5841L14.2861 28.5696L14.385 28.4678L14.4133 28.4532L14.4275 28.4387L14.4699 28.395L14.5123 28.366L14.5264 28.3514L14.5406 28.3369L14.583 28.2933L14.6678 28.2205L14.6961 28.1915L14.7102 28.1769L14.8092 28.1042L14.8234 28.0897L14.8375 28.0606L14.9223 27.9879L14.9365 27.9733L14.9648 27.9588L15.0213 27.9006L15.0496 27.8715L15.0637 27.857L15.092 27.8424L15.1203 27.8134L15.1486 27.7843L15.1627 27.7697L15.191 27.7552L15.2617 27.6825L15.29 27.6679L15.3041 27.6534L15.4031 27.5516L15.4313 27.5371L15.4455 27.5225L15.502 27.4643L15.5303 27.4498L15.5445 27.4353L15.6434 27.348L15.6576 27.3335L15.6717 27.3044L15.7 27.2898L15.7424 27.2462H15.7566L15.7707 27.2317L15.7848 27.2171L15.799 27.2026L15.8414 27.1589L15.8555 27.1444L15.8838 27.1299L15.9545 27.0572L15.9686 27.0426L15.9969 27.0281L16.0393 26.9844L16.0676 26.9554L16.0818 26.9408L16.1525 26.8826L16.1666 26.8681L16.1807 26.8536L16.2514 26.7808L16.2797 26.7663L16.2938 26.7518H16.308L16.3221 26.7372L16.3504 26.7081L16.407 26.65L16.4211 26.6354L16.4494 26.6209L16.5059 26.5627L16.5201 26.5482L16.5483 26.5336L16.5908 26.49L16.6049 26.4755L16.6332 26.4464L16.6756 26.4027L16.7039 26.3882L16.718 26.3737L16.7604 26.33L16.7887 26.3155L16.8029 26.301L16.8453 26.2719L16.8877 26.2282L16.9018 26.1992L16.9301 26.1846L16.9725 26.141L17.0008 26.1119L17.0149 26.0974L17.0856 26.0392L17.0998 26.0246L17.1281 26.0101L17.1988 25.9374L17.2129 25.9229L17.227 25.9083L17.2412 25.8938L17.2977 25.8501L17.326 25.8211L17.3401 25.8065H17.3543L17.3684 25.7774L17.4815 25.6756L17.5098 25.6611L17.524 25.6465L17.6088 25.5593L17.6371 25.5448L17.6512 25.5302L17.6795 25.5011L17.7219 25.4575L17.7502 25.443L17.7643 25.4284H17.7785V25.4139L17.9057 25.3121L17.9906 25.4866Z" fill="#6E7A82"/>
<path d="M17.6512 24.3377V24.5704L17.5239 24.6722L17.4957 24.6868L17.4815 24.7013L17.3543 24.8031L17.326 24.8176L17.3119 24.8322L17.2694 24.8758L17.2129 24.9194L17.1846 24.934L17.1705 24.9485L17.0856 25.0212L17.0574 25.0358L17.0432 25.0503L16.916 25.1521L16.9018 25.1667H16.8877L16.8735 25.1812L16.8453 25.2103L16.8028 25.2394L16.7746 25.2684L16.7463 25.283L16.7321 25.2975L16.6615 25.3557L16.6332 25.3702L16.619 25.3848L16.5483 25.443L16.5342 25.4575L16.5059 25.472L16.4494 25.5157V25.5302L16.4211 25.5448L16.4069 25.5593H16.3928L16.3504 25.6029L16.3221 25.6175L16.2938 25.6465L16.2797 25.6611L16.2373 25.6902L16.209 25.7047L16.1949 25.7193L16.1383 25.7629L16.1242 25.792L16.0959 25.8065L16.0535 25.8356L16.0252 25.8501L16.011 25.8792L15.9403 25.9229L15.9262 25.9374L15.9121 25.9519L15.8555 25.9956L15.8131 26.0246L15.799 26.0392L15.7707 26.0537L15.7565 26.0683L15.6717 26.141L15.6576 26.1555L15.6293 26.1701L15.5727 26.2137L15.5444 26.2428L15.5303 26.2573L15.4738 26.301L15.4455 26.3155L15.4313 26.33L15.3465 26.3882L15.3324 26.4028L15.3182 26.4318L15.2758 26.4464L15.2617 26.4755L15.2334 26.49L15.2192 26.5045L15.1768 26.5336L15.1344 26.5627L15.1203 26.5773L15.092 26.5918L14.993 26.6645L14.9789 26.6936L14.9647 26.7081L14.894 26.7518L14.8799 26.7663L14.8516 26.7809L14.7526 26.8681L14.7244 26.8826L14.7102 26.8972L14.6254 26.9699L14.6113 26.9844H14.5971L14.583 26.999L14.5547 27.0281L14.5264 27.0426L14.4981 27.0717L14.484 27.0862L14.385 27.159L14.3709 27.1735L14.3426 27.188L14.2719 27.2462L14.2436 27.2753L14.2295 27.2898L14.1305 27.3625L14.1164 27.3771L14.0881 27.3916L14.0033 27.4643L13.9467 27.508L13.9326 27.5225L13.9184 27.5371L13.8902 27.5661L13.8336 27.5952L13.8053 27.6098L13.7912 27.6243L13.6922 27.7116L13.6639 27.7261L13.6498 27.7406L13.5367 27.8279L13.5225 27.8424L13.4943 27.857L13.3953 27.9588L13.367 27.9733L13.3387 27.9879L13.268 28.046L13.2397 28.0751L13.2256 28.0897H13.2115L13.1973 28.1042L13.1408 28.1478L13.0559 28.206L13.0418 28.2205L13.0135 28.2496L12.9287 28.3223L12.9004 28.3369L12.8863 28.3514L12.7873 28.4241L12.759 28.4387L12.7449 28.4678L12.6318 28.555L12.6035 28.5696L12.5893 28.5841L12.5469 28.6132L12.4762 28.6714L12.4621 28.6859H12.2076L12.3207 28.5986V28.5841L12.349 28.5696L12.3631 28.555L12.3773 28.5405L12.4479 28.4823L12.4904 28.4532L12.5186 28.4387L12.5328 28.4241L12.6459 28.3223L12.6742 28.3078L12.6883 28.2933L12.7873 28.2205L12.8156 28.1915L12.8297 28.1769L12.9287 28.1042L12.9428 28.0897L12.9711 28.0751L13.0559 28.0024L13.0984 27.9733L13.1125 27.9588L13.1266 27.9442L13.1408 27.9297L13.1832 27.9006L13.2539 27.8424L13.268 27.8279L13.2963 27.8134L13.3953 27.7261L13.4236 27.7116L13.4377 27.697L13.5508 27.6098L13.565 27.5952L13.5932 27.5807L13.6922 27.4934L13.7346 27.4643L13.7912 27.4207L13.8195 27.3916L13.8336 27.3771H13.8477L13.8619 27.3625L13.9043 27.3335L13.9891 27.2607L14.0174 27.2462L14.0315 27.2317L14.1305 27.1444L14.1447 27.1299L14.1729 27.1153L14.2436 27.0572L14.2719 27.0281L14.2861 27.0135L14.385 26.9408L14.3992 26.9263L14.4274 26.9117L14.4557 26.8826L14.484 26.8681L14.4981 26.8536L14.5123 26.839H14.5264L14.6113 26.7663L14.6254 26.7518L14.6537 26.7372L14.7526 26.65L14.7809 26.6354L14.7951 26.6063L14.8516 26.5627L14.8799 26.5482L14.894 26.5336L14.993 26.4609L15.0213 26.4318L15.0354 26.4173L15.092 26.3882L15.1203 26.3591L15.1344 26.3446L15.1627 26.33L15.1768 26.3155L15.2051 26.2864L15.2334 26.2719L15.2475 26.2573L15.3324 26.1992L15.3465 26.1701L15.3748 26.1555L15.4313 26.1119L15.4455 26.0974L15.4738 26.0828L15.5303 26.0246L15.5586 26.0101L15.5727 25.9956L15.6576 25.9229H15.6717L15.7 25.8938L15.7141 25.8792L15.7565 25.8501L15.799 25.8065L15.8272 25.792L15.8414 25.7774L15.9121 25.7338L15.9262 25.7193L15.9545 25.6902L15.9969 25.6611L16.0252 25.6465L16.0393 25.632L16.0959 25.5884L16.11 25.5593L16.1383 25.5448L16.1807 25.5157L16.1949 25.5011L16.2231 25.4866L16.2514 25.4575L16.2938 25.4284L16.308 25.4139L16.3221 25.3993L16.3504 25.3848L16.4069 25.3266L16.4211 25.3121L16.4494 25.2975L16.5201 25.2394L16.5342 25.2248L16.5625 25.2103L16.6332 25.1521L16.6473 25.1376L16.6756 25.123L16.7039 25.0939L16.7463 25.0649L16.7746 25.0358L16.7887 25.0212L16.817 25.0067L16.9442 24.9049L16.9584 24.8903L16.9725 24.8758L17.0715 24.8031L17.0856 24.7886L17.1139 24.774L17.1705 24.7304L17.2129 24.7013V24.6868L17.227 24.6722L17.2412 24.6577H17.2553L17.3684 24.5704L17.3967 24.5413L17.4108 24.5268L17.5946 24.3814L17.6371 24.3523L17.6512 24.3377Z" fill="#6E7A82"/>
<path d="M16.7463 21.4729L16.6049 21.5601L16.5766 21.5747L16.5342 21.5892L16.209 21.7637L16.1807 21.7783L16.1524 21.7928L15.8272 21.9819L15.7989 21.9964L15.7707 22.011L15.4172 22.2L15.3889 22.2145L15.3606 22.2291L14.9789 22.4327L14.9506 22.4472L14.9223 22.4618L14.5123 22.6944L14.4981 22.709L14.4557 22.7235L14.0598 22.9417L14.0174 22.9562L13.975 22.9853L13.5508 23.218L13.5225 23.2325L13.466 23.2616L13.0418 23.4943L12.9994 23.5234L12.9569 23.5379L12.5045 23.7851L12.4621 23.7997L12.4197 23.8287L11.9106 24.1051L11.8682 24.1341L11.8258 24.1487L11.3309 24.425L11.2885 24.4541L11.2461 24.4686L10.6805 24.774L10.6381 24.8031L10.6098 24.8176L10.016 25.1521L9.93114 25.1957L9.28073 25.5447L9.22418 25.5593L9.18176 25.5884L8.48893 25.9665L8.44652 25.9956L8.4041 26.0246L7.65472 26.4318L7.59816 26.4609L7.55574 26.49L6.73567 26.9263L6.69325 26.9554L6.65083 26.9699L5.74592 27.4643L5.64694 27.5225L4.74203 28.0169L4.68547 28.046L4.62891 28.0751L3.58261 28.6423L3.52605 28.6713L3.51191 28.6859L3.46949 28.7004V28.6859H3.22913L3.42708 28.5841L3.46949 28.555L3.52605 28.5114L4.5865 27.9442L4.62891 27.9151L4.68547 27.8861L5.60452 27.4062L5.64694 27.3771L5.68936 27.348L6.59427 26.8536L6.65083 26.839L6.69325 26.8099L7.49919 26.3737L7.55574 26.3446L7.6123 26.3155L8.36168 25.9083L8.4041 25.8938L8.44652 25.8647L9.13934 25.4866L9.18176 25.4575L9.23832 25.4429L9.88872 25.0939L9.95942 25.0503L10.5533 24.7158L10.5957 24.7013L10.6381 24.6722L11.2037 24.3814L11.2461 24.3523L11.2885 24.3377L11.7834 24.0614L11.8258 24.0323L11.8682 24.0178L12.3914 23.7415L12.4197 23.7124L12.4762 23.6979L12.9145 23.4506L12.9569 23.4216L12.9994 23.407L13.4377 23.1743L13.4801 23.1453L13.5225 23.1307L13.9326 22.898L13.975 22.8835L14.0174 22.8544L14.4274 22.6363L14.4557 22.6217L14.484 22.6072L14.894 22.3891L14.9223 22.3745L14.9506 22.3454L15.3323 22.1418L15.3606 22.1273L15.3889 22.1128L15.7424 21.9237L15.7707 21.9092L15.7989 21.8946L16.1241 21.7201L16.1524 21.7056L16.1807 21.691L16.5059 21.5165L16.5342 21.4874H16.5766L16.718 21.4002L16.7463 21.4729Z" fill="#6E7A82"/>
<path d="M16.6049 21.2257L16.4918 21.2838L16.4635 21.2984L16.4352 21.3129L16.0959 21.4874L16.0676 21.502L16.0393 21.5165L15.7141 21.691L15.6858 21.7056L15.6575 21.7201L15.3041 21.8946L15.2758 21.9092L15.2475 21.9237L14.8516 22.1273L14.8233 22.1418L14.795 22.1564L14.385 22.3745L14.3567 22.3891L14.3284 22.4036L13.9184 22.6217L13.876 22.6363L13.8336 22.6654L13.4094 22.8835L13.367 22.898L13.3246 22.9271L12.8862 23.1453L12.8438 23.1743L12.8014 23.1889L12.3489 23.4216L12.3065 23.4506L12.2641 23.4652L11.7551 23.7415L11.7127 23.756L11.6703 23.7851L11.1613 24.0469L11.1188 24.0614L11.0764 24.0905L10.5108 24.3814L10.4684 24.3959L10.426 24.425L9.83216 24.7304L9.78974 24.7449L9.74732 24.774L9.08278 25.1085L9.04036 25.1376L8.99794 25.1521L8.30512 25.5157L8.24856 25.5447L8.20614 25.5593L7.45676 25.9519L7.4002 25.981L7.34365 26.0101L6.53771 26.4318L6.43873 26.4755L5.51968 26.9553L5.47726 26.9699L5.43485 26.999L4.51579 27.4789L4.40268 27.537L3.34223 28.0751L3.28568 28.1042L3.22912 28.1333L2.16867 28.6859H1.98486L3.20084 28.0606L3.24326 28.0315L3.29982 28.0024L4.3744 27.4498L4.41682 27.4207L4.47337 27.3916L5.39243 26.9263L5.43485 26.8972L5.4914 26.8681L6.39632 26.4027L6.45287 26.3737L6.49529 26.3591L7.31537 25.9374L7.35779 25.9083L7.41434 25.8792L8.17786 25.4866L8.22028 25.472L8.2627 25.4429L8.95552 25.0794L9.01208 25.0648L9.0545 25.0358L9.71904 24.7013L9.74732 24.6722L9.78974 24.6577L10.3977 24.3377L10.4401 24.3232L10.4826 24.2941L11.0481 24.0178L11.0906 23.9887L11.133 23.9742L11.642 23.6979L11.6703 23.6833L11.7127 23.6542L12.2358 23.3925L12.2783 23.3779L12.3207 23.3488L12.7731 23.1162L12.8155 23.0871L12.858 23.0725L13.2963 22.8399L13.3387 22.8253L13.3811 22.8108L13.8053 22.5781L13.8477 22.5636L13.8901 22.549L14.3002 22.3309L14.3284 22.3163L14.3567 22.3018L14.7668 22.0837L14.795 22.0691L14.8233 22.0546L15.2192 21.851L15.2475 21.8364L15.2758 21.8219L15.6293 21.6474L15.6575 21.6329L15.6858 21.6183L16.011 21.4438L16.0393 21.4293L16.0676 21.4147L16.4069 21.2402L16.4352 21.2257L16.4635 21.2111L16.5766 21.153L16.6049 21.2257Z" fill="#6E7A82"/>
<path d="M9.73317 28.6857L9.62006 28.4966L9.73317 28.6857Z" fill="#6E7A82"/>
<path d="M9.8322 28.6568L9.80392 28.6859H9.62011L9.53528 28.555L9.62011 28.4968L9.69081 28.4532L9.8322 28.6568Z" fill="#6E7A82"/>
<path d="M11.1329 28.7003L11.1187 28.6858L10.5814 27.8132L10.5532 27.7696" fill="#6E7A82"/>
<path d="M11.2319 28.6861H11.147L11.1329 28.7006L11.1188 28.6861H11.0198L10.5108 27.8572L10.4825 27.8136L10.5532 27.7699L10.638 27.7118L10.6663 27.7554L11.2036 28.6425L11.2319 28.6861Z" fill="#6E7A82"/>
<path d="M11.4299 27.1588L11.4581 27.2024L12.0237 28.0168L12.1086 28.1476L12.3772 28.5403L12.4762 28.6712V28.6857" fill="#6E7A82"/>
<path d="M12.5894 28.6859H12.3773L12.3207 28.5986L12.0379 28.206L11.9531 28.0751L11.3875 27.2462L11.3593 27.2171L11.4299 27.159L11.5006 27.1153L11.5289 27.1444L12.0945 27.9733L12.1793 28.0897L12.448 28.4823L12.547 28.6132L12.5894 28.6859Z" fill="#6E7A82"/>
<path d="M13.5931 28.6861L13.3669 28.3371L13.2114 28.0899L13.1124 27.959L12.9993 27.7699L12.872 27.5663L12.8296 27.5227L12.7872 27.45L12.264 26.6502L12.2216 26.592" fill="#6E7A82"/>
<path d="M13.6921 28.6857H13.4941L13.1406 28.1476L13.0558 28.0022L12.8013 27.6241L12.7164 27.4932L12.1933 26.6934L12.1509 26.6352L12.2216 26.5916L12.2923 26.5479L12.3206 26.6061L12.8437 27.3914L12.9285 27.5223L13.183 27.9004L13.2679 28.0458L13.6921 28.6857Z" fill="#6E7A82"/>
<path d="M12.9978 26.0486L12.8831 26.1336L14.5112 28.458L14.626 28.373L12.9978 26.0486Z" fill="#6E7A82"/>
<path d="M13.7032 25.5311L13.5963 25.6017L15.0012 27.8494L15.1081 27.7787L13.7032 25.5311Z" fill="#6E7A82"/>
<path d="M14.3481 25.1116L14.2556 25.1786L15.7864 27.4137L15.8788 27.3467L14.3481 25.1116Z" fill="#6E7A82"/>
<path d="M14.9169 24.6659L14.825 24.7338L16.3597 26.9304L16.4515 26.8625L14.9169 24.6659Z" fill="#6E7A82"/>
<path d="M15.4959 24.2454L15.4055 24.3152L16.8833 26.3382L16.9737 26.2683L15.4959 24.2454Z" fill="#6E7A82"/>
<path d="M16.0156 23.9002L15.9232 23.9673L17.3506 26.0461L17.443 25.979L16.0156 23.9002Z" fill="#6E7A82"/>
<path d="M16.5137 23.5251L16.4202 23.5906L17.7668 25.6209L17.8602 25.5553L16.5137 23.5251Z" fill="#6E7A82"/>
<path d="M17.3777 23.8435L17.2823 23.9061L17.7541 24.666L17.8495 24.6034L17.3777 23.8435Z" fill="#6E7A82"/>
<path d="M11.4016 28.6859H11.3451L11.3027 28.6277L11.3168 28.6132L11.3451 28.5986L11.4016 28.6859Z" fill="#6E7A82"/>
<path d="M11.6278 28.6859L11.5571 28.5841L11.5289 28.555" fill="#6E7A82"/>
<path d="M11.6561 28.6859H11.5996L11.5289 28.5987L11.5006 28.5696L11.5289 28.555L11.5572 28.5259L11.5713 28.5696L11.6561 28.6859Z" fill="#6E7A82"/>
<path d="M11.8965 28.6859L11.7269 28.4387L11.8965 28.6859Z" fill="#6E7A82"/>
<path d="M11.9389 28.6857H11.8682L11.7126 28.453L11.7268 28.4385L11.7551 28.4239L11.9389 28.6857Z" fill="#6E7A82"/>
<path d="M11.84 28.2642L11.8824 28.3223L12.1228 28.6859" fill="#6E7A82"/>
<path d="M12.1652 28.6861H12.0945L11.8541 28.3371L11.8117 28.279L11.84 28.2644L11.8541 28.2499L11.8965 28.308L12.1652 28.6861Z" fill="#6E7A82"/>
<path d="M12.4196 28.6862L12.3489 28.5698L12.0661 28.1772L12.0095 28.1045" fill="#6E7A82"/>
<path d="M12.4621 28.6859H12.3914L12.3207 28.5841L12.052 28.1915L11.9955 28.1187L12.0096 28.1042L12.0379 28.0897L12.0945 28.1624L12.3631 28.555L12.4621 28.6859Z" fill="#6E7A82"/>
<path d="M12.6883 28.6861L12.6035 28.5697L12.5186 28.4389L12.25 28.0462L12.2076 28.0026" fill="#6E7A82"/>
<path d="M12.7167 28.6857H12.6601L12.5894 28.5839L12.4905 28.4531L12.2218 28.0604L12.1935 28.0168L12.2077 28.0022L12.236 27.9877L12.2642 28.0313L12.5329 28.424L12.6319 28.5549L12.7167 28.6857Z" fill="#6E7A82"/>
<path d="M12.9287 28.6859L12.759 28.4387L12.6742 28.3078L12.4055 27.9297L12.3631 27.8715" fill="#6E7A82"/>
<path d="M12.9712 28.6861H12.9005L12.7449 28.468L12.646 28.3225L12.3773 27.9444L12.3349 27.8863L12.3632 27.8717L12.3773 27.8572L12.4197 27.9153L12.6884 28.2934L12.7874 28.4243L12.9712 28.6861Z" fill="#6E7A82"/>
<path d="M13.1548 28.6858L12.9003 28.3367L12.8155 28.1913L12.5468 27.8278L12.5044 27.7696" fill="#6E7A82"/>
<path d="M13.1832 28.6859H13.1266L12.8862 28.3514L12.7873 28.2205L12.5186 27.8424L12.4762 27.7843L12.5045 27.7697L12.5186 27.7552L12.561 27.7988L12.8297 28.1769L12.9287 28.3223L13.1832 28.6859Z" fill="#6E7A82"/>
<path d="M13.367 28.6859L13.0418 28.2205L12.9428 28.0897L12.6742 27.7261L12.66 27.697" fill="#6E7A82"/>
<path d="M13.3953 28.6857H13.3387L13.0135 28.2494L12.9287 28.104L12.6601 27.7404L12.6318 27.7113L12.6601 27.6968L12.6742 27.6677L12.7025 27.6968L12.9711 28.0749L13.056 28.2058L13.3953 28.6857Z" fill="#6E7A82"/>
<path d="M13.6499 28.6857L13.2257 28.0894L13.1268 27.944L12.9995 27.7695L12.8581 27.5804L12.8298 27.5223" fill="#6E7A82"/>
<path d="M13.2398 28.0751L13.6781 28.6859H13.6074L13.367 28.3369L13.1974 28.1042L13.0984 27.9733L12.8439 27.5952L12.8015 27.5516L12.8297 27.5225L12.8439 27.508L12.8863 27.5661L13.1408 27.9297L13.2398 28.0751Z" fill="#6E7A82"/>
<path d="M13.8761 28.6861L13.3671 27.9736L13.2681 27.8281L13.0136 27.4646L12.9712 27.421" fill="#6E7A82"/>
<path d="M13.9043 28.6859H13.8477L13.3387 27.9879L13.2539 27.8424L12.9852 27.4789L12.957 27.4352L12.9711 27.4207L12.9994 27.4062L13.0277 27.4498L13.2963 27.8133L13.3953 27.9588L13.9043 28.6859Z" fill="#6E7A82"/>
<path d="M14.1164 28.6859L13.5225 27.8424L13.4235 27.7116L13.1549 27.348L13.1407 27.3335V27.3189" fill="#6E7A82"/>
<path d="M14.1447 28.6857H14.074L13.4943 27.8568L13.3953 27.7259L13.1408 27.3623L13.1266 27.3478L13.1408 27.3333L13.1691 27.3042L13.1832 27.3333L13.4377 27.6968L13.5367 27.8277L14.1447 28.6857Z" fill="#6E7A82"/>
<path d="M13.3116 27.1757L13.2661 27.2101L14.3208 28.6869L14.3663 28.6524L13.3116 27.1757Z" fill="#6E7A82"/>
<path d="M13.4379 27.0362L13.3923 27.0706L14.4219 28.5122L14.4675 28.4778L13.4379 27.0362Z" fill="#6E7A82"/>
<path d="M13.5583 26.9233L13.5127 26.9577L14.5674 28.4345L14.613 28.4L13.5583 26.9233Z" fill="#6E7A82"/>
<path d="M13.7214 26.7958L13.6758 26.8303L14.7054 28.2718L14.751 28.2374L13.7214 26.7958Z" fill="#6E7A82"/>
<path d="M13.8561 26.6829L13.8105 26.7174L14.8484 28.1707L14.894 28.1362L13.8561 26.6829Z" fill="#6E7A82"/>
<path d="M13.9994 26.6642L13.9536 26.6985L14.988 28.1591L15.0338 28.1248L13.9994 26.6642Z" fill="#6E7A82"/>
<path d="M14.1192 26.4832L14.0736 26.5176L15.1032 27.9592L15.1488 27.9247L14.1192 26.4832Z" fill="#6E7A82"/>
<path d="M14.2137 26.3933L14.1681 26.4277L15.1893 27.8576L15.2349 27.8231L14.2137 26.3933Z" fill="#6E7A82"/>
<path d="M14.337 26.2891L14.2914 26.3235L15.3042 27.7417L15.3498 27.7072L14.337 26.2891Z" fill="#6E7A82"/>
<path d="M14.5193 26.2227L14.4738 26.2571L15.4447 27.6167L15.4903 27.5822L14.5193 26.2227Z" fill="#6E7A82"/>
<path d="M14.5997 26.1185L14.5541 26.1529L15.5251 27.5125L15.5707 27.478L14.5997 26.1185Z" fill="#6E7A82"/>
<path d="M14.7375 25.9851L14.6919 26.0196L15.6629 27.3791L15.7085 27.3447L14.7375 25.9851Z" fill="#6E7A82"/>
<path d="M14.8827 25.9363L14.8372 25.9708L15.8082 27.3303L15.8537 27.2959L14.8827 25.9363Z" fill="#6E7A82"/>
<path d="M15.0395 25.9721L14.9937 26.0064L15.9613 27.3728L16.0072 27.3385L15.0395 25.9721Z" fill="#6E7A82"/>
<path d="M15.0947 25.7538L15.0491 25.7882L16.0201 27.1477L16.0656 27.1133L15.0947 25.7538Z" fill="#6E7A82"/>
<path d="M15.1949 25.6668L15.1493 25.7013L16.1203 27.0608L16.1659 27.0264L15.1949 25.6668Z" fill="#6E7A82"/>
<path d="M15.3252 25.6874L15.2794 25.7217L16.247 27.0881L16.2929 27.0538L15.3252 25.6874Z" fill="#6E7A82"/>
<path d="M15.4408 25.5019L15.3953 25.5364L16.3663 26.8959L16.4118 26.8615L15.4408 25.5019Z" fill="#6E7A82"/>
<path d="M15.5754 25.3892L15.5298 25.4236L16.5008 26.7831L16.5464 26.7487L15.5754 25.3892Z" fill="#6E7A82"/>
<path d="M15.684 25.3136L15.6384 25.3481L16.6094 26.7076L16.655 26.6731L15.684 25.3136Z" fill="#6E7A82"/>
<path d="M15.7588 25.2352L15.7133 25.2696L16.6843 26.6292L16.7298 26.5947L15.7588 25.2352Z" fill="#6E7A82"/>
<path d="M15.8533 25.1602L15.8077 25.1946L16.7787 26.5542L16.8243 26.5197L15.8533 25.1602Z" fill="#6E7A82"/>
<path d="M15.9364 25.079L15.8908 25.1135L16.8618 26.473L16.9074 26.4386L15.9364 25.079Z" fill="#6E7A82"/>
<path d="M16.0538 24.9863L16.0082 25.0207L16.9792 26.3803L17.0248 26.3458L16.0538 24.9863Z" fill="#6E7A82"/>
<path d="M16.1539 24.8992L16.1083 24.9336L17.0793 26.2931L17.1249 26.2587L16.1539 24.8992Z" fill="#6E7A82"/>
<path d="M16.2854 24.8214L16.2398 24.8559L17.2108 26.2154L17.2564 26.181L16.2854 24.8214Z" fill="#6E7A82"/>
<path d="M16.4168 24.7435L16.3712 24.7779L17.3422 26.1375L17.3878 26.103L16.4168 24.7435Z" fill="#6E7A82"/>
<path d="M16.5486 24.6221L16.5031 24.6565L17.474 26.016L17.5196 25.9816L16.5486 24.6221Z" fill="#6E7A82"/>
<path d="M16.6836 24.4795L16.6381 24.5139L17.6091 25.8735L17.6546 25.839L16.6836 24.4795Z" fill="#6E7A82"/>
<path d="M16.8323 24.3811L16.7867 24.4155L17.7577 25.775L17.8033 25.7406L16.8323 24.3811Z" fill="#6E7A82"/>
<path d="M16.9582 24.2563L16.9127 24.2907L17.8837 25.6502L17.9292 25.6158L16.9582 24.2563Z" fill="#6E7A82"/>
<path d="M17.1131 24.1027L17.0676 24.1372L18.0386 25.4967L18.0841 25.4623L17.1131 24.1027Z" fill="#6E7A82"/>
<path d="M21.2601 21.5061L21.2103 21.5337L21.8006 22.6603L21.8504 22.6327L21.2601 21.5061Z" fill="#6E7A82"/>
<path d="M21.5361 21.3504L21.4863 21.378L22.0631 22.4789L22.1129 22.4514L21.5361 21.3504Z" fill="#6E7A82"/>
<path d="M21.6643 21.2553L21.6145 21.2829L22.1846 22.371L22.2344 22.3434L21.6643 21.2553Z" fill="#6E7A82"/>
<path d="M21.8802 21.0548L21.8329 21.0866L22.4975 22.1339L22.5448 22.1021L21.8802 21.0548Z" fill="#6E7A82"/>
<path d="M22.0035 20.942L21.9561 20.9738L22.613 22.009L22.6603 21.9772L22.0035 20.942Z" fill="#6E7A82"/>
<path d="M22.3099 20.8109L22.2626 20.8427L22.9272 21.89L22.9745 21.8582L22.3099 20.8109Z" fill="#6E7A82"/>
<path d="M22.4332 20.7119L22.3858 20.7437L23.0427 21.7788L23.09 21.747L22.4332 20.7119Z" fill="#6E7A82"/>
<path d="M22.7368 20.5178L22.7012 20.5417L23.3658 21.589L23.4013 21.5651L22.7368 20.5178Z" fill="#6E7A82"/>
<path d="M22.8599 20.4192L22.8244 20.4431L23.4813 21.4782L23.5168 21.4544L22.8599 20.4192Z" fill="#6E7A82"/>
<path d="M23.1166 20.2974L23.0811 20.3213L23.7457 21.3686L23.7812 21.3447L23.1166 20.2974Z" fill="#6E7A82"/>
<path d="M23.2398 20.1988L23.2043 20.2227L23.8611 21.2578L23.8967 21.234L23.2398 20.1988Z" fill="#6E7A82"/>
<path d="M23.488 20.0795L23.4527 20.1038L24.003 20.9499L24.0383 20.9256L23.488 20.0795Z" fill="#6E7A82"/>
<path d="M23.5796 19.994L23.5444 20.0183L24.0947 20.8644L24.1299 20.8401L23.5796 19.994Z" fill="#6E7A82"/>
<path d="M23.9119 19.8778L23.8766 19.902L24.427 20.7481L24.4622 20.7239L23.9119 19.8778Z" fill="#6E7A82"/>
<path d="M24.0177 19.792L23.9824 19.8163L24.5327 20.6624L24.568 20.6381L24.0177 19.792Z" fill="#6E7A82"/>
<path d="M24.2652 19.6661L24.23 19.6903L24.7803 20.5364L24.8155 20.5122L24.2652 19.6661Z" fill="#6E7A82"/>
<path d="M24.3789 19.6077L24.3436 19.632L24.8939 20.4781L24.9292 20.4538L24.3789 19.6077Z" fill="#6E7A82"/>
<path d="M24.6148 19.4897L24.5796 19.5139L25.1299 20.3601L25.1652 20.3358L24.6148 19.4897Z" fill="#6E7A82"/>
<path d="M24.7184 19.3959L24.6831 19.4201L25.2334 20.2662L25.2687 20.242L24.7184 19.3959Z" fill="#6E7A82"/>
<path d="M24.9737 19.2968L24.9502 19.313L25.5005 20.1591L25.524 20.143L24.9737 19.2968Z" fill="#6E7A82"/>
<path d="M25.0796 19.2116L25.0561 19.2278L25.6064 20.0739L25.6299 20.0577L25.0796 19.2116Z" fill="#6E7A82"/>
<path d="M25.3162 19.1006L25.2927 19.1167L25.7644 19.842L25.7879 19.8258L25.3162 19.1006Z" fill="#6E7A82"/>
<path d="M25.4158 19.013L25.3923 19.0291L25.8561 19.7423L25.8796 19.7261L25.4158 19.013Z" fill="#6E7A82"/>
<path d="M25.7026 18.9386L25.6791 18.9547L26.1508 19.68L26.1743 19.6638L25.7026 18.9386Z" fill="#6E7A82"/>
<path d="M25.8021 18.8651L25.7786 18.8813L26.2425 19.5945L26.266 19.5783L25.8021 18.8651Z" fill="#6E7A82"/>
<path d="M26.0702 18.7273L26.0467 18.7435L26.4712 19.3962L26.4947 19.38L26.0702 18.7273Z" fill="#6E7A82"/>
<path d="M26.1659 18.6592L26.1424 18.6754L26.5669 19.3281L26.5904 19.3119L26.1659 18.6592Z" fill="#6E7A82"/>
<path d="M26.4683 18.5716L26.4448 18.5878L26.8693 19.2405L26.8928 19.2243L26.4683 18.5716Z" fill="#6E7A82"/>
<path d="M26.5546 18.3912L26.5311 18.4074L26.9582 19.0584L26.9816 19.0421L26.5546 18.3912Z" fill="#6E7A82"/>
<path d="M26.8649 18.3769L26.8414 18.3931L27.2659 19.0458L27.2894 19.0296L26.8649 18.3769Z" fill="#6E7A82"/>
<path d="M26.9409 18.3054L26.9174 18.3216L27.3419 18.9743L27.3654 18.9581L26.9409 18.3054Z" fill="#6E7A82"/>
<path d="M27.245 18.2025L27.2213 18.2184L27.5915 18.8034L27.6152 18.7876L27.245 18.2025Z" fill="#6E7A82"/>
<path d="M27.3158 18.1432L27.2921 18.1591L27.6623 18.7441L27.686 18.7282L27.3158 18.1432Z" fill="#6E7A82"/>
<path d="M27.6356 18.0435L27.6119 18.0594L27.9822 18.6444L28.0059 18.6285L27.6356 18.0435Z" fill="#6E7A82"/>
<path d="M27.7064 17.984L27.6827 17.9999L28.053 18.5849L28.0767 18.569L27.7064 17.984Z" fill="#6E7A82"/>
<path d="M28.0499 17.8827L28.0262 17.8985L28.3965 18.4836L28.4202 18.4677L28.0499 17.8827Z" fill="#6E7A82"/>
<path d="M28.1066 17.8237L28.0829 17.8396L28.4531 18.4246L28.4768 18.4087L28.1066 17.8237Z" fill="#6E7A82"/>
<path d="M28.437 17.6915L28.4133 17.7073L28.7835 18.2924L28.8072 18.2765L28.437 17.6915Z" fill="#6E7A82"/>
<path d="M28.5393 17.6571L28.5156 17.673L28.8859 18.258L28.9096 18.2421L28.5393 17.6571Z" fill="#6E7A82"/>
<path d="M28.8768 17.5181L28.8517 17.5316L29.1664 18.1501L29.1914 18.1366L28.8768 17.5181Z" fill="#6E7A82"/>
<path d="M28.997 17.5025L28.972 17.516L29.2866 18.1345L29.3117 18.121L28.997 17.5025Z" fill="#6E7A82"/>
<path d="M29.5695 17.2867L29.5445 17.3002L29.8591 17.9187L29.8842 17.9052L29.5695 17.2867Z" fill="#6E7A82"/>
<path d="M29.685 17.2651L29.66 17.2785L29.9746 17.897L29.9997 17.8835L29.685 17.2651Z" fill="#6E7A82"/>
<path d="M29.9342 17.1958L29.9092 17.2093L30.2238 17.8277L30.2489 17.8143L29.9342 17.1958Z" fill="#6E7A82"/>
<path d="M30.0621 17.153L30.037 17.1664L30.3517 17.7849L30.3767 17.7714L30.0621 17.153Z" fill="#6E7A82"/>
<path d="M30.3589 17.0643L30.3323 17.0742L30.4907 17.5255L30.5173 17.5157L30.3589 17.0643Z" fill="#6E7A82"/>
<path d="M30.4469 17.0335L30.4203 17.0433L30.5822 17.5088L30.6088 17.499L30.4469 17.0335Z" fill="#6E7A82"/>
<path d="M30.7 16.9694L30.6732 16.9768L30.7914 17.4253L30.8181 17.4179L30.7 16.9694Z" fill="#6E7A82"/>
<path d="M30.798 16.9531L30.7712 16.9604L30.8872 17.4095L30.914 17.4022L30.798 16.9531Z" fill="#6E7A82"/>
<path d="M30.9874 16.8937L30.96 16.8979L31.0279 17.3724L31.0553 17.3683L30.9874 16.8937Z" fill="#6E7A82"/>
<path d="M31.0956 16.8703L31.0682 16.8745L31.136 17.349L31.1634 17.3449L31.0956 16.8703Z" fill="#6E7A82"/>
<path d="M31.302 16.8321L31.2745 16.8349L31.3192 17.2978L31.3467 17.295L31.302 16.8321Z" fill="#6E7A82"/>
<path d="M31.3902 16.7984L31.3627 16.8016L31.416 17.2783L31.4435 17.275L31.3902 16.7984Z" fill="#6E7A82"/>
<path d="M31.5927 16.765L31.565 16.7662L31.5843 17.2311L31.612 17.2299L31.5927 16.765Z" fill="#6E7A82"/>
<path d="M31.6881 16.7415L31.6604 16.7427L31.6792 17.2076L31.7068 17.2065L31.6881 16.7415Z" fill="#6E7A82"/>
<path d="M31.8303 16.7106L31.8026 16.7118L31.822 17.1767L31.8496 17.1755L31.8303 16.7106Z" fill="#6E7A82"/>
<path d="M31.9253 16.6734L31.8976 16.6746L31.9164 17.1395L31.9441 17.1383L31.9253 16.6734Z" fill="#6E7A82"/>
<path d="M32.1111 16.6556L32.0835 16.6568L32.1028 17.1217L32.1305 17.1205L32.1111 16.6556Z" fill="#6E7A82"/>
<path d="M32.1926 16.6477L32.1649 16.6488L32.1837 17.1138L32.2114 17.1126L32.1926 16.6477Z" fill="#6E7A82"/>
<path d="M32.3474 16.6113L32.3198 16.6139L32.3591 17.0482L32.3866 17.0456L32.3474 16.6113Z" fill="#6E7A82"/>
<path d="M32.4298 16.5991L32.4023 16.6017L32.4423 17.0506L32.4699 17.048L32.4298 16.5991Z" fill="#6E7A82"/>
<path d="M32.57 16.5897L32.5425 16.5923L32.5817 17.0266L32.6093 17.024L32.57 16.5897Z" fill="#6E7A82"/>
<path d="M32.6513 16.5649L32.6238 16.5675L32.6638 17.0163L32.6914 17.0137L32.6513 16.5649Z" fill="#6E7A82"/>
<path d="M32.8067 16.5535L32.7792 16.5561L32.8184 16.9904L32.846 16.9878L32.8067 16.5535Z" fill="#6E7A82"/>
<path d="M32.8753 16.5437L32.8478 16.5463L32.8878 16.9951L32.9154 16.9925L32.8753 16.5437Z" fill="#6E7A82"/>
<path d="M32.9732 16.5231L32.9456 16.5258L32.9822 16.9311L33.0098 16.9285L32.9732 16.5231Z" fill="#6E7A82"/>
<path d="M33.029 16.5289L33.0015 16.5315L33.0376 16.9369L33.0652 16.9343L33.029 16.5289Z" fill="#6E7A82"/>
<path d="M33.1408 16.507L33.1132 16.5097L33.1459 16.8716L33.1735 16.869L33.1408 16.507Z" fill="#6E7A82"/>
<path d="M33.1966 16.5077L33.169 16.5103L33.2013 16.8723L33.2289 16.8696L33.1966 16.5077Z" fill="#6E7A82"/>
<path d="M33.3366 16.5031L33.309 16.5057L33.3417 16.8676L33.3693 16.865L33.3366 16.5031Z" fill="#6E7A82"/>
<path d="M33.4053 16.4802L33.3777 16.4828L33.41 16.8448L33.4375 16.8422L33.4053 16.4802Z" fill="#6E7A82"/>
<path d="M33.5332 16.4917L33.5057 16.4943L33.538 16.8562L33.5656 16.8536L33.5332 16.4917Z" fill="#6E7A82"/>
<path d="M35.0593 16.2636L35.0451 16.2669L35.1334 16.6645L35.1475 16.6612L35.0593 16.2636Z" fill="#6E7A82"/>
<path d="M35.1172 16.2605L35.1029 16.2634L35.1815 16.663L35.1958 16.66L35.1172 16.2605Z" fill="#6E7A82"/>
<path d="M35.1619 16.2482L35.1476 16.2509L35.2208 16.6515L35.2351 16.6488L35.1619 16.2482Z" fill="#6E7A82"/>
<path d="M35.3033 16.2525L35.2888 16.2544L35.3402 16.6583L35.3547 16.6564L35.3033 16.2525Z" fill="#6E7A82"/>
<path d="M35.3531 16.2511L35.3386 16.2527L35.3806 16.6577L35.3951 16.6561L35.3531 16.2511Z" fill="#6E7A82"/>
<path d="M35.4064 16.2459L35.392 16.2475L35.4349 16.6525L35.4494 16.6508L35.4064 16.2459Z" fill="#6E7A82"/>
<path d="M35.5114 16.2496L35.4969 16.2509L35.5296 16.6422L35.5441 16.6409L35.5114 16.2496Z" fill="#6E7A82"/>
<path d="M35.5711 16.2465L35.5565 16.2475L35.5806 16.6248L35.5951 16.6239L35.5711 16.2465Z" fill="#6E7A82"/>
<path d="M35.612 16.2523L35.5975 16.2527L35.6081 16.6452L35.6226 16.6448L35.612 16.2523Z" fill="#6E7A82"/>
<path d="M35.7267 16.2557L35.7233 16.6338L35.7379 16.634L35.7412 16.2559L35.7267 16.2557Z" fill="#6E7A82"/>
<path d="M35.7894 16.2622L35.7828 16.6403L35.7973 16.6406L35.804 16.2625L35.7894 16.2622Z" fill="#6E7A82"/>
<path d="M35.8398 16.2442L35.8318 16.6368L35.8464 16.6371L35.8543 16.2446L35.8398 16.2442Z" fill="#6E7A82"/>
<path d="M35.9265 16.2559L35.9232 16.6339L35.9377 16.6341L35.9411 16.256L35.9265 16.2559Z" fill="#6E7A82"/>
<path d="M35.9912 16.2473L35.9845 16.6254L35.9991 16.6256L36.0057 16.2476L35.9912 16.2473Z" fill="#6E7A82"/>
<path d="M36.0422 16.2294L36.0343 16.6219L36.0489 16.6222L36.0568 16.2297L36.0422 16.2294Z" fill="#6E7A82"/>
<path d="M36.1262 16.2559L36.1229 16.6339L36.1374 16.6341L36.1408 16.256L36.1262 16.2559Z" fill="#6E7A82"/>
<path d="M36.1928 16.2622L36.1862 16.6402L36.2007 16.6405L36.2074 16.2625L36.1928 16.2622Z" fill="#6E7A82"/>
<path d="M36.2443 16.2292L36.2363 16.6218L36.2509 16.6221L36.2588 16.2295L36.2443 16.2292Z" fill="#6E7A82"/>
<path d="M36.3547 16.2411L36.3514 16.6192L36.3659 16.6193L36.3693 16.2412L36.3547 16.2411Z" fill="#6E7A82"/>
<path d="M36.4234 16.2473L36.4167 16.6254L36.4313 16.6256L36.4379 16.2476L36.4234 16.2473Z" fill="#6E7A82"/>
<path d="M36.4752 16.2293L36.4672 16.6218L36.4818 16.6221L36.4897 16.2296L36.4752 16.2293Z" fill="#6E7A82"/>
<path d="M36.5971 16.2411L36.5938 16.6192L36.6084 16.6193L36.6117 16.2412L36.5971 16.2411Z" fill="#6E7A82"/>
<path d="M36.6536 16.2473L36.6469 16.6254L36.6615 16.6256L36.6681 16.2476L36.6536 16.2473Z" fill="#6E7A82"/>
<path d="M36.7064 16.2293L36.6985 16.6219L36.713 16.6222L36.721 16.2296L36.7064 16.2293Z" fill="#6E7A82"/>
<path d="M36.8123 16.2479L36.8057 16.6259L36.8202 16.6262L36.8269 16.2481L36.8123 16.2479Z" fill="#6E7A82"/>
<path d="M36.8958 16.2191L36.8882 16.6116L36.9027 16.6119L36.9104 16.2194L36.8958 16.2191Z" fill="#6E7A82"/>
<path d="M37.0383 16.2294L37.0304 16.6219L37.045 16.6222L37.0529 16.2297L37.0383 16.2294Z" fill="#6E7A82"/>
<path d="M37.0819 16.2505L37.0681 16.4827L37.0826 16.4836L37.0964 16.2514L37.0819 16.2505Z" fill="#6E7A82"/>
<path d="M36.8526 16.2191L36.845 16.6116L36.8595 16.6119L36.8672 16.2194L36.8526 16.2191Z" fill="#6E7A82"/>
<path d="M29.2424 17.3864L29.2173 17.3999L29.532 18.0184L29.557 18.0049L29.2424 17.3864Z" fill="#6E7A82"/>
<path d="M29.3703 17.3583L29.3453 17.3718L29.6599 17.9903L29.685 17.9768L29.3703 17.3583Z" fill="#6E7A82"/>
<path d="M18.1885 26.1701L15.9121 28.6859H14.583L17.9906 25.632L18.1885 26.1701Z" fill="#6E7A82"/>
<path d="M21.7657 23.3343C21.7657 23.3343 27.1528 17.9537 33.6851 17.372C33.7223 17.2143 33.7223 17.0497 33.6851 16.8921C31.2427 17.1957 28.8778 17.9703 26.7145 19.1752C24.9212 20.1467 23.2216 21.2909 21.6385 22.5927C21.7063 22.8346 21.7489 23.0832 21.7657 23.3343Z" fill="#6E7A82"/>
<path d="M35.0991 16.7176C35.0991 16.7176 36.6261 16.7176 37.0503 16.7176C37.0625 16.8908 37.0957 17.0618 37.1493 17.2265H35.2829L35.0991 16.7176Z" fill="#6E7A82"/>
<path d="M21.0305 20.9494C21.0305 20.9494 27.478 16.5867 33.5296 16.3976C29.0684 16.7252 24.7641 18.2275 21.0305 20.7603H20.9457L21.0305 20.9494Z" fill="#6E7A82"/>
<path d="M20.069 19.3935C20.069 19.3935 28.8495 15.787 33.3458 16.0924C33.3458 16.0924 29.1747 15.7725 20.1539 19.5099L20.069 19.3935Z" fill="#6E7A82"/>
<path d="M21.2143 21.4729C21.2143 21.4729 28.0436 16.7176 33.5296 16.514C32.6105 16.4413 28.0577 17.0666 21.2143 21.5602V21.4729Z" fill="#6E7A82"/>
<path d="M20.6063 20.1929C22.8053 19.1639 25.0678 18.2846 27.379 17.5608C25.0811 18.291 22.8406 19.2001 20.677 20.2802L20.6063 20.1929Z" fill="#6E7A82"/>
<path d="M21.3557 21.851C21.3557 21.851 28.185 17.372 31.5643 16.9648C29.1747 17.1102 23.717 20.2804 21.3133 21.7347L21.3557 21.851Z" fill="#6E7A82"/>
<path d="M21.0495 20.7698L20.9639 20.821L21.8945 22.4681L21.9801 22.417L21.0495 20.7698Z" fill="#6E7A82"/>
<path d="M21.4587 20.5807L21.3746 20.6343L22.3128 22.192L22.397 22.1384L21.4587 20.5807Z" fill="#6E7A82"/>
<path d="M21.8458 20.3426L21.7617 20.3962L22.6999 21.9538L22.7841 21.9002L21.8458 20.3426Z" fill="#6E7A82"/>
<path d="M22.2898 20.0988L22.2056 20.1524L23.1439 21.71L23.228 21.6564L22.2898 20.0988Z" fill="#6E7A82"/>
<path d="M22.7538 19.7778L22.6697 19.8318L23.6139 21.3892L23.698 21.3353L22.7538 19.7778Z" fill="#6E7A82"/>
<path d="M23.1162 19.6225L23.0321 19.6761L23.9704 21.2338L24.0545 21.1802L23.1162 19.6225Z" fill="#6E7A82"/>
<path d="M23.4746 19.4204L23.3904 19.474L24.3287 21.0316L24.4128 20.978L23.4746 19.4204Z" fill="#6E7A82"/>
<path d="M23.8565 19.1778L23.7844 19.2238L24.7226 20.7814L24.7947 20.7355L23.8565 19.1778Z" fill="#6E7A82"/>
<path d="M24.2299 18.8713L24.1578 18.9175L25.1021 20.475L25.1742 20.4288L24.2299 18.8713Z" fill="#6E7A82"/>
<path d="M24.565 18.7099L24.4929 18.7561L25.3397 20.1529L25.4118 20.1066L24.565 18.7099Z" fill="#6E7A82"/>
<path d="M24.9485 18.5548L24.8763 18.6011L25.7231 19.9979L25.7953 19.9516L24.9485 18.5548Z" fill="#6E7A82"/>
<path d="M25.3319 18.3853L25.2598 18.4315L26.1066 19.8283L26.1787 19.7821L25.3319 18.3853Z" fill="#6E7A82"/>
<path d="M25.6809 18.2979L25.6088 18.3439L26.4502 19.7408L26.5223 19.6949L25.6809 18.2979Z" fill="#6E7A82"/>
<path d="M26.0575 18.1314L25.9854 18.1773L26.8268 19.5742L26.8989 19.5283L26.0575 18.1314Z" fill="#6E7A82"/>
<path d="M26.4979 17.8534L26.4258 17.8997L27.2726 19.2965L27.3447 19.2502L26.4979 17.8534Z" fill="#6E7A82"/>
<path d="M26.864 17.8251L26.7919 17.871L27.5142 19.0702L27.5864 19.0242L26.864 17.8251Z" fill="#6E7A82"/>
<path d="M27.2717 17.6768L27.1996 17.7228L27.8549 18.8106L27.927 18.7647L27.2717 17.6768Z" fill="#6E7A82"/>
<path d="M27.6678 17.5154L27.5957 17.5613L28.251 18.6492L28.3231 18.6033L27.6678 17.5154Z" fill="#6E7A82"/>
<path d="M28.1014 17.41L28.0292 17.456L28.6845 18.5439L28.7567 18.4979L28.1014 17.41Z" fill="#6E7A82"/>
<path d="M28.5428 17.2663L28.4706 17.3122L29.0068 18.2023L29.0789 18.1563L28.5428 17.2663Z" fill="#6E7A82"/>
<path d="M28.9909 17.117L28.9146 17.155L29.3338 18.0449L29.4101 18.0069L28.9909 17.117Z" fill="#6E7A82"/>
<path d="M29.3628 17.0386L29.2994 17.0708L29.7259 17.9571L29.7893 17.9248L29.3628 17.0386Z" fill="#6E7A82"/>
<path d="M29.725 16.9378L29.6738 16.9626L30.0825 17.8576L30.1337 17.8329L29.725 16.9378Z" fill="#6E7A82"/>
<path d="M30.1497 16.8254L30.0971 16.8469L30.4415 17.7389L30.4941 17.7174L30.1497 16.8254Z" fill="#6E7A82"/>
<path d="M30.5145 16.7593L30.4739 16.7719L30.7234 17.6211L30.764 17.6085L30.5145 16.7593Z" fill="#6E7A82"/>
<path d="M30.8805 16.6817L30.8386 16.6884L30.9639 17.5219L31.0059 17.5152L30.8805 16.6817Z" fill="#6E7A82"/>
<path d="M31.2281 16.6286L31.1857 16.6306L31.221 17.4151L31.2634 17.413L31.2281 16.6286Z" fill="#6E7A82"/>
<path d="M31.508 16.5861L31.4803 16.5875L31.5143 17.3428L31.542 17.3415L31.508 16.5861Z" fill="#6E7A82"/>
<path d="M31.7462 16.5457L31.7185 16.547L31.7525 17.3024L31.7801 17.301L31.7462 16.5457Z" fill="#6E7A82"/>
<path d="M31.9978 16.49L31.9702 16.4913L32.0041 17.2467L32.0318 17.2454L31.9978 16.49Z" fill="#6E7A82"/>
<path d="M32.2648 16.4627L32.2372 16.4641L32.2712 17.2194L32.2988 17.2181L32.2648 16.4627Z" fill="#6E7A82"/>
<path d="M32.4791 16.4582L32.4515 16.4605L32.4993 17.0838L32.5269 17.0815L32.4791 16.4582Z" fill="#6E7A82"/>
<path d="M32.8322 16.3746L32.8045 16.3769L32.8531 17.0021L32.8808 16.9998L32.8322 16.3746Z" fill="#6E7A82"/>
<path d="M32.9127 16.4084L32.8851 16.4107L32.9329 17.034L32.9605 17.0317L32.9127 16.4084Z" fill="#6E7A82"/>
<path d="M33.0665 16.3959L33.0389 16.3981L33.0867 17.0214L33.1143 17.0192L33.0665 16.3959Z" fill="#6E7A82"/>
<path d="M33.2335 16.3672L33.2059 16.3695L33.2537 16.9928L33.2813 16.9905L33.2335 16.3672Z" fill="#6E7A82"/>
<path d="M33.4719 16.3483L33.4443 16.3506L33.4921 16.9739L33.5197 16.9716L33.4719 16.3483Z" fill="#6E7A82"/>
<path d="M20.3802 19.844C22.8007 18.7258 25.3072 17.8162 27.874 17.1245C25.2921 17.7932 22.7708 18.6884 20.3378 19.8003L20.3802 19.844Z" fill="#6E7A82"/>
<path d="M27.8739 17.1245H27.7608H27.6618H27.478H27.3931H27.2942H27.1811H27.0679H26.969H26.8276H26.1913H26.1065H26.0216H25.9227H25.8378H25.7671H25.6823H25.5409H25.244H25.145H25.046H24.9471H24.8764H24.7915H24.7208H24.6501H24.5794H24.4663H23.6321H23.519H23.4483H23.3493H23.2362H23.0807H22.9534H22.812H22.7413H22.6141H22.5151H22.4444H22.303H22.2323H22.0909H21.9495H21.794H21.6385L21.4688 17.2118H20.8042H20.6346H20.5356H20.4225H20.5073H20.6063L20.776 17.1391H20.9456H21.1012H21.1719H21.3133H21.384H21.5253H21.6809H21.8364H21.9495H22.0909H22.2323H22.303H22.4303H22.5717H22.6706H22.7696H22.8403H22.9676H23.0807H23.1514H23.2221H23.2928H23.3776H23.4766H23.5473H23.6462H23.7452H23.9432H24.0139H24.0846H25.046H25.1309H25.2157H25.3147H25.4985H25.5833H25.9085H25.9792H26.0499H26.1206H26.2196H26.3044H26.3751C26.4173 17.1453 26.4602 17.1453 26.5024 17.1391H26.6155H26.7286H26.8276H26.9266H27.0114H27.1104H27.2093H27.8739V17.1245ZM24.127 18.2879H24.0421H23.9714H23.8442H23.7169H23.618H23.5473H23.4483H23.3069L22.7837 18.826H22.6424H22.5151H22.4161H22.2182H22.0768H21.9354H21.794H21.6385H21.4829H21.087H20.9174H20.7477H20.6487H20.578H20.677H20.776L20.8042 19.5822L20.9739 19.4949H21.1153H21.186L21.3274 19.4222H21.4688H21.6243H21.695H21.8364H22.2182H22.3171H22.4585H22.5292H22.6706H22.7979H22.9534H23.0524H23.1514H23.2221H23.3352H23.4483H23.519H23.618L24.127 18.2879Z" fill="#6E7A82"/>
<path d="M34.8162 16.0775L37.234 16.1211L37.2199 16.1502L34.8162 16.1357V16.0775Z" fill="#6E7A82"/>
<path d="M34.8729 16.2229H37.1917L37.1776 16.2665H34.887L34.8729 16.2229Z" fill="#6E7A82"/>
<path d="M34.9429 16.1087L34.9158 16.117L35.0818 16.6883L35.1089 16.6799L34.9429 16.1087Z" fill="#6E7A82"/>
<path d="M35.2249 16.0961L35.1975 16.1004L35.2796 16.6462L35.3069 16.6419L35.2249 16.0961Z" fill="#6E7A82"/>
<path d="M35.4532 16.0992L35.4256 16.1014L35.4681 16.6668L35.4957 16.6646L35.4532 16.0992Z" fill="#6E7A82"/>
<path d="M35.6783 16.0924H35.6506V16.645H35.6783V16.0924Z" fill="#6E7A82"/>
<path d="M35.9044 16.1068H35.8767V16.6303H35.9044V16.1068Z" fill="#6E7A82"/>
<path d="M36.1024 16.1216H36.0748V16.6306H36.1024V16.1216Z" fill="#6E7A82"/>
<path d="M36.3178 16.1228L36.2902 16.1233L36.2987 16.6467L36.3264 16.6463L36.3178 16.1228Z" fill="#6E7A82"/>
<path d="M36.5407 16.1068H36.513V16.6303H36.5407V16.1068Z" fill="#6E7A82"/>
<path d="M36.7952 16.1068H36.7675V16.6158H36.7952V16.1068Z" fill="#6E7A82"/>
<path d="M36.9973 16.1425L36.9702 16.607L36.9978 16.6087L37.0249 16.1443L36.9973 16.1425Z" fill="#6E7A82"/>
</g>
<defs>
<clipPath id="clip0_4_1494">
<rect width="40" height="17" fill="white" transform="translate(1.00928 13.0091)"/>
</clipPath>
</defs>
</svg>
