<svg width="141" height="114" viewBox="0 0 141 114" fill="none" xmlns="http://www.w3.org/2000/svg">
<g clip-path="url(#clip0_4_1501)">
<path d="M85.0055 19.7468H96.656L76.6984 42.1636L76.6984 42.1636L70.2406 49.4202L70.2387 49.4223L63.7321 56.6521L63.7314 56.6529L57.2502 63.8867L57.2498 63.8872L21.205 104.005L20.4555 104.839H21.5769H34.5938H34.8165L34.9655 104.673L64.5023 71.8384L64.5036 71.8369L70.9606 64.6028L70.9608 64.6026L77.4687 57.3202L77.4691 57.3198L83.9259 50.1128L83.9268 50.1118L111.135 19.5804L111.136 19.5794L119.747 9.96798L120.494 9.13435H119.374H81.6924L89.4099 0.5H139.878L132.001 9.26581L131.986 9.28085L131.976 9.29078L131.967 9.30125L123.38 18.9137L123.38 18.9139L89.6901 56.6766L89.6888 56.6781L83.2061 63.8865L83.205 63.8878L76.699 71.1709L77.0719 71.504L76.699 71.1709L70.2408 78.4011L70.2393 78.4027L47.1636 104.004L47.1613 104.007L38.7237 113.5H1.11755L9.00773 104.673L9.00843 104.672L51.5098 57.321L51.5102 57.3206L57.9939 50.1135L57.9955 50.1117L64.503 42.8053L64.504 42.8042L70.9602 35.5978L70.962 35.5958L85.0055 19.7468Z" stroke="url(#paint0_linear_4_1501)"/>
<path d="M79.0968 84.4736L83.5532 79.4869L106.009 104.672L106.158 104.839H106.382H119.448H120.565L119.82 104.006L90.732 71.4765L96.5199 64.9725L131.967 104.672L131.968 104.673L139.88 113.5H102.324L93.8379 104.006L93.8378 104.006L77.7421 85.9942L79.0963 84.4742L79.0968 84.4736Z" stroke="url(#paint1_linear_4_1501)"/>
<path d="M35.0149 9.30057L34.8658 9.13435H34.6426H21.6013H20.4802L21.2293 9.96844L50.4431 42.4976L44.6551 49.0041L9.05917 9.30058L9.0587 9.30005L1.14636 0.5H38.7245L47.1867 9.96756L47.1877 9.9687L63.4319 28.0305L57.622 34.515L35.0149 9.30057Z" stroke="url(#paint2_linear_4_1501)"/>
</g>
<defs>
<linearGradient id="paint0_linear_4_1501" x1="70.5" y1="0" x2="70.5" y2="114" gradientUnits="userSpaceOnUse">
<stop stop-color="white"/>
<stop offset="1" stop-color="white" stop-opacity="0"/>
</linearGradient>
<linearGradient id="paint1_linear_4_1501" x1="109.036" y1="64.2211" x2="109.036" y2="114" gradientUnits="userSpaceOnUse">
<stop stop-color="white"/>
<stop offset="1" stop-color="white" stop-opacity="0"/>
</linearGradient>
<linearGradient id="paint2_linear_4_1501" x1="32.0641" y1="0" x2="32.0641" y2="49.7547" gradientUnits="userSpaceOnUse">
<stop stop-color="white"/>
<stop offset="1" stop-color="white" stop-opacity="0"/>
</linearGradient>
<clipPath id="clip0_4_1501">
<rect width="141" height="114" fill="white"/>
</clipPath>
</defs>
</svg>
