<svg width="46" height="46" viewBox="0 0 46 46" fill="none" xmlns="http://www.w3.org/2000/svg">
<circle cx="23.4692" cy="23.3096" r="22.5001" fill="#654045"/>
<path d="M36.227 12.3467L34.6436 14.1779L33.1054 16.0572L26.9979 23.3337L25.8217 24.683L24.6454 26.1287L23.4692 27.478L19.307 32.4414L17.7689 34.2726H10.7113L12.2947 32.4414L19.9856 23.2855L21.1167 21.9362L22.2929 20.4906L23.4692 19.1413L26.0479 16.0572H28.4004L24.6454 20.5388L23.4692 21.9362L22.2929 23.2855L21.1167 24.683L14.602 32.4414H16.9998L22.2929 26.1287L23.4692 24.7312L24.6454 23.2855L25.8217 21.9362L30.7529 16.0572L32.2911 14.1779H25.2788L26.8622 12.3467H36.227Z" fill="white"/>
<path d="M36.2271 34.2722H29.1696L27.6314 32.441L24.6455 28.875L24.9622 28.5377L25.8218 27.4776L29.9387 32.441H32.2912L26.998 26.0801L28.1743 24.6826L34.6437 32.441L36.2271 34.2722Z" fill="white"/>
<path d="M16.9998 14.1779H14.6472L19.9404 20.5388L18.8094 21.9362L12.2947 14.1779L10.7113 12.3467H17.7689L19.307 14.1779L22.2929 17.7438L21.1167 19.1413L16.9998 14.1779Z" fill="white"/>
</svg>
