<svg width="159" height="159" viewBox="0 0 159 159" fill="none" xmlns="http://www.w3.org/2000/svg">
<circle cx="79.5806" cy="79.8438" r="73.3604" fill="url(#paint0_radial_372_319)" stroke="#263C47" stroke-width="11"/>
<g filter="url(#filter0_b_372_319)">
<circle cx="79.5806" cy="79.8438" r="39.0918" fill="url(#paint1_linear_372_319)"/>
<circle cx="79.5806" cy="79.8438" r="39.5918" stroke="url(#paint2_linear_372_319)"/>
</g>
<path d="M56.4421 88.8438L64.3789 73.1477V73.0146H55.1992V70.6619H67.2198V73.0945L59.3096 88.8438H56.4421ZM76.3143 89.0923C75.2016 89.0923 74.2014 88.8793 73.3136 88.4531C72.4317 88.0211 71.7274 87.4292 71.2007 86.6776C70.6739 85.9259 70.3928 85.0677 70.3573 84.103H73.0206C73.0857 84.8842 73.432 85.5264 74.0593 86.0295C74.6867 86.5326 75.4384 86.7841 76.3143 86.7841C77.0127 86.7841 77.6312 86.6243 78.1698 86.3047C78.7143 85.9792 79.1404 85.5323 79.4482 84.9641C79.7619 84.396 79.9187 83.7479 79.9187 83.0199C79.9187 82.2801 79.7589 81.6201 79.4393 81.0401C79.1197 80.4601 78.6788 80.0044 78.1165 79.6729C77.5602 79.3415 76.921 79.1728 76.1989 79.1669C75.6485 79.1669 75.0951 79.2616 74.5388 79.451C73.9824 79.6404 73.5326 79.889 73.1893 80.1967L70.6769 79.8239L71.6978 70.6619H81.6943V73.0146H73.9794L73.4024 78.1016H73.5089C73.864 77.7583 74.3346 77.4712 74.9205 77.2404C75.5124 77.0096 76.1456 76.8942 76.8204 76.8942C77.9271 76.8942 78.9126 77.1576 79.7767 77.6843C80.6467 78.2111 81.3303 78.9302 81.8275 79.8416C82.3305 80.7472 82.5791 81.7888 82.5732 82.9666C82.5791 84.1444 82.3128 85.195 81.7742 86.1183C81.2415 87.0415 80.5017 87.7695 79.5547 88.3022C78.6137 88.829 77.5335 89.0923 76.3143 89.0923ZM95.5562 85.4347V84.4759C95.5562 83.7893 95.6983 83.1619 95.9824 82.5938C96.2724 82.0196 96.6926 81.561 97.243 81.2177C97.7994 80.8685 98.4711 80.6939 99.2583 80.6939C100.063 80.6939 100.738 80.8655 101.282 81.2088C101.827 81.5521 102.238 82.0108 102.516 82.5849C102.801 83.159 102.943 83.7893 102.943 84.4759V85.4347C102.943 86.1212 102.801 86.7515 102.516 87.3256C102.232 87.8938 101.815 88.3525 101.265 88.7017C100.72 89.045 100.051 89.2166 99.2583 89.2166C98.4593 89.2166 97.7846 89.045 97.2342 88.7017C96.6837 88.3525 96.2665 87.8938 95.9824 87.3256C95.6983 86.7515 95.5562 86.1212 95.5562 85.4347ZM97.6248 84.4759V85.4347C97.6248 85.9437 97.7461 86.4053 97.9888 86.8196C98.2314 87.2339 98.6546 87.4411 99.2583 87.4411C99.8561 87.4411 100.273 87.2339 100.51 86.8196C100.747 86.4053 100.865 85.9437 100.865 85.4347V84.4759C100.865 83.9669 100.75 83.5052 100.519 83.0909C100.294 82.6766 99.8738 82.4695 99.2583 82.4695C98.6664 82.4695 98.2462 82.6766 97.9976 83.0909C97.7491 83.5052 97.6248 83.9669 97.6248 84.4759ZM86.4121 75.0298V74.071C86.4121 73.3845 86.5541 72.7541 86.8382 72.18C87.1282 71.6059 87.5484 71.1473 88.0989 70.804C88.6552 70.4607 89.327 70.2891 90.1141 70.2891C90.919 70.2891 91.5938 70.4607 92.1383 70.804C92.6828 71.1473 93.0941 71.6059 93.3723 72.18C93.6505 72.7541 93.7896 73.3845 93.7896 74.071V75.0298C93.7896 75.7164 93.6475 76.3467 93.3634 76.9208C93.0852 77.489 92.6709 77.9477 92.1205 78.2969C91.576 78.6402 90.9072 78.8118 90.1141 78.8118C89.3092 78.8118 88.6315 78.6402 88.0811 78.2969C87.5366 77.9477 87.1223 77.489 86.8382 76.9208C86.5541 76.3467 86.4121 75.7164 86.4121 75.0298ZM88.4895 74.071V75.0298C88.4895 75.5388 88.6079 76.0005 88.8446 76.4148C89.0873 76.8291 89.5104 77.0362 90.1141 77.0362C90.706 77.0362 91.1203 76.8291 91.357 76.4148C91.5997 76.0005 91.721 75.5388 91.721 75.0298V74.071C91.721 73.562 91.6056 73.1004 91.3748 72.6861C91.144 72.2718 90.7237 72.0646 90.1141 72.0646C89.5223 72.0646 89.1021 72.2718 88.8535 72.6861C88.6108 73.1004 88.4895 73.562 88.4895 74.071ZM87.2555 88.8438L99.7555 70.6619H101.877L89.3773 88.8438H87.2555Z" fill="white"/>
<path d="M153.121 79.8438C156.059 79.8438 158.46 82.2283 158.262 85.1595C157.334 98.8863 152.828 112.166 145.151 123.656C136.485 136.625 124.169 146.732 109.759 152.701C95.3493 158.67 79.4931 160.232 64.1957 157.189C48.8983 154.146 34.8467 146.635 23.8179 135.606C12.7891 124.578 5.27834 110.526 2.23549 95.2286C-0.80735 79.9312 0.754348 64.075 6.7231 49.6652C12.6919 35.2554 22.7996 22.9391 35.7681 14.2738C47.2587 6.59597 60.538 2.09001 74.2648 1.16273C77.196 0.964713 79.5806 3.36505 79.5806 6.30297C79.5806 9.2409 77.1952 11.601 74.2662 11.8298C62.6458 12.7377 51.4195 16.6115 41.6789 23.1199C30.46 30.6161 21.7159 41.2708 16.5524 53.7366C11.3889 66.2024 10.0379 79.9194 12.6702 93.153C15.3025 106.387 21.8 118.543 31.3409 128.083C40.8818 137.624 53.0377 144.122 66.2713 146.754C79.5049 149.386 93.2219 148.035 105.688 142.872C118.153 137.708 128.808 128.964 136.304 117.745C142.813 108.005 146.687 96.7785 147.594 85.1581C147.823 82.2291 150.183 79.8438 153.121 79.8438Z" fill="#62DAF4"/>
<defs>
<filter id="filter0_b_372_319" x="29.4888" y="29.752" width="100.184" height="100.184" filterUnits="userSpaceOnUse" color-interpolation-filters="sRGB">
<feFlood flood-opacity="0" result="BackgroundImageFix"/>
<feGaussianBlur in="BackgroundImageFix" stdDeviation="5"/>
<feComposite in2="SourceAlpha" operator="in" result="effect1_backgroundBlur_372_319"/>
<feBlend mode="normal" in="SourceGraphic" in2="effect1_backgroundBlur_372_319" result="shape"/>
</filter>
<radialGradient id="paint0_radial_372_319" cx="0" cy="0" r="1" gradientUnits="userSpaceOnUse" gradientTransform="translate(79.5806 79.8437) rotate(90) scale(78.8604)">
<stop stop-color="white" stop-opacity="0.23"/>
<stop offset="1" stop-color="#00D2FF" stop-opacity="0"/>
</radialGradient>
<linearGradient id="paint1_linear_372_319" x1="79.5806" y1="40.752" x2="79.5806" y2="118.936" gradientUnits="userSpaceOnUse">
<stop stop-opacity="0.08"/>
<stop offset="1" stop-color="#08282D" stop-opacity="0.21"/>
</linearGradient>
<linearGradient id="paint2_linear_372_319" x1="79.5806" y1="40.752" x2="79.5806" y2="118.936" gradientUnits="userSpaceOnUse">
<stop stop-color="white"/>
<stop offset="1" stop-color="white" stop-opacity="0"/>
</linearGradient>
</defs>
</svg>
