<svg width="159" height="159" viewBox="0 0 159 159" fill="none" xmlns="http://www.w3.org/2000/svg">
<circle cx="79.2368" cy="79.8438" r="73.3604" fill="url(#paint0_radial_372_440)" stroke="#263C47" stroke-width="11"/>
<g filter="url(#filter0_b_372_440)">
<circle cx="79.2368" cy="79.8438" r="39.0918" fill="url(#paint1_linear_372_440)"/>
<circle cx="79.2368" cy="79.8438" r="39.5918" stroke="url(#paint2_linear_372_440)"/>
</g>
<path d="M56.0983 88.8438L64.0351 73.1477V73.0146H54.8554V70.6619H66.876V73.0945L58.9659 88.8438H56.0983ZM75.9706 89.0923C74.8579 89.0923 73.8576 88.8793 72.9699 88.4531C72.088 88.0211 71.3837 87.4292 70.8569 86.6776C70.3302 85.9259 70.0491 85.0677 70.0135 84.103H72.6769C72.742 84.8842 73.0882 85.5264 73.7156 86.0295C74.343 86.5326 75.0946 86.7841 75.9706 86.7841C76.669 86.7841 77.2874 86.6243 77.826 86.3047C78.3705 85.9792 78.7967 85.5323 79.1044 84.9641C79.4181 84.396 79.575 83.7479 79.575 83.0199C79.575 82.2801 79.4152 81.6201 79.0956 81.0401C78.776 80.4601 78.335 80.0044 77.7728 79.6729C77.2164 79.3415 76.5772 79.1728 75.8552 79.1669C75.3047 79.1669 74.7513 79.2616 74.195 79.451C73.6387 79.6404 73.1888 79.889 72.8456 80.1967L70.3331 79.8239L71.3541 70.6619H81.3505V73.0146H73.6357L73.0586 78.1016H73.1652C73.5203 77.7583 73.9908 77.4712 74.5767 77.2404C75.1686 77.0096 75.8019 76.8942 76.4766 76.8942C77.5834 76.8942 78.5688 77.1576 79.4329 77.6843C80.303 78.2111 80.9866 78.9302 81.4837 79.8416C81.9868 80.7472 82.2354 81.7888 82.2294 82.9666C82.2354 84.1444 81.969 85.195 81.4304 86.1183C80.8978 87.0415 80.158 87.7695 79.211 88.3022C78.2699 88.829 77.1898 89.0923 75.9706 89.0923ZM95.2125 85.4347V84.4759C95.2125 83.7893 95.3545 83.1619 95.6386 82.5938C95.9286 82.0196 96.3489 81.561 96.8993 81.2177C97.4556 80.8685 98.1274 80.6939 98.9146 80.6939C99.7195 80.6939 100.394 80.8655 100.939 81.2088C101.483 81.5521 101.895 82.0108 102.173 82.5849C102.457 83.159 102.599 83.7893 102.599 84.4759V85.4347C102.599 86.1212 102.457 86.7515 102.173 87.3256C101.889 87.8938 101.471 88.3525 100.921 88.7017C100.376 89.045 99.7076 89.2166 98.9146 89.2166C98.1155 89.2166 97.4408 89.045 96.8904 88.7017C96.34 88.3525 95.9227 87.8938 95.6386 87.3256C95.3545 86.7515 95.2125 86.1212 95.2125 85.4347ZM97.281 84.4759V85.4347C97.281 85.9437 97.4024 86.4053 97.645 86.8196C97.8877 87.2339 98.3109 87.4411 98.9146 87.4411C99.5123 87.4411 99.9296 87.2339 100.166 86.8196C100.403 86.4053 100.521 85.9437 100.521 85.4347V84.4759C100.521 83.9669 100.406 83.5052 100.175 83.0909C99.9503 82.6766 99.5301 82.4695 98.9146 82.4695C98.3227 82.4695 97.9025 82.6766 97.6539 83.0909C97.4053 83.5052 97.281 83.9669 97.281 84.4759ZM86.0683 75.0298V74.071C86.0683 73.3845 86.2104 72.7541 86.4945 72.18C86.7845 71.6059 87.2047 71.1473 87.7551 70.804C88.3114 70.4607 88.9832 70.2891 89.7704 70.2891C90.5753 70.2891 91.25 70.4607 91.7945 70.804C92.339 71.1473 92.7504 71.6059 93.0285 72.18C93.3067 72.7541 93.4458 73.3845 93.4458 74.071V75.0298C93.4458 75.7164 93.3038 76.3467 93.0197 76.9208C92.7415 77.489 92.3272 77.9477 91.7768 78.2969C91.2323 78.6402 90.5635 78.8118 89.7704 78.8118C88.9655 78.8118 88.2878 78.6402 87.7373 78.2969C87.1928 77.9477 86.7785 77.489 86.4945 76.9208C86.2104 76.3467 86.0683 75.7164 86.0683 75.0298ZM88.1457 74.071V75.0298C88.1457 75.5388 88.2641 76.0005 88.5008 76.4148C88.7435 76.8291 89.1667 77.0362 89.7704 77.0362C90.3622 77.0362 90.7765 76.8291 91.0133 76.4148C91.2559 76.0005 91.3773 75.5388 91.3773 75.0298V74.071C91.3773 73.562 91.2619 73.1004 91.031 72.6861C90.8002 72.2718 90.38 72.0646 89.7704 72.0646C89.1785 72.0646 88.7583 72.2718 88.5097 72.6861C88.2671 73.1004 88.1457 73.562 88.1457 74.071ZM86.9117 88.8438L99.4117 70.6619H101.534L89.0335 88.8438H86.9117Z" fill="white"/>
<path d="M152.778 79.8438C155.716 79.8438 158.116 82.2283 157.918 85.1595C156.991 98.8863 152.485 112.166 144.807 123.656C136.142 136.625 123.825 146.732 109.415 152.701C95.0055 158.67 79.1493 160.232 63.8519 157.189C48.5545 154.146 34.5029 146.635 23.4741 135.606C12.4453 124.578 4.93459 110.526 1.89174 95.2286C-1.1511 79.9312 0.410598 64.075 6.37935 49.6652C12.3481 35.2554 22.4558 22.9391 35.4244 14.2738C46.915 6.59597 60.1943 2.09001 73.921 1.16273C76.8523 0.964713 79.2368 3.36505 79.2368 6.30297C79.2368 9.2409 76.8514 11.601 73.9224 11.8298C62.302 12.7377 51.0757 16.6115 41.3351 23.1199C30.1162 30.6161 21.3721 41.2708 16.2086 53.7366C11.0451 66.2024 9.69414 79.9194 12.3265 93.153C14.9588 106.387 21.4562 118.543 30.9971 128.083C40.538 137.624 52.6939 144.122 65.9275 146.754C79.1611 149.386 92.8781 148.035 105.344 142.872C117.81 137.708 128.464 128.964 135.961 117.745C142.469 108.005 146.343 96.7785 147.251 85.1581C147.48 82.2291 149.84 79.8438 152.778 79.8438Z" fill="#4946F9"/>
<defs>
<filter id="filter0_b_372_440" x="29.145" y="29.752" width="100.184" height="100.184" filterUnits="userSpaceOnUse" color-interpolation-filters="sRGB">
<feFlood flood-opacity="0" result="BackgroundImageFix"/>
<feGaussianBlur in="BackgroundImageFix" stdDeviation="5"/>
<feComposite in2="SourceAlpha" operator="in" result="effect1_backgroundBlur_372_440"/>
<feBlend mode="normal" in="SourceGraphic" in2="effect1_backgroundBlur_372_440" result="shape"/>
</filter>
<radialGradient id="paint0_radial_372_440" cx="0" cy="0" r="1" gradientUnits="userSpaceOnUse" gradientTransform="translate(79.2368 79.8437) rotate(90) scale(78.8604)">
<stop stop-color="white" stop-opacity="0.23"/>
<stop offset="1" stop-color="#4946F9" stop-opacity="0"/>
</radialGradient>
<linearGradient id="paint1_linear_372_440" x1="79.2368" y1="40.752" x2="79.2368" y2="118.936" gradientUnits="userSpaceOnUse">
<stop stop-opacity="0.08"/>
<stop offset="1" stop-color="#08282D" stop-opacity="0.21"/>
</linearGradient>
<linearGradient id="paint2_linear_372_440" x1="79.2368" y1="40.752" x2="79.2368" y2="118.936" gradientUnits="userSpaceOnUse">
<stop stop-color="white"/>
<stop offset="1" stop-color="white" stop-opacity="0"/>
</linearGradient>
</defs>
</svg>
