<svg width="159" height="159" viewBox="0 0 159 159" fill="none" xmlns="http://www.w3.org/2000/svg">
<circle cx="79.5649" cy="79.8438" r="73.3604" fill="url(#paint0_radial_372_510)" stroke="#263C47" stroke-width="11"/>
<g filter="url(#filter0_b_372_510)">
<circle cx="79.5649" cy="79.8438" r="39.0918" fill="url(#paint1_linear_372_510)"/>
<circle cx="79.5649" cy="79.8438" r="39.5918" stroke="url(#paint2_linear_372_510)"/>
</g>
<path d="M61.9573 89.0923C60.6849 89.0923 59.5603 88.8733 58.5838 88.4354C57.6131 87.9974 56.8526 87.3937 56.3022 86.6243C55.7517 85.8549 55.4795 84.9789 55.4854 83.9964C55.4795 83.227 55.6363 82.5198 55.9559 81.8746C56.2814 81.2236 56.7224 80.6821 57.2787 80.25C57.8351 79.812 58.4565 79.5339 59.1431 79.4155V79.3089C58.2375 79.09 57.5125 78.6046 56.968 77.853C56.4235 77.1013 56.1542 76.2372 56.1601 75.2607C56.1542 74.3314 56.3998 73.5028 56.897 72.7749C57.4001 72.041 58.0896 71.4639 58.9655 71.0437C59.8415 70.6235 60.8387 70.4134 61.9573 70.4134C63.0641 70.4134 64.0525 70.6264 64.9225 71.0526C65.7985 71.4728 66.488 72.0498 66.9911 72.7837C67.4942 73.5117 67.7487 74.3374 67.7546 75.2607C67.7487 76.2372 67.4705 77.1013 66.9201 77.853C66.3696 78.6046 65.6535 79.09 64.7716 79.3089V79.4155C65.4523 79.5339 66.0648 79.812 66.6093 80.25C67.1598 80.6821 67.5977 81.2236 67.9233 81.8746C68.2547 82.5198 68.4234 83.227 68.4293 83.9964C68.4234 84.9789 68.1452 85.8549 67.5948 86.6243C67.0443 87.3937 66.2809 87.9974 65.3043 88.4354C64.3336 88.8733 63.218 89.0923 61.9573 89.0923ZM61.9573 86.8462C62.709 86.8462 63.36 86.7219 63.9105 86.4734C64.4609 86.2189 64.887 85.8667 65.1889 85.4169C65.4907 84.9612 65.6446 84.4285 65.6505 83.8189C65.6446 83.1856 65.4789 82.6263 65.1534 82.141C64.8338 81.6557 64.3987 81.2739 63.8483 80.9957C63.2979 80.7176 62.6676 80.5785 61.9573 80.5785C61.2412 80.5785 60.605 80.7176 60.0486 80.9957C59.4923 81.2739 59.0543 81.6557 58.7347 82.141C58.4151 82.6263 58.2582 83.1856 58.2642 83.8189C58.2582 84.4285 58.4032 84.9612 58.6992 85.4169C59.001 85.8667 59.4301 86.2189 59.9865 86.4734C60.5428 86.7219 61.1998 86.8462 61.9573 86.8462ZM61.9573 78.3857C62.561 78.3857 63.0967 78.2643 63.5642 78.0217C64.0318 77.779 64.3987 77.4416 64.6651 77.0096C64.9373 76.5775 65.0764 76.0715 65.0823 75.4915C65.0764 74.9233 64.9403 74.4261 64.674 74C64.4135 73.5739 64.0496 73.2454 63.582 73.0146C63.1144 72.7778 62.5729 72.6594 61.9573 72.6594C61.33 72.6594 60.7795 72.7778 60.3061 73.0146C59.8385 73.2454 59.4745 73.5739 59.2141 74C58.9537 74.4261 58.8264 74.9233 58.8323 75.4915C58.8264 76.0715 58.9566 76.5775 59.223 77.0096C59.4893 77.4416 59.8563 77.779 60.3238 78.0217C60.7973 78.2643 61.3418 78.3857 61.9573 78.3857ZM77.8612 89.0923C76.7485 89.0923 75.7483 88.8793 74.8605 88.4531C73.9786 88.0211 73.2743 87.4292 72.7476 86.6776C72.2208 85.9259 71.9397 85.0677 71.9042 84.103H74.5675C74.6326 84.8842 74.9789 85.5264 75.6062 86.0295C76.2336 86.5326 76.9852 86.7841 77.8612 86.7841C78.5596 86.7841 79.1781 86.6243 79.7167 86.3047C80.2612 85.9792 80.6873 85.5323 80.9951 84.9641C81.3088 84.396 81.4656 83.7479 81.4656 83.0199C81.4656 82.2801 81.3058 81.6201 80.9862 81.0401C80.6666 80.4601 80.2257 80.0044 79.6634 79.6729C79.1071 79.3415 78.4678 79.1728 77.7458 79.1669C77.1954 79.1669 76.642 79.2616 76.0856 79.451C75.5293 79.6404 75.0795 79.889 74.7362 80.1967L72.2238 79.8239L73.2447 70.6619H83.2412V73.0146H75.5263L74.9493 78.1016H75.0558C75.4109 77.7583 75.8814 77.4712 76.4674 77.2404C77.0592 77.0096 77.6925 76.8942 78.3672 76.8942C79.474 76.8942 80.4594 77.1576 81.3236 77.6843C82.1936 78.2111 82.8772 78.9302 83.3743 79.8416C83.8774 80.7472 84.126 81.7888 84.1201 82.9666C84.126 84.1444 83.8597 85.195 83.3211 86.1183C82.7884 87.0415 82.0486 87.7695 81.1016 88.3022C80.1606 88.829 79.0804 89.0923 77.8612 89.0923ZM97.1031 85.4347V84.4759C97.1031 83.7893 97.2452 83.1619 97.5293 82.5938C97.8193 82.0196 98.2395 81.561 98.7899 81.2177C99.3463 80.8685 100.018 80.6939 100.805 80.6939C101.61 80.6939 102.285 80.8655 102.829 81.2088C103.374 81.5521 103.785 82.0108 104.063 82.5849C104.347 83.159 104.489 83.7893 104.489 84.4759V85.4347C104.489 86.1212 104.347 86.7515 104.063 87.3256C103.779 87.8938 103.362 88.3525 102.812 88.7017C102.267 89.045 101.598 89.2166 100.805 89.2166C100.006 89.2166 99.3315 89.045 98.781 88.7017C98.2306 88.3525 97.8133 87.8938 97.5293 87.3256C97.2452 86.7515 97.1031 86.1212 97.1031 85.4347ZM99.1717 84.4759V85.4347C99.1717 85.9437 99.293 86.4053 99.5356 86.8196C99.7783 87.2339 100.201 87.4411 100.805 87.4411C101.403 87.4411 101.82 87.2339 102.057 86.8196C102.294 86.4053 102.412 85.9437 102.412 85.4347V84.4759C102.412 83.9669 102.297 83.5052 102.066 83.0909C101.841 82.6766 101.421 82.4695 100.805 82.4695C100.213 82.4695 99.7931 82.6766 99.5445 83.0909C99.2959 83.5052 99.1717 83.9669 99.1717 84.4759ZM87.9589 75.0298V74.071C87.9589 73.3845 88.101 72.7541 88.3851 72.18C88.6751 71.6059 89.0953 71.1473 89.6457 70.804C90.2021 70.4607 90.8738 70.2891 91.661 70.2891C92.4659 70.2891 93.1406 70.4607 93.6851 70.804C94.2297 71.1473 94.641 71.6059 94.9192 72.18C95.1973 72.7541 95.3364 73.3845 95.3364 74.071V75.0298C95.3364 75.7164 95.1944 76.3467 94.9103 76.9208C94.6321 77.489 94.2178 77.9477 93.6674 78.2969C93.1229 78.6402 92.4541 78.8118 91.661 78.8118C90.8561 78.8118 90.1784 78.6402 89.628 78.2969C89.0835 77.9477 88.6692 77.489 88.3851 76.9208C88.101 76.3467 87.9589 75.7164 87.9589 75.0298ZM90.0364 74.071V75.0298C90.0364 75.5388 90.1547 76.0005 90.3915 76.4148C90.6341 76.8291 91.0573 77.0362 91.661 77.0362C92.2529 77.0362 92.6672 76.8291 92.9039 76.4148C93.1466 76.0005 93.2679 75.5388 93.2679 75.0298V74.071C93.2679 73.562 93.1525 73.1004 92.9217 72.6861C92.6908 72.2718 92.2706 72.0646 91.661 72.0646C91.0691 72.0646 90.6489 72.2718 90.4003 72.6861C90.1577 73.1004 90.0364 73.562 90.0364 74.071ZM88.8023 88.8438L101.302 70.6619H103.424L90.9241 88.8438H88.8023Z" fill="white"/>
<path d="M153.106 79.8438C156.044 79.8438 158.444 82.2283 158.246 85.1596C157.178 100.977 151.361 116.151 141.495 128.666C130.529 142.576 115.199 152.39 97.9745 156.525C80.7504 160.66 62.6357 158.876 46.5493 151.46C30.4629 144.044 17.3416 131.428 9.29986 115.646C1.25808 99.8627 -1.23587 81.832 2.21987 64.4589C5.6756 47.0857 14.8798 31.3819 28.3492 19.8779C41.8187 8.37386 58.769 1.73963 76.4689 1.0442C92.3921 0.418572 108.088 4.63209 121.512 13.0649C124 14.6276 124.518 17.9712 122.791 20.348C121.064 22.7248 117.747 23.232 115.243 21.6955C103.766 14.6531 90.4212 11.1434 76.8866 11.6751C61.5746 12.2768 46.9111 18.016 35.2588 27.968C23.6065 37.9199 15.6441 51.5051 12.6546 66.5345C9.66507 81.5638 11.8226 97.1619 18.7794 110.816C25.7363 124.469 37.0873 135.383 51.0035 141.798C64.9197 148.214 80.5905 149.757 95.4909 146.18C110.391 142.603 123.653 134.113 133.14 122.079C141.526 111.442 146.53 98.5831 147.579 85.1582C147.808 82.2292 150.168 79.8438 153.106 79.8438Z" fill="#43BE99"/>
<defs>
<filter id="filter0_b_372_510" x="29.4731" y="29.752" width="100.184" height="100.184" filterUnits="userSpaceOnUse" color-interpolation-filters="sRGB">
<feFlood flood-opacity="0" result="BackgroundImageFix"/>
<feGaussianBlur in="BackgroundImageFix" stdDeviation="5"/>
<feComposite in2="SourceAlpha" operator="in" result="effect1_backgroundBlur_372_510"/>
<feBlend mode="normal" in="SourceGraphic" in2="effect1_backgroundBlur_372_510" result="shape"/>
</filter>
<radialGradient id="paint0_radial_372_510" cx="0" cy="0" r="1" gradientUnits="userSpaceOnUse" gradientTransform="translate(79.5649 79.8437) rotate(90) scale(78.8604)">
<stop stop-color="white" stop-opacity="0.23"/>
<stop offset="1" stop-color="#43BE99" stop-opacity="0"/>
</radialGradient>
<linearGradient id="paint1_linear_372_510" x1="79.5649" y1="40.752" x2="79.5649" y2="118.936" gradientUnits="userSpaceOnUse">
<stop stop-opacity="0.08"/>
<stop offset="1" stop-color="#08282D" stop-opacity="0.21"/>
</linearGradient>
<linearGradient id="paint2_linear_372_510" x1="79.5649" y1="40.752" x2="79.5649" y2="118.936" gradientUnits="userSpaceOnUse">
<stop stop-color="white"/>
<stop offset="1" stop-color="white" stop-opacity="0"/>
</linearGradient>
</defs>
</svg>
