<svg width="158" height="159" viewBox="0 0 158 159" fill="none" xmlns="http://www.w3.org/2000/svg">
<circle cx="78.9087" cy="79.8438" r="73.3604" fill="url(#paint0_radial_372_349)" stroke="#263C47" stroke-width="11"/>
<g filter="url(#filter0_b_372_349)">
<circle cx="78.9087" cy="79.8438" r="39.0918" fill="url(#paint1_linear_372_349)"/>
<circle cx="78.9087" cy="79.8438" r="39.5918" stroke="url(#paint2_linear_372_349)"/>
</g>
<path d="M61.2034 70.4134C62.0143 70.4193 62.8133 70.5672 63.6005 70.8572C64.3876 71.1473 65.0978 71.6207 65.7311 72.2777C66.3703 72.9347 66.8793 73.8224 67.2581 74.9411C67.6428 76.0537 67.8381 77.4387 67.8441 79.0959C67.8441 80.688 67.6843 82.1055 67.3647 83.3484C67.0451 84.5853 66.5864 85.63 65.9886 86.4822C65.3967 87.3345 64.6776 87.9826 63.8313 88.4265C62.9849 88.8704 62.032 89.0923 60.9726 89.0923C59.8895 89.0923 58.9277 88.8793 58.0873 88.4531C57.2469 88.027 56.5633 87.4381 56.0365 86.6864C55.5098 85.9289 55.1813 85.0588 55.0511 84.0763H57.7588C57.9364 84.8576 58.2974 85.4909 58.8419 85.9762C59.3924 86.4556 60.1026 86.6953 60.9726 86.6953C62.3043 86.6953 63.343 86.1153 64.0887 84.9553C64.8345 83.7893 65.2103 82.1617 65.2162 80.0724H65.0742C64.7664 80.5814 64.3817 81.0194 63.9201 81.3864C63.4643 81.7533 62.9524 82.0374 62.3842 82.2386C61.816 82.4399 61.2094 82.5405 60.5642 82.5405C59.5166 82.5405 58.5638 82.283 57.7056 81.7681C56.8474 81.2532 56.1638 80.5459 55.6548 79.6463C55.1458 78.7467 54.8913 77.7198 54.8913 76.5657C54.8913 75.4175 55.1517 74.3758 55.6725 73.4407C56.1993 72.5056 56.9332 71.7657 57.8742 71.2212C58.8212 70.6708 59.9309 70.4015 61.2034 70.4134ZM61.2123 72.7216C60.5198 72.7216 59.8954 72.8932 59.3391 73.2365C58.7887 73.5739 58.3536 74.0326 58.034 74.6126C57.7144 75.1867 57.5546 75.8259 57.5546 76.5302C57.5546 77.2345 57.7085 77.8737 58.0163 78.4478C58.33 79.016 58.7561 79.4688 59.2947 79.8061C59.8392 80.1375 60.4607 80.3033 61.159 80.3033C61.6799 80.3033 62.1652 80.2027 62.615 80.0014C63.0648 79.8002 63.4584 79.522 63.7958 79.1669C64.1331 78.8059 64.3965 78.3975 64.5859 77.9418C64.7753 77.486 64.87 77.0066 64.87 76.5036C64.87 75.8348 64.7102 75.2133 64.3906 74.6392C64.0769 74.0651 63.6448 73.6035 63.0944 73.2543C62.544 72.8991 61.9166 72.7216 61.2123 72.7216ZM77.6311 89.1456C76.2284 89.1397 75.0299 88.7698 74.0356 88.0359C73.0412 87.302 72.2807 86.2337 71.754 84.831C71.2272 83.4283 70.9638 81.7385 70.9638 79.7617C70.9638 77.7908 71.2272 76.107 71.754 74.7102C72.2866 73.3134 73.0501 72.2481 74.0444 71.5142C75.0447 70.7803 76.2402 70.4134 77.6311 70.4134C79.0219 70.4134 80.2145 70.7833 81.2089 71.5231C82.2032 72.257 82.9637 73.3223 83.4905 74.7191C84.0231 76.11 84.2895 77.7908 84.2895 79.7617C84.2895 81.7444 84.0261 83.4371 83.4993 84.8398C82.9726 86.2366 82.212 87.3049 81.2177 88.0447C80.2234 88.7786 79.0279 89.1456 77.6311 89.1456ZM77.6311 86.7752C78.8621 86.7752 79.8239 86.1745 80.5164 84.973C81.2148 83.7715 81.564 82.0344 81.564 79.7617C81.564 78.2525 81.4042 76.977 81.0846 75.9354C80.7709 74.8878 80.3181 74.0947 79.7263 73.5561C79.1403 73.0116 78.4419 72.7393 77.6311 72.7393C76.4059 72.7393 75.4442 73.343 74.7458 74.5504C74.0474 75.7578 73.6952 77.4949 73.6893 79.7617C73.6893 81.2769 73.8462 82.5582 74.1598 83.6058C74.4794 84.6475 74.9322 85.4376 75.5182 85.9762C76.1041 86.5089 76.8084 86.7752 77.6311 86.7752ZM97.1793 85.4347V84.4759C97.1793 83.7893 97.3213 83.1619 97.6054 82.5938C97.8954 82.0196 98.3157 81.561 98.8661 81.2177C99.4224 80.8685 100.094 80.6939 100.881 80.6939C101.686 80.6939 102.361 80.8655 102.905 81.2088C103.45 81.5521 103.861 82.0108 104.14 82.5849C104.424 83.159 104.566 83.7893 104.566 84.4759V85.4347C104.566 86.1212 104.424 86.7515 104.14 87.3256C103.855 87.8938 103.438 88.3525 102.888 88.7017C102.343 89.045 101.674 89.2166 100.881 89.2166C100.082 89.2166 99.4076 89.045 98.8572 88.7017C98.3068 88.3525 97.8895 87.8938 97.6054 87.3256C97.3213 86.7515 97.1793 86.1212 97.1793 85.4347ZM99.2478 84.4759V85.4347C99.2478 85.9437 99.3692 86.4053 99.6118 86.8196C99.8545 87.2339 100.278 87.4411 100.881 87.4411C101.479 87.4411 101.896 87.2339 102.133 86.8196C102.37 86.4053 102.488 85.9437 102.488 85.4347V84.4759C102.488 83.9669 102.373 83.5052 102.142 83.0909C101.917 82.6766 101.497 82.4695 100.881 82.4695C100.289 82.4695 99.8693 82.6766 99.6207 83.0909C99.3721 83.5052 99.2478 83.9669 99.2478 84.4759ZM88.0351 75.0298V74.071C88.0351 73.3845 88.1772 72.7541 88.4612 72.18C88.7513 71.6059 89.1715 71.1473 89.7219 70.804C90.2782 70.4607 90.95 70.2891 91.7372 70.2891C92.5421 70.2891 93.2168 70.4607 93.7613 70.804C94.3058 71.1473 94.7172 71.6059 94.9953 72.18C95.2735 72.7541 95.4126 73.3845 95.4126 74.071V75.0298C95.4126 75.7164 95.2706 76.3467 94.9865 76.9208C94.7083 77.489 94.294 77.9477 93.7436 78.2969C93.1991 78.6402 92.5303 78.8118 91.7372 78.8118C90.9322 78.8118 90.2546 78.6402 89.7041 78.2969C89.1596 77.9477 88.7453 77.489 88.4612 76.9208C88.1772 76.3467 88.0351 75.7164 88.0351 75.0298ZM90.1125 74.071V75.0298C90.1125 75.5388 90.2309 76.0005 90.4676 76.4148C90.7103 76.8291 91.1335 77.0362 91.7372 77.0362C92.329 77.0362 92.7433 76.8291 92.9801 76.4148C93.2227 76.0005 93.3441 75.5388 93.3441 75.0298V74.071C93.3441 73.562 93.2286 73.1004 92.9978 72.6861C92.767 72.2718 92.3468 72.0646 91.7372 72.0646C91.1453 72.0646 90.7251 72.2718 90.4765 72.6861C90.2339 73.1004 90.1125 73.562 90.1125 74.071ZM88.8785 88.8438L101.379 70.6619H103.5L91.0003 88.8438H88.8785Z" fill="white"/>
<path d="M152.449 79.8438C155.387 79.8438 157.788 82.2282 157.59 85.1594C156.451 102.026 149.914 118.134 138.875 131.059C126.68 145.338 109.791 154.796 91.2452 157.733C72.6994 160.671 53.7142 156.894 37.7043 147.083C21.6943 137.272 9.71042 122.071 3.90804 104.213C-1.89434 86.3551 -1.13438 67.0128 6.05123 49.6652C13.2368 32.3176 26.3765 18.1032 43.1068 9.57866C59.8372 1.05413 79.0602 -1.22106 97.3183 3.16231C113.847 7.13055 128.603 16.32 139.439 29.2957C141.322 31.5507 140.781 34.8907 138.404 36.6176C136.028 38.3444 132.716 37.8017 130.809 35.5665C121.48 24.631 108.899 16.8842 94.8346 13.5075C79.0397 9.7155 62.4101 11.6837 47.9369 19.0582C33.4637 26.4327 22.0967 38.7294 15.8805 53.7366C9.66433 68.7438 9.0069 85.4766 14.0265 100.925C19.0461 116.374 29.4132 129.525 43.2632 138.012C57.1132 146.499 73.5371 149.766 89.5808 147.225C105.625 144.684 120.235 136.502 130.785 124.15C140.178 113.151 145.803 99.4887 146.923 85.1583C147.151 82.2294 149.512 79.8438 152.449 79.8438Z" fill="#AE5EEC"/>
<defs>
<filter id="filter0_b_372_349" x="28.8169" y="29.752" width="100.184" height="100.184" filterUnits="userSpaceOnUse" color-interpolation-filters="sRGB">
<feFlood flood-opacity="0" result="BackgroundImageFix"/>
<feGaussianBlur in="BackgroundImageFix" stdDeviation="5"/>
<feComposite in2="SourceAlpha" operator="in" result="effect1_backgroundBlur_372_349"/>
<feBlend mode="normal" in="SourceGraphic" in2="effect1_backgroundBlur_372_349" result="shape"/>
</filter>
<radialGradient id="paint0_radial_372_349" cx="0" cy="0" r="1" gradientUnits="userSpaceOnUse" gradientTransform="translate(78.9087 79.8437) rotate(90) scale(78.8604)">
<stop stop-color="white" stop-opacity="0.23"/>
<stop offset="1" stop-color="#AE5EEC" stop-opacity="0"/>
</radialGradient>
<linearGradient id="paint1_linear_372_349" x1="78.9087" y1="40.752" x2="78.9087" y2="118.936" gradientUnits="userSpaceOnUse">
<stop stop-opacity="0.08"/>
<stop offset="1" stop-color="#08282D" stop-opacity="0.21"/>
</linearGradient>
<linearGradient id="paint2_linear_372_349" x1="78.9087" y1="40.752" x2="78.9087" y2="118.936" gradientUnits="userSpaceOnUse">
<stop stop-color="white"/>
<stop offset="1" stop-color="white" stop-opacity="0"/>
</linearGradient>
</defs>
</svg>
