<svg width="494" height="346" viewBox="0 0 494 346" fill="none" xmlns="http://www.w3.org/2000/svg">
<g clip-path="url(#clip0_60_405)">
<path d="M417.625 139.107C410.197 137.127 402.671 135.999 395.171 135.682C395.171 135.748 395.171 135.82 395.171 135.886C395.171 136.441 395.151 136.989 395.131 137.536C400.484 137.767 405.851 138.421 411.191 139.509C407.382 141.601 403.029 145.845 398.45 151.877C396.562 151.289 394.7 150.689 392.852 150.082C392.653 150.669 392.448 151.256 392.222 151.837C393.892 152.385 395.568 152.926 397.271 153.46C394.449 157.328 391.56 161.855 388.665 166.95C381.615 179.363 375.076 194.277 369.61 210.235C367.582 209.535 365.588 208.816 363.627 208.096V210.07C365.396 210.716 367.198 211.356 369.013 211.99C367.065 217.797 365.257 223.73 363.627 229.729V237.028C364.13 235.074 364.64 233.114 365.177 231.121C366.86 224.852 368.742 218.655 370.776 212.597C378.753 215.316 387.147 217.877 395.813 220.186C396.317 220.318 396.807 220.444 397.311 220.576C398.112 220.094 398.947 219.672 399.815 219.302C398.643 218.998 397.476 218.708 396.297 218.391C387.664 216.088 379.309 213.547 371.372 210.842C376.798 194.997 383.291 180.181 390.288 167.867C393.263 162.627 396.257 157.981 399.166 154.048C403.552 155.394 408.031 156.674 412.576 157.889C417.121 159.103 421.646 160.218 426.119 161.241C426.662 166.092 426.92 171.609 426.867 177.627C426.748 191.374 425.025 206.922 421.945 222.859C422.501 223.347 423.044 223.862 423.548 224.41C426.801 207.945 428.61 191.849 428.736 177.647C428.789 171.793 428.55 166.435 428.053 161.677C435.096 163.241 441.993 164.561 448.632 165.597C458.206 182.207 464.374 204.869 463.228 229.439C451.62 229.003 438.157 227.386 423.767 224.661C424.383 225.36 424.966 226.093 425.489 226.871C439.164 229.373 451.978 230.864 463.129 231.28C462.632 239.43 461.327 247.778 459.067 256.179C456.861 264.375 454.277 272.077 451.362 279.237C438.919 279.165 424.74 277.759 409.74 275.073C411.556 269.701 413.338 264.026 415.087 258.086H413.133C411.41 263.894 409.648 269.45 407.859 274.73C399.643 273.205 391.209 271.311 382.675 269.035C376.149 267.292 369.782 265.385 363.627 263.346V265.306C369.636 267.286 375.844 269.14 382.191 270.836C390.672 273.1 399.067 274.987 407.249 276.512C402.008 291.71 396.529 304.532 391.05 314.484C384.656 313.303 378.15 311.838 371.624 310.096C365.098 308.353 358.73 306.38 352.602 304.222C352.628 302.962 352.681 301.668 352.741 300.348H350.813C350.76 301.431 350.72 302.5 350.694 303.542C347.851 302.513 345.062 301.45 342.339 300.348H338.642V300.824C342.518 302.454 346.533 304.018 350.661 305.496C350.521 317.098 351.939 326.066 354.947 331.926C349.203 329.742 343.757 327.069 338.642 323.974V326.145C346.513 330.791 355.139 334.46 364.402 336.929C373.28 339.298 382.205 340.426 390.983 340.426C407.812 340.426 424.131 336.269 438.621 328.712L438.25 326.805C427.311 332.586 415.312 336.387 402.817 337.866C412.006 334.216 420.573 328.178 428.312 320.028H428.378C431.306 320.028 434.142 319.935 436.878 319.77L436.521 317.942C434.414 318.068 432.247 318.14 430.021 318.167C431.836 316.147 433.599 314.009 435.315 311.759L434.838 309.317C432.492 312.491 430.054 315.454 427.523 318.173C416.949 318.114 405.222 316.992 393.037 314.834C398.497 304.823 403.923 292.04 409.131 276.842C424.025 279.514 438.131 280.94 450.587 281.065C448.003 287.196 445.167 292.911 442.113 298.19L443.736 299.108C446.949 293.564 449.917 287.546 452.607 281.085C465.236 281.072 476.055 279.673 484.125 276.861C478.884 289.341 471.285 300.329 462.009 309.442L463.705 310.399C476.088 298.105 485.483 282.517 490.32 264.521C504.989 209.984 472.378 153.718 417.625 139.107ZM364.892 335.133C362.447 334.48 360.042 333.741 357.69 332.923C354.165 327.65 352.483 318.47 352.582 306.176C358.578 308.268 364.793 310.188 371.153 311.884C377.507 313.58 383.854 315.019 390.102 316.187C384.013 326.884 377.951 333.992 372.246 336.803C369.795 336.341 367.344 335.787 364.899 335.133H364.892ZM425.767 320.001C416.962 328.924 407.103 335.081 396.516 338.05L396.615 338.4C389.532 338.796 382.331 338.453 375.115 337.298C380.667 333.721 386.399 326.66 392.097 316.537C403.93 318.662 415.365 319.823 425.767 319.995V320.001ZM413.053 156.094C408.753 154.945 404.506 153.731 400.352 152.464C405.566 145.706 410.429 141.357 414.279 140.183C415.233 140.407 416.187 140.645 417.134 140.895C418.088 141.153 419.029 141.423 419.97 141.7C422.72 144.631 424.747 150.821 425.867 159.274C421.633 158.304 417.353 157.242 413.046 156.094H413.053ZM427.821 159.717C426.881 152.213 425.244 146.366 422.998 142.657C426.735 143.898 430.352 145.337 433.851 146.96L433.784 147.033C438.687 151.27 443.312 156.859 447.386 163.505C441.066 162.482 434.506 161.208 427.821 159.71V159.717ZM439.257 149.699C447.181 153.995 454.383 159.281 460.744 165.352C457.212 164.963 453.561 164.475 449.831 163.901C446.664 158.542 443.106 153.751 439.257 149.699ZM461.148 191.466C458.729 182.247 455.258 173.588 451.004 165.966C455.072 166.567 459.034 167.068 462.864 167.451C478.692 183.494 488.869 204.559 491.36 227.162C484.774 229.029 475.77 229.795 465.096 229.511C465.706 216.708 464.401 203.873 461.148 191.473V191.466ZM488.511 264.045C487.544 267.642 486.384 271.14 485.059 274.532C477.188 277.62 466.263 279.171 453.349 279.244C456.185 272.209 458.696 264.672 460.856 256.667C463.096 248.352 464.467 239.866 464.99 231.352C466.481 231.392 467.945 231.412 469.37 231.412C478.208 231.412 485.761 230.64 491.546 229.049C492.586 240.499 491.658 252.312 488.504 264.052L488.511 264.045Z" fill="#FBFBF5"/>
<path d="M366.403 172.876C366.184 172.876 365.959 172.849 365.74 172.79C365.084 172.618 364.541 172.202 364.21 171.622L361.725 167.339C359.996 167.966 358.174 168.461 356.299 168.804C356.034 168.857 355.762 168.784 355.55 168.612C355.345 168.441 355.226 168.183 355.226 167.919V156.225C355.226 155.823 355.491 155.467 355.882 155.354C364.495 152.84 370.504 144.835 370.504 135.893C370.504 124.707 361.367 115.613 350.144 115.613C341.617 115.613 333.931 120.972 331.009 128.95C330.877 129.307 330.539 129.544 330.155 129.544H318.255C317.977 129.544 317.719 129.419 317.546 129.201C317.374 128.983 317.308 128.706 317.374 128.436C317.699 127.023 318.103 125.651 318.573 124.357L314.273 121.883C313.067 121.19 312.65 119.652 313.352 118.451L316.586 112.874C317.281 111.673 318.825 111.264 320.037 111.951L324.344 114.425C325.636 112.888 327.061 111.462 328.604 110.182L326.12 105.892C325.782 105.312 325.696 104.632 325.868 103.985C326.04 103.338 326.458 102.791 327.041 102.461L332.639 99.2402C333.222 98.9036 333.905 98.8178 334.554 98.9894C335.21 99.161 335.753 99.5768 336.085 100.158L338.569 104.44C340.457 103.754 342.412 103.233 344.4 102.89V97.9401C344.4 96.5543 345.532 95.4258 346.924 95.4258H353.384C354.775 95.4258 355.908 96.5543 355.908 97.9401V102.89C357.896 103.233 359.85 103.754 361.738 104.44L364.223 100.158C364.919 98.9564 366.463 98.5473 367.675 99.2402L373.274 102.461C373.857 102.797 374.274 103.338 374.446 103.985C374.619 104.632 374.532 105.312 374.194 105.892L371.71 110.182C373.254 111.469 374.685 112.888 375.97 114.425L380.277 111.951C381.483 111.258 383.033 111.673 383.729 112.868L386.962 118.444C387.3 119.025 387.386 119.705 387.214 120.351C387.041 121.005 386.624 121.546 386.041 121.876L381.741 124.351C382.43 126.231 382.953 128.178 383.298 130.158H388.267C389.658 130.158 390.791 131.287 390.791 132.672V139.107C390.791 140.493 389.658 141.621 388.267 141.621H383.298C382.953 143.601 382.437 145.548 381.741 147.429L386.041 149.903C387.247 150.596 387.658 152.14 386.962 153.335L383.729 158.911C383.391 159.492 382.847 159.908 382.192 160.079C381.542 160.251 380.86 160.165 380.277 159.829L375.97 157.354C374.678 158.892 373.254 160.317 371.71 161.604L374.194 165.893C374.89 167.095 374.473 168.632 373.274 169.325L367.675 172.546C367.284 172.77 366.86 172.882 366.423 172.882L366.403 172.876ZM362.129 165.313C362.447 165.313 362.752 165.478 362.918 165.768L365.787 170.718C365.879 170.876 366.032 170.995 366.217 171.041C366.396 171.087 366.588 171.067 366.754 170.975L372.353 167.754C372.69 167.563 372.803 167.128 372.611 166.791L369.736 161.835C369.51 161.446 369.603 160.951 369.954 160.673C371.829 159.182 373.539 157.486 375.029 155.618C375.308 155.269 375.804 155.176 376.195 155.401L381.171 158.265C381.33 158.357 381.522 158.383 381.708 158.331C381.893 158.284 382.046 158.166 382.138 158.007L385.372 152.431C385.564 152.094 385.451 151.665 385.113 151.467L380.144 148.61C379.753 148.385 379.588 147.91 379.753 147.495C380.628 145.277 381.257 142.948 381.608 140.585C381.675 140.143 382.059 139.813 382.51 139.813H388.254C388.645 139.813 388.963 139.496 388.963 139.107V132.672C388.963 132.283 388.645 131.966 388.254 131.966H382.51C382.059 131.966 381.675 131.636 381.608 131.194C381.257 128.825 380.634 126.502 379.753 124.285C379.588 123.869 379.753 123.394 380.144 123.169L385.113 120.312C385.272 120.219 385.392 120.068 385.438 119.883C385.484 119.698 385.465 119.513 385.372 119.348L382.138 113.772C381.946 113.435 381.509 113.323 381.171 113.515L376.195 116.379C375.804 116.603 375.314 116.511 375.029 116.161C373.532 114.293 371.823 112.591 369.954 111.106C369.603 110.829 369.51 110.334 369.736 109.944L372.611 104.988C372.704 104.83 372.73 104.638 372.677 104.454C372.631 104.269 372.512 104.117 372.353 104.025L366.754 100.804C366.416 100.613 365.985 100.725 365.787 101.062L362.918 106.011C362.693 106.4 362.216 106.565 361.798 106.4C359.572 105.529 357.24 104.909 354.861 104.553C354.417 104.487 354.086 104.104 354.086 103.655V97.9335C354.086 97.5442 353.768 97.2274 353.377 97.2274H346.917C346.526 97.2274 346.208 97.5442 346.208 97.9335V103.655C346.208 104.104 345.877 104.487 345.433 104.553C343.055 104.902 340.722 105.523 338.496 106.4C338.079 106.565 337.602 106.4 337.376 106.011L334.508 101.062C334.315 100.725 333.878 100.606 333.54 100.804L327.942 104.025C327.776 104.117 327.663 104.269 327.617 104.454C327.564 104.638 327.591 104.823 327.683 104.988L330.559 109.944C330.784 110.334 330.691 110.822 330.34 111.106C328.465 112.597 326.756 114.3 325.265 116.161C324.987 116.511 324.49 116.603 324.099 116.379L319.123 113.515C318.785 113.323 318.355 113.435 318.156 113.772L314.923 119.348C314.73 119.685 314.843 120.114 315.181 120.312L320.15 123.169C320.541 123.394 320.707 123.869 320.541 124.285C320.11 125.374 319.733 126.528 319.415 127.73H329.525C332.864 119.375 341.067 113.798 350.144 113.798C362.375 113.798 372.326 123.711 372.326 135.893C372.326 145.409 366.078 153.942 357.048 156.885V166.811C358.697 166.448 360.288 165.973 361.798 165.379C361.904 165.333 362.023 165.313 362.129 165.313Z" fill="#66FF88"/>
<path d="M401.333 114.128H394.985C393.607 114.128 392.488 113.013 392.488 111.64V106.909C391.229 106.533 390.01 106.031 388.844 105.404L385.484 108.75C385.014 109.219 384.391 109.476 383.722 109.476C383.053 109.476 382.43 109.219 381.96 108.75L377.468 104.276C376.494 103.306 376.494 101.728 377.468 100.758L380.827 97.4123C380.204 96.2575 379.694 95.0432 379.316 93.7827H374.572C373.194 93.7827 372.074 92.6674 372.074 91.2948V84.9726C372.074 83.5999 373.194 82.4846 374.572 82.4846H379.316C379.694 81.2308 380.204 80.0165 380.827 78.855L377.468 75.5092C376.494 74.5391 376.494 72.9618 377.468 71.9917L381.96 67.5174C382.934 66.5473 384.517 66.5473 385.491 67.5174L388.85 70.8632C390.01 70.2429 391.229 69.7347 392.494 69.3586V64.6335C392.494 63.2608 393.614 62.1455 394.992 62.1455H401.339C402.717 62.1455 403.837 63.2608 403.837 64.6335V69.3586C405.096 69.7347 406.315 70.2429 407.481 70.8632L410.84 67.5174C411.311 67.0488 411.94 66.7914 412.603 66.7914C413.265 66.7914 413.901 67.0488 414.365 67.5174L418.857 71.9917C419.831 72.9618 419.831 74.5391 418.857 75.5092L415.498 78.855C416.127 80.0099 416.631 81.2242 417.009 82.4846H421.759C423.137 82.4846 424.257 83.5999 424.257 84.9726V91.2948C424.257 92.6674 423.137 93.7827 421.759 93.7827H417.009C416.631 95.0366 416.127 96.2509 415.498 97.4123L418.857 100.758C419.831 101.728 419.831 103.306 418.857 104.276L414.365 108.75C413.895 109.219 413.265 109.476 412.603 109.476C411.933 109.476 411.311 109.219 410.84 108.75L407.481 105.404C406.322 106.024 405.103 106.533 403.837 106.909V111.64C403.837 113.013 402.717 114.128 401.339 114.128H401.333ZM388.691 103.378C388.85 103.378 389.009 103.418 389.148 103.504C390.553 104.322 392.057 104.942 393.627 105.351C394.025 105.457 394.303 105.813 394.303 106.229V111.64C394.303 112.01 394.608 112.314 394.979 112.314H401.326C401.697 112.314 402.002 112.01 402.002 111.64V106.229C402.002 105.82 402.28 105.457 402.678 105.351C404.248 104.942 405.752 104.322 407.156 103.504C407.514 103.292 407.965 103.352 408.256 103.642L412.099 107.47C412.225 107.595 412.397 107.668 412.576 107.668C412.762 107.668 412.927 107.602 413.053 107.47L417.545 103.002C417.81 102.738 417.81 102.309 417.545 102.045L413.702 98.2175C413.411 97.9271 413.351 97.4783 413.563 97.122C414.385 95.7229 415.008 94.2249 415.418 92.6608C415.524 92.2649 415.882 91.9877 416.3 91.9877H421.733C422.11 91.9877 422.415 91.6841 422.415 91.3146V84.9924C422.415 84.6228 422.11 84.3193 421.733 84.3193H416.3C415.889 84.3193 415.524 84.0421 415.418 83.6461C415.008 82.0821 414.385 80.584 413.563 79.185C413.358 78.8286 413.411 78.3799 413.702 78.0895L417.545 74.2619C417.81 73.9979 417.81 73.569 417.545 73.305L413.053 68.8306C412.801 68.5799 412.344 68.5799 412.092 68.8306L408.25 72.6582C407.958 72.9486 407.508 73.008 407.15 72.7968C405.745 71.9785 404.241 71.3582 402.671 70.949C402.273 70.8434 401.995 70.4871 401.995 70.0713V64.6599C401.995 64.2837 401.69 63.9867 401.319 63.9867H394.972C394.601 63.9867 394.296 64.2903 394.296 64.6599V70.0713C394.296 70.4805 394.018 70.8434 393.621 70.949C392.05 71.3582 390.546 71.9785 389.142 72.7968C388.784 73.008 388.333 72.9486 388.042 72.6582L384.199 68.8306C383.934 68.5667 383.503 68.5667 383.238 68.8306L378.746 73.305C378.481 73.569 378.481 73.9979 378.746 74.2619L382.589 78.0895C382.881 78.3799 382.94 78.8286 382.728 79.185C381.907 80.584 381.284 82.0821 380.873 83.6461C380.767 84.0421 380.409 84.3193 379.992 84.3193H374.559C374.188 84.3193 373.883 84.6228 373.883 84.9924V91.3146C373.883 91.6907 374.188 91.9877 374.559 91.9877H379.992C380.403 91.9877 380.767 92.2649 380.873 92.6608C381.284 94.2249 381.907 95.7229 382.728 97.122C382.94 97.4783 382.881 97.9271 382.589 98.2175L378.746 102.045C378.481 102.309 378.481 102.738 378.746 103.002L383.238 107.476C383.49 107.727 383.941 107.727 384.199 107.476L388.042 103.649C388.214 103.477 388.453 103.385 388.685 103.385L388.691 103.378ZM398.159 98.0327C392.686 98.0327 388.227 93.5979 388.227 88.1403C388.227 82.6826 392.68 78.2479 398.159 78.2479C403.638 78.2479 408.091 82.6826 408.091 88.1403C408.091 93.5979 403.638 98.0327 398.159 98.0327ZM398.159 80.0627C393.687 80.0627 390.049 83.6857 390.049 88.1403C390.049 92.5948 393.687 96.2179 398.159 96.2179C402.631 96.2179 406.269 92.5948 406.269 88.1403C406.269 83.6857 402.631 80.0627 398.159 80.0627Z" fill="#66FF88"/>
<path d="M356.266 92.5354C355.948 92.5354 355.63 92.4562 355.338 92.2912C354.894 92.0471 354.576 91.6445 354.437 91.1561L353.702 88.5692C353.033 88.5428 352.37 88.4636 351.707 88.3316L350.389 90.6744C350.144 91.1166 349.74 91.4333 349.249 91.5653C348.766 91.7039 348.249 91.6445 347.812 91.4003L344.366 89.4799C343.452 88.9718 343.127 87.8169 343.638 86.9128L344.956 84.57C344.499 84.0817 344.082 83.5537 343.71 82.9994L341.113 83.7319C340.63 83.8705 340.113 83.8111 339.676 83.5603C339.232 83.3161 338.914 82.9136 338.774 82.4252L337.701 78.6438C337.562 78.1621 337.622 77.6539 337.873 77.2118C338.119 76.7696 338.529 76.4528 339.013 76.3142L341.604 75.5883C341.63 74.9218 341.71 74.2553 341.842 73.6019L339.49 72.2887C339.046 72.0445 338.728 71.6419 338.596 71.1536C338.456 70.6652 338.516 70.1571 338.761 69.7215L340.689 66.2899C341.199 65.3792 342.359 65.0558 343.267 65.5639L345.619 66.8772C346.109 66.4219 346.639 66.0061 347.196 65.6365L346.46 63.0496C346.321 62.5678 346.381 62.0597 346.632 61.6175C346.877 61.1754 347.282 60.8586 347.772 60.72L351.568 59.6509C352.575 59.3672 353.622 59.9545 353.907 60.951L354.643 63.5379C355.312 63.5643 355.981 63.6435 356.637 63.7755L357.955 61.4328C358.466 60.5221 359.625 60.1987 360.533 60.7068L363.978 62.6272C364.415 62.8714 364.74 63.274 364.872 63.7623C365.012 64.2507 364.952 64.7588 364.7 65.1944L363.382 67.5371C363.839 68.0255 364.256 68.5534 364.627 69.1078L367.224 68.3753C368.232 68.0915 369.278 68.6788 369.563 69.6753L370.637 73.4567C370.921 74.4598 370.332 75.5025 369.325 75.7863L366.728 76.5188C366.701 77.1854 366.622 77.8519 366.489 78.5052L368.841 79.8185C369.755 80.3266 370.08 81.4815 369.57 82.3856L367.642 85.8173C367.132 86.728 365.972 87.0514 365.065 86.5432L362.712 85.2299C362.222 85.6853 361.699 86.1011 361.136 86.4706L361.871 89.0576C362.156 90.0607 361.566 91.1034 360.566 91.3871L356.769 92.4562C356.597 92.5024 356.425 92.5288 356.253 92.5288L356.266 92.5354ZM354.397 86.7742C354.802 86.7742 355.159 87.0448 355.272 87.4341L356.186 90.6744C356.2 90.7074 356.239 90.7338 356.286 90.7272L360.082 89.6581C360.122 89.6449 360.148 89.5987 360.135 89.5591L359.221 86.3254C359.108 85.9295 359.28 85.5071 359.632 85.2959C360.473 84.801 361.242 84.2005 361.917 83.4943C362.202 83.1974 362.659 83.1314 363.017 83.3293L365.966 84.9726C365.999 84.9924 366.052 84.9726 366.072 84.9396L368 81.5079C368.019 81.4749 368 81.4221 367.966 81.4023L365.018 79.7591C364.66 79.5545 364.481 79.1388 364.581 78.7428C364.826 77.7991 364.945 76.829 364.925 75.8589C364.919 75.4497 365.19 75.0802 365.588 74.968L368.841 74.0507C368.881 74.0375 368.907 73.9913 368.894 73.9583L367.821 70.1769C367.808 70.1373 367.768 70.1175 367.728 70.1241L364.475 71.0348C364.084 71.147 363.653 70.9754 363.448 70.6256C362.951 69.7875 362.341 69.022 361.639 68.3423C361.341 68.0585 361.275 67.6097 361.473 67.2468L363.123 64.3101C363.123 64.3101 363.123 64.2243 363.097 64.2045L359.651 62.2841C359.618 62.2643 359.565 62.2841 359.545 62.3171L357.896 65.2538C357.69 65.6101 357.273 65.7949 356.875 65.6893C355.928 65.4452 354.947 65.333 353.98 65.3462C353.583 65.3594 353.198 65.0822 353.086 64.6862L352.171 61.446C352.158 61.4064 352.112 61.38 352.072 61.3932L348.275 62.4623C348.242 62.4755 348.216 62.5216 348.222 62.5546L349.143 65.7949C349.256 66.1909 349.084 66.6132 348.733 66.8244C347.891 67.3128 347.123 67.9199 346.44 68.626C346.155 68.923 345.705 68.989 345.34 68.791L342.392 67.1478C342.359 67.128 342.306 67.1478 342.286 67.1808L340.358 70.6124C340.358 70.6124 340.358 70.6982 340.384 70.718L343.333 72.3612C343.691 72.5658 343.869 72.9816 343.77 73.3775C343.525 74.3213 343.412 75.2914 343.426 76.2615C343.432 76.6706 343.161 77.0402 342.763 77.1524L339.51 78.0697L339.457 78.1621L340.53 81.9435C340.537 81.9765 340.583 82.0029 340.623 81.9963L343.869 81.079C344.267 80.9668 344.691 81.1384 344.903 81.4881C345.4 82.3262 346.003 83.0918 346.712 83.7715C347.01 84.0553 347.076 84.504 346.877 84.867L345.228 87.8037C345.208 87.8367 345.228 87.8895 345.261 87.9093L348.706 89.8297C348.706 89.8297 348.792 89.8297 348.812 89.8033L350.462 86.8666C350.661 86.5036 351.078 86.332 351.482 86.431C352.43 86.6752 353.404 86.794 354.378 86.7742H354.397ZM354.179 82.5572C351.336 82.5572 348.719 80.6896 347.904 77.8321C346.931 74.3872 348.945 70.7972 352.403 69.8271C354.079 69.3586 355.835 69.5631 357.352 70.4078C358.87 71.2526 359.97 72.6384 360.44 74.3081C361.414 77.7529 359.4 81.3429 355.941 82.313C355.351 82.478 354.755 82.5572 354.172 82.5572H354.179ZM354.179 71.3911C353.748 71.3911 353.317 71.4505 352.893 71.5693C350.402 72.2689 348.945 74.8624 349.654 77.3437C350.356 79.8251 352.953 81.2703 355.451 80.5708C356.657 80.2277 357.657 79.4423 358.273 78.3534C358.883 77.2646 359.035 75.9975 358.697 74.7964C358.36 73.5953 357.564 72.5988 356.471 71.9851C355.762 71.5891 354.974 71.3845 354.185 71.3845L354.179 71.3911Z" fill="#66FF88"/>
<path d="M280.967 27.4396C278.052 28.2711 275.123 29.195 272.261 30.1915L272.857 31.9007C275.693 30.9174 278.588 30.0001 281.464 29.1818L280.967 27.4396Z" fill="#FBFBF5"/>
<path d="M184.049 127.723C184.135 126.924 184.234 126.133 184.347 125.341L182.545 125.09C182.419 125.968 182.313 126.845 182.22 127.723H184.049Z" fill="#FBFBF5"/>
<path d="M211.24 69.0549L212.565 70.2956C214.599 68.1376 216.746 66.0061 218.959 63.9537L217.72 62.6272C215.48 64.706 213.294 66.8706 211.233 69.0549H211.24Z" fill="#FBFBF5"/>
<path d="M187.547 111.396L185.818 110.849C184.884 113.772 184.102 116.748 183.492 119.685L185.274 120.055C185.871 117.177 186.639 114.267 187.554 111.396H187.547Z" fill="#FBFBF5"/>
<path d="M221.814 58.9843L223 60.357C225.259 58.4168 227.618 56.5162 230.023 54.7013L228.923 53.2627C226.492 55.0973 224.1 57.0243 221.814 58.9909V58.9843Z" fill="#FBFBF5"/>
<path d="M258.705 35.6029L259.454 37.2527C262.177 36.0187 264.979 34.844 267.775 33.7617L267.12 32.0723C264.29 33.1612 261.461 34.349 258.698 35.6029H258.705Z" fill="#FBFBF5"/>
<path d="M233.356 50.029L234.403 51.5073C236.847 49.7981 239.385 48.1284 241.942 46.5512L240.988 45.0135C238.398 46.6106 235.827 48.2934 233.356 50.029Z" fill="#FBFBF5"/>
<path d="M245.699 42.2287L246.6 43.7993C249.198 42.321 251.881 40.8956 254.571 39.5625L253.762 37.9391C251.039 39.2854 248.323 40.7306 245.699 42.2221V42.2287Z" fill="#FBFBF5"/>
<path d="M205.906 82.7286C205.065 73.8657 197.691 67.174 188.753 67.174C183.704 67.174 178.927 69.365 175.654 73.1926L174.733 72.4073C178.245 68.3157 183.353 65.9663 188.759 65.9663C198.327 65.9663 206.224 73.12 207.119 82.6098L205.913 82.722L205.906 82.7286Z" fill="#FFD542"/>
<path d="M211.319 101.986L211.293 100.778C216.315 100.672 220.396 96.5147 220.396 91.5124C220.396 86.5102 216.222 82.247 211.094 82.247C209.617 82.247 208.139 82.6033 206.827 83.2765L206.271 82.2074C207.755 81.4419 209.424 81.0393 211.094 81.0393C216.891 81.0393 221.609 85.738 221.609 91.5124C221.609 97.2869 216.991 101.86 211.319 101.986Z" fill="#FFD542"/>
<path d="M124.101 82.3262C123.445 79.8844 123.114 77.3635 123.114 74.8293C123.114 58.8655 136.153 45.8715 152.187 45.8715C165.868 45.8715 177.529 55.1567 180.544 68.4544L179.364 68.7183C176.476 55.975 165.298 47.0791 152.187 47.0791C136.822 47.0791 124.326 59.5255 124.326 74.8293C124.326 77.2513 124.644 79.6666 125.274 82.0094L124.101 82.3196V82.3262Z" fill="#FFD542"/>
<path d="M211.306 100.778H141.533V101.986H211.306V100.778Z" fill="#FFD542"/>
<path d="M141.215 86.7478C138.14 83.6857 134.059 82.0028 129.719 82.0028C125.38 82.0028 121.292 83.6857 118.218 86.7478L117.363 85.8964C120.662 82.61 125.048 80.8018 129.719 80.8018C134.39 80.8018 138.777 82.61 142.076 85.8964L141.221 86.7478H141.215Z" fill="#FFD542"/>
<path d="M142.851 107.278C142.308 101.524 137.518 97.1813 131.714 97.1813C128.434 97.1813 125.333 98.6068 123.207 101.088L122.286 100.303C124.644 97.5509 128.083 95.9736 131.714 95.9736C138.147 95.9736 143.454 100.785 144.057 107.166L142.851 107.278Z" fill="#FFD542"/>
<path d="M146.634 120.2L146.608 118.992C149.815 118.926 152.425 116.267 152.425 113.073C152.425 109.879 149.762 107.153 146.482 107.153C145.534 107.153 144.594 107.384 143.752 107.813L143.196 106.744C144.203 106.222 145.342 105.952 146.482 105.952C150.431 105.952 153.637 109.153 153.637 113.079C153.637 117.006 150.497 120.127 146.634 120.206V120.2Z" fill="#FFD542"/>
<path d="M88.7605 107.047C88.3232 105.417 88.0979 103.728 88.0979 102.038C88.0979 91.3673 96.8105 82.6892 107.524 82.6892C116.667 82.6892 124.465 88.8926 126.473 97.7819L125.294 98.0458C123.405 89.7175 116.097 83.8969 107.524 83.8969C97.4796 83.8969 89.3037 92.0339 89.3037 102.038C89.3037 103.622 89.5158 105.206 89.9265 106.737L88.7538 107.047H88.7605Z" fill="#FFD542"/>
<path d="M80.7833 120.8C73.1242 120.8 66.8962 114.597 66.8962 106.968C66.8962 99.3394 73.1242 93.136 80.7833 93.136C84.0895 93.136 87.2962 94.3173 89.8139 96.4554L89.0255 97.3728C86.733 95.4194 83.8046 94.3437 80.7833 94.3437C73.7934 94.3437 68.1087 100.006 68.1087 106.975C68.1087 113.944 73.7934 119.606 80.7833 119.606C82.0819 119.606 83.3739 119.408 84.6129 119.019L84.9773 120.167C83.6191 120.596 82.2078 120.814 80.7833 120.814V120.8Z" fill="#FFD542"/>
<path d="M146.621 118.992H84.7255V120.2H146.621V118.992Z" fill="#FFD542"/>
<path d="M100.13 110.063C98.1356 108.077 95.492 106.988 92.6695 106.988C89.847 106.988 87.2035 108.083 85.2092 110.063L84.3545 109.212C86.574 107.001 89.529 105.78 92.6695 105.78C95.81 105.78 98.765 107.001 100.985 109.212L100.13 110.063Z" fill="#FFD542"/>
<path d="M288.136 122.945C286.764 122.945 285.446 122.51 284.101 121.619C283.749 121.388 283.657 120.919 283.889 120.569C284.12 120.22 284.591 120.127 284.935 120.358C286.035 121.091 287.049 121.434 288.129 121.434C290.183 121.434 291.919 120.187 292.19 118.53V117.652L282.212 119.032C282.179 119.032 282.146 119.038 282.106 119.038C280.271 119.038 278.939 117.963 278.939 116.484C278.939 114.894 279.827 113.726 281.318 113.356C281.344 113.35 281.378 113.343 281.404 113.343L292.846 111.845C292.879 111.845 292.913 111.838 292.946 111.838H294.072C295.059 111.621 295.503 111.112 295.503 110.195C295.503 109.588 294.516 109.166 293.602 109.152L281.616 110.941C281.576 110.941 281.543 110.947 281.503 110.947C279.529 110.947 278.131 110.063 277.76 108.578C277.747 108.519 277.734 108.46 277.734 108.394C277.734 107.093 278.953 105.582 280.536 105.543C284.949 104.856 290.236 104.045 290.534 104.045C295.477 103.734 296.523 103.081 296.709 101.979C297.464 98.6001 299.101 96.1518 300.837 93.5583C303.394 89.7438 306.031 85.7974 306.031 78.4128C306.031 67.5569 298.173 59.9743 286.916 59.9743C275.66 59.9743 268.107 67.7285 268.107 78.4128C268.107 85.8304 270.664 89.7834 273.135 93.611C274.805 96.1914 276.375 98.6265 277.117 101.939C277.21 102.349 276.952 102.751 276.541 102.837C276.13 102.929 275.726 102.672 275.633 102.263C274.951 99.2073 273.447 96.8843 271.857 94.4228C269.385 90.6017 266.583 86.2726 266.583 78.4128C266.583 66.8574 275.13 58.463 286.91 58.463C298.69 58.463 307.535 66.8508 307.535 78.4128C307.535 86.2528 304.64 90.582 302.089 94.3964C300.433 96.8645 298.869 99.2007 298.186 102.269C297.789 104.665 295.304 105.265 290.567 105.556C290.143 105.589 284.439 106.467 280.702 107.047C280.662 107.047 280.622 107.054 280.582 107.054C279.874 107.054 279.297 107.786 279.238 108.314C279.562 109.304 280.828 109.436 281.431 109.443L293.416 107.654C293.456 107.654 293.489 107.648 293.529 107.648C295.212 107.648 296.994 108.545 296.994 110.202C296.994 111.858 296.027 112.993 294.277 113.343C294.224 113.35 294.178 113.356 294.132 113.356H292.979L281.636 114.841C280.841 115.052 280.443 115.607 280.443 116.498C280.443 117.303 281.464 117.527 282.047 117.54L292.833 116.049C293.052 116.022 293.27 116.082 293.436 116.227C293.602 116.372 293.694 116.577 293.694 116.795V118.596C293.694 118.629 293.694 118.669 293.688 118.702C293.343 121.124 290.945 122.945 288.122 122.945H288.136Z" fill="#FBFBF5"/>
<path d="M288.738 101.352C288.321 101.352 287.983 101.016 287.983 100.6V84.2269C287.301 84.2599 286.565 84.2599 285.883 84.2269V100.6C285.883 101.016 285.545 101.352 285.128 101.352C284.71 101.352 284.372 101.016 284.372 100.6V84.0883C280.457 83.5669 278.052 81.7983 278.052 79.2972C278.052 78.3469 278.456 77.7925 278.787 77.489C279.224 77.093 279.821 76.8884 280.503 76.8884C282.61 76.8884 285.625 78.954 285.87 82.7156C286.559 82.7552 287.307 82.7552 287.996 82.7156C288.235 78.9606 291.25 76.8884 293.363 76.8884C294.052 76.8884 294.648 77.0996 295.086 77.489C295.424 77.7925 295.821 78.3535 295.821 79.2972C295.821 81.7983 293.409 83.5603 289.5 84.0883V100.6C289.5 101.016 289.163 101.352 288.745 101.352H288.738ZM293.363 78.3931C292.071 78.3931 289.838 79.7855 289.534 82.5507C292.436 82.1019 294.311 80.8876 294.311 79.2972C294.311 78.9804 294.231 78.7494 294.072 78.6109C293.88 78.4327 293.582 78.3997 293.363 78.3997V78.3931ZM280.503 78.3931C280.291 78.3931 279.993 78.4327 279.801 78.6043C279.642 78.7494 279.562 78.9804 279.562 79.2906C279.562 80.881 281.431 82.0953 284.339 82.5441C284.034 79.7789 281.802 78.3865 280.51 78.3865L280.503 78.3931Z" fill="#FBFBF5"/>
<path d="M275.805 345.851H113.136C109.565 345.851 106.656 342.954 106.656 339.396V313.976C106.656 310.419 109.565 307.522 113.136 307.522H275.805V345.851ZM113.136 309.337C110.565 309.337 108.471 311.422 108.471 313.982V339.403C108.471 341.964 110.565 344.049 113.136 344.049H273.99V309.343H113.136V309.337Z" fill="#FBFBF5"/>
<path d="M326.464 345.851H320.236V344.042H326.464C329.035 344.042 331.129 341.957 331.129 339.396V313.976C331.129 311.415 329.035 309.33 326.464 309.33H275.799V344.036H310.066V345.844H274.891C274.388 345.844 273.983 345.435 273.983 344.94V308.426C273.983 307.924 274.388 307.522 274.891 307.522H326.464C330.035 307.522 332.944 310.419 332.944 313.976V339.396C332.944 342.954 330.035 345.851 326.464 345.851Z" fill="#FBFBF5"/>
<path d="M306.866 333.444L304.09 330.679C305.196 329.214 305.753 327.458 305.753 325.709C305.753 323.591 304.938 321.473 303.321 319.856C301.698 318.239 299.571 317.434 297.444 317.434C295.318 317.434 293.191 318.239 291.568 319.856C289.944 321.473 289.136 323.591 289.136 325.709C289.136 327.828 289.944 329.946 291.568 331.563C293.191 333.18 295.318 333.985 297.444 333.985C299.2 333.985 300.956 333.431 302.433 332.329L305.209 335.094C305.441 335.325 305.74 335.437 306.038 335.437C306.336 335.437 306.641 335.325 306.866 335.094C307.323 334.638 307.323 333.899 306.866 333.444ZM302.639 329.59C302.427 329.874 302.307 330.197 302.281 330.527C301.95 330.553 301.625 330.672 301.34 330.883C300.214 331.728 298.862 332.177 297.444 332.177C295.708 332.177 294.079 331.504 292.853 330.283C291.627 329.062 290.951 327.438 290.951 325.709C290.951 323.98 291.627 322.357 292.853 321.136C294.079 319.915 295.708 319.242 297.444 319.242C299.18 319.242 300.81 319.915 302.036 321.136C303.262 322.357 303.937 323.98 303.937 325.709C303.937 327.122 303.487 328.468 302.639 329.59Z" fill="#FBFBF5"/>
<path d="M349.031 295.841H131.038V293.426H349.031C352.277 293.426 354.921 290.792 354.921 287.552V135.695C354.921 132.461 352.277 129.828 349.031 129.828H90.5692C87.3227 129.828 84.6792 132.461 84.6792 135.695V183.157H82.2542V135.695C82.2542 131.128 85.9844 127.413 90.5692 127.413H349.037C353.622 127.413 357.352 131.128 357.352 135.695V287.552C357.352 292.119 353.622 295.834 349.037 295.834L349.031 295.841Z" fill="#FBFBF5"/>
<path d="M84.6792 206.347H82.2542V270.11H84.6792V206.347Z" fill="#FBFBF5"/>
<path d="M345.208 281.388H143.076V279.58H344.3V140.968H95.2999V180.128H93.4845V140.057C93.4845 139.556 93.8887 139.153 94.3922 139.153H345.208C345.711 139.153 346.115 139.556 346.115 140.057V280.478C346.115 280.979 345.711 281.382 345.208 281.382V281.388Z" fill="#FBFBF5"/>
<path d="M95.2999 202.282H93.4845V274.334H95.2999V202.282Z" fill="#FBFBF5"/>
<path fill-rule="evenodd" clip-rule="evenodd" d="M112.308 246.788C112.308 246.689 112.387 246.603 112.5 246.603C112.864 246.603 113.321 246.359 113.321 245.976C113.321 245.593 112.877 245.343 112.5 245.343C112.168 245.343 111.857 245.461 111.705 245.758C111.665 245.818 111.605 245.857 111.539 245.857C111.44 245.857 111.36 245.765 111.36 245.673C111.36 245.646 111.36 245.62 111.387 245.587C111.605 245.171 112.043 244.986 112.506 244.986C113.076 244.986 113.692 245.356 113.692 245.976C113.692 246.313 113.487 246.616 113.162 246.781C113.573 246.913 113.904 247.316 113.904 247.765C113.904 248.497 113.162 248.926 112.5 248.926C111.89 248.926 111.102 248.524 111.102 247.771C111.102 247.666 111.175 247.573 111.281 247.573C111.387 247.573 111.479 247.659 111.479 247.771C111.479 248.26 112.049 248.563 112.5 248.563C112.95 248.563 113.527 248.246 113.527 247.771C113.527 247.296 112.97 246.986 112.506 246.986C112.407 246.986 112.308 246.907 112.308 246.801V246.788Z" fill="#FBFBF5"/>
<path fill-rule="evenodd" clip-rule="evenodd" d="M114.554 246.94C114.554 246.036 115.104 244.98 116.124 244.98C117.144 244.98 117.694 246.042 117.694 246.94C117.694 247.837 117.138 248.92 116.124 248.92C115.11 248.92 114.554 247.831 114.554 246.94ZM116.124 248.557C116.926 248.557 117.323 247.626 117.323 246.94C117.323 246.254 116.926 245.336 116.124 245.336C115.322 245.336 114.925 246.247 114.925 246.933C114.925 247.62 115.309 248.55 116.124 248.55V248.557Z" fill="#FBFBF5"/>
<path fill-rule="evenodd" clip-rule="evenodd" d="M118.324 246.94C118.324 246.036 118.873 244.98 119.894 244.98C120.914 244.98 121.464 246.042 121.464 246.94C121.464 247.837 120.908 248.92 119.894 248.92C118.88 248.92 118.324 247.831 118.324 246.94ZM119.894 248.557C120.695 248.557 121.093 247.626 121.093 246.94C121.093 246.254 120.695 245.336 119.894 245.336C119.092 245.336 118.695 246.247 118.695 246.933C118.695 247.62 119.079 248.55 119.894 248.55V248.557Z" fill="#FBFBF5"/>
<path fill-rule="evenodd" clip-rule="evenodd" d="M122.087 246.94C122.087 246.036 122.637 244.98 123.657 244.98C124.677 244.98 125.227 246.042 125.227 246.94C125.227 247.837 124.671 248.92 123.657 248.92C122.643 248.92 122.087 247.831 122.087 246.94ZM123.657 248.557C124.459 248.557 124.856 247.626 124.856 246.94C124.856 246.254 124.459 245.336 123.657 245.336C122.855 245.336 122.458 246.247 122.458 246.933C122.458 247.62 122.842 248.55 123.657 248.55V248.557Z" fill="#FBFBF5"/>
<path fill-rule="evenodd" clip-rule="evenodd" d="M113.46 218.741V219.552C113.46 219.658 113.381 219.731 113.282 219.731C113.189 219.731 113.103 219.651 113.103 219.552V218.741H111.221C111.122 218.741 111.042 218.655 111.042 218.556C111.042 218.503 111.062 218.464 111.102 218.424L113.149 215.863C113.189 215.817 113.242 215.797 113.288 215.797C113.388 215.797 113.467 215.87 113.467 215.976V218.391H113.831C113.924 218.391 114.01 218.463 114.01 218.562C114.01 218.661 113.924 218.741 113.831 218.741H113.467H113.46ZM111.592 218.378H113.096V216.484L111.592 218.378Z" fill="#FBFBF5"/>
<path fill-rule="evenodd" clip-rule="evenodd" d="M114.554 217.751C114.554 216.854 115.104 215.791 116.124 215.791C117.144 215.791 117.694 216.854 117.694 217.751C117.694 218.649 117.138 219.731 116.124 219.731C115.11 219.731 114.554 218.642 114.554 217.751ZM116.124 219.368C116.926 219.368 117.323 218.437 117.323 217.751C117.323 217.065 116.926 216.147 116.124 216.147C115.322 216.147 114.925 217.058 114.925 217.744C114.925 218.431 115.309 219.361 116.124 219.361V219.368Z" fill="#FBFBF5"/>
<path fill-rule="evenodd" clip-rule="evenodd" d="M118.317 217.751C118.317 216.854 118.867 215.791 119.887 215.791C120.908 215.791 121.457 216.854 121.457 217.751C121.457 218.649 120.901 219.731 119.887 219.731C118.873 219.731 118.317 218.642 118.317 217.751ZM119.887 219.368C120.689 219.368 121.086 218.437 121.086 217.751C121.086 217.065 120.689 216.147 119.887 216.147C119.086 216.147 118.688 217.058 118.688 217.744C118.688 218.431 119.072 219.361 119.887 219.361V219.368Z" fill="#FBFBF5"/>
<path fill-rule="evenodd" clip-rule="evenodd" d="M122.087 217.751C122.087 216.854 122.637 215.791 123.657 215.791C124.677 215.791 125.227 216.854 125.227 217.751C125.227 218.649 124.671 219.731 123.657 219.731C122.643 219.731 122.087 218.642 122.087 217.751ZM123.657 219.368C124.459 219.368 124.856 218.437 124.856 217.751C124.856 217.065 124.459 216.147 123.657 216.147C122.855 216.147 122.458 217.058 122.458 217.744C122.458 218.431 122.842 219.361 123.657 219.361V219.368Z" fill="#FBFBF5"/>
<path fill-rule="evenodd" clip-rule="evenodd" d="M165.398 274.736C165.298 274.736 165.206 274.664 165.206 274.558C165.206 274.492 165.245 274.419 165.312 274.393C165.312 274.393 165.351 274.38 165.351 274.32V271.212C165.351 271.159 165.312 271.14 165.312 271.14C165.245 271.113 165.206 271.047 165.206 270.981C165.206 270.876 165.298 270.803 165.398 270.803H166.749C167.816 270.803 168.485 271.747 168.485 272.77C168.485 273.792 167.816 274.73 166.749 274.736H165.398ZM165.689 271.159C165.689 271.159 165.716 271.232 165.716 271.265V274.268C165.716 274.301 165.716 274.347 165.689 274.373H166.756C167.617 274.373 168.128 273.608 168.128 272.763C168.128 271.918 167.617 271.179 166.756 271.153H165.689V271.159Z" fill="#FBFBF5"/>
<path fill-rule="evenodd" clip-rule="evenodd" d="M169.479 273.45C169.552 273.945 169.956 274.4 170.493 274.4C170.89 274.4 171.169 274.281 171.354 274.096C171.394 274.057 171.447 274.037 171.493 274.037C171.586 274.037 171.672 274.11 171.672 274.209C171.672 274.261 171.652 274.301 171.619 274.341C171.367 274.611 170.996 274.763 170.486 274.763C169.671 274.763 169.108 274.063 169.108 273.265C169.108 272.466 169.671 271.78 170.486 271.78C171.301 271.78 171.878 272.493 171.878 273.265C171.878 273.37 171.785 273.45 171.685 273.45H169.479ZM171.513 273.093C171.447 272.592 171.023 272.143 170.493 272.143C169.963 272.143 169.539 272.592 169.479 273.093H171.513Z" fill="#FBFBF5"/>
<path fill-rule="evenodd" clip-rule="evenodd" d="M172.494 273.278C172.494 272.453 173.17 271.787 173.998 271.787C174.322 271.787 174.647 271.886 174.905 272.09C175.131 272.262 174.892 272.552 174.68 272.381C174.475 272.222 174.243 272.15 173.998 272.15C173.368 272.15 172.845 272.645 172.845 273.278C172.845 273.912 173.368 274.4 173.998 274.4C174.243 274.4 174.475 274.327 174.68 274.162C174.886 273.997 175.124 274.281 174.905 274.453C174.654 274.657 174.322 274.763 173.998 274.763C173.17 274.763 172.494 274.096 172.494 273.278Z" fill="#FBFBF5"/>
<path fill-rule="evenodd" clip-rule="evenodd" d="M175.899 274.664C175.76 274.664 175.661 274.552 175.661 274.413C175.661 274.261 175.807 274.149 175.952 274.149C176.184 274.149 176.31 274.4 176.31 274.605C176.31 274.915 176.052 275.165 175.793 275.284C175.727 275.324 175.654 275.311 175.608 275.245C175.568 275.172 175.608 275.099 175.667 275.06C175.8 274.981 175.972 274.816 175.979 274.651C175.952 274.651 175.919 274.664 175.893 274.664H175.899Z" fill="#FBFBF5"/>
<path fill-rule="evenodd" clip-rule="evenodd" d="M176.946 272.75C176.946 271.853 177.496 270.797 178.516 270.797C179.537 270.797 180.087 271.859 180.087 272.75C180.087 273.641 179.53 274.73 178.516 274.73C177.503 274.73 176.946 273.641 176.946 272.75ZM178.516 274.373C179.318 274.373 179.716 273.443 179.716 272.757C179.716 272.07 179.318 271.153 178.516 271.153C177.715 271.153 177.317 272.064 177.317 272.75C177.317 273.436 177.701 274.373 178.516 274.373Z" fill="#FBFBF5"/>
<path fill-rule="evenodd" clip-rule="evenodd" d="M183.181 271.107C183.26 271.16 183.274 271.265 183.234 271.344C183.181 271.43 183.068 271.483 182.969 271.41C182.73 271.252 182.505 271.16 182.2 271.16C181.518 271.16 181.173 271.8 181.1 272.631V272.697C181.452 272.176 181.962 272.176 182.147 272.176C182.843 272.176 183.492 272.631 183.492 273.476C183.492 274.189 182.823 274.769 182.127 274.769C181.061 274.769 180.709 273.72 180.709 272.882C180.709 271.985 181.028 270.797 182.187 270.797C182.585 270.797 182.889 270.889 183.181 271.107ZM182.134 274.4C182.637 274.4 183.095 273.991 183.095 273.469C183.095 272.948 182.637 272.539 182.134 272.539C181.63 272.539 181.167 272.948 181.167 273.469C181.167 273.991 181.624 274.4 182.134 274.4Z" fill="#FBFBF5"/>
<path fill-rule="evenodd" clip-rule="evenodd" d="M196.624 274.736C196.518 274.736 196.432 274.664 196.432 274.558C196.432 274.492 196.472 274.419 196.538 274.393C196.538 274.393 196.578 274.38 196.578 274.32V271.212C196.578 271.159 196.538 271.14 196.538 271.14C196.472 271.113 196.432 271.047 196.432 270.981C196.432 270.876 196.525 270.803 196.624 270.803H197.975C199.042 270.803 199.711 271.747 199.711 272.77C199.711 273.792 199.042 274.73 197.975 274.736H196.624ZM196.909 271.159C196.909 271.159 196.935 271.232 196.935 271.265V274.268C196.935 274.301 196.935 274.347 196.909 274.373H197.975C198.837 274.373 199.347 273.608 199.347 272.763C199.347 271.918 198.837 271.179 197.975 271.153H196.909V271.159Z" fill="#FBFBF5"/>
<path fill-rule="evenodd" clip-rule="evenodd" d="M200.712 273.45C200.785 273.945 201.189 274.4 201.726 274.4C202.123 274.4 202.401 274.281 202.587 274.096C202.627 274.057 202.68 274.037 202.726 274.037C202.819 274.037 202.905 274.11 202.905 274.209C202.905 274.261 202.885 274.301 202.852 274.341C202.6 274.611 202.229 274.763 201.719 274.763C200.904 274.763 200.341 274.063 200.341 273.265C200.341 272.466 200.904 271.78 201.719 271.78C202.534 271.78 203.11 272.493 203.11 273.265C203.11 273.37 203.018 273.45 202.918 273.45H200.712ZM202.746 273.093C202.68 272.592 202.256 272.143 201.726 272.143C201.196 272.143 200.771 272.592 200.712 273.093H202.746Z" fill="#FBFBF5"/>
<path fill-rule="evenodd" clip-rule="evenodd" d="M203.72 273.278C203.72 272.453 204.396 271.787 205.23 271.787C205.555 271.787 205.88 271.886 206.138 272.09C206.363 272.262 206.125 272.552 205.913 272.381C205.708 272.222 205.476 272.15 205.23 272.15C204.601 272.15 204.078 272.645 204.078 273.278C204.078 273.912 204.601 274.4 205.23 274.4C205.476 274.4 205.714 274.327 205.913 274.162C206.118 273.997 206.357 274.281 206.138 274.453C205.886 274.657 205.555 274.763 205.23 274.763C204.402 274.763 203.72 274.096 203.72 273.278Z" fill="#FBFBF5"/>
<path fill-rule="evenodd" clip-rule="evenodd" d="M207.125 274.664C206.986 274.664 206.887 274.552 206.887 274.413C206.887 274.261 207.033 274.149 207.178 274.149C207.41 274.149 207.536 274.4 207.536 274.605C207.536 274.915 207.278 275.165 207.019 275.284C206.953 275.324 206.88 275.311 206.834 275.245C206.794 275.172 206.834 275.099 206.894 275.06C207.026 274.981 207.198 274.816 207.205 274.651C207.178 274.651 207.145 274.664 207.119 274.664H207.125Z" fill="#FBFBF5"/>
<path fill-rule="evenodd" clip-rule="evenodd" d="M208.172 272.75C208.172 271.853 208.722 270.797 209.742 270.797C210.763 270.797 211.313 271.859 211.313 272.75C211.313 273.641 210.756 274.73 209.742 274.73C208.729 274.73 208.172 273.641 208.172 272.75ZM209.742 274.373C210.544 274.373 210.942 273.443 210.942 272.757C210.942 272.07 210.544 271.153 209.742 271.153C208.941 271.153 208.543 272.064 208.543 272.75C208.543 273.436 208.928 274.373 209.742 274.373Z" fill="#FBFBF5"/>
<path fill-rule="evenodd" clip-rule="evenodd" d="M212.876 274.618C212.856 274.697 212.784 274.736 212.711 274.736C212.578 274.736 212.492 274.604 212.538 274.499L213.883 271.186H211.949C211.849 271.186 211.763 271.1 211.763 271.014C211.763 270.915 211.843 270.83 211.942 270.83H214.148C214.235 270.83 214.327 270.902 214.327 270.995C214.327 271.034 214.307 271.074 214.294 271.113L212.876 274.618Z" fill="#FBFBF5"/>
<path fill-rule="evenodd" clip-rule="evenodd" d="M227.512 274.736C227.406 274.736 227.32 274.664 227.32 274.558C227.32 274.492 227.36 274.419 227.426 274.393C227.426 274.393 227.466 274.38 227.466 274.32V271.212C227.466 271.159 227.426 271.14 227.426 271.14C227.36 271.113 227.32 271.047 227.32 270.981C227.32 270.876 227.406 270.803 227.512 270.803H228.864C229.93 270.803 230.6 271.747 230.6 272.77C230.6 273.792 229.93 274.73 228.864 274.736H227.512ZM227.797 271.159C227.797 271.159 227.823 271.232 227.823 271.265V274.268C227.823 274.301 227.823 274.347 227.797 274.373H228.864C229.725 274.373 230.235 273.608 230.235 272.763C230.235 271.918 229.725 271.179 228.864 271.153H227.797V271.159Z" fill="#FBFBF5"/>
<path fill-rule="evenodd" clip-rule="evenodd" d="M231.6 273.449C231.673 273.944 232.084 274.4 232.614 274.4C233.011 274.4 233.29 274.281 233.475 274.096C233.515 274.057 233.568 274.037 233.614 274.037C233.707 274.037 233.793 274.109 233.793 274.208C233.793 274.261 233.773 274.301 233.74 274.34C233.488 274.611 233.117 274.763 232.607 274.763C231.792 274.763 231.229 274.063 231.229 273.265C231.229 272.466 231.792 271.78 232.607 271.78C233.422 271.78 233.992 272.493 233.992 273.265C233.992 273.37 233.899 273.449 233.8 273.449H231.593H231.6ZM233.634 273.093C233.568 272.591 233.144 272.143 232.614 272.143C232.084 272.143 231.66 272.591 231.6 273.093H233.634Z" fill="#FBFBF5"/>
<path fill-rule="evenodd" clip-rule="evenodd" d="M234.608 273.278C234.608 272.453 235.284 271.786 236.112 271.786C236.443 271.786 236.761 271.885 237.02 272.09C237.245 272.262 237.006 272.552 236.794 272.38C236.589 272.222 236.351 272.149 236.112 272.149C235.483 272.149 234.959 272.644 234.959 273.278C234.959 273.911 235.483 274.4 236.112 274.4C236.357 274.4 236.589 274.327 236.794 274.162C236.993 273.997 237.238 274.281 237.02 274.453C236.768 274.657 236.437 274.763 236.112 274.763C235.284 274.763 234.608 274.096 234.608 273.278Z" fill="#FBFBF5"/>
<path fill-rule="evenodd" clip-rule="evenodd" d="M238.014 274.664C237.874 274.664 237.782 274.551 237.782 274.413C237.782 274.261 237.927 274.149 238.073 274.149C238.305 274.149 238.431 274.4 238.431 274.604C238.431 274.914 238.173 275.165 237.914 275.284C237.848 275.324 237.775 275.31 237.729 275.244C237.689 275.172 237.729 275.099 237.795 275.06C237.927 274.98 238.1 274.815 238.106 274.65C238.08 274.65 238.053 274.664 238.02 274.664H238.014Z" fill="#FBFBF5"/>
<path fill-rule="evenodd" clip-rule="evenodd" d="M239.067 272.75C239.067 271.852 239.617 270.796 240.637 270.796C241.658 270.796 242.208 271.859 242.208 272.75C242.208 273.641 241.651 274.73 240.637 274.73C239.624 274.73 239.067 273.641 239.067 272.75ZM240.637 274.373C241.439 274.373 241.836 273.443 241.836 272.756C241.836 272.07 241.439 271.153 240.637 271.153C239.836 271.153 239.438 272.063 239.438 272.75C239.438 273.436 239.822 274.373 240.637 274.373Z" fill="#FBFBF5"/>
<path fill-rule="evenodd" clip-rule="evenodd" d="M242.757 273.608C242.757 273.192 243.009 272.829 243.453 272.638C243.168 272.393 242.989 272.169 242.989 271.74C242.989 271.133 243.533 270.763 244.089 270.763C244.646 270.763 245.189 271.133 245.189 271.74C245.189 272.156 245.05 272.38 244.719 272.638C245.169 272.816 245.428 273.185 245.428 273.608C245.428 274.334 244.758 274.763 244.083 274.763C243.407 274.763 242.764 274.334 242.764 273.608H242.757ZM244.083 272.822C243.606 272.822 243.175 273.139 243.175 273.614C243.175 274.089 243.606 274.4 244.083 274.4C244.56 274.4 244.997 274.096 244.997 273.614C244.997 273.133 244.566 272.822 244.083 272.822ZM244.083 271.14C243.731 271.14 243.347 271.371 243.347 271.773C243.347 272.156 243.731 272.446 244.083 272.446C244.434 272.446 244.811 272.156 244.811 271.773C244.811 271.364 244.44 271.14 244.083 271.14Z" fill="#FBFBF5"/>
<path fill-rule="evenodd" clip-rule="evenodd" d="M258.38 274.736C258.274 274.736 258.188 274.664 258.188 274.558C258.188 274.492 258.228 274.419 258.294 274.393C258.294 274.393 258.334 274.38 258.334 274.32V271.212C258.334 271.159 258.294 271.14 258.294 271.14C258.228 271.113 258.188 271.047 258.188 270.981C258.188 270.876 258.274 270.803 258.38 270.803H259.732C260.799 270.803 261.468 271.747 261.468 272.77C261.468 273.792 260.805 274.73 259.732 274.736H258.38ZM258.672 271.159C258.672 271.159 258.698 271.232 258.698 271.265V274.268C258.698 274.301 258.698 274.347 258.672 274.373H259.739C260.6 274.373 261.11 273.608 261.11 272.763C261.11 271.918 260.6 271.179 259.739 271.153H258.672V271.159Z" fill="#FBFBF5"/>
<path fill-rule="evenodd" clip-rule="evenodd" d="M262.455 273.449C262.528 273.944 262.932 274.4 263.469 274.4C263.866 274.4 264.145 274.281 264.33 274.096C264.37 274.057 264.423 274.037 264.469 274.037C264.562 274.037 264.648 274.109 264.648 274.208C264.648 274.261 264.628 274.301 264.595 274.34C264.343 274.611 263.972 274.763 263.462 274.763C262.647 274.763 262.084 274.063 262.084 273.265C262.084 272.466 262.647 271.78 263.462 271.78C264.277 271.78 264.847 272.493 264.847 273.265C264.847 273.37 264.754 273.449 264.655 273.449H262.448H262.455ZM264.489 273.093C264.423 272.591 263.999 272.143 263.469 272.143C262.939 272.143 262.515 272.591 262.455 273.093H264.489Z" fill="#FBFBF5"/>
<path fill-rule="evenodd" clip-rule="evenodd" d="M265.476 273.278C265.476 272.453 266.152 271.786 266.987 271.786C267.312 271.786 267.636 271.885 267.895 272.09C268.12 272.262 267.881 272.552 267.669 272.38C267.464 272.222 267.232 272.149 266.987 272.149C266.358 272.149 265.834 272.644 265.834 273.278C265.834 273.911 266.358 274.4 266.987 274.4C267.232 274.4 267.471 274.327 267.669 274.162C267.868 273.997 268.113 274.281 267.895 274.453C267.643 274.657 267.312 274.763 266.987 274.763C266.159 274.763 265.476 274.096 265.476 273.278Z" fill="#FBFBF5"/>
<path fill-rule="evenodd" clip-rule="evenodd" d="M268.875 274.664C268.736 274.664 268.637 274.551 268.637 274.413C268.637 274.261 268.782 274.149 268.928 274.149C269.16 274.149 269.286 274.4 269.286 274.604C269.286 274.914 269.028 275.165 268.776 275.284C268.71 275.324 268.637 275.31 268.59 275.244C268.551 275.172 268.59 275.099 268.65 275.06C268.782 274.98 268.955 274.815 268.961 274.65C268.935 274.65 268.908 274.664 268.875 274.664Z" fill="#FBFBF5"/>
<path fill-rule="evenodd" clip-rule="evenodd" d="M269.929 272.75C269.929 271.852 270.479 270.796 271.499 270.796C272.519 270.796 273.069 271.859 273.069 272.75C273.069 273.641 272.513 274.73 271.499 274.73C270.485 274.73 269.929 273.641 269.929 272.75ZM271.499 274.373C272.301 274.373 272.698 273.443 272.698 272.756C272.698 272.07 272.301 271.153 271.499 271.153C270.697 271.153 270.3 272.063 270.3 272.75C270.3 273.436 270.684 274.373 271.499 274.373Z" fill="#FBFBF5"/>
<path fill-rule="evenodd" clip-rule="evenodd" d="M274.003 274.426C273.924 274.367 273.917 274.254 273.964 274.182C274.017 274.096 274.123 274.056 274.215 274.122C274.454 274.281 274.679 274.373 274.984 274.373C275.666 274.373 276.011 273.733 276.084 272.902V272.842C275.733 273.364 275.223 273.364 275.037 273.364C274.341 273.364 273.692 272.908 273.692 272.063C273.692 271.351 274.361 270.77 275.05 270.77C276.117 270.77 276.468 271.819 276.468 272.657C276.468 273.548 276.15 274.743 274.984 274.743C274.586 274.743 274.282 274.65 273.99 274.433L274.003 274.426ZM275.05 271.133C274.547 271.133 274.09 271.542 274.09 272.063C274.09 272.585 274.547 272.994 275.05 272.994C275.554 272.994 276.018 272.585 276.018 272.063C276.018 271.542 275.56 271.133 275.05 271.133Z" fill="#FBFBF5"/>
<path fill-rule="evenodd" clip-rule="evenodd" d="M290.342 274.736C290.236 274.736 290.15 274.664 290.15 274.558C290.15 274.492 290.189 274.419 290.256 274.393C290.256 274.393 290.295 274.38 290.295 274.32V271.212C290.295 271.159 290.256 271.14 290.256 271.14C290.189 271.113 290.15 271.047 290.15 270.981C290.15 270.876 290.242 270.803 290.342 270.803H291.693C292.76 270.803 293.429 271.747 293.429 272.77C293.429 273.792 292.76 274.73 291.693 274.736H290.342ZM290.627 271.159C290.627 271.159 290.653 271.232 290.653 271.265V274.268C290.653 274.301 290.653 274.347 290.627 274.373H291.693C292.555 274.373 293.065 273.608 293.065 272.763C293.065 271.918 292.555 271.179 291.693 271.153H290.627V271.159Z" fill="#FBFBF5"/>
<path fill-rule="evenodd" clip-rule="evenodd" d="M294.43 273.45C294.503 273.945 294.907 274.4 295.443 274.4C295.841 274.4 296.119 274.281 296.305 274.096C296.345 274.057 296.398 274.037 296.444 274.037C296.537 274.037 296.623 274.11 296.623 274.209C296.623 274.261 296.603 274.301 296.57 274.341C296.318 274.611 295.947 274.763 295.437 274.763C294.622 274.763 294.059 274.063 294.059 273.265C294.059 272.466 294.622 271.78 295.437 271.78C296.252 271.78 296.822 272.493 296.822 273.265C296.822 273.37 296.729 273.45 296.629 273.45H294.423H294.43ZM296.464 273.093C296.398 272.592 295.973 272.143 295.443 272.143C294.913 272.143 294.489 272.592 294.43 273.093H296.464Z" fill="#FBFBF5"/>
<path fill-rule="evenodd" clip-rule="evenodd" d="M297.438 273.278C297.438 272.453 298.114 271.787 298.948 271.787C299.273 271.787 299.598 271.886 299.856 272.09C300.081 272.262 299.843 272.552 299.631 272.381C299.425 272.222 299.194 272.15 298.948 272.15C298.319 272.15 297.796 272.645 297.796 273.278C297.796 273.912 298.319 274.4 298.948 274.4C299.194 274.4 299.425 274.327 299.631 274.162C299.836 273.997 300.075 274.281 299.856 274.453C299.598 274.657 299.273 274.763 298.948 274.763C298.12 274.763 297.438 274.096 297.438 273.278Z" fill="#FBFBF5"/>
<path fill-rule="evenodd" clip-rule="evenodd" d="M300.843 274.664C300.704 274.664 300.605 274.552 300.605 274.413C300.605 274.261 300.751 274.149 300.896 274.149C301.128 274.149 301.254 274.4 301.254 274.605C301.254 274.915 300.996 275.165 300.737 275.284C300.671 275.324 300.592 275.311 300.552 275.245C300.512 275.172 300.552 275.099 300.611 275.06C300.744 274.981 300.916 274.816 300.923 274.651C300.89 274.651 300.863 274.664 300.837 274.664H300.843Z" fill="#FBFBF5"/>
<path fill-rule="evenodd" clip-rule="evenodd" d="M302.208 270.849C302.241 270.816 302.288 270.797 302.334 270.797C302.427 270.797 302.506 270.856 302.506 270.975V274.545C302.506 274.644 302.427 274.73 302.327 274.73C302.228 274.73 302.149 274.644 302.149 274.545V271.358L301.837 271.622C301.804 271.655 301.758 271.674 301.711 271.674C301.612 271.674 301.532 271.582 301.532 271.496C301.532 271.443 301.559 271.391 301.605 271.351L302.208 270.843V270.849Z" fill="#FBFBF5"/>
<path fill-rule="evenodd" clip-rule="evenodd" d="M303.354 272.75C303.354 271.853 303.904 270.797 304.925 270.797C305.945 270.797 306.495 271.859 306.495 272.75C306.495 273.641 305.938 274.73 304.925 274.73C303.911 274.73 303.354 273.641 303.354 272.75ZM304.925 274.373C305.726 274.373 306.117 273.443 306.117 272.757C306.117 272.07 305.72 271.153 304.925 271.153C304.13 271.153 303.725 272.064 303.725 272.75C303.725 273.436 304.11 274.373 304.925 274.373Z" fill="#FBFBF5"/>
<path fill-rule="evenodd" clip-rule="evenodd" d="M322.37 274.736C322.27 274.736 322.177 274.664 322.177 274.558C322.177 274.492 322.217 274.419 322.283 274.393C322.283 274.393 322.323 274.38 322.323 274.32V271.212C322.323 271.159 322.283 271.14 322.283 271.14C322.217 271.113 322.177 271.047 322.177 270.981C322.177 270.876 322.27 270.803 322.37 270.803H323.728C324.795 270.803 325.464 271.747 325.464 272.77C325.464 273.792 324.795 274.73 323.728 274.736H322.37ZM322.661 271.159C322.661 271.159 322.688 271.232 322.688 271.265V274.268C322.688 274.301 322.688 274.347 322.661 274.373H323.728C324.589 274.373 325.099 273.608 325.099 272.763C325.099 271.918 324.589 271.179 323.728 271.153H322.661V271.159Z" fill="#FBFBF5"/>
<path fill-rule="evenodd" clip-rule="evenodd" d="M326.458 273.45C326.53 273.945 326.941 274.4 327.471 274.4C327.869 274.4 328.147 274.281 328.333 274.096C328.372 274.057 328.425 274.037 328.472 274.037C328.565 274.037 328.651 274.11 328.651 274.209C328.651 274.261 328.631 274.301 328.598 274.341C328.346 274.611 327.975 274.763 327.465 274.763C326.65 274.763 326.087 274.063 326.087 273.265C326.087 272.466 326.65 271.78 327.465 271.78C328.28 271.78 328.856 272.493 328.856 273.265C328.856 273.37 328.763 273.45 328.664 273.45H326.451H326.458ZM328.492 273.093C328.425 272.592 328.001 272.143 327.471 272.143C326.941 272.143 326.517 272.592 326.458 273.093H328.492Z" fill="#FBFBF5"/>
<path fill-rule="evenodd" clip-rule="evenodd" d="M329.466 273.278C329.466 272.453 330.141 271.787 330.97 271.787C331.294 271.787 331.619 271.886 331.877 272.09C332.103 272.262 331.871 272.552 331.652 272.381C331.447 272.222 331.208 272.15 330.963 272.15C330.334 272.15 329.81 272.645 329.81 273.278C329.81 273.912 330.334 274.4 330.963 274.4C331.208 274.4 331.44 274.327 331.652 274.162C331.851 273.997 332.096 274.281 331.877 274.453C331.626 274.657 331.294 274.763 330.97 274.763C330.141 274.763 329.466 274.096 329.466 273.278Z" fill="#FBFBF5"/>
<path fill-rule="evenodd" clip-rule="evenodd" d="M332.871 274.664C332.732 274.664 332.633 274.552 332.633 274.413C332.633 274.261 332.778 274.149 332.924 274.149C333.156 274.149 333.282 274.4 333.282 274.605C333.282 274.915 333.023 275.165 332.772 275.284C332.705 275.324 332.633 275.311 332.586 275.245C332.546 275.172 332.586 275.099 332.652 275.06C332.785 274.981 332.957 274.816 332.964 274.651C332.937 274.651 332.911 274.664 332.878 274.664H332.871Z" fill="#FBFBF5"/>
<path fill-rule="evenodd" clip-rule="evenodd" d="M334.236 270.849C334.269 270.816 334.315 270.797 334.362 270.797C334.448 270.797 334.534 270.856 334.534 270.975V274.545C334.534 274.644 334.455 274.73 334.355 274.73C334.256 274.73 334.176 274.644 334.176 274.545V271.358L333.865 271.622C333.832 271.655 333.785 271.674 333.739 271.674C333.64 271.674 333.553 271.582 333.553 271.496C333.553 271.443 333.58 271.391 333.626 271.351L334.229 270.843L334.236 270.849Z" fill="#FBFBF5"/>
<path fill-rule="evenodd" clip-rule="evenodd" d="M335.919 270.849C335.952 270.816 335.998 270.797 336.045 270.797C336.131 270.797 336.217 270.856 336.217 270.975V274.545C336.217 274.644 336.137 274.73 336.038 274.73C335.939 274.73 335.859 274.644 335.859 274.545V271.358L335.548 271.622C335.515 271.655 335.468 271.674 335.422 271.674C335.323 271.674 335.243 271.582 335.243 271.496C335.243 271.443 335.27 271.391 335.316 271.351L335.919 270.843V270.849Z" fill="#FBFBF5"/>
<path d="M196.061 237.648C195.822 237.648 195.59 237.556 195.418 237.384L169.605 211.673L161.158 228.515L159.534 227.703L168.545 209.74C168.678 209.482 168.923 209.297 169.214 209.251C169.499 209.205 169.797 209.297 170.003 209.502L195.875 235.272L221.556 191.902C221.682 191.684 221.9 191.532 222.145 191.479C222.397 191.426 222.649 191.479 222.861 191.618L248.754 209.561L274.593 170.955C274.845 170.573 275.342 170.447 275.752 170.645L302.056 183.745L326.895 159.004L328.18 160.284L302.877 185.487C302.599 185.764 302.175 185.83 301.831 185.659L275.66 172.625L249.747 211.337C249.615 211.541 249.403 211.68 249.164 211.726C248.926 211.772 248.674 211.719 248.475 211.581L222.629 193.67L196.849 237.213C196.703 237.457 196.458 237.615 196.18 237.648C196.14 237.648 196.101 237.655 196.067 237.655L196.061 237.648Z" fill="#14FFC7"/>
<path d="M196.498 254.608C196.293 254.608 196.087 254.536 195.915 254.397L170.281 233.028L161.33 236.691L160.641 235.015L170.102 231.141C170.413 231.016 170.771 231.068 171.03 231.286L196.478 252.503L221.635 229.742C221.821 229.577 222.066 229.491 222.311 229.511L248.283 231.359L274.348 203.1C274.673 202.744 275.229 202.705 275.6 203.015L303.069 225.763L327.597 211.554L328.511 213.118L303.434 227.643C303.103 227.835 302.692 227.802 302.394 227.558L275.103 204.955L249.33 232.903C249.144 233.108 248.873 233.213 248.594 233.193L222.576 231.339L197.121 254.371C196.949 254.529 196.73 254.608 196.511 254.608H196.498Z" fill="#14FFC7"/>
<path d="M228.274 168.098L218.163 162.284L224.001 152.22L224.411 152.523C224.895 152.886 225.359 153.282 225.789 153.711C229.493 157.4 230.547 162.858 228.473 167.629L228.274 168.098ZM219.409 161.954L227.837 166.798C229.493 162.488 228.466 157.651 225.147 154.351C224.868 154.074 224.577 153.81 224.272 153.559L219.409 161.947V161.954Z" fill="#FBFBF5"/>
<path d="M224.001 173.06L219.508 165.306L227.293 169.787L226.989 170.196C226.624 170.678 226.227 171.14 225.796 171.569C225.365 171.998 224.902 172.4 224.418 172.757L224.007 173.06H224.001ZM221.986 167.781L224.266 171.714C224.57 171.463 224.862 171.199 225.14 170.922C225.418 170.645 225.683 170.355 225.935 170.051L221.986 167.781Z" fill="#FBFBF5"/>
<path d="M216.825 175.265C213.983 175.265 211.193 174.301 208.974 172.552L208.576 172.235L216.613 164.224L222.298 174.037L221.827 174.235C220.257 174.902 218.528 175.258 216.818 175.258L216.825 175.265ZM209.948 172.15C211.935 173.575 214.36 174.36 216.825 174.36C218.236 174.36 219.667 174.096 220.999 173.602L216.421 165.709L209.948 172.156V172.15Z" fill="#FBFBF5"/>
<path d="M207.185 170.856L206.867 170.46C203.276 165.933 203.276 159.354 206.867 154.827L207.185 154.424L215.434 162.64L207.185 170.856ZM207.271 155.79C204.349 159.836 204.349 165.445 207.271 169.49L214.148 162.64L207.271 155.79Z" fill="#FBFBF5"/>
<path d="M216.62 161.05L208.583 153.045L208.981 152.728C211.2 150.979 213.989 150.016 216.832 150.016C218.541 150.016 220.27 150.372 221.841 151.039L222.311 151.237L216.626 161.05H216.62ZM209.954 153.131L216.428 159.578L221.006 151.685C219.681 151.19 218.25 150.926 216.832 150.926C214.367 150.926 211.942 151.705 209.954 153.137V153.131Z" fill="#FBFBF5"/>
<path d="M182.114 150.015H148.874C148.615 150.015 148.403 149.804 148.403 149.547C148.403 149.29 148.615 149.078 148.874 149.078H182.114C182.372 149.078 182.584 149.29 182.584 149.547C182.584 149.804 182.372 150.015 182.114 150.015Z" fill="#FBFBF5"/>
<path d="M193.251 150.015H186.672C186.414 150.015 186.202 149.804 186.202 149.547C186.202 149.29 186.414 149.078 186.672 149.078H193.251C193.51 149.078 193.722 149.29 193.722 149.547C193.722 149.804 193.51 150.015 193.251 150.015Z" fill="#FBFBF5"/>
<path d="M183.313 196.811H162.946C162.688 196.811 162.476 196.6 162.476 196.343C162.476 196.085 162.688 195.874 162.946 195.874H183.313C183.572 195.874 183.784 196.085 183.784 196.343C183.784 196.6 183.572 196.811 183.313 196.811Z" fill="#FBFBF5"/>
<path d="M183.313 192.528H162.946C162.688 192.528 162.476 192.317 162.476 192.06C162.476 191.802 162.688 191.591 162.946 191.591H183.313C183.572 191.591 183.784 191.802 183.784 192.06C183.784 192.317 183.572 192.528 183.313 192.528Z" fill="#FBFBF5"/>
<path d="M161.098 196.811H148.874C148.615 196.811 148.403 196.6 148.403 196.343C148.403 196.085 148.615 195.874 148.874 195.874H161.098C161.356 195.874 161.568 196.085 161.568 196.343C161.568 196.6 161.356 196.811 161.098 196.811Z" fill="#FBFBF5"/>
<path d="M161.098 192.528H148.874C148.615 192.528 148.403 192.317 148.403 192.06C148.403 191.802 148.615 191.591 148.874 191.591H161.098C161.356 191.591 161.568 191.802 161.568 192.06C161.568 192.317 161.356 192.528 161.098 192.528Z" fill="#FBFBF5"/>
<path d="M153.472 201.926H148.88C148.622 201.926 148.41 201.715 148.41 201.457C148.41 201.2 148.622 200.989 148.88 200.989H153.472C153.73 200.989 153.942 201.2 153.942 201.457C153.942 201.715 153.73 201.926 153.472 201.926Z" fill="#FBFBF5"/>
<path d="M168.313 201.926H156.208C155.95 201.926 155.738 201.715 155.738 201.457C155.738 201.2 155.95 200.989 156.208 200.989H168.313C168.571 200.989 168.783 201.2 168.783 201.457C168.783 201.715 168.571 201.926 168.313 201.926Z" fill="#FBFBF5"/>
<path d="M185.712 201.926H171.049C170.791 201.926 170.579 201.715 170.579 201.457C170.579 201.2 170.791 200.989 171.049 200.989H185.712C185.97 200.989 186.182 201.2 186.182 201.457C186.182 201.715 185.97 201.926 185.712 201.926Z" fill="#FBFBF5"/>
<path fill-rule="evenodd" clip-rule="evenodd" d="M154.38 159.862H163.543V152.682H154.38V159.862ZM155.314 153.625H162.608V158.918H155.314V153.625Z" fill="#FBFBF5"/>
<path fill-rule="evenodd" clip-rule="evenodd" d="M165.212 159.862H174.375V152.682H165.212V159.862ZM166.146 153.625H173.441V158.918H166.146V153.625Z" fill="#FBFBF5"/>
<path fill-rule="evenodd" clip-rule="evenodd" d="M176.052 159.862H185.221V152.682H176.052V159.862ZM176.986 153.625H184.281V158.918H176.986V153.625Z" fill="#FBFBF5"/>
<path fill-rule="evenodd" clip-rule="evenodd" d="M192.006 155.909C191.953 155.836 191.887 155.764 191.8 155.704L189.256 153.883C189.19 153.837 189.104 153.85 189.057 153.916C189.011 153.982 189.024 154.074 189.091 154.12L191.635 155.942C191.694 155.981 191.741 156.028 191.774 156.074C191.82 156.14 191.847 156.206 191.847 156.278C191.847 156.344 191.827 156.41 191.787 156.47C191.761 156.509 191.721 156.549 191.675 156.582L189.097 158.43C189.031 158.476 189.018 158.568 189.064 158.634C189.11 158.7 189.203 158.714 189.263 158.667L191.84 156.82C191.913 156.767 191.973 156.707 192.019 156.641C192.099 156.529 192.138 156.404 192.132 156.278C192.132 156.153 192.085 156.028 192.006 155.915V155.909Z" fill="#FBFBF5"/>
<path fill-rule="evenodd" clip-rule="evenodd" d="M147.959 155.942L150.504 154.12C150.57 154.074 150.583 153.982 150.537 153.916C150.49 153.85 150.398 153.837 150.338 153.883L147.794 155.704C147.708 155.764 147.641 155.836 147.588 155.909C147.509 156.021 147.469 156.146 147.463 156.272C147.463 156.397 147.496 156.523 147.575 156.635C147.622 156.701 147.681 156.76 147.754 156.813L150.331 158.661C150.398 158.707 150.484 158.694 150.53 158.628C150.577 158.562 150.563 158.469 150.497 158.423L147.92 156.575C147.873 156.542 147.834 156.503 147.807 156.463C147.767 156.404 147.741 156.338 147.747 156.272C147.747 156.206 147.774 156.133 147.82 156.067C147.853 156.021 147.9 155.975 147.959 155.935V155.942Z" fill="#FBFBF5"/>
<path d="M193.251 162.878H148.874C148.615 162.878 148.403 162.666 148.403 162.409C148.403 162.152 148.615 161.94 148.874 161.94H193.251C193.51 161.94 193.722 162.152 193.722 162.409C193.722 162.666 193.51 162.878 193.251 162.878Z" fill="#FBFBF5"/>
<path d="M193.251 166.395H148.874C148.615 166.395 148.403 166.184 148.403 165.926C148.403 165.669 148.615 165.458 148.874 165.458H193.251C193.51 165.458 193.722 165.669 193.722 165.926C193.722 166.184 193.51 166.395 193.251 166.395Z" fill="#FBFBF5"/>
<path d="M171.063 169.912H148.874C148.615 169.912 148.403 169.701 148.403 169.444C148.403 169.187 148.615 168.975 148.874 168.975H171.063C171.321 168.975 171.533 169.187 171.533 169.444C171.533 169.701 171.321 169.912 171.063 169.912Z" fill="#FBFBF5"/>
<path d="M193.251 173.423H148.874C148.615 173.423 148.403 173.212 148.403 172.955C148.403 172.697 148.615 172.486 148.874 172.486H193.251C193.51 172.486 193.722 172.697 193.722 172.955C193.722 173.212 193.51 173.423 193.251 173.423Z" fill="#FBFBF5"/>
<path d="M179.563 176.941H148.88C148.622 176.941 148.41 176.73 148.41 176.472C148.41 176.215 148.622 176.004 148.88 176.004H179.563C179.822 176.004 180.034 176.215 180.034 176.472C180.034 176.73 179.822 176.941 179.563 176.941Z" fill="#FBFBF5"/>
<path d="M193.251 180.458H148.874C148.615 180.458 148.403 180.247 148.403 179.99C148.403 179.732 148.615 179.521 148.874 179.521H193.251C193.51 179.521 193.722 179.732 193.722 179.99C193.722 180.247 193.51 180.458 193.251 180.458Z" fill="#FBFBF5"/>
<path d="M193.251 183.976H148.874C148.615 183.976 148.403 183.764 148.403 183.507C148.403 183.25 148.615 183.039 148.874 183.039H193.251C193.51 183.039 193.722 183.25 193.722 183.507C193.722 183.764 193.51 183.976 193.251 183.976Z" fill="#FBFBF5"/>
<path d="M171.063 187.486H148.874C148.615 187.486 148.403 187.275 148.403 187.018C148.403 186.76 148.615 186.549 148.874 186.549H171.063C171.321 186.549 171.533 186.76 171.533 187.018C171.533 187.275 171.321 187.486 171.063 187.486Z" fill="#FBFBF5"/>
<path d="M102.628 291.914C88.204 291.914 74.6415 286.318 64.4449 276.162C54.2482 266.005 48.6298 252.497 48.6298 238.13C48.6298 223.763 54.2482 210.254 64.4449 200.098C74.6415 189.941 88.204 184.345 102.628 184.345C117.051 184.345 130.614 189.941 140.811 200.098C151.007 210.254 156.626 223.763 156.626 238.13C156.626 252.497 151.007 265.999 140.811 276.162C130.614 286.318 117.051 291.914 102.628 291.914ZM102.628 186.16C88.6876 186.16 75.589 191.565 65.7302 201.385C55.8781 211.198 50.4452 224.251 50.4452 238.136C50.4452 252.021 55.8714 265.068 65.7302 274.888C75.589 284.701 88.6876 290.113 102.628 290.113C116.568 290.113 129.666 284.708 139.525 274.888C149.377 265.068 154.81 252.021 154.81 238.136C154.81 224.251 149.384 211.204 139.525 201.385C129.673 191.565 116.568 186.16 102.628 186.16ZM102.628 284.86C90.0989 284.86 78.3187 279.996 69.4604 271.173C60.6021 262.349 55.7191 250.616 55.7191 238.136C55.7191 225.657 60.5954 213.923 69.4604 205.1C78.3187 196.277 90.0989 191.413 102.628 191.413C115.157 191.413 126.937 196.27 135.795 205.1C144.653 213.93 149.536 225.657 149.536 238.136C149.536 250.616 144.66 262.349 135.795 271.173C126.937 279.996 115.157 284.86 102.628 284.86ZM102.628 193.221C90.5825 193.221 79.2595 197.894 70.7457 206.38C62.2319 214.861 57.5411 226.145 57.5411 238.136C57.5411 250.127 62.2319 261.412 70.7457 269.892C79.2595 278.379 90.5892 283.045 102.628 283.051C114.673 283.051 125.996 278.379 134.51 269.892C143.024 261.412 147.714 250.127 147.714 238.136C147.714 226.145 143.024 214.861 134.51 206.38C125.989 197.9 114.666 193.221 102.628 193.221Z" fill="#1681FF"/>
<path d="M130.468 268.137L129.236 266.804C129.713 266.368 130.084 266.012 130.355 265.741C137.06 259.063 141.102 250.187 141.745 240.743L143.56 240.869C142.891 250.748 138.664 260.04 131.647 267.028C131.363 267.312 130.972 267.682 130.475 268.137H130.468Z" fill="#FBFBF5"/>
<path d="M127.109 264.521L125.877 263.188C126.109 262.976 126.433 262.66 126.844 262.25C132.714 256.403 136.252 248.649 136.809 240.42C137.365 232.177 134.901 224.02 129.872 217.448L131.316 216.352C136.61 223.275 139.207 231.86 138.624 240.539C138.041 249.21 134.311 257.374 128.129 263.531C127.699 263.96 127.354 264.29 127.109 264.521Z" fill="#FBFBF5"/>
<path d="M64.2196 285.394C63.981 285.394 63.7492 285.302 63.5769 285.13L55.4408 277.026C55.083 276.67 55.083 276.102 55.4408 275.746L60.5623 270.645C60.7412 270.467 60.9929 270.368 61.2447 270.381C61.4965 270.394 61.735 270.513 61.9006 270.704C61.9205 270.724 63.8883 273.06 65.6176 274.756C67.3601 276.459 69.9374 278.643 69.9639 278.663C70.156 278.828 70.2753 279.066 70.2819 279.316C70.2885 279.567 70.1958 279.811 70.0169 279.996L64.8556 285.137C64.6834 285.308 64.4515 285.401 64.2129 285.401L64.2196 285.394ZM57.3688 276.386L64.2196 283.21L68.0425 279.402C67.1282 278.617 65.5645 277.238 64.3455 276.05C63.1529 274.888 61.894 273.469 61.1519 272.618L57.3688 276.386Z" fill="#1681FF"/>
<path d="M58.939 298.428C58.7071 298.428 58.4753 298.342 58.2964 298.164L42.3554 282.293C41.9976 281.936 41.9976 281.362 42.3554 281.012L51.545 271.859C51.9027 271.503 52.4725 271.503 52.8303 271.859L68.7713 287.737C69.1291 288.093 69.1291 288.661 68.7713 289.017L59.5817 298.171C59.4028 298.349 59.1709 298.435 58.939 298.435V298.428ZM44.2834 281.646L58.939 296.244L66.8433 288.371L52.1876 273.773L44.2834 281.646Z" fill="#1681FF"/>
<path d="M12.9977 339.528C9.73795 339.528 6.67696 338.275 4.38453 335.991C2.0921 333.708 0.833252 330.666 0.833252 327.412C0.833252 324.165 2.0921 321.116 4.38453 318.833L42.362 281.006C42.6999 280.669 43.3094 280.669 43.6473 281.006L59.5817 296.884C59.9395 297.24 59.9395 297.807 59.5817 298.164L21.6042 335.991C19.3118 338.275 16.2575 339.528 12.9911 339.528H12.9977ZM43.0047 282.933L5.6765 320.12C3.7286 322.06 2.65527 324.654 2.65527 327.419C2.65527 330.184 3.7286 332.777 5.6765 334.718C7.62441 336.658 10.2282 337.727 13.0043 337.727C15.7804 337.727 18.3842 336.658 20.3321 334.718L57.6669 297.53L43.0113 282.933H43.0047Z" fill="#1681FF"/>
<path d="M285.315 15.4054L284.641 29.1486L286.454 29.2369L287.129 15.4937L285.315 15.4054Z" fill="#FBFBF5"/>
<path d="M308.887 36.9096C308.668 36.9096 308.449 36.8304 308.277 36.672L291.091 21.091C290.839 20.8666 290.733 20.5169 290.826 20.1869C290.912 19.8635 291.177 19.6062 291.508 19.5336L344.817 7.75376C345.234 7.66137 345.658 7.87254 345.837 8.25531C346.016 8.63807 345.903 9.10002 345.566 9.35739L309.45 36.7182C309.284 36.8436 309.092 36.903 308.9 36.903L308.887 36.9096ZM293.602 20.9326L308.933 34.8308L341.153 10.4265L293.602 20.9326Z" fill="#FBFBF5"/>
<path d="M286.194 16.3527C285.969 16.3527 285.75 16.2669 285.585 16.1151L270.3 2.26313C270.008 1.99916 269.922 1.5834 270.081 1.22704C270.24 0.870672 270.611 0.652895 270.995 0.692491L345.089 7.74718C345.552 7.79337 345.904 8.17613 345.91 8.63809C345.91 9.10004 345.566 9.4894 345.108 9.54879L286.3 16.3461C286.267 16.3461 286.227 16.3461 286.194 16.3461V16.3527ZM273.54 2.75148L286.499 14.4983L336.363 8.73708L273.54 2.75148Z" fill="#FBFBF5"/>
<path d="M285.525 30.0925C285.247 30.0925 284.975 29.9605 284.803 29.7295C284.564 29.4193 284.558 28.9838 284.783 28.667L290.951 19.9097C291.104 19.6985 291.336 19.5599 291.594 19.5269C291.852 19.5005 292.111 19.5797 292.303 19.7579L297.584 24.5622C297.822 24.78 297.928 25.1034 297.862 25.4135C297.796 25.7237 297.57 25.9811 297.272 26.0867L285.823 30.0397C285.724 30.0727 285.624 30.0925 285.525 30.0925ZM291.846 21.7905L287.884 27.4131L295.231 24.8724L291.839 21.7839L291.846 21.7905Z" fill="#FBFBF5"/>
<path d="M440.662 339.997C440.609 339.997 440.549 339.997 440.496 339.984C440.132 339.918 439.84 339.634 439.774 339.265L430.624 292.363C430.558 292.02 430.697 291.664 430.982 291.459C431.273 291.254 431.651 291.235 431.962 291.406L473.677 314.992C474.001 315.177 474.18 315.54 474.127 315.903C474.074 316.273 473.802 316.57 473.445 316.655L459.087 320.146L466.707 330.699C466.846 330.897 466.905 331.134 466.866 331.372C466.826 331.609 466.693 331.821 466.501 331.959L458.219 337.892C457.808 338.182 457.245 338.09 456.954 337.687L449.334 327.128L441.443 339.575C441.271 339.839 440.98 339.997 440.675 339.997H440.662ZM432.777 293.947L441.112 336.678L448.506 325.03C448.665 324.779 448.944 324.621 449.248 324.607C449.553 324.594 449.838 324.739 450.01 324.984L457.888 335.892L464.699 331.015L456.821 320.107C456.642 319.863 456.603 319.546 456.709 319.262C456.815 318.978 457.053 318.767 457.345 318.694L470.788 315.428L432.777 293.94V293.947Z" fill="#FBFBF5"/>
<path fill-rule="evenodd" clip-rule="evenodd" d="M423.594 236.467C424.873 234.975 426.45 233.801 428.199 232.996C429.948 232.19 431.869 231.762 433.837 231.762C437.316 231.762 440.503 233.081 442.908 235.266C445.034 237.193 446.545 239.799 447.095 242.769C447.307 242.703 447.519 242.644 447.738 242.591C448.341 242.452 448.957 242.38 449.58 242.38C451.759 242.38 453.727 243.258 455.158 244.683C456.589 246.108 457.471 248.068 457.471 250.24C457.471 252.411 456.609 254.311 455.218 255.737C453.826 257.156 451.898 258.047 449.752 258.093H449.732L390.288 258.08C388.36 258.08 386.471 258.251 384.649 258.416C382.894 258.575 381.198 258.733 379.601 258.733C375.447 258.733 371.677 257.05 368.954 254.338C366.231 251.625 364.541 247.87 364.541 243.733C364.541 239.595 366.224 235.84 368.954 233.128C371.683 230.415 375.447 228.732 379.601 228.732C381.396 228.732 383.159 229.056 384.815 229.663C386.471 230.27 388.022 231.174 389.387 232.336L388.207 233.708C387.008 232.685 385.65 231.894 384.192 231.359C382.735 230.824 381.184 230.541 379.601 230.541C375.944 230.541 372.637 232.019 370.239 234.401C367.841 236.79 366.363 240.083 366.363 243.726C366.363 247.369 367.847 250.669 370.239 253.051C372.637 255.44 375.944 256.912 379.601 256.912C381.191 256.912 382.808 256.766 384.484 256.615C386.346 256.45 388.274 256.271 390.281 256.271L449.712 256.285C451.362 256.252 452.846 255.559 453.919 254.47C454.986 253.381 455.649 251.889 455.649 250.24C455.649 248.59 454.973 247.059 453.873 245.963C452.773 244.868 451.256 244.195 449.58 244.195C449.096 244.195 448.619 244.254 448.148 244.36C447.665 244.472 447.201 244.637 446.757 244.855L445.584 245.416L445.458 244.122C445.174 241.126 443.769 238.493 441.689 236.605C439.608 234.718 436.852 233.576 433.837 233.576C432.128 233.576 430.472 233.946 428.961 234.639C427.45 235.332 426.085 236.355 424.979 237.642L423.601 236.467H423.594Z" fill="#FBFBF5"/>
<path fill-rule="evenodd" clip-rule="evenodd" d="M387.836 243.884C387.604 243.013 387.426 242.116 387.3 241.205C387.18 240.288 387.114 239.377 387.114 238.48C387.114 232.712 389.46 227.498 393.256 223.717C397.046 219.942 402.287 217.606 408.077 217.606C412.973 217.606 417.538 219.295 421.163 222.179C424.78 225.057 427.444 229.128 428.517 233.886L426.748 234.282C425.761 229.934 423.329 226.218 420.03 223.585C416.73 220.958 412.556 219.414 408.077 219.414C402.79 219.414 398.006 221.546 394.541 224.997C391.076 228.449 388.936 233.213 388.936 238.48C388.936 239.331 388.989 240.162 389.095 240.968C389.201 241.779 389.367 242.598 389.585 243.416L387.836 243.884Z" fill="#FBFBF5"/>
<path fill-rule="evenodd" clip-rule="evenodd" d="M383.212 245.937C384.404 244.749 385.822 243.812 387.366 243.178C388.903 242.545 390.566 242.208 392.255 242.208C393.945 242.208 395.608 242.545 397.145 243.178C398.689 243.812 400.1 244.749 401.299 245.937L400.014 247.217C398.98 246.188 397.768 245.389 396.456 244.848C395.138 244.307 393.713 244.016 392.255 244.016C390.798 244.016 389.367 244.3 388.055 244.848C386.743 245.389 385.531 246.188 384.497 247.217L383.212 245.937Z" fill="#FBFBF5"/>
</g>
<defs>
<clipPath id="clip0_60_405">
<rect x="0.918396" y="0.686035" width="492.92" height="345.165" rx="12" fill="white"/>
</clipPath>
</defs>
</svg>
