<?xml version="1.0" encoding="UTF-8"?>
<svg id="Layer_2" data-name="Layer 2" xmlns="http://www.w3.org/2000/svg" viewBox="0 0 1783.99 1710.29">
  <defs>
    <style>
      .cls-1 {
        fill: #fbab18;
      }

      .cls-2 {
        fill: #008cce;
      }

      .cls-3 {
        fill: #1c75bc;
      }

      .cls-4 {
        fill: #f6871f;
      }
    </style>
  </defs>
  <g id="Layer_1-2" data-name="Layer 1">
    <g id="Isolation_Mode" data-name="Isolation Mode">
      <g>
        <path class="cls-3" d="m1783.99,849.57s-.19,2.43-.55,7.13c-.18,2.35-.39,5.27-.65,8.74-.14,1.8-.29,3.73-.45,5.81-.2,2.38-.41,4.91-.64,7.6-.23,2.69-.48,5.54-.74,8.54-.13,1.5-.27,3.04-.41,4.61-.07.78-.13,1.6-.22,2.37-.09.76-.18,1.54-.26,2.32-.71,6.25-1.48,13.06-2.32,20.43-1.02,7.35-2.05,15.25-3.29,23.64-.67,4.19-1.36,8.52-2.07,12.97-.36,2.22-.72,4.48-1.09,6.77-.42,2.28-.84,4.59-1.27,6.94-.87,4.68-1.76,9.49-2.68,14.41-1.02,4.91-2.06,9.93-3.13,15.08-.54,2.57-1.08,5.17-1.63,7.8-.61,2.62-1.23,5.26-1.85,7.94-.63,2.67-1.26,5.38-1.9,8.11-.65,2.73-1.26,5.49-2.01,8.26-5.58,22.21-12.42,46-20.89,70.99-1.06,3.12-2.13,6.27-3.2,9.44-1.15,3.15-2.3,6.32-3.47,9.51-1.16,3.19-2.33,6.41-3.51,9.65-1.18,3.24-2.5,6.46-3.75,9.72-1.28,3.25-2.56,6.53-3.86,9.83-1.27,3.31-2.73,6.57-4.09,9.9-1.39,3.31-2.78,6.65-4.19,10.01-1.39,3.36-2.95,6.68-4.43,10.06-1.51,3.36-3.02,6.75-4.55,10.15-1.54,3.4-3.2,6.77-4.8,10.19-1.62,3.41-3.25,6.84-4.89,10.29-1.72,3.41-3.45,6.84-5.18,10.29-1.76,3.44-3.46,6.93-5.29,10.38-1.84,3.44-3.69,6.91-5.56,10.39-3.65,7-7.66,13.9-11.61,20.92-1,1.75-1.97,3.52-3,5.26-1.04,1.74-2.08,3.48-3.12,5.23-2.08,3.49-4.18,7-6.29,10.53-2.11,3.52-4.36,6.99-6.55,10.51-2.22,3.5-4.39,7.06-6.69,10.55-2.31,3.49-4.63,6.99-6.96,10.51-1.17,1.76-2.34,3.52-3.51,5.29-1.21,1.74-2.42,3.49-3.63,5.24-2.43,3.49-4.87,7-7.32,10.53-2.46,3.52-5.05,6.96-7.59,10.47-10.16,14.02-21.07,27.82-32.33,41.66-2.88,3.41-5.77,6.83-8.66,10.26-1.45,1.71-2.9,3.43-4.36,5.15-1.49,1.69-2.99,3.38-4.49,5.08-2.99,3.39-6,6.79-9.02,10.21-3.09,3.34-6.19,6.7-9.3,10.07-24.94,26.9-52.38,52.74-81.78,77.44-7.46,6.05-14.85,12.26-22.57,18.14-3.84,2.96-7.63,6-11.55,8.9-3.91,2.9-7.83,5.82-11.76,8.73-1.95,1.47-3.95,2.9-5.96,4.3-2,1.42-4.01,2.83-6.02,4.25-4.02,2.83-8.02,5.7-12.15,8.42-4.1,2.75-8.21,5.5-12.33,8.27-4.18,2.67-8.36,5.35-12.55,8.04-67.32,42.56-142.68,77.33-222.79,100.82-40.03,11.77-81.22,20.72-122.96,26.71-5.22.71-10.45,1.43-15.67,2.14-5.24.63-10.48,1.18-15.73,1.77-2.62.28-5.24.6-7.87.84l-7.89.68c-5.26.42-10.52.96-15.79,1.28l-15.82.99c-2.64.19-5.27.28-7.92.38l-7.92.29-7.92.29c-2.64.11-5.28.09-7.92.13l-16.73.17-14.58-.2-3.64-.04-1.82-.02c-.58,0-1.34-.04-2.01-.06l-8.24-.29-8.24-.3-4.12-.16c-1.38-.05-2.65-.15-3.99-.23l-15.82-.99c-2.64-.14-5.27-.39-7.9-.62l-7.89-.69-7.89-.7c-2.63-.25-5.25-.58-7.87-.86-5.24-.59-10.49-1.15-15.73-1.78-5.23-.71-10.45-1.43-15.67-2.14-20.85-3.07-41.61-6.68-62.1-11.23-20.5-4.5-40.83-9.57-60.82-15.57l-7.51-2.18-7.45-2.35c-4.96-1.59-9.94-3.09-14.85-4.76-4.91-1.69-9.82-3.38-14.72-5.06-2.46-.82-4.89-1.73-7.31-2.63l-7.28-2.7-7.27-2.7c-2.42-.91-4.8-1.89-7.2-2.83-4.79-1.91-9.59-3.79-14.35-5.74-9.46-4.04-18.94-7.98-28.22-12.31-9.36-4.15-18.48-8.72-27.66-13.11-4.53-2.32-9.05-4.63-13.56-6.94-2.25-1.17-4.52-2.29-6.74-3.5-2.22-1.21-4.44-2.41-6.66-3.62-17.8-9.57-35.08-19.8-51.92-30.42-4.19-2.69-8.38-5.37-12.55-8.04-4.11-2.77-8.22-5.53-12.31-8.28-4.12-2.72-8.13-5.58-12.15-8.41-2.01-1.42-4.01-2.83-6.02-4.25-2.01-1.41-4-2.83-5.96-4.3-3.93-2.92-7.85-5.83-11.76-8.73-1.97-1.44-3.88-2.94-5.8-4.43-1.92-1.49-3.83-2.99-5.74-4.47-7.7-5.89-15.1-12.08-22.56-18.14-3.68-3.08-7.29-6.22-10.93-9.32-1.81-1.55-3.62-3.11-5.43-4.65-1.77-1.59-3.54-3.17-5.31-4.76-3.53-3.17-7.06-6.34-10.57-9.5-3.45-3.23-6.88-6.45-10.31-9.66-1.71-1.61-3.41-3.22-5.12-4.83-1.67-1.64-3.34-3.28-5-4.92-3.32-3.28-6.64-6.55-9.94-9.81-3.23-3.33-6.45-6.65-9.66-9.96-1.6-1.66-3.22-3.29-4.8-4.97-1.56-1.68-3.13-3.37-4.68-5.04-3.11-3.37-6.21-6.72-9.31-10.06-3.02-3.41-6.02-6.81-9.02-10.2-1.5-1.7-2.99-3.39-4.48-5.08-1.45-1.72-2.9-3.44-4.35-5.16-2.9-3.43-5.79-6.85-8.66-10.26-11.28-13.82-22.17-27.63-32.32-41.64-20.45-27.92-38.69-56.08-54.66-84.07-32.07-55.92-55.52-110.72-72.43-160.66-8.49-24.97-15.33-48.76-20.93-70.96-.75-2.77-1.37-5.53-2.02-8.26-.64-2.73-1.28-5.43-1.91-8.1-.63-2.67-1.25-5.32-1.86-7.94-.55-2.63-1.1-5.23-1.64-7.8-1.07-5.15-2.12-10.17-3.13-15.08-.92-4.93-1.82-9.73-2.7-14.41-.43-2.34-.86-4.65-1.27-6.93-.37-2.29-.73-4.54-1.09-6.77-.71-4.45-1.41-8.77-2.08-12.97-1.24-8.4-2.29-16.29-3.31-23.64-.84-7.37-1.62-14.19-2.33-20.43-.39-3.13-.61-6.11-.89-8.96-.26-2.84-.51-5.54-.74-8.09-.23-2.55-.45-4.95-.65-7.21-.2-2.25-.32-4.35-.46-6.3-.27-3.9-.5-7.18-.68-9.82-.37-5.29-.56-8.02-.56-8.02h200s-.13,2.13-.38,6.26c-.12,2.07-.28,4.63-.46,7.68-.08,1.53-.23,3.18-.27,4.94-.05,1.77-.1,3.65-.16,5.65-.06,2-.12,4.12-.19,6.36-.05,2.24-.18,4.59-.16,7.05,0,4.93,0,10.32,0,16.13.18,5.81.27,12.07.54,18.75.19,3.33.38,6.77.58,10.31.1,1.77.2,3.57.3,5.4.15,1.82.29,3.66.44,5.53.3,3.74.61,7.59.93,11.53.37,3.94.87,7.96,1.31,12.09.23,2.07.46,4.16.69,6.27.29,2.1.58,4.23.88,6.39.3,2.15.59,4.33.89,6.53.31,2.2.58,4.44.97,6.67.73,4.48,1.48,9.06,2.23,13.72.84,4.65,1.8,9.37,2.72,14.19.87,4.84,2.06,9.69,3.12,14.67.56,2.48,1.06,5,1.67,7.52.62,2.51,1.24,5.05,1.87,7.6,10.08,40.86,25.58,86.23,48.57,133.2.72,1.47,1.4,2.96,2.15,4.42.75,1.46,1.5,2.92,2.26,4.39,1.51,2.94,3.03,5.89,4.56,8.86,1.53,2.97,3.19,5.88,4.79,8.85,1.63,2.95,3.2,5.96,4.9,8.91,1.71,2.95,3.42,5.91,5.14,8.89.86,1.49,1.73,2.98,2.59,4.47.9,1.47,1.81,2.95,2.72,4.43,1.82,2.96,3.64,5.93,5.47,8.92,1.83,2.99,3.8,5.91,5.71,8.89,7.61,11.93,15.98,23.65,24.59,35.49,2.21,2.92,4.44,5.84,6.66,8.78,1.12,1.47,2.24,2.94,3.36,4.41,1.16,1.44,2.32,2.89,3.48,4.34,2.32,2.9,4.66,5.82,7,8.74,2.41,2.87,4.83,5.75,7.25,8.63,1.21,1.45,2.43,2.89,3.65,4.34,1.23,1.44,2.5,2.84,3.76,4.27,2.52,2.84,5.05,5.7,7.59,8.56,2.6,2.8,5.22,5.62,7.84,8.44,1.31,1.41,2.62,2.83,3.94,4.24,1.35,1.38,2.7,2.77,4.05,4.16,2.71,2.78,5.42,5.56,8.15,8.36,2.8,2.72,5.6,5.45,8.41,8.19,1.41,1.37,2.82,2.74,4.23,4.11,1.45,1.34,2.89,2.68,4.34,4.02,2.9,2.68,5.81,5.37,8.73,8.07,23.65,21.22,49.19,41.48,76.65,59.95,54.81,37.07,116.97,67.5,183.53,88.09,16.61,5.24,33.55,9.63,50.64,13.61,4.28.96,8.57,1.91,12.85,2.87,4.31.84,8.63,1.69,12.95,2.53,4.31.9,8.66,1.55,13.01,2.31,4.35.72,8.68,1.54,13.06,2.11,17.44,2.75,35.05,4.51,52.71,5.93l13.27.86c1.09.06,2.24.16,3.29.2l3.16.12,6.33.25,6.33.26c.55.02,1,.05,1.63.06l1.82.03,3.64.05,14.58.17c-1.49-.02.06-.01-.05-.02h.83s1.66-.04,1.66-.04l3.33-.05,6.66-.09c2.22-.05,4.44-.02,6.66-.12l6.65-.27,6.65-.26c2.22-.08,4.43-.16,6.64-.33l13.27-.86c2.21-.11,4.42-.34,6.62-.54l6.61-.61,6.61-.61c2.2-.21,4.39-.51,6.59-.76,4.39-.52,8.78-1.05,13.16-1.57,4.37-.63,8.74-1.26,13.11-1.89,4.38-.57,8.71-1.39,13.06-2.11,4.34-.75,8.69-1.42,13-2.33,4.32-.85,8.63-1.71,12.94-2.56,4.29-.96,8.57-1.91,12.85-2.87,17.09-3.96,34.02-8.37,50.62-13.65l6.24-1.91,6.18-2.07c4.11-1.4,8.25-2.7,12.33-4.17,4.07-1.47,8.14-2.95,12.21-4.42,2.04-.72,4.05-1.51,6.05-2.31l6.02-2.37,6.02-2.36c2-.8,3.97-1.67,5.95-2.49,3.96-1.68,7.93-3.32,11.86-5.02,7.81-3.55,15.65-6.96,23.28-10.76,7.72-3.62,15.21-7.63,22.76-11.46,3.72-2.03,7.43-4.05,11.13-6.06,1.85-1.02,3.72-1.99,5.54-3.05l5.46-3.16,5.45-3.15c1.82-1.04,3.63-2.1,5.4-3.21,3.57-2.19,7.13-4.37,10.69-6.55,3.56-2.17,7.01-4.51,10.51-6.74,1.74-1.13,3.49-2.25,5.23-3.38,1.73-1.14,3.43-2.33,5.14-3.49,3.41-2.33,6.82-4.66,10.22-6.98,3.34-2.41,6.67-4.81,9.99-7.21,3.35-2.36,6.58-4.86,9.83-7.32,1.62-1.23,3.25-2.46,4.87-3.69,1.63-1.22,3.24-2.45,4.82-3.73,3.17-2.53,6.34-5.05,9.5-7.57,1.59-1.24,3.13-2.55,4.67-3.84,1.54-1.3,3.08-2.59,4.62-3.88,6.21-5.09,12.1-10.5,18.09-15.71,2.92-2.69,5.83-5.38,8.73-8.06,1.45-1.34,2.9-2.68,4.34-4.01,1.41-1.37,2.82-2.75,4.22-4.12,2.81-2.74,5.61-5.47,8.4-8.2,2.72-2.79,5.44-5.57,8.15-8.35,1.35-1.39,2.7-2.77,4.05-4.16,1.32-1.42,2.63-2.83,3.94-4.24,2.62-2.82,5.23-5.63,7.83-8.43,2.53-2.87,5.05-5.72,7.57-8.57,1.25-1.43,2.53-2.83,3.76-4.27,1.22-1.45,2.43-2.9,3.65-4.34,2.43-2.88,4.85-5.76,7.26-8.62,2.34-2.92,4.67-5.83,7-8.73,1.16-1.45,2.32-2.9,3.47-4.34,1.12-1.47,2.23-2.95,3.35-4.42,2.23-2.93,4.45-5.86,6.67-8.77,8.63-11.82,16.98-23.55,24.59-35.47,15.41-23.71,28.85-47.5,40.29-70.98,22.99-46.94,38.51-92.28,48.61-133.12.63-2.55,1.26-5.08,1.88-7.59.61-2.51,1.12-5.03,1.68-7.51,1.06-4.98,2.26-9.82,3.13-14.66.91-4.82,1.91-9.53,2.72-14.19.76-4.66,1.51-9.23,2.25-13.71.4-2.23.67-4.46.98-6.66.3-2.2.61-4.38.9-6.53.3-2.15.6-4.28.89-6.38.24-2.11.47-4.2.7-6.27.46-4.13.94-8.15,1.32-12.09.32-3.94.64-7.79.95-11.53.15-1.87.3-3.71.45-5.53.1-1.82.2-3.62.3-5.39.2-3.54.4-6.98.59-10.31.26-6.68.37-12.94.55-18.75.01-5.82.02-11.2.03-16.13,0-.62,0-1.22,0-1.83,0-.6-.03-1.13-.05-1.68-.04-1.09-.07-2.16-.11-3.2-.07-2.08-.13-4.05-.19-5.92-.05-1.86-.11-3.61-.15-5.25-.01-.74-.07-1.79-.12-2.72-.05-.94-.09-1.84-.13-2.71-.17-3.48-.32-6.4-.43-8.76-.25-4.71-.37-7.14-.37-7.14l199.98,2.53Z"/>
        <path class="cls-4" d="m0,847.04s1.08-10.18,3.1-29.27c.29-2.68.61-5.52.94-8.52.17-1.49.34-3.03.51-4.6.09-.78.17-1.6.28-2.36.11-.76.21-1.53.32-2.31.85-6.23,1.78-13.02,2.78-20.37,1.18-7.32,2.4-15.18,3.83-23.54.76-4.17,1.55-8.47,2.36-12.9.41-2.21.82-4.45,1.24-6.73.46-2.27.93-4.57,1.41-6.9.96-4.65,1.95-9.43,2.96-14.32,1.11-4.87,2.26-9.87,3.43-14.98.59-2.55,1.19-5.13,1.79-7.74.66-2.6,1.34-5.22,2.01-7.88,1.4-5.3,2.67-10.74,4.21-16.23,5.94-22.03,13.28-45.56,22.07-70.28,17.63-49.4,41.78-103.45,74.31-158.47,1.02-1.72,2-3.46,3.05-5.17,1.05-1.71,2.11-3.42,3.17-5.14,2.11-3.43,4.23-6.89,6.36-10.35,2.14-3.46,4.41-6.87,6.62-10.33,2.25-3.44,4.44-6.93,6.76-10.36,2.33-3.42,4.68-6.86,7.03-10.32,1.18-1.73,2.35-3.46,3.53-5.19,1.22-1.71,2.44-3.42,3.66-5.14,2.45-3.43,4.91-6.87,7.38-10.33,2.47-3.45,5.09-6.83,7.64-10.27,10.23-13.74,21.16-27.3,32.46-40.85,2.88-3.34,5.78-6.69,8.68-10.05,1.45-1.68,2.91-3.36,4.37-5.05,1.49-1.66,2.99-3.32,4.48-4.98,2.99-3.32,6-6.65,9.02-9.99,3.09-3.27,6.19-6.56,9.3-9.85,24.9-26.34,52.26-51.59,81.47-75.75,7.41-5.91,14.75-11.98,22.42-17.71,3.82-2.88,7.56-5.88,11.46-8.7,3.88-2.84,7.77-5.68,11.67-8.53,1.94-1.44,3.92-2.83,5.91-4.2,1.99-1.38,3.98-2.76,5.97-4.15,3.99-2.76,7.96-5.57,12.05-8.21,4.06-2.69,8.13-5.38,12.21-8.07,4.13-2.61,8.28-5.23,12.43-7.85,66.64-41.55,141.04-75.37,219.96-98.28,39.43-11.53,80-20.15,121.08-26.05,5.14-.69,10.28-1.39,15.43-2.08,5.16-.61,10.32-1.15,15.48-1.72,2.58-.27,5.16-.59,7.75-.82l7.77-.66,7.77-.68c2.59-.22,5.18-.47,7.77-.6l15.57-.96c2.59-.18,5.19-.27,7.79-.37l7.79-.29,7.8-.28c2.6-.1,5.2-.08,7.8-.13l15.6-.17,15.29.16,3.64.04,1.82.02c.59,0,1.32.04,1.97.06l8.05.28,8.05.29,4.03.15c1.35.05,2.61.15,3.92.22l15.57.96c2.6.14,5.18.38,7.77.6l7.77.68,7.77.66c2.59.23,5.17.55,7.75.82,5.16.57,10.33,1.11,15.48,1.72,5.15.69,10.29,1.39,15.43,2.08,41.08,5.9,81.65,14.52,121.08,26.05,78.92,22.91,153.31,56.74,219.96,98.28,4.15,2.62,8.29,5.24,12.43,7.85,4.08,2.7,8.15,5.39,12.21,8.07,4.09,2.65,8.06,5.45,12.05,8.21,1.99,1.38,3.98,2.77,5.97,4.15,1.99,1.37,3.97,2.76,5.91,4.2,3.9,2.85,7.79,5.69,11.67,8.53,3.89,2.82,7.64,5.82,11.46,8.7,7.67,5.73,15.01,11.8,22.42,17.71,29.21,24.16,56.57,49.41,81.47,75.75,3.11,3.3,6.21,6.58,9.3,9.85,3.02,3.34,6.02,6.67,9.02,9.99,1.5,1.66,2.99,3.32,4.48,4.98,1.46,1.69,2.91,3.37,4.37,5.05,2.91,3.36,5.8,6.71,8.68,10.05,11.3,13.55,22.23,27.1,32.46,40.85,2.55,3.44,5.17,6.82,7.64,10.27,2.47,3.46,4.93,6.9,7.38,10.33,1.22,1.72,2.44,3.43,3.66,5.14,1.18,1.73,2.36,3.47,3.53,5.19,2.35,3.46,4.7,6.89,7.03,10.32,2.32,3.43,4.52,6.92,6.76,10.36,2.21,3.46,4.49,6.86,6.62,10.33,2.13,3.47,4.25,6.92,6.36,10.35,1.06,1.72,2.11,3.43,3.17,5.14,1.05,1.71,2.03,3.45,3.05,5.17,32.53,55.02,56.68,109.07,74.31,158.47,8.8,24.72,16.14,48.25,22.07,70.28,1.54,5.5,2.81,10.93,4.21,16.23.68,2.65,1.35,5.28,2.01,7.88.6,2.61,1.2,5.19,1.79,7.74,1.17,5.11,2.31,10.11,3.43,14.98,1.01,4.9,2,9.67,2.96,14.32.47,2.33.94,4.63,1.41,6.9.42,2.27.83,4.52,1.24,6.73.81,4.43,1.59,8.73,2.36,12.9,1.43,8.36,2.64,16.22,3.83,23.54,1,7.35,1.93,14.14,2.78,20.37.47,3.12.75,6.1,1.1,8.94.33,2.84.63,5.53.93,8.08.59,5.09,1.1,9.6,1.44,13.49.37,3.9.68,7.17.92,9.81.51,5.29.77,8.02.77,8.02h-200s.2-2.13.59-6.26c.19-2.07.42-4.64.7-7.69.13-1.53.33-3.18.42-4.95.1-1.77.21-3.66.33-5.66.12-2.01.25-4.13.38-6.38.12-2.24.32-4.61.37-7.08.13-4.95.28-10.36.44-16.2-.02-5.84.06-12.13-.02-18.85-.1-3.36-.2-6.82-.31-10.38-.05-1.79-.1-3.6-.15-5.43-.08-1.83-.21-3.69-.31-5.57-.22-3.77-.44-7.65-.67-11.62-.28-3.97-.67-8.03-1.02-12.19-.18-2.08-.36-4.19-.54-6.33-.24-2.12-.48-4.27-.73-6.45-.25-2.18-.5-4.37-.75-6.6-.26-2.22-.49-4.48-.83-6.73-.64-4.53-1.29-9.15-1.96-13.86-.73-4.7-1.6-9.47-2.41-14.36-.4-2.44-.82-4.91-1.34-7.37-.49-2.47-.98-4.97-1.47-7.48-.52-2.51-.98-5.06-1.55-7.61-.58-2.54-1.16-5.11-1.74-7.7-9.36-41.4-24.16-87.51-46.69-135.38-11.2-23.95-24.46-48.24-39.75-72.48-7.54-12.2-15.87-24.18-24.46-36.29-2.21-2.98-4.42-5.98-6.65-8.98-1.11-1.5-2.23-3.01-3.34-4.52-1.16-1.48-2.32-2.96-3.48-4.44-2.32-2.97-4.66-5.95-7-8.94-2.41-2.94-4.83-5.88-7.26-8.84-1.21-1.48-2.43-2.96-3.65-4.45-1.23-1.47-2.51-2.91-3.76-4.38-2.52-2.92-5.05-5.84-7.59-8.78-2.61-2.87-5.24-5.75-7.87-8.64-1.32-1.45-2.64-2.89-3.96-4.34-1.35-1.42-2.71-2.84-4.07-4.27-2.72-2.85-5.45-5.7-8.19-8.56-2.81-2.8-5.62-5.6-8.45-8.41-1.42-1.4-2.84-2.81-4.26-4.21-1.46-1.37-2.91-2.74-4.37-4.12-2.92-2.75-5.85-5.51-8.79-8.27-23.8-21.8-49.61-42.57-77.38-61.57-55.44-38.1-118.55-69.48-186.28-90.67-16.88-5.46-34.14-9.92-51.53-14.04-17.38-4.19-35.05-7.36-52.81-10.14-4.45-.65-8.9-1.3-13.35-1.94-4.47-.54-8.94-1.08-13.41-1.62-2.24-.26-4.47-.56-6.71-.78l-6.73-.62-6.74-.61c-2.25-.2-4.49-.43-6.74-.55l-13.51-.88c-1.12-.07-2.28-.17-3.36-.2l-3.26-.13-6.52-.26-6.52-.27c-.56-.02-1.04-.06-1.67-.06l-1.82-.03-3.64-.05-13.87-.2-13.56.2c-2.26.05-4.52.03-6.78.13l-6.77.27-6.77.27c-2.26.08-4.51.17-6.77.34l-13.51.88c-2.25.12-4.5.35-6.74.55l-6.74.61-6.73.62c-2.24.22-4.48.53-6.71.78-4.47.54-8.94,1.08-13.41,1.62-4.45.65-8.9,1.3-13.35,1.94-17.76,2.78-35.43,5.96-52.81,10.14-17.39,4.11-34.65,8.58-51.53,14.04-67.73,21.19-130.83,52.56-186.28,90.67-27.77,19-53.57,39.77-77.38,61.57-2.94,2.77-5.87,5.52-8.79,8.27-1.46,1.37-2.92,2.75-4.37,4.12-1.42,1.41-2.84,2.81-4.26,4.21-2.82,2.81-5.64,5.62-8.45,8.41-2.74,2.86-5.47,5.72-8.19,8.56-1.36,1.42-2.71,2.85-4.07,4.27-1.32,1.45-2.64,2.9-3.96,4.34-2.63,2.89-5.25,5.77-7.87,8.64-2.54,2.94-5.07,5.86-7.59,8.78-1.25,1.46-2.53,2.9-3.76,4.38-1.22,1.48-2.44,2.97-3.65,4.45-2.43,2.96-4.85,5.9-7.26,8.84-2.34,2.99-4.67,5.97-7,8.94-1.16,1.48-2.32,2.96-3.48,4.44-1.12,1.51-2.23,3.02-3.34,4.52-2.22,3.01-4.44,6-6.65,8.98-8.59,12.11-16.92,24.08-24.46,36.29-15.29,24.25-28.55,48.53-39.75,72.48-22.52,47.87-37.33,93.99-46.69,135.38-.59,2.59-1.17,5.15-1.75,7.7-.57,2.55-1.03,5.1-1.55,7.61-.5,2.52-.99,5.01-1.47,7.48-.51,2.46-.93,4.93-1.34,7.37-.81,4.88-1.69,9.65-2.41,14.36-.66,4.71-1.32,9.33-1.96,13.86-.35,2.25-.57,4.51-.83,6.73-.25,2.22-.5,4.42-.75,6.6-.25,2.17-.49,4.32-.73,6.45-.18,2.13-.36,4.24-.54,6.33-.35,4.17-.74,8.22-1.02,12.19-.23,3.97-.45,7.85-.67,11.62-.1,1.88-.24,3.74-.31,5.57-.05,1.84-.1,3.65-.15,5.43-.1,3.56-.21,7.02-.31,10.38-.08,6.72,0,13.01-.02,18.85.16,5.84.3,11.24.44,16.2.02.62.04,1.23.06,1.83s.07,1.13.1,1.69c.07,1.1.15,2.17.22,3.22.14,2.09.27,4.06.39,5.93.12,1.86.23,3.62.33,5.27.04.74.12,1.79.2,2.72.07.94.14,1.84.21,2.71.27,3.48.5,6.4.69,8.76.39,4.71.59,7.15.59,7.15l-199.98-2.53Z"/>
        <circle class="cls-2" cx="892" cy="1383.81" r="292.5"/>
        <circle class="cls-1" cx="892" cy="312.81" r="292.5"/>
      </g>
    </g>
  </g>
</svg>