<svg width="57" height="84" viewBox="0 0 57 84" fill="none" xmlns="http://www.w3.org/2000/svg">
<path d="M49.7017 55.2662C41.9482 57.3995 40.111 56.8011 38.7289 58.887C38.1228 59.7798 37.8375 60.8528 37.9198 61.9297C38.0375 62.926 38.4823 63.8549 39.184 64.57C41.8404 67.1495 49.1556 63.9953 53.3425 60.5402C54.256 59.7897 56.7135 57.768 56.2146 56.3346C56.0123 55.7463 55.382 55.4556 54.9336 55.2527C52.9413 54.3534 50.8849 54.9451 49.7017 55.2662Z" fill="url(#paint0_linear_1033_332)"/>
<path d="M25.8438 2.79993H27.4956V13.669H25.8438V2.79993Z" fill="url(#paint1_linear_1033_332)"/>
<path d="M20.8688 12.6925H32.2732C33.1147 12.6925 33.7969 13.3767 33.7969 14.2206V18.3079C33.7969 19.1519 33.1147 19.836 32.2732 19.836H20.8688C20.0273 19.836 19.3451 19.1519 19.3451 18.3079V14.2206C19.3451 13.3767 20.0273 12.6925 20.8688 12.6925Z" fill="url(#paint2_linear_1033_332)"/>
<path d="M31.2184 16.1069H21.9277C16.3023 16.1069 10.9072 18.348 6.92943 22.3372C2.95164 26.3264 0.71693 31.737 0.71693 37.3785V43.589C0.714714 45.1602 1.02141 46.7166 1.61946 48.1689C2.21751 49.6212 3.09518 50.941 4.20229 52.0529C5.30939 53.1647 6.6242 54.0468 8.07151 54.6486C9.51883 55.2504 11.0702 55.5602 12.637 55.5602H40.5057C43.6671 55.5602 46.699 54.3007 48.9345 52.0588C51.1699 49.817 52.4258 46.7763 52.4258 43.6059V37.3785C52.4258 31.7375 50.1915 26.3275 46.2145 22.3384C42.2374 18.3493 36.8432 16.1078 31.2184 16.1069Z" fill="url(#paint3_linear_1033_332)"/>
<path d="M8.85091 42.4565C9.53648 42.7959 10.291 42.9718 11.0556 42.9703H42.0863C42.852 42.9722 43.6077 42.7963 44.2943 42.4565C45.0797 42.0985 45.7315 41.4996 46.1556 40.7462C46.5797 39.9927 46.7543 39.1237 46.6541 38.2644L46.6372 38.1393C45.8282 32.3582 40.6266 27.9125 34.225 27.5812C31.5281 27.4392 28.6762 27.3649 25.713 27.3818C23.3915 27.3975 21.1441 27.4629 18.9709 27.5778C12.5456 27.9159 7.28674 32.3345 6.49791 38.1393L6.48105 38.2644C6.38275 39.1247 6.55925 39.9942 6.98512 40.7475C7.411 41.5009 8.06429 42.0992 8.85091 42.4565Z" fill="url(#paint4_linear_1033_332)"/>
<path style="mix-blend-mode:screen" d="M34.7508 41.6957C31.5188 41.6957 28.8987 39.0681 28.8987 35.8267C28.8987 32.5854 31.5188 29.9578 34.7508 29.9578C37.9829 29.9578 40.603 32.5854 40.603 35.8267C40.603 39.0681 37.9829 41.6957 34.7508 41.6957Z" fill="url(#paint5_radial_1033_332)"/>
<path d="M34.7508 40.0393C32.431 40.0393 30.5505 38.1533 30.5505 35.8269C30.5505 33.5005 32.431 31.6145 34.7508 31.6145C37.0706 31.6145 38.9512 33.5005 38.9512 35.8269C38.9512 38.1533 37.0706 40.0393 34.7508 40.0393Z" fill="#EEFDFF"/>
<path d="M34.7512 39.3629C32.8038 39.3629 31.2251 37.7797 31.2251 35.8267C31.2251 33.8736 32.8038 32.2904 34.7512 32.2904C36.6986 32.2904 38.2773 33.8736 38.2773 35.8267C38.2773 37.7797 36.6986 39.3629 34.7512 39.3629Z" fill="url(#paint6_linear_1033_332)"/>
<path d="M32.4891 34.9108C32.4918 35.1697 32.5707 35.4219 32.7161 35.6359C32.8614 35.8498 33.0666 36.0158 33.3058 36.113C33.545 36.2102 33.8076 36.2343 34.0604 36.1822C34.3132 36.13 34.545 36.004 34.7266 35.8201C34.9082 35.6361 35.0314 35.4023 35.0808 35.1483C35.1302 34.8942 35.1035 34.6312 35.0041 34.3923C34.9048 34.1534 34.7371 33.9493 34.5223 33.8057C34.3075 33.6622 34.0552 33.5856 33.7971 33.5856C33.6242 33.5856 33.453 33.6199 33.2934 33.6867C33.1338 33.7535 32.989 33.8513 32.8674 33.9745C32.7458 34.0978 32.6497 34.244 32.5848 34.4047C32.5198 34.5654 32.4873 34.7374 32.4891 34.9108Z" fill="#EEFDFF"/>
<path d="M35.2734 39.0623C34.9848 39.0623 34.7509 38.8277 34.7509 38.5383C34.7509 38.2489 34.9848 38.0143 35.2734 38.0143C35.562 38.0143 35.7959 38.2489 35.7959 38.5383C35.7959 38.8277 35.562 39.0623 35.2734 39.0623Z" fill="#EEFDFF"/>
<path d="M36.5645 37.7537C36.5638 37.8062 36.5787 37.8576 36.6074 37.9015C36.636 37.9454 36.677 37.9797 36.7252 38.0001C36.7734 38.0205 36.8265 38.026 36.8779 38.0159C36.9292 38.0058 36.9763 37.9807 37.0133 37.9436C37.0503 37.9065 37.0754 37.8592 37.0854 37.8077C37.0955 37.7563 37.09 37.703 37.0697 37.6546C37.0494 37.6063 37.0151 37.5652 36.9714 37.5365C36.9276 37.5077 36.8763 37.4928 36.824 37.4934C36.7555 37.4943 36.69 37.522 36.6415 37.5706C36.593 37.6193 36.5653 37.685 36.5645 37.7537Z" fill="#EEFDFF"/>
<path style="mix-blend-mode:screen" d="M18.9442 41.6957C15.7121 41.6957 13.092 39.0681 13.092 35.8267C13.092 32.5854 15.7121 29.9578 18.9442 29.9578C22.1763 29.9578 24.7964 32.5854 24.7964 35.8267C24.7964 39.0681 22.1763 41.6957 18.9442 41.6957Z" fill="url(#paint7_radial_1033_332)"/>
<path d="M18.9442 40.0393C16.6244 40.0393 14.7438 38.1533 14.7438 35.8269C14.7438 33.5005 16.6244 31.6145 18.9442 31.6145C21.264 31.6145 23.1445 33.5005 23.1445 35.8269C23.1445 38.1533 21.264 40.0393 18.9442 40.0393Z" fill="#EEFDFF"/>
<path d="M18.9441 39.3629C16.9966 39.3629 15.4179 37.7797 15.4179 35.8267C15.4179 33.8736 16.9966 32.2904 18.9441 32.2904C20.8915 32.2904 22.4702 33.8736 22.4702 35.8267C22.4702 37.7797 20.8915 39.3629 18.9441 39.3629Z" fill="url(#paint8_linear_1033_332)"/>
<path d="M16.682 34.9108C16.6846 35.1697 16.7636 35.4219 16.9089 35.6359C17.0543 35.8498 17.2595 36.0158 17.4987 36.113C17.7379 36.2102 18.0005 36.2343 18.2533 36.1822C18.5061 36.13 18.7379 36.004 18.9195 35.8201C19.1011 35.6361 19.2243 35.4023 19.2737 35.1483C19.3231 34.8942 19.2964 34.6312 19.197 34.3923C19.0976 34.1534 18.93 33.9493 18.7152 33.8057C18.5004 33.6622 18.2481 33.5856 17.9899 33.5856C17.817 33.5856 17.6458 33.6199 17.4863 33.6867C17.3267 33.7535 17.1819 33.8513 17.0603 33.9745C16.9386 34.0978 16.8426 34.244 16.7776 34.4047C16.7127 34.5654 16.6802 34.7374 16.682 34.9108Z" fill="#EEFDFF"/>
<path d="M19.4633 39.0623C19.1747 39.0623 18.9408 38.8277 18.9408 38.5383C18.9408 38.2489 19.1747 38.0143 19.4633 38.0143C19.7519 38.0143 19.9858 38.2489 19.9858 38.5383C19.9858 38.8277 19.7519 39.0623 19.4633 39.0623Z" fill="#EEFDFF"/>
<path d="M20.7578 37.7537C20.7572 37.8062 20.7721 37.8576 20.8007 37.9015C20.8294 37.9454 20.8704 37.9797 20.9186 38.0001C20.9668 38.0205 21.0199 38.026 21.0712 38.0159C21.1225 38.0058 21.1697 37.9807 21.2067 37.9436C21.2437 37.9065 21.2688 37.8592 21.2788 37.8077C21.2888 37.7563 21.2833 37.703 21.263 37.6546C21.2427 37.6063 21.2085 37.5652 21.1647 37.5365C21.121 37.5077 21.0697 37.4928 21.0174 37.4934C20.9488 37.4943 20.8833 37.522 20.8348 37.5706C20.7863 37.6193 20.7587 37.685 20.7578 37.7537Z" fill="#EEFDFF"/>
<path d="M24.4559 2.23919C24.4559 2.6591 24.58 3.06958 24.8127 3.41873C25.0453 3.76787 25.3759 4.03999 25.7628 4.20069C26.1496 4.36138 26.5753 4.40342 26.9859 4.3215C27.3966 4.23958 27.7738 4.03738 28.0699 3.74045C28.366 3.44353 28.5676 3.06523 28.6493 2.65339C28.7309 2.24155 28.689 1.81466 28.5288 1.42672C28.3686 1.03877 28.0972 0.707186 27.7491 0.473897C27.4009 0.240607 26.9916 0.116089 26.5729 0.116089C26.0114 0.116089 25.473 0.339772 25.0759 0.737932C24.6789 1.13609 24.4559 1.67611 24.4559 2.23919Z" fill="url(#paint9_linear_1033_332)"/>
<path d="M25.0996 1.41094C25.0996 1.53932 25.1375 1.66482 25.2086 1.77156C25.2798 1.87831 25.3808 1.96151 25.4991 2.01064C25.6174 2.05976 25.7475 2.07262 25.8731 2.04757C25.9986 2.02253 26.1139 1.96071 26.2045 1.86993C26.295 1.77915 26.3566 1.66349 26.3816 1.53758C26.4066 1.41166 26.3938 1.28115 26.3448 1.16254C26.2958 1.04393 26.2128 0.942559 26.1064 0.871234C25.9999 0.79991 25.8748 0.761841 25.7468 0.761841C25.5751 0.761841 25.4105 0.830228 25.2891 0.951958C25.1677 1.07369 25.0996 1.23879 25.0996 1.41094Z" fill="white"/>
<path d="M8.35219 22.9123C8.32522 23.9028 9.1309 25.0861 10.0377 25.1875C10.9041 25.2822 11.5952 24.3964 12.3098 23.4971C13.0245 22.5979 14.5482 20.2821 13.938 19.6262C13.129 18.7438 8.40949 20.5762 8.35219 22.9123Z" fill="white"/>
<path d="M16.2641 19.1361C15.8583 19.1361 15.5292 18.8061 15.5292 18.3991C15.5292 17.9921 15.8583 17.6621 16.2641 17.6621C16.67 17.6621 16.999 17.9921 16.999 18.3991C16.999 18.8061 16.67 19.1361 16.2641 19.1361Z" fill="white"/>
<path d="M8.45645 36.6551C8.69242 36.8208 10.3375 33.4603 14.7536 30.5461C16.3043 29.5319 17.8381 28.7915 17.7471 28.5819C17.6561 28.3723 15.9301 28.7645 14.548 29.4102C10.1454 31.4555 8.17665 36.4556 8.45645 36.6551Z" fill="white"/>
<path d="M19.7634 14.8054C19.8173 14.8054 19.851 14.5045 20.1005 14.0244C20.1791 13.8821 20.2658 13.7444 20.36 13.612C20.8017 13 22.3052 13.0136 22.4231 13.0136C24.7829 13.0339 26.2695 12.8851 26.2695 12.8986C26.2695 12.9121 25.1706 12.8986 24.3649 12.8716C22.0961 12.8276 20.7443 12.7025 20.1645 13.3145C20.0109 13.4853 19.8887 13.6822 19.8038 13.8959C19.6759 14.183 19.6615 14.508 19.7634 14.8054Z" fill="white"/>
<path d="M20.2519 45.4891C20.285 45.7624 20.4111 46.0158 20.6088 46.2067C20.8065 46.3976 21.0638 46.5143 21.3373 46.5372L29.0908 47.2877C29.3636 47.3174 29.6382 47.2519 29.8685 47.1022C30.0987 46.9526 30.2705 46.728 30.355 46.4662C30.4285 46.2225 30.4848 45.974 30.5235 45.7224C30.5282 45.6875 30.5259 45.652 30.5167 45.618C30.5075 45.5839 30.4915 45.5521 30.4699 45.5244C30.4482 45.4967 30.4212 45.4736 30.3904 45.4565C30.3597 45.4394 30.3259 45.4287 30.2909 45.4249L20.5148 44.4783C20.4804 44.4753 20.4457 44.4791 20.4127 44.4895C20.3797 44.5 20.3491 44.5168 20.3227 44.5392C20.2715 44.5867 20.2402 44.6519 20.235 44.7217C20.222 44.9776 20.2276 45.2341 20.2519 45.4891Z" fill="#EEFDFF"/>
<path d="M20.2519 45.489C20.3766 46.6706 20.9015 47.7736 21.7392 48.6139C22.5768 49.4542 23.6765 49.981 24.8547 50.1064C26.0329 50.2318 27.2183 49.9482 28.2131 49.3029C29.208 48.6577 29.9521 47.6897 30.3213 46.5607C30.2206 46.7984 30.0462 46.9971 29.8239 47.1274C29.6016 47.2578 29.3434 47.3127 29.0875 47.2842L21.334 46.537C21.0611 46.5134 20.8046 46.3964 20.6076 46.2056C20.4105 46.0147 20.2849 45.7617 20.2519 45.489Z" fill="url(#paint10_linear_1033_332)"/>
<path d="M8.03862 62.9473C8.03862 63.0183 8.03862 63.0859 8.03862 63.1535C8.05653 63.6139 8.14055 64.0694 8.28808 64.5058C10.4321 71.0509 11.703 74.4925 13.4964 77.2884C13.8065 77.7684 14.1335 78.2316 14.4807 78.6846C14.9392 79.2898 15.4415 79.8814 15.9977 80.4899C17.2383 81.8422 19.1126 82.4508 19.7059 82.6637C21.9139 83.4447 23.8624 83.3027 25.1603 83.3162H25.3861C26.6874 83.3162 28.6359 83.4447 30.8439 82.6637C31.4473 82.4508 33.3216 81.8388 34.5521 80.4899C37.9569 76.7711 39.2716 73.6811 42.2584 64.5159C42.3975 64.1017 42.4814 63.6709 42.5078 63.2346C42.5078 63.0588 42.5078 62.8966 42.5078 62.7039C42.4175 61.5432 41.9645 60.4406 41.2133 59.553C40.5361 58.7283 39.6837 58.0656 38.7185 57.6135C37.7533 57.1614 36.6995 56.9312 35.6342 56.9397L25.2648 56.9126L15.0842 56.8721C13.995 56.8553 12.9157 57.0817 11.9245 57.5349C10.9334 57.988 10.0551 58.6566 9.35334 59.4922C8.71087 60.2462 8.2752 61.155 8.08919 62.1291C8.06896 62.2576 8.04873 62.3928 8.03525 62.5247C8.02177 62.6565 8.03862 62.7985 8.03862 62.9473Z" fill="url(#paint11_linear_1033_332)"/>
<path d="M25.2848 56.9127L35.6542 56.9566C36.7192 56.9503 37.7722 57.1814 38.7371 57.6334C39.7021 58.0854 40.5547 58.7469 41.2333 59.57C41.9832 60.4597 42.436 61.5629 42.5278 62.7242C42.4392 61.5288 41.966 60.3947 41.1794 59.4922C40.478 58.6563 39.5998 57.9875 38.6085 57.5343C37.6173 57.0811 36.5378 56.8549 35.4486 56.8721L25.2848 56.9127Z" fill="url(#paint12_linear_1033_332)"/>
<path d="M14.976 72.2172C15.1277 64.1508 16.2165 62.5551 14.6119 60.6348C13.9306 59.803 12.9882 59.2274 11.9387 59.0019C10.9514 58.8337 9.93646 58.999 9.05302 59.4718C5.83365 61.3008 6.79104 69.2287 8.91144 74.2321C9.37328 75.3241 10.597 78.2519 12.1241 78.1809C12.7443 78.1538 13.1994 77.6298 13.5197 77.2545C14.9389 75.5912 14.9558 73.4343 14.976 72.2172Z" fill="url(#paint13_linear_1033_332)"/>
<path d="M13.4966 77.2883C13.8067 77.7684 14.1337 78.2315 14.4809 78.6846C14.5922 78.5696 14.6933 78.4547 14.7809 78.3465C16.2002 76.6832 16.217 74.5262 16.2372 73.3092C16.3889 65.2427 17.4812 63.647 15.8732 61.7302C15.5189 61.3039 15.0976 60.9384 14.6259 60.6483C16.2103 62.5618 15.1282 64.171 14.963 72.2138C14.9428 73.4309 14.9225 75.5946 13.5101 77.2545C13.5031 77.2646 13.4984 77.2762 13.4966 77.2883Z" fill="url(#paint14_linear_1033_332)"/>
<path d="M8.95889 65.4997C9.03572 64.5568 9.21431 63.625 9.49152 62.7207C9.9129 61.054 10.4455 60.2393 10.1017 59.9181C9.87582 59.7085 9.42747 59.8505 9.33308 59.8809C7.81272 60.3677 7.34077 63.2278 7.40819 65.0196C7.44527 66.115 7.71496 67.3422 8.11274 67.3862C8.17283 67.3923 8.23354 67.3866 8.29139 67.3692C8.34924 67.3518 8.40309 67.3231 8.44985 67.2847C8.89483 66.8993 8.92518 66.1589 8.95889 65.4997Z" fill="white"/>
<path d="M7.91409 68.559C7.91409 68.6219 7.93267 68.6833 7.96749 68.7356C8.00231 68.7878 8.0518 68.8286 8.1097 68.8526C8.16761 68.8767 8.23132 68.8829 8.29279 68.8707C8.35426 68.8584 8.41072 68.8282 8.45504 68.7837C8.49935 68.7393 8.52954 68.6826 8.54176 68.621C8.55399 68.5594 8.54771 68.4955 8.52373 68.4374C8.49974 68.3793 8.45913 68.3297 8.40702 68.2948C8.35491 68.2598 8.29364 68.2412 8.23097 68.2412C8.14693 68.2412 8.06633 68.2747 8.0069 68.3343C7.94747 68.3939 7.91409 68.4747 7.91409 68.559Z" fill="white"/>
<defs>
<linearGradient id="paint0_linear_1033_332" x1="53.2644" y1="65.6309" x2="44.0758" y2="53.6689" gradientUnits="userSpaceOnUse">
<stop offset="0.04" stop-color="#DEFA8E"/>
<stop offset="1" stop-color="#89A92C"/>
</linearGradient>
<linearGradient id="paint1_linear_1033_332" x1="27.2244" y1="13.7864" x2="25.0279" y2="13.5324" gradientUnits="userSpaceOnUse">
<stop offset="0.04" stop-color="#DEFA8E"/>
<stop offset="1" stop-color="#89A92C"/>
</linearGradient>
<linearGradient id="paint2_linear_1033_332" x1="31.4245" y1="19.9131" x2="25.6441" y2="11.0161" gradientUnits="userSpaceOnUse">
<stop offset="0.04" stop-color="#DEFA8E"/>
<stop offset="1" stop-color="#89A92C"/>
</linearGradient>
<linearGradient id="paint3_linear_1033_332" x1="43.9374" y1="55.9861" x2="8.99762" y2="21.1463" gradientUnits="userSpaceOnUse">
<stop offset="0.04" stop-color="#DEFA8E"/>
<stop offset="1" stop-color="#D2FF50"/>
</linearGradient>
<linearGradient id="paint4_linear_1033_332" x1="26.6636" y1="42.9196" x2="26.3517" y2="28.9437" gradientUnits="userSpaceOnUse">
<stop stop-color="#030D14"/>
<stop offset="1" stop-color="#0B2F45"/>
</linearGradient>
<radialGradient id="paint5_radial_1033_332" cx="0" cy="0" r="1" gradientUnits="userSpaceOnUse" gradientTransform="translate(34.7508 35.8267) rotate(180) scale(5.7915 5.80811)">
<stop offset="0.13" stop-color="#3280FC"/>
<stop offset="1"/>
</radialGradient>
<linearGradient id="paint6_linear_1033_332" x1="38.2773" y1="35.8267" x2="31.2217" y2="35.8267" gradientUnits="userSpaceOnUse">
<stop stop-color="#030D14"/>
<stop offset="1" stop-color="#0B2F45"/>
</linearGradient>
<radialGradient id="paint7_radial_1033_332" cx="0" cy="0" r="1" gradientUnits="userSpaceOnUse" gradientTransform="translate(18.9442 35.8267) rotate(180) scale(5.7915 5.80811)">
<stop offset="0.13" stop-color="#3280FC"/>
<stop offset="1"/>
</radialGradient>
<linearGradient id="paint8_linear_1033_332" x1="22.4702" y1="35.8267" x2="15.4146" y2="35.8267" gradientUnits="userSpaceOnUse">
<stop stop-color="#030D14"/>
<stop offset="1" stop-color="#0B2F45"/>
</linearGradient>
<linearGradient id="paint9_linear_1033_332" x1="27.9949" y1="4.40815" x2="24.3735" y2="1.66084" gradientUnits="userSpaceOnUse">
<stop offset="0.04" stop-color="#DEFA8E"/>
<stop offset="1" stop-color="#89A92C"/>
</linearGradient>
<linearGradient id="paint10_linear_1033_332" x1="28.6683" y1="50.1856" x2="25.0192" y2="44.1691" gradientUnits="userSpaceOnUse">
<stop offset="0.04" stop-color="#5B6738"/>
<stop offset="1" stop-color="#89A92C"/>
</linearGradient>
<linearGradient id="paint11_linear_1033_332" x1="36.8481" y1="83.6097" x2="13.4221" y2="60.3803" gradientUnits="userSpaceOnUse">
<stop offset="0.04" stop-color="#DEFA8E"/>
<stop offset="1" stop-color="#B1DE31"/>
</linearGradient>
<linearGradient id="paint12_linear_1033_332" x1="37.7274" y1="63.4409" x2="21.601" y2="44.666" gradientUnits="userSpaceOnUse">
<stop offset="0.04" stop-color="#06CFF1"/>
<stop offset="1" stop-color="#DEFA8E"/>
</linearGradient>
<linearGradient id="paint13_linear_1033_332" x1="14.0807" y1="78.3899" x2="3.77984" y2="74.9246" gradientUnits="userSpaceOnUse">
<stop offset="0.04" stop-color="#DEFA8E"/>
<stop offset="1" stop-color="#89A92C"/>
</linearGradient>
<linearGradient id="paint14_linear_1033_332" x1="16.2078" y1="78.8793" x2="11.9171" y2="78.2922" gradientUnits="userSpaceOnUse">
<stop offset="0.04" stop-color="#94B535"/>
<stop offset="1" stop-color="#89A92C"/>
</linearGradient>
</defs>
</svg>
