<svg width="156" height="76" viewBox="0 0 156 76" fill="none" xmlns="http://www.w3.org/2000/svg">
<line x1="136.575" y1="53.9246" x2="-0.00497437" y2="53.9246" stroke="white"/>
<path d="M1.05169 42.8442V34.117H4.00056C4.68521 34.117 5.24487 34.2405 5.67953 34.4877C6.11703 34.732 6.4409 35.063 6.65112 35.4806C6.86135 35.8982 6.96646 36.3641 6.96646 36.8783C6.96646 37.3925 6.86135 37.8599 6.65112 38.2803C6.44374 38.7008 6.12271 39.036 5.68806 39.286C5.2534 39.5332 4.69658 39.6567 4.0176 39.6567H1.90396V38.7192H3.98351C4.45226 38.7192 4.82868 38.6383 5.11277 38.4763C5.39686 38.3144 5.60283 38.0957 5.73067 37.8201C5.86135 37.5417 5.92669 37.2278 5.92669 36.8783C5.92669 36.5289 5.86135 36.2164 5.73067 35.9408C5.60283 35.6653 5.39544 35.4494 5.10851 35.2931C4.82158 35.134 4.4409 35.0545 3.96646 35.0545H2.10851V42.8442H1.05169ZM8.53252 42.8442V36.2988H9.50411V37.2874H9.57229C9.69161 36.9636 9.90752 36.7008 10.22 36.4991C10.5325 36.2974 10.8848 36.1965 11.2768 36.1965C11.3507 36.1965 11.443 36.1979 11.5538 36.2008C11.6646 36.2036 11.7484 36.2079 11.8052 36.2136V37.2363C11.7712 37.2278 11.693 37.215 11.5709 37.1979C11.4515 37.178 11.3251 37.1681 11.1916 37.1681C10.8734 37.1681 10.5893 37.2349 10.3393 37.3684C10.0922 37.4991 9.89615 37.6809 9.75127 37.9138C9.60922 38.144 9.5382 38.4067 9.5382 38.7022V42.8442H8.53252ZM15.4572 42.9806C14.8663 42.9806 14.3479 42.84 13.9018 42.5587C13.4587 42.2775 13.1121 41.884 12.8621 41.3783C12.6149 40.8726 12.4913 40.2817 12.4913 39.6056C12.4913 38.9238 12.6149 38.3286 12.8621 37.8201C13.1121 37.3116 13.4587 36.9167 13.9018 36.6354C14.3479 36.3542 14.8663 36.2136 15.4572 36.2136C16.0481 36.2136 16.5652 36.3542 17.0084 36.6354C17.4544 36.9167 17.801 37.3116 18.0481 37.8201C18.2981 38.3286 18.4231 38.9238 18.4231 39.6056C18.4231 40.2817 18.2981 40.8726 18.0481 41.3783C17.801 41.884 17.4544 42.2775 17.0084 42.5587C16.5652 42.84 16.0481 42.9806 15.4572 42.9806ZM15.4572 42.0772C15.9061 42.0772 16.2754 41.9621 16.5652 41.732C16.855 41.5019 17.0694 41.1994 17.2087 40.8244C17.3479 40.4494 17.4175 40.0431 17.4175 39.6056C17.4175 39.1681 17.3479 38.7604 17.2087 38.3826C17.0694 38.0047 16.855 37.6994 16.5652 37.4664C16.2754 37.2334 15.9061 37.117 15.4572 37.117C15.0084 37.117 14.639 37.2334 14.3493 37.4664C14.0595 37.6994 13.845 38.0047 13.7058 38.3826C13.5666 38.7604 13.497 39.1681 13.497 39.6056C13.497 40.0431 13.5666 40.4494 13.7058 40.8244C13.845 41.1994 14.0595 41.5019 14.3493 41.732C14.639 41.9621 15.0084 42.0772 15.4572 42.0772ZM22.4299 42.9806C21.8844 42.9806 21.4029 42.8428 20.9853 42.5672C20.5677 42.2888 20.241 41.8968 20.0052 41.3911C19.7694 40.8826 19.6515 40.2817 19.6515 39.5886C19.6515 38.9011 19.7694 38.3045 20.0052 37.7988C20.241 37.2931 20.5691 36.9025 20.9895 36.6269C21.41 36.3513 21.8958 36.2136 22.4469 36.2136C22.8731 36.2136 23.2097 36.2846 23.4569 36.4266C23.7069 36.5658 23.8972 36.7249 24.0279 36.9039C24.1614 37.08 24.2651 37.2249 24.339 37.3386H24.4242V34.117H25.4299V42.8442H24.4583V41.8386H24.339C24.2651 41.9579 24.16 42.1084 24.0236 42.2903C23.8873 42.4692 23.6927 42.6297 23.4398 42.7718C23.187 42.911 22.8503 42.9806 22.4299 42.9806ZM22.5663 42.0772C22.9697 42.0772 23.3106 41.9721 23.589 41.7619C23.8674 41.5488 24.079 41.2547 24.2239 40.8797C24.3688 40.5019 24.4413 40.0658 24.4413 39.5715C24.4413 39.0829 24.3702 38.6553 24.2282 38.2888C24.0861 37.9195 23.8759 37.6326 23.5975 37.428C23.3191 37.2207 22.9753 37.117 22.5663 37.117C22.1401 37.117 21.785 37.2263 21.5009 37.4451C21.2197 37.661 21.008 37.955 20.866 38.3272C20.7268 38.6965 20.6572 39.1113 20.6572 39.5715C20.6572 40.0374 20.7282 40.4607 20.8702 40.8414C21.0151 41.2192 21.2282 41.5204 21.5094 41.7448C21.7935 41.9664 22.1458 42.0772 22.5663 42.0772ZM31.5364 40.1681V36.2988H32.5421V42.8442H31.5364V41.7363H31.4682C31.3148 42.0687 31.0762 42.3513 30.7523 42.5843C30.4285 42.8144 30.0194 42.9295 29.5251 42.9295C29.116 42.9295 28.7523 42.84 28.4341 42.661C28.116 42.4792 27.866 42.2065 27.6841 41.8428C27.5023 41.4763 27.4114 41.0147 27.4114 40.4579V36.2988H28.4171V40.3897C28.4171 40.867 28.5506 41.2476 28.8177 41.5317C29.0876 41.8158 29.4313 41.9579 29.8489 41.9579C30.0989 41.9579 30.3532 41.894 30.6117 41.7661C30.8731 41.6383 31.0918 41.4422 31.268 41.178C31.4469 40.9138 31.5364 40.5772 31.5364 40.1681ZM37.0432 42.9806C36.4295 42.9806 35.9011 42.8357 35.4579 42.5459C35.0148 42.2562 34.6739 41.857 34.4352 41.3485C34.1966 40.84 34.0773 40.259 34.0773 39.6056C34.0773 38.9408 34.1994 38.3542 34.4437 37.8457C34.6909 37.3343 35.0346 36.9351 35.475 36.6482C35.9182 36.3584 36.4352 36.2136 37.0261 36.2136C37.4864 36.2136 37.9011 36.2988 38.2704 36.4692C38.6398 36.6397 38.9423 36.8783 39.1781 37.1851C39.4139 37.492 39.5602 37.8499 39.617 38.259H38.6114C38.5346 37.9607 38.3642 37.6965 38.1 37.4664C37.8386 37.2334 37.4864 37.117 37.0432 37.117C36.6511 37.117 36.3074 37.2192 36.0119 37.4238C35.7193 37.6255 35.4906 37.911 35.3258 38.2803C35.1639 38.6468 35.0829 39.0772 35.0829 39.5715C35.0829 40.0772 35.1625 40.5175 35.3216 40.8925C35.4835 41.2675 35.7108 41.5587 36.0034 41.7661C36.2989 41.9735 36.6454 42.0772 37.0432 42.0772C37.3045 42.0772 37.5417 42.0317 37.7548 41.9408C37.9679 41.8499 38.1483 41.7192 38.296 41.5488C38.4437 41.3783 38.5489 41.1738 38.6114 40.9351H39.617C39.5602 41.3215 39.4196 41.6695 39.1952 41.9792C38.9736 42.286 38.6795 42.5303 38.3131 42.7121C37.9494 42.8911 37.5261 42.9806 37.0432 42.9806ZM43.9338 36.2988V37.1511H40.5417V36.2988H43.9338ZM41.5304 34.7306H42.5361V40.9692C42.5361 41.2533 42.5773 41.4664 42.6596 41.6084C42.7449 41.7476 42.8528 41.8414 42.9835 41.8897C43.117 41.9351 43.2577 41.9579 43.4054 41.9579C43.5162 41.9579 43.6071 41.9522 43.6781 41.9408C43.7491 41.9266 43.806 41.9153 43.8486 41.9067L44.0531 42.8101C43.9849 42.8357 43.8898 42.8613 43.7676 42.8869C43.6454 42.9153 43.4906 42.9295 43.3031 42.9295C43.019 42.9295 42.7406 42.8684 42.4679 42.7462C42.198 42.6241 41.9736 42.438 41.7946 42.188C41.6185 41.938 41.5304 41.6226 41.5304 41.242V34.7306ZM49.9658 37.7647L49.0623 38.0204C49.0055 37.8698 48.9217 37.7235 48.8109 37.5815C48.703 37.4366 48.5552 37.3172 48.3677 37.2235C48.1802 37.1297 47.9402 37.0829 47.6476 37.0829C47.247 37.0829 46.9132 37.1752 46.6462 37.3599C46.3819 37.5417 46.2498 37.7732 46.2498 38.0545C46.2498 38.3045 46.3408 38.5019 46.5226 38.6468C46.7044 38.7917 46.9885 38.9124 47.3748 39.009L48.3464 39.2476C48.9317 39.3897 49.3677 39.607 49.6547 39.8996C49.9416 40.1894 50.0851 40.563 50.0851 41.0204C50.0851 41.3954 49.9771 41.7306 49.7612 42.0261C49.5481 42.3215 49.2498 42.5545 48.8663 42.7249C48.4828 42.8954 48.0368 42.9806 47.5283 42.9806C46.8606 42.9806 46.3081 42.8357 45.8706 42.5459C45.4331 42.2562 45.1561 41.8329 45.0396 41.2761L45.9942 41.0374C46.0851 41.3897 46.2569 41.6539 46.5098 41.83C46.7655 42.0062 47.0993 42.0942 47.5112 42.0942C47.98 42.0942 48.3521 41.9948 48.6277 41.7959C48.9061 41.5942 49.0453 41.3528 49.0453 41.0715C49.0453 40.8442 48.9658 40.6539 48.8067 40.5005C48.6476 40.3442 48.4033 40.2278 48.0737 40.1511L46.9828 39.8954C46.3834 39.7533 45.943 39.5332 45.6618 39.2349C45.3834 38.9337 45.2442 38.5573 45.2442 38.1056C45.2442 37.7363 45.3479 37.4096 45.5552 37.1255C45.7655 36.8414 46.051 36.6184 46.4118 36.4565C46.7754 36.2945 47.1873 36.2136 47.6476 36.2136C48.2953 36.2136 48.8038 36.3556 49.1731 36.6397C49.5453 36.9238 49.8095 37.2988 49.9658 37.7647ZM57.633 42.9806C57.0421 42.9806 56.5236 42.84 56.0776 42.5587C55.6344 42.2775 55.2878 41.884 55.0378 41.3783C54.7907 40.8726 54.6671 40.2817 54.6671 39.6056C54.6671 38.9238 54.7907 38.3286 55.0378 37.8201C55.2878 37.3116 55.6344 36.9167 56.0776 36.6354C56.5236 36.3542 57.0421 36.2136 57.633 36.2136C58.2239 36.2136 58.741 36.3542 59.1841 36.6354C59.6302 36.9167 59.9768 37.3116 60.2239 37.8201C60.4739 38.3286 60.5989 38.9238 60.5989 39.6056C60.5989 40.2817 60.4739 40.8726 60.2239 41.3783C59.9768 41.884 59.6302 42.2775 59.1841 42.5587C58.741 42.84 58.2239 42.9806 57.633 42.9806ZM57.633 42.0772C58.0819 42.0772 58.4512 41.9621 58.741 41.732C59.0307 41.5019 59.2452 41.1994 59.3844 40.8244C59.5236 40.4494 59.5932 40.0431 59.5932 39.6056C59.5932 39.1681 59.5236 38.7604 59.3844 38.3826C59.2452 38.0047 59.0307 37.6994 58.741 37.4664C58.4512 37.2334 58.0819 37.117 57.633 37.117C57.1841 37.117 56.8148 37.2334 56.5251 37.4664C56.2353 37.6994 56.0208 38.0047 55.8816 38.3826C55.7424 38.7604 55.6728 39.1681 55.6728 39.6056C55.6728 40.0431 55.7424 40.4494 55.8816 40.8244C56.0208 41.1994 56.2353 41.5019 56.5251 41.732C56.8148 41.9621 57.1841 42.0772 57.633 42.0772ZM63.1398 38.9067V42.8442H62.1341V36.2988H63.1057V37.3215H63.1909C63.3443 36.9891 63.5773 36.7221 63.8898 36.5204C64.2023 36.3158 64.6057 36.2136 65.1 36.2136C65.5432 36.2136 65.931 36.3045 66.2633 36.4863C66.5957 36.6653 66.8542 36.938 67.0389 37.3045C67.2236 37.6681 67.3159 38.1283 67.3159 38.6851V42.8442H66.3102V38.7533C66.3102 38.2391 66.1767 37.8386 65.9096 37.5516C65.6426 37.2619 65.2761 37.117 64.8102 37.117C64.4892 37.117 64.2023 37.1866 63.9494 37.3258C63.6994 37.465 63.502 37.6681 63.3571 37.9351C63.2122 38.2022 63.1398 38.5261 63.1398 38.9067ZM75.3752 36.2988V37.1511H71.9832V36.2988H75.3752ZM72.9718 34.7306H73.9775V40.9692C73.9775 41.2533 74.0187 41.4664 74.1011 41.6084C74.1863 41.7476 74.2942 41.8414 74.4249 41.8897C74.5584 41.9351 74.6991 41.9579 74.8468 41.9579C74.9576 41.9579 75.0485 41.9522 75.1195 41.9408C75.1905 41.9266 75.2474 41.9153 75.29 41.9067L75.4945 42.8101C75.4263 42.8357 75.3312 42.8613 75.209 42.8869C75.0868 42.9153 74.932 42.9295 74.7445 42.9295C74.4604 42.9295 74.182 42.8684 73.9093 42.7462C73.6394 42.6241 73.415 42.438 73.236 42.188C73.0599 41.938 72.9718 41.6226 72.9718 41.242V34.7306ZM78.0343 38.9067V42.8442H77.0286V34.117H78.0343V37.3215H78.1195C78.2729 36.9834 78.503 36.715 78.8099 36.5161C79.1195 36.3144 79.5314 36.2136 80.0457 36.2136C80.4917 36.2136 80.8823 36.303 81.2175 36.482C81.5528 36.6582 81.8127 36.9295 81.9974 37.2959C82.1849 37.6596 82.2786 38.1226 82.2786 38.6851V42.8442H81.2729V38.7533C81.2729 38.2334 81.138 37.8315 80.8681 37.5474C80.6011 37.2604 80.2303 37.117 79.7559 37.117C79.4263 37.117 79.1309 37.1866 78.8695 37.3258C78.611 37.465 78.4064 37.6681 78.2559 37.9351C78.1082 38.2022 78.0343 38.5261 78.0343 38.9067ZM86.8628 42.9806C86.2321 42.9806 85.6881 42.8414 85.2307 42.563C84.7761 42.2817 84.4253 41.8897 84.1781 41.3869C83.9338 40.8812 83.8116 40.2931 83.8116 39.6226C83.8116 38.9522 83.9338 38.3613 84.1781 37.8499C84.4253 37.3357 84.769 36.9351 85.2094 36.6482C85.6525 36.3584 86.1696 36.2136 86.7605 36.2136C87.1014 36.2136 87.4381 36.2704 87.7704 36.384C88.1028 36.4976 88.4054 36.6823 88.6781 36.938C88.9508 37.1908 89.1682 37.5261 89.3301 37.9437C89.492 38.3613 89.573 38.8755 89.573 39.4863V39.9124H84.5275V39.0431H88.5503C88.5503 38.6738 88.4764 38.3442 88.3287 38.0545C88.1838 37.7647 87.9764 37.536 87.7065 37.3684C87.4395 37.2008 87.1241 37.117 86.7605 37.117C86.3599 37.117 86.0133 37.2164 85.7207 37.4153C85.431 37.6113 85.2079 37.867 85.0517 38.1823C84.8954 38.4976 84.8173 38.8357 84.8173 39.1965V39.7761C84.8173 40.2704 84.9025 40.6894 85.073 41.0332C85.2463 41.3741 85.4864 41.634 85.7932 41.813C86.1 41.9891 86.4565 42.0772 86.8628 42.0772C87.127 42.0772 87.3656 42.0403 87.5787 41.9664C87.7946 41.8897 87.9807 41.7761 88.1369 41.6255C88.2932 41.4721 88.4139 41.2817 88.4991 41.0545L89.4707 41.3272C89.3685 41.6567 89.1966 41.9465 88.9551 42.1965C88.7136 42.4437 88.4153 42.6369 88.0602 42.7761C87.7051 42.9124 87.306 42.9806 86.8628 42.9806ZM97.2221 42.9806C96.5915 42.9806 96.0474 42.8414 95.59 42.563C95.1355 42.2817 94.7846 41.8897 94.5375 41.3869C94.2932 40.8812 94.171 40.2931 94.171 39.6226C94.171 38.9522 94.2932 38.3613 94.5375 37.8499C94.7846 37.3357 95.1284 36.9351 95.5687 36.6482C96.0119 36.3584 96.529 36.2136 97.1199 36.2136C97.4608 36.2136 97.7974 36.2704 98.1298 36.384C98.4622 36.4976 98.7648 36.6823 99.0375 36.938C99.3102 37.1908 99.5275 37.5261 99.6895 37.9437C99.8514 38.3613 99.9324 38.8755 99.9324 39.4863V39.9124H94.8869V39.0431H98.9096C98.9096 38.6738 98.8358 38.3442 98.6881 38.0545C98.5432 37.7647 98.3358 37.536 98.0659 37.3684C97.7989 37.2008 97.4835 37.117 97.1199 37.117C96.7193 37.117 96.3727 37.2164 96.0801 37.4153C95.7903 37.6113 95.5673 37.867 95.4111 38.1823C95.2548 38.4976 95.1767 38.8357 95.1767 39.1965V39.7761C95.1767 40.2704 95.2619 40.6894 95.4324 41.0332C95.6057 41.3741 95.8457 41.634 96.1525 41.813C96.4594 41.9891 96.8159 42.0772 97.2221 42.0772C97.4864 42.0772 97.725 42.0403 97.9381 41.9664C98.154 41.8897 98.34 41.7761 98.4963 41.6255C98.6525 41.4721 98.7733 41.2817 98.8585 41.0545L99.8301 41.3272C99.7278 41.6567 99.556 41.9465 99.3145 42.1965C99.073 42.4437 98.7747 42.6369 98.4196 42.7761C98.0645 42.9124 97.6653 42.9806 97.2221 42.9806ZM103.934 42.9806C103.388 42.9806 102.907 42.8428 102.489 42.5672C102.072 42.2888 101.745 41.8968 101.509 41.3911C101.273 40.8826 101.155 40.2817 101.155 39.5886C101.155 38.9011 101.273 38.3045 101.509 37.7988C101.745 37.2931 102.073 36.9025 102.493 36.6269C102.914 36.3513 103.4 36.2136 103.951 36.2136C104.377 36.2136 104.714 36.2846 104.961 36.4266C105.211 36.5658 105.401 36.7249 105.532 36.9039C105.665 37.08 105.769 37.2249 105.843 37.3386H105.928V34.117H106.934V42.8442H105.962V41.8386H105.843C105.769 41.9579 105.664 42.1084 105.528 42.2903C105.391 42.4692 105.197 42.6297 104.944 42.7718C104.691 42.911 104.354 42.9806 103.934 42.9806ZM104.07 42.0772C104.474 42.0772 104.814 41.9721 105.093 41.7619C105.371 41.5488 105.583 41.2547 105.728 40.8797C105.873 40.5019 105.945 40.0658 105.945 39.5715C105.945 39.0829 105.874 38.6553 105.732 38.2888C105.59 37.9195 105.38 37.6326 105.101 37.428C104.823 37.2207 104.479 37.117 104.07 37.117C103.644 37.117 103.289 37.2263 103.005 37.4451C102.724 37.661 102.512 37.955 102.37 38.3272C102.231 38.6965 102.161 39.1113 102.161 39.5715C102.161 40.0374 102.232 40.4607 102.374 40.8414C102.519 41.2192 102.732 41.5204 103.013 41.7448C103.297 41.9664 103.65 42.0772 104.07 42.0772ZM111.557 45.4351C111.072 45.4351 110.654 45.3726 110.305 45.2476C109.955 45.1255 109.664 44.9636 109.431 44.7619C109.201 44.563 109.018 44.3499 108.881 44.1226L109.682 43.5601C109.773 43.6795 109.888 43.8158 110.028 43.9692C110.167 44.1255 110.357 44.2604 110.599 44.3741C110.843 44.4905 111.162 44.5488 111.557 44.5488C112.086 44.5488 112.522 44.4209 112.866 44.1653C113.209 43.9096 113.381 43.509 113.381 42.9636V41.634H113.296C113.222 41.7533 113.117 41.9011 112.981 42.0772C112.847 42.2505 112.654 42.4053 112.401 42.5417C112.151 42.6752 111.813 42.742 111.387 42.742C110.859 42.742 110.384 42.617 109.964 42.367C109.546 42.117 109.215 41.7533 108.971 41.2761C108.729 40.7988 108.609 40.2192 108.609 39.5374C108.609 38.867 108.726 38.2832 108.962 37.786C109.198 37.286 109.526 36.8996 109.947 36.6269C110.367 36.3513 110.853 36.2136 111.404 36.2136C111.83 36.2136 112.168 36.2846 112.418 36.4266C112.671 36.5658 112.864 36.7249 112.998 36.9039C113.134 37.08 113.239 37.2249 113.313 37.3386H113.415V36.2988H114.387V43.0317C114.387 43.5942 114.259 44.0516 114.003 44.4039C113.751 44.759 113.41 45.019 112.981 45.1837C112.555 45.3513 112.08 45.4351 111.557 45.4351ZM111.523 41.8386C111.927 41.8386 112.268 41.7462 112.546 41.5616C112.824 41.3769 113.036 41.1113 113.181 40.7647C113.326 40.4181 113.398 40.0033 113.398 39.5204C113.398 39.0488 113.327 38.6326 113.185 38.2718C113.043 37.911 112.833 37.6283 112.555 37.4238C112.276 37.2192 111.932 37.117 111.523 37.117C111.097 37.117 110.742 37.2249 110.458 37.4408C110.177 37.6567 109.965 37.9465 109.823 38.3101C109.684 38.6738 109.614 39.0772 109.614 39.5204C109.614 39.9749 109.685 40.3769 109.827 40.7263C109.972 41.0729 110.185 41.3457 110.466 41.5445C110.751 41.7405 111.103 41.8386 111.523 41.8386ZM118.972 42.9806C118.341 42.9806 117.797 42.8414 117.34 42.563C116.885 42.2817 116.535 41.8897 116.287 41.3869C116.043 40.8812 115.921 40.2931 115.921 39.6226C115.921 38.9522 116.043 38.3613 116.287 37.8499C116.535 37.3357 116.878 36.9351 117.319 36.6482C117.762 36.3584 118.279 36.2136 118.87 36.2136C119.211 36.2136 119.547 36.2704 119.88 36.384C120.212 36.4976 120.515 36.6823 120.787 36.938C121.06 37.1908 121.278 37.5261 121.439 37.9437C121.601 38.3613 121.682 38.8755 121.682 39.4863V39.9124H116.637V39.0431H120.66C120.66 38.6738 120.586 38.3442 120.438 38.0545C120.293 37.7647 120.086 37.536 119.816 37.3684C119.549 37.2008 119.234 37.117 118.87 37.117C118.469 37.117 118.123 37.2164 117.83 37.4153C117.54 37.6113 117.317 37.867 117.161 38.1823C117.005 38.4976 116.927 38.8357 116.927 39.1965V39.7761C116.927 40.2704 117.012 40.6894 117.182 41.0332C117.356 41.3741 117.596 41.634 117.903 41.813C118.209 41.9891 118.566 42.0772 118.972 42.0772C119.236 42.0772 119.475 42.0403 119.688 41.9664C119.904 41.8897 120.09 41.7761 120.246 41.6255C120.403 41.4721 120.523 41.2817 120.609 41.0545L121.58 41.3272C121.478 41.6567 121.306 41.9465 121.064 42.1965C120.823 42.4437 120.525 42.6369 120.17 42.7761C119.814 42.9124 119.415 42.9806 118.972 42.9806Z" fill="#B3B3B3"/>
<g clip-path="url(#clip0_511_254)">
<path d="M50.6017 7.03201C51.5483 7.00672 52.4892 7.18518 53.3606 7.55528C54.232 7.92537 55.0135 8.47844 55.6521 9.17694C56.9934 10.6247 57.7106 12.5417 57.6487 14.5134C57.6905 15.4818 57.5337 16.4484 57.1879 17.354C56.8421 18.2596 56.3147 19.085 55.638 19.7795C54.9806 20.441 54.1946 20.9609 53.3285 21.3072C52.4623 21.6535 51.5343 21.8188 50.6017 21.7931C49.658 21.8248 48.7204 21.6319 47.8659 21.2304C47.0115 20.8289 46.2649 20.2303 45.6876 19.4839H45.6312V28.5376H43.2822V7.00854H45.6594V9.35529H45.6876C46.267 8.61025 47.0137 8.01178 47.8673 7.6082C48.721 7.20462 49.6576 7.00725 50.6017 7.03201ZM50.3668 19.6012C51.02 19.6254 51.6709 19.5103 52.276 19.2634C52.8811 19.0166 53.4267 18.6437 53.8762 18.1697C54.7864 17.1737 55.2704 15.8614 55.2245 14.5134C55.254 13.8159 55.1447 13.1194 54.9027 12.4644C54.6608 11.8094 54.2911 11.2088 53.8151 10.6976C52.6563 9.48671 51.1232 9.03457 49.2158 9.34121C48.7451 9.4177 48.2992 9.60426 47.9145 9.88566C47.1681 10.4005 46.5623 11.0935 46.1521 11.9017C45.7418 12.7099 45.5402 13.6076 45.5655 14.5134C45.5418 15.1863 45.6545 15.857 45.8966 16.4853C46.1388 17.1136 46.5056 17.6865 46.9749 18.1697C47.4114 18.6284 47.9379 18.9923 48.5215 19.2386C49.1051 19.4849 49.7333 19.6083 50.3668 19.6012Z" fill="white"/>
<path d="M65.4662 7.03201C65.664 7.02642 65.8618 7.03583 66.0582 7.06017V9.72139C65.6259 9.68384 65.3065 9.66506 65.1186 9.66506C64.5139 9.64097 63.9117 9.75531 63.358 9.99935C62.8043 10.2434 62.3138 10.6107 61.9239 11.0731C61.1027 12.0921 60.6818 13.3755 60.74 14.6824V21.7884H58.3394V7.00854H60.74V9.74955H60.7682C61.2301 8.91276 61.9116 8.21757 62.7393 7.73876C63.5671 7.25994 64.5099 7.0156 65.4662 7.03201Z" fill="white"/>
<path d="M74.1574 21.793C73.1742 21.8349 72.1928 21.6735 71.2749 21.319C70.3569 20.9645 69.5221 20.4245 68.8226 19.7328C68.1232 19.0411 67.5742 18.2126 67.2101 17.2991C66.8459 16.3857 66.6745 15.407 66.7064 14.4243C66.738 12.9612 67.194 11.5389 68.0193 10.3298C68.8445 9.12081 70.0033 8.17718 71.3551 7.61354C72.7068 7.0499 74.1933 6.8905 75.634 7.1547C77.0747 7.41889 78.4076 8.09532 79.4709 9.10183C80.1687 9.79688 80.7153 10.6283 81.0767 11.5442C81.438 12.46 81.6063 13.4405 81.5709 14.4243C81.6075 15.4068 81.4398 16.3862 81.0784 17.3007C80.7169 18.2152 80.1696 19.0449 79.4709 19.7373C78.7692 20.4194 77.9369 20.9531 77.0239 21.3063C76.1109 21.6595 75.136 21.8251 74.1574 21.793ZM74.1574 19.6012C74.8158 19.6164 75.4701 19.4949 76.079 19.2445C76.6879 18.994 77.2382 18.62 77.695 18.1462C78.1711 17.6551 78.5433 17.0734 78.7894 16.4355C79.0356 15.7977 79.1507 15.1169 79.1279 14.4336C79.1555 13.7498 79.0449 13.0673 78.8027 12.4271C78.5606 11.7868 78.1918 11.2018 77.7185 10.707C76.7557 9.76937 75.4618 9.24852 74.1172 9.2573C72.7727 9.26609 71.4857 9.80381 70.5353 10.7539C69.5971 11.7462 69.0903 13.0692 69.1259 14.4336C69.0891 15.7997 69.5959 17.1247 70.5353 18.118C70.9994 18.6075 71.5624 18.9928 72.1868 19.2485C72.8113 19.5042 73.483 19.6244 74.1574 19.6012Z" fill="white"/>
<path d="M39.8386 21.8166L35.8641 16.4003H35.7326L31.7722 21.8166H28.9534L34.3655 14.3587L28.9722 7.00865H31.8661L35.7843 12.3968L39.6883 6.99927H42.5776L37.2125 14.3587L42.6386 21.8166H39.8386Z" fill="white"/>
<path d="M123.98 0.311035H126.404V21.7275H124.097V19.4276H124.022C123.454 20.2194 122.7 20.8592 121.825 21.2906C120.951 21.722 119.984 21.9317 119.009 21.9011C118.062 21.9288 117.119 21.7623 116.238 21.412C115.357 21.0617 114.558 20.5349 113.889 19.8641C113.204 19.1626 112.67 18.3284 112.321 17.4131C111.971 16.4978 111.812 15.5206 111.854 14.5417C111.793 12.5475 112.519 10.6092 113.874 9.14419C114.52 8.43867 115.309 7.87993 116.19 7.50581C117.07 7.13169 118.02 6.95094 118.977 6.9758C119.932 6.94287 120.882 7.13868 121.747 7.5469C122.611 7.95512 123.366 8.56392 123.947 9.32255H123.98V0.311035ZM119.216 19.6952C119.851 19.6986 120.481 19.5716 121.065 19.3221C121.649 19.0727 122.176 18.706 122.613 18.2449C123.09 17.7587 123.464 17.1805 123.711 16.5455C123.958 15.9105 124.074 15.232 124.05 14.5511C124.075 13.6415 123.873 12.74 123.463 11.9274C123.053 11.1149 122.448 10.4166 121.701 9.89515C121.311 9.60539 120.856 9.41237 120.377 9.33193C118.46 9.01903 116.903 9.47743 115.707 10.7071C115.23 11.2233 114.86 11.8287 114.618 12.4885C114.376 13.1482 114.267 13.8492 114.297 14.5511C114.248 15.9134 114.737 17.2404 115.66 18.2449C116.115 18.7262 116.667 19.1047 117.281 19.3548C117.894 19.605 118.554 19.721 119.216 19.6952Z" fill="#1DBFBF"/>
<path d="M94.3353 0.311035H96.7735V21.7275H94.4715V19.4276H94.4104C93.8397 20.2235 93.0807 20.8658 92.2011 21.2974C91.3216 21.729 90.3488 21.9364 89.3695 21.9011C88.422 21.9288 87.4788 21.7623 86.5981 21.412C85.7174 21.0617 84.9178 20.5349 84.2487 19.8641C83.5644 19.164 83.0306 18.3316 82.68 17.418C82.3294 16.5043 82.1693 15.5288 82.2097 14.5511C82.1487 12.5569 82.8741 10.6185 84.2299 9.15358C84.8748 8.44757 85.6642 7.88849 86.5445 7.51434C87.4249 7.14018 88.3755 6.95971 89.3319 6.98519C90.2876 6.95265 91.2372 7.14863 92.1018 7.55682C92.9663 7.96501 93.7208 8.5736 94.3024 9.33194H94.3306L94.3353 0.311035ZM89.5762 19.6952C90.2186 19.7041 90.8559 19.5798 91.4479 19.3302C92.0398 19.0806 92.5734 18.711 93.0151 18.2449C93.488 17.7565 93.8567 17.1773 94.0989 16.5424C94.3412 15.9074 94.4519 15.23 94.4245 14.5511C94.4503 13.6413 94.249 12.7393 93.839 11.9266C93.4289 11.1138 92.8229 10.4157 92.0755 9.89516C91.6856 9.6038 91.2312 9.41061 90.7507 9.33194C88.8402 9.01904 87.2851 9.47743 86.0856 10.7071C85.6085 11.2233 85.2384 11.8287 84.9965 12.4885C84.7546 13.1482 84.6458 13.8492 84.6762 14.5511C84.6268 15.9134 85.1162 17.2404 86.0386 18.2449C86.4913 18.7238 87.041 19.1008 87.651 19.3509C88.2609 19.601 88.9173 19.7183 89.5762 19.6952Z" fill="white"/>
<path d="M139.093 7.16343H141.489V21.3237C141.489 23.5547 140.905 25.3132 139.737 26.5992C138.569 27.8852 136.775 28.5282 134.358 28.5282C132.273 28.5588 130.221 28.0112 128.429 26.9465L128.974 24.7171C130.561 25.667 132.367 26.1923 134.217 26.2425C135.783 26.2425 136.995 25.8388 137.853 25.0316C138.269 24.6382 138.598 24.1615 138.817 23.6325C139.037 23.1036 139.142 22.5344 139.126 21.962V19.2163H139.056C138.465 19.9501 137.71 20.5353 136.851 20.9249C135.993 21.3145 135.055 21.4977 134.113 21.4598C133.183 21.4828 132.258 21.317 131.394 20.9725C130.53 20.628 129.745 20.112 129.086 19.4557C128.406 18.7751 127.875 17.9613 127.525 17.0656C127.175 16.1698 127.014 15.2114 127.052 14.2506C127.027 13.3017 127.19 12.3573 127.531 11.4713C127.872 10.5854 128.384 9.77539 129.039 9.08776C129.672 8.41202 130.441 7.87749 131.295 7.51918C132.149 7.16087 133.07 6.98686 133.996 7.00854C134.95 6.97217 135.899 7.15023 136.775 7.52959C137.651 7.90896 138.43 8.47994 139.056 9.20041H139.117L139.093 7.16343ZM134.306 19.1882C134.961 19.2157 135.614 19.1045 136.223 18.8619C136.832 18.6192 137.383 18.2505 137.839 17.7801C138.75 16.7943 139.233 15.4881 139.182 14.1474C139.205 13.4957 139.091 12.8466 138.848 12.2413C138.606 11.6361 138.239 11.0879 137.773 10.6319C137.313 10.183 136.767 9.83114 136.169 9.59731C135.57 9.36347 134.93 9.25243 134.287 9.27081C133.651 9.25367 133.018 9.37014 132.43 9.61268C131.841 9.85523 131.311 10.2185 130.872 10.6789C130.425 11.1449 130.075 11.6956 129.845 12.2986C129.614 12.9015 129.506 13.5445 129.528 14.1896C129.497 14.8598 129.603 15.5293 129.84 16.1571C130.076 16.785 130.439 17.358 130.905 17.8411C131.349 18.2862 131.88 18.6354 132.465 18.8671C133.05 19.0988 133.677 19.2081 134.306 19.1882Z" fill="#1DBFBF"/>
<path d="M155.884 14.2224C155.884 14.382 155.884 14.5932 155.856 14.8514L155.823 15.2081H144.599C144.697 16.4596 145.256 17.6303 146.168 18.4935C147.071 19.3167 148.259 19.7561 149.481 19.7185C150.272 19.74 151.057 19.5723 151.77 19.2294C152.484 18.8865 153.105 18.3784 153.582 17.7473L155.287 19.2116C153.862 21.0045 151.897 21.901 149.391 21.901C148.429 21.9304 147.472 21.7609 146.578 21.4031C145.685 21.0453 144.875 20.5069 144.2 19.8218C143.513 19.1113 142.977 18.2694 142.624 17.3466C142.272 16.4239 142.109 15.4394 142.147 14.4524C142.075 12.47 142.791 10.5398 144.139 9.08306C144.773 8.39862 145.545 7.85673 146.404 7.49338C147.264 7.13004 148.191 6.95356 149.123 6.97568C150.038 6.94126 150.949 7.10509 151.794 7.45591C152.639 7.80673 153.398 8.33622 154.019 9.00797C155.292 10.4398 155.96 12.3087 155.884 14.2224ZM152.083 10.3034C151.705 9.94348 151.259 9.66293 150.771 9.47832C150.283 9.2937 149.763 9.20878 149.241 9.22856C148.151 9.20273 147.09 9.58054 146.262 10.2893C145.409 11.0436 144.853 12.0769 144.693 13.204H153.493C153.353 12.1091 152.858 11.0902 152.083 10.3034Z" fill="#1DBFBF"/>
<path d="M111.183 14.2224C111.183 14.382 111.183 14.5932 111.154 14.8514L111.121 15.2081H99.8979C99.9958 16.4596 100.555 17.6303 101.467 18.4935C102.364 19.311 103.542 19.75 104.756 19.7185C105.547 19.7404 106.332 19.5729 107.046 19.23C107.759 18.887 108.38 18.3787 108.857 17.7473L110.567 19.2116C109.161 21.0045 107.2 21.901 104.685 21.901C103.723 21.9304 102.766 21.7609 101.872 21.4031C100.979 21.0453 100.169 20.5069 99.4939 19.8218C98.8071 19.1113 98.2712 18.2694 97.9184 17.3466C97.5655 16.4239 97.4031 15.4394 97.4409 14.4524C97.369 12.47 98.0851 10.5398 99.4329 9.08306C100.066 8.39862 100.839 7.85673 101.698 7.49338C102.558 7.13004 103.484 6.95356 104.417 6.97568C105.332 6.94126 106.243 7.10509 107.088 7.45591C107.933 7.80673 108.692 8.33622 109.313 9.00797C110.588 10.4391 111.258 12.3081 111.183 14.2224ZM107.382 10.3034C107.003 9.94312 106.556 9.66238 106.067 9.47777C105.578 9.29315 105.057 9.20841 104.535 9.22856C103.445 9.2045 102.385 9.5821 101.556 10.2893C100.704 11.0446 100.148 12.0775 99.9872 13.204H108.787C108.648 12.1097 108.155 11.0909 107.382 10.3034Z" fill="#1DBFBF"/>
<path d="M23.3111 19.4888L22.1178 20.1787L21.0044 20.8217L13.3654 16.4192L12.2661 15.7856L13.3654 15.152L14.5775 14.4526L22.1178 18.8035L23.3111 19.4888Z" fill="white"/>
<path d="M12.266 15.7856L11.0586 16.4849L3.48541 20.8499L2.30151 20.1693V18.8692L9.95925 14.4526L11.0586 15.0863L12.266 15.7856Z" fill="white"/>
<path d="M2.30159 10.036L9.95933 14.4525L11.0587 15.0862L12.266 15.7996L13.3654 15.166L14.5587 14.4525L22.099 10.1017L23.3298 9.39295L24.4245 8.75933V7.35128L23.3486 6.73174L22.1178 6.01833L14.5305 1.64399L13.3654 0.972818L12.2097 0.311035L11.0587 0.982205L9.91235 1.64399L2.30159 6.03241L1.14118 6.70358L-0.00512695 7.35128V21.4975L1.17877 22.1827L2.30159 22.8398L9.91235 27.2282L11.0587 27.89L12.2097 28.5518L13.356 27.8947L14.5211 27.2235L22.1178 22.8398L23.311 22.1499L24.4245 21.5116V20.1317L23.311 19.4887L22.1178 20.1786L21.0043 20.8216L13.3654 25.2288L12.2097 25.8859L11.0493 25.2194L3.48549 20.8498L2.30159 20.1692V10.036ZM11.0587 3.64811L12.2097 2.97694L13.356 3.63403L21.0419 8.06L13.3654 12.5141L12.266 13.1431L11.0587 12.4203L3.4526 8.03653L11.0587 3.64811Z" fill="#26BDBD"/>
<path d="M13.3653 3.63414V12.4908L12.266 13.1197L11.0586 12.4204V3.64822L12.219 2.97705L13.3653 3.63414Z" fill="white"/>
</g>
<path d="M1.40965 72.6797H0.301691L3.50624 63.9524H4.59715L7.80169 72.6797H6.69374L4.08578 65.3331H4.0176L1.40965 72.6797ZM1.81874 69.2706H6.28465V70.2081H1.81874V69.2706ZM16.5247 70.0036V66.1342H17.5304V72.6797H16.5247V71.5717H16.4565C16.3031 71.9041 16.0645 72.1868 15.7406 72.4197C15.4167 72.6499 15.0077 72.7649 14.5133 72.7649C14.1042 72.7649 13.7406 72.6754 13.4224 72.4964C13.1042 72.3146 12.8542 72.0419 12.6724 71.6783C12.4906 71.3118 12.3997 70.8501 12.3997 70.2933V66.1342H13.4054V70.2251C13.4054 70.7024 13.5389 71.0831 13.806 71.3672C14.0758 71.6513 14.4196 71.7933 14.8372 71.7933C15.0872 71.7933 15.3415 71.7294 15.6 71.6016C15.8614 71.4737 16.0801 71.2777 16.2562 71.0135C16.4352 70.7493 16.5247 70.4126 16.5247 70.0036ZM20.378 68.7422V72.6797H19.3724V66.1342H20.3439V67.157H20.4292C20.5826 66.8246 20.8155 66.5575 21.128 66.3558C21.4405 66.1513 21.8439 66.049 22.3383 66.049C22.7814 66.049 23.1692 66.1399 23.5016 66.3217C23.834 66.5007 24.0925 66.7734 24.2772 67.1399C24.4618 67.5036 24.5542 67.9638 24.5542 68.5206V72.6797H23.5485V68.5888C23.5485 68.0746 23.415 67.674 23.1479 67.3871C22.8809 67.0973 22.5144 66.9524 22.0485 66.9524C21.7275 66.9524 21.4405 67.022 21.1877 67.1612C20.9377 67.3004 20.7403 67.5036 20.5954 67.7706C20.4505 68.0376 20.378 68.3615 20.378 68.7422ZM26.3919 72.6797V66.1342H27.3976V72.6797H26.3919ZM26.9033 65.0433C26.7072 65.0433 26.5382 64.9766 26.3962 64.843C26.2569 64.7095 26.1873 64.549 26.1873 64.3615C26.1873 64.174 26.2569 64.0135 26.3962 63.88C26.5382 63.7464 26.7072 63.6797 26.9033 63.6797C27.0993 63.6797 27.2669 63.7464 27.4061 63.88C27.5481 64.0135 27.6192 64.174 27.6192 64.3615C27.6192 64.549 27.5481 64.7095 27.4061 64.843C27.2669 64.9766 27.0993 65.0433 26.9033 65.0433ZM32.0861 66.1342V66.9865H28.6941V66.1342H32.0861ZM29.6827 64.5661H30.6884V70.8047C30.6884 71.0888 30.7296 71.3018 30.812 71.4439C30.8972 71.5831 31.0052 71.6768 31.1359 71.7251C31.2694 71.7706 31.41 71.7933 31.5577 71.7933C31.6685 71.7933 31.7594 71.7876 31.8305 71.7763C31.9015 71.7621 31.9583 71.7507 32.0009 71.7422L32.2055 72.6456C32.1373 72.6712 32.0421 72.6967 31.9199 72.7223C31.7978 72.7507 31.643 72.7649 31.4555 72.7649C31.1714 72.7649 30.893 72.7038 30.6202 72.5817C30.3503 72.4595 30.1259 72.2734 29.9469 72.0234C29.7708 71.7734 29.6827 71.4581 29.6827 71.0774V64.5661Z" fill="white"/>
<g clip-path="url(#clip1_511_254)">
<path d="M87.2586 65.1321L86.6796 65.8016L86.1172 66.4888L83.8841 69.1494L83.454 69.6428L83.0239 70.1714L82.5938 70.6647L81.0719 72.4796L80.5095 73.1491H77.929L78.5079 72.4796L81.3201 69.1318L81.7336 68.6384L82.1637 68.1098L82.5938 67.6165L83.5367 66.4888H84.3969L83.0239 68.1275L82.5938 68.6384L82.1637 69.1318L81.7336 69.6428L79.3516 72.4796H80.2283L82.1637 70.1714L82.5938 69.6604L83.0239 69.1318L83.454 68.6384L85.257 66.4888L85.8195 65.8016H83.2555L83.8344 65.1321H87.2586Z" fill="white"/>
<path d="M82.5937 67.6165L82.1636 68.1098L82.5937 67.6165Z" fill="white"/>
<path d="M87.2587 73.1489H84.6781L84.1157 72.4794L83.0239 71.1755L83.1397 71.0522L83.454 70.6645L84.9593 72.4794H85.8195L83.8841 70.1536L84.3142 69.6426L86.6797 72.4794L87.2587 73.1489Z" fill="white"/>
<path d="M80.2283 65.8016H79.3681L81.3035 68.1275L80.89 68.6384L78.5079 65.8016L77.929 65.1321H80.5095L81.0719 65.8016L82.1637 67.1055L81.7336 67.6165L80.2283 65.8016Z" fill="white"/>
<path d="M81.7336 68.6384L81.32 69.1318H81.3035L81.4193 69.0084L81.7336 68.6384Z" fill="white"/>
<path d="M56.226 65.1321L53.5793 72.3739C53.3973 72.8496 52.9672 73.1667 52.4875 73.1667C52.0078 73.1667 51.5777 72.8496 51.3957 72.3739L48.749 65.1321H50.2213L52.4544 71.2286C52.471 71.2638 52.4875 71.2814 52.5206 71.2638C52.5371 71.2638 52.5537 71.2462 52.5537 71.2286L54.7868 65.1321H56.226Z" fill="white"/>
<path d="M45.0932 65.1321C43.1412 65.1321 41.5532 66.8236 41.5532 68.9027V73.1667H42.9097V68.8851C42.9097 67.5989 43.8856 66.5593 45.0932 66.5593C46.3008 66.5593 47.2767 67.5989 47.2767 68.8851V73.1491H48.6332V68.8851C48.6332 66.806 47.0451 65.1321 45.0932 65.1321Z" fill="white"/>
<path d="M62.9089 65.1321C60.9569 65.1321 59.3689 66.8236 59.3689 68.9027V73.1667H60.7253V68.8851C60.7584 67.5989 61.7675 66.5945 62.975 66.6298C64.133 66.665 65.0593 67.6517 65.0924 68.8851V73.1491H66.4488V68.8851C66.4323 66.806 64.8608 65.1321 62.9089 65.1321Z" fill="white"/>
<path d="M71.0804 71.7218C69.7406 71.7218 68.6653 70.5765 68.6653 69.1493C68.6653 67.7221 69.7406 66.5768 71.0639 66.5768C71.8579 66.5768 72.6188 66.9997 73.0655 67.7045H74.5873C73.843 65.643 71.6594 64.6034 69.724 65.3963C67.7886 66.1892 66.8126 68.515 67.557 70.5765C68.3014 72.6381 70.4849 73.6776 72.4203 72.8847C73.4129 72.4795 74.2069 71.6337 74.5873 70.5765H73.0655C72.6188 71.2813 71.8745 71.7042 71.0804 71.7218Z" fill="white"/>
<path d="M40.3291 65.1321H38.9727V73.1667H40.3291V65.1321Z" fill="white"/>
<path d="M39.6509 64.4448C40.0254 64.4448 40.3291 64.1214 40.3291 63.7224C40.3291 63.3234 40.0254 63 39.6509 63C39.2763 63 38.9727 63.3234 38.9727 63.7224C38.9727 64.1214 39.2763 64.4448 39.6509 64.4448Z" fill="white"/>
<path d="M58.3103 65.1321H56.9539V73.1667H58.3103V65.1321Z" fill="white"/>
<path d="M57.6321 64.4448C58.0066 64.4448 58.3103 64.1214 58.3103 63.7224C58.3103 63.3234 58.0066 63 57.6321 63C57.2575 63 56.9539 63.3234 56.9539 63.7224C56.9539 64.1214 57.2575 64.4448 57.6321 64.4448Z" fill="white"/>
<path d="M76.9199 65.1321H75.5635V73.1667H76.9199V65.1321Z" fill="white"/>
<path d="M76.2417 64.4448C76.6163 64.4448 76.9199 64.1214 76.9199 63.7224C76.9199 63.3234 76.6163 63 76.2417 63C75.8671 63 75.5635 63.3234 75.5635 63.7224C75.5635 64.1214 75.8671 64.4448 76.2417 64.4448Z" fill="white"/>
<path d="M88.8136 65.132C88.2677 65.132 87.821 64.6562 87.821 64.0748C87.821 63.4933 88.2677 63.0176 88.8136 63.0176C89.3594 63.0176 89.8061 63.4933 89.8061 64.0748C89.8061 64.6562 89.3594 65.132 88.8136 65.132ZM88.8136 63.1762C88.3504 63.1762 87.9699 63.5814 87.9699 64.0748C87.9699 64.5681 88.3504 64.9734 88.8136 64.9734C89.2767 64.9734 89.6572 64.5681 89.6572 64.0748C89.6572 63.5814 89.2767 63.1762 88.8136 63.1762Z" fill="white"/>
<path d="M88.5324 63.4756C88.6151 63.458 88.7144 63.458 88.8136 63.458C88.979 63.458 89.0783 63.4932 89.1445 63.5637C89.2106 63.6166 89.2437 63.7047 89.2437 63.7928C89.2437 63.9514 89.1445 64.0571 89.0287 64.1099C89.1114 64.1452 89.1775 64.2333 89.1941 64.3566C89.2272 64.5328 89.2603 64.6562 89.2768 64.6914H89.1279C89.1114 64.6562 89.0783 64.5504 89.0452 64.3919C89.0121 64.2157 88.946 64.1628 88.8136 64.1452H88.6647V64.6738H88.5159V63.4756H88.5324ZM88.6813 64.0395H88.8302C88.9956 64.0395 89.0948 63.9514 89.0948 63.8104C89.0948 63.6518 88.979 63.5813 88.8302 63.5813C88.764 63.5813 88.7144 63.5813 88.6813 63.599V64.0395Z" fill="white"/>
</g>
<defs>
<clipPath id="clip0_511_254">
<rect width="155.889" height="28.2408" fill="white" transform="translate(-0.00512695 0.311035)"/>
</clipPath>
<clipPath id="clip1_511_254">
<rect width="50.8334" height="10.1667" fill="white" transform="translate(38.9727 63)"/>
</clipPath>
</defs>
</svg>
