<svg width="128" height="47" viewBox="0 0 128 47" fill="none" xmlns="http://www.w3.org/2000/svg">
<path d="M57.1226 39.0676C55.3492 39.0676 53.962 38.4932 52.9611 37.3532C51.9603 36.2045 51.4598 34.5166 51.4598 32.2809V22.2599H48.9576V18.2744H51.4598V11.4877L56.1218 10.984V18.2744H62.0743V22.2599H56.1218V31.8125C56.1218 32.8464 56.271 33.5799 56.5783 34.0129C56.8856 34.4459 57.386 34.6668 58.0796 34.6668C58.9927 34.6668 59.9936 34.3752 61.0822 33.7831L62.2938 37.8481C60.8188 38.6611 59.098 39.0676 57.1314 39.0676H57.1226Z" fill="white"/>
<path d="M82.2322 28.2513C82.2322 28.755 82.1883 29.3824 82.1092 30.1335H67.2806C67.5878 31.5828 68.2551 32.7227 69.2823 33.5534C70.3095 34.3752 71.5738 34.7905 73.0751 34.7905C75.1822 34.7905 76.8766 33.9952 78.1584 32.4046L81.4069 35.2147C79.4315 37.7862 76.5781 39.0676 72.8292 39.0676C69.8266 39.0676 67.3508 38.0955 65.3929 36.1514C63.4351 34.2073 62.4606 31.6623 62.4606 28.4987C62.4606 25.3351 63.4 22.8696 65.27 20.9078C67.1401 18.9549 69.5106 17.974 72.3727 17.974C75.2348 17.974 77.7282 18.9284 79.5368 20.846C81.3454 22.7636 82.2409 25.229 82.2409 28.2424L82.2322 28.2513ZM75.8143 23.3291C74.9802 22.5868 73.9091 22.2157 72.6098 22.2157C71.3104 22.2157 70.1866 22.578 69.256 23.3026C68.3253 24.0272 67.6932 25.0523 67.3596 26.3602H77.5175C77.2102 25.0788 76.6396 24.0626 75.8143 23.3203V23.3291Z" fill="white"/>
<path d="M85.6914 38.7318V7.87341H90.3534V38.7229H85.6914V38.7318Z" fill="white"/>
<path d="M101.012 39.0676C99.2294 39.0676 97.8423 38.4932 96.8502 37.3532C95.8493 36.2045 95.3489 34.5166 95.3489 32.2809V22.2599H92.8467V18.2744H95.3489V11.4877L100.011 10.984V18.2744H105.963V22.2599H100.011V31.8125C100.011 32.8464 100.16 33.5799 100.467 34.0129C100.775 34.4459 101.275 34.6668 101.969 34.6668C102.882 34.6668 103.883 34.3752 104.971 33.7831L106.183 37.8481C104.708 38.6611 102.987 39.0676 101.02 39.0676H101.012Z" fill="white"/>
<path d="M117.008 39.0676C113.839 39.0676 111.275 38.0778 109.3 36.0895C107.324 34.1012 106.341 31.5916 106.341 28.5429C106.341 25.4941 107.324 22.9756 109.3 20.9785C111.275 18.9814 113.839 17.9828 117.008 17.9828C120.178 17.9828 122.706 18.9637 124.69 20.9166C126.674 22.8696 127.667 25.4146 127.667 28.5429C127.667 31.6711 126.674 34.1719 124.69 36.1337C122.706 38.0867 120.142 39.0676 117.008 39.0676ZM117.008 34.7905C118.676 34.7905 120.072 34.2073 121.214 33.032C122.355 31.8567 122.917 30.3633 122.917 28.5429C122.917 26.7225 122.355 25.1495 121.231 23.9742C120.107 22.7989 118.694 22.2157 117.008 22.2157C115.322 22.2157 113.839 22.8166 112.741 24.0184C111.644 25.2202 111.099 26.7313 111.099 28.5429C111.099 30.3544 111.653 31.786 112.768 32.9878C113.874 34.1896 115.296 34.7905 117.017 34.7905H117.008Z" fill="white"/>
<path d="M40.5044 13.341V33.2531C40.5044 34.352 39.9148 35.3739 38.965 35.9344L24.6628 44.242L21.8351 45.8904C20.8853 46.4398 19.7171 46.4398 18.7563 45.8904L15.9723 44.275L1.62643 35.9344C0.676593 35.3849 0.0870361 34.363 0.0870361 33.2531V13.341C0.0870361 12.2421 0.676593 11.2092 1.62643 10.6597L18.7563 0.714699C19.7062 0.16525 20.8853 0.16525 21.8351 0.714699L38.965 10.6707C39.9148 11.2202 40.5044 12.2531 40.5044 13.352V13.341Z" fill="#683CC5"/>
<path d="M31.4643 20.7807C31.4643 22.1214 31.2459 23.3851 30.8092 24.5389C30.5035 25.429 30.0996 26.2642 29.5974 27.0554C28.4073 28.8466 26.6605 30.2972 24.6625 31.1653V44.2422L21.8349 45.8905C20.885 46.44 19.7168 46.44 18.7561 45.8905L15.972 44.2751V31.1653C13.9523 30.2972 12.2382 28.8466 11.0154 27.0554C10.4914 26.2752 10.0874 25.44 9.77078 24.5389C9.33408 23.3741 9.11572 22.1104 9.11572 20.7807C9.11572 19.8247 9.24674 18.8796 9.48693 17.9895C9.94547 16.0884 10.9171 14.3851 12.2273 13.0225V21.1104L18.1556 24.5389L20.3064 25.7807L22.4572 24.5389L28.3636 21.1104V13.0225C29.6738 14.3741 30.6345 16.0774 31.0822 17.9895C31.3442 18.8796 31.4534 19.8247 31.4534 20.7807H31.4643Z" fill="white"/>
<path d="M25.6995 13.4401V19.7038L20.3171 22.8576L14.9128 19.7038V13.4401L17.8934 11.7258L20.3171 10.3082L22.719 11.7038L25.6995 13.4401Z" fill="white"/>
</svg>
