<svg width="95" height="50" viewBox="0 0 95 50" fill="none" xmlns="http://www.w3.org/2000/svg">
<path d="M0.341309 30.6166C1.73427 27.6332 3.87824 25.0627 6.56324 23.157C9.24823 21.2512 12.3822 20.0755 15.6581 19.745C17.8459 19.4972 20.046 19.3745 22.2478 19.3774C24.4023 19.3774 26.4071 19.4864 28.5311 19.5987C30.9137 19.7246 33.3508 19.8574 36.278 19.8574C41.022 19.837 45.7601 19.521 50.4648 18.9111C43.6542 20.4385 36.6953 21.2057 29.7156 21.1984C27.7074 21.1984 25.6958 21.1338 23.7386 21.0044C23.0817 20.9602 22.4145 20.9364 21.7576 20.9364C11.6213 20.9364 4.00033 26.0352 0.341309 30.6166Z" fill="#EA6E53"/>
<path d="M48.7585 19.1974C42.4902 20.4684 36.1106 21.1104 29.7146 21.1137C27.7098 21.1137 25.7016 21.049 23.7445 20.9197C23.0842 20.8754 22.4136 20.8516 21.7567 20.8516C11.9778 20.8516 4.53378 25.5862 0.707978 30.0417C1.4489 28.5962 2.36953 27.2501 3.44799 26.0355C6.58966 22.501 10.9504 20.2836 15.6572 19.8271C17.8417 19.5821 20.0384 19.4605 22.2366 19.4629C24.3878 19.4629 26.3926 19.5718 28.5165 19.6841C30.8991 19.81 33.3362 19.9428 36.2702 19.9428C40.446 19.9291 44.6176 19.6803 48.7654 19.1974M51.8594 18.6357C46.6916 19.358 41.4813 19.7343 36.2634 19.7624C30.6915 19.7624 26.7704 19.2825 22.2298 19.2825C20.0246 19.2834 17.8212 19.4084 15.63 19.6569C12.2255 19.988 8.97447 21.2354 6.22234 23.2665C3.47021 25.2976 1.3199 28.0366 0 31.1921C3.84622 26.0048 11.8518 21.0184 21.7567 21.0184C22.4068 21.0184 23.0671 21.0422 23.7309 21.0864C25.7935 21.2226 27.7915 21.2804 29.7146 21.2804C42.5195 21.2804 51.8594 18.6425 51.8594 18.6425V18.6357Z" fill="#EA6E53"/>
<path d="M25.1606 18.3254C25.1606 18.3254 41.73 9.54373 52.6595 10.6057C68.3847 12.1306 76.826 16.7052 90.0665 16.8958C90.0665 16.8958 82.9187 17.9442 68.623 15.6568C49.8105 12.6445 47.37 10.3062 25.1606 18.3254Z" fill="#0761E9" stroke="#0761E9" strokeWidth="0.75" stroke-linecap="round" stroke-linejoin="round"/>
<path d="M34.0381 22.1856C40.6133 21.7901 47.1318 20.7307 53.4939 19.0235C64.219 16.1576 66.3736 15.7764 72.5003 17.1277C72.5003 17.1277 66.6561 16.9881 57.0814 19.7179C47.5067 22.4477 42.0777 23.091 34.0381 22.1856Z" fill="#0761E9" stroke="#0761E9" strokeWidth="0.75" stroke-linecap="round" stroke-linejoin="round"/>
<path d="M89.1303 30.6875C89.9608 29.6663 91.4278 27.4335 90.5633 25.1462C89.1201 21.3374 82.1527 19.0977 69.8481 18.4885C71.2096 18.3591 73.6739 18.1787 76.6114 18.1787C82.0029 18.1787 89.4809 18.7948 94.5423 21.722C94.3448 22.3789 92.5817 27.9951 89.1303 30.6875Z" fill="#EA6E53"/>
<path d="M76.6149 18.095V18.2652C81.9724 18.2652 89.3993 18.8745 94.4403 21.7642C94.185 22.5982 92.6363 27.36 89.6955 30.0966C90.4988 28.9291 91.3769 27.0605 90.6417 25.1203C89.236 21.4034 82.6599 19.1706 71.0804 18.4694C72.4794 18.3673 74.4161 18.2652 76.6115 18.2652V18.095M76.6115 18.095C73.9722 18.0875 71.3346 18.2296 68.7114 18.5205C100.448 19.8105 88.5654 31.1926 88.5654 31.1926C92.7112 28.5479 94.6411 21.6996 94.6411 21.6996C89.6206 18.7621 82.2243 18.1086 76.6013 18.1086L76.6115 18.095Z" fill="#EA6E53"/>
<path d="M9.4113 28.5487C9.80049 27.0418 10.64 25.6893 11.8177 24.6719C11.8177 24.6719 5.62294 26.8571 0.925781 31.3058C0.929185 31.3058 5.62294 28.5079 9.4113 28.5487Z" fill="#0761E9" stroke="#0761E9" strokeWidth="0.75" stroke-linecap="round" stroke-linejoin="round"/>
<path d="M29.8511 13.6772C30.0145 13.3368 30.1914 12.9964 30.3684 12.656L30.4842 12.7616C30.2697 13.0577 30.0587 13.364 29.8511 13.6772ZM31.3794 10.9542C31.915 10.1261 32.4992 9.33054 33.1289 8.57156L33.6258 9.29655C32.9446 9.90822 32.3023 10.5619 31.7027 11.2537L31.3794 10.9542ZM65.2568 10.6138C64.5522 10.4674 61.5399 9.85477 58.5106 9.51439L62.7516 6.14809C63.7825 7.52046 64.625 9.02465 65.2568 10.6206V10.6138ZM34.4631 7.0637C35.2103 6.29412 36.0062 5.57331 36.8458 4.90573L37.5027 6.57697C36.6831 7.02543 35.895 7.52922 35.1439 8.08482L34.4631 7.0637ZM56.8427 8.02696C56.0222 7.32541 55.1314 6.7106 54.1844 6.19234L56.8223 1.49859C58.3253 2.16733 59.7112 3.07289 60.9272 4.18073L56.8427 8.02696ZM38.4625 3.73825C39.549 3.01476 40.6958 2.38615 41.8901 1.85938L42.1862 4.74235C41.5671 4.89316 40.9559 5.07492 40.355 5.28695C40.0146 5.40268 39.6947 5.54563 39.3781 5.68178L39.2488 5.73965L38.4625 3.73825ZM52.0503 5.2427C51.085 4.88481 50.0877 4.62037 49.072 4.45303L49.8514 0.0860367H50.0352C51.569 0.0807919 53.0965 0.283457 54.5758 0.688498L52.0503 5.2427ZM43.7928 1.12418C44.3816 0.930164 44.9228 0.783803 45.447 0.64425C46.2016 0.460278 46.9666 0.321612 47.7377 0.228994L47.0366 4.25221C46.7847 4.25221 46.5294 4.25221 46.2741 4.25221C45.5548 4.24993 44.8362 4.29542 44.123 4.38836L43.7928 1.12418Z" fill="#EA6E53"/>
<path d="M50.0347 0.170187C51.5284 0.164321 53.0164 0.356607 54.4595 0.742015L52.0395 5.13624C51.117 4.79952 50.1657 4.54774 49.1974 4.38401L49.9224 0.170187H50.0347ZM47.6521 0.326759L46.9713 4.16618C46.7365 4.16618 46.505 4.16618 46.2906 4.16618C45.5976 4.16395 44.9053 4.20602 44.2177 4.29211L43.9011 1.19812C44.4594 1.01431 44.9767 0.857742 45.4839 0.738611C46.1975 0.565814 46.9202 0.432862 47.6487 0.340374M56.8422 1.61678C58.2824 2.26703 59.6141 3.13492 60.7905 4.19L56.8422 7.91029C56.0529 7.24572 55.2014 6.6587 54.2996 6.15736L56.8422 1.61678ZM41.8249 1.98438L42.1006 4.67674C41.4947 4.8265 40.899 5.01711 40.334 5.20432C39.9936 5.32345 39.6533 5.4664 39.3503 5.60255L39.3027 5.62298L38.5743 3.76794C39.6079 3.08665 40.695 2.49018 41.8249 1.98438ZM36.8078 5.04774L37.3932 6.53858C36.6215 6.95901 35.8769 7.42737 35.1637 7.94092L34.5715 7.07637C35.2752 6.35133 36.022 5.66935 36.8078 5.03413M62.7374 6.24926C63.7047 7.55481 64.5052 8.9761 65.1201 10.4801C64.2215 10.2963 61.5019 9.75511 58.721 9.43176L62.7374 6.24926ZM33.1249 8.68294L33.5163 9.25476C32.8745 9.83436 32.2675 10.4515 31.6987 11.103L31.4911 10.9192C31.996 10.1456 32.5414 9.39912 33.1249 8.68294ZM50.0347 0H49.7862L48.9795 4.52357C50.0443 4.69715 51.0889 4.97767 52.0973 5.36089L54.691 0.64671C53.1759 0.218786 51.6091 0.00117841 50.0347 0ZM47.8461 0.129342C47.0336 0.223949 46.2276 0.368311 45.4328 0.561617C44.8474 0.704574 44.2756 0.874761 43.7071 1.06537L44.0475 4.46911C44.7914 4.3749 45.5408 4.33169 46.2906 4.33977C46.5697 4.33977 46.8454 4.33977 47.1245 4.35678L47.8393 0.129342H47.8461ZM56.7877 1.38873L54.0647 6.22203C55.0561 6.76009 55.9872 7.4025 56.8422 8.13834L61.056 4.17979C59.795 3.01953 58.3504 2.07639 56.7809 1.38873H56.7877ZM41.978 1.7291C40.7201 2.27708 39.5137 2.93664 38.3735 3.69986L39.2142 5.84762C39.6056 5.68084 39.9937 5.50725 40.3953 5.36089C41.0284 5.13964 41.6615 4.95584 42.2912 4.80267L41.978 1.73931V1.7291ZM36.8724 4.79246C35.9808 5.4907 35.1381 6.24924 34.3503 7.06276L35.1263 8.18599C35.9146 7.60495 36.7439 7.08167 37.6076 6.62027L36.8826 4.77544L36.8724 4.79246ZM62.7408 6.04164L58.2921 9.57812C61.8422 9.95593 65.3923 10.7354 65.3923 10.7354C64.7424 9.05463 63.8577 7.47436 62.7647 6.04164H62.7408ZM33.1351 8.42425C32.4599 9.23205 31.8358 10.0812 31.2665 10.9668L31.709 11.3685C32.3425 10.6347 33.0248 9.9444 33.7512 9.30242L33.1351 8.42425ZM30.3475 12.5087C29.94 13.252 29.573 14.0167 29.248 14.7995C29.6631 14.0882 30.1177 13.4007 30.6095 12.7402L30.3475 12.5087Z" fill="#EA6E53"/>
<path d="M15.9252 35.6092L13.2061 23.4078H17.4242L19.6205 33.7441H16.9362L23.3506 23.4078H27.5688L19.9691 35.6092H15.9252Z" fill="#0761E9"/>
<path d="M30.8368 27.9397H36.2751L35.6825 30.9029H30.2441L30.8368 27.9397ZM30.1918 32.5065H36.31L35.6825 35.6092H25.5379L27.9782 23.4078H37.8961L37.2686 26.5104H31.3946L30.1918 32.5065Z" fill="#0761E9"/>
<path d="M37.2661 35.6092L39.7063 23.4078H45.1795C46.7948 23.4078 48.0439 23.7622 48.9271 24.4711C49.8102 25.1683 50.2518 26.1502 50.2518 27.4168C50.2518 28.4394 49.9962 29.3342 49.4849 30.1011C48.9852 30.8681 48.2705 31.4665 47.3409 31.8965C46.4229 32.3264 45.3364 32.5414 44.0814 32.5414H40.1421L42.3383 30.8158L41.3797 35.6092H37.2661ZM44.7263 35.6092L42.2163 31.1644H46.452L48.9968 35.6092H44.7263ZM42.2338 31.3038L40.787 29.4388H44.2906C44.86 29.4388 45.3015 29.2993 45.6153 29.0204C45.929 28.7299 46.0859 28.329 46.0859 27.8177C46.0859 27.3761 45.9465 27.0624 45.6676 26.8765C45.4003 26.6789 45.0285 26.5802 44.552 26.5802H41.3622L43.5585 24.6628L42.2338 31.3038Z" fill="#0761E9"/>
<path d="M52.7331 35.6092L54.5284 26.5976H50.9552L51.6001 23.4078H62.8602L62.2153 26.5976H58.642L56.8467 35.6092H52.7331Z" fill="#0761E9"/>
<path d="M61.4884 35.6092L63.9287 23.4078H68.0423L65.602 35.6092H61.4884Z" fill="#0761E9"/>
<path d="M74.5196 35.8881C73.2646 35.8881 72.1665 35.6615 71.2252 35.2083C70.284 34.7435 69.5519 34.1043 69.029 33.2909C68.5177 32.4659 68.2621 31.513 68.2621 30.4323C68.2621 29.3632 68.448 28.3813 68.8198 27.4865C69.2033 26.5918 69.7378 25.819 70.4234 25.1683C71.109 24.5175 71.9225 24.0179 72.8637 23.6693C73.805 23.309 74.8392 23.1289 75.9664 23.1289C77.14 23.1289 78.18 23.3381 79.0864 23.7564C79.9928 24.1747 80.6668 24.779 81.1084 25.5692L78.1452 27.8874C77.8895 27.4343 77.5583 27.0856 77.1516 26.8416C76.7449 26.586 76.2627 26.4581 75.7049 26.4581C75.2168 26.4581 74.7695 26.5511 74.3627 26.737C73.9677 26.9113 73.6249 27.167 73.3343 27.504C73.0438 27.8293 72.8172 28.2186 72.6546 28.6718C72.4919 29.125 72.4105 29.6247 72.4105 30.1708C72.4105 30.6473 72.5151 31.0656 72.7243 31.4258C72.9334 31.7861 73.224 32.065 73.5958 32.2625C73.9793 32.4601 74.4209 32.5588 74.9205 32.5588C75.397 32.5588 75.8618 32.4484 76.315 32.2276C76.7798 32.0069 77.2214 31.6466 77.6397 31.147L80.0625 33.4652C79.3188 34.3716 78.488 35.0049 77.57 35.3651C76.6636 35.7138 75.6468 35.8881 74.5196 35.8881Z" fill="#0761E9"/>
<path d="M80.553 35.6092L82.9933 23.4078H87.1069L84.6666 35.6092H80.553Z" fill="#0761E9"/>
<path d="M13.8296 48.6316L14.9801 46.4532C16.155 47.288 17.5621 47.7332 19.0033 47.7262C20.5554 47.7262 21.5322 47.185 21.5322 46.2967C21.5322 44.3429 15.4838 45.3913 15.4838 41.5042C15.4838 38.9922 17.6792 37.3721 21.0625 37.3721C22.6997 37.3721 24.2178 37.7397 25.2798 38.417L24.2178 40.5784C23.2305 39.9459 22.0783 39.6191 20.906 39.639C19.2654 39.639 18.3089 40.2652 18.3089 41.1366C18.2885 43.1414 24.3574 42.0965 24.3574 45.844C24.3574 48.3695 22.1245 49.9931 18.7276 49.9931C16.7398 49.9931 14.8575 49.4009 13.8296 48.6316Z" fill="#EA6E53"/>
<path d="M27.9475 49.782L29.9148 39.8839H26.0107L26.4839 37.583H37.1001L36.6304 39.8839H32.757L30.7692 49.782H27.9475Z" fill="#EA6E53"/>
<path d="M36.8223 45.7213C36.8267 45.2822 36.8734 44.8445 36.9618 44.4143L38.3233 37.583H41.1654L39.8039 44.3632C39.7399 44.6999 39.7058 45.0416 39.7018 45.3843C39.7018 46.865 40.5357 47.5798 42.0538 47.5798C43.7557 47.5798 44.7564 46.6369 45.2261 44.3564L46.5876 37.5762H49.3548L47.9933 44.5368C47.2615 48.1448 45.1887 49.9828 41.7543 49.9828C38.6671 49.993 36.8223 48.3524 36.8223 45.7213Z" fill="#EA6E53"/>
<path d="M49.7183 49.782L52.1587 37.583H57.2643C61.0289 37.583 63.2788 39.5504 63.2788 42.6886C63.2788 46.9943 60.1916 49.799 55.6782 49.799L49.7183 49.782ZM53.0131 47.4641H55.7667C58.6973 47.4641 60.423 45.4763 60.423 42.8282C60.423 41.014 59.2555 39.901 56.9546 39.901H54.5311L53.0131 47.4641Z" fill="#EA6E53"/>
<path d="M64.1196 49.782L66.5601 37.583H69.3988L66.9583 49.782H64.1196Z" fill="#EA6E53"/>
<path d="M70.2192 44.6935C70.2192 40.5273 73.2826 37.3721 77.7653 37.3721C81.4788 37.3721 83.7117 39.5334 83.7117 42.6717C83.7117 46.8379 80.6483 49.9931 76.1622 49.9931C72.4521 49.9931 70.2192 47.8318 70.2192 44.6935ZM80.8525 42.8283C80.8525 41.0141 79.668 39.7649 77.5237 39.7649C74.77 39.7649 73.0784 41.9433 73.0784 44.5301C73.0784 46.3409 74.2629 47.5935 76.4072 47.5935C79.1609 47.5867 80.8525 45.4083 80.8525 42.8283Z" fill="#EA6E53"/>
<path d="M21.062 37.5423C22.4533 37.5006 23.8311 37.8245 25.058 38.4817L24.1662 40.3333C23.1852 39.7521 22.0627 39.4529 20.9225 39.4688C19.241 39.4688 18.1552 40.1223 18.1552 41.1366C18.1552 42.1509 19.2819 42.4334 20.5991 42.801C22.301 43.2742 24.2037 43.8222 24.2037 45.844C24.2037 48.2606 22.0593 49.8229 18.7577 49.8229C16.9878 49.8229 15.1736 49.3362 14.0776 48.5806L15.068 46.7051C16.2335 47.4826 17.6018 47.9004 19.0028 47.9066C20.6672 47.9066 21.7019 47.294 21.7019 46.3069C21.7019 45.3198 20.5991 45.0577 19.3193 44.6969C17.6174 44.2102 15.6535 43.6758 15.6535 41.5144C15.6535 39.108 17.7774 37.5525 21.062 37.5525M21.062 37.3823C17.6787 37.3823 15.4833 39.0025 15.4833 41.5144C15.4833 45.4015 21.5317 44.3531 21.5317 46.3069C21.5317 47.1953 20.5549 47.7365 19.0028 47.7365C17.5593 47.7411 16.1508 47.2923 14.9761 46.4532L13.8257 48.6316C14.8468 49.4009 16.7359 49.9931 18.7237 49.9931C22.1274 49.9931 24.3534 48.3695 24.3534 45.844C24.3534 42.0999 18.2846 43.1414 18.305 41.1366C18.305 40.2652 19.2615 39.639 20.9021 39.639C22.0744 39.6191 23.2266 39.9459 24.2139 40.5784L25.2759 38.417C24.2139 37.7363 22.6958 37.3721 21.0586 37.3721L21.062 37.3823Z" fill="#EA6E53"/>
<path d="M36.9061 37.7537L36.5045 39.7142H32.6174L32.5902 39.8504L30.633 49.6089H28.1551L30.0816 39.9116L30.1225 39.7108H26.2082L26.6064 37.7503H36.8925M37.1001 37.5801H26.4839L26.0107 39.881H29.9148L27.9475 49.7791H30.7692L32.757 39.881H36.644L37.1137 37.5801H37.1001Z" fill="#EA6E53"/>
<path d="M49.1467 37.7532L47.809 44.5028C47.0942 48.0325 45.0486 49.8229 41.7368 49.8229C38.7653 49.8229 36.992 48.2878 36.992 45.7384C36.9967 45.3107 37.0423 44.8844 37.1281 44.4654L38.4624 37.7532H40.9573L39.6367 44.3326C39.5701 44.6816 39.5348 45.0359 39.5311 45.3912C39.5311 46.9399 40.4025 47.7568 42.0533 47.7568C43.8845 47.7568 44.9124 46.7357 45.3924 44.3939L46.7232 37.7532H49.1501M49.3577 37.583H46.5837L45.2222 44.3633C44.7525 46.6438 43.7586 47.5866 42.0499 47.5866C40.5318 47.5866 39.6979 46.8718 39.6979 45.3912C39.7018 45.0485 39.736 44.7068 39.8 44.3701L41.1615 37.5898H38.3194L36.9579 44.4211C36.8695 44.8513 36.8228 45.289 36.8184 45.7282C36.8184 48.3592 38.6632 49.9998 41.7334 49.9998C45.1677 49.9998 47.2406 48.1516 47.9724 44.5539L49.3543 37.583H49.3577Z" fill="#EA6E53"/>
<path d="M57.2678 37.7531C60.9268 37.7531 63.112 39.5911 63.112 42.6715C63.112 46.824 60.1235 49.6117 55.6816 49.6117H49.9259L52.3085 37.7531H57.278M52.8157 47.6239H55.7769C58.6633 47.6239 60.6034 45.694 60.6034 42.8178C60.6034 40.8505 59.276 39.7204 56.9648 39.7204H54.3916L54.3644 39.8566L52.8463 47.4197L52.8055 47.6239M57.2678 37.5727H52.1622L49.7217 49.7717H55.685C60.1984 49.7717 63.2856 46.967 63.2856 42.6613C63.2856 39.54 61.0357 37.5557 57.2712 37.5557L57.2678 37.5727ZM53.0131 47.4435L54.5312 39.8804H56.9546C59.2556 39.8804 60.423 40.9934 60.423 42.8076C60.423 45.4557 58.6973 47.4435 55.7667 47.4435H53.0131Z" fill="#EA6E53"/>
<path d="M69.1913 37.7532L66.8086 49.6118H64.3307L66.7133 37.7532H69.2049M69.4125 37.583H66.5738L64.1333 49.782H66.972L69.4125 37.583Z" fill="#EA6E53"/>
<path d="M77.7653 37.5418C81.2746 37.5418 83.5517 39.5568 83.5517 42.6712C83.5517 46.8135 80.4475 49.819 76.1724 49.819C72.6665 49.819 70.386 47.804 70.386 44.6896C70.386 40.5473 73.4902 37.5418 77.7619 37.5418M76.4004 47.753C79.0758 47.753 81.0159 45.6801 81.0159 42.8244C81.0159 40.8366 79.6748 39.6044 77.5168 39.6044C74.8415 39.6044 72.9014 41.6773 72.9014 44.533C72.9014 46.5174 74.2424 47.753 76.4004 47.753ZM77.7619 37.3682C73.2656 37.3682 70.2158 40.5234 70.2158 44.6896C70.2158 47.8279 72.4487 49.9892 76.1587 49.9892C80.6585 49.9892 83.7082 46.834 83.7082 42.6678C83.7082 39.5295 81.4754 37.3682 77.7619 37.3682ZM76.4004 47.5794C74.2561 47.5794 73.0716 46.3404 73.0716 44.516C73.0716 41.936 74.7734 39.7508 77.5168 39.7508C79.6612 39.7508 80.8457 40.9863 80.8457 42.8141C80.8457 45.3942 79.1438 47.5794 76.4004 47.5794Z" fill="#EA6E53"/>
</svg>
